<?xml version="1.0" encoding="utf-8"?>
<!-- Generator: Adobe Illustrator 21.0.0, SVG Export Plug-In . SVG Version: 6.00 Build 0)  -->
<svg version="1.1" id="Calque_1" xmlns="http://www.w3.org/2000/svg" xmlns:xlink="http://www.w3.org/1999/xlink" x="0px" y="0px"
	 viewBox="0 0 141.7 141.7" style="enable-background:new 0 0 141.7 141.7;" xml:space="preserve">
<style type="text/css">
	.st0{fill:#217ABF;}
	.st1{fill:#FFFFFF;}
</style>
<title>Artboard 26</title>
<path class="st0" d="M33.7,19.8c-2.2,0-3.9,1.8-3.9,3.9v31.1c-2.3-1-4.2-2.8-6.8-2.8c-10.4,0-18.9,8.5-18.9,18.9
	c0,10.4,8.5,18.9,18.9,18.9c2.5,0,4.5-1.9,6.8-2.9V118c0,2.2,1.8,3.9,3.9,3.9h36.6c2.2,0,3.9-1.8,3.9-3.9c0-1.1-0.5-2.2-1.3-2.9
	c0,0-0.1-0.1-0.2-0.2c-0.2-0.2-0.4-0.5-0.6-0.7h0c-0.2-0.3-0.4-0.6-0.6-0.9c0,0,0,0,0,0c-0.2-0.3-0.4-0.6-0.5-0.9
	c-0.2-0.3-0.3-0.7-0.4-1c0,0,0,0,0,0c-0.1-0.3-0.2-0.7-0.3-1c-0.1-0.4-0.2-0.7-0.2-1.1c-0.1-0.4-0.1-0.7-0.1-1.1c0-0.3,0-0.5,0-0.8
	c0-0.4,0-0.7,0.1-1.1c0-0.4,0.1-0.7,0.2-1.1c0.1-0.4,0.2-0.7,0.3-1.1c0.1-0.3,0.2-0.7,0.4-1c0.1-0.3,0.3-0.7,0.5-1
	c0.2-0.3,0.4-0.6,0.6-0.9c0.2-0.3,0.4-0.6,0.7-0.9c0.2-0.3,0.5-0.6,0.8-0.8c0.3-0.3,0.5-0.5,0.8-0.7h0c0.3-0.2,0.6-0.4,0.9-0.6h0
	c0.3-0.2,0.6-0.4,1-0.5h0c0.3-0.2,0.6-0.3,1-0.4c0,0,0,0,0,0c0.3-0.1,0.7-0.3,1.1-0.4c0.3-0.1,0.7-0.2,1-0.2c0,0,0,0,0.1,0
	c0.4-0.1,0.7-0.1,1.1-0.2c0.4,0,0.9-0.1,0.7-0.1c0.5,0,0.8,0,0.9,0c0.7,0.1,1.1,0.1,1.3,0.2c0.4,0.1,0.8,0.2,1.1,0.3
	c0.4,0.1,0.7,0.3,1,0.4c0.3,0.1,0.7,0.3,1,0.5c0.3,0.2,0.7,0.4,1,0.6c0.3,0.2,0.6,0.4,0.9,0.7c0,0,0,0,0,0c0.3,0.2,0.6,0.5,0.8,0.8
	c0.3,0.3,0.5,0.5,0.7,0.8c0.2,0.3,0.4,0.6,0.6,0.9c0,0,0,0,0,0c0.2,0.3,0.4,0.6,0.5,1c0.2,0.3,0.3,0.7,0.4,1c0,0,0,0,0,0
	c0.1,0.3,0.2,0.7,0.3,1c0.1,0.4,0.2,0.7,0.2,1.1c0.1,0.4,0.1,0.7,0.1,1.1c0,0.3,0,0.5,0,0.8c0,0.4,0,0.7-0.1,1.1
	c0,0.4-0.1,0.7-0.2,1.1c-0.1,0.4-0.2,0.7-0.3,1.1c-0.1,0.3-0.2,0.7-0.4,1c-0.1,0.3-0.3,0.7-0.5,1c-0.2,0.3-0.4,0.6-0.6,1
	c-0.2,0.3-0.4,0.6-0.7,0.9c-0.2,0.3-0.5,0.5-0.7,0.8c-1.5,1.5-1.6,4,0,5.6c0.7,0.7,1.7,1.2,2.8,1.2h36.6c2.2,0,3.9-1.8,3.9-3.9V81.4
	v-21V23.7c0-2.2-1.8-3.9-3.9-3.9H91.3c0,0,0,0,0,0v-0.1H70.3H33.7z"/>
<path class="st1" d="M91.3,27.6h32.7v32.7v21V114H98.4c0.2-0.4,0.3-0.8,0.4-1.2c0.2-0.6,0.3-1.2,0.5-1.8c0.1-0.6,0.2-1.2,0.3-1.9
	c0.1-0.6,0.1-1.3,0.1-1.9c0-0.4,0-0.9,0-1.3c0-0.6-0.1-1.3-0.2-1.9c-0.1-0.6-0.2-1.2-0.4-1.8c-0.2-0.6-0.4-1.2-0.6-1.8
	c-0.2-0.6-0.5-1.1-0.8-1.7c-0.3-0.6-0.6-1.1-0.9-1.6h0c-0.3-0.5-0.7-1-1.1-1.5c0,0,0,0,0,0c-0.4-0.5-0.8-1-1.2-1.4c0,0,0,0,0,0
	c-0.4-0.5-0.9-0.9-1.4-1.3h0c-0.5-0.4-1-0.8-1.5-1.1c0,0,0,0,0,0c-0.5-0.4-1.1-0.7-1.6-1c0,0,0,0,0,0c-0.5-0.3-1.1-0.6-1.7-0.8
	c-0.6-0.3-1.2-0.5-1.8-0.6c-0.6-0.2-1.3-0.4-1.8-0.5c-0.8-0.2-1.3-0.2-1.7-0.3c-0.9-0.1-1.6-0.1-2.1-0.1c0,0,0,0,0,0
	c-0.9,0-1.3,0.1-1.1,0.1c-0.1,0-0.2,0-0.3,0c-0.6,0.1-1.2,0.1-1.8,0.2c-0.7,0.1-1.3,0.2-1.9,0.4c0,0,0,0,0,0
	c-0.6,0.2-1.1,0.4-1.7,0.6c-0.6,0.2-1.2,0.5-1.7,0.8c0,0,0,0,0,0c-0.6,0.3-1.1,0.6-1.6,0.9c0,0,0,0,0,0c-0.5,0.3-1,0.7-1.5,1.1
	c0,0,0,0,0,0c-0.5,0.4-1,0.8-1.4,1.2c-0.5,0.4-0.9,0.9-1.3,1.4c-0.4,0.5-0.8,1-1.1,1.5c-0.4,0.5-0.7,1.1-1,1.6
	c-0.3,0.6-0.6,1.1-0.8,1.7c0,0,0,0,0,0c-0.2,0.6-0.5,1.2-0.6,1.8c-0.2,0.6-0.3,1.2-0.5,1.8c-0.1,0.6-0.2,1.2-0.3,1.9
	c-0.1,0.6-0.1,1.2-0.1,1.9c0,0.4,0,0.9,0,1.3c0,0.6,0.1,1.3,0.2,1.9c0.1,0.6,0.2,1.2,0.4,1.8c0.2,0.6,0.4,1.1,0.6,1.7H37.7V81.4
	c0-2.2-1.8-3.9-3.9-3.9c-1.1,0-2.1,0.4-2.8,1.2C28.8,80.7,26,82,23,82c-6.1,0-11-4.9-11-11.1c0-6.2,4.9-11.1,11-11.1c0,0,0,0,0,0
	c3,0,5.8,1.2,7.9,3.3c1.5,1.6,4,1.6,5.6,0.1c0.8-0.7,1.2-1.8,1.2-2.8V27.7h32.7L91.3,27.6L91.3,27.6z"/>
<path class="st0" d="M83.2,44.7c0,1.5-1.2,2.7-2.7,2.7c0,0,0,0,0,0c-2.3,0-4.2,1.9-4.2,4.2c0,1.5-1.2,2.7-2.7,2.7
	c-1.5,0-2.7-1.2-2.7-2.7c0-5.3,4.3-9.7,9.6-9.7c0,0,0,0,0,0C82,42,83.2,43.2,83.2,44.7C83.2,44.7,83.2,44.7,83.2,44.7z M100.2,51.6
	c0,6.4-3.1,12.4-8.3,16.1c-0.4,0.3-0.6,0.7-0.6,1.1V76c0,2.7-2,4.9-4.6,5.3v2.1c0,1.4-1.1,2.5-2.5,2.5h-7.4c-1.4,0-2.4-1.1-2.4-2.5
	v-2.1c-2.6-0.4-4.6-2.7-4.6-5.3v-7.2c0-0.5-0.2-0.9-0.6-1.1c-8.9-6.3-11-18.6-4.7-27.4c3.4-4.8,8.8-7.8,14.7-8.3
	c5.5-0.4,10.8,1.5,14.8,5.2C97.9,41,100.2,46.2,100.2,51.6z M94.8,51.6c0-7.9-6.4-14.3-14.3-14.3c0,0,0,0,0,0c-0.3,0-0.7,0-1,0
	c-6.9,0.5-12.4,5.9-13.2,12.8c-0.6,5.1,1.7,10.2,6,13.2c1.8,1.3,2.9,3.3,2.9,5.5v2h10.8v-2c0-2.2,1.1-4.3,2.9-5.5
	C92.6,60.6,94.8,56.3,94.8,51.6L94.8,51.6z M112.8,48.9h-5.2c-1.5,0-2.7,1.2-2.7,2.7s1.2,2.7,2.7,2.7h5.2c1.5,0,2.7-1.2,2.7-2.7
	C115.5,50.2,114.3,48.9,112.8,48.9z M105.5,62.5c-1.1-1.1-2.8-1.1-3.8,0c-1.1,1.1-1.1,2.8,0,3.8l3.7,3.7c1.1,1.1,2.8,1.1,3.8,0
	c1.1-1.1,1.1-2.8,0-3.8l0,0L105.5,62.5z M103.6,41.5c0.7,0,1.4-0.3,1.9-0.8l3.7-3.7c1.1-1.1,1-2.8,0-3.8s-2.8-1-3.8,0l-3.7,3.7
	c-1.1,1.1-1.1,2.8,0,3.8C102.2,41.2,102.9,41.5,103.6,41.5z M55.4,51.6c0-1.5-1.2-2.7-2.7-2.7h-5.2c-1.5,0-2.7,1.2-2.7,2.7
	s1.2,2.7,2.7,2.7h5.2C54.2,54.3,55.5,53.1,55.4,51.6L55.4,51.6z M56.7,41.5c1.5,0,2.7-1.2,2.7-2.7c0-0.7-0.3-1.4-0.8-1.9l-3.7-3.7
	c-1.1-1.1-2.8-1.1-3.8,0s-1.1,2.8,0,3.8l3.7,3.7C55.3,41.2,56,41.5,56.7,41.5z M54.8,62.5l-3.7,3.7c-1.1,1.1-1.1,2.8,0,3.8
	c1.1,1.1,2.8,1.1,3.8,0l3.7-3.7c1.1-1.1,1.1-2.8,0-3.8C57.5,61.5,55.8,61.5,54.8,62.5z"/>
</svg>
