<?xml version="1.0" encoding="utf-8"?>
<!-- Generator: Adobe Illustrator 21.0.0, SVG Export Plug-In . SVG Version: 6.00 Build 0)  -->
<svg version="1.1" id="Calque_1" xmlns="http://www.w3.org/2000/svg" xmlns:xlink="http://www.w3.org/1999/xlink" x="0px" y="0px"
	 viewBox="0 0 134 108" style="enable-background:new 0 0 134 108;" xml:space="preserve">
<style type="text/css">
	.st0{fill:#217ABF;stroke:#FFFFFF;stroke-width:5;}
	.st1{fill:#217ABF;stroke:#FFFFFF;stroke-width:3;}
</style>
<title>accepting</title>
<desc>Created with Sketch.</desc>
<g id="Page-1">
	<g id="accepting" transform="translate(3.000000, 2.000000)">
		<g id="Calque_1_1_">
			<path id="Combined-Shape" class="st0" d="M25.8,4.7c0-2.1,1.7-3.9,3.9-4h36.6l21,0.1H124c2.1,0,3.9,1.7,3.9,3.9v36.7v21v37.1
				c0,2.1-1.7,3.9-3.9,3.9H87.4c-1.1,0-2.1-0.5-2.8-1.2c-1.6-1.6-1.5-4.1,0-5.6c0.2-0.3,0.5-0.5,0.7-0.8c0.3-0.3,0.5-0.6,0.7-0.9
				c0.2-0.4,0.4-0.7,0.6-1c0.2-0.3,0.4-0.7,0.5-1c0.2-0.3,0.3-0.7,0.4-1c0.1-0.4,0.2-0.7,0.3-1.1c0.1-0.4,0.2-0.7,0.2-1.1
				c0.1-0.4,0.1-0.7,0.1-1.1v-0.8c0-0.4,0-0.7-0.1-1.1c0-0.4-0.1-0.7-0.2-1.1c-0.1-0.3-0.2-0.7-0.3-1c-0.1-0.3-0.2-0.7-0.4-1
				c-0.1-0.4-0.3-0.7-0.5-1c-0.2-0.3-0.4-0.6-0.6-0.9c-0.2-0.3-0.4-0.5-0.7-0.8c-0.2-0.3-0.5-0.6-0.8-0.8c-0.3-0.3-0.6-0.5-0.9-0.7
				c-0.3-0.2-0.7-0.4-1-0.6c-0.3-0.2-0.7-0.4-1-0.5c-0.3-0.1-0.6-0.3-1-0.4c-0.3-0.1-0.7-0.2-1.1-0.3c-0.2-0.1-0.6-0.1-1.3-0.2
				c-0.1,0-3.9,0.6-4.4,0.6c0.2,0,3.2-0.5,2.8-0.5c-0.4,0.1-0.7,0.1-1.2,0.2c-0.3,0-0.7,0.1-1,0.2c-0.4,0.1-0.8,0.3-1.1,0.4
				c-0.4,0.1-0.7,0.2-1,0.4c-0.4,0.1-0.7,0.3-1,0.5c-0.3,0.2-0.6,0.4-0.9,0.6c-0.3,0.2-0.5,0.4-0.8,0.7c-0.3,0.2-0.6,0.5-0.8,0.8
				c-0.3,0.3-0.5,0.6-0.7,0.9c-0.2,0.3-0.4,0.6-0.6,0.9c-0.2,0.3-0.4,0.7-0.5,1c-0.2,0.3-0.3,0.7-0.4,1c-0.1,0.4-0.2,0.7-0.3,1.1
				c-0.1,0.4-0.2,0.7-0.2,1.1C66,87.7,66,88,66,88.4v0.8c0,0.4,0,0.7,0.1,1.1c0,0.4,0.1,0.7,0.2,1.1c0.1,0.3,0.2,0.7,0.3,1
				c0.1,0.3,0.2,0.7,0.4,1c0.1,0.3,0.3,0.6,0.5,0.9c0.2,0.3,0.4,0.6,0.6,0.9c0.2,0.2,0.4,0.5,0.8,0.9c0.8,0.7,1.3,1.8,1.3,2.9
				c0,2.1-1.7,3.9-3.9,3.9H29.7c-2.1,0-3.9-1.7-3.9-3.9l0.6-29.6c-2.3,1-4.9,1.4-7.4,1.4c-10.4,0-18.9-8.5-18.9-18.9S8.6,33,19,33
				c2.6,0,4.3,0.4,6.6,1.4L25.8,4.7z M120.1,8.7H87.4L66.5,8.8H33.8v32.7c0,1-0.4,2.1-1.2,2.8c-1.6,1.5-4.1,1.5-5.6-0.1
				c-2.1-2.1-4.9-3.3-7.9-3.3c-6.1,0-11,4.9-11,11.1s4.9,11.1,11,11.1c3,0,5.8-1.3,8-3.3c0.7-0.8,1.7-1.2,2.8-1.2
				c2.1,0,3.9,1.7,3.9,3.9v32.7h25.7c-0.2-0.6-0.4-1.1-0.6-1.7c-0.2-0.6-0.3-1.2-0.4-1.8c-0.1-0.6-0.2-1.3-0.2-1.9v-1.3
				c0-0.7,0-1.3,0.1-1.9c0.1-0.7,0.2-1.3,0.3-1.9c0.2-0.6,0.3-1.2,0.5-1.8c0.1-0.6,0.4-1.2,0.6-1.8s0.5-1.1,0.8-1.7
				c0.3-0.5,0.6-1.1,1-1.6c0.3-0.5,0.7-1,1.1-1.5c0.4-0.5,0.8-1,1.3-1.4c0.4-0.4,0.9-0.8,1.4-1.2c0.5-0.4,1-0.8,1.5-1.1
				c0.5-0.3,1-0.6,1.6-0.9c0.5-0.3,1.1-0.6,1.7-0.8c0.6-0.2,1.1-0.4,1.7-0.6c0.6-0.2,1.2-0.3,1.9-0.4c0.6-0.1,1.2-0.1,2.1-0.2
				c-0.2,0-3.1,0-2.2,0c0.5,0,4.5-0.1,5.4,0c0.4,0.1,0.9,0.1,1.7,0.3c0.5,0.1,1.2,0.3,1.8,0.5c0.6,0.1,1.2,0.3,1.8,0.6
				c0.6,0.2,1.2,0.5,1.7,0.8c0.5,0.3,1.1,0.6,1.6,1c0.5,0.3,1,0.7,1.5,1.1s1,0.8,1.4,1.3c0.4,0.4,0.8,0.9,1.2,1.4
				c0.4,0.5,0.8,1,1.1,1.5c0.3,0.5,0.6,1,0.9,1.6c0.3,0.6,0.6,1.1,0.8,1.7c0.2,0.6,0.4,1.2,0.6,1.8c0.2,0.6,0.3,1.2,0.4,1.8
				s0.2,1.3,0.2,1.9v1.3c0,0.6,0,1.3-0.1,1.9c-0.1,0.7-0.2,1.3-0.3,1.9c-0.2,0.6-0.3,1.2-0.5,1.8c-0.1,0.4-0.2,0.8-0.4,1.2h25.6
				V62.4v-21V8.7z"/>
			<path id="Shape" class="st1" d="M79.2,25.7c0,1.5-1.2,2.7-2.7,2.7l0,0c-2.3,0-4.2,1.9-4.2,4.2c0,1.5-1.2,2.7-2.7,2.7
				s-2.7-1.2-2.7-2.7c0-5.3,4.3-9.7,9.6-9.7l0,0C78,23,79.2,24.2,79.2,25.7L79.2,25.7z M96.2,32.6c0,6.4-3.1,12.4-8.3,16.1
				c-0.4,0.3-0.6,0.7-0.6,1.1V57c0,2.7-2,4.9-4.6,5.3v2.1c0,1.4-1.1,2.5-2.5,2.5h-7.4c-1.4,0-2.4-1.1-2.4-2.5v-2.1
				c-2.6-0.4-4.6-2.7-4.6-5.3v-7.2c0-0.5-0.2-0.9-0.6-1.1c-8.9-6.3-11-18.6-4.7-27.4c3.4-4.8,8.8-7.8,14.7-8.3
				c5.5-0.4,10.8,1.5,14.8,5.2C93.9,22,96.2,27.2,96.2,32.6z M90.8,32.6c0-7.9-6.4-14.3-14.3-14.3l0,0h-1
				c-6.9,0.5-12.4,5.9-13.2,12.8c-0.6,5.1,1.7,10.2,6,13.2c1.8,1.3,2.9,3.3,2.9,5.5v2H82v-2c0-2.2,1.1-4.3,2.9-5.5
				C88.6,41.6,90.8,37.3,90.8,32.6L90.8,32.6z M108.8,29.9h-5.2c-1.5,0-2.7,1.2-2.7,2.7c0,1.5,1.2,2.7,2.7,2.7h5.2
				c1.5,0,2.7-1.2,2.7-2.7C111.5,31.2,110.3,29.9,108.8,29.9z M101.5,43.5c-1.1-1.1-2.8-1.1-3.8,0c-1.1,1.1-1.1,2.8,0,3.8l3.7,3.7
				c1.1,1.1,2.8,1.1,3.8,0c1.1-1.1,1.1-2.8,0-3.8l0,0L101.5,43.5z M99.6,22.5c0.7,0,1.4-0.3,1.9-0.8l3.7-3.7c1.1-1.1,1-2.8,0-3.8
				s-2.8-1-3.8,0l-3.7,3.7c-1.1,1.1-1.1,2.8,0,3.8C98.2,22.2,98.9,22.5,99.6,22.5z M51.4,32.6c0-1.5-1.2-2.7-2.7-2.7h-5.2
				c-1.5,0-2.7,1.2-2.7,2.7c0,1.5,1.2,2.7,2.7,2.7h5.2C50.2,35.3,51.5,34.1,51.4,32.6L51.4,32.6z M52.7,22.5c1.5,0,2.7-1.2,2.7-2.7
				c0-0.7-0.3-1.4-0.8-1.9l-3.7-3.7c-1.1-1.1-2.8-1.1-3.8,0S46,17,47.1,18l3.7,3.7C51.3,22.2,52,22.5,52.7,22.5z M50.8,43.5
				l-3.7,3.7C46,48.3,46,50,47.1,51c1.1,1.1,2.8,1.1,3.8,0l3.7-3.7c1.1-1.1,1.1-2.8,0-3.8C53.5,42.5,51.8,42.5,50.8,43.5z"/>
		</g>
	</g>
</g>
</svg>
