<?xml version="1.0" encoding="utf-8"?>
<!-- Generator: Adobe Illustrator 21.0.0, SVG Export Plug-In . SVG Version: 6.00 Build 0)  -->
<svg version="1.1" id="Calque_1" xmlns="http://www.w3.org/2000/svg" xmlns:xlink="http://www.w3.org/1999/xlink" x="0px" y="0px"
	 viewBox="0 0 100 125" style="enable-background:new 0 0 100 125;" xml:space="preserve">
<style type="text/css">
	.st0{fill:#9FC800;}
</style>
<path class="st0" d="M16.7,49.5l-2.8,14.1c0,0.1,0,0.2,0,0.3l0,0v35.9c0,0.9,0.8,1.7,1.7,1.7h68.9c0.9,0,1.7-0.8,1.7-1.7V64l0,0
	c0-0.1,0-0.2,0-0.3l-2.8-14.1c-0.2-0.8-0.8-1.4-1.6-1.4H69.6v-23c0-0.9-0.8-1.7-1.7-1.7H32.1c-0.9,0-1.7,0.8-1.7,1.7v23h-12
	C17.6,48.2,16.9,48.7,16.7,49.5z M82.8,98.2H17.2V65.6h65.5L82.8,98.2L82.8,98.2z M33.8,26.8h32.4v28.4H33.8
	C33.8,55.2,33.8,26.8,33.8,26.8z M30.4,51.5v3.7h-2.8c-0.9,0-1.7,0.8-1.7,1.7s0.8,1.7,1.7,1.7h4.5h35.8h5.9c0.9,0,1.7-0.8,1.7-1.7
	s-0.8-1.7-1.7-1.7h-4.2v-3.7h10.7l2.2,10.8H17.6l2.2-10.8H30.4z"/>
<path class="st0" d="M38.3,38.3H52c0.9,0,1.7-0.8,1.7-1.7s-0.8-1.7-1.7-1.7H38.3c-0.9,0-1.7,0.8-1.7,1.7
	C36.6,37.6,37.4,38.3,38.3,38.3z"/>
<path class="st0" d="M38.3,47.7H52c0.9,0,1.7-0.8,1.7-1.7s-0.8-1.7-1.7-1.7H38.3c-0.9,0-1.7,0.8-1.7,1.7
	C36.6,47,37.4,47.7,38.3,47.7z"/>
<path class="st0" d="M56.6,38.7c0.3,0.5,0.8,0.8,1.3,0.9c0.1,0,0.1,0,0.2,0c0.5,0,1-0.2,1.3-0.6l4.1-5c0.6-0.7,0.5-1.8-0.2-2.4
	s-1.8-0.5-2.4,0.2l-2.5,3.1c-0.5-0.7-1.4-0.9-2.2-0.5s-1.1,1.5-0.7,2.3L56.6,38.7z"/>
<path class="st0" d="M60.9,41.5l-2.5,3.1c-0.5-0.7-1.4-0.9-2.2-0.5s-1.1,1.5-0.7,2.3l1.1,2c0.3,0.5,0.8,0.8,1.3,0.9
	c0.1,0,0.1,0,0.2,0c0.5,0,1-0.2,1.3-0.6l4.1-5c0.6-0.7,0.5-1.8-0.2-2.4C62.5,40.7,61.4,40.8,60.9,41.5z"/>
</svg>
