<?xml version="1.0" encoding="utf-8"?>
<!-- Generator: Adobe Illustrator 21.0.0, SVG Export Plug-In . SVG Version: 6.00 Build 0)  -->
<svg version="1.1" id="Calque_1" xmlns="http://www.w3.org/2000/svg" xmlns:xlink="http://www.w3.org/1999/xlink" x="0px" y="0px"
	 viewBox="0 0 100 125" style="enable-background:new 0 0 100 125;" xml:space="preserve">
<style type="text/css">
	.st0{fill:#9FC800;}
</style>
<path class="st0" d="M12.1,49.5L8.9,65.8c0,0.1,0,0.2,0,0.3l0,0v41.4c0,1,0.9,2,2,2h79.5c1,0,2-0.9,2-2V66.3l0,0c0-0.1,0-0.2,0-0.3
	l-3.2-16.3c-0.2-0.9-0.9-1.6-1.8-1.6H73.2V21.5c0-1-0.9-2-2-2H29.9c-1,0-2,0.9-2,2V48H14.1C13.2,48,12.4,48.6,12.1,49.5z
	 M88.4,105.7H12.7V68.1h75.6L88.4,105.7L88.4,105.7z M31.9,23.3h37.4v32.8H31.9C31.9,56.1,31.9,23.3,31.9,23.3z M27.9,51.8v4.3h-3.2
	c-1,0-2,0.9-2,2c0,1,0.9,2,2,2h5.2h41.3h6.8c1,0,2-0.9,2-2c0-1-0.9-2-2-2h-4.8v-4.3h12.4l2.5,12.5H13.2l2.5-12.5H27.9z"/>
<path class="st0" d="M37.1,36.6h15.8c1,0,2-0.9,2-2c0-1-0.9-2-2-2H37.1c-1,0-2,0.9-2,2C35.1,35.8,36,36.6,37.1,36.6z"/>
<path class="st0" d="M37.1,47.4h15.8c1,0,2-0.9,2-2c0-1-0.9-2-2-2H37.1c-1,0-2,0.9-2,2C35.1,46.6,36,47.4,37.1,47.4z"/>
<path class="st0" d="M58.2,37c0.3,0.6,0.9,0.9,1.5,1c0.1,0,0.1,0,0.2,0c0.6,0,1.2-0.2,1.5-0.7l4.7-5.8c0.7-0.8,0.6-2.1-0.2-2.8
	c-0.8-0.7-2.1-0.6-2.8,0.2l-2.9,3.6c-0.6-0.8-1.6-1-2.5-0.6c-0.9,0.5-1.3,1.7-0.8,2.7L58.2,37z"/>
<path class="st0" d="M63.2,40.3l-2.9,3.6c-0.6-0.8-1.6-1-2.5-0.6c-0.9,0.5-1.3,1.7-0.8,2.7l1.3,2.3c0.3,0.6,0.9,0.9,1.5,1
	c0.1,0,0.1,0,0.2,0c0.6,0,1.2-0.2,1.5-0.7l4.7-5.8c0.7-0.8,0.6-2.1-0.2-2.8C65,39.4,63.7,39.5,63.2,40.3z"/>
</svg>
