<svg fill="#ffffff" xmlns="http://www.w3.org/2000/svg" xmlns:xlink="http://www.w3.org/1999/xlink" version="1.1" x="0px" y="0px" viewBox="0 0 100 100" enable-background="new 0 0 100 100" xml:space="preserve"><g><path d="M50,3.75C24.498,3.75,3.75,24.498,3.75,50S24.498,96.25,50,96.25S96.25,75.502,96.25,50S75.502,3.75,50,3.75z    M75.636,40.577L46.098,70.115c-0.899,0.899-2.145,1.415-3.416,1.415v2l-0.043-2c-1.288-0.011-2.539-0.549-3.433-1.476   L24.304,54.608c-1.85-1.917-1.795-4.98,0.122-6.83c0.905-0.874,2.096-1.354,3.353-1.354c1.323,0,2.558,0.524,3.477,1.476   l11.488,11.907l26.062-26.061c0.912-0.912,2.125-1.415,3.416-1.415c1.29,0,2.503,0.502,3.415,1.414   C77.519,35.629,77.519,38.694,75.636,40.577z"></path></g></svg>
