<?xml version="1.0" encoding="utf-8"?>
<!-- Generator: Adobe Illustrator 26.3.1, SVG Export Plug-In . SVG Version: 6.00 Build 0)  -->
<svg version="1.1" id="Layer_1" xmlns="http://www.w3.org/2000/svg" xmlns:xlink="http://www.w3.org/1999/xlink" x="0px" y="0px"
	 viewBox="0 0 64 64" style="enable-background:new 0 0 64 64;" xml:space="preserve">
<style type="text/css">
	.st0{fill:#222222;}
</style>
<g>
	<path class="st0" d="M41,14c0-5-4-9-9-9s-9,4-9,9c0,3,1.5,5.8,4,7.5v1.6c-1.1,0.2-2,1.2-2,2.4c0,0.9,0.5,1.7,1.2,2.1
		c-0.1,0.3-0.2,0.6-0.2,0.9c0,1.4,1.1,2.5,2.5,2.5h7c1.4,0,2.5-1.1,2.5-2.5c0-0.3-0.1-0.6-0.2-0.9c0.7-0.4,1.2-1.2,1.2-2.1
		c0-1.2-0.9-2.2-2-2.4v-1.6C39.5,19.8,41,17,41,14z M25,14c0-3.9,3.1-7,7-7s7,3.1,7,7c0,2.5-1.3,4.8-3.5,6.1L35,20.3V23h-2v-6.2
		c1.2-0.4,2-1.5,2-2.8c0-1.7-1.3-3-3-3s-3,1.3-3,3c0,1.3,0.8,2.4,2,2.8V23h-2v-2.7l-0.5-0.3C26.3,18.8,25,16.5,25,14z M31,14
		c0-0.6,0.4-1,1-1c0.6,0,1,0.4,1,1s-0.4,1-1,1S31,14.6,31,14z M27.5,25h9c0.3,0,0.5,0.2,0.5,0.5S36.8,26,36.5,26h-1h-7h-1
		c-0.3,0-0.5-0.2-0.5-0.5S27.2,25,27.5,25z M35.5,29h-7c-0.3,0-0.5-0.2-0.5-0.5s0.2-0.5,0.5-0.5h7c0.3,0,0.5,0.2,0.5,0.5
		S35.8,29,35.5,29z"/>
	<path class="st0" d="M40.4,48.9C40,47.7,38.9,47,37.6,47H37V35.5c0-1.9-1.6-3.5-3.5-3.5S30,33.6,30,35.5v4.8
		c-0.4-0.2-0.7-0.3-1.1-0.3h-0.9c-1.6,0-2.9,1.3-2.9,2.9V43h-1.1c-1.6,0-2.9,1.3-2.9,2.9V46h-0.1c-1.6,0-2.9,1.3-2.9,2.9V49v0.2v2
		c0,1.4,0.3,2.7,0.8,4l1.5,3.5c0.4,1,0.7,2.1,0.7,3.2V62h2v-0.1c0-1.4-0.3-2.7-0.8-4l-1.5-3.5c-0.3-0.6-0.4-1.2-0.5-1.9l3.8,3.8
		c0.6,0.6,1.4,0.9,2.1,0.9s1.5-0.3,2.1-0.9l0.2-0.2c0.5-0.5,0.7-1.1,0.8-1.7c0,0,0.1,0,0.1,0c0.5,0,1.1-0.1,1.6-0.5l0.1,0
		c0.1-0.1,0.3-0.2,0.4-0.3c0.5,0.4,1,0.7,1.6,0.9l1.3,0.3l0.8,2.5l1.9-0.6l-1.2-3.5l-2.4-0.6c-0.6-0.2-1.1-0.6-1.3-1.1l0,0
		C32,51.2,32,51,32,50.8l0-0.1c0-0.6,0.3-1.1,0.8-1.4c0,0,0,0,0,0c0.1-0.1,0.2-0.1,0.3-0.1c0,0,0.1,0,0.1,0c0.1,0,0.1,0,0.2-0.1
		c0.1,0,0.2,0,0.4,0H35h0.6H37h0.6c0.4,0,0.8,0.3,0.9,0.6l1.2,3.1c0.1,0.4,0.2,0.7,0.2,1.1v0.2c0,0.5-0.1,0.9-0.3,1.3l-1.2,2.3
		c-0.3,0.7-0.5,1.5-0.5,2.2V62h2v-2.1c0-0.5,0.1-0.9,0.3-1.3l1.2-2.3c0.3-0.7,0.5-1.5,0.5-2.2v-0.2c0-0.6-0.1-1.2-0.3-1.8L40.4,48.9
		z M33.5,34c0.8,0,1.5,0.7,1.5,1.5V47h-0.5L32,42.5v-7C32,34.7,32.7,34,33.5,34z M27,42.9c0-0.5,0.4-0.9,0.9-0.9h0.9
		c0.3,0,0.6,0.2,0.8,0.5l2.7,4.8c0,0,0,0,0,0c0,0-0.1,0-0.1,0c-0.2,0.1-0.3,0.2-0.5,0.3c-0.1,0-0.1,0.1-0.2,0.1
		c-0.1,0.1-0.2,0.2-0.3,0.3c-0.1,0.1-0.1,0.1-0.2,0.2c-0.1,0.1-0.3,0.3-0.4,0.4l-2.1-2.9l-1.2-1.6l0,0l-0.2-0.3
		c-0.1-0.2-0.2-0.4-0.2-0.6V42.9z M26.9,54.7l-0.2,0.2c-0.4,0.4-1,0.4-1.4,0l-5-5c-0.2-0.2-0.3-0.4-0.3-0.7V49v-0.1
		c0-0.5,0.4-0.9,0.9-0.9h0.3c0.2,0,0.5,0.1,0.7,0.3l5,5C27.3,53.7,27.3,54.3,26.9,54.7z M29.8,52.3L29.8,52.3
		c-0.4,0.3-0.9,0.2-1.2-0.1l-0.3-0.3l-5-5c-0.2-0.2-0.3-0.4-0.3-0.7v-0.3c0-0.5,0.4-0.9,0.9-0.9H25c0.3,0,0.6,0.1,0.7,0.4l2.3,3.1
		L30,51c0,0,0,0,0,0c0,0.1,0,0.1,0,0.2c0,0.2,0,0.3,0.1,0.5c0,0,0,0.1,0,0.1C30.1,51.9,30,52.1,29.8,52.3z"/>
	<rect x="31" y="2" class="st0" width="2" height="2"/>
	<rect x="25.5" y="3.5" transform="matrix(0.8661 -0.4999 0.4999 0.8661 1.3124 13.8464)" class="st0" width="2" height="2"/>
	<rect x="21.5" y="7.5" transform="matrix(0.4999 -0.8661 0.8661 0.4999 3.8774 23.7145)" class="st0" width="2" height="2"/>
	<rect x="20" y="13" class="st0" width="2" height="2"/>
	<rect x="21.5" y="18.5" transform="matrix(0.8661 -0.4999 0.4999 0.8661 -6.7391 13.8457)" class="st0" width="2" height="2"/>
	<rect x="40.5" y="18.5" transform="matrix(0.4999 -0.8661 0.8661 0.4999 3.8798 45.7165)" class="st0" width="2" height="2"/>
	<rect x="42" y="13" class="st0" width="2" height="2"/>
	<rect x="40.5" y="7.5" transform="matrix(0.8661 -0.4999 0.4999 0.8661 1.3113 21.8975)" class="st0" width="2" height="2"/>
	<rect x="36.5" y="3.5" transform="matrix(0.4999 -0.8661 0.8661 0.4999 14.8801 34.7138)" class="st0" width="2" height="2"/>
	<polygon class="st0" points="62,14 60,14 60,12 58,12 58,14 56,14 56,16 58,16 58,18 60,18 60,16 62,16 	"/>
	<polygon class="st0" points="50,8 52,8 52,6 54,6 54,4 52,4 52,2 50,2 50,4 48,4 48,6 50,6 	"/>
	<polygon class="st0" points="6,18 4,18 4,20 2,20 2,22 4,22 4,24 6,24 6,22 8,22 8,20 6,20 	"/>
	<polygon class="st0" points="15,12 15,10 13,10 13,8 11,8 11,10 9,10 9,12 11,12 11,14 13,14 13,12 	"/>
	<polygon class="st0" points="18,34 18,32 20,32 20,30 18,30 18,28 16,28 16,30 14,30 14,32 16,32 16,34 	"/>
	<polygon class="st0" points="53,23 51,23 51,25 49,25 49,27 51,27 51,29 53,29 53,27 55,27 55,25 53,25 	"/>
</g>
</svg>
