<!-- Generated by IcoMoon.io -->
<svg version="1.1" xmlns="http://www.w3.org/2000/svg" fill="#32366a" width="48" height="48" viewBox="0 0 48 48">
<title>envelope</title>
<path d="M0 38c0 2.21 1.79 4 4 4h40c2.21 0 4-1.79 4-4l-0-27c0-2.21-1.79-4-4-4l-40 0c-2.21 0-4 1.79-4 4v27zM14.72 24.53l-9.15-9.21c-0.759-0.76-0.759-1.99 0-2.75 0.761-0.76 1.991-0.76 2.75 0l14.6 14.619c0.59 0.58 1.561 0.58 2.141 0l14.619-14.619c0.76-0.76 1.99-0.76 2.75 0s0.76 1.99 0 2.75l-9.16 9.21 9.16 9.149c0.76 0.76 0.76 1.99 0 2.75s-1.99 0.76-2.75 0l-9.15-9.14c0 0-2.859 2.91-3.379 3.43-0.811 0.791-1.931 1.281-3.151 1.281-1.24 0-2.36-0.5-3.17-1.311-0.53-0.52-3.37-3.399-3.37-3.399l-9.141 9.14c-0.759 0.76-1.989 0.76-2.75 0-0.759-0.76-0.759-1.99 0-2.75l9.151-9.15z"></path>
</svg>
