<?xml version="1.0" encoding="utf-8"?>
<!-- Generator: Adobe Illustrator 21.0.0, SVG Export Plug-In . SVG Version: 6.00 Build 0)  -->
<svg version="1.1" id="Calque_1" xmlns="http://www.w3.org/2000/svg" xmlns:xlink="http://www.w3.org/1999/xlink" x="0px" y="0px"
	 viewBox="0 0 141.7 141.7" style="enable-background:new 0 0 141.7 141.7;" xml:space="preserve">
<style type="text/css">
	.st0{fill:#FF9200;}
</style>
<g>
	<path class="st0" d="M85.9,43l-1.9-2.5l1.8-1.8c0.1-0.1,0.2-0.3,0.1-0.5c-0.1-0.2-0.2-0.3-0.4-0.3H82v-1.4c0-0.2-0.2-0.4-0.4-0.5
		c3.5-7.5,2.6-16.6,2.6-16.8c0-0.1-0.1-0.3-0.2-0.3c-0.1-0.1-0.2-0.1-0.4-0.1c-1.2,0.3-2.4,0.5-3.6,0.5c-5.8,0-8.6-4.4-8.7-4.5
		c-0.1-0.1-0.3-0.2-0.4-0.2l0,0c-0.1,0-0.3,0.1-0.4,0.2c-0.1,0.1-2.8,4.5-8.7,4.5l0,0c-1.2,0-2.3-0.2-3.6-0.5
		c-0.1-0.1-0.3,0-0.4,0.1c-0.1,0.1-0.2,0.2-0.2,0.3s-0.9,9.3,2.6,16.8h0.1c-0.3,0-0.5,0.2-0.5,0.5v1.4h-3.6c-0.2,0-0.4,0.1-0.4,0.3
		c-0.1,0.2-0.1,0.4,0.1,0.5l1.8,1.8L55.8,43c-0.1,0.1-0.1,0.3-0.1,0.5c0.1,0.2,0.2,0.3,0.4,0.3h4.1c0.3,0,0.5-0.2,0.5-0.5v-1.4h3.8
		c1.7,1.4,3.7,2.6,6.3,3.2c0.1,0,0.1,0,0.1,0h0.1c2.5-0.6,4.6-1.7,6.3-3.2H81v1.4c0,0.3,0.2,0.5,0.5,0.5h4.1c0.2,0,0.3-0.1,0.4-0.3
		C86.1,43.3,86,43.1,85.9,43z M59.8,42.8h-2.7l1.5-2c0.1-0.2,0.1-0.5-0.1-0.6l-1.3-1.3h2.5C59.8,38.9,59.8,42.8,59.8,42.8z
		 M70.9,44.1c-1.9-0.5-3.5-1.2-4.8-2.2h9.6C74.3,42.8,72.7,43.6,70.9,44.1z M81,38.4v2.6H60.7v-2.6V37H81V38.4z M65.7,36.1
		c-2.5-3.6-3.2-8.4-3.4-11.8c3.8-0.1,6.6-1.6,8.5-2.9c1.8,1.3,4.7,2.7,8.4,2.9c-0.1,3.4-0.9,8.3-3.4,11.8H65.7z M80.5,36.1h-3.4
		c2.4-3.8,3.1-8.9,3.2-12.2c0-0.1-0.1-0.2-0.1-0.3c-0.1-0.1-0.2-0.1-0.3-0.1c-4-0.1-6.9-1.6-8.7-3c-0.2-0.1-0.4-0.1-0.6,0
		c-1.7,1.3-4.7,2.9-8.7,3c-0.1,0-0.2,0.1-0.3,0.1c-0.1,0.1-0.1,0.2-0.1,0.3c0.1,3.4,0.8,8.4,3.2,12.3h-3.4
		c-3.1-6.3-2.8-14.1-2.7-16.2c1.2,0.3,2.2,0.4,3.3,0.4l0,0c5.1,0,8.1-3,9.1-4.3c1,1.3,3.9,4.3,9.1,4.3c1,0,2.1-0.1,3.3-0.4
		C83.3,22,83.6,29.8,80.5,36.1z M82,42.8v-1.4v-2.6h2.5l-1.3,1.3c-0.1,0.2-0.2,0.4-0.1,0.6l1.5,2L82,42.8z"/>
</g>
<g transform="translate(0,-952.36218)">
	<path class="st0" d="M51.6,1006.7c-1.5,0-2.7,1.5-2.7,2.7v27.5H13.1c-1.4,0-2.7,1.3-2.7,2.7v33c0,1.4,1.3,2.7,2.7,2.7
		c38.5,0,76.9,0,115.4,0c1.4,0,2.7-1.3,2.7-2.7v-44c0-1.4-1.3-2.7-2.7-2.7H92.8v-16.5c0-1.4-1.3-2.7-2.7-2.7H51.6z M54.4,1012.2h33
		v57.7h-33V1012.2z M92.8,1031.4h33v38.5h-33V1031.4z M15.9,1042.4h33v27.5h-33V1042.4z"/>
</g>
</svg>
