<?xml version="1.0" encoding="utf-8"?>
<!-- Generator: Adobe Illustrator 21.0.0, SVG Export Plug-In . SVG Version: 6.00 Build 0)  -->
<svg version="1.1" id="Calque_1" xmlns="http://www.w3.org/2000/svg" xmlns:xlink="http://www.w3.org/1999/xlink" x="0px" y="0px"
	 viewBox="0 0 141.7 141.7" style="enable-background:new 0 0 141.7 141.7;" xml:space="preserve">
<style type="text/css">
	.st0{fill:#FF9200;}
</style>
<g>
	<path class="st0" d="M122,115.2l-6.3-8.4l6.1-6.1c0.5-0.5,0.6-1.1,0.3-1.8c-0.3-0.6-0.8-1-1.4-1h-12.2v-4.7c0-0.8-0.6-1.4-1.4-1.6
		c11.9-25.4,8.8-56.4,8.7-56.9c0-0.5-0.3-1-0.6-1.1c-0.3-0.3-0.8-0.3-1.3-0.2c-4.2,1.1-8.2,1.8-12.1,1.8
		c-19.6,0-29.2-14.9-29.4-15.1c-0.3-0.5-1-0.8-1.4-0.8l0,0c-0.5,0-1.1,0.3-1.3,0.8c-0.2,0.2-9.6,15.1-29.4,15.1l0,0
		c-3.9,0-7.9-0.6-12.1-1.8c-0.5-0.2-1,0-1.3,0.2c-0.5,0.3-0.8,0.6-0.8,1.1c0,0.5-3.2,31.5,8.7,56.9h0.2c-1,0-1.6,0.6-1.6,1.6V98
		H21.1c-0.6,0-1.3,0.3-1.4,1c-0.3,0.6-0.2,1.3,0.3,1.8l6.1,6.1l-6.3,8.4c-0.3,0.5-0.5,1.1-0.2,1.6c0.3,0.6,0.8,1,1.4,1h13.8
		c1,0,1.6-0.6,1.6-1.6v-4.7h12.9c5.6,4.8,12.5,8.7,21.2,10.8c0.2,0,0.3,0,0.3,0h0.3c8.5-2.1,15.6-5.9,21.2-10.8h12.9v4.7
		c0,1,0.6,1.6,1.6,1.6h13.8c0.6,0,1.1-0.3,1.4-1C122.4,116.3,122.3,115.7,122,115.2z M33.3,114.6h-9l5.1-6.9
		c0.5-0.6,0.5-1.6-0.2-2.1l-4.3-4.3h8.4V114.6z M70.9,119.1c-6.3-1.6-11.7-4.2-16.2-7.6h32.6C82.6,114.7,77.1,117.5,70.9,119.1z
		 M105.3,99.6v8.7H36.5v-8.7V95h68.8V99.6z M53.5,91.8c-8.5-12.1-10.9-28.4-11.4-40c12.9-0.5,22.5-5.5,28.8-9.8
		c6.1,4.3,15.9,9.3,28.6,9.8c-0.5,11.6-2.9,28-11.4,40H53.5z M103.5,91.8H92.1c8.2-13,10.4-30.1,10.8-41.5c0-0.5-0.2-0.8-0.5-1.1
		c-0.3-0.3-0.6-0.5-1.1-0.5c-13.5-0.2-23.5-5.5-29.4-10c-0.6-0.5-1.3-0.5-1.9,0c-5.9,4.5-15.9,9.8-29.4,10c-0.5,0-0.8,0.2-1.1,0.5
		c-0.3,0.3-0.5,0.8-0.5,1.1c0.3,11.4,2.6,28.4,10.8,41.6H38.2c-10.4-21.4-9.6-47.7-9.2-54.8c3.9,1,7.6,1.3,11.1,1.3l0,0
		c17.4,0,27.3-10.3,30.7-14.6c3.4,4.3,13.3,14.6,30.7,14.6c3.5,0,7.2-0.5,11.1-1.3C113.1,44.2,113.9,70.5,103.5,91.8z M108.5,114.6
		v-4.7v-8.7h8.4l-4.3,4.3c-0.5,0.6-0.6,1.4-0.2,2.1l5.1,6.9L108.5,114.6z"/>
</g>
</svg>
