<?xml version="1.0" encoding="utf-8"?>
<!-- Generator: Adobe Illustrator 21.0.0, SVG Export Plug-In . SVG Version: 6.00 Build 0)  -->
<svg version="1.1" id="Calque_1" xmlns="http://www.w3.org/2000/svg" xmlns:xlink="http://www.w3.org/1999/xlink" x="0px" y="0px"
	 viewBox="0 0 141.7 141.7" style="enable-background:new 0 0 141.7 141.7;" xml:space="preserve">
<style type="text/css">
	.st0{fill:#FF9200;}
	.st1{fill:none;stroke:#FF9200;stroke-width:3;stroke-linejoin:round;stroke-miterlimit:10;}
</style>
<g>
	<path class="st0" d="M85.8,72.3l-1.9-2.5l1.8-1.8c0.1-0.1,0.2-0.3,0.1-0.5c-0.1-0.2-0.2-0.3-0.4-0.3h-3.5v-1.4
		c0-0.2-0.2-0.4-0.4-0.5c3.5-7.5,2.6-16.6,2.6-16.8c0-0.1-0.1-0.3-0.2-0.3c-0.1-0.1-0.2-0.1-0.4-0.1c-1.2,0.3-2.4,0.5-3.6,0.5
		c-5.8,0-8.6-4.4-8.7-4.5c-0.1-0.1-0.3-0.2-0.4-0.2l0,0c-0.1,0-0.3,0.1-0.4,0.2c-0.1,0.1-2.8,4.5-8.7,4.5l0,0
		c-1.2,0-2.3-0.2-3.6-0.5c-0.1-0.1-0.3,0-0.4,0.1c-0.1,0.1-0.2,0.2-0.2,0.3s-0.9,9.3,2.6,16.8h0.1c-0.3,0-0.5,0.2-0.5,0.5v1.4h-3.6
		c-0.2,0-0.4,0.1-0.4,0.3c-0.1,0.2-0.1,0.4,0.1,0.5l1.8,1.8l-1.9,2.5c-0.1,0.1-0.1,0.3-0.1,0.5c0.1,0.2,0.2,0.3,0.4,0.3h4.1
		c0.3,0,0.5-0.2,0.5-0.5v-1.4h3.8c1.7,1.4,3.7,2.6,6.3,3.2c0.1,0,0.1,0,0.1,0h0.1c2.5-0.6,4.6-1.7,6.3-3.2h3.7v1.4
		c0,0.3,0.2,0.5,0.5,0.5h4.1c0.2,0,0.3-0.1,0.4-0.3C86,72.6,85.9,72.4,85.8,72.3z M59.7,72.1H57l1.5-2c0.1-0.2,0.1-0.5-0.1-0.6
		l-1.3-1.3h2.5C59.7,68.2,59.7,72.1,59.7,72.1z M70.8,73.4c-1.9-0.5-3.5-1.2-4.8-2.2h9.6C74.2,72.1,72.6,72.9,70.8,73.4z M80.9,67.7
		v2.6H60.6v-2.6v-1.4h20.3V67.7z M65.6,65.4c-2.5-3.6-3.2-8.4-3.4-11.8c3.8-0.1,6.6-1.6,8.5-2.9c1.8,1.3,4.7,2.7,8.4,2.9
		c-0.1,3.4-0.9,8.3-3.4,11.8H65.6z M80.4,65.4H77c2.4-3.8,3.1-8.9,3.2-12.2c0-0.1-0.1-0.2-0.1-0.3c-0.1-0.1-0.2-0.1-0.3-0.1
		c-4-0.1-6.9-1.6-8.7-3c-0.2-0.1-0.4-0.1-0.6,0c-1.7,1.3-4.7,2.9-8.7,3c-0.1,0-0.2,0.1-0.3,0.1c-0.1,0.1-0.1,0.2-0.1,0.3
		c0.1,3.4,0.8,8.4,3.2,12.3h-3.4c-3.1-6.3-2.8-14.1-2.7-16.2c1.2,0.3,2.2,0.4,3.3,0.4l0,0c5.1,0,8.1-3,9.1-4.3
		c1,1.3,3.9,4.3,9.1,4.3c1,0,2.1-0.1,3.3-0.4C83.2,51.3,83.5,59.1,80.4,65.4z M81.9,72.1v-1.4v-2.6h2.5l-1.3,1.3
		C83,69.6,82.9,69.8,83,70l1.5,2L81.9,72.1z"/>
</g>
<rect x="48.8" y="36.2" class="st1" width="44" height="83.8"/>
<rect x="92.8" y="88.5" class="st1" width="44" height="31.5"/>
<rect x="4.8" y="68.9" class="st1" width="44" height="51.1"/>
</svg>
