<?xml version="1.0" encoding="UTF-8"?><svg xmlns="http://www.w3.org/2000/svg" viewBox="0 0 1297.76 1150.23"><defs><style>.d{fill:#efd0c5;}.e{fill:#f0b9ad;}.f{fill:#a166aa;}.g{fill:#c43f2a;}.h{fill:#ce978e;}.i{fill:#d9ab28;}.j{fill:#16164c;}.k{fill:#272266;}.l{fill:none;stroke:#16164c;stroke-miterlimit:10;}</style></defs><g id="a"/><g id="b"><g id="c"><g><path class="i" d="M829.59,8.05c-81.36-8.72-166.52-16.99-242.56,13.22-76.04,30.21-138.24,112.26-117.04,191.29,10.1,37.69,36.8,68.42,54.33,103.28,17.53,34.87,23.96,81.57-3.29,109.52-17.18,17.63-43.08,22.9-67.31,27.29-81.89,14.88-163.8,29.77-245.69,44.65-71.61,13-152.3,32.19-188.02,95.6C2.69,623.62-.78,660.23,.13,695.49c6.22,241.56,228.7,456.66,470.33,454.73,33.16-.27,68.86-5.2,93.01-27.91,39.16-36.8,30.7-100.78,51.96-150.13,32.79-76.06,129.23-102.18,211.84-96.25,82.61,5.93,163.98,33.98,246.46,26.43,84.76-7.75,166.98-57.48,204.11-134.05,37.13-76.57,22.01-178.04-42.51-233.53-39.27-33.77-91.05-48.43-136.45-73.34-45.41-24.92-88.32-68.55-84.43-120.21,3.46-46.26,42.87-81.71,56.36-126.09,19.24-63.34-19.72-132.73-74.75-169.51-55.02-36.8-121.54-32.75-166.48-37.57"/><rect class="k" x="378.46" y="731.73" width="18.28" height="58.91"/><path class="d" d="M947.31,140.97c41.77,11.51,23.99,56.88,24.19,60.14s-18.3,36.78-20,44.46c-1.7,7.67,.36,23.76,.36,23.76l-45.23,2.76,.61-7.61s.51-8.68-.96-15.08c-1.47-6.4-7.92-6.05-21.31-12.75-13.38-6.71-15.49-23.89-14.53-42.33,.64-10.99,5.43-21.33,13.41-28.92,0,0,21.67-35.94,63.45-24.43Z"/><path class="d" d="M872.12,202.87l-6.29,.38s-3.77,.22-4-3.54c-.23-3.77,3.54-4,3.54-4l6.29-.38,.46,7.54Z"/><circle cx="885.27" cy="190.42" r="2.7"/><path class="k" d="M867.77,208.55s2.41-4.57,6.78-4.28,1.87,7.41,8,8.53c6.12,1.13,4.25-2.5,4.25-2.5,0,0,2.87,6.09-2.5,6.55s-17.19,1.2-16.53-8.3Z"/><path class="k" d="M887.57,155.92l36.68,2.25,4.25,46.08h5.83v-8.93s-1.46-6.95,5.92-7.62,8.25,10.21,8.25,10.21c0,0,2.5,14.79-2,14.65l-4.5-.15s-.5,22.37,4.25,25.75c4.75,3.38,10.87,8.88,14.5,1.75s-3.75-1.25-3.75-1.25l-1.75-3.5s32.5-37.12,30.5-58.25-19.87-45.13-45.5-44.5c-25.63,.62-38.36-1.87-52.68,23.5Z"/><path class="l" d="M874.5,191.17c-.42-6.78,5.54-12.56,12.25-12.5,6.23,.06,12,5.14,12,11.75,0,6.59-5.74,11.67-12,11.75-6.19,.08-11.87-4.74-12.25-11Z"/><path class="l" d="M896.52,183.98l47.15-1.16s7.22-1.24,7.42,7.98"/><path class="l" d="M874.5,191.17s-2.01-1.75-4.25,0"/><rect class="d" x="773.5" y="116.57" width="8.66" height="64.4" rx="4.22" ry="4.22" transform="translate(6.55 328.42) rotate(-23.94)"/><rect class="d" x="776.3" y="104.96" width="8.66" height="64.4" rx="4.22" ry="4.22" transform="translate(11.5 328.56) rotate(-23.94)"/><rect class="d" x="780.49" y="95.25" width="8.66" height="64.4" rx="4.22" ry="4.22" transform="translate(15.8 329.43) rotate(-23.94)"/><rect class="d" x="789.65" y="95.45" width="8.66" height="64.4" rx="4.22" ry="4.22" transform="translate(16.51 333.16) rotate(-23.94)"/><path class="d" d="M788.18,156.5l1.81,10.26,15.02,5.87s11.41-14.97,11.61-20.26c.2-5.28-28.44,4.13-28.44,4.13Z"/><path class="g" d="M819.46,262.95c-3.51-3.45-3.96-10.21-3.96-10.21l-8.01-87.54-24.6,3.57s3.61,78.18,7.5,101.17c1.55,13.06,3.94,19.31,7.33,21.74s99.46,41.23,99.46,41.23l15.18-46.11s-86.67-20.76-92.91-23.87Z"/><path class="g" d="M1001.94,380.76c2.06,9.96-5.92,42-3.78,34.05s-12.02,67.29-12.02,67.29l27.15,3.47,18.32-89.55c1.79-7.53,2.74-15.23,2.85-22.96-.12-11.16-69.67-99.82-69.67-99.82l-19.03,46.38s54.12,51.17,56.18,61.13Z"/><rect class="d" x="796.13" y="134.65" width="35.35" height="8.66" rx="4.22" ry="4.22" transform="translate(596.08 935.34) rotate(-84.4)"/><path class="g" d="M956.59,270.15c11.54,.55,21.61,31.88,21.61,31.88l-1.85,205.43-120.51-50.04s19.67-159.05,21.19-170.45,15.16-19.85,15.16-19.85l24.51,1.15,39.89,1.87Z"/><path class="h" d="M476.48,210.26c-14.89,5.62-22.33,5.76-22.54,8.42-.26,3.58,12.89,7.63,21.57,9.37,11.11,2.26,24.78,5.02,39.37-1.87,4.49-2.12,18.43-8.7,22.5-23.43,.68-2.38,4.22-15.16-3.72-24.39-8.51-9.85-25.68-10.42-31.88-3.72-5.76,6.28,1.7,15.06-4.69,24.37-3.25,4.7-9.02,6.88-20.62,11.25Z"/><path class="d" d="M480.94,202.85c-36.16,10.49-20.17,49.74-20.31,52.54s16.3,31.75,17.9,38.39c1.6,6.64,0,20.64,0,20.64l39.33,1.86-.63-6.6c-.32-4.38-.11-8.78,.62-13.11,1.2-5.58,6.82-5.31,18.37-11.34,11.55-6.03,13.19-20.96,12.07-36.98-.67-9.55-4.95-18.5-11.96-25.02,0,0-19.24-30.89-55.4-20.39Z"/><path class="d" d="M544.1,251.94l5.38-1c1.66-.39,2.75-1.99,2.49-3.68-.27-1.8-1.94-3.03-3.74-2.77l-5.37,1,1.23,6.45Z"/><circle cx="533.89" cy="241.31" r="2.34"/><path class="d" d="M399.87,121.36l2.72,49.55c.13,2.33-1.65,4.31-3.98,4.44h0c-2.33,.13-4.31-1.65-4.44-3.98l-2.72-49.55c-.13-2.33,1.65-4.31,3.98-4.44h0c2.33-.13,4.31,1.65,4.44,3.98Z"/><path class="d" d="M407.85,115.31l2.72,49.55c.13,2.33-1.65,4.31-3.98,4.44h0c-2.33,.13-4.31-1.65-4.44-3.98l-2.72-49.55c-.13-2.33,1.65-4.31,3.98-4.44h0c2.33-.13,4.31,1.65,4.44,3.98Z"/><path class="d" d="M416.28,114.85l2.72,49.55c.13,2.33-1.65,4.31-3.98,4.44h0c-2.33,.13-4.31-1.65-4.44-3.98l-2.72-49.55c-.13-2.33,1.65-4.31,3.98-4.44h0c2.33-.13,4.31,1.65,4.44,3.98Z"/><path class="d" d="M424.7,114.39l2.72,49.55c.13,2.33-1.65,4.31-3.98,4.44h0c-2.33,.13-4.31-1.65-4.44-3.98l-2.72-49.55c-.13-2.33,1.65-4.31,3.98-4.44h0c2.33-.13,4.31,1.65,4.44,3.98Z"/><path class="d" d="M395.06,157.48l-1.24,10.26,16.35,12.54s18.89-8.27,20.91-13.01c1.98-4.75-36.02-9.79-36.02-9.79Z"/><path class="j" d="M393.18,268.1c-2.01-4.35-.06-10.68-.06-10.68l22.96-82.45-23.64-5.26s-23.77,72.43-28.17,94.76c-3.09,12.4-3.09,18.97-.84,22.33s76.32,71.94,76.32,71.94l29.77-36.74s-71.8-48.92-76.34-53.9Z"/><path class="d" d="M584.43,150.3l2.92-53.28c.13-2.33,2.12-4.11,4.44-3.98h0c2.33,.13,4.11,2.12,3.98,4.44l-2.92,53.28c-.13,2.33-2.12,4.11-4.44,3.98h0c-2.33-.13-4.11-2.12-3.98-4.44Z"/><path class="d" d="M576.45,143.9l2.92-53.28c.13-2.33,2.12-4.11,4.44-3.98h0c2.33,.13,4.11,2.12,3.98,4.44l-2.92,53.28c-.13,2.33-2.12,4.11-4.44,3.98h0c-2.33-.13-4.11-2.12-3.98-4.44Z"/><path class="d" d="M568.04,143.44l2.92-53.28c.13-2.33,2.12-4.11,4.44-3.98h0c2.33,.13,4.11,2.12,3.98,4.44l-2.92,53.28c-.13,2.33-2.12,4.11-4.44,3.98h0c-2.33-.13-4.11-2.12-3.98-4.44Z"/><path class="d" d="M559.6,142.97l2.92-53.28c.13-2.33,2.12-4.11,4.44-3.98h0c2.33,.13,4.11,2.12,3.98,4.44l-2.92,53.28c-.13,2.33-2.12,4.11-4.44,3.98h0c-2.33-.13-4.11-2.12-3.98-4.44Z"/><path class="d" d="M591.94,136.86l1.24,10.25-16.41,12.55s-18.89-8.29-20.9-13.02c-1.96-4.75,36.07-9.77,36.07-9.77Z"/><path class="j" d="M581.65,253.98c1.97-9.71-5.79-40.93-3.72-33.18,2.07,7.75-11.71-65.57-11.71-65.57l26.45-3.35,17.86,87.25c1.72,7.32,2.64,14.81,2.73,22.33-.11,10.88-67.89,97.27-67.89,97.27l-18.54-45.18s52.85-49.86,54.83-59.58Z"/><path class="d" d="M555.44,145.87l-11.57-23.3c-1.04-2.09-.18-4.62,1.9-5.65h0c2.09-1.04,4.62-.18,5.65,1.9l11.57,23.3c1.04,2.09,.18,4.62-1.9,5.65h0c-2.09,1.04-4.62,.18-5.65-1.9Z"/><path class="d" d="M443.14,143.21l-11.57,23.3c-1.04,2.09-3.57,2.94-5.65,1.9h0c-2.09-1.04-2.94-3.57-1.9-5.65l11.57-23.3c1.04-2.09,3.57-2.94,5.65-1.9h0c2.09,1.04,2.94,3.57,1.9,5.65Z"/><path class="j" d="M466.25,313.36c-11.24,.53-21.37,24.47-21.37,24.47l-.27,156.29,117.84-39.3s-17.53-120.84-18.9-129.49c-1.38-8.65-14.57-14.95-14.57-14.95l-23.88,1.13-38.84,1.84Z"/><path class="e" d="M494.29,205.53c-14.92,5.62-22.32,5.78-22.5,8.45-.27,3.6,12.88,7.63,21.56,9.37,11.11,2.26,24.78,5.02,39.37-1.87,4.5-2.12,18.43-8.7,22.5-23.43,.69-2.38,4.22-15.16-3.72-24.37-8.51-9.85-25.68-10.42-31.88-3.72-5.76,6.28,1.7,15.06-4.69,24.37-3.24,4.7-9.04,6.88-20.64,11.21Z"/><path class="e" d="M504.54,261.8c-.67,.35-5.69,2.7-7.44,.94-.94-.97-.27-2.49,0-5.63,.15-1.62,.61-7.58-1.87-12.18-1.3-2.48-4.56-6.25-7.5-5.63-3.44,.73-4.47,7.08-4.68,8.45-.53,3.46-.21,7,.93,10.31,3.19,9.41,6.7,30.42,.94,34.73-5.04,3.77-18.38-4.29-26.26-12.19-12.8-12.85-14.95-29.13-15.94-36.57-1.54-11.72-3.41-25.83,5.63-38.45,9.85-13.76,25.85-16.22,30.01-16.87,7.34-1.13,18.61-2.88,27.19,4.69,8.98,7.91,8.53,20.38,8.43,22.5,.37,10.85,.74,41.18-9.44,45.91Z"/><path class="e" d="M438.13,245.86c-3.75,13.05,1.45,25.02,2.8,28.13,4.4,10.12,9.44,11.08,15.94,19.69,9.33,12.35,17.6,35.04,8.43,51.56-7.75,13.97-27.96,23.56-38.45,16.88-5.33-3.39-9.51-11.99-7.5-18.76,2.31-7.75,11.51-8.79,11.25-14.07-.22-4.5-7.21-9.15-13.12-8.43-2.34,.29-5.21,1.49-11.25,9.38-9.55,12.45-7.99,16.68-13.12,20.63-8.76,6.71-23.96,2.59-32.82-2.82-1.98-1.24-18.3-11.18-16.87-26.25,.47-5.09,3.16-12.78,9.37-15.94,7.29-3.71,12.83,2.17,22.5-1.87,4.42-1.85,9.76-5.67,9.38-9.38s-6.59-3.26-10.31-8.43c-4.49-6.28-3.44-18.26,3.72-24.39,4.89-4.14,11.81-4.9,16.88-3.72,6.56,1.53,9.07,6.03,12.18,4.69s3.92-6.93,3.72-10.31c-.24-3.96-1.87-5.42-2.82-8.45-2.12-6.7,.71-16.08,6.56-20.63,9.86-7.65,27.82-1.2,30.01,6.57,1.28,4.59-3.83,6.43-6.47,15.9Z"/><path class="k" d="M439.68,247.03c2.88,1.53,7.14,1.48,9.63-.69,3.27-2.89,2.18-8.42,.66-16.13-1.76-8.71-3.09-15.41-7.44-16.45-3.72-.89-8.46,2.64-10.2,6.67-.31,.78-1.13,2.85,.93,11.71,2.03,8.68,3.11,13.11,6.43,14.89Z"/><rect class="k" x="999.07" y="731.73" width="18.28" height="181.82"/><polygon class="k" points="1049.86 735.79 353.61 735.79 321.57 447.32 995.4 447.32 1049.86 735.79"/><polygon class="d" points="1224.77 991.67 1255.08 1004.96 1247.2 1017.94 1214.5 1013.31 1224.77 991.67"/><polygon class="g" points="1257.32 1001.26 1281.25 1011.99 1258.84 1065.6 1252.72 1063.14 1258.68 1026.18 1244.94 1021.65 1257.32 1001.26"/><polygon class="d" points="1027.45 1014.09 1034.94 1046.33 1019.83 1047.79 1003.97 1018.82 1027.45 1014.09"/><path class="j" d="M1079.35,798.33c-32.48,12.67-75.99,35.22-84.62,67.31-14.04,52.43,36.87,163.21,36.87,163.21l-31.89,13.34s-68.09-141.59-57.43-183.8c10.66-42.22,100.23-142.51,100.23-142.51l53.76,51.35s-13.33,29.71-16.92,31.11Z"/><path class="j" d="M1120.67,795.18c-14.91,30.56-29.17,71.86-15.52,99.46,24.07,48.68,135.55,98.12,135.55,98.12l-15.12,31.1s-144.72-61.29-164.58-99.98-18.98-173.18-18.98-173.18l71.18,2.88s18.84,18.28,7.47,41.6Z"/><polygon class="g" points="1039.26 1045.92 1044.99 1071.5 988.64 1085.64 986.93 1079.28 1020.11 1061.91 1015.51 1048.2 1039.26 1045.92"/><path class="d" d="M322.18,430.61c7.74,7.18,12.47,17.04,13.22,27.58,1.19,17.69-.58,34.18-13.34,40.84-12.75,6.66-18.96,6.35-20.26,12.51-.8,4.78-1.03,9.64-.68,14.48l.69,7.29-43.44-2.06s1.76-15.49,0-22.8c-1.76-7.31-19.91-39.33-19.77-42.4s-17.49-46.48,22.44-58.03c39.93-11.55,61.14,22.58,61.14,22.58Z"/><path class="d" d="M334.31,459.17l6.03,.29c2,.1,3.54,1.79,3.44,3.79-.1,2-1.79,3.54-3.79,3.44l-6.03-.29,.35-7.23Z"/><path class="e" d="M236.21,460.7l67.7-49.81c-2.15-2.23-4.6-4.17-7.26-5.77-8.68-5.35-24.54-10.65-44.42,2.72-30.58,20.55-16.03,52.86-16.03,52.86Z"/><path class="e" d="M285.75,423.96l36.43-26.74s6.76-3.58,1.85-6.78-22.8,7.01-22.8,7.01l-35.55,21.03,20.07,5.48Z"/><path class="k" d="M272.45,433.91s37.78,16.78,54.91-.27c17.14-17.05,7.15-27.74,7.15-27.74,0,0-.48,14.49-8.76,14.22s-10.07-8.62-10.07-8.62c0,0,2.3-7.15-10.25-3.44-12.55,3.71-32.99,25.86-32.99,25.86Z"/><path class="k" d="M263.02,440.98s-1.05,12.74,8.01,18.35c9.06,5.61,14.68-3.46,14.68-3.46,0,0,1.68,8.34-2.61,11.29-4.29,2.94-12.66,4.59-16.54-.79-3.89-5.37-1.98-2.16-4.84-7.48-1.92-3.19-2.85-5.32-7.15-2.38-5.32,2.86-4.33,3.94-3.4,6.05,.93,2.11,5.82,8.57,6.71,11.73,1.82,5.27,8.22,23.19-4.37,26.74s-17.49-2.9-17.49-2.9c0,0,10.3,1.53,10.73-7.79s-18.63-22.64-11.05-29.54,27.33-19.82,27.33-19.82Z"/><circle cx="316.38" cy="454.69" r="2.59"/><path class="d" d="M193.76,383.24h0c-2.57,.13-4.76-1.85-4.89-4.43l-1.7-34c-.13-2.57,1.85-4.76,4.43-4.89h0c2.57-.13,4.76,1.85,4.89,4.43l1.7,34c.13,2.57-1.85,4.76-4.43,4.89Z"/><path class="d" d="M201.82,379.33h0c-2.57,.14-4.77-1.83-4.91-4.4l-1.86-33.95c-.14-2.57,1.83-4.77,4.4-4.91h0c2.57-.14,4.77,1.83,4.91,4.4l1.86,33.95c.14,2.57-1.83,4.77-4.4,4.91Z"/><path class="d" d="M211.12,378.81h0c-2.57,.14-4.77-1.83-4.91-4.4l-1.86-33.95c-.14-2.57,1.83-4.77,4.4-4.91h0c2.57-.14,4.77,1.83,4.91,4.4l1.86,33.95c.14,2.57-1.83,4.77-4.4,4.91Z"/><path class="d" d="M220.42,378.31h0c-2.57,.14-4.77-1.83-4.91-4.4l-1.86-33.95c-.14-2.57,1.83-4.77,4.4-4.91h0c2.57-.14,4.77,1.83,4.91,4.4l1.86,33.95c.14,2.57-1.83,4.77-4.4,4.91Z"/><path class="d" d="M228.73,374.99c-2.22,5.24-23.1,14.38-23.1,14.38l-18.05-13.86,1.36-11.32s42.02,5.55,39.79,10.8Z"/><path class="g" d="M271.18,545.85l-32.89,40.59s-81.82-75.75-84.3-79.49-2.48-10.98,.94-24.68c4.86-24.61,31.12-104.63,31.12-104.63l26.11,5.8-25.4,91.08s-2.13,6.97,.07,11.79c5.06,5.54,84.35,59.54,84.35,59.54Z"/><path class="d" d="M496.94,668.2c-5.67,.52-20.75,17.6-20.75,17.6l7.66,21.45,11.2,2.17s7.51-41.73,1.88-41.22Z"/><path class="d" d="M531.18,668.28h0c.39,2.55-1.37,4.93-3.91,5.31l-28.43,4.31c-2.55,.39-4.93-1.37-5.31-3.91h0c-.39-2.55,1.37-4.93,3.91-5.31l28.43-4.31c2.55-.39,4.93,1.37,5.31,3.91Z"/><path class="d" d="M223.04,376.18h0c-2.31-1.14-3.25-3.94-2.1-6.25l12.77-25.73c1.14-2.31,3.94-3.25,6.25-2.1h0c2.31,1.14,3.25,3.94,2.1,6.25l-12.77,25.73c-1.14,2.31-3.94,3.25-6.25,2.1Z"/><path class="d" d="M981.7,501.77c-6.32,7.54-9.55,17.19-9.03,27.02,.89,16.49,4.46,31.52,17.01,36.2,12.56,4.68,18.27,3.7,20.2,9.24,1.31,4.33,2.1,8.79,2.34,13.3l.2,6.82,39.91-6.9s-3.42-14.04-2.66-21.06,13.88-38.61,13.39-41.47,10.84-44.93-27.42-51.05c-38.25-6.12-53.94,27.9-53.94,27.9Z"/><path class="d" d="M973.78,529.58l-5.55,.96c-1.84,.32-3.06,2.07-2.74,3.91,.32,1.84,2.07,3.06,3.91,2.74l5.55-.96-1.17-6.65Z"/><circle cx="989.83" cy="523.37" r="2.41"/><path class="e" d="M1029.6,768.28c8.83,11.03,58.71,13.6,78.01,10.68,14.17-2.14,36.65-5.53,39.11-16.45,2.21-9.83-14.39-14.31-26.49-33.1-17.87-27.71-2.22-49.75-12.87-90.22-9.36-36.02-17.36-48.3-28.08-53.5-4.21-2.06-7.69-2.55-14.63-3.51-14.65-2.11-40.01-4.91-55.18,5.05-15.18,9.97-15.5,80.84-15.5,80.84l17.98-1.39s2.41,39.04,3.81,59.21c1.03,15.64,1.95,22.55,4.39,28.08,2.09,5.39,5.31,10.27,9.45,14.3Z"/><path class="j" d="M1037.98,465.71c-28.01-7.15-49.8,12.44-56.01,18.02s-11.42,10.27-10.88,15.93c1.68,17.55,55.77,27.71,61.12,17.94,1.53-2.8-.44-8.19,3.29-11.3,1.26-1.09,2.9-1.65,4.56-1.56,3.3,.36,5.23,4.04,5.85,5.15,4.49,8.52-3.79,22.69-6.86,27.8-9.55,15.96-15.57,15.21-18.15,24.51-2.98,10.82,1.7,24.36,10.87,31.96,16,13.26,43.91,6.95,50.58-7.02,5.53-11.58-3.78-27.98-5.37-30.77-5.58-9.84-10.06-9.64-11.7-16.38-3.02-12.65,11.33-18.99,12.31-32.76,1.22-16.84-18.51-36.1-39.61-41.5Z"/><path class="d" d="M864.88,633.04c5.13,1.37,16.26,19.44,16.26,19.44l-10.44,18.48-10.62,.22s-.26-39.49,4.8-38.13Z"/><path class="d" d="M866.73,638.15h0c-.76,2.27-3.22,3.51-5.49,2.75l-25.38-8.45c-2.27-.76-3.51-3.22-2.75-5.49h0c.76-2.27,3.22-3.51,5.49-2.75l25.38,8.45c2.27,.76,3.51,3.22,2.75,5.49Z"/><path class="f" d="M832.41,627.96h0c3-1.91,6.97-1.04,8.89,1.96l29.6,46.34c1.91,3,1.04,6.97-1.96,8.89h0c-3,1.91-6.97,1.04-8.89-1.96l-29.6-46.34c-1.91-3-1.04-6.97,1.96-8.89Z"/><ellipse class="g" cx="815.25" cy="601.1" rx="32.76" ry="37.44" transform="translate(-195.38 533.41) rotate(-32.57)"/><path class="d" d="M877.89,664.99h0c.46,2.35-1.07,4.63-3.42,5.1l-31.08,6.12c-2.35,.46-4.63-1.07-5.1-3.42h0c-.46-2.35,1.07-4.63,3.42-5.1l31.08-6.12c2.35-.46,4.63,1.07,5.1,3.42Z"/><path class="d" d="M872.42,657.34h0c.46,2.35-1.07,4.63-3.42,5.1l-31.08,6.12c-2.35,.46-4.63-1.07-5.1-3.42h0c-.46-2.35,1.07-4.63,3.42-5.1l31.08-6.12c2.35-.46,4.63,1.07,5.1,3.42Z"/><path class="d" d="M870.76,648.84h0c.46,2.35-1.07,4.63-3.42,5.1l-31.08,6.12c-2.35,.46-4.63-1.07-5.1-3.42h0c-.46-2.35,1.07-4.63,3.42-5.1l31.08-6.12c2.35-.46,4.63,1.07,5.1,3.42Z"/><path class="d" d="M869.08,640.31h0c.46,2.35-1.07,4.63-3.42,5.1l-31.08,6.12c-2.35,.46-4.63-1.07-5.1-3.42h0c-.46-2.35,1.07-4.63,3.42-5.1l31.08-6.12c2.35-.46,4.63,1.07,5.1,3.42Z"/><path class="e" d="M1006.42,591.16l43.52,47.3s-57.58,52.66-72.41,63.99c-14.83,11.34-26.54,5.07-26.54,5.07l-81.8-30.67,11.43-30.48,62.49,23.4c4.62,1.74,7.98,.62,10.36-1.46,4-3.44,52.96-77.15,52.96-77.15Z"/><polygon class="e" points="723.81 675.86 715.04 735.79 665.91 448.34 674.74 398.57 723.81 675.86"/><path class="f" d="M523.07,656.62h0c3.47,1.02,5.47,4.66,4.45,8.13l-15.73,53.75c-1.02,3.47-4.66,5.47-8.13,4.45h0c-3.47-1.02-5.47-4.66-4.45-8.13l15.73-53.75c1.02-3.47,4.66-5.47,8.13-4.45Z"/><ellipse class="g" cx="534.51" cy="626.44" rx="38.14" ry="33.37" transform="translate(-216.82 963.52) rotate(-73.69)"/><path class="d" d="M517.84,715.13h0c-.92,2.4-3.61,3.61-6.02,2.69l-31.75-12.15c-2.4-.92-3.61-3.61-2.69-6.02h0c.92-2.4,3.61-3.61,6.02-2.69l31.75,12.15c2.4,.92,3.61,3.61,2.69,6.02Z"/><path class="d" d="M525.03,708.05h0c-.92,2.4-3.61,3.61-6.02,2.69l-31.75-12.15c-2.4-.92-3.61-3.61-2.69-6.02h0c.92-2.4,3.61-3.61,6.02-2.69l31.75,12.15c2.4,.92,3.61,3.61,2.69,6.02Z"/><path class="d" d="M528.37,699.35h0c-.92,2.4-3.61,3.61-6.02,2.69l-31.75-12.15c-2.4-.92-3.61-3.61-2.69-6.02h0c.92-2.4,3.61-3.61,6.02-2.69l31.75,12.15c2.4,.92,3.61,3.61,2.69,6.02Z"/><path class="d" d="M531.69,690.64h0c-.92,2.4-3.61,3.61-6.02,2.69l-31.75-12.15c-2.4-.92-3.61-3.61-2.69-6.02h0c.92-2.4,3.61-3.61,6.02-2.69l31.75,12.15c2.4,.92,3.61,3.61,2.69,6.02Z"/><path class="g" d="M333.34,579.22l-53.78,4.24s67.93,100.43,79.38,104.23c7.93,2.46,16.1,4.05,24.37,4.74l97.78,10.73,5.37-28.96s-81.75-10.25-72.91-9.82c8.84,.43-26.59-2-36.12-7.39-9.53-5.39-44.09-77.77-44.09-77.77Z"/><polygon class="d" points="153.47 973.53 124.28 990.4 133.71 1002.65 166.29 994.28 153.47 973.53"/><polygon class="j" points="121.59 986.89 98.57 1000.43 127.26 1052.19 133.19 1049.03 123.01 1012.28 136.4 1006.14 121.59 986.89"/><polygon class="d" points="355.72 974.12 351.75 1007.58 367.2 1007.37 380.02 976.26 355.72 974.12"/><path class="j" d="M272.91,762.19c34.3,9.19,80.87,27.14,93.2,58.64,20.15,51.49-19.07,169.34-19.07,169.34l33.77,9.94s53.04-151.03,37.53-192.5-117.4-133.07-117.4-133.07l-48.66,58.04s16.82,28.59,20.62,29.6Z"/><path class="j" d="M236.81,762.97c18.52,29.27,37.59,69.47,26.86,98.91-18.91,51.97-126.22,114.51-126.22,114.51l18.79,29.79s139.62-78.26,155.38-119.65c15.75-41.39-.2-177.45-.2-177.45l-71.72,10.89s-17.02,20.66-2.9,42.99Z"/><polygon class="j" points="347.33 1007.65 344.39 1034.19 403.03 1042.19 404.04 1035.55 368.51 1021.7 371.61 1007.31 347.33 1007.65"/><path class="g" d="M287.68,528.11l26.37-1.25s27-1.32,28.52,16.52c1.51,17.84,13.63,176.12,13.63,176.12l-139.43,1.98,4.45-164.31s11.19-26.44,23.6-27.03l42.87-2.03Z"/><circle class="j" cx="786.7" cy="382.68" r="23.24"/><rect class="k" x="429.24" y="731.73" width="18.28" height="181.82"/><rect class="k" x="948.28" y="731.73" width="18.28" height="58.91"/><path class="d" d="M191.69,361.36h0c-2.57,.14-4.77-1.83-4.91-4.4l-1.86-33.95c-.14-2.57,1.83-4.77,4.4-4.91h0c2.57-.14,4.77,1.83,4.91,4.4l1.86,33.95c.14,2.57-1.83,4.77-4.4,4.91Z"/><path class="d" d="M200.62,351.92h0c-2.57,.14-4.77-1.83-4.91-4.4l-1.86-33.95c-.14-2.57,1.83-4.77,4.4-4.91h0c2.57-.14,4.77,1.83,4.91,4.4l1.86,33.95c.14,2.57-1.83,4.77-4.4,4.91Z"/><path class="d" d="M209.92,351.4h0c-2.57,.14-4.77-1.83-4.91-4.4l-1.86-33.95c-.14-2.57,1.83-4.77,4.4-4.91h0c2.57-.14,4.77,1.83,4.91,4.4l1.86,33.95c.14,2.57-1.83,4.77-4.4,4.91Z"/><path class="d" d="M219.23,350.9h0c-2.57,.14-4.77-1.83-4.91-4.4l-1.86-33.95c-.14-2.57,1.83-4.77,4.4-4.91h0c2.57-.14,4.77,1.83,4.91,4.4l1.86,33.95c.14,2.57-1.83,4.77-4.4,4.91Z"/></g></g></g></svg>