<?xml version="1.0" encoding="utf-8"?>
<!-- Generator: Adobe Illustrator 21.0.0, SVG Export Plug-In . SVG Version: 6.00 Build 0)  -->
<svg version="1.1" id="Calque_1" xmlns="http://www.w3.org/2000/svg" xmlns:xlink="http://www.w3.org/1999/xlink" x="0px" y="0px"
	 viewBox="0 0 140 140" style="enable-background:new 0 0 140 140;" xml:space="preserve">
<style type="text/css">
	.st0{fill:none;stroke:#FFFFFF;stroke-width:3;}
	.st1{fill:#FFFFFF;}
</style>
<title>living_environment</title>
<desc>Created with Sketch.</desc>
<g id="Page-1">
	<g id="Group-2" transform="translate(-1378.000000, 1.000000)">
		<g id="living_environment" transform="translate(1379.000000, 0.000000)">
			<g id="Calque_1_1_">
				<circle id="Oval" class="st0" cx="68.9" cy="68.8" r="68.2"/>
				<g id="Group" transform="translate(0.000000, 0.666895)">
					<path id="Shape" class="st1" d="M68.9,0C31.3,0,0.7,30.5,0.7,68.2s30.5,68.2,68.2,68.2s68.2-30.5,68.2-68.2S106.5,0,68.9,0
						L68.9,0z M68.9,2.8c36.1,0,65.3,29.3,65.3,65.3s-29.3,65.3-65.3,65.3S3.6,104.2,3.6,68.2S32.7,2.8,68.9,2.8L68.9,2.8z
						 M57.3,22.7c-0.8,0-1.4,0.6-1.4,1.5l0,0v1.4h-1.4c-0.8,0-1.5,0.6-1.5,1.4c0,0.7,0.6,1.5,1.4,1.5l0,0h1.4v1.4
						c0,0.8,0.6,1.5,1.4,1.5c0.8,0,1.5-0.6,1.5-1.4l0,0v-1.4H60c0.8,0,1.5-0.6,1.5-1.4c0-0.8-0.6-1.5-1.4-1.5l0,0h-1.4v-1.4
						C58.8,23.4,58.1,22.8,57.3,22.7L57.3,22.7z M64.4,22.7c-0.8,0-1.5,0.6-1.5,1.5c0,0.8,0.6,1.5,1.5,1.5s1.5-0.6,1.5-1.5
						C65.9,23.4,65.2,22.7,64.4,22.7z M41.7,28.4c-0.8,0-1.5,0.6-1.5,1.5c0,0.8,0.6,1.5,1.5,1.5c0.8,0,1.5-0.6,1.5-1.5
						C43.1,29.1,42.4,28.4,41.7,28.4z M95.7,28.4c-0.8,0-1.4,0.6-1.4,1.5l0,0v1.4h-1.4c-0.8,0-1.5,0.6-1.5,1.4
						c0,0.8,0.6,1.5,1.4,1.5l0,0h1.4v1.4c0,0.8,0.6,1.5,1.4,1.5c0.7,0,1.5-0.6,1.5-1.4l0,0v-1.4h1.4c0.8,0,1.5-0.6,1.5-1.4
						c0-0.8-0.6-1.5-1.4-1.5l0,0h-1.4V30C97.1,29.1,96.5,28.4,95.7,28.4L95.7,28.4z M90,36.9c-0.8,0-1.5,0.6-1.5,1.5
						c0,0.8,0.6,1.5,1.5,1.5s1.5-0.6,1.5-1.5C91.4,37.5,90.7,36.9,90,36.9z M58.8,38.4v8.6h-8.6v11.4h14.2c0.8,0,1.5,0.6,1.5,1.5
						v5.6c0,0.8-0.6,1.5-1.5,1.5h-1.5v41.2h-1.5V65.4h2.8v-5.6H41.7v5.6h2.8v42.7h-1.5V72.6H30.3v35.5h-4.1v2.8h84.9v-2.8h-4.1v-44
						h-8.6V52.7h-6.9V57h2.6v51.1h-1.5V58.3h-2.6v-5.6h-4.4v-7.1h-2.8v7.1h-4.1v5.6h-3v49.8h-1.5V58.3v-1.5h3v-4.3h-1.6V38.4H58.8
						L58.8,38.4z M33.1,42.7c-0.8,0-1.4,0.6-1.4,1.5l0,0v1.4h-1.5c-0.8,0-1.5,0.6-1.5,1.4c0,0.8,0.6,1.5,1.4,1.5l0,0h1.4v1.4
						c0,0.8,0.6,1.5,1.4,1.5c0.7,0,1.5-0.6,1.5-1.4l0,0v-1.4h1.4c0.8,0,1.5-0.6,1.5-1.4c0-0.8-0.6-1.5-1.4-1.5l0,0h-1.4v-1.4
						C34.6,43.3,34,42.7,33.1,42.7L33.1,42.7z M107.1,45.5c-0.8,0-1.4,0.6-1.4,1.5l0,0v1.4h-1.4c-0.8,0-1.5,0.6-1.5,1.4
						c0,0.8,0.6,1.5,1.4,1.5l0,0h1.4v1.4c0,0.8,0.6,1.5,1.4,1.5c0.7,0,1.5-0.6,1.5-1.4l0,0v-1.4h1.4c0.8,0,1.5-0.6,1.5-1.4
						c0-0.8-0.6-1.5-1.4-1.5l0,0h-1.4V47C108.5,46.1,107.9,45.5,107.1,45.5L107.1,45.5z M30.3,53.9c-0.8,0-1.5,0.6-1.5,1.5
						c0,0.8,0.6,1.5,1.5,1.5s1.5-0.6,1.5-1.5C31.8,54.6,31.2,53.9,30.3,53.9L30.3,53.9z M80.2,62.5H83v2.8h-2.8V62.5z M85.9,62.5
						h2.8v2.8h-2.8V62.5z M48.9,68.2h8.6V71h-8.6V68.2z M80.2,68.2H83V71h-2.8V68.2z M85.9,68.2h2.8V71h-2.8V68.2z M48.9,73.9h8.6
						v2.8h-8.6V73.9z M80.2,73.9H83v2.8h-2.8V73.9z M85.9,73.9h2.8v2.8h-2.8V73.9z M48.9,79.6h8.6v2.8h-8.6V79.6z M80.2,79.6H83v2.8
						h-2.8V79.6z M85.9,79.6h2.8v2.8h-2.8V79.6z M48.9,85.2h8.6V88h-8.6V85.2z M80.2,85.2H83V88h-2.8V85.2z M85.9,85.2h2.8V88h-2.8
						V85.2z M48.9,91h8.6v2.8h-8.6V91z M80.2,91H83v2.8h-2.8V91z M85.9,91h2.8v2.8h-2.8V91z M48.9,96.6h8.6v2.8h-8.6V96.6z
						 M80.2,96.6H83v2.8h-2.8V96.6z M85.9,96.6h2.8v2.8h-2.8V96.6z M48.9,102.2h8.6v2.8h-8.6V102.2z M80.2,102.2H83v2.8h-2.8V102.2z
						 M85.9,102.2h2.8v2.8h-2.8V102.2z"/>
				</g>
			</g>
		</g>
	</g>
</g>
</svg>
