<?xml version="1.0" encoding="utf-8"?>
<!-- Generator: Adobe Illustrator 21.0.0, SVG Export Plug-In . SVG Version: 6.00 Build 0)  -->
<svg version="1.1"
	 id="Calque_1" xmlns:cc="http://creativecommons.org/ns#" xmlns:dc="http://purl.org/dc/elements/1.1/" xmlns:inkscape="http://www.inkscape.org/namespaces/inkscape" xmlns:rdf="http://www.w3.org/1999/02/22-rdf-syntax-ns#" xmlns:sodipodi="http://sodipodi.sourceforge.net/DTD/sodipodi-0.dtd" xmlns:svg="http://www.w3.org/2000/svg"
	 xmlns="http://www.w3.org/2000/svg" xmlns:xlink="http://www.w3.org/1999/xlink" x="0px" y="0px" viewBox="0 0 141.7 141.7"
	 style="enable-background:new 0 0 141.7 141.7;" xml:space="preserve">
<style type="text/css">
	.st0{fill:none;stroke:#217ABF;stroke-width:3;stroke-miterlimit:10;}
	.st1{fill:#217ABF;}
</style>
<circle class="st0" cx="70.9" cy="70.8" r="65.2"/>
<g transform="translate(0,-1004.3621)">
	<path class="st1" d="M70.9,1010c-36,0-65.2,29.2-65.2,65.2s29.2,65.2,65.2,65.2s65.2-29.2,65.2-65.2S106.9,1010,70.9,1010
		L70.9,1010z M70.9,1012.7c34.5,0,62.5,28,62.5,62.5s-28,62.5-62.5,62.5s-62.5-28-62.5-62.5C8.4,1040.7,36.3,1012.7,70.9,1012.7
		L70.9,1012.7z M59.8,1031.7c-0.8,0-1.3,0.6-1.3,1.4l0,0v1.3h-1.3c-0.8,0-1.4,0.6-1.4,1.3s0.6,1.4,1.3,1.4l0,0h1.3v1.3
		c0,0.8,0.6,1.4,1.3,1.4c0.8,0,1.4-0.6,1.4-1.3l0,0v-1.3h1.3c0.8,0,1.4-0.6,1.4-1.3c0-0.8-0.6-1.4-1.3-1.4l0,0h-1.3v-1.3
		C61.2,1032.4,60.6,1031.8,59.8,1031.7L59.8,1031.7z M66.6,1031.7c-0.8,0-1.4,0.6-1.4,1.4s0.6,1.4,1.4,1.4s1.4-0.6,1.4-1.4
		C68,1032.4,67.4,1031.7,66.6,1031.7z M44.9,1037.2c-0.8,0-1.4,0.6-1.4,1.4s0.6,1.4,1.4,1.4s1.4-0.6,1.4-1.4
		C46.2,1037.8,45.6,1037.2,44.9,1037.2z M96.5,1037.2c-0.8,0-1.3,0.6-1.3,1.4l0,0v1.3h-1.3c-0.8,0-1.4,0.6-1.4,1.3
		c0,0.8,0.6,1.4,1.3,1.4l0,0h1.3v1.3c0,0.8,0.6,1.4,1.3,1.4s1.4-0.6,1.4-1.3l0,0v-1.3h1.3c0.8,0,1.4-0.6,1.4-1.3
		c0-0.8-0.6-1.4-1.3-1.4l0,0h-1.3v-1.3C97.9,1037.8,97.3,1037.2,96.5,1037.2L96.5,1037.2z M91.1,1045.3c-0.8,0-1.4,0.6-1.4,1.4
		s0.6,1.4,1.4,1.4s1.4-0.6,1.4-1.4C92.4,1045.9,91.8,1045.3,91.1,1045.3z M61.2,1046.7v8.2H53v10.9h13.6c0.8,0,1.4,0.6,1.4,1.4v5.4
		c0,0.8-0.6,1.4-1.4,1.4h-1.4v39.4h-1.4v-40.8h2.7v-5.4H44.9v5.4h2.7v40.8h-1.4v-34H34v34h-3.9v2.7h81.2v-2.7h-3.9v-42.1h-8.2v-10.9
		h-6.6v4.1h2.5v48.9h-1.4v-47.6h-2.5v-5.4H87v-6.8h-2.7v6.8h-3.9v5.4h-2.9v47.6h-1.4v-47.6v-1.4H79v-4.1h-1.5v-13.6L61.2,1046.7
		L61.2,1046.7z M36.7,1050.8c-0.8,0-1.3,0.6-1.3,1.4l0,0v1.3H34c-0.8,0-1.4,0.6-1.4,1.3c0,0.8,0.6,1.4,1.3,1.4l0,0h1.3v1.3
		c0,0.8,0.6,1.4,1.3,1.4s1.4-0.6,1.4-1.3l0,0v-1.3h1.3c0.8,0,1.4-0.6,1.4-1.3c0-0.8-0.6-1.4-1.3-1.4l0,0H38v-1.3
		C38.1,1051.4,37.5,1050.8,36.7,1050.8L36.7,1050.8z M107.4,1053.5c-0.8,0-1.3,0.6-1.3,1.4l0,0v1.3h-1.3c-0.8,0-1.4,0.6-1.4,1.3
		c0,0.8,0.6,1.4,1.3,1.4l0,0h1.3v1.3c0,0.8,0.6,1.4,1.3,1.4s1.4-0.6,1.4-1.3l0,0v-1.3h1.3c0.8,0,1.4-0.6,1.4-1.3
		c0-0.8-0.6-1.4-1.3-1.4l0,0h-1.3v-1.3C108.8,1054.1,108.2,1053.5,107.4,1053.5L107.4,1053.5z M34,1061.6c-0.8,0-1.4,0.6-1.4,1.4
		s0.6,1.4,1.4,1.4c0.8,0,1.4-0.6,1.4-1.4S34.8,1061.6,34,1061.6L34,1061.6z M81.7,1069.8h2.7v2.7h-2.7V1069.8z M87.2,1069.8h2.7v2.7
		h-2.7V1069.8z M51.8,1075.2H60v2.7h-8.2V1075.2z M81.7,1075.2h2.7v2.7h-2.7V1075.2z M87.2,1075.2h2.7v2.7h-2.7V1075.2z
		 M51.8,1080.7H60v2.7h-8.2V1080.7z M81.7,1080.7h2.7v2.7h-2.7V1080.7z M87.2,1080.7h2.7v2.7h-2.7V1080.7z M51.8,1086.1H60v2.7h-8.2
		V1086.1z M81.7,1086.1h2.7v2.7h-2.7V1086.1z M87.2,1086.1h2.7v2.7h-2.7V1086.1z M51.8,1091.5H60v2.7h-8.2V1091.5z M81.7,1091.5h2.7
		v2.7h-2.7V1091.5z M87.2,1091.5h2.7v2.7h-2.7V1091.5z M51.8,1097H60v2.7h-8.2V1097z M81.7,1097h2.7v2.7h-2.7V1097z M87.2,1097h2.7
		v2.7h-2.7V1097z M51.8,1102.4H60v2.7h-8.2V1102.4z M81.7,1102.4h2.7v2.7h-2.7V1102.4z M87.2,1102.4h2.7v2.7h-2.7V1102.4z
		 M51.8,1107.8H60v2.7h-8.2V1107.8z M81.7,1107.8h2.7v2.7h-2.7V1107.8z M87.2,1107.8h2.7v2.7h-2.7V1107.8z"/>
</g>
</svg>
