<?xml version="1.0" encoding="utf-8"?>
<!-- Generator: Adobe Illustrator 27.0.0, SVG Export Plug-In . SVG Version: 6.00 Build 0)  -->
<svg version="1.1" id="Layer_2_00000109721215878931849450000009758350504631886466_"
	 xmlns="http://www.w3.org/2000/svg" xmlns:xlink="http://www.w3.org/1999/xlink" x="0px" y="0px" viewBox="0 0 160 94.7"
	 style="enable-background:new 0 0 160 94.7;" xml:space="preserve">
<style type="text/css">
	.st0{fill:#4C4C4C;}
	.st1{fill:#33AA4F;}
	.st2{fill:#CEA217;}
	.st3{fill:#D65B16;}
</style>
<path class="st0" d="M69.1,89.5c5,5.2,12.7,6.3,19.2,2.8c6.3-3.4,9.5-10,7.6-17.1C92.5,63.4,88.9,51.7,85.2,40
	c-0.5-1.6-2.5-3.7-3.8-3.7c-1.4,0-3.3,2.1-3.9,3.7c-4.1,11.4-8.1,22.8-11.9,34.3C63.5,80.5,64.8,85.2,69.1,89.5L69.1,89.5z"/>
<g>
	<g>
		<path class="st1" d="M0,79.4h23c0.1-19.3,9.8-36.3,24.5-46.6l-11-20.3C14.6,26.7,0.1,51.3,0,79.4z"/>
		<path class="st2" d="M80-0.4c-12.9,0-25.1,3.1-35.9,8.5L55,28.4c7.6-3.7,16-5.8,25-5.8c9.4,0,18.2,2.3,26,6.3l10.5-20.4
			C105.5,2.8,93.1-0.4,80-0.4z"/>
		<path class="st3" d="M124,12.8l-10.5,20.6c14.2,10.3,23.5,27,23.6,46h23C159.9,51.5,145.6,27.1,124,12.8z"/>
	</g>
</g>
</svg>
