<?xml version="1.0" encoding="UTF-8"?><svg id="Layer_2" xmlns="http://www.w3.org/2000/svg" viewBox="0 0 159.99 94.65"><defs><style>.cls-1{fill:#cea217;}.cls-2{fill:#d65b16;}.cls-3{fill:#33aa4f;}.cls-4{fill:#4c4c4c;}</style></defs><g id="Layer_1-2"><g><path class="cls-2" d="M159.99,79.73c-.05-20.46-7.79-39.11-20.47-53.22l-15.84,15.84c8.65,10.04,13.89,23.1,13.94,37.38h22.38Z"/><path class="cls-1" d="M134.63,21.5C121.09,8.84,103.15,.82,83.35,0V22.39c13.63,.78,25.97,6.31,35.44,14.94l15.84-15.84Z"/><path class="cls-3" d="M0,79.73H22.38c.1-30.51,23.91-55.43,53.97-57.31V0C33.92,1.91,.1,36.85,0,79.73Z"/><path class="cls-4" d="M65.95,84.66c2.64,6.69,9.34,10.66,16.69,9.89,7.15-.74,12.64-5.63,13.52-12.95,1.47-12.18,2.6-24.4,3.59-36.63,.13-1.65-.94-4.4-2.15-4.87-1.26-.49-3.87,.72-5.02,1.97-8.16,8.93-16.2,17.98-24.08,27.17-4.21,4.91-4.8,9.76-2.57,15.42Z"/></g></g></svg>