<?xml version="1.0" encoding="UTF-8"?><svg id="Layer_2" xmlns="http://www.w3.org/2000/svg" viewBox="0 0 159.99 93.97"><defs><style>.cls-1{fill:#cea217;}.cls-2{fill:#d65b16;}.cls-3{fill:#33aa4f;}.cls-4{fill:#4c4c4c;}</style></defs><g id="Layer_1-2"><g><path class="cls-4" d="M64.91,70.4c-3.39,6.34-2.08,14.02,3.27,19.13,5.2,4.97,12.47,5.99,18.63,1.93,10.24-6.76,20.28-13.82,30.25-20.97,1.35-.97,2.75-3.56,2.32-4.79-.44-1.27-3.05-2.49-4.75-2.55-12.09-.44-24.19-.71-36.29-.77-6.47-.03-10.55,2.65-13.42,8.02Z"/><path class="cls-2" d="M159.99,79.73c-.05-20.46-7.79-39.11-20.47-53.22l-15.84,15.84c8.65,10.04,13.89,23.1,13.94,37.38h22.38Z"/><path class="cls-1" d="M134.63,21.5C121.09,8.84,103.15,.82,83.35,0V22.39c13.63,.78,25.97,6.31,35.44,14.94l15.84-15.84Z"/><path class="cls-3" d="M0,79.73H22.38c.1-30.51,23.91-55.43,53.97-57.31V0C33.92,1.91,.1,36.85,0,79.73Z"/></g></g></svg>