<?xml version="1.0" encoding="utf-8"?>
<!-- Generator: Adobe Illustrator 27.0.0, SVG Export Plug-In . SVG Version: 6.00 Build 0)  -->
<svg version="1.1" id="Layer_2_00000090297073519726381720000005386173973911058111_"
	 xmlns="http://www.w3.org/2000/svg" xmlns:xlink="http://www.w3.org/1999/xlink" x="0px" y="0px" viewBox="0 0 160 94"
	 style="enable-background:new 0 0 160 94;" xml:space="preserve">
<style type="text/css">
	.st0{fill:#4C4C4C;}
	.st1{fill:#33AA4F;}
	.st2{fill:#CEA217;}
	.st3{fill:#D65B16;}
</style>
<path class="st0" d="M64.8,72.6c-2.4,6.8,0.1,14.2,6.1,18.4c5.9,4.1,13.2,4,18.7-0.9c9.1-8.2,18-16.7,26.7-25.3
	c1.2-1.2,2.2-3.9,1.6-5.1c-0.6-1.2-3.4-2-5.1-1.8c-12,1.4-24,2.9-36,4.7C70.5,63.6,66.9,66.8,64.8,72.6L64.8,72.6z"/>
<g>
	<g>
		<path class="st1" d="M0,79.7h23c0.1-19.3,9.8-36.3,24.5-46.6l-11-20.3C14.6,27.1,0.1,51.7,0,79.7z"/>
		<path class="st2" d="M80,0C67.1,0,54.9,3.1,44.1,8.5L55,28.7C62.5,25,71,23,80,23c9.4,0,18.2,2.3,26,6.3l10.5-20.4
			C105.5,3.2,93.1,0,80,0z"/>
		<path class="st3" d="M124,13.2l-10.5,20.6c14.2,10.3,23.5,27,23.6,46h23C159.9,51.9,145.6,27.4,124,13.2z"/>
	</g>
</g>
</svg>
