<?xml version="1.0" encoding="utf-8"?>
<!-- Generator: Adobe Illustrator 21.0.0, SVG Export Plug-In . SVG Version: 6.00 Build 0)  -->
<svg version="1.1" id="Calque_1" xmlns="http://www.w3.org/2000/svg" xmlns:xlink="http://www.w3.org/1999/xlink" x="0px" y="0px"
	 viewBox="0 0 141.7 141.7" style="enable-background:new 0 0 141.7 141.7;" xml:space="preserve">
<style type="text/css">
	.st0{fill:none;stroke:#FF9200;stroke-width:4;stroke-miterlimit:10;}
	.st1{fill:#FF9200;}
</style>
<circle class="st0" cx="70.9" cy="70.9" r="68.4"/>
<path class="st1" d="M39.8,113.5c4,0,7.8-1.8,10.4-4.8l35.1-41c0.7-0.6,2-0.7,3.4,0c1.4,0.6,2.5,1.7,3.1,3.1c0.5,1.2,0.5,2,0.4,2.5
	c-0.6,2.5,0.3,5.1,2.2,7.1l2.3,2.3c0.5,0.5,1.1,0.7,1.8,0.7l0,0c0.7,0,1.3-0.3,1.8-0.7l15-15c1-1,1-2.6,0-3.5l-2.3-2.3
	c-1.9-1.9-4.6-2.8-7.1-2.2c-0.7,0.2-1.6,0-2.5-0.4c-1.4-0.6-2.5-1.7-3.1-3.1c-0.4-0.9-0.6-1.8-0.4-2.5c0.6-2.5-0.3-5.1-2.2-7.1
	L86.5,35.4c-9.2-9.2-24.3-9.2-33.5,0c-1,1-1,2.6,0,3.5l5,5c0.5,0.5,1.1,0.7,1.8,0.7l0,0c0.7,0,1.3-0.3,1.8-0.7
	c2.8-2.8,7.4-2.8,10.2,0c1.4,1.4,2.1,3.2,2.1,5.1c0,1.9-0.7,3.7-2.1,5.1l-41,35.1c-3.1,2.6-4.8,6.4-4.8,10.4
	C26,107.3,32.2,113.5,39.8,113.5z M66.6,36.9L66.6,36.9c-2.4,0-4.7,0.7-6.7,2l-1.5-1.6c3.2-2.5,7.2-3.8,11.4-3.8
	c5,0,9.7,1.9,13.2,5.5l11.1,11.1c0.7,0.7,1,1.6,0.9,2.5c-0.4,1.8-0.1,3.7,0.7,5.7c1.1,2.5,3.1,4.5,5.7,5.7c1.9,0.9,3.9,1.1,5.6,0.7
	c0.8-0.2,1.7,0.1,2.5,0.9L110,66L98.5,77.5l-0.6-0.6c-0.7-0.7-1-1.6-0.9-2.5c0.4-1.8,0.1-3.7-0.7-5.6c-1.1-2.5-3.1-4.5-5.6-5.6
	c-1.3-0.6-2.7-0.9-4-0.9c-1,0-2,0.2-2.9,0.6l-7-7c3.1-4.7,2.6-11.2-1.6-15.3C73,38.2,69.9,36.9,66.6,36.9z M34.1,93.1l39.3-33.7
	l6.7,6.7l-33.7,39.3c-1.7,1.9-4.1,3.1-6.6,3.1c-4.8,0-8.8-3.9-8.8-8.8C31,97.2,32.1,94.8,34.1,93.1z"/>
<path class="st1" d="M117.7,89h-10c-1.4,0-2.5,1.1-2.5,2.5s1.1,2.5,2.5,2.5h2.5v20c0,1.4,1.1,2.5,2.5,2.5s2.5-1.1,2.5-2.5V94h2.5
	c1.4,0,2.5-1.1,2.5-2.5S119.1,89,117.7,89z"/>
<path class="st1" d="M87.1,92.8c-1-1-2.6-1-3.5,0l-7.1,7.1c-1,1-1,2.6,0,3.5c0.5,0.5,1.1,0.7,1.8,0.7c0.6,0,1.3-0.2,1.8-0.7l1.8-1.8
	L96,115.8c0.5,0.5,1.1,0.7,1.8,0.7s1.3-0.2,1.8-0.7c1-1,1-2.6,0-3.5L85.3,98.1l1.8-1.8C88.1,95.3,88.1,93.8,87.1,92.8z"/>
</svg>
