<?xml version="1.0" encoding="utf-8"?>
<!-- Generator: Adobe Illustrator 21.0.0, SVG Export Plug-In . SVG Version: 6.00 Build 0)  -->
<svg version="1.1" id="Calque_1" xmlns="http://www.w3.org/2000/svg" xmlns:xlink="http://www.w3.org/1999/xlink" x="0px" y="0px"
	 viewBox="0 0 142 142" style="enable-background:new 0 0 142 142;" xml:space="preserve">
<style type="text/css">
	.st0{fill:none;stroke:#FFFFFF;stroke-width:4;}
	.st1{fill:#FFFFFF;}
</style>
<title>micro_development</title>
<desc>Created with Sketch.</desc>
<g id="Page-1">
	<g id="Group-2" transform="translate(-615.000000, -140.000000)">
		<g id="micro_development" transform="translate(617.000000, 142.000000)">
			<g id="Calque_1_1_">
				<circle id="Oval" class="st0" cx="68.9" cy="68.9" r="68.4"/>
				<path id="Shape" class="st1" d="M37.8,111.5c4,0,7.8-1.8,10.4-4.8l35.1-41c0.7-0.6,2-0.7,3.4,0c1.4,0.6,2.5,1.7,3.1,3.1
					c0.5,1.2,0.5,2,0.4,2.5c-0.6,2.5,0.3,5.1,2.2,7.1l2.3,2.3c0.5,0.5,1.1,0.7,1.8,0.7l0,0c0.7,0,1.3-0.3,1.8-0.7l15-15
					c1-1,1-2.6,0-3.5l-2.3-2.3c-1.9-1.9-4.6-2.8-7.1-2.2c-0.7,0.2-1.6,0-2.5-0.4c-1.4-0.6-2.5-1.7-3.1-3.1c-0.4-0.9-0.6-1.8-0.4-2.5
					c0.6-2.5-0.3-5.1-2.2-7.1L84.5,33.4c-9.2-9.2-24.3-9.2-33.5,0c-1,1-1,2.6,0,3.5l5,5c0.5,0.5,1.1,0.7,1.8,0.7l0,0
					c0.7,0,1.3-0.3,1.8-0.7c2.8-2.8,7.4-2.8,10.2,0c1.4,1.4,2.1,3.2,2.1,5.1s-0.7,3.7-2.1,5.1l-41,35.1c-3.1,2.6-4.8,6.4-4.8,10.4
					C24,105.3,30.2,111.5,37.8,111.5z M64.6,34.9L64.6,34.9c-2.4,0-4.7,0.7-6.7,2l-1.5-1.6c3.2-2.5,7.2-3.8,11.4-3.8
					c5,0,9.7,1.9,13.2,5.5l11.1,11.1c0.7,0.7,1,1.6,0.9,2.5c-0.4,1.8-0.1,3.7,0.7,5.7c1.1,2.5,3.1,4.5,5.7,5.7
					c1.9,0.9,3.9,1.1,5.6,0.7c0.8-0.2,1.7,0.1,2.5,0.9L108,64L96.5,75.5l-0.6-0.6c-0.7-0.7-1-1.6-0.9-2.5c0.4-1.8,0.1-3.7-0.7-5.6
					c-1.1-2.5-3.1-4.5-5.6-5.6c-1.3-0.6-2.7-0.9-4-0.9c-1,0-2,0.2-2.9,0.6l-7-7c3.1-4.7,2.6-11.2-1.6-15.3
					C71,36.2,67.9,34.9,64.6,34.9z M32.1,91.1l39.3-33.7l6.7,6.7l-33.7,39.3c-1.7,1.9-4.1,3.1-6.6,3.1c-4.8,0-8.8-3.9-8.8-8.8
					C29,95.2,30.1,92.8,32.1,91.1z"/>
				<path id="Shape_1_" class="st1" d="M115.7,87h-10c-1.4,0-2.5,1.1-2.5,2.5s1.1,2.5,2.5,2.5h2.5v20c0,1.4,1.1,2.5,2.5,2.5
					c1.4,0,2.5-1.1,2.5-2.5V92h2.5c1.4,0,2.5-1.1,2.5-2.5S117.1,87,115.7,87z"/>
				<path id="Shape_2_" class="st1" d="M85.1,90.8c-1-1-2.6-1-3.5,0l-7.1,7.1c-1,1-1,2.6,0,3.5c0.5,0.5,1.1,0.7,1.8,0.7
					c0.6,0,1.3-0.2,1.8-0.7l1.8-1.8L94,113.8c0.5,0.5,1.1,0.7,1.8,0.7c0.7,0,1.3-0.2,1.8-0.7c1-1,1-2.6,0-3.5L83.3,96.1l1.8-1.8
					C86.1,93.3,86.1,91.8,85.1,90.8z"/>
			</g>
		</g>
	</g>
</g>
</svg>
