<?xml version="1.0" encoding="utf-8"?>
<!-- Generator: Adobe Illustrator 21.0.0, SVG Export Plug-In . SVG Version: 6.00 Build 0)  -->
<svg version="1.1" id="Calque_1" xmlns="http://www.w3.org/2000/svg" xmlns:xlink="http://www.w3.org/1999/xlink" x="0px" y="0px"
	 viewBox="0 0 141.7 141.7" style="enable-background:new 0 0 141.7 141.7;" xml:space="preserve">
<style type="text/css">
	.st0{fill:none;stroke:#FF9200;stroke-width:3;stroke-miterlimit:10;}
	.st1{fill:#FF9200;}
</style>
<circle class="st0" cx="70.9" cy="70.9" r="68.4"/>
<g>
	<g>
		<path class="st1" d="M85.1,42.3c-3.9-0.8-6.8-3.1-9.1-6.4c-1.1-1.7-2.5-3.2-4-4.3c-2.8-2-5.7-3.6-8.8-5.2
			c-9.3-4.5-19-5.6-28.9-2.4c-0.1,0-0.4,0.1-0.6,0.3c-1.1,1-0.6,2.6,1,2.8c0.1,0,0.3,0,0.4,0c4.2-0.4,8.2-0.1,12.1,1.8
			c7.1,3.8,8.8,10,4.3,16.7c-0.8,1.3-1.7,2.4-2.5,3.6c-0.6,0.8-0.6,1.7-0.3,2.5c0.3,0.6,0.3,1.1-0.1,1.5
			c-6.8,10-13.7,19.9-20.5,29.8c0,0.1-0.1,0.1-0.1,0.3c-1.1,1.4-1,3.2,0.1,4.5c1.7,1.8,3.5,3.3,5.9,4.2c1.7,0.6,2.6,0.4,3.9-1.3
			C44.9,80.5,52,70.3,59,60.2c0.3-0.4,0.7-0.7,1.3-0.7s1.1-0.3,1.5-0.7c1.3-1.3,2.5-2.5,3.9-3.2c2-1.1,4.3-2,6.4-1.7
			c1.4,0.1,2.6,1.3,3.9,2.4c0.8,0.7,2,0.6,2.6-0.4L86.3,45C87,44.1,86.4,42.6,85.1,42.3z"/>
		<path class="st1" d="M90.2,44.1c0.6-0.8,1.7-1,2.5-0.4c0.4,0.3,0.8,0.6,1.3,0.8c1.5,1.3,2,2.8,0.8,4.5c-3.1,4.5-6,8.8-9.2,13.1
			c-1.5,2.1-3.1,2-5.7-0.1c-0.7-0.6-0.8-1.7-0.3-2.4L90.2,44.1z"/>
	</g>
	<path class="st1" d="M122.8,95.1h-24c-2,0-3.5-1.5-3.5-3.5V81.1c0-2,1.5-3.5,3.5-3.5h24c2,0,3.5,1.5,3.5,3.5v10.6
		C126.3,93.6,124.7,95.1,122.8,95.1z"/>
	<path class="st1" d="M84.3,95.1h-24c-2,0-3.5-1.5-3.5-3.5V81.1c0-2,1.5-3.5,3.5-3.5h24c2,0,3.5,1.5,3.5,3.5v10.6
		C87.8,93.6,86.3,95.1,84.3,95.1z"/>
	<path class="st1" d="M101.3,120.4h-24c-2,0-3.5-1.5-3.5-3.5v-10.6c0-2,1.5-3.5,3.5-3.5h24c2,0,3.5,1.5,3.5,3.5v10.6
		C104.8,118.9,103.3,120.4,101.3,120.4z"/>
	<path class="st1" d="M64.4,120.4h-24c-2,0-3.5-1.5-3.5-3.5v-10.6c0-2,1.5-3.5,3.5-3.5h24c2,0,3.5,1.5,3.5,3.5v10.6
		C67.9,118.9,66.3,120.4,64.4,120.4z"/>
</g>
</svg>
