<svg xmlns="http://www.w3.org/2000/svg" xmlns:xlink="http://www.w3.org/1999/xlink" viewBox="0 0 20 20" version="1.1" x="0px" y="0px"><title>open-in-new-tab</title><g stroke="none" stroke-width="1" fill="none" fill-rule="evenodd"><g transform="translate(-220.000000, -100.000000)" fill="#000000" fill-rule="nonzero"><path d="M236,100 L236.19964,100.004895 C238.316032,100.108921 240,101.857805 240,104 L240,104 L240,112 L239.995105,112.19964 C239.891079,114.316032 238.142195,116 236,116 L236,116 L235.995105,116.19964 C235.891079,118.316032 234.142195,120 232,120 L232,120 L224,120 L223.80036,119.995105 C221.683968,119.891079 220,118.142195 220,116 L220,116 L220,108 L220.004895,107.80036 C220.108921,105.683968 221.857805,104 224,104 L224,104 L224.004895,103.80036 C224.108921,101.683968 225.857805,100 228,100 L228,100 L236,100 Z M224,106 L223.850738,106.005486 C222.815878,106.081835 222,106.945638 222,108 L222,108 L222,116 L222.005486,116.149262 C222.081835,117.184122 222.945638,118 224,118 L224,118 L232,118 L232.149262,117.994514 C233.184122,117.918165 234,117.054362 234,116 L234,116 L228,116 L227.80036,115.995105 C225.683968,115.891079 224,114.142195 224,112 L224,112 L224,106 Z M236,102 L228,102 L227.850738,102.005486 C226.815878,102.081835 226,102.945638 226,104 L226,104 L226,112 L226.005486,112.149262 C226.081835,113.184122 226.945638,114 228,114 L228,114 L236,114 C237.104569,114 238,113.104569 238,112 L238,112 L238,104 L237.994514,103.850738 C237.918165,102.815878 237.054362,102 236,102 L236,102 Z M235,104 C235.365148,104 235.655586,104.180946 235.827842,104.437886 C235.836296,104.451284 235.844977,104.464719 235.853339,104.47837 C235.883782,104.528252 235.909654,104.580644 235.930952,104.634841 C235.938052,104.652227 235.944329,104.669644 235.950129,104.687276 C235.989545,104.806426 236.007449,104.933401 236.000562,105.060657 L236,109 C236,109.552285 235.552285,110 235,110 C234.487164,110 234.064493,109.61396 234.006728,109.116621 L234,109 L234,107.414 L230.707107,110.707107 C230.316582,111.097631 229.683418,111.097631 229.292893,110.707107 C228.932409,110.346623 228.90468,109.779392 229.209705,109.387101 L229.292893,109.292893 L232.584,106 L231,106 C230.487164,106 230.064493,105.61396 230.006728,105.116621 L230,105 C230,104.487164 230.38604,104.064493 230.883379,104.006728 L231,104 L235,104 Z"></path></g></g></svg>