<?xml version="1.0" encoding="UTF-8"?><svg xmlns="http://www.w3.org/2000/svg" viewBox="0 0 1493.7 1262.88"><defs><style>.d,.e{fill:none;}.f{fill:#efd0c5;}.g{fill:#f0b9ad;}.h{fill:#a166aa;}.i{fill:#c43f2a;}.j{fill:#bb3f44;}.k{fill:#ce978e;}.l{fill:#d3a339;}.m{fill:#16164c;}.n{fill:#272266;}.e{stroke:#fff;stroke-miterlimit:10;stroke-width:8px;}</style></defs><g id="a"/><g id="b"><g id="c"><g><path class="j" d="M1324.67,405.62c-.47-81.97-24.86-162.72-78.18-225C1158.2,77.48,1028.82,8.61,892.9,.6c-36.93-2.18-76.8,.7-105.88,23.57-79.42,62.49-38.18,236.77-176.1,221.08-37.91-4.3-69.11-30.17-85.54-64.62C467.8,59.98,317.48,2.95,193.47,42.72,90.39,75.78,11.44,173.84,1.11,281.58c-2.92,30.57-.55,62.41,12.71,90.08,41.19,85.98,161.36,95.86,230.12,161.86,112.12,107.61,41.56,295.04,67.88,448.19,23.35,135.87,137.59,251.3,273.2,276.07,135.62,24.79,283.28-42.79,353.17-161.63,12.16-20.66,22.66-43.29,41.32-58.38,37.88-30.55,93.39-19.28,139.8-4.61,109.42,34.52,240.99,75.81,324.96-12,35.17-36.79,51.08-87.72,49.29-138.6-4.34-122.71-80.26-215.74-128.49-320.83-23.63-51.47-40.14-109.93-40.41-156.12"/><polygon class="f" points="878.86 1078.89 854.57 1112.35 840.83 1099.28 855.18 1060.59 878.86 1078.89"/><polygon class="m" points="860.69 1108.98 846.54 1138.15 781.96 1125.39 783.6 1117.32 830.37 1116.29 835.86 1093.88 860.69 1108.98"/><polygon class="f" points="771.89 1026.84 743.6 1057.01 731.6 1042.32 750.67 1005.73 771.89 1026.84"/><polygon class="m" points="752.15 1054.77 730.49 1081.01 671.73 1055.53 674.9 1047.93 720.99 1056.02 730.53 1034.94 752.15 1054.77"/><path class="h" d="M1056.48,779.89s-125.88,69.94-152.64,103.23c-26.76,33.29-133.29,145.73-133.29,145.73l-23.7-19.74s97.66-140.1,141.81-196.23c44.15-56.13,143.43-147.46,143.43-147.46l76.01,96.56-51.63,17.91Z"/><path class="h" d="M1143.7,755.91c-40.71,67.89-102.95,95.13-145.58,151.08-42.62,55.95-122.12,176.22-122.12,176.22l-26.47-15.43s70.51-149.49,115.41-213.71c44.9-64.22,92.98-155.88,92.98-155.88,0,0,126.53-10.21,85.78,57.7Z"/><path class="f" d="M1021.22,359.96c-8.9,8.27-14.33,19.6-15.19,31.72-1.42,20.33,.66,39.31,15.34,46.96,14.67,7.65,21.8,7.32,23.31,14.39s.79,16.66,.79,16.66l-.8,8.39,49.97-2.37s-2.03-17.78,0-26.23,22.91-45.19,22.74-48.76,20.13-53.4-25.81-66.74c-45.94-13.34-70.34,25.98-70.34,25.98Z"/><path class="l" d="M1058.75,523.49l-37.83-46.63s-94.11,87.13-96.96,91.43-2.85,12.63,1.09,28.39c5.58,28.3,35.77,120.35,35.77,120.35l30.05-6.73-29.19-104.73s-2.46-8.03,.09-13.56c5.79-6.37,96.98-68.52,96.98-68.52Z"/><path class="l" d="M1060.91,472.1l-30.33-1.42s-16.84,10.01-18.73,23.55c-1.89,13.53-25.81,202.4-25.81,202.4l149.26,59.75,1.81-244.05s-12.55-37.17-26.82-37.88l-49.37-2.33Z"/><rect class="n" x="1179.24" y="855.19" width="23.31" height="231.84"/><rect class="n" x="452.64" y="855.19" width="23.31" height="231.84"/><rect class="n" x="387.88" y="855.19" width="23.31" height="75.12"/><rect class="n" x="1114.48" y="855.19" width="23.31" height="75.12"/><polygon class="n" points="1258.26 860.37 370.45 860.37 329.61 697.18 1188.81 697.18 1258.26 860.37"/><circle class="m" cx="410.15" cy="235.55" r="17.05"/><path class="i" d="M849.15,829.92h203.01c5.09,0,9.22-4.13,9.22-9.22v-92.28c-.01-5.09-4.13-9.21-9.22-9.22h-203.01c-5.09,0-9.23,4.12-9.23,9.21h0v92.3c-.01,5.08,4.09,9.21,9.17,9.22h.06Zm106.1-23.05h-9.22v-9.22h9.22v9.22Zm0-18.46h-9.22v-9.22h9.22v9.22Zm0-18.46h-9.22v-9.22h9.22v9.22Zm27.69,36.91h-9.23v-9.22h9.23v9.22Zm0-18.46h-9.23v-9.22h9.23v9.22Zm0-18.46h-9.23v-9.22h9.23v9.22Zm46.13-27.68h9.22v9.22h-9.22v-9.22Zm0,18.46h9.22v9.22h-9.22v-9.22Zm0,18.46h9.22v9.22h-9.22v-9.22Zm0,18.46h9.22v9.22h-9.22v-9.22Zm-27.68-55.37h9.22v9.22h-9.22v-9.22Zm0,18.46h9.22v9.22h-9.22v-9.22Zm0,18.46h9.22v9.22h-9.22v-9.22Zm0,18.46h9.22v9.22h-9.22v-9.22Zm-83.06-55.37h64.6v9.22h-64.6v-9.22Zm0,18.46h9.23v9.22h-9.23v-9.22Zm0,18.46h9.23v9.22h-9.23v-9.22Zm0,18.46h9.23v9.22h-9.23v-9.22Zm-27.68-55.37h9.22v9.22h-9.22v-9.22Zm0,18.46h9.22v9.22h-9.22v-9.22Zm0,18.46h9.22v9.22h-9.22v-9.22Zm0,18.46h9.22v9.22h-9.22v-9.22Zm-27.68-55.37h9.22v9.22h-9.22v-9.22Zm0,18.46h9.22v9.22h-9.22v-9.22Zm0,18.46h9.22v9.22h-9.22v-9.22Zm0,18.46h9.22v9.22h-9.22v-9.22Z"/><path class="k" d="M1071.05,329.18c-8.11-11.84,1.36-23-5.96-30.97-7.77-8.51-29.67-7.77-40.49,4.77-10.09,11.66-5.6,27.94-4.77,30.95,5.18,18.73,22.87,27.08,28.58,29.79,18.55,8.76,35.89,5.25,50.02,2.38,10.96-2.21,27.73-7.34,27.39-11.9-.26-3.38-9.64-3.59-28.58-10.72-14.74-5.56-22.11-8.33-26.2-14.3Z"/><path class="f" d="M1012.88,388.21l-6.83-1.3c-2.27-.38-4.42,1.15-4.81,3.42-.37,2.22,1.08,4.33,3.28,4.78l6.83,1.3,1.53-8.2Z"/><circle cx="1024.32" cy="382.9" r="2.98"/><rect class="f" x="997.56" y="777.17" width="78.5" height="10.72" rx="4.4" ry="4.4" transform="translate(-162.97 1280.39) rotate(-59.58)"/><rect class="f" x="984.63" y="778.35" width="78.5" height="10.72" rx="4.4" ry="4.4" transform="translate(-170.37 1269.83) rotate(-59.58)"/><rect class="f" x="975.38" y="772.93" width="78.5" height="10.72" rx="4.4" ry="4.4" transform="translate(-170.26 1259.17) rotate(-59.58)"/><rect class="f" x="966.15" y="768.25" width="78.49" height="10.72" rx="4.4" ry="4.4" transform="translate(-172.84 1243.78) rotate(-59.33)"/><path class="f" d="M1016.55,734.53c5.47-3.6,31.28,.91,31.28,.91l8.5,24.76-8.47,9.99s-36.77-32.04-31.3-35.66Z"/><path class="l" d="M1102.98,537.42l51.35-34.8s11.06,139.05,3.54,150.64c-5.39,7.9-11.62,15.19-18.59,21.75l-80.17,79.8-25.62-22.15s66.05-67.93,58.45-61.18c-7.6,6.75,22.5-20.84,27.2-32.52,4.7-11.68-16.16-101.53-16.16-101.53Z"/><rect class="f" x="981.93" y="742.58" width="43.75" height="10.72" rx="4.4" ry="4.4" transform="translate(-239.56 602.76) rotate(-30.03)"/><path class="g" d="M1048.42,323.22c-8.11-11.84,1.3-23-5.96-30.97-7.77-8.51-29.67-7.77-40.49,4.77-10.09,11.66-5.6,27.94-4.77,30.97,5.18,18.73,22.87,27.08,28.58,29.79,18.53,8.76,35.89,5.25,50.02,2.38,10.96-2.21,27.73-7.34,27.39-11.9-.26-3.38-9.64-3.59-28.58-10.72-14.74-5.57-22.11-8.34-26.2-14.31Z"/><path class="g" d="M1049.62,350.61c-.14-2.69-.7-18.53,10.71-28.58,10.91-9.61,25.28-7.38,34.54-5.96,5.28,.82,25.59,3.95,38.1,21.44,11.49,16.03,9.07,33.96,7.15,48.83-1.3,9.49-3.99,30.13-20.24,46.45-10,10.04-26.95,20.28-33.35,15.54-7.3-5.49-2.85-32.16,1.19-44.04,1.46-4.2,1.87-8.7,1.19-13.09-.27-1.74-1.58-9.79-5.96-10.72-3.72-.79-7.77,4-9.52,7.15-3.24,5.84-2.59,13.41-2.38,15.54,.35,3.98,1.2,5.92,0,7.14-2.21,2.24-8.59-.75-9.53-1.19-12.85-6.18-12.37-44.71-11.9-58.49Z"/><path class="g" d="M1137.74,368.47c2.77-9.87,25.59-18.07,38.12-8.34,7.42,5.78,11.01,17.68,8.33,26.2-1.2,3.89-3.28,5.7-3.57,10.72-.25,4.3,.78,11.4,4.77,13.09s7.15-4,15.54-5.96c6.48-1.5,15.23-.53,21.44,4.77,9.07,7.77,10.36,23,4.75,30.97-4.68,6.58-12.55,6.01-13.09,10.72s6.29,9.56,11.92,11.9c12.29,5.18,19.31-2.33,28.57,2.38,7.9,4.02,11.31,13.79,11.92,20.24,1.8,19.14-18.86,31.77-21.44,33.35-11.24,6.86-30.57,12.1-41.69,3.57-6.48-5.01-4.53-10.36-16.67-26.2-7.68-10.02-11.31-11.55-14.25-11.92-7.53-.91-16.4,5-16.68,10.72-.32,6.7,11.36,8,14.25,17.86,2.59,8.59-2.77,19.52-9.53,23.82-13.33,8.47-39-3.7-48.83-21.44-11.66-20.98-1.13-49.81,10.72-65.5,8.25-10.93,14.66-12.16,20.24-25.01,1.71-3.95,8.33-19.17,3.57-35.73-3.51-12.01-10.01-14.42-8.38-20.24Z"/><path class="n" d="M1152.16,371.2c2.59-11.24,1.62-13.87,1.19-14.88-2.23-5.12-8.24-9.6-12.95-8.47-5.53,1.3-7.21,9.83-9.39,20.89-1.93,9.79-3.33,16.84,.84,20.48,3.13,2.75,8.56,2.82,12.23,.88,4.12-2.19,5.5-7.8,8.08-18.9Z"/><path class="m" d="M884.1,528.8h-317.9c-5.9,0-10.69,4.78-10.7,10.69v225.22c0,5.9,4.79,10.69,10.7,10.69h317.9c5.9,0,10.69-4.78,10.7-10.69v-225.22c0-5.9-4.79-10.69-10.7-10.69Zm-109.78,274.02h-2.03l-1.04-.13c-11.2-1.1-16.76-18.81-19.53-29.79h-60.28c-2.77,10.98-8.33,28.69-19.53,29.79l-1.02,.13h-2.05c-5.25,0-9.5,4.27-9.5,9.52,0,5.24,4.25,9.49,9.5,9.5h105.47c5.25,0,9.51-4.25,9.52-9.5s-4.25-9.51-9.5-9.52h0Z"/><path class="e" d="M555.5,633.71h-88.06s-23.2,2.53-23.2-21.47v-76.42c0-25.83-.3-37.33-37.4-37.4h-91.29c-12.73,0-30.25-2.56-30.25-30.25v-46.19"/><polygon class="d" points="345.01 391.64 344.27 391.61 344.18 391.47 343.48 391.33 344.94 395.18 346.96 392.02 345.01 391.64"/><polygon class="d" points="368.2 358.76 359.09 361.79 365.46 363.04 368.2 358.76"/><path class="d" d="M472.91,257.37c-4.63-64.22-60.45-112.53-124.67-107.9-36.95,2.67-70.44,22.74-90.21,54.07-13.97-5.33-29.35-5.74-43.59-1.17,13.43,3.98,23.19,12.73,26.9,16.07,5.88,5.29,10.57,9.5,10.06,14.74-.3,3.08-2.33,5.92-5.5,8.43,2.97,5.69,4.36,12.08,4.03,18.49l-.07,.89,4.16,.73c1.7,.27,2.87,1.87,2.6,3.57-.27,1.7-1.87,2.87-3.57,2.6-.04,0-.09-.01-.13-.02l-3.65-.63c-1.48,12.29-5.37,22.72-15.13,26.4-11.61,4.33-16.89,3.42-18.7,8.55-1.07,3.45-1.74,7.02-2,10.62,.8,.41,1.58,.87,2.33,1.36,2.08,1.36,3.86,3.98,5.38,7.44,9.56,14.3,43.3,64.89,46.45,67.63,2.2,1.92,5.3,2.96,9.58,1.35l57.81-21.69,1.18,3.13c2.63-4.01,7.88-11.65,11.59-14.44,.3-.42,.73-.73,1.22-.89l20.9-6.96c-7.82-10.34-8.21-26.06,.09-39.03,10.29-16.12,30.08-21.89,44.18-12.88s17.2,29.39,6.9,45.51c-9.04,14.17-25.41,20.33-38.83,15.51l-4.28,6.7,2.75,.54c1.35,.27,2.23,1.58,1.97,2.94l-.58,2.98c-.27,1.35-1.58,2.23-2.94,1.97,1.35,.27,2.23,1.57,1.97,2.93l-.58,2.98c-.27,1.35-1.58,2.23-2.94,1.97,1.35,.27,2.23,1.57,1.97,2.93l-.58,2.98c-.27,1.35-1.58,2.23-2.94,1.97l-2.82-.55c.96,.52,1.48,1.6,1.28,2.67l-.58,2.98c-.27,1.35-1.58,2.23-2.94,1.97l-11.54-2.28-6.6,10.34c-1.11,1.71-3.4,2.2-5.11,1.1l-3.79-2.43c-1.71-1.11-2.2-3.39-1.1-5.1l.25-.41-59.48,22.33h180.93c45.16-.71,81.19-37.89,80.48-83.05-.64-40.93-31.45-75.08-72.1-79.92Z"/><path class="d" d="M211.59,420.33h33.3c-6.12-4.77-18.86-15.95-31.58-27.29-.38,6.13-1.08,16.69-1.73,27.29Z"/><path class="d" d="M125.35,362.24c7.91-30.22,14.69-42.39,23.27-47.98,0,0,0-.09-.08-.14-5.11-10.71,3.5-25.88,4.97-28.46,5.17-9.1,9.32-8.92,10.81-15.18,1.1-4.63-.3-8.34-2.46-11.92-44.19,9.19-72.57,52.46-63.39,96.65,3.33,16,11.37,30.64,23.1,42.02-.43-11.78,.84-23.57,3.77-34.99Z"/><path class="f" d="M194.87,249.77c-1.42-2.58,.41-7.55-3.04-10.45-1.17-1.01-2.69-1.53-4.23-1.44-3.05,.34-4.84,3.73-5.39,4.76-4.16,7.89,3.51,20.99,6.35,25.72,8.8,14.77,14.41,14.06,16.78,22.68,1.48,6.07,.89,12.46-1.68,18.16,3.44,.75,6.77,1.95,9.9,3.57,.26-3.61,.93-7.17,2-10.62,1.79-5.13,7.07-4.21,18.7-8.55,9.77-3.64,13.65-14.08,15.13-26.4l-1.48-.25,1.1-6.16,.97,.16,.07-.89c.33-6.41-1.06-12.8-4.03-18.49-13.52,10.75-47.14,15.52-51.14,8.19Zm36.99,4.94c.22-1.19,1.37-1.98,2.56-1.76,1.19,.22,1.98,1.37,1.76,2.56-.22,1.17-1.32,1.96-2.5,1.77-1.2-.19-2.02-1.31-1.84-2.51v-.06Z"/><path class="f" d="M252.99,267.87c1.69,.34,3.34-.76,3.68-2.45,.34-1.69-.76-3.34-2.45-3.68-.04,0-.09-.02-.13-.02l-4.16-.73c-.12,2.12-.31,4.21-.55,6.25l3.61,.63Z"/><path class="f" d="M247.85,266.99l1.48,.25c.24-2.03,.43-4.12,.55-6.25l-.97-.16-1.07,6.16Z"/><path d="M233.68,257.29c1.2,.19,2.32-.64,2.51-1.84,.19-1.2-.64-2.32-1.84-2.51-1.18-.18-2.28,.6-2.5,1.77-.22,1.19,.57,2.34,1.76,2.56h.06Z"/><path class="l" d="M197.94,318.12l15.31,2.64,.19-6.3s0-.65,.12-1.68c-3.13-1.62-6.46-2.82-9.9-3.57-1.39,3.28-3.32,6.29-5.72,8.92Z"/><path class="g" d="M241.34,218.45c-3.72-3.3-13.47-12.1-26.9-16.07-24.64,7.83-42.44,29.33-45.53,54.99-.81,.1-1.61,.23-2.41,.35-1.58,.23-3.13,.51-4.69,.82,2.2,3.59,3.57,7.29,2.46,11.92-1.5,6.26-5.64,6.08-10.81,15.18-1.47,2.58-10.09,17.75-4.97,28.46,0,0,.05,.1,.08,.14,6.3,12.82,31.98,18.57,46.72,6.35,.94-.77,1.83-1.6,2.65-2.49,2.42-2.62,4.36-5.64,5.76-8.92,2.57-5.7,3.17-12.09,1.68-18.16-2.38-8.62-7.95-7.91-16.78-22.68-2.84-4.73-10.5-17.83-6.35-25.72,.55-1.03,2.34-4.4,5.39-4.76,1.54-.09,3.06,.43,4.23,1.44,3.44,2.9,1.62,7.86,3.04,10.45,4,7.33,37.63,2.55,51.06-8.16,3.15-2.51,5.18-5.35,5.5-8.43,.44-5.26-4.25-9.45-10.13-14.74Z"/><path class="f" d="M340.92,382.63l2.83,.56c-.97-.51-1.49-1.6-1.29-2.67l.59-2.98c.27-1.35,1.57-2.23,2.93-1.97-1.35-.27-2.23-1.58-1.97-2.94l.59-2.98c.27-1.35,1.58-2.22,2.93-1.97-1.35-.27-2.22-1.58-1.97-2.93l.59-2.98c.15-.79,.68-1.46,1.42-1.78l-.05-.16c-.25-.77-.12-1.61,.36-2.27-3.72,2.79-8.96,10.43-11.59,14.44l3.97,10.6c.22-.03,.44-.02,.66,.02Z"/><polygon class="f" points="344.27 391.61 345.01 391.64 344.18 391.47 344.27 391.61"/><path class="f" d="M352.1,360.41l7,1.37,9.11-2.97,4.06-6.36c-.83-.84-1.6-1.74-2.31-2.69l-20.9,6.96c-.49,.16-.92,.47-1.22,.89,.54-.45,1.15-.79,1.81-1,1.04-.33,1.84,1.21,2.45,3.79Z"/><path class="f" d="M347.52,359.83l.05,.16c.47-.22,1-.28,1.51-.19l3.07,.6c-.62-2.58-1.41-4.12-2.45-3.85-.66,.22-1.28,.56-1.81,1-.48,.65-.62,1.5-.36,2.27Z"/><path class="m" d="M376.6,355.97l-8.4,2.85-2.74,4.28,12.55,2.47,4.28-6.7c-1.88-.68-3.68-1.56-5.37-2.63l-.32-.27Z"/><path class="i" d="M344.94,395.19l.7,1.88-2.52,.93-.25,.41c-1.1,1.71-.61,3.99,1.1,5.1l3.79,2.43c1.72,1.1,4,.61,5.11-1.1l6.6-10.34-12.55-2.47-1.99,3.16Z"/><path class="f" d="M372.26,352.4l-4.06,6.41,8.4-2.79c-1.57-1.05-3.03-2.26-4.34-3.62Z"/><path class="m" d="M378.57,349.48l.69,2.08,2.32,1.48c1.7,1.12,2.19,3.4,1.1,5.11l-.43,.66c13.42,4.82,29.78-1.34,38.83-15.51,10.31-16.12,7.22-36.49-6.9-45.51-14.11-9.02-33.89-3.3-44.18,12.88-8.29,12.98-7.91,28.7-.09,39.03l5.5-1.81c1.31-.43,2.72,.28,3.16,1.58Z"/><path class="f" d="M372.26,352.4l.43-.66c1.11-1.71,3.39-2.2,5.1-1.1l1.47,.93-.69-2.08c-.44-1.3-1.85-2.01-3.16-1.58l-5.5,1.81c.72,.94,1.5,1.84,2.34,2.67Z"/><path class="m" d="M381.62,353.04l-2.32-1.48,.26,.8c.43,1.31-.28,2.72-1.58,3.16l-1.34,.45,.32,.22c1.69,1.07,3.49,1.95,5.37,2.63l.43-.66c1.09-1.73,.58-4.01-1.13-5.11Z"/><path class="f" d="M377.94,355.52c1.3-.44,2.01-1.85,1.58-3.16l-.26-.8-1.47-.93c-1.71-1.1-4-.61-5.1,1.1l-.43,.66c1.32,1.34,2.78,2.53,4.34,3.56l1.34-.43Z"/><polygon class="f" points="346.96 392.02 347.17 391.68 345.01 391.64 346.96 392.02"/><path class="f" d="M359.51,394.48l11.54,2.28c1.35,.26,2.67-.62,2.94-1.97l.58-2.98c.21-1.07-.31-2.16-1.28-2.67l-9.21-1.81-4.58,7.16Z"/><polygon class="f" points="342.27 388.12 343.48 391.33 344.18 391.47 342.27 388.12"/><path class="f" d="M344.22,391.47l.84,.16h2.2l4.4-6.83-7.16-1.41c-.24-.05-.47-.13-.68-.25l-2.83-.56c-.22-.03-.44-.03-.66,0l2.07,5.5,1.83,3.39Z"/><path class="f" d="M354.05,385.34c.05,3.83,0,6.47,0,6.47l-6.92-.13-.21,.33,12.55,2.47,4.58-7.16-10-1.98Z"/><path class="f" d="M347.17,391.68l6.95,.13v-6.47l-2.52-.49-4.43,6.83Z"/><path class="f" d="M353.81,377.12c.07,1.35,.11,2.67,.14,3.94l2.2-3.48-2.34-.46Z"/><path class="f" d="M364.15,387.21l8.45,1.66c.24,.05,.48,.14,.69,.26l2.82,.55c1.35,.26,2.67-.62,2.94-1.97l.58-2.98c.26-1.35-.62-2.66-1.97-2.93l-8.93-1.76-4.58,7.16Z"/><path class="f" d="M353.96,381.06c0-1.26-.08-2.58-.14-3.94l-7.89-1.55c-1.35-.26-2.66,.62-2.93,1.97l-.59,2.98c-.2,1.08,.32,2.16,1.29,2.67l7.91,1.55,2.35-3.68Z"/><path class="f" d="M353.96,381.06c0,1.48,.08,2.89,.09,4.17l10.11,1.99,4.58-7.16-12.55-2.47-2.22,3.48Z"/><path class="f" d="M353.96,381.06l-2.35,3.68,2.44,.48c-.01-1.28-.04-2.68-.09-4.17Z"/><path class="f" d="M364.15,387.21l-.07,.11,9.21,1.81c-.22-.12-.45-.21-.69-.26l-8.45-1.66Z"/><path class="f" d="M351.54,384.85l.07-.11-7.91-1.55c.21,.12,.44,.21,.68,.25l7.16,1.41Z"/><path class="f" d="M354.05,385.34l10.03,1.98,.07-.11-10.11-2s.01,.09,.01,.13Z"/><path class="f" d="M351.6,384.74l-.07,.11,2.52,.49s0-.08,0-.12l-2.45-.48Z"/><path class="f" d="M368.73,380.05l8.93,1.76c1.35,.26,2.67-.62,2.94-1.97l.58-2.98c.26-1.35-.62-2.66-1.97-2.93l-5.84-1.15-4.64,7.27Z"/><path class="f" d="M353.81,377.12l2.36,.46,4.64-7.27-7.52-1.47c.23,2.67,.41,5.52,.52,8.28Z"/><path class="f" d="M353.3,368.84l-5.77-1.15c-1.35-.26-2.65,.62-2.93,1.97l-.59,2.98c-.26,1.35,.62,2.67,1.97,2.94l7.89,1.55c-.15-2.76-.33-5.61-.56-8.28Z"/><polygon class="f" points="368.73 380.05 373.37 372.78 360.82 370.31 356.18 377.58 368.73 380.05"/><path class="f" d="M379.21,373.94c1.35,.26,2.67-.62,2.94-1.97l.58-2.98c.26-1.35-.62-2.67-1.97-2.94l-2.75-.54-4.64,7.27,5.84,1.15Z"/><path class="f" d="M353.3,368.84l7.52,1.47,4.64-7.27-6.37-1.25-6.36,2.12c.22,1.51,.41,3.18,.56,4.93Z"/><path class="f" d="M352.73,363.91l-1.15,.38c-1.31,.42-2.71-.28-3.16-1.58l-.9-2.72c-.74,.33-1.27,.99-1.42,1.78l-.59,2.98c-.26,1.35,.62,2.65,1.97,2.93l5.82,1.15c-.15-1.75-.34-3.42-.56-4.93Z"/><path class="f" d="M359.09,361.79l-7-1.37c.24,1.02,.45,2.2,.64,3.5l6.36-2.12Z"/><path class="f" d="M351.58,364.32l1.15-.38c-.19-1.3-.4-2.47-.64-3.5l-3.07-.6c-.51-.09-1.04-.03-1.51,.19l.9,2.72c.44,1.3,1.85,2.01,3.16,1.58Z"/><polygon class="f" points="360.82 370.31 373.37 372.78 378.01 365.51 365.46 363.04 360.82 370.31"/><path class="l" d="M343.48,391.33l-4.17-.81c-1.35-.27-2.23-1.58-1.97-2.94l.59-2.98c.15-.77,.66-1.41,1.36-1.75l-4.7-8.29s.62-1.01,1.63-2.55l-1.18-3.13-57.81,21.69c-4.28,1.61-7.38,.57-9.58-1.35-3.15-2.76-36.89-53.29-46.45-67.63-1.52-3.45-3.3-6.07-5.38-7.44-.75-.49-1.53-.95-2.33-1.36-.09,1.03-.12,1.68-.12,1.68l-.19,6.3-15.27-2.64c-.81,.89-1.68,1.72-2.61,2.49-14.74,12.22-40.42,6.48-46.72-6.35-8.58,5.59-15.4,17.75-23.27,47.98-2.91,11.42-4.17,23.21-3.72,34.99,14.87,14.47,34.7,22.73,55.44,23.1h34.57c.68-10.6,1.34-21.16,1.73-27.29,12.71,11.34,25.46,22.51,31.58,27.29h38.75l59.44-22.32,1.81-2.82-1.45-3.86Z"/><path class="l" d="M339.31,382.85c.28-.14,.59-.22,.9-.24l-3.97-10.59c-1.01,1.54-1.63,2.55-1.63,2.55l4.7,8.28Z"/><polygon class="i" points="344.94 395.18 343.12 398 345.64 397.07 344.94 395.18"/><path class="l" d="M339.31,382.85c-.7,.34-1.21,.98-1.36,1.75l-.59,2.98c-.26,1.35,.62,2.67,1.97,2.94l4.17,.81-1.21-3.21-2.97-5.27Z"/><path class="l" d="M340.21,382.61c-.31,.02-.62,.1-.9,.24l2.97,5.27-2.07-5.51Z"/><path class="e" d="M472.91,259.02c-4.63-64.22-60.45-112.53-124.67-107.9-36.95,2.67-70.44,22.74-90.21,54.07-34.15-12.95-72.34,4.25-85.28,38.4-1.88,4.97-3.16,10.15-3.81,15.43-44.84,5.36-76.85,46.06-71.49,90.9,4.84,40.51,38.8,71.25,79.6,72.05H464.55c45.16-.76,81.15-37.99,80.38-83.15-.69-40.86-31.44-74.94-72.02-79.81Z"/><path class="g" d="M174.21,273.5v18.99c.01,.91,.76,1.64,1.67,1.63,.73,0,1.36-.49,1.56-1.19,.71-2.76,1.08-5.59,1.1-8.44,0-.91-.74-1.65-1.65-1.65s-1.65,.74-1.65,1.65c-.02,2.55-.36,5.09-1,7.56l3.3,.44v-18.99c0-.91-.74-1.65-1.65-1.65s-1.65,.74-1.65,1.65h-.03Z"/></g></g></g></svg>