<?xml version="1.0" encoding="utf-8"?>
<!-- Generator: Adobe Illustrator 21.0.0, SVG Export Plug-In . SVG Version: 6.00 Build 0)  -->
<svg version="1.1" id="Calque_1" xmlns="http://www.w3.org/2000/svg" xmlns:xlink="http://www.w3.org/1999/xlink" x="0px" y="0px"
	 viewBox="0 0 113 128" style="enable-background:new 0 0 113 128;" xml:space="preserve">
<style type="text/css">
	.st0{fill:#217ABF;stroke:#FFFFFF;stroke-width:2.2;}
	.st1{fill:none;stroke:#FFFFFF;stroke-width:2.2;}
	.st2{fill:#217ABF;stroke:#FFFFFF;stroke-width:0.5;}
</style>
<title>reviewing</title>
<desc>Created with Sketch.</desc>
<g id="Page-1">
	<g id="reviewing" transform="translate(2.000000, 1.000000)">
		<g id="Calque_1_1_">
			<g id="Group" transform="translate(0.000000, 0.637800)">
				<g id="Shape">
					<g>
						<path id="path-1" class="st0" d="M59.4,1.9l0,14.6c-1.1-0.5-2.1-0.6-3.3-0.6c-5.1,0-9.3,4.2-9.3,9.4c0,5.1,4.2,9.4,9.3,9.4
							c1.3,0,2.2-0.2,3.3-0.7l0,14.7c0,1.1,0.9,1.9,1.9,1.9h18.1c1.1,0,1.9-0.9,1.9-1.9c0-0.6-0.2-1.1-0.6-1.4
							c-0.2-0.2-0.3-0.3-0.4-0.5c-0.1-0.1-0.2-0.3-0.3-0.4c-0.1-0.1-0.2-0.3-0.3-0.5c-0.1-0.2-0.2-0.3-0.2-0.5
							c-0.1-0.2-0.1-0.3-0.2-0.5c0-0.2-0.1-0.4-0.1-0.5c0-0.2-0.1-0.4-0.1-0.5v-0.4V43c0-0.2,0-0.4,0.1-0.5c0-0.2,0.1-0.4,0.1-0.5
							c0.1-0.2,0.1-0.3,0.2-0.5s0.2-0.3,0.2-0.5c0.1-0.2,0.2-0.3,0.3-0.5s0.2-0.3,0.3-0.4c0.1-0.1,0.2-0.3,0.4-0.4
							c0.1-0.1,0.3-0.2,0.4-0.3c0.1-0.1,0.3-0.2,0.4-0.3c0.2-0.1,0.3-0.2,0.5-0.3c0.2-0.1,0.3-0.2,0.5-0.2c0.2-0.1,0.3-0.1,0.5-0.2
							c0.2,0,0.3-0.1,0.5-0.1s0.4-0.1,0.6-0.1h0.4h0.4c0.3,0.1,0.5,0.1,0.6,0.1c0.2,0,0.4,0.1,0.5,0.1c0.2,0.1,0.4,0.1,0.5,0.2
							c0.2,0.1,0.3,0.2,0.5,0.2c0.2,0.1,0.3,0.2,0.5,0.3c0.2,0.1,0.3,0.2,0.4,0.3c0.1,0.1,0.3,0.2,0.4,0.4c0.1,0.1,0.2,0.3,0.4,0.4
							c0.1,0.1,0.2,0.3,0.3,0.4c0.1,0.1,0.2,0.3,0.3,0.5c0.1,0.2,0.2,0.3,0.2,0.5c0.1,0.2,0.1,0.3,0.2,0.5c0,0.2,0.1,0.4,0.1,0.5
							c0,0.2,0.1,0.4,0.1,0.5v0.4V44c0,0.2,0,0.4-0.1,0.5c0,0.2-0.1,0.4-0.1,0.5c-0.1,0.2-0.1,0.3-0.2,0.5s-0.2,0.3-0.2,0.5
							c-0.1,0.2-0.2,0.3-0.3,0.5s-0.2,0.3-0.3,0.4c-0.1,0.1-0.2,0.2-0.4,0.4c-0.8,0.8-0.8,2,0,2.8c0.4,0.4,0.9,0.6,1.4,0.6h18.1
							c1.1,0,1.9-0.9,1.9-1.9V30.7V20.3V2c0-1.1-0.9-1.9-1.9-1.9H89.7H79.3h-18C60.2,0,59.4,0.9,59.4,1.9z M105.8,3.9v16.2v10.4
							v16.2H93.2c0.1-0.2,0.2-0.4,0.2-0.6c0.1-0.3,0.2-0.6,0.2-0.9c0.1-0.3,0.1-0.6,0.1-0.9s0.1-0.6,0.1-0.9v-0.7
							c0-0.3-0.1-0.6-0.1-0.9c-0.1-0.3-0.1-0.6-0.2-0.9c-0.1-0.3-0.2-0.6-0.3-0.9c-0.1-0.3-0.2-0.6-0.4-0.8
							c-0.1-0.3-0.3-0.5-0.5-0.8c-0.2-0.3-0.3-0.5-0.5-0.7c-0.2-0.2-0.4-0.5-0.6-0.7c-0.2-0.2-0.5-0.4-0.7-0.6
							c-0.2-0.2-0.5-0.4-0.7-0.6c-0.3-0.2-0.5-0.3-0.8-0.5c-0.3-0.1-0.5-0.3-0.8-0.4c-0.3-0.1-0.6-0.2-0.9-0.3
							c-0.3-0.1-0.6-0.2-0.9-0.2c-0.4-0.1-0.7-0.1-0.8-0.1c-0.4-0.1-0.8-0.1-1-0.1h-0.5h-0.2c-0.3,0-0.6,0.1-0.9,0.1
							c-0.3,0.1-0.6,0.1-0.9,0.2c-0.3,0.1-0.6,0.2-0.9,0.3c-0.3,0.1-0.6,0.2-0.9,0.4c-0.3,0.1-0.5,0.3-0.8,0.5S79,36,78.8,36.2
							c-0.2,0.2-0.5,0.4-0.7,0.6c-0.2,0.2-0.4,0.5-0.6,0.7s-0.4,0.5-0.6,0.7c-0.2,0.3-0.3,0.5-0.5,0.8c-0.2,0.3-0.3,0.6-0.4,0.8
							c-0.1,0.3-0.2,0.6-0.3,0.9c-0.1,0.3-0.2,0.6-0.2,0.9c-0.1,0.3-0.1,0.6-0.1,0.9s-0.1,0.6-0.1,0.9v0.7c0,0.3,0.1,0.6,0.1,0.9
							c0.1,0.3,0.1,0.6,0.2,0.9c0.1,0.3,0.2,0.6,0.3,0.8H63.2V30.5c0-1.1-0.9-1.9-1.9-1.9c-0.5,0-1,0.2-1.4,0.6
							c-1,1.1-2.4,1.7-3.9,1.7c-3,0-5.5-2.4-5.5-5.5c0-3,2.4-5.5,5.5-5.5c1.5,0,2.9,0.6,3.9,1.6c0.8,0.8,2,0.8,2.8,0
							c0.4-0.4,0.6-0.9,0.6-1.4V3.9h16.1h10.3H105.8z M28.7,69.6c-0.3,1.6,0,3.1,0.5,4.4H14.7c-1.1,0-1.9,0.9-1.9,1.9v14.7
							C8.4,88.9,3,90.6,1,95.2c-2.8,5.5,0.9,12.5,7,13.3c1.6,0.3,3.2,0,4.7-0.6v14.7c0,1.1,0.9,1.9,1.9,1.9h18.1
							c1.1,0,1.9-0.9,1.9-1.9c0-0.5-0.2-1.1-0.6-1.4c-2.5-2.3-1.8-7.3,1.3-8.7c2.9-1.7,7.2,0.3,7.8,3.5c0.4,1.9-0.2,3.9-1.5,5.2
							c-0.8,0.7-0.8,2-0.1,2.8c0.4,0.4,0.9,0.6,1.4,0.6H61h18.4c1.1,0,1.9-0.9,1.9-1.9c0-0.6-0.2-1.1-0.6-1.4
							c-2.5-2.3-1.8-7.3,1.3-8.7c2.9-1.7,7.2,0.3,7.8,3.5c0.4,1.9-0.2,3.9-1.5,5.2c-0.8,0.7-0.8,2-0.1,2.8c0.4,0.4,0.9,0.6,1.4,0.6
							h17.8c0.4,0.1,0.8,0,1.1-0.2c0.9-0.4,1.4-1.3,1.2-2.2v-17.7c0-1.1-0.9-1.9-1.9-1.9c-0.5,0-1,0.2-1.4,0.6
							c-1.2,1.2-3,1.8-4.7,1.6c-3.4-0.4-5.7-4.8-4.1-7.7c1.5-3.3,6.5-4.1,8.8-1.5c0.7,0.8,2,0.9,2.7,0.1c0.4-0.4,0.6-0.9,0.6-1.4
							V77.2l-0.5,0.4c0.7-0.8,0.7-2,0-2.8c-0.4-0.4-0.8-0.5-1.4-0.5H93.2c1.7-4.4,0-9.8-4.6-11.8c-1.4-0.7-2.9-1-4.3-1
							c-4.4,0.2-8.5,3.7-8.9,8.4c-0.3,1.6,0,3.1,0.5,4.4H61.5h-15c1.4-3.7-0.3-9.5-3.2-11.5s-5.5-1.6-5.7-1.6
							C33.2,61.4,29,64.9,28.7,69.6z M37.8,65.1c0.8-0.1,1.7,0.1,2.4,0.5l0.1,0.1c3.2,1.4,4,6.4,1.4,8.8c-0.8,0.7-0.8,2-0.1,2.7
							c0.4,0.4,0.9,0.6,1.4,0.6h16.3v12.7c-4.3-1.7-9.7,0-11.7,4.6c-2.8,5.5,0.9,12.5,7,13.3c1.6,0.3,3.2,0,4.7-0.6v12.7H46.5
							c0.7-1.7,1-3.5,0.6-5.4c-1.1-5.9-8.1-9.2-13.3-6.3c-4.4,2.1-6.1,7.4-4.4,11.7H16.6v-16.2c0-1.1-0.9-1.9-1.9-1.9
							c-0.5,0-1,0.2-1.4,0.6c-1.2,1.2-3,1.8-4.7,1.6H8.5c-3.3-0.4-5.6-4.8-4-7.7c0,0,0-0.1,0.1-0.1c1.4-3.2,6.4-4,8.7-1.4
							c0.7,0.8,2,0.9,2.7,0.1c0.4-0.4,0.6-0.9,0.6-1.4V77.9h16c1.1,0,1.9-0.9,1.9-1.9c0-0.4-0.1-0.8-0.4-1.2c-0.8-1-1.9-3.4-1.7-4.5
							V70C32.7,67.4,35.2,65.4,37.8,65.1z M84.4,65.2c0.8-0.1,1.7,0.1,2.4,0.5l0,0c0,0,0.1,0,0.1,0.1c3.2,1.4,4,6.4,1.4,8.8
							c-0.8,0.7-0.8,2-0.1,2.7c0.4,0.4,0.9,0.6,1.4,0.6h16.1v12.7c-4.3-1.7-9.7,0-11.8,4.6c-2.8,5.5,0.9,12.5,7,13.3
							c1.6,0.3,3.2,0,4.7-0.6v12.7H92.9c0.7-1.7,1-3.5,0.6-5.4c-1.1-5.9-8.1-9.2-13.3-6.3c-4.4,2.1-6.1,7.4-4.4,11.7H63.2v-16.2
							c0-1.1-0.9-1.9-2-1.9c-0.5,0-1,0.2-1.4,0.6c-1.2,1.2-3,1.8-4.7,1.6H55c-3.3-0.4-5.6-4.8-4-7.7c0,0,0-0.1,0.1-0.1
							c1.4-3.2,6.4-4,8.7-1.4c0.7,0.8,2,0.8,2.7,0.1c0.4-0.4,0.6-0.9,0.6-1.4V78h16c1.1,0,1.9-0.9,1.9-2c0-0.4-0.1-0.8-0.4-1.2
							c-0.8-1-1.9-3.4-1.7-4.5V70C79.3,67.4,81.9,65.4,84.4,65.2z"/>
					</g>
					<g>
						<path id="path-1_1_" class="st1" d="M59.4,1.9l0,14.6c-1.1-0.5-2.1-0.6-3.3-0.6c-5.1,0-9.3,4.2-9.3,9.4c0,5.1,4.2,9.4,9.3,9.4
							c1.3,0,2.2-0.2,3.3-0.7l0,14.7c0,1.1,0.9,1.9,1.9,1.9h18.1c1.1,0,1.9-0.9,1.9-1.9c0-0.6-0.2-1.1-0.6-1.4
							c-0.2-0.2-0.3-0.3-0.4-0.5c-0.1-0.1-0.2-0.3-0.3-0.4c-0.1-0.1-0.2-0.3-0.3-0.5c-0.1-0.2-0.2-0.3-0.2-0.5
							c-0.1-0.2-0.1-0.3-0.2-0.5c0-0.2-0.1-0.4-0.1-0.5c0-0.2-0.1-0.4-0.1-0.5v-0.4V43c0-0.2,0-0.4,0.1-0.5c0-0.2,0.1-0.4,0.1-0.5
							c0.1-0.2,0.1-0.3,0.2-0.5s0.2-0.3,0.2-0.5c0.1-0.2,0.2-0.3,0.3-0.5s0.2-0.3,0.3-0.4c0.1-0.1,0.2-0.3,0.4-0.4
							c0.1-0.1,0.3-0.2,0.4-0.3c0.1-0.1,0.3-0.2,0.4-0.3c0.2-0.1,0.3-0.2,0.5-0.3c0.2-0.1,0.3-0.2,0.5-0.2c0.2-0.1,0.3-0.1,0.5-0.2
							c0.2,0,0.3-0.1,0.5-0.1s0.4-0.1,0.6-0.1h0.4h0.4c0.3,0.1,0.5,0.1,0.6,0.1c0.2,0,0.4,0.1,0.5,0.1c0.2,0.1,0.4,0.1,0.5,0.2
							c0.2,0.1,0.3,0.2,0.5,0.2c0.2,0.1,0.3,0.2,0.5,0.3c0.2,0.1,0.3,0.2,0.4,0.3c0.1,0.1,0.3,0.2,0.4,0.4c0.1,0.1,0.2,0.3,0.4,0.4
							c0.1,0.1,0.2,0.3,0.3,0.4c0.1,0.1,0.2,0.3,0.3,0.5c0.1,0.2,0.2,0.3,0.2,0.5c0.1,0.2,0.1,0.3,0.2,0.5c0,0.2,0.1,0.4,0.1,0.5
							c0,0.2,0.1,0.4,0.1,0.5v0.4V44c0,0.2,0,0.4-0.1,0.5c0,0.2-0.1,0.4-0.1,0.5c-0.1,0.2-0.1,0.3-0.2,0.5s-0.2,0.3-0.2,0.5
							c-0.1,0.2-0.2,0.3-0.3,0.5s-0.2,0.3-0.3,0.4c-0.1,0.1-0.2,0.2-0.4,0.4c-0.8,0.8-0.8,2,0,2.8c0.4,0.4,0.9,0.6,1.4,0.6h18.1
							c1.1,0,1.9-0.9,1.9-1.9V30.7V20.3V2c0-1.1-0.9-1.9-1.9-1.9H89.7H79.3h-18C60.2,0,59.4,0.9,59.4,1.9z M105.8,3.9v16.2v10.4
							v16.2H93.2c0.1-0.2,0.2-0.4,0.2-0.6c0.1-0.3,0.2-0.6,0.2-0.9c0.1-0.3,0.1-0.6,0.1-0.9s0.1-0.6,0.1-0.9v-0.7
							c0-0.3-0.1-0.6-0.1-0.9c-0.1-0.3-0.1-0.6-0.2-0.9c-0.1-0.3-0.2-0.6-0.3-0.9c-0.1-0.3-0.2-0.6-0.4-0.8
							c-0.1-0.3-0.3-0.5-0.5-0.8c-0.2-0.3-0.3-0.5-0.5-0.7c-0.2-0.2-0.4-0.5-0.6-0.7c-0.2-0.2-0.5-0.4-0.7-0.6
							c-0.2-0.2-0.5-0.4-0.7-0.6c-0.3-0.2-0.5-0.3-0.8-0.5c-0.3-0.1-0.5-0.3-0.8-0.4c-0.3-0.1-0.6-0.2-0.9-0.3
							c-0.3-0.1-0.6-0.2-0.9-0.2c-0.4-0.1-0.7-0.1-0.8-0.1c-0.4-0.1-0.8-0.1-1-0.1h-0.5h-0.2c-0.3,0-0.6,0.1-0.9,0.1
							c-0.3,0.1-0.6,0.1-0.9,0.2c-0.3,0.1-0.6,0.2-0.9,0.3c-0.3,0.1-0.6,0.2-0.9,0.4c-0.3,0.1-0.5,0.3-0.8,0.5S79,36,78.8,36.2
							c-0.2,0.2-0.5,0.4-0.7,0.6c-0.2,0.2-0.4,0.5-0.6,0.7s-0.4,0.5-0.6,0.7c-0.2,0.3-0.3,0.5-0.5,0.8c-0.2,0.3-0.3,0.6-0.4,0.8
							c-0.1,0.3-0.2,0.6-0.3,0.9c-0.1,0.3-0.2,0.6-0.2,0.9c-0.1,0.3-0.1,0.6-0.1,0.9s-0.1,0.6-0.1,0.9v0.7c0,0.3,0.1,0.6,0.1,0.9
							c0.1,0.3,0.1,0.6,0.2,0.9c0.1,0.3,0.2,0.6,0.3,0.8H63.2V30.5c0-1.1-0.9-1.9-1.9-1.9c-0.5,0-1,0.2-1.4,0.6
							c-1,1.1-2.4,1.7-3.9,1.7c-3,0-5.5-2.4-5.5-5.5c0-3,2.4-5.5,5.5-5.5c1.5,0,2.9,0.6,3.9,1.6c0.8,0.8,2,0.8,2.8,0
							c0.4-0.4,0.6-0.9,0.6-1.4V3.9h16.1h10.3H105.8z M28.7,69.6c-0.3,1.6,0,3.1,0.5,4.4H14.7c-1.1,0-1.9,0.9-1.9,1.9v14.7
							C8.4,88.9,3,90.6,1,95.2c-2.8,5.5,0.9,12.5,7,13.3c1.6,0.3,3.2,0,4.7-0.6v14.7c0,1.1,0.9,1.9,1.9,1.9h18.1
							c1.1,0,1.9-0.9,1.9-1.9c0-0.5-0.2-1.1-0.6-1.4c-2.5-2.3-1.8-7.3,1.3-8.7c2.9-1.7,7.2,0.3,7.8,3.5c0.4,1.9-0.2,3.9-1.5,5.2
							c-0.8,0.7-0.8,2-0.1,2.8c0.4,0.4,0.9,0.6,1.4,0.6H61h18.4c1.1,0,1.9-0.9,1.9-1.9c0-0.6-0.2-1.1-0.6-1.4
							c-2.5-2.3-1.8-7.3,1.3-8.7c2.9-1.7,7.2,0.3,7.8,3.5c0.4,1.9-0.2,3.9-1.5,5.2c-0.8,0.7-0.8,2-0.1,2.8c0.4,0.4,0.9,0.6,1.4,0.6
							h17.8c0.4,0.1,0.8,0,1.1-0.2c0.9-0.4,1.4-1.3,1.2-2.2v-17.7c0-1.1-0.9-1.9-1.9-1.9c-0.5,0-1,0.2-1.4,0.6
							c-1.2,1.2-3,1.8-4.7,1.6c-3.4-0.4-5.7-4.8-4.1-7.7c1.5-3.3,6.5-4.1,8.8-1.5c0.7,0.8,2,0.9,2.7,0.1c0.4-0.4,0.6-0.9,0.6-1.4
							V77.2l-0.5,0.4c0.7-0.8,0.7-2,0-2.8c-0.4-0.4-0.8-0.5-1.4-0.5H93.2c1.7-4.4,0-9.8-4.6-11.8c-1.4-0.7-2.9-1-4.3-1
							c-4.4,0.2-8.5,3.7-8.9,8.4c-0.3,1.6,0,3.1,0.5,4.4H61.5h-15c1.4-3.7-0.3-9.5-3.2-11.5s-5.5-1.6-5.7-1.6
							C33.2,61.4,29,64.9,28.7,69.6z M37.8,65.1c0.8-0.1,1.7,0.1,2.4,0.5l0.1,0.1c3.2,1.4,4,6.4,1.4,8.8c-0.8,0.7-0.8,2-0.1,2.7
							c0.4,0.4,0.9,0.6,1.4,0.6h16.3v12.7c-4.3-1.7-9.7,0-11.7,4.6c-2.8,5.5,0.9,12.5,7,13.3c1.6,0.3,3.2,0,4.7-0.6v12.7H46.5
							c0.7-1.7,1-3.5,0.6-5.4c-1.1-5.9-8.1-9.2-13.3-6.3c-4.4,2.1-6.1,7.4-4.4,11.7H16.6v-16.2c0-1.1-0.9-1.9-1.9-1.9
							c-0.5,0-1,0.2-1.4,0.6c-1.2,1.2-3,1.8-4.7,1.6H8.5c-3.3-0.4-5.6-4.8-4-7.7c0,0,0-0.1,0.1-0.1c1.4-3.2,6.4-4,8.7-1.4
							c0.7,0.8,2,0.9,2.7,0.1c0.4-0.4,0.6-0.9,0.6-1.4V77.9h16c1.1,0,1.9-0.9,1.9-1.9c0-0.4-0.1-0.8-0.4-1.2c-0.8-1-1.9-3.4-1.7-4.5
							V70C32.7,67.4,35.2,65.4,37.8,65.1z M84.4,65.2c0.8-0.1,1.7,0.1,2.4,0.5l0,0c0,0,0.1,0,0.1,0.1c3.2,1.4,4,6.4,1.4,8.8
							c-0.8,0.7-0.8,2-0.1,2.7c0.4,0.4,0.9,0.6,1.4,0.6h16.1v12.7c-4.3-1.7-9.7,0-11.8,4.6c-2.8,5.5,0.9,12.5,7,13.3
							c1.6,0.3,3.2,0,4.7-0.6v12.7H92.9c0.7-1.7,1-3.5,0.6-5.4c-1.1-5.9-8.1-9.2-13.3-6.3c-4.4,2.1-6.1,7.4-4.4,11.7H63.2v-16.2
							c0-1.1-0.9-1.9-2-1.9c-0.5,0-1,0.2-1.4,0.6c-1.2,1.2-3,1.8-4.7,1.6H55c-3.3-0.4-5.6-4.8-4-7.7c0,0,0-0.1,0.1-0.1
							c1.4-3.2,6.4-4,8.7-1.4c0.7,0.8,2,0.8,2.7,0.1c0.4-0.4,0.6-0.9,0.6-1.4V78h16c1.1,0,1.9-0.9,1.9-2c0-0.4-0.1-0.8-0.4-1.2
							c-0.8-1-1.9-3.4-1.7-4.5V70C79.3,67.4,81.9,65.4,84.4,65.2z"/>
					</g>
					<g>
						<path id="path-1_2_" class="st1" d="M59.4,1.9l0,14.6c-1.1-0.5-2.1-0.6-3.3-0.6c-5.1,0-9.3,4.2-9.3,9.4c0,5.1,4.2,9.4,9.3,9.4
							c1.3,0,2.2-0.2,3.3-0.7l0,14.7c0,1.1,0.9,1.9,1.9,1.9h18.1c1.1,0,1.9-0.9,1.9-1.9c0-0.6-0.2-1.1-0.6-1.4
							c-0.2-0.2-0.3-0.3-0.4-0.5c-0.1-0.1-0.2-0.3-0.3-0.4c-0.1-0.1-0.2-0.3-0.3-0.5c-0.1-0.2-0.2-0.3-0.2-0.5
							c-0.1-0.2-0.1-0.3-0.2-0.5c0-0.2-0.1-0.4-0.1-0.5c0-0.2-0.1-0.4-0.1-0.5v-0.4V43c0-0.2,0-0.4,0.1-0.5c0-0.2,0.1-0.4,0.1-0.5
							c0.1-0.2,0.1-0.3,0.2-0.5s0.2-0.3,0.2-0.5c0.1-0.2,0.2-0.3,0.3-0.5s0.2-0.3,0.3-0.4c0.1-0.1,0.2-0.3,0.4-0.4
							c0.1-0.1,0.3-0.2,0.4-0.3c0.1-0.1,0.3-0.2,0.4-0.3c0.2-0.1,0.3-0.2,0.5-0.3c0.2-0.1,0.3-0.2,0.5-0.2c0.2-0.1,0.3-0.1,0.5-0.2
							c0.2,0,0.3-0.1,0.5-0.1s0.4-0.1,0.6-0.1h0.4h0.4c0.3,0.1,0.5,0.1,0.6,0.1c0.2,0,0.4,0.1,0.5,0.1c0.2,0.1,0.4,0.1,0.5,0.2
							c0.2,0.1,0.3,0.2,0.5,0.2c0.2,0.1,0.3,0.2,0.5,0.3c0.2,0.1,0.3,0.2,0.4,0.3c0.1,0.1,0.3,0.2,0.4,0.4c0.1,0.1,0.2,0.3,0.4,0.4
							c0.1,0.1,0.2,0.3,0.3,0.4c0.1,0.1,0.2,0.3,0.3,0.5c0.1,0.2,0.2,0.3,0.2,0.5c0.1,0.2,0.1,0.3,0.2,0.5c0,0.2,0.1,0.4,0.1,0.5
							c0,0.2,0.1,0.4,0.1,0.5v0.4V44c0,0.2,0,0.4-0.1,0.5c0,0.2-0.1,0.4-0.1,0.5c-0.1,0.2-0.1,0.3-0.2,0.5s-0.2,0.3-0.2,0.5
							c-0.1,0.2-0.2,0.3-0.3,0.5s-0.2,0.3-0.3,0.4c-0.1,0.1-0.2,0.2-0.4,0.4c-0.8,0.8-0.8,2,0,2.8c0.4,0.4,0.9,0.6,1.4,0.6h18.1
							c1.1,0,1.9-0.9,1.9-1.9V30.7V20.3V2c0-1.1-0.9-1.9-1.9-1.9H89.7H79.3h-18C60.2,0,59.4,0.9,59.4,1.9z M105.8,3.9v16.2v10.4
							v16.2H93.2c0.1-0.2,0.2-0.4,0.2-0.6c0.1-0.3,0.2-0.6,0.2-0.9c0.1-0.3,0.1-0.6,0.1-0.9s0.1-0.6,0.1-0.9v-0.7
							c0-0.3-0.1-0.6-0.1-0.9c-0.1-0.3-0.1-0.6-0.2-0.9c-0.1-0.3-0.2-0.6-0.3-0.9c-0.1-0.3-0.2-0.6-0.4-0.8
							c-0.1-0.3-0.3-0.5-0.5-0.8c-0.2-0.3-0.3-0.5-0.5-0.7c-0.2-0.2-0.4-0.5-0.6-0.7c-0.2-0.2-0.5-0.4-0.7-0.6
							c-0.2-0.2-0.5-0.4-0.7-0.6c-0.3-0.2-0.5-0.3-0.8-0.5c-0.3-0.1-0.5-0.3-0.8-0.4c-0.3-0.1-0.6-0.2-0.9-0.3
							c-0.3-0.1-0.6-0.2-0.9-0.2c-0.4-0.1-0.7-0.1-0.8-0.1c-0.4-0.1-0.8-0.1-1-0.1h-0.5h-0.2c-0.3,0-0.6,0.1-0.9,0.1
							c-0.3,0.1-0.6,0.1-0.9,0.2c-0.3,0.1-0.6,0.2-0.9,0.3c-0.3,0.1-0.6,0.2-0.9,0.4c-0.3,0.1-0.5,0.3-0.8,0.5S79,36,78.8,36.2
							c-0.2,0.2-0.5,0.4-0.7,0.6c-0.2,0.2-0.4,0.5-0.6,0.7s-0.4,0.5-0.6,0.7c-0.2,0.3-0.3,0.5-0.5,0.8c-0.2,0.3-0.3,0.6-0.4,0.8
							c-0.1,0.3-0.2,0.6-0.3,0.9c-0.1,0.3-0.2,0.6-0.2,0.9c-0.1,0.3-0.1,0.6-0.1,0.9s-0.1,0.6-0.1,0.9v0.7c0,0.3,0.1,0.6,0.1,0.9
							c0.1,0.3,0.1,0.6,0.2,0.9c0.1,0.3,0.2,0.6,0.3,0.8H63.2V30.5c0-1.1-0.9-1.9-1.9-1.9c-0.5,0-1,0.2-1.4,0.6
							c-1,1.1-2.4,1.7-3.9,1.7c-3,0-5.5-2.4-5.5-5.5c0-3,2.4-5.5,5.5-5.5c1.5,0,2.9,0.6,3.9,1.6c0.8,0.8,2,0.8,2.8,0
							c0.4-0.4,0.6-0.9,0.6-1.4V3.9h16.1h10.3H105.8z M28.7,69.6c-0.3,1.6,0,3.1,0.5,4.4H14.7c-1.1,0-1.9,0.9-1.9,1.9v14.7
							C8.4,88.9,3,90.6,1,95.2c-2.8,5.5,0.9,12.5,7,13.3c1.6,0.3,3.2,0,4.7-0.6v14.7c0,1.1,0.9,1.9,1.9,1.9h18.1
							c1.1,0,1.9-0.9,1.9-1.9c0-0.5-0.2-1.1-0.6-1.4c-2.5-2.3-1.8-7.3,1.3-8.7c2.9-1.7,7.2,0.3,7.8,3.5c0.4,1.9-0.2,3.9-1.5,5.2
							c-0.8,0.7-0.8,2-0.1,2.8c0.4,0.4,0.9,0.6,1.4,0.6H61h18.4c1.1,0,1.9-0.9,1.9-1.9c0-0.6-0.2-1.1-0.6-1.4
							c-2.5-2.3-1.8-7.3,1.3-8.7c2.9-1.7,7.2,0.3,7.8,3.5c0.4,1.9-0.2,3.9-1.5,5.2c-0.8,0.7-0.8,2-0.1,2.8c0.4,0.4,0.9,0.6,1.4,0.6
							h17.8c0.4,0.1,0.8,0,1.1-0.2c0.9-0.4,1.4-1.3,1.2-2.2v-17.7c0-1.1-0.9-1.9-1.9-1.9c-0.5,0-1,0.2-1.4,0.6
							c-1.2,1.2-3,1.8-4.7,1.6c-3.4-0.4-5.7-4.8-4.1-7.7c1.5-3.3,6.5-4.1,8.8-1.5c0.7,0.8,2,0.9,2.7,0.1c0.4-0.4,0.6-0.9,0.6-1.4
							V77.2l-0.5,0.4c0.7-0.8,0.7-2,0-2.8c-0.4-0.4-0.8-0.5-1.4-0.5H93.2c1.7-4.4,0-9.8-4.6-11.8c-1.4-0.7-2.9-1-4.3-1
							c-4.4,0.2-8.5,3.7-8.9,8.4c-0.3,1.6,0,3.1,0.5,4.4H61.5h-15c1.4-3.7-0.3-9.5-3.2-11.5s-5.5-1.6-5.7-1.6
							C33.2,61.4,29,64.9,28.7,69.6z M37.8,65.1c0.8-0.1,1.7,0.1,2.4,0.5l0.1,0.1c3.2,1.4,4,6.4,1.4,8.8c-0.8,0.7-0.8,2-0.1,2.7
							c0.4,0.4,0.9,0.6,1.4,0.6h16.3v12.7c-4.3-1.7-9.7,0-11.7,4.6c-2.8,5.5,0.9,12.5,7,13.3c1.6,0.3,3.2,0,4.7-0.6v12.7H46.5
							c0.7-1.7,1-3.5,0.6-5.4c-1.1-5.9-8.1-9.2-13.3-6.3c-4.4,2.1-6.1,7.4-4.4,11.7H16.6v-16.2c0-1.1-0.9-1.9-1.9-1.9
							c-0.5,0-1,0.2-1.4,0.6c-1.2,1.2-3,1.8-4.7,1.6H8.5c-3.3-0.4-5.6-4.8-4-7.7c0,0,0-0.1,0.1-0.1c1.4-3.2,6.4-4,8.7-1.4
							c0.7,0.8,2,0.9,2.7,0.1c0.4-0.4,0.6-0.9,0.6-1.4V77.9h16c1.1,0,1.9-0.9,1.9-1.9c0-0.4-0.1-0.8-0.4-1.2c-0.8-1-1.9-3.4-1.7-4.5
							V70C32.7,67.4,35.2,65.4,37.8,65.1z M84.4,65.2c0.8-0.1,1.7,0.1,2.4,0.5l0,0c0,0,0.1,0,0.1,0.1c3.2,1.4,4,6.4,1.4,8.8
							c-0.8,0.7-0.8,2-0.1,2.7c0.4,0.4,0.9,0.6,1.4,0.6h16.1v12.7c-4.3-1.7-9.7,0-11.8,4.6c-2.8,5.5,0.9,12.5,7,13.3
							c1.6,0.3,3.2,0,4.7-0.6v12.7H92.9c0.7-1.7,1-3.5,0.6-5.4c-1.1-5.9-8.1-9.2-13.3-6.3c-4.4,2.1-6.1,7.4-4.4,11.7H63.2v-16.2
							c0-1.1-0.9-1.9-2-1.9c-0.5,0-1,0.2-1.4,0.6c-1.2,1.2-3,1.8-4.7,1.6H55c-3.3-0.4-5.6-4.8-4-7.7c0,0,0-0.1,0.1-0.1
							c1.4-3.2,6.4-4,8.7-1.4c0.7,0.8,2,0.8,2.7,0.1c0.4-0.4,0.6-0.9,0.6-1.4V78h16c1.1,0,1.9-0.9,1.9-2c0-0.4-0.1-0.8-0.4-1.2
							c-0.8-1-1.9-3.4-1.7-4.5V70C79.3,67.4,81.9,65.4,84.4,65.2z"/>
					</g>
					<g>
						<path id="path-1_3_" class="st1" d="M59.4,1.9l0,14.6c-1.1-0.5-2.1-0.6-3.3-0.6c-5.1,0-9.3,4.2-9.3,9.4c0,5.1,4.2,9.4,9.3,9.4
							c1.3,0,2.2-0.2,3.3-0.7l0,14.7c0,1.1,0.9,1.9,1.9,1.9h18.1c1.1,0,1.9-0.9,1.9-1.9c0-0.6-0.2-1.1-0.6-1.4
							c-0.2-0.2-0.3-0.3-0.4-0.5c-0.1-0.1-0.2-0.3-0.3-0.4c-0.1-0.1-0.2-0.3-0.3-0.5c-0.1-0.2-0.2-0.3-0.2-0.5
							c-0.1-0.2-0.1-0.3-0.2-0.5c0-0.2-0.1-0.4-0.1-0.5c0-0.2-0.1-0.4-0.1-0.5v-0.4V43c0-0.2,0-0.4,0.1-0.5c0-0.2,0.1-0.4,0.1-0.5
							c0.1-0.2,0.1-0.3,0.2-0.5s0.2-0.3,0.2-0.5c0.1-0.2,0.2-0.3,0.3-0.5s0.2-0.3,0.3-0.4c0.1-0.1,0.2-0.3,0.4-0.4
							c0.1-0.1,0.3-0.2,0.4-0.3c0.1-0.1,0.3-0.2,0.4-0.3c0.2-0.1,0.3-0.2,0.5-0.3c0.2-0.1,0.3-0.2,0.5-0.2c0.2-0.1,0.3-0.1,0.5-0.2
							c0.2,0,0.3-0.1,0.5-0.1s0.4-0.1,0.6-0.1h0.4h0.4c0.3,0.1,0.5,0.1,0.6,0.1c0.2,0,0.4,0.1,0.5,0.1c0.2,0.1,0.4,0.1,0.5,0.2
							c0.2,0.1,0.3,0.2,0.5,0.2c0.2,0.1,0.3,0.2,0.5,0.3c0.2,0.1,0.3,0.2,0.4,0.3c0.1,0.1,0.3,0.2,0.4,0.4c0.1,0.1,0.2,0.3,0.4,0.4
							c0.1,0.1,0.2,0.3,0.3,0.4c0.1,0.1,0.2,0.3,0.3,0.5c0.1,0.2,0.2,0.3,0.2,0.5c0.1,0.2,0.1,0.3,0.2,0.5c0,0.2,0.1,0.4,0.1,0.5
							c0,0.2,0.1,0.4,0.1,0.5v0.4V44c0,0.2,0,0.4-0.1,0.5c0,0.2-0.1,0.4-0.1,0.5c-0.1,0.2-0.1,0.3-0.2,0.5s-0.2,0.3-0.2,0.5
							c-0.1,0.2-0.2,0.3-0.3,0.5s-0.2,0.3-0.3,0.4c-0.1,0.1-0.2,0.2-0.4,0.4c-0.8,0.8-0.8,2,0,2.8c0.4,0.4,0.9,0.6,1.4,0.6h18.1
							c1.1,0,1.9-0.9,1.9-1.9V30.7V20.3V2c0-1.1-0.9-1.9-1.9-1.9H89.7H79.3h-18C60.2,0,59.4,0.9,59.4,1.9z M105.8,3.9v16.2v10.4
							v16.2H93.2c0.1-0.2,0.2-0.4,0.2-0.6c0.1-0.3,0.2-0.6,0.2-0.9c0.1-0.3,0.1-0.6,0.1-0.9s0.1-0.6,0.1-0.9v-0.7
							c0-0.3-0.1-0.6-0.1-0.9c-0.1-0.3-0.1-0.6-0.2-0.9c-0.1-0.3-0.2-0.6-0.3-0.9c-0.1-0.3-0.2-0.6-0.4-0.8
							c-0.1-0.3-0.3-0.5-0.5-0.8c-0.2-0.3-0.3-0.5-0.5-0.7c-0.2-0.2-0.4-0.5-0.6-0.7c-0.2-0.2-0.5-0.4-0.7-0.6
							c-0.2-0.2-0.5-0.4-0.7-0.6c-0.3-0.2-0.5-0.3-0.8-0.5c-0.3-0.1-0.5-0.3-0.8-0.4c-0.3-0.1-0.6-0.2-0.9-0.3
							c-0.3-0.1-0.6-0.2-0.9-0.2c-0.4-0.1-0.7-0.1-0.8-0.1c-0.4-0.1-0.8-0.1-1-0.1h-0.5h-0.2c-0.3,0-0.6,0.1-0.9,0.1
							c-0.3,0.1-0.6,0.1-0.9,0.2c-0.3,0.1-0.6,0.2-0.9,0.3c-0.3,0.1-0.6,0.2-0.9,0.4c-0.3,0.1-0.5,0.3-0.8,0.5S79,36,78.8,36.2
							c-0.2,0.2-0.5,0.4-0.7,0.6c-0.2,0.2-0.4,0.5-0.6,0.7s-0.4,0.5-0.6,0.7c-0.2,0.3-0.3,0.5-0.5,0.8c-0.2,0.3-0.3,0.6-0.4,0.8
							c-0.1,0.3-0.2,0.6-0.3,0.9c-0.1,0.3-0.2,0.6-0.2,0.9c-0.1,0.3-0.1,0.6-0.1,0.9s-0.1,0.6-0.1,0.9v0.7c0,0.3,0.1,0.6,0.1,0.9
							c0.1,0.3,0.1,0.6,0.2,0.9c0.1,0.3,0.2,0.6,0.3,0.8H63.2V30.5c0-1.1-0.9-1.9-1.9-1.9c-0.5,0-1,0.2-1.4,0.6
							c-1,1.1-2.4,1.7-3.9,1.7c-3,0-5.5-2.4-5.5-5.5c0-3,2.4-5.5,5.5-5.5c1.5,0,2.9,0.6,3.9,1.6c0.8,0.8,2,0.8,2.8,0
							c0.4-0.4,0.6-0.9,0.6-1.4V3.9h16.1h10.3H105.8z M28.7,69.6c-0.3,1.6,0,3.1,0.5,4.4H14.7c-1.1,0-1.9,0.9-1.9,1.9v14.7
							C8.4,88.9,3,90.6,1,95.2c-2.8,5.5,0.9,12.5,7,13.3c1.6,0.3,3.2,0,4.7-0.6v14.7c0,1.1,0.9,1.9,1.9,1.9h18.1
							c1.1,0,1.9-0.9,1.9-1.9c0-0.5-0.2-1.1-0.6-1.4c-2.5-2.3-1.8-7.3,1.3-8.7c2.9-1.7,7.2,0.3,7.8,3.5c0.4,1.9-0.2,3.9-1.5,5.2
							c-0.8,0.7-0.8,2-0.1,2.8c0.4,0.4,0.9,0.6,1.4,0.6H61h18.4c1.1,0,1.9-0.9,1.9-1.9c0-0.6-0.2-1.1-0.6-1.4
							c-2.5-2.3-1.8-7.3,1.3-8.7c2.9-1.7,7.2,0.3,7.8,3.5c0.4,1.9-0.2,3.9-1.5,5.2c-0.8,0.7-0.8,2-0.1,2.8c0.4,0.4,0.9,0.6,1.4,0.6
							h17.8c0.4,0.1,0.8,0,1.1-0.2c0.9-0.4,1.4-1.3,1.2-2.2v-17.7c0-1.1-0.9-1.9-1.9-1.9c-0.5,0-1,0.2-1.4,0.6
							c-1.2,1.2-3,1.8-4.7,1.6c-3.4-0.4-5.7-4.8-4.1-7.7c1.5-3.3,6.5-4.1,8.8-1.5c0.7,0.8,2,0.9,2.7,0.1c0.4-0.4,0.6-0.9,0.6-1.4
							V77.2l-0.5,0.4c0.7-0.8,0.7-2,0-2.8c-0.4-0.4-0.8-0.5-1.4-0.5H93.2c1.7-4.4,0-9.8-4.6-11.8c-1.4-0.7-2.9-1-4.3-1
							c-4.4,0.2-8.5,3.7-8.9,8.4c-0.3,1.6,0,3.1,0.5,4.4H61.5h-15c1.4-3.7-0.3-9.5-3.2-11.5s-5.5-1.6-5.7-1.6
							C33.2,61.4,29,64.9,28.7,69.6z M37.8,65.1c0.8-0.1,1.7,0.1,2.4,0.5l0.1,0.1c3.2,1.4,4,6.4,1.4,8.8c-0.8,0.7-0.8,2-0.1,2.7
							c0.4,0.4,0.9,0.6,1.4,0.6h16.3v12.7c-4.3-1.7-9.7,0-11.7,4.6c-2.8,5.5,0.9,12.5,7,13.3c1.6,0.3,3.2,0,4.7-0.6v12.7H46.5
							c0.7-1.7,1-3.5,0.6-5.4c-1.1-5.9-8.1-9.2-13.3-6.3c-4.4,2.1-6.1,7.4-4.4,11.7H16.6v-16.2c0-1.1-0.9-1.9-1.9-1.9
							c-0.5,0-1,0.2-1.4,0.6c-1.2,1.2-3,1.8-4.7,1.6H8.5c-3.3-0.4-5.6-4.8-4-7.7c0,0,0-0.1,0.1-0.1c1.4-3.2,6.4-4,8.7-1.4
							c0.7,0.8,2,0.9,2.7,0.1c0.4-0.4,0.6-0.9,0.6-1.4V77.9h16c1.1,0,1.9-0.9,1.9-1.9c0-0.4-0.1-0.8-0.4-1.2c-0.8-1-1.9-3.4-1.7-4.5
							V70C32.7,67.4,35.2,65.4,37.8,65.1z M84.4,65.2c0.8-0.1,1.7,0.1,2.4,0.5l0,0c0,0,0.1,0,0.1,0.1c3.2,1.4,4,6.4,1.4,8.8
							c-0.8,0.7-0.8,2-0.1,2.7c0.4,0.4,0.9,0.6,1.4,0.6h16.1v12.7c-4.3-1.7-9.7,0-11.8,4.6c-2.8,5.5,0.9,12.5,7,13.3
							c1.6,0.3,3.2,0,4.7-0.6v12.7H92.9c0.7-1.7,1-3.5,0.6-5.4c-1.1-5.9-8.1-9.2-13.3-6.3c-4.4,2.1-6.1,7.4-4.4,11.7H63.2v-16.2
							c0-1.1-0.9-1.9-2-1.9c-0.5,0-1,0.2-1.4,0.6c-1.2,1.2-3,1.8-4.7,1.6H55c-3.3-0.4-5.6-4.8-4-7.7c0,0,0-0.1,0.1-0.1
							c1.4-3.2,6.4-4,8.7-1.4c0.7,0.8,2,0.8,2.7,0.1c0.4-0.4,0.6-0.9,0.6-1.4V78h16c1.1,0,1.9-0.9,1.9-2c0-0.4-0.1-0.8-0.4-1.2
							c-0.8-1-1.9-3.4-1.7-4.5V70C79.3,67.4,81.9,65.4,84.4,65.2z"/>
					</g>
					<g>
						<path id="path-1_4_" class="st1" d="M59.4,1.9l0,14.6c-1.1-0.5-2.1-0.6-3.3-0.6c-5.1,0-9.3,4.2-9.3,9.4c0,5.1,4.2,9.4,9.3,9.4
							c1.3,0,2.2-0.2,3.3-0.7l0,14.7c0,1.1,0.9,1.9,1.9,1.9h18.1c1.1,0,1.9-0.9,1.9-1.9c0-0.6-0.2-1.1-0.6-1.4
							c-0.2-0.2-0.3-0.3-0.4-0.5c-0.1-0.1-0.2-0.3-0.3-0.4c-0.1-0.1-0.2-0.3-0.3-0.5c-0.1-0.2-0.2-0.3-0.2-0.5
							c-0.1-0.2-0.1-0.3-0.2-0.5c0-0.2-0.1-0.4-0.1-0.5c0-0.2-0.1-0.4-0.1-0.5v-0.4V43c0-0.2,0-0.4,0.1-0.5c0-0.2,0.1-0.4,0.1-0.5
							c0.1-0.2,0.1-0.3,0.2-0.5s0.2-0.3,0.2-0.5c0.1-0.2,0.2-0.3,0.3-0.5s0.2-0.3,0.3-0.4c0.1-0.1,0.2-0.3,0.4-0.4
							c0.1-0.1,0.3-0.2,0.4-0.3c0.1-0.1,0.3-0.2,0.4-0.3c0.2-0.1,0.3-0.2,0.5-0.3c0.2-0.1,0.3-0.2,0.5-0.2c0.2-0.1,0.3-0.1,0.5-0.2
							c0.2,0,0.3-0.1,0.5-0.1s0.4-0.1,0.6-0.1h0.4h0.4c0.3,0.1,0.5,0.1,0.6,0.1c0.2,0,0.4,0.1,0.5,0.1c0.2,0.1,0.4,0.1,0.5,0.2
							c0.2,0.1,0.3,0.2,0.5,0.2c0.2,0.1,0.3,0.2,0.5,0.3c0.2,0.1,0.3,0.2,0.4,0.3c0.1,0.1,0.3,0.2,0.4,0.4c0.1,0.1,0.2,0.3,0.4,0.4
							c0.1,0.1,0.2,0.3,0.3,0.4c0.1,0.1,0.2,0.3,0.3,0.5c0.1,0.2,0.2,0.3,0.2,0.5c0.1,0.2,0.1,0.3,0.2,0.5c0,0.2,0.1,0.4,0.1,0.5
							c0,0.2,0.1,0.4,0.1,0.5v0.4V44c0,0.2,0,0.4-0.1,0.5c0,0.2-0.1,0.4-0.1,0.5c-0.1,0.2-0.1,0.3-0.2,0.5s-0.2,0.3-0.2,0.5
							c-0.1,0.2-0.2,0.3-0.3,0.5s-0.2,0.3-0.3,0.4c-0.1,0.1-0.2,0.2-0.4,0.4c-0.8,0.8-0.8,2,0,2.8c0.4,0.4,0.9,0.6,1.4,0.6h18.1
							c1.1,0,1.9-0.9,1.9-1.9V30.7V20.3V2c0-1.1-0.9-1.9-1.9-1.9H89.7H79.3h-18C60.2,0,59.4,0.9,59.4,1.9z M105.8,3.9v16.2v10.4
							v16.2H93.2c0.1-0.2,0.2-0.4,0.2-0.6c0.1-0.3,0.2-0.6,0.2-0.9c0.1-0.3,0.1-0.6,0.1-0.9s0.1-0.6,0.1-0.9v-0.7
							c0-0.3-0.1-0.6-0.1-0.9c-0.1-0.3-0.1-0.6-0.2-0.9c-0.1-0.3-0.2-0.6-0.3-0.9c-0.1-0.3-0.2-0.6-0.4-0.8
							c-0.1-0.3-0.3-0.5-0.5-0.8c-0.2-0.3-0.3-0.5-0.5-0.7c-0.2-0.2-0.4-0.5-0.6-0.7c-0.2-0.2-0.5-0.4-0.7-0.6
							c-0.2-0.2-0.5-0.4-0.7-0.6c-0.3-0.2-0.5-0.3-0.8-0.5c-0.3-0.1-0.5-0.3-0.8-0.4c-0.3-0.1-0.6-0.2-0.9-0.3
							c-0.3-0.1-0.6-0.2-0.9-0.2c-0.4-0.1-0.7-0.1-0.8-0.1c-0.4-0.1-0.8-0.1-1-0.1h-0.5h-0.2c-0.3,0-0.6,0.1-0.9,0.1
							c-0.3,0.1-0.6,0.1-0.9,0.2c-0.3,0.1-0.6,0.2-0.9,0.3c-0.3,0.1-0.6,0.2-0.9,0.4c-0.3,0.1-0.5,0.3-0.8,0.5S79,36,78.8,36.2
							c-0.2,0.2-0.5,0.4-0.7,0.6c-0.2,0.2-0.4,0.5-0.6,0.7s-0.4,0.5-0.6,0.7c-0.2,0.3-0.3,0.5-0.5,0.8c-0.2,0.3-0.3,0.6-0.4,0.8
							c-0.1,0.3-0.2,0.6-0.3,0.9c-0.1,0.3-0.2,0.6-0.2,0.9c-0.1,0.3-0.1,0.6-0.1,0.9s-0.1,0.6-0.1,0.9v0.7c0,0.3,0.1,0.6,0.1,0.9
							c0.1,0.3,0.1,0.6,0.2,0.9c0.1,0.3,0.2,0.6,0.3,0.8H63.2V30.5c0-1.1-0.9-1.9-1.9-1.9c-0.5,0-1,0.2-1.4,0.6
							c-1,1.1-2.4,1.7-3.9,1.7c-3,0-5.5-2.4-5.5-5.5c0-3,2.4-5.5,5.5-5.5c1.5,0,2.9,0.6,3.9,1.6c0.8,0.8,2,0.8,2.8,0
							c0.4-0.4,0.6-0.9,0.6-1.4V3.9h16.1h10.3H105.8z M28.7,69.6c-0.3,1.6,0,3.1,0.5,4.4H14.7c-1.1,0-1.9,0.9-1.9,1.9v14.7
							C8.4,88.9,3,90.6,1,95.2c-2.8,5.5,0.9,12.5,7,13.3c1.6,0.3,3.2,0,4.7-0.6v14.7c0,1.1,0.9,1.9,1.9,1.9h18.1
							c1.1,0,1.9-0.9,1.9-1.9c0-0.5-0.2-1.1-0.6-1.4c-2.5-2.3-1.8-7.3,1.3-8.7c2.9-1.7,7.2,0.3,7.8,3.5c0.4,1.9-0.2,3.9-1.5,5.2
							c-0.8,0.7-0.8,2-0.1,2.8c0.4,0.4,0.9,0.6,1.4,0.6H61h18.4c1.1,0,1.9-0.9,1.9-1.9c0-0.6-0.2-1.1-0.6-1.4
							c-2.5-2.3-1.8-7.3,1.3-8.7c2.9-1.7,7.2,0.3,7.8,3.5c0.4,1.9-0.2,3.9-1.5,5.2c-0.8,0.7-0.8,2-0.1,2.8c0.4,0.4,0.9,0.6,1.4,0.6
							h17.8c0.4,0.1,0.8,0,1.1-0.2c0.9-0.4,1.4-1.3,1.2-2.2v-17.7c0-1.1-0.9-1.9-1.9-1.9c-0.5,0-1,0.2-1.4,0.6
							c-1.2,1.2-3,1.8-4.7,1.6c-3.4-0.4-5.7-4.8-4.1-7.7c1.5-3.3,6.5-4.1,8.8-1.5c0.7,0.8,2,0.9,2.7,0.1c0.4-0.4,0.6-0.9,0.6-1.4
							V77.2l-0.5,0.4c0.7-0.8,0.7-2,0-2.8c-0.4-0.4-0.8-0.5-1.4-0.5H93.2c1.7-4.4,0-9.8-4.6-11.8c-1.4-0.7-2.9-1-4.3-1
							c-4.4,0.2-8.5,3.7-8.9,8.4c-0.3,1.6,0,3.1,0.5,4.4H61.5h-15c1.4-3.7-0.3-9.5-3.2-11.5s-5.5-1.6-5.7-1.6
							C33.2,61.4,29,64.9,28.7,69.6z M37.8,65.1c0.8-0.1,1.7,0.1,2.4,0.5l0.1,0.1c3.2,1.4,4,6.4,1.4,8.8c-0.8,0.7-0.8,2-0.1,2.7
							c0.4,0.4,0.9,0.6,1.4,0.6h16.3v12.7c-4.3-1.7-9.7,0-11.7,4.6c-2.8,5.5,0.9,12.5,7,13.3c1.6,0.3,3.2,0,4.7-0.6v12.7H46.5
							c0.7-1.7,1-3.5,0.6-5.4c-1.1-5.9-8.1-9.2-13.3-6.3c-4.4,2.1-6.1,7.4-4.4,11.7H16.6v-16.2c0-1.1-0.9-1.9-1.9-1.9
							c-0.5,0-1,0.2-1.4,0.6c-1.2,1.2-3,1.8-4.7,1.6H8.5c-3.3-0.4-5.6-4.8-4-7.7c0,0,0-0.1,0.1-0.1c1.4-3.2,6.4-4,8.7-1.4
							c0.7,0.8,2,0.9,2.7,0.1c0.4-0.4,0.6-0.9,0.6-1.4V77.9h16c1.1,0,1.9-0.9,1.9-1.9c0-0.4-0.1-0.8-0.4-1.2c-0.8-1-1.9-3.4-1.7-4.5
							V70C32.7,67.4,35.2,65.4,37.8,65.1z M84.4,65.2c0.8-0.1,1.7,0.1,2.4,0.5l0,0c0,0,0.1,0,0.1,0.1c3.2,1.4,4,6.4,1.4,8.8
							c-0.8,0.7-0.8,2-0.1,2.7c0.4,0.4,0.9,0.6,1.4,0.6h16.1v12.7c-4.3-1.7-9.7,0-11.8,4.6c-2.8,5.5,0.9,12.5,7,13.3
							c1.6,0.3,3.2,0,4.7-0.6v12.7H92.9c0.7-1.7,1-3.5,0.6-5.4c-1.1-5.9-8.1-9.2-13.3-6.3c-4.4,2.1-6.1,7.4-4.4,11.7H63.2v-16.2
							c0-1.1-0.9-1.9-2-1.9c-0.5,0-1,0.2-1.4,0.6c-1.2,1.2-3,1.8-4.7,1.6H55c-3.3-0.4-5.6-4.8-4-7.7c0,0,0-0.1,0.1-0.1
							c1.4-3.2,6.4-4,8.7-1.4c0.7,0.8,2,0.8,2.7,0.1c0.4-0.4,0.6-0.9,0.6-1.4V78h16c1.1,0,1.9-0.9,1.9-2c0-0.4-0.1-0.8-0.4-1.2
							c-0.8-1-1.9-3.4-1.7-4.5V70C79.3,67.4,81.9,65.4,84.4,65.2z"/>
					</g>
				</g>
			</g>
			<path id="Shape_1_" class="st2" d="M84.9,14.3c0,0.5-0.4,0.9-0.8,0.9l0,0c-0.7,0-1.3,0.6-1.3,1.3c0,0.5-0.4,0.9-0.9,0.9
				S81,17,81,16.5c0-1.7,1.4-3,3-3l0,0C84.5,13.4,84.9,13.8,84.9,14.3L84.9,14.3z M90.3,16.5c0,2-1,3.9-2.6,5.1
				c-0.1,0.1-0.2,0.2-0.2,0.4v2.3c0,0.8-0.6,1.6-1.4,1.7v0.7c0,0.4-0.3,0.8-0.8,0.8H83c-0.4,0-0.8-0.4-0.8-0.8V26
				c-0.8-0.1-1.4-0.8-1.4-1.7V22c0-0.1-0.1-0.3-0.2-0.4c-2.8-2-3.5-5.8-1.5-8.6c1.1-1.5,2.8-2.5,4.6-2.6c1.7-0.1,3.4,0.5,4.7,1.7
				C89.6,13.1,90.3,14.7,90.3,16.5z M88.6,16.5c0-2.5-2-4.5-4.5-4.5l0,0h-0.3c-2.2,0.2-3.9,1.9-4.2,4c-0.2,1.6,0.5,3.2,1.9,4.1
				c0.6,0.4,0.9,1,0.9,1.7v0.6h3.4v-0.6c0-0.7,0.3-1.3,0.9-1.7C87.9,19.3,88.6,17.9,88.6,16.5L88.6,16.5z M94.2,15.6h-1.6
				c-0.5,0-0.9,0.4-0.9,0.9c0,0.5,0.4,0.9,0.9,0.9h1.6c0.5,0,0.9-0.4,0.9-0.9C95.1,16,94.7,15.6,94.2,15.6z M91.9,19.9
				c-0.3-0.3-0.9-0.3-1.2,0c-0.3,0.3-0.3,0.9,0,1.2l1.2,1.2c0.3,0.3,0.9,0.3,1.2,0c0.3-0.3,0.3-0.9,0-1.2l0,0L91.9,19.9z M91.3,13.3
				c0.2,0,0.4-0.1,0.6-0.2l1.2-1.2c0.3-0.3,0.3-0.9,0-1.2c-0.3-0.3-0.9-0.3-1.2,0l-1.2,1.2c-0.3,0.3-0.3,0.9,0,1.2
				C90.9,13.2,91.1,13.3,91.3,13.3z M76.2,16.5c0-0.5-0.4-0.8-0.8-0.8h-1.6c-0.5,0-0.9,0.4-0.9,0.9s0.4,0.9,0.9,0.9h1.6
				C75.8,17.3,76.2,16.9,76.2,16.5L76.2,16.5z M76.6,13.3c0.5,0,0.9-0.4,0.9-0.8c0-0.2-0.1-0.4-0.2-0.6L76,10.6
				c-0.3-0.3-0.9-0.3-1.2,0c-0.3,0.3-0.3,0.9,0,1.2L76,13C76.1,13.2,76.3,13.3,76.6,13.3z M76,19.9l-1.2,1.2c-0.3,0.3-0.3,0.9,0,1.2
				c0.3,0.3,0.9,0.3,1.2,0l1.2-1.2c0.3-0.3,0.3-0.9,0-1.2C76.8,19.6,76.3,19.6,76,19.9z"/>
			<path id="Shape_2_" class="st2" d="M33.1,88.6c0,0.5-0.4,0.9-0.8,0.9l0,0c-0.7,0-1.3,0.6-1.3,1.3c0,0.5-0.4,0.9-0.9,0.9
				s-0.9-0.4-0.9-0.9c0-1.7,1.4-3,3-3l0,0C32.7,87.7,33.1,88.1,33.1,88.6L33.1,88.6z M38.4,90.8c0,2-1,3.9-2.6,5.1
				c-0.1,0.1-0.2,0.2-0.2,0.4v2.3c0,0.8-0.6,1.6-1.4,1.7v0.7c0,0.4-0.3,0.8-0.8,0.8h-2.3c-0.4,0-0.8-0.4-0.8-0.8v-0.7
				c-0.8-0.1-1.4-0.8-1.4-1.7v-2.3c0-0.1-0.1-0.3-0.2-0.4c-2.8-2-3.5-5.8-1.5-8.6c1.1-1.5,2.8-2.5,4.6-2.6c1.7-0.1,3.4,0.5,4.7,1.7
				C37.7,87.4,38.4,89.1,38.4,90.8z M36.7,90.8c0-2.5-2-4.5-4.5-4.5l0,0h-0.3c-2.2,0.2-3.9,1.9-4.2,4c-0.2,1.6,0.5,3.2,1.9,4.1
				c0.6,0.4,0.9,1,0.9,1.7v0.6h3.4v-0.6c0-0.7,0.3-1.3,0.9-1.7C36,93.6,36.7,92.2,36.7,90.8L36.7,90.8z M42.4,89.9h-1.6
				c-0.5,0-0.9,0.4-0.9,0.9s0.4,0.9,0.9,0.9h1.6c0.5,0,0.9-0.4,0.9-0.9S42.9,89.9,42.4,89.9z M40.1,94.2c-0.3-0.3-0.9-0.3-1.2,0
				c-0.3,0.3-0.3,0.9,0,1.2l1.2,1.2c0.3,0.3,0.9,0.3,1.2,0c0.3-0.3,0.3-0.9,0-1.2l0,0L40.1,94.2z M39.5,87.6c0.2,0,0.4-0.1,0.6-0.2
				l1.2-1.2c0.3-0.3,0.3-0.9,0-1.2s-0.9-0.3-1.2,0l-1.2,1.2c-0.3,0.3-0.3,0.9,0,1.2C39.1,87.5,39.3,87.6,39.5,87.6z M24.3,90.8
				c0-0.5-0.4-0.8-0.8-0.8h-1.6c-0.5,0-0.9,0.4-0.9,0.9s0.4,0.9,0.9,0.9h1.6C24,91.6,24.3,91.3,24.3,90.8L24.3,90.8z M24.7,87.6
				c0.5,0,0.9-0.4,0.9-0.8c0-0.2-0.1-0.4-0.2-0.6L24.2,85c-0.3-0.3-0.9-0.3-1.2,0s-0.3,0.9,0,1.2l1.2,1.2
				C24.3,87.5,24.5,87.6,24.7,87.6z M24.1,94.2l-1.2,1.2c-0.3,0.3-0.3,0.9,0,1.2c0.3,0.3,0.9,0.3,1.2,0l1.2-1.2
				c0.3-0.3,0.3-0.9,0-1.2C25,93.9,24.5,93.9,24.1,94.2z"/>
			<path id="Shape_3_" class="st2" d="M79.7,87.9c0,0.5-0.4,0.9-0.8,0.9l0,0c-0.7,0-1.3,0.6-1.3,1.3c0,0.5-0.4,0.9-0.9,0.9
				s-0.9-0.4-0.9-0.9c0-1.7,1.4-3,3-3l0,0C79.3,87.1,79.7,87.5,79.7,87.9L79.7,87.9z M85,90.1c0,2-1,3.9-2.6,5.1
				c-0.1,0.1-0.2,0.2-0.2,0.4v2.3c0,0.8-0.6,1.6-1.4,1.7v0.7c0,0.4-0.3,0.8-0.8,0.8h-2.3c-0.4,0-0.8-0.4-0.8-0.8v-0.7
				c-0.8-0.1-1.4-0.8-1.4-1.7v-2.3c0-0.1-0.1-0.3-0.2-0.4c-2.8-2-3.5-5.8-1.5-8.6c1.1-1.5,2.8-2.5,4.6-2.6c1.7-0.1,3.4,0.5,4.7,1.7
				C84.3,86.8,85,88.4,85,90.1z M83.3,90.1c0-2.5-2-4.5-4.5-4.5l0,0h-0.3c-2.2,0.2-3.9,1.9-4.2,4c-0.2,1.6,0.5,3.2,1.9,4.1
				c0.6,0.4,0.9,1,0.9,1.7V96h3.4v-0.6c0-0.7,0.3-1.3,0.9-1.7C82.6,92.9,83.3,91.6,83.3,90.1L83.3,90.1z M89,89.3h-1.6
				c-0.5,0-0.9,0.4-0.9,0.9s0.4,0.9,0.9,0.9H89c0.5,0,0.9-0.4,0.9-0.9C89.8,89.6,89.4,89.3,89,89.3z M86.7,93.6
				c-0.3-0.3-0.9-0.3-1.2,0c-0.3,0.3-0.3,0.9,0,1.2l1.2,1.2c0.3,0.3,0.9,0.3,1.2,0c0.3-0.3,0.3-0.9,0-1.2l0,0L86.7,93.6z M86.1,86.9
				c0.2,0,0.4-0.1,0.6-0.2l1.2-1.2c0.3-0.3,0.3-0.9,0-1.2c-0.3-0.3-0.9-0.3-1.2,0l-1.2,1.2c-0.3,0.3-0.3,0.9,0,1.2
				C85.6,86.8,85.8,86.9,86.1,86.9z M70.9,90.1c0-0.5-0.4-0.8-0.8-0.8h-1.6c-0.5,0-0.9,0.4-0.9,0.9s0.4,0.9,0.9,0.9h1.6
				C70.5,91,70.9,90.6,70.9,90.1L70.9,90.1z M71.3,86.9c0.5,0,0.9-0.4,0.9-0.8c0-0.2-0.1-0.4-0.2-0.6l-1.2-1.2
				c-0.3-0.3-0.9-0.3-1.2,0c-0.3,0.3-0.3,0.9,0,1.2l1.2,1.2C70.9,86.8,71.1,86.9,71.3,86.9z M70.7,93.6l-1.2,1.2
				c-0.3,0.3-0.3,0.9,0,1.2s0.9,0.3,1.2,0l1.2-1.2c0.3-0.3,0.3-0.9,0-1.2C71.6,93.2,71,93.2,70.7,93.6z"/>
		</g>
	</g>
</g>
</svg>
