<?xml version="1.0" encoding="utf-8"?>
<!-- Generator: Adobe Illustrator 21.0.0, SVG Export Plug-In . SVG Version: 6.00 Build 0)  -->
<svg version="1.1"
	 id="Calque_1" xmlns:cc="http://creativecommons.org/ns#" xmlns:dc="http://purl.org/dc/elements/1.1/" xmlns:inkscape="http://www.inkscape.org/namespaces/inkscape" xmlns:rdf="http://www.w3.org/1999/02/22-rdf-syntax-ns#" xmlns:sodipodi="http://sodipodi.sourceforge.net/DTD/sodipodi-0.dtd" xmlns:svg="http://www.w3.org/2000/svg"
	 xmlns="http://www.w3.org/2000/svg" xmlns:xlink="http://www.w3.org/1999/xlink" x="0px" y="0px" viewBox="0 0 141.7 141.7"
	 style="enable-background:new 0 0 141.7 141.7;" xml:space="preserve">
<style type="text/css">
	.st0{fill:#217ABF;}
</style>
<g transform="translate(0,-1020.3622)">
	<path class="st0" d="M74.3,1029c-1.1,0-1.9,0.9-1.9,1.9v15.4c-1.1-0.5-2.1-1.4-3.3-1.4c-5.1,0-9.3,4.2-9.3,9.4
		c0,5.1,4.2,9.4,9.3,9.4c1.3,0,2.2-0.9,3.3-1.4v15.4c0,1.1,0.9,1.9,1.9,1.9h18.1c1.1,0,1.9-0.9,1.9-1.9c0-0.6-0.2-1.1-0.6-1.4
		c0,0,0,0-0.1-0.1c-0.1-0.1-0.2-0.2-0.3-0.4h0c-0.1-0.1-0.2-0.3-0.3-0.4c0,0,0,0,0,0c-0.1-0.1-0.2-0.3-0.3-0.5
		c-0.1-0.2-0.2-0.3-0.2-0.5c0,0,0,0,0,0c-0.1-0.2-0.1-0.3-0.2-0.5c0-0.2-0.1-0.4-0.1-0.5c0-0.2-0.1-0.4-0.1-0.5c0-0.1,0-0.3,0-0.4
		c0-0.2,0-0.4,0-0.5c0-0.2,0-0.4,0.1-0.5c0-0.2,0.1-0.4,0.1-0.5c0.1-0.2,0.1-0.3,0.2-0.5c0.1-0.2,0.2-0.3,0.2-0.5
		c0.1-0.2,0.2-0.3,0.3-0.5c0.1-0.2,0.2-0.3,0.3-0.4c0.1-0.1,0.2-0.3,0.4-0.4c0.1-0.1,0.3-0.2,0.4-0.3h0c0.1-0.1,0.3-0.2,0.4-0.3h0
		c0.2-0.1,0.3-0.2,0.5-0.3h0c0.2-0.1,0.3-0.2,0.5-0.2c0,0,0,0,0,0c0.2-0.1,0.3-0.1,0.5-0.2c0.2,0,0.3-0.1,0.5-0.1c0,0,0,0,0,0
		c0.2,0,0.4-0.1,0.6-0.1c0.2,0,0.4,0,0.4,0c0.3,0,0.4,0,0.4,0c0.3,0.1,0.5,0.1,0.6,0.1c0.2,0,0.4,0.1,0.5,0.1
		c0.2,0.1,0.4,0.1,0.5,0.2c0.2,0.1,0.3,0.2,0.5,0.2c0.2,0.1,0.3,0.2,0.5,0.3c0.2,0.1,0.3,0.2,0.4,0.3c0,0,0,0,0,0
		c0.1,0.1,0.3,0.2,0.4,0.4c0.1,0.1,0.2,0.3,0.4,0.4c0.1,0.1,0.2,0.3,0.3,0.4c0,0,0,0,0,0c0.1,0.1,0.2,0.3,0.3,0.5
		c0.1,0.2,0.2,0.3,0.2,0.5c0,0,0,0,0,0c0.1,0.2,0.1,0.3,0.2,0.5c0,0.2,0.1,0.4,0.1,0.5c0,0.2,0.1,0.4,0.1,0.5c0,0.1,0,0.3,0,0.4
		c0,0.2,0,0.4,0,0.5c0,0.2,0,0.4-0.1,0.5c0,0.2-0.1,0.4-0.1,0.5c-0.1,0.2-0.1,0.3-0.2,0.5c-0.1,0.2-0.2,0.3-0.2,0.5
		c-0.1,0.2-0.2,0.3-0.3,0.5c-0.1,0.2-0.2,0.3-0.3,0.4c-0.1,0.1-0.2,0.2-0.4,0.4c-0.8,0.8-0.8,2,0,2.8c0.4,0.4,0.9,0.6,1.4,0.6h18.1
		c1.1,0,1.9-0.9,1.9-1.9v-18.1v-10.4V1031c0-1.1-0.9-1.9-1.9-1.9h-18.1c0,0,0,0,0,0v0H92.3H74.3z M102.7,1032.9h16.1v16.2v10.4v16.2
		h-12.6c0.1-0.2,0.2-0.4,0.2-0.6c0.1-0.3,0.2-0.6,0.2-0.9c0.1-0.3,0.1-0.6,0.1-0.9c0-0.3,0.1-0.6,0.1-0.9c0-0.2,0-0.4,0-0.7
		c0-0.3-0.1-0.6-0.1-0.9c-0.1-0.3-0.1-0.6-0.2-0.9c-0.1-0.3-0.2-0.6-0.3-0.9c-0.1-0.3-0.2-0.6-0.4-0.8c-0.1-0.3-0.3-0.5-0.5-0.8h0
		c-0.2-0.3-0.3-0.5-0.5-0.7c0,0,0,0,0,0c-0.2-0.2-0.4-0.5-0.6-0.7c0,0,0,0,0,0c-0.2-0.2-0.5-0.4-0.7-0.6h0c-0.2-0.2-0.5-0.4-0.7-0.6
		c0,0,0,0,0,0c-0.3-0.2-0.5-0.3-0.8-0.5c0,0,0,0,0,0c-0.3-0.1-0.5-0.3-0.8-0.4c-0.3-0.1-0.6-0.2-0.9-0.3c-0.3-0.1-0.6-0.2-0.9-0.2
		c-0.4-0.1-0.7-0.1-0.8-0.1c-0.4-0.1-0.8-0.1-1-0.1c0,0,0,0,0,0c-0.5,0-0.6,0-0.5,0c-0.1,0-0.1,0-0.2,0c-0.3,0-0.6,0.1-0.9,0.1
		c-0.3,0.1-0.6,0.1-0.9,0.2c0,0,0,0,0,0c-0.3,0.1-0.6,0.2-0.9,0.3c-0.3,0.1-0.6,0.2-0.9,0.4c0,0,0,0,0,0c-0.3,0.1-0.5,0.3-0.8,0.5
		c0,0,0,0,0,0c-0.3,0.2-0.5,0.3-0.7,0.5c0,0,0,0,0,0c-0.2,0.2-0.5,0.4-0.7,0.6c-0.2,0.2-0.4,0.5-0.6,0.7c-0.2,0.2-0.4,0.5-0.6,0.7
		c-0.2,0.3-0.3,0.5-0.5,0.8c-0.2,0.3-0.3,0.6-0.4,0.8c0,0,0,0,0,0c-0.1,0.3-0.2,0.6-0.3,0.9c-0.1,0.3-0.2,0.6-0.2,0.9
		c-0.1,0.3-0.1,0.6-0.1,0.9c0,0.3-0.1,0.6-0.1,0.9c0,0.2,0,0.4,0,0.7c0,0.3,0.1,0.6,0.1,0.9c0.1,0.3,0.1,0.6,0.2,0.9
		c0.1,0.3,0.2,0.6,0.3,0.8H76.2v-16.2c0-1.1-0.9-1.9-1.9-1.9c-0.5,0-1,0.2-1.4,0.6c-1,1.1-2.4,1.7-3.9,1.7c-3,0-5.5-2.4-5.5-5.5
		c0-3,2.4-5.5,5.5-5.5c0,0,0,0,0,0c1.5,0,2.9,0.6,3.9,1.6c0.8,0.8,2,0.8,2.8,0c0.4-0.4,0.6-0.9,0.6-1.4v-16.2h16.1L102.7,1032.9
		L102.7,1032.9z M50.6,1090.2c-4.4,0.2-8.6,3.7-8.9,8.4c-0.3,1.6,0,3.1,0.5,4.4H27.7c-1.1,0-1.9,0.9-1.9,1.9v14.7
		c-4.4-1.7-9.8,0-11.8,4.6c-2.8,5.5,0.9,12.5,7,13.3c1.6,0.3,3.2,0,4.7-0.6v14.7c0,1.1,0.9,1.9,1.9,1.9h18.1c1.1,0,1.9-0.9,1.9-1.9
		c0-0.5-0.2-1.1-0.6-1.4c-2.5-2.3-1.8-7.3,1.3-8.7c0,0,0.1,0,0.1-0.1c2.8-1.6,7.1,0.4,7.7,3.6c0,0,0,0.1,0,0.1
		c0.4,1.8-0.2,3.8-1.5,5.1c-0.8,0.7-0.8,2-0.1,2.8c0.4,0.4,0.9,0.6,1.4,0.6H74c0.1,0,0.2,0,0.3,0h18.1c1.1,0,1.9-0.9,1.9-1.9
		c0-0.6-0.2-1.1-0.6-1.4c-2.5-2.3-1.8-7.3,1.3-8.7c0,0,0.1,0,0.1-0.1c2.8-1.6,7.1,0.4,7.7,3.6c0,0,0,0.1,0,0.1
		c0.4,1.8-0.2,3.8-1.5,5.1c-0.8,0.7-0.8,2-0.1,2.8c0.4,0.4,0.9,0.6,1.4,0.6h17.8c0.4,0.1,0.8,0,1.1-0.2l0.1,0
		c0.8-0.4,1.3-1.3,1.1-2.2v-17.7c0-1.1-0.9-1.9-1.9-1.9c-0.5,0-1,0.2-1.4,0.6c-1.2,1.2-3,1.8-4.7,1.6c0,0-0.1,0-0.1,0
		c-3.3-0.4-5.6-4.8-4-7.7c0,0,0-0.1,0.1-0.1c1.4-3.2,6.4-4,8.7-1.4c0.7,0.8,2,0.9,2.7,0.1c0.4-0.4,0.6-0.9,0.6-1.4v-17.2l-0.5,0.4
		c0.7-0.8,0.7-2,0-2.8c-0.4-0.4-0.8-0.5-1.4-0.5h-14.6c1.7-4.4,0-9.8-4.6-11.8c-1.4-0.7-2.9-1-4.3-1c-4.4,0.2-8.5,3.7-8.9,8.4
		c-0.3,1.6,0,3.1,0.5,4.4H74.5c-0.1,0-0.2,0-0.3,0H59.5c1.7-4.4,0-9.8-4.6-11.8C53.5,1090.4,52.1,1090.1,50.6,1090.2L50.6,1090.2z
		 M50.8,1094.1c0.8-0.1,1.7,0.1,2.4,0.5c0,0,0.1,0.1,0.1,0.1c3.2,1.4,4,6.4,1.4,8.8c-0.8,0.7-0.8,2-0.1,2.7c0.4,0.4,0.9,0.6,1.4,0.6
		h16.3v12.7c-4.3-1.7-9.7,0-11.7,4.6c-2.8,5.5,0.9,12.5,7,13.3c1.6,0.3,3.2,0,4.7-0.6v12.7H59.5c0.7-1.7,1-3.5,0.6-5.4
		c-1.1-5.9-8.1-9.2-13.3-6.3c-4.4,2.1-6.1,7.4-4.4,11.7H29.6v-16.2c0-1.1-0.9-1.9-1.9-1.9c-0.5,0-1,0.2-1.4,0.6
		c-1.2,1.2-3,1.8-4.7,1.6c0,0-0.1,0-0.1,0c-3.3-0.4-5.6-4.8-4-7.7c0,0,0-0.1,0.1-0.1c1.4-3.2,6.4-4,8.7-1.4c0.7,0.8,2,0.9,2.7,0.1
		c0.4-0.4,0.6-0.9,0.6-1.4v-16.2h16c1.1,0,1.9-0.9,1.9-1.9c0-0.4-0.1-0.8-0.4-1.2c-0.8-1-1.9-3.4-1.7-4.5c0-0.1,0-0.2,0-0.3
		C45.7,1096.4,48.2,1094.4,50.8,1094.1z M97.4,1094.2c0.8-0.1,1.7,0.1,2.4,0.5v0c0,0,0.1,0,0.1,0.1c3.2,1.4,4,6.4,1.4,8.8
		c-0.8,0.7-0.8,2-0.1,2.7c0.4,0.4,0.9,0.6,1.4,0.6h16.1v12.7c-4.3-1.7-9.7,0-11.8,4.6c-2.8,5.5,0.9,12.5,7,13.3
		c1.6,0.3,3.2,0,4.7-0.6v12.7h-12.7c0.7-1.7,1-3.5,0.6-5.4c-1.1-5.9-8.1-9.2-13.3-6.3c-4.4,2.1-6.1,7.4-4.4,11.7H76.2v-16.2
		c0-1.1-0.9-1.9-2-1.9c-0.5,0-1,0.2-1.4,0.6c-1.2,1.2-3,1.8-4.7,1.6c0,0-0.1,0-0.1,0c-3.3-0.4-5.6-4.8-4-7.7c0,0,0-0.1,0.1-0.1
		c1.4-3.2,6.4-4,8.7-1.4c0.7,0.8,2,0.8,2.7,0.1c0.4-0.4,0.6-0.9,0.6-1.4v-16.2h16c1.1,0,1.9-0.9,1.9-2c0-0.4-0.1-0.8-0.4-1.2
		c-0.8-1-1.9-3.4-1.7-4.5c0-0.1,0-0.2,0-0.3C92.3,1096.4,94.9,1094.4,97.4,1094.2z"/>
</g>
<path class="st0" d="M97.9,22.3c0,0.5-0.4,0.9-0.8,0.9c0,0,0,0,0,0c-0.7,0-1.3,0.6-1.3,1.3c0,0.5-0.4,0.9-0.9,0.9
	c-0.5,0-0.9-0.4-0.9-0.9c0-1.7,1.4-3,3-3c0,0,0,0,0,0C97.5,21.4,97.9,21.8,97.9,22.3C97.9,22.3,97.9,22.3,97.9,22.3z M103.3,24.5
	c0,2-1,3.9-2.6,5.1c-0.1,0.1-0.2,0.2-0.2,0.4v2.3c0,0.8-0.6,1.6-1.4,1.7v0.7c0,0.4-0.3,0.8-0.8,0.8h-2.3c-0.4,0-0.8-0.4-0.8-0.8
	v-0.7c-0.8-0.1-1.4-0.8-1.4-1.7v-2.3c0-0.1-0.1-0.3-0.2-0.4c-2.8-2-3.5-5.8-1.5-8.6c1.1-1.5,2.8-2.5,4.6-2.6
	c1.7-0.1,3.4,0.5,4.7,1.7C102.6,21.1,103.3,22.7,103.3,24.5z M101.6,24.5c0-2.5-2-4.5-4.5-4.5c0,0,0,0,0,0c-0.1,0-0.2,0-0.3,0
	c-2.2,0.2-3.9,1.9-4.2,4c-0.2,1.6,0.5,3.2,1.9,4.1c0.6,0.4,0.9,1,0.9,1.7v0.6h3.4v-0.6c0-0.7,0.3-1.3,0.9-1.7
	C100.9,27.3,101.6,25.9,101.6,24.5L101.6,24.5z M107.2,23.6h-1.6c-0.5,0-0.9,0.4-0.9,0.9s0.4,0.9,0.9,0.9h1.6c0.5,0,0.9-0.4,0.9-0.9
	C108.1,24,107.7,23.6,107.2,23.6z M104.9,27.9c-0.3-0.3-0.9-0.3-1.2,0c-0.3,0.3-0.3,0.9,0,1.2l1.2,1.2c0.3,0.3,0.9,0.3,1.2,0
	c0.3-0.3,0.3-0.9,0-1.2l0,0L104.9,27.9z M104.3,21.3c0.2,0,0.4-0.1,0.6-0.2l1.2-1.2c0.3-0.3,0.3-0.9,0-1.2c-0.3-0.3-0.9-0.3-1.2,0
	l-1.2,1.2c-0.3,0.3-0.3,0.9,0,1.2C103.9,21.2,104.1,21.3,104.3,21.3z M89.2,24.5c0-0.5-0.4-0.8-0.8-0.8h-1.6c-0.5,0-0.9,0.4-0.9,0.9
	s0.4,0.9,0.9,0.9h1.6C88.8,25.3,89.2,24.9,89.2,24.5L89.2,24.5z M89.6,21.3c0.5,0,0.9-0.4,0.9-0.8c0-0.2-0.1-0.4-0.2-0.6L89,18.6
	c-0.3-0.3-0.9-0.3-1.2,0c-0.3,0.3-0.3,0.9,0,1.2L89,21C89.1,21.2,89.3,21.3,89.6,21.3z M89,27.9l-1.2,1.2c-0.3,0.3-0.3,0.9,0,1.2
	s0.9,0.3,1.2,0l1.2-1.2c0.3-0.3,0.3-0.9,0-1.2C89.8,27.6,89.3,27.6,89,27.9z"/>
<path class="st0" d="M46.1,96.6c0,0.5-0.4,0.9-0.8,0.9c0,0,0,0,0,0c-0.7,0-1.3,0.6-1.3,1.3c0,0.5-0.4,0.9-0.9,0.9
	c-0.5,0-0.9-0.4-0.9-0.9c0-1.7,1.4-3,3-3c0,0,0,0,0,0C45.7,95.7,46.1,96.1,46.1,96.6C46.1,96.6,46.1,96.6,46.1,96.6z M51.4,98.8
	c0,2-1,3.9-2.6,5.1c-0.1,0.1-0.2,0.2-0.2,0.4v2.3c0,0.8-0.6,1.6-1.4,1.7v0.7c0,0.4-0.3,0.8-0.8,0.8h-2.3c-0.4,0-0.8-0.4-0.8-0.8
	v-0.7c-0.8-0.1-1.4-0.8-1.4-1.7v-2.3c0-0.1-0.1-0.3-0.2-0.4c-2.8-2-3.5-5.8-1.5-8.6c1.1-1.5,2.8-2.5,4.6-2.6
	c1.7-0.1,3.4,0.5,4.7,1.7C50.7,95.4,51.4,97.1,51.4,98.8z M49.7,98.8c0-2.5-2-4.5-4.5-4.5c0,0,0,0,0,0c-0.1,0-0.2,0-0.3,0
	c-2.2,0.2-3.9,1.9-4.2,4c-0.2,1.6,0.5,3.2,1.9,4.1c0.6,0.4,0.9,1,0.9,1.7v0.6h3.4v-0.6c0-0.7,0.3-1.3,0.9-1.7
	C49,101.6,49.7,100.2,49.7,98.8L49.7,98.8z M55.4,97.9h-1.6c-0.5,0-0.9,0.4-0.9,0.9s0.4,0.9,0.9,0.9h1.6c0.5,0,0.9-0.4,0.9-0.9
	S55.9,97.9,55.4,97.9z M53.1,102.2c-0.3-0.3-0.9-0.3-1.2,0c-0.3,0.3-0.3,0.9,0,1.2l1.2,1.2c0.3,0.3,0.9,0.3,1.2,0
	c0.3-0.3,0.3-0.9,0-1.2l0,0L53.1,102.2z M52.5,95.6c0.2,0,0.4-0.1,0.6-0.2l1.2-1.2c0.3-0.3,0.3-0.9,0-1.2c-0.3-0.3-0.9-0.3-1.2,0
	l-1.2,1.2c-0.3,0.3-0.3,0.9,0,1.2C52.1,95.5,52.3,95.6,52.5,95.6z M37.3,98.8c0-0.5-0.4-0.8-0.8-0.8h-1.6c-0.5,0-0.9,0.4-0.9,0.9
	s0.4,0.9,0.9,0.9h1.6C37,99.6,37.3,99.3,37.3,98.8L37.3,98.8z M37.7,95.6c0.5,0,0.9-0.4,0.9-0.8c0-0.2-0.1-0.4-0.2-0.6L37.2,93
	c-0.3-0.3-0.9-0.3-1.2,0c-0.3,0.3-0.3,0.9,0,1.2l1.2,1.2C37.3,95.5,37.5,95.6,37.7,95.6z M37.1,102.2l-1.2,1.2
	c-0.3,0.3-0.3,0.9,0,1.2c0.3,0.3,0.9,0.3,1.2,0l1.2-1.2c0.3-0.3,0.3-0.9,0-1.2C38,101.9,37.5,101.9,37.1,102.2z"/>
<path class="st0" d="M92.7,95.9c0,0.5-0.4,0.9-0.8,0.9c0,0,0,0,0,0c-0.7,0-1.3,0.6-1.3,1.3c0,0.5-0.4,0.9-0.9,0.9
	c-0.5,0-0.9-0.4-0.9-0.9c0-1.7,1.4-3,3-3c0,0,0,0,0,0C92.3,95.1,92.7,95.5,92.7,95.9C92.7,95.9,92.7,95.9,92.7,95.9z M98,98.1
	c0,2-1,3.9-2.6,5.1c-0.1,0.1-0.2,0.2-0.2,0.4v2.3c0,0.8-0.6,1.6-1.4,1.7v0.7c0,0.4-0.3,0.8-0.8,0.8h-2.3c-0.4,0-0.8-0.4-0.8-0.8
	v-0.7c-0.8-0.1-1.4-0.8-1.4-1.7v-2.3c0-0.1-0.1-0.3-0.2-0.4c-2.8-2-3.5-5.8-1.5-8.6c1.1-1.5,2.8-2.5,4.6-2.6
	c1.7-0.1,3.4,0.5,4.7,1.7C97.3,94.8,98,96.4,98,98.1z M96.3,98.1c0-2.5-2-4.5-4.5-4.5c0,0,0,0,0,0c-0.1,0-0.2,0-0.3,0
	c-2.2,0.2-3.9,1.9-4.2,4c-0.2,1.6,0.5,3.2,1.9,4.1c0.6,0.4,0.9,1,0.9,1.7v0.6h3.4v-0.6c0-0.7,0.3-1.3,0.9-1.7
	C95.6,100.9,96.3,99.6,96.3,98.1L96.3,98.1z M102,97.3h-1.6c-0.5,0-0.9,0.4-0.9,0.9c0,0.5,0.4,0.9,0.9,0.9h1.6
	c0.5,0,0.9-0.4,0.9-0.9C102.8,97.6,102.4,97.3,102,97.3z M99.7,101.6c-0.3-0.3-0.9-0.3-1.2,0s-0.3,0.9,0,1.2l1.2,1.2
	c0.3,0.3,0.9,0.3,1.2,0c0.3-0.3,0.3-0.9,0-1.2l0,0L99.7,101.6z M99.1,94.9c0.2,0,0.4-0.1,0.6-0.2l1.2-1.2c0.3-0.3,0.3-0.9,0-1.2
	c-0.3-0.3-0.9-0.3-1.2,0l-1.2,1.2c-0.3,0.3-0.3,0.9,0,1.2C98.6,94.8,98.8,94.9,99.1,94.9z M83.9,98.1c0-0.5-0.4-0.8-0.8-0.8h-1.6
	c-0.5,0-0.9,0.4-0.9,0.9c0,0.5,0.4,0.9,0.9,0.9h1.6C83.5,99,83.9,98.6,83.9,98.1L83.9,98.1z M84.3,94.9c0.5,0,0.9-0.4,0.9-0.8
	c0-0.2-0.1-0.4-0.2-0.6l-1.2-1.2c-0.3-0.3-0.9-0.3-1.2,0c-0.3,0.3-0.3,0.9,0,1.2l1.2,1.2C83.9,94.8,84.1,94.9,84.3,94.9z
	 M83.7,101.6l-1.2,1.2c-0.3,0.3-0.3,0.9,0,1.2s0.9,0.3,1.2,0l1.2-1.2c0.3-0.3,0.3-0.9,0-1.2C84.6,101.2,84,101.2,83.7,101.6z"/>
</svg>
