<?xml version="1.0" encoding="utf-8"?>
<!-- Generator: Adobe Illustrator 21.0.0, SVG Export Plug-In . SVG Version: 6.00 Build 0)  -->
<svg version="1.1"
	 id="Calque_1" xmlns:cc="http://creativecommons.org/ns#" xmlns:dc="http://purl.org/dc/elements/1.1/" xmlns:inkscape="http://www.inkscape.org/namespaces/inkscape" xmlns:rdf="http://www.w3.org/1999/02/22-rdf-syntax-ns#" xmlns:sodipodi="http://sodipodi.sourceforge.net/DTD/sodipodi-0.dtd" xmlns:svg="http://www.w3.org/2000/svg"
	 xmlns="http://www.w3.org/2000/svg" xmlns:xlink="http://www.w3.org/1999/xlink" x="0px" y="0px" viewBox="0 0 141.7 141.7"
	 style="enable-background:new 0 0 141.7 141.7;" xml:space="preserve">
<style type="text/css">
	.st0{fill:#217ABF;}
	.st1{fill:none;stroke:#217ABF;stroke-width:5;stroke-linecap:round;stroke-miterlimit:10;}
</style>
<g transform="translate(0,-952.36216)">
	<path class="st0" d="M100.3,967.1c-4,0-7.3,3.3-7.3,7.3v16.7c0,4,3.3,7.3,7.3,7.3H117c4,0,7.3-3.3,7.3-7.3v-16.7
		c0-4-3.3-7.3-7.3-7.3H100.3z M100.3,973.1H117c0.7,0,1.3,0.5,1.3,1.3v16.7c0,0.7-0.5,1.3-1.3,1.3h-16.7c-0.7,0-1.3-0.5-1.3-1.3
		v-16.7C99,973.7,99.5,973.1,100.3,973.1z"/>
	<path class="st0" d="M100.3,1007.5c-4,0-7.3,3.3-7.3,7.3v16.7c0,4,3.3,7.3,7.3,7.3H117c4,0,7.3-3.3,7.3-7.3v-16.7
		c0-4-3.3-7.3-7.3-7.3H100.3z M100.3,1013.6H117c0.7,0,1.3,0.5,1.3,1.3v16.7c0,0.7-0.5,1.3-1.3,1.3h-16.7c-0.7,0-1.3-0.5-1.3-1.3
		v-16.7C99,1014.1,99.5,1013.6,100.3,1013.6z"/>
	<path class="st0" d="M100.3,1048c-4,0-7.3,3.3-7.3,7.3v16.7c0,4,3.3,7.3,7.3,7.3H117c4,0,7.3-3.3,7.3-7.3v-16.7
		c0-4-3.3-7.3-7.3-7.3H100.3z M100.3,1054.1H117c0.7,0,1.3,0.5,1.3,1.3v16.7c0,0.7-0.5,1.3-1.3,1.3h-16.7c-0.7,0-1.3-0.5-1.3-1.3
		v-16.7C99,1054.6,99.5,1054.1,100.3,1054.1z"/>
	<path class="st0" d="M115.4,975.3c-0.6,0-1.2,0.3-1.5,0.8l-7.4,9l-3.1-3.2c-0.8-0.8-2.1-0.8-2.9-0.1s-0.8,2.1-0.1,2.9l0,0l4.7,4.8
		c0.8,0.8,2.1,0.8,2.9,0.1c0.1-0.1,0.1-0.1,0.2-0.2l8.8-10.8c0.7-0.9,0.6-2.1-0.3-2.9C116.3,975.5,115.8,975.3,115.4,975.3z"/>
	<path class="st0" d="M115.4,1056.3c-0.6,0-1.2,0.3-1.5,0.8l-7.4,9l-3.1-3.2c-0.8-0.8-2.1-0.8-2.9-0.1s-0.8,2.1-0.1,2.9l4.7,4.8
		c0.8,0.8,2.1,0.8,2.9,0.1c0.1-0.1,0.1-0.1,0.2-0.2l8.8-10.8c0.7-0.9,0.6-2.1-0.2-2.9C116.3,1056.4,115.9,1056.2,115.4,1056.3
		L115.4,1056.3z"/>
</g>
<line class="st1" x1="15.2" y1="22.3" x2="65.2" y2="22.3"/>
<line class="st1" x1="15.2" y1="30.4" x2="65.2" y2="30.4"/>
<line class="st1" x1="15.2" y1="38.5" x2="45.5" y2="38.5"/>
<line class="st1" x1="15.2" y1="59.8" x2="65.2" y2="59.8"/>
<line class="st1" x1="15.2" y1="67.9" x2="65.2" y2="67.9"/>
<line class="st1" x1="15.2" y1="76" x2="45.5" y2="76"/>
<line class="st1" x1="17.5" y1="100.9" x2="67.5" y2="100.9"/>
<line class="st1" x1="17.5" y1="109" x2="67.5" y2="109"/>
<line class="st1" x1="17.5" y1="117.1" x2="47.8" y2="117.1"/>
</svg>
