<?xml version="1.0" encoding="utf-8"?>
<!-- Generator: Adobe Illustrator 21.0.0, SVG Export Plug-In . SVG Version: 6.00 Build 0)  -->
<svg version="1.1"
	 id="Calque_1" xmlns:cc="http://creativecommons.org/ns#" xmlns:dc="http://purl.org/dc/elements/1.1/" xmlns:inkscape="http://www.inkscape.org/namespaces/inkscape" xmlns:rdf="http://www.w3.org/1999/02/22-rdf-syntax-ns#" xmlns:sodipodi="http://sodipodi.sourceforge.net/DTD/sodipodi-0.dtd" xmlns:svg="http://www.w3.org/2000/svg"
	 xmlns="http://www.w3.org/2000/svg" xmlns:xlink="http://www.w3.org/1999/xlink" x="0px" y="0px" viewBox="0 0 141.7 141.7"
	 style="enable-background:new 0 0 141.7 141.7;" xml:space="preserve">
<style type="text/css">
	.st0{fill:#217ABF;}
</style>
<path class="st0" d="M69.2,118.9c-5.4,0-10.9,0-16.4,0c-9.7-0.1-17.1-4.7-21.4-13.5c-1.4-2.9-2.1-6.1-2.1-9.7v-4.2
	c0-5.3,0-10.8,0-16.2c0-4.9,1.6-9.8,4.5-13.7l1.9-2.5c7.2-9.9,14.6-20.1,22-30.1c0.9-1.2,2-2.6,3.3-3.7c2.2-1.8,5-2.7,7.8-2.4
	c2.8,0.3,5.4,1.6,7.3,3.8c3.8,4.3,4.7,9.5,2.7,14.7c-1.7,4.2-3.5,8.5-5.3,12.6l-0.7,1.6h4.8L94,55.7c4,0,7,1,9.6,3
	c3.1,2.4,4.6,5.7,4.5,9.5c0,0.8-0.1,1.5-0.2,2.3c2.3,1.7,3.9,4.3,4.4,7.3c0.6,3.2-0.1,6.4-1.8,9.1c0.6,1,1.1,2.1,1.5,3.2
	c1.5,4.8-0.2,9.9-4.2,13c0.7,3,0.2,6.2-1.4,8.9c-2.1,3.6-6,6.2-10.2,6.8c-1,0.2-2,0.2-3,0.2c-3.4,0-6.9,0-10.3,0
	C78.4,118.9,73.8,118.9,69.2,118.9z M67.7,29.8c-0.9,0-1.7,0.3-2.3,0.8c-0.8,0.7-1.5,1.6-2.2,2.5c-7.3,10-14.8,20.2-22,30.1
	l-1.9,2.5c-2.1,2.8-3.2,6.2-3.2,9.6c0,5.4,0,10.9,0,16.2v4.2c0,2.5,0.5,4.7,1.4,6.6c3.2,6.4,8.1,9.5,15.2,9.6c10,0.1,20.2,0,30,0
	c3.4,0,6.9,0,10.3,0c0.6,0,1.3-0.1,1.9-0.1c2.1-0.3,4.2-1.7,5.2-3.5c0.8-1.4,0.9-3,0.3-4.7c-0.7-2-0.1-3.4,0.4-4.1s1.1-1.3,1.8-1.7
	l0,0c2.1-1.3,3-3.6,2.4-5.8c-0.2-0.6-0.6-1.4-1.2-2.2l-0.1-0.1l-0.5-0.1l-0.7-2c-0.2-0.7-0.4-2.2,0.9-3.6l0.9-1.1
	c0.7-1.2,0.9-2.6,0.7-4c-0.2-0.9-0.7-2.5-2.3-3.3c-1.7-0.9-2.4-2.8-2.3-4.3c0-0.6,0.1-1.2,0.2-1.8c0.1-0.6,0.2-1.1,0.2-1.6
	c0.1-1.6-0.5-2.7-1.8-3.8c-1.3-1-2.9-1.5-5.3-1.5l-16.4-0.1l-8.5-0.1c-0.3,0-0.6,0-1,0h-5.7l2.2-5.3c0.1-0.3,0.2-0.5,0.3-0.8
	c0.8-1.8,1.5-3.6,2.3-5.3c1.8-4.1,3.6-8.2,5.2-12.4c1.1-2.8,0.7-5.1-1.4-7.4C70.1,30.3,68.9,29.8,67.7,29.8z M106.1,69.3L106.1,69.3
	L106.1,69.3z"/>
</svg>
