<?xml version="1.0" encoding="utf-8"?>
<!-- Generator: Adobe Illustrator 21.0.0, SVG Export Plug-In . SVG Version: 6.00 Build 0)  -->
<svg version="1.1" id="Calque_1" xmlns="http://www.w3.org/2000/svg" xmlns:xlink="http://www.w3.org/1999/xlink" x="0px" y="0px"
	 viewBox="0 0 142 142" style="enable-background:new 0 0 142 142;" xml:space="preserve">
<style type="text/css">
	.st0{fill:none;stroke:#FFFFFF;stroke-width:4;}
</style>
<title>social_link</title>
<desc>Created with Sketch.</desc>
<g id="Page-1">
	<g id="Group-2" transform="translate(-315.000000, -137.000000)">
		<g id="social_link" transform="translate(317.000000, 139.000000)">
			<g id="Calque_1_1_">
				<circle id="Oval" class="st0" cx="69.4" cy="69.4" r="68.5"/>
				<g id="Group" transform="translate(21.153285, 37.270073)">
					<path id="Shape" class="st0" d="M44.8,17.2c0,0,15.2-2.5,15.2-1.1s2.9,11.8,9.6,12.3c6.5,0.5,2.7-12.7,0-17.7
						C66.9,5.6,51,1.6,43.4,0.2C36-1.2,19.1,7.5,19.1,7.5l-8.7-2.9L0.9,31.1c1.1,4.1,10.9,7.3,10.9,7.3
						C25.5,24.5,44.8,17.2,44.8,17.2z"/>
					<path id="Shape_1_" class="st0" d="M82.4,46.3c-1.2-2.4-4-3.5-6.3-2.4s-3.1,4-1.9,6.4l1.4,2.9c1.2,2.4,4,3.5,6.3,2.4
						c2.3-1.1,3.1-4,1.9-6.4L82.4,46.3z"/>
					<path id="Shape_2_" class="st0" d="M74.1,51.8c-1.4-2.8-4.4-4-6.8-2.8c-2.4,1.2-3.3,4.4-1.9,7.3l1.6,3.3c1.4,2.8,4.4,4,6.8,2.8
						s3.3-4.4,1.9-7.3L74.1,51.8z"/>
					<path id="Shape_3_" class="st0" d="M64.9,56.6c-1.4-2.9-4.5-4.3-7.1-3.1c-2.4,1.2-3.2,4.5-1.8,7.5l1.7,3.5
						c1.4,2.9,4.5,4.3,7.1,3.1c2.4-1.2,3.2-4.5,1.8-7.5L64.9,56.6z"/>
					<path id="Shape_4_" class="st0" d="M56.3,63c-1.4-2.9-4.5-4.3-7.1-3.1c-2.4,1.2-3.2,4.5-1.8,7.5l1.7,3.5
						c1.4,2.9,4.5,4.3,7.1,3.1c2.4-1.2,3.2-4.5,1.8-7.5L56.3,63z"/>
					<path id="Shape_5_" class="st0" d="M84.6,4.2L71.8,9.7c0,0,7.4,17.8-0.3,20.5c-7.8,2.7-13.8-12.6-13.8-12.6l-12.8,1.5L28,27.9
						L9.8,42.4c0,0-3.6,4.5,0,9.1s6.8,2.3,6.8,2.3s-0.7,3.2,1.6,5.4c2.3,2.3,7.5,0,7.5,0s-2,2.3,1.6,5.4c3.6,3.2,8.5,0,8.5,0
						s0.2,3.6,2.7,5c2.1,1.1,6.1-1.2,7.6-2c-1.6-3.6-0.4-7.7,2.6-9.2c0.8-0.4,1.7-0.6,2.5-0.6c0.9,0,1.8,0.2,2.7,0.6
						c-0.2-2.7,1.1-5.2,3.3-6.3c0.8-0.4,1.6-0.6,2.5-0.6c1.2,0,2.3,0.4,3.4,1c0.3-2.1,1.4-4.1,3.4-5c0.8-0.4,1.7-0.6,2.6-0.6
						c1,0,2,0.3,2.9,0.7c0.2-2.1,1.3-4.1,3.3-5c0.8-0.4,1.7-0.6,2.6-0.6c1.7,0,3.3,0.8,4.5,2c2-2.1,3.9-4.4,5.8-6.8l7.1-6L84.6,4.2z
						"/>
				</g>
			</g>
		</g>
	</g>
</g>
</svg>
