<?xml version="1.0" encoding="utf-8"?>
<!-- Generator: Adobe Illustrator 21.0.0, SVG Export Plug-In . SVG Version: 6.00 Build 0)  -->
<svg version="1.1" id="Calque_1" xmlns="http://www.w3.org/2000/svg" xmlns:xlink="http://www.w3.org/1999/xlink" x="0px" y="0px"
	 viewBox="0 0 141.7 141.7" style="enable-background:new 0 0 141.7 141.7;" xml:space="preserve">
<style type="text/css">
	.st0{fill:none;stroke:#9FC800;stroke-width:4;stroke-miterlimit:10;}
</style>
<circle class="st0" cx="70.9" cy="70.9" r="68"/>
<g>
	<path class="st0" d="M67.5,56.1c0,0,15.1-2.5,15.1-1.1s2.9,11.7,9.5,12.2c6.5,0.5,2.7-12.6,0-17.6s-18.5-9-26-10.4
		C58.7,37.8,42,46.4,42,46.4l-8.6-2.9l-9.5,26.4c1.1,4.1,10.8,7.2,10.8,7.2C48.3,63.3,67.5,56.1,67.5,56.1z"/>
	<path class="st0" d="M104.8,85c-1.2-2.4-4-3.5-6.3-2.4s-3.1,4-1.9,6.4l1.4,2.9c1.2,2.4,4,3.5,6.3,2.4s3.1-4,1.9-6.4L104.8,85z"/>
	<path class="st0" d="M96.6,90.4c-1.4-2.8-4.4-4-6.8-2.8s-3.3,4.4-1.9,7.2l1.6,3.3c1.4,2.8,4.4,4,6.8,2.8s3.3-4.4,1.9-7.2L96.6,90.4
		z"/>
	<path class="st0" d="M87.4,95.2c-1.4-2.9-4.5-4.3-7-3.1c-2.4,1.2-3.2,4.5-1.8,7.4l1.7,3.5c1.4,2.9,4.5,4.3,7,3.1
		c2.4-1.2,3.2-4.5,1.8-7.4L87.4,95.2z"/>
	<path class="st0" d="M78.9,101.5c-1.4-2.9-4.5-4.3-7-3.1c-2.4,1.2-3.2,4.5-1.8,7.4l1.7,3.5c1.4,2.9,4.5,4.3,7,3.1
		c2.4-1.2,3.2-4.5,1.8-7.4L78.9,101.5z"/>
	<path class="st0" d="M107,43.2l-12.7,5.4c0,0,7.3,17.7-0.3,20.4c-7.7,2.7-13.7-12.5-13.7-12.5L67.6,58l-16.8,8.7L32.7,81.1
		c0,0-3.6,4.5,0,9s6.8,2.3,6.8,2.3s-0.7,3.2,1.6,5.4c2.3,2.3,7.4,0,7.4,0s-2,2.3,1.6,5.4c3.6,3.2,8.4,0,8.4,0s0.2,3.6,2.7,5
		c2.1,1.1,6.1-1.2,7.5-2c-1.6-3.6-0.4-7.6,2.6-9.1c0.8-0.4,1.7-0.6,2.5-0.6c0.9,0,1.8,0.2,2.7,0.6c-0.2-2.7,1.1-5.2,3.3-6.3
		c0.8-0.4,1.6-0.6,2.5-0.6c1.2,0,2.3,0.4,3.4,1c0.3-2.1,1.4-4.1,3.4-5c0.8-0.4,1.7-0.6,2.6-0.6c1,0,2,0.3,2.9,0.7
		c0.2-2.1,1.3-4.1,3.3-5c0.8-0.4,1.7-0.6,2.6-0.6c1.7,0,3.3,0.8,4.5,2c2-2.1,3.9-4.4,5.8-6.8l7-6L107,43.2z"/>
</g>
</svg>
