<?xml version="1.0" encoding="utf-8"?>
<!-- Generator: Adobe Illustrator 21.0.0, SVG Export Plug-In . SVG Version: 6.00 Build 0)  -->
<svg version="1.1" id="Calque_1" xmlns="http://www.w3.org/2000/svg" xmlns:xlink="http://www.w3.org/1999/xlink" x="0px" y="0px"
	 viewBox="0 0 141.7 141.7" style="enable-background:new 0 0 141.7 141.7;" xml:space="preserve">
<style type="text/css">
	.st0{fill:#9FC800;}
	.st1{fill:none;stroke:#9FC800;stroke-width:4;stroke-miterlimit:10;}
</style>
<path class="st0" d="M114.7,60.4c-4.5,0-8.3,2.8-9.6,6.8H91.6c-0.6-3.3-1.8-6.3-3.7-8.9l9.5-9.5c3.8,1.9,8.6,1.2,11.8-2
	c4-4,4-10.6,0-14.6s-10.5-4-14.6,0c-3.1,3.1-3.8,7.9-2,11.7l-9.5,9.5c-2.6-1.8-5.5-3.1-8.7-3.6V36.4c3.9-1.5,6.8-5.3,6.8-9.7
	c0-5.7-4.6-10.3-10.3-10.3S60.6,21,60.6,26.7c0,4.5,2.9,8.3,6.9,9.8V50c-3.2,0.6-6.3,1.8-8.8,3.7l-9.5-9.5c1.8-3.8,1.1-8.5-2-11.7
	c-4-4-10.5-4-14.6,0s-4,10.6,0,14.6c3.1,3.1,8,3.8,11.8,2l9.5,9.5c-1.9,2.6-3.1,5.6-3.7,8.9H36.4c-1.5-3.9-5.3-6.8-9.6-6.8
	c-5.7,0-10.3,4.6-10.3,10.3s4.6,10.3,10.3,10.3c4.5,0,8.3-2.9,9.7-7H50c0.6,3.3,1.8,6.3,3.6,8.9L44,92.8c-3.8-1.8-8.5-1.1-11.6,2
	c-4,4-4,10.6,0,14.6s10.5,4,14.6,0c3.1-3.1,3.8-8,2-11.8l9.5-9.5c2.6,1.9,5.7,3.1,9,3.7v13.5c-4,1.3-6.9,5.3-6.9,9.8
	c0,5.7,4.6,10.3,10.3,10.3c5.7,0,10.3-4.6,10.3-10.3c0-4.5-2.8-8.3-6.8-9.7V91.9c3.2-0.6,6.3-1.8,8.8-3.7l9.5,9.5
	c-1.9,3.8-1.2,8.6,2,11.8c4,4,10.5,4,14.6,0c4-4,4-10.6,0-14.6c-3.1-3.1-7.8-3.8-11.6-2l-9.5-9.5c1.9-2.6,3.1-5.6,3.7-8.9h13.4
	c1.3,4,5.3,7,9.7,7c5.7,0,10.3-4.6,10.3-10.3C124.9,65,120.3,60.4,114.7,60.4z M99.1,37c1.5-1.5,3.8-1.5,5.3,0s1.5,3.8,0,5.3
	s-3.8,1.5-5.3,0C97.7,40.8,97.7,38.4,99.1,37z M42.2,42.2c-1.5,1.5-3.8,1.5-5.3,0s-1.5-3.8,0-5.3s3.8-1.5,5.3,0S43.7,40.8,42.2,42.2
	z M26.7,74.5c-2,0-3.7-1.7-3.7-3.7s1.7-3.7,3.7-3.7s3.7,1.7,3.7,3.7C30.4,72.8,28.8,74.5,26.7,74.5z M42.2,104.6
	c-1.5,1.5-3.8,1.5-5.3,0s-1.5-3.8,0-5.3s3.8-1.5,5.3,0C43.7,100.7,43.7,103.1,42.2,104.6z M67,26.6c0-2,1.7-3.7,3.7-3.7
	s3.7,1.7,3.7,3.7s-1.7,3.7-3.7,3.7C68.7,30.4,67,28.8,67,26.6z M74.4,114.9c0,2-1.7,3.7-3.7,3.7s-3.7-1.7-3.7-3.7s1.7-3.7,3.7-3.7
	C72.7,111.1,74.4,112.8,74.4,114.9z M82,80.7c-3.1-2.5-6.4-4.2-7.1-4.5c-0.1,0-0.1-0.1-0.1-0.2c0-0.3,0-1.2,0-2.1
	c0.3-0.7,0.6-1.3,0.7-2c0.1,0,0.1,0.1,0.2,0.1c0.3,0,0.7-0.3,1.1-1.8s0.1-2-0.2-2.1c1.2-5.7-1.6-6-1.6-6s-0.4-0.8-1.5-1.3
	c-0.7-0.3-1.5-0.7-2.6-0.7c-0.2,0-0.3,0-0.6,0c-0.4,0-0.8,0.1-1.2,0.2l0,0c-0.4,0.1-0.9,0.4-1.3,0.7s-1,0.7-1.3,1.1
	c-0.7,0.7-1.2,1.6-1.5,2.6c-0.2,0.9-0.2,1.9,0.1,2.9H65c-0.4,0-0.9,0.3-0.4,2.1c0.4,1.5,0.8,1.8,1,1.8c0.1,0.8,0.3,1.7,0.9,2.5v1.8
	c0,0.1,0,0.1-0.1,0.2c-0.7,0.3-3.9,1.9-6.9,4.4c-2.4-2.7-3.7-6.1-3.7-9.9c0-8.3,6.7-15,15-15s15,6.7,15,15
	C85.7,74.6,84.4,78.1,82,80.7z M99.1,99.3c1.5-1.5,3.8-1.5,5.3,0s1.5,3.8,0,5.3s-3.8,1.5-5.3,0C97.7,103.1,97.7,100.7,99.1,99.3z
	 M114.7,74.5c-2,0-3.7-1.7-3.7-3.7s1.7-3.7,3.7-3.7s3.7,1.7,3.7,3.7C118.4,72.8,116.7,74.5,114.7,74.5z"/>
<circle class="st1" cx="70.9" cy="70.9" r="68"/>
</svg>
