<?xml version="1.0" encoding="utf-8"?>
<!-- Generator: Adobe Illustrator 21.0.0, SVG Export Plug-In . SVG Version: 6.00 Build 0)  -->
<svg version="1.1" id="Calque_1" xmlns="http://www.w3.org/2000/svg" xmlns:xlink="http://www.w3.org/1999/xlink" x="0px" y="0px"
	 viewBox="0 0 141.7 141.7" style="enable-background:new 0 0 141.7 141.7;" xml:space="preserve">
<style type="text/css">
	.st0{fill:#B900A2;}
	.st1{fill:none;stroke:#B900A2;stroke-width:3;stroke-miterlimit:10;}
</style>
<path class="st0" d="M39.7,41.3c-0.8-0.8-0.9-2.1,0-3c8.2-8.4,19.1-13.1,30.7-13.2c0.2,0,0.3,0,0.6,0c11.2,0,21.8,4.2,30,11.8v-3.7
	c0-1.1,0.9-2.1,2.1-2.1l0,0c1.1,0,2.1,0.9,2.1,2.1l0.1,8.7c0,0.6-0.2,1.1-0.6,1.5c-0.3,0.4-0.9,0.7-1.5,0.7l-8.7,0.1l0,0
	c-1.1,0-2.1-0.9-2.1-2.1c0-1.1,0.9-2.1,2.1-2.1h3.6c-7.5-7-17.2-10.7-27.5-10.6c-10.5,0.1-20.5,4.4-27.8,11.8
	C41.8,42.1,40.5,42.1,39.7,41.3z M102.1,100.4c0.8,0.8,0.9,2.1,0,3c-8.6,8.7-19.9,13.2-31.3,13.2c-10.7,0-21.6-3.9-30-11.8v3.7
	c0,1.1-0.9,2.1-2.1,2.1l0,0c-1.1,0-2.1-0.9-2.1-2.1l-0.1-8.7c0-1.1,0.9-2.1,2.1-2.1l8.7-0.1l0,0c1.1,0,2.1,0.9,2.1,2.1
	c0,1.1-0.9,2.1-2.1,2.1h-3.6c15.7,14.6,40.2,14.2,55.2-1.2C99.9,99.7,101.3,99.7,102.1,100.4z"/>
<path class="st0" d="M86.1,73.4c-5.8-1.5-8.3-3.2-9.2-4.4c0.3-0.3,0.7-0.7,1-1c3.9-4.4,3.2-11.6,3.2-12.5
	c-0.4-8.7-6.9-10.8-10.7-10.7c-3.8-0.1-10.3,2-10.7,10.7c-0.1,0.9-0.7,8.2,3.2,12.5c0.3,0.4,0.8,0.8,1.2,1.1c-1,1.1-3.6,2.8-9.1,4.2
	c-1.8,0.5-3.2,1.6-4.1,3.3c0.7,0.4,1.9,1,3.8,1.6c0.3-0.4,0.7-0.8,1.3-0.9c7.5-1.9,10.6-4.5,12-6.5c0.7,0.1,1.5,0.2,2.2,0.2h0.1
	c0,0,0,0,0.1,0h0.1c0.9,0,1.7-0.1,2.5-0.3c1.2,2,4.4,4.6,12,6.6c0.6,0.1,1,0.5,1.3,1c1.9-0.6,3.1-1.1,3.8-1.6
	C89.4,75.2,88,73.9,86.1,73.4z M70.4,67.1c-1.9,0-3.4-0.6-4.4-1.8c-2.3-2.6-2.3-7.6-2.1-9.4v-0.1c0.3-6.3,4.5-6.8,6.1-6.8
	c0.1,0,0.2,0,0.2,0h0.1c1.5-0.1,6.1,0.2,6.5,6.8v0.1c0.2,1.7,0.1,6.7-2.1,9.4C73.8,66.5,72.3,67.1,70.4,67.1z"/>
<path class="st0" d="M55.9,82c-5.8-1.5-8.3-3.2-9.2-4.4c0.3-0.3,0.7-0.7,1-1c4-4.3,3.3-11.6,3.3-12.5c-0.4-8.7-6.9-10.8-10.7-10.7
	c-3.8-0.1-10.3,2-10.7,10.7c-0.1,0.9-0.7,8.2,3.2,12.5c0.3,0.4,0.8,0.8,1.2,1.1c-1,1.1-3.6,2.8-9.1,4.2c-3.5,0.9-5.4,4.2-5,8.9
	c0.1,1.1,1,1.9,2.1,1.9h0.1c1.1-0.1,2-1.1,1.9-2.2c-0.1-1.6,0-4.1,1.9-4.6c7.6-1.9,10.6-4.6,12-6.5c0.7,0.1,1.5,0.2,2.2,0.2h0.1
	c0,0,0,0,0.1,0h0.1c0.9,0,1.7-0.1,2.5-0.3c1.2,2,4.4,4.6,12,6.6c1.9,0.4,2,3.1,1.9,4.6c-0.1,1.1,0.8,2.1,1.9,2.2h0.1
	c1.1,0,2-0.9,2.1-1.9C61.3,86.3,59.4,82.9,55.9,82z M40.2,75.7C40.2,75.7,40.2,75.7,40.2,75.7c-2,0-3.3-0.6-4.5-1.8
	c-2.2-2.7-2.2-7.7-2-9.4v-0.1c0.3-6.3,4.5-6.8,6.1-6.8c0.1,0,0.2,0,0.2,0h0.1c1.5-0.1,6.1,0.2,6.5,6.8v0.1c0.2,1.7,0.1,6.7-2.1,9.4
	C43.6,75.1,42.2,75.7,40.2,75.7z"/>
<path class="st0" d="M116.8,81.9c-5.8-1.5-8.3-3.2-9.2-4.4c0.3-0.3,0.7-0.7,1-1c3.9-4.4,3.2-11.6,3.2-12.5
	c-0.4-8.7-6.9-10.8-10.7-10.7c-3.8-0.1-10.3,2-10.7,10.7c-0.1,0.9-0.7,8.2,3.2,12.5c0.3,0.4,0.8,0.8,1.2,1.1c-1,1.1-3.6,2.8-9.1,4.2
	c-3.5,0.9-5.4,4.2-5,8.9c0.1,1.1,1,1.9,2.1,1.9H83c1.1-0.1,2-1.1,1.9-2.2c-0.1-1.6,0-4.1,1.9-4.6c7.5-1.9,10.6-4.5,12-6.5
	c0.7,0.1,1.5,0.2,2.2,0.2h0.1c0,0,0,0,0.1,0h0.1c0.9,0,1.7-0.1,2.5-0.3c1.2,2,4.4,4.6,12,6.6c1.9,0.4,2,3.1,1.9,4.6
	c-0.1,1.1,0.8,2.1,1.9,2.2h0.1c1.1,0,2-0.9,2.1-1.9C122.2,86.2,120.3,82.8,116.8,81.9z M101.1,75.5c-1.9,0-3.4-0.6-4.4-1.8
	c-2.3-2.6-2.3-7.6-2.1-9.4v-0.1c0.3-6.3,4.5-6.8,6.1-6.8c0.1,0,0.2,0,0.2,0h0.1c1.5-0.1,6.1,0.2,6.5,6.8v0.1
	c0.2,1.7,0.1,6.7-2.1,9.4C104.5,75,103,75.5,101.1,75.5z"/>
<circle class="st1" cx="70.6" cy="70.9" r="68.4"/>
</svg>
