<svg xmlns="http://www.w3.org/2000/svg" xmlns:xlink="http://www.w3.org/1999/xlink" xml:space="preserve" version="1.1" shape-rendering="geometricPrecision" text-rendering="geometricPrecision" image-rendering="optimizeQuality" fill-rule="evenodd" clip-rule="evenodd" viewBox="0 0 5000000 6250000" x="0px" y="0px"><g><path fill="#000000" fill-rule="nonzero" d="M2500000 4323561c508953,0 969479,-204101 1302679,-534111 164060,-162525 297411,-355759 390366,-570136 -148941,-78782 -338160,-204691 -423911,-288552 17954,-8032 31655,-14292 41577,-20552 2480,-1536 4960,-3189 7323,-5079l15709 -12048c32009,-24567 132642,-136776 204101,-236346 31654,-44056 58348,-87877 73703,-125673 69333,69687 140083,147524 210597,236110 12874,-87168 19607,-176462 19607,-267174 0,-503638 -205991,-959558 -539072,-1289450 -156029,-154493 -339932,-281466 -543797,-372768 -80199,154611 -195951,305325 -296702,401942l-4843 -10630c-8150,-18190 -14528,-32363 -21024,-43112 -2126,-3898 -4606,-7559 -7441,-11102 -4016,-4843 -7914,-10158 -11812,-15119 -24922,-32718 -138311,-134532 -238708,-206463 -36379,-26103 -72758,-49018 -106066,-65081 72167,-73703 126027,-129453 201266,-191817 -89294,-13111 -180596,-19961 -273552,-19961 -508953,0 -969479,204101 -1302679,534111 -158036,156619 -287489,341586 -379854,546513 156264,79845 339932,210125 435132,306860 -2481,1300 -4843,2717 -6969,4134 -2835,1654 -5552,3544 -8150,5670l-15473 11811c-32599,25040 -134414,138430 -206463,238708 -40750,56931 -73703,113862 -85042,158982 -81617,-78782 -165478,-168431 -249103,-272962 -15236,94374 -23150,191109 -23150,289734 0,503638 205991,959558 539072,1289450 167013,165478 366035,299183 587145,391548 86223,-163942 218629,-335798 323868,-434541 14174,28347 26221,55159 35316,75356 8150,18308 14528,32364 21024,43230 2127,3898 4607,7559 7442,11103l11693 15000c24686,32363 138311,134414 238826,206581 15001,10749 30001,21025 44884,30474 -64254,64726 -126737,121775 -200322,180950 76302,9450 153903,14410 232803,14410zm-382335 -1356657c40513,30828 84097,117406 124492,147052 1063,827 2363,1536 3662,2008 1771,473 17244,5788 28111,6851 34371,3543 80435,-4607 133705,-14174 75829,-13465 161816,-28701 236346,-14173 107838,20906 261622,23150 367571,-18190 28937,-11103 51970,-13111 68269,-5788 10867,5079 19017,14647 23978,28702 10984,30592 -709,93664 -79137,132878 -40985,20434 -109137,45829 -162406,53624 -183904,26812 -123075,203392 -39332,314065 590,1299 1299,2480 2244,3543l189455 186502c1181,1300 2480,2363 4015,3189 27403,27757 45474,55868 33663,98862 -3544,12992 -10630,22205 -21733,27993 -37088,19607 -75239,14646 -105594,-7559l-158273 -115870 -236 -118c-6378,-4134 -14882,-2363 -19016,4016 -4134,6378 -2363,14882 4016,19016l113861 85278c2835,2481 68152,60356 25867,114334 -28111,35789 -55631,33781 -63427,27993 -13465,-9803 -195596,-129925 -203746,-135358 -6378,-4252 -14765,-2599 -19135,3780 -4252,6260 -2598,14882 3780,19134l0 0 0 0 163115 112090c4252,6496 17363,30828 -945,54805 -18780,24213 -44765,12756 -46182,12166l-238945 -156147c-6496,-4016 -14882,-2244 -19016,4134 -4134,6378 -2244,14882 4134,19016l184848 121658c-2244,7087 -30119,17244 -41812,14410 -67207,10039 -337215,-220047 -373831,-268237 -5669,-7323 -10158,-13229 -13229,-17008 -10039,-12284 -57639,-141265 -121893,-230441 -45947,-63663 -88113,-122366 -102405,-141500 -14292,-19371 -36852,-38624 -38741,-40159 0,0 -118,0 -118,0l-165596 -182604c-62719,-68743 -177407,-154611 -253355,-213314 -41340,-31891 -83152,-64136 -127917,-101342l135713 -137839c45001,-32954 99924,-61183 148705,-68388 4607,-590 9213,-1063 13702,-1299 4252,236 8268,945 11811,2008 5906,1772 10985,5197 15119,10512 7204,9567 12756,24922 16063,47127 4016,28112 12402,59648 22442,90240 11457,34725 25512,68388 37796,93191 23623,47364 54687,78074 85987,96736 31655,19016 64963,25749 93546,24804 13938,945 26812,-591 37561,-3898 1063,-236 2244,-591 3307,-945 47482,-18898 75593,-29528 79136,-107366zm806128 61065c12047,-13228 22914,-26103 32009,-38505 35788,-48545 71695,-97089 107483,-145634 827,-1063 1418,-2363 1890,-3780 591,-1654 5788,-17245 6969,-28111 3425,-34253 -4725,-80318 -14174,-133587 -13583,-75829 -28819,-161816 -14291,-236346 21024,-107838 23150,-261740 -18190,-367571 -11103,-28938 -13111,-51970 -5669,-68269 4960,-10867 14646,-19017 28583,-23978 30592,-11102 93783,709 132878,79137 20434,40985 45947,109137 53624,162406 26930,183904 203510,123075 314065,39332 1299,-590 2599,-1299 3543,-2244l186621 -189455c1299,-1181 2362,-2480 3189,-4015 27638,-27403 55749,-45474 98743,-33663 13111,3544 22323,10630 27993,21733 19607,37088 14646,75239 -7559,105594l-115752 158155 -236 354c-4134,6378 -2363,14882 4016,19016 6378,4134 15000,2363 19134,-4134l85160 -113744c2481,-2834 60356,-68151 114453,-25866 35670,28111 33780,55631 27874,63427 -9803,13347 -129807,195715 -135240,203746 -4252,6378 -2599,14765 3662,19135 6378,4252 14882,2480 19134,-3780l0 0 0 0 112208 -163115c6497,-4252 30710,-17481 54687,945 24331,18780 12874,44647 12284,46182l-156147 238945c-4134,6378 -2244,14882 4134,19016 6378,4134 14883,2244 19017,-4134l121539 -184848c7087,2244 17244,30119 14528,41812 9921,67089 -220165,337215 -268237,373831 -7441,5669 -13347,10158 -17126,13229 -12284,10039 -141265,57639 -230323,121893 -63781,45828 -122366,88113 -141618,102405 -19253,14292 -38624,36851 -40041,38741 0,0 0,0 -118,118l-182486 165596c-68742,62601 -154611,177289 -213314,253355 -15709,20197 -31418,40513 -47718,61301l-45120 -44411 -590 -827c-31537,-41576 -58939,-92956 -65317,-137248 -1890,-12993 -1772,-24568 945,-33545 1772,-5787 5197,-10984 10512,-15000 9567,-7205 24922,-12756 47127,-16064 27993,-4134 59648,-12402 90121,-22441 34844,-11575 68388,-25513 93310,-37915 47246,-23623 78074,-54568 96736,-85869 28820,-48308 29528,-100042 17481,-133823 -4725,-13110 -10867,-24686 -18426,-34607l-3662 -4843c-10748,-12638 -23741,-22560 -38859,-29528 -19253,-8741 -40868,-12166 -64727,-10158 -17599,1417 -36615,6024 -56576,13465l-1890 709c-18898,7441 -39923,13228 -62246,17480zm33780 -1018142l-98625 -72758c-1181,-827 -2480,-1536 -3779,-2008 -1772,-591 -17245,-5788 -28111,-6851 -34372,-3543 -80318,4607 -133587,14056 -75948,13583 -161816,28820 -236464,14292 -107839,-20906 -261623,-23151 -367571,18189 -28820,11103 -51970,13111 -68152,5670 -10984,-4961 -19016,-14528 -24095,-28584 -10985,-30591 709,-93782 79254,-132878 40868,-20434 109020,-45828 162289,-53624 184021,-26930 123075,-203392 39332,-314065 -473,-1299 -1299,-2480 -2126,-3543l-189573 -186502c-1063,-1299 -2480,-2362 -4016,-3189 -27402,-27757 -45474,-55868 -33662,-98862 3543,-13110 10748,-22205 21733,-27993 37087,-19607 75356,-14646 105593,7560l158273 115869 236 119c6379,4134 14883,2362 19017,-4016 4134,-6378 2362,-14883 -4016,-19017l-113862 -85278c-2717,-2480 -68152,-60356 -25749,-114334 27993,-35789 55514,-33899 63309,-27993 13465,9803 195715,129925 203865,135358 6260,4134 14764,2481 19016,-3779 4252,-6260 2599,-14883 -3661,-19135l-118 0 0 0 -163116 -112090c-4134,-6496 -17363,-30828 1063,-54805 18662,-24213 44647,-12756 46065,-12166l239062 156029c6378,4134 14765,2244 18899,-4016 4134,-6496 2244,-14882 -4016,-19016l-184967 -121658c2244,-7086 30119,-17244 41813,-14409 67206,-10040 337215,220046 373948,268236 5552,7323 10040,13229 13111,17009 10040,12284 57758,141264 121894,230322 45946,63781 88231,122484 102404,141619 14292,19252 36852,38623 38860,40040 0,118 0,118 0,118l165714 182604c62600,68625 177289,154612 253354,213314 26340,20434 53033,40986 80554,62955l-122012 124020 -1535 1181c-42876,32363 -96145,60710 -142446,67443 -14528,2126 -27756,1890 -38505,-1417 -7913,-2363 -15118,-7087 -20670,-14528 -8386,-10985 -14646,-27994 -18189,-52207 -4016,-27520 -12166,-58466 -22088,-88349 -11220,-34135 -25040,-67207 -37206,-91657 -22559,-45119 -51970,-74411 -81616,-92128 -45120,-26930 -93074,-27757 -124138,-16536 -14056,5079 -26103,11811 -35907,20197 -11102,9331 -19843,20434 -25867,33308l-945 1772c-4015,8740 -6732,18190 -8268,28111zm-891760 43820l-66498 90121c-827,1181 -1417,2363 -1890,3780 -590,1654 -5787,17245 -6969,28111 -3425,34253 4725,80318 14174,133587 13583,75829 28820,161816 14292,236346 -21024,107838 -23150,261741 18189,367571 10985,28938 13111,52088 5670,68269 -4961,10867 -14646,19017 -28584,23978 -30591,11102 -93782,-709 -132996,-79137 -20316,-40985 -45828,-109137 -53506,-162406 -26930,-183904 -203510,-123075 -314065,-39332 -1299,590 -2598,1299 -3543,2244l-186620 189455c-1299,1181 -2362,2480 -3189,4015 -27639,27403 -55868,45474 -98743,33663 -13111,-3543 -22324,-10630 -28112,-21733 -19607,-37088 -14528,-75239 7678,-105594l115751 -158154 237 -355c4134,-6378 2362,-14882 -4016,-19016 -6378,-4134 -15001,-2362 -19135,4134l-85160 113744c-2480,2834 -60474,68151 -114452,25866 -35671,-28111 -33781,-55631 -27993,-63427 9921,-13347 129925,-195715 135358,-203746 4252,-6378 2599,-14765 -3661,-19135 -6378,-4252 -14882,-2480 -19135,3780l0 0 0 0 -112208 163115c-6496,4252 -30709,17481 -54687,-945 -24331,-18780 -12874,-44647 -12283,-46182l156146 -238945c4134,-6378 2244,-14882 -4134,-19016 -6378,-4134 -14882,-2244 -19016,4134l-121539 184848c-7087,-2244 -17245,-30119 -14528,-41812 -9922,-67089 220164,-337215 268236,-373831 7442,-5669 13347,-10158 17009,-13229 12402,-9921 141382,-57639 230440,-121893 63782,-45828 122366,-88113 141619,-102405 19252,-14292 38623,-36851 40040,-38741 0,0 0,0 118,-118l182487 -165596c68742,-62601 154611,-177289 213313,-253355 12048,-15473 24096,-31064 36379,-46891l94846 93310 709 945c31418,41576 58820,92956 65317,137249 1889,12992 1771,24449 -1063,33544 -1772,5787 -5197,10984 -10513,15000 -9567,7205 -24803,12757 -47127,16064 -27993,4016 -59648,12402 -90121,22441 -34844,11458 -68388,25513 -93192,37915 -47364,23623 -78191,54569 -96853,85869 -28820,48309 -29529,100042 -17481,133823 4843,13229 10984,24804 18662,34844l3425 4606c10749,12638 23741,22560 38860,29529 19252,8740 40867,12165 64726,10157 3071,-236 6142,-590 9331,-1063zm1848129 1847775c-362019,358594 -861995,580412 -1413942,580412 -551947,0 -1051923,-221818 -1413942,-580412 -362138,-358712 -586200,-854200 -586200,-1401422 0,-547222 224062,-1042710 586200,-1401422 362019,-358594 861995,-580412 1413942,-580412 551947,0 1051923,221818 1413942,580412 362138,358712 586200,854200 586200,1401422 0,547222 -224062,1042710 -586200,1401422z"/></g><text x="0" y="5000015" fill="#000000" font-size="5px" font-weight="bold" font-family="'Helvetica Neue', Helvetica, Arial-Unicode, Arial, Sans-serif">Created by abeldb</text><text x="0" y="5000020" fill="#000000" font-size="5px" font-weight="bold" font-family="'Helvetica Neue', Helvetica, Arial-Unicode, Arial, Sans-serif">from the Noun Project</text></svg>