<?xml version="1.0" encoding="utf-8"?>
<!-- Generator: Adobe Illustrator 21.0.0, SVG Export Plug-In . SVG Version: 6.00 Build 0)  -->
<svg version="1.1" id="Calque_1" xmlns="http://www.w3.org/2000/svg" xmlns:xlink="http://www.w3.org/1999/xlink" x="0px" y="0px"
	 viewBox="0 0 142 142" style="enable-background:new 0 0 142 142;" xml:space="preserve">
<style type="text/css">
	.st0{fill:#FFFFFF;}
	.st1{fill:none;stroke:#FFFFFF;stroke-width:4;}
</style>
<title>solidarity</title>
<desc>Created with Sketch.</desc>
<g id="Page-1">
	<g id="Group-2" transform="translate(-919.000000, -140.000000)">
		<g id="solidarity" transform="translate(921.000000, 142.000000)">
			<g id="Calque_1_1_">
				<path id="Shape" class="st0" d="M38,39.3c-0.8-0.8-0.9-2.1,0-3c8.3-8.4,19.2-13.1,30.9-13.2h0.6c11.3,0,22,4.2,30.2,11.8v-3.7
					c0-1.1,0.9-2.1,2.1-2.1l0,0c1.1,0,2.1,0.9,2.1,2.1l0.1,8.7c0,0.6-0.2,1.1-0.6,1.5c-0.3,0.4-0.9,0.7-1.5,0.7l-8.8,0.1l0,0
					c-1.1,0-2.1-0.9-2.1-2.1c0-1.1,0.9-2.1,2.1-2.1h3.6c-7.6-7-17.3-10.7-27.7-10.6c-10.6,0.1-20.6,4.4-28,11.8
					C40.1,40.1,38.8,40.1,38,39.3z M100.8,98.4c0.8,0.8,0.9,2.1,0,3c-8.7,8.7-20,13.2-31.5,13.2c-10.8,0-21.8-3.9-30.2-11.8v3.7
					c0,1.1-0.9,2.1-2.1,2.1l0,0c-1.1,0-2.1-0.9-2.1-2.1l-0.1-8.7c0-1.1,0.9-2.1,2.1-2.1l8.8-0.1l0,0c1.1,0,2.1,0.9,2.1,2.1
					c0,1.1-0.9,2.1-2.1,2.1H42c15.8,14.6,40.5,14.2,55.6-1.2C98.6,97.7,100,97.7,100.8,98.4z"/>
				<path id="Shape_1_" class="st0" d="M84.7,71.4c-5.8-1.5-8.4-3.2-9.3-4.4c0.3-0.3,0.7-0.7,1-1c3.9-4.4,3.2-11.6,3.2-12.5
					c-0.4-8.7-7-10.8-10.8-10.7c-3.8-0.1-10.4,2-10.8,10.7c-0.1,0.9-0.7,8.2,3.2,12.5c0.3,0.4,0.8,0.8,1.2,1.1
					c-1,1.1-3.6,2.8-9.2,4.2c-1.8,0.5-3.2,1.6-4.1,3.3c0.7,0.4,1.9,1,3.8,1.6c0.3-0.4,0.7-0.8,1.3-0.9c7.6-1.9,10.7-4.5,12.1-6.5
					c0.7,0.1,1.5,0.2,2.2,0.2h0.1h0.1H69c0.9,0,1.7-0.1,2.5-0.3c1.2,2,4.4,4.6,12.1,6.6c0.6,0.1,1,0.5,1.3,1
					c1.9-0.6,3.1-1.1,3.8-1.6C88,73.2,86.6,71.9,84.7,71.4z M68.9,65.1c-1.9,0-3.4-0.6-4.4-1.8c-2.3-2.6-2.3-7.6-2.1-9.4v-0.1
					c0.3-6.3,4.5-6.8,6.1-6.8h0.2h0.1c1.5-0.1,6.1,0.2,6.5,6.8v0.1c0.2,1.7,0.1,6.7-2.1,9.4C72.3,64.5,70.8,65.1,68.9,65.1z"/>
				<path id="Shape_2_" class="st0" d="M54.3,80c-5.8-1.5-8.4-3.2-9.3-4.4c0.3-0.3,0.7-0.7,1-1c4-4.3,3.3-11.6,3.3-12.5
					c-0.4-8.7-7-10.8-10.8-10.7c-3.8-0.1-10.4,2-10.8,10.7c-0.1,0.9-0.7,8.2,3.2,12.5c0.3,0.4,0.8,0.8,1.2,1.1
					c-1,1.1-3.6,2.8-9.2,4.2c-3.5,0.9-5.4,4.2-5,8.9c0.1,1.1,1,1.9,2.1,1.9h0.1c1.1-0.1,2-1.1,1.9-2.2c-0.1-1.6,0-4.1,1.9-4.6
					c7.7-1.9,10.7-4.6,12.1-6.5c0.7,0.1,1.5,0.2,2.2,0.2h0.1h0.1h0.1c0.9,0,1.7-0.1,2.5-0.3c1.2,2,4.4,4.6,12.1,6.6
					c1.9,0.4,2,3.1,1.9,4.6c-0.1,1.1,0.8,2.1,1.9,2.2h0.1c1.1,0,2-0.9,2.1-1.9C59.7,84.3,57.8,80.9,54.3,80z M38.5,73.7L38.5,73.7
					c-2,0-3.3-0.6-4.5-1.8c-2.2-2.7-2.2-7.7-2-9.4v-0.1c0.3-6.3,4.5-6.8,6.1-6.8h0.2h0.1c1.5-0.1,6.1,0.2,6.5,6.8v0.1
					c0.2,1.7,0.1,6.7-2.1,9.4C41.9,73.1,40.5,73.7,38.5,73.7z"/>
				<path id="Shape_3_" class="st0" d="M115.6,79.9c-5.8-1.5-8.4-3.2-9.3-4.4c0.3-0.3,0.7-0.7,1-1c3.9-4.4,3.2-11.6,3.2-12.5
					c-0.4-8.7-7-10.8-10.8-10.7C96,51.2,89.4,53.3,89,62c-0.1,0.9-0.7,8.2,3.2,12.5c0.3,0.4,0.8,0.8,1.2,1.1c-1,1.1-3.6,2.8-9.2,4.2
					c-3.5,0.9-5.4,4.2-5,8.9c0.1,1.1,1,1.9,2.1,1.9h0.2c1.1-0.1,2-1.1,1.9-2.2c-0.1-1.6,0-4.1,1.9-4.6c7.6-1.9,10.7-4.5,12.1-6.5
					c0.7,0.1,1.5,0.2,2.2,0.2h0.1h0.1h0.1c0.9,0,1.7-0.1,2.5-0.3c1.2,2,4.4,4.6,12.1,6.6c1.9,0.4,2,3.1,1.9,4.6
					c-0.1,1.1,0.8,2.1,1.9,2.2h0.1c1.1,0,2-0.9,2.1-1.9C121.1,84.2,119.2,80.8,115.6,79.9z M99.8,73.5c-1.9,0-3.4-0.6-4.4-1.8
					c-2.3-2.6-2.3-7.6-2.1-9.4v-0.1c0.3-6.3,4.5-6.8,6.1-6.8h0.2h0.1c1.5-0.1,6.1,0.2,6.5,6.8v0.1c0.2,1.7,0.1,6.7-2.1,9.4
					C103.2,73,101.7,73.5,99.8,73.5z"/>
				<ellipse id="Oval" class="st1" cx="69.1" cy="68.9" rx="68.9" ry="68.4"/>
			</g>
		</g>
	</g>
</g>
</svg>
