<?xml version="1.0" encoding="utf-8"?>
<!-- Generator: Adobe Illustrator 27.0.0, SVG Export Plug-In . SVG Version: 6.00 Build 0)  -->
<svg version="1.1" id="Layer_2_00000168814405003215403110000002388558694662160824_"
	 xmlns="http://www.w3.org/2000/svg" xmlns:xlink="http://www.w3.org/1999/xlink" x="0px" y="0px" viewBox="0 0 160 94.2"
	 style="enable-background:new 0 0 160 94.2;" xml:space="preserve">
<style type="text/css">
	.st0{fill:#4C4C4C;}
	.st1{fill:#33AA4F;}
	.st2{fill:#CEA217;}
	.st3{fill:#D65B16;}
</style>
<path class="st0" d="M95.2,74.8c1.9,6.9-1.1,14.1-7.4,17.9c-6.2,3.7-13.5,3.1-18.6-2.2c-8.5-8.9-16.7-17.9-24.9-27.1
	c-1.1-1.2-1.9-4.1-1.2-5.2c0.7-1.1,3.5-1.8,5.2-1.4C60.2,59,72.1,61.4,83.9,64C90.2,65.4,93.6,68.9,95.2,74.8L95.2,74.8z"/>
<g>
	<g>
		<path class="st1" d="M-0.5,79.8h23c0.1-19.3,9.8-36.3,24.5-46.6L36,13C14.1,27.2-0.4,51.8-0.5,79.8z"/>
		<path class="st2" d="M79.5,0.1c-12.9,0-25.1,3.1-35.9,8.5l10.9,20.2c7.6-3.7,16-5.8,25-5.8c9.4,0,18.2,2.3,26,6.3l10.5-20.4
			C105,3.3,92.6,0.1,79.5,0.1z"/>
		<path class="st3" d="M123.4,13.3l-10.5,20.6c14.2,10.3,23.5,27,23.6,46h23C159.4,52,145.1,27.6,123.4,13.3z"/>
	</g>
</g>
</svg>
