<?xml version="1.0" encoding="UTF-8"?><svg id="Layer_2" xmlns="http://www.w3.org/2000/svg" viewBox="0 0 159.99 94.2"><defs><style>.cls-1{fill:#cea217;}.cls-2{fill:#d65b16;}.cls-3{fill:#33aa4f;}.cls-4{fill:#4c4c4c;}</style></defs><g id="Layer_1-2"><g><path class="cls-4" d="M95.09,78.27c-.01,7.19-4.8,13.33-11.93,15.31-6.93,1.92-13.82-.63-17.32-7.12-5.82-10.8-11.33-21.77-16.72-32.79-.73-1.49-.73-4.44,.22-5.32,.99-.91,3.86-.75,5.39,0,10.86,5.33,21.65,10.83,32.33,16.5,5.72,3.03,8.04,7.33,8.02,13.42Z"/><path class="cls-2" d="M159.99,79.73c-.05-20.46-7.79-39.11-20.47-53.22l-15.84,15.84c8.65,10.04,13.89,23.1,13.94,37.38h22.38Z"/><path class="cls-1" d="M134.63,21.5C121.09,8.84,103.15,.82,83.35,0V22.39c13.63,.78,25.97,6.31,35.44,14.94l15.84-15.84Z"/><path class="cls-3" d="M0,79.73H22.38c.1-30.51,23.91-55.43,53.97-57.31V0C33.92,1.91,.1,36.85,0,79.73Z"/></g></g></svg>