<?xml version="1.0" encoding="utf-8"?>
<!-- Generator: Adobe Illustrator 21.0.0, SVG Export Plug-In . SVG Version: 6.00 Build 0)  -->
<svg version="1.1"
	 id="Calque_1" xmlns:cc="http://creativecommons.org/ns#" xmlns:dc="http://purl.org/dc/elements/1.1/" xmlns:inkscape="http://www.inkscape.org/namespaces/inkscape" xmlns:rdf="http://www.w3.org/1999/02/22-rdf-syntax-ns#" xmlns:sodipodi="http://sodipodi.sourceforge.net/DTD/sodipodi-0.dtd" xmlns:svg="http://www.w3.org/2000/svg"
	 xmlns="http://www.w3.org/2000/svg" xmlns:xlink="http://www.w3.org/1999/xlink" x="0px" y="0px" viewBox="0 0 141.7 141.7"
	 style="enable-background:new 0 0 141.7 141.7;" xml:space="preserve">
<style type="text/css">
	.st0{fill:#B900A2;}
	.st1{font-family:'MyriadPro-Regular';}
	.st2{font-size:31px;}
</style>
<g transform="translate(0,-952.36218)">
	<g transform="matrix(0.53488372,0,0,0.53488372,32.790695,485.7499)">
	</g>
	<path class="st0" d="M21.5,962.8c-0.7,0.1-1.2,0.7-1.2,1.4v97.9c0,0.8,0.6,1.4,1.4,1.5c0.8,0,1.4-0.6,1.5-1.4l0,0v-96.5h55.6
		L98.1,985v42.6c0,0.8,0.6,1.4,1.4,1.5c0.8,0,1.4-0.6,1.5-1.4l0,0v-43.2c0-0.4-0.1-0.8-0.4-1l-20.2-20.2c-0.3-0.3-0.6-0.4-1-0.4
		H21.8C21.7,962.8,21.6,962.8,21.5,962.8z M21.5,1069.4c-0.8,0.1-1.4,0.8-1.3,1.6c0.1,0.8,0.8,1.4,1.6,1.3l0,0h59.5
		c0.8,0,1.4-0.6,1.5-1.4c0-0.8-0.6-1.4-1.4-1.5l0,0H21.8C21.7,1069.4,21.6,1069.4,21.5,1069.4z"/>
	<path class="st0" d="M79.2,964.2c-0.7,0.1-1.3,0.7-1.3,1.5v18.7c0,0.8,0.6,1.4,1.4,1.4H98c0.8,0,1.4-0.6,1.5-1.4
		c0-0.8-0.6-1.4-1.4-1.5l0,0H80.8v-17.3c0-0.8-0.6-1.5-1.4-1.5C79.4,964.2,79.3,964.2,79.2,964.2z"/>
	<path class="st0" d="M53.2,1052.1c-0.8,0.1-1.4,0.8-1.3,1.6c0.1,0.8,0.8,1.4,1.6,1.3l0,0h26.7c0.8,0,1.4-0.6,1.5-1.4
		s-0.6-1.4-1.4-1.5l0,0H53.5C53.4,1052.1,53.3,1052.1,53.2,1052.1z"/>
	<path class="st0" d="M46.1,1043.4c-0.4,0-0.7,0.2-0.9,0.5l-7.6,8.9l-3.2-3.2c-0.6-0.6-1.5-0.6-2,0c-0.6,0.6-0.6,1.5,0,2l0,0
		l4.3,4.3c0.6,0.6,1.5,0.6,2,0l0.1-0.1l8.6-10.1c0.5-0.6,0.5-1.5-0.1-2C46.9,1043.5,46.5,1043.4,46.1,1043.4z"/>
	<path class="st0" d="M53.2,1030.5c-0.8,0.1-1.4,0.8-1.3,1.6c0.1,0.8,0.8,1.4,1.6,1.3H88c0.8,0,1.4-0.6,1.5-1.4
		c0-0.8-0.6-1.4-1.4-1.5l0,0H53.5C53.4,1030.5,53.3,1030.5,53.2,1030.5z"/>
	<path class="st0" d="M46.1,1021.8c-0.4,0-0.7,0.2-0.9,0.5l-7.6,8.9l-3.2-3.2c-0.6-0.6-1.5-0.6-2,0c-0.6,0.6-0.6,1.5,0,2l0,0
		l4.3,4.3c0.6,0.6,1.5,0.6,2,0l0.1-0.1l8.6-10.1c0.5-0.6,0.5-1.5-0.1-2C46.9,1021.9,46.5,1021.8,46.1,1021.8z"/>
	<path class="st0" d="M53.2,1008.9c-0.8,0.1-1.4,0.8-1.3,1.6c0.1,0.8,0.8,1.4,1.6,1.3H88c0.8,0,1.4-0.6,1.5-1.4
		c0-0.8-0.6-1.4-1.4-1.5l0,0H53.5C53.4,1008.9,53.3,1008.9,53.2,1008.9z"/>
	<path class="st0" d="M46.1,1000.2c-0.4,0-0.7,0.2-0.9,0.5l-7.6,8.9l-3.2-3.2c-0.6-0.6-1.5-0.6-2,0c-0.6,0.6-0.6,1.5,0,2l4.3,4.3
		c0.6,0.6,1.5,0.6,2,0l0.1-0.1l8.6-10.1c0.5-0.6,0.5-1.5-0.1-2C46.9,1000.3,46.5,1000.2,46.1,1000.2z"/>
	<g transform="matrix(0.53488372,0,0,0.53488372,-235.34762,517.84249)">
	</g>
	<g transform="matrix(0.53488372,0,0,0.53488372,-174.34761,553.84249)">
	</g>
	<g transform="matrix(0.3782199,0.37821991,-0.37821991,0.3782199,270.72564,719.64834)">
	</g>
	<path class="st0" d="M103.9,1034.8c14.3,0,25.9,11.6,25.9,25.9s-11.6,25.9-25.9,25.9S78,1075,78,1060.7
		C77.9,1046.4,89.6,1034.8,103.9,1034.8z M103.9,1037.7c-12.7,0-23,10.3-23,23s10.3,23,23,23s23-10.3,23-23
		S116.6,1037.7,103.9,1037.7z"/>
	<text transform="matrix(1 0 0 1 93.9485 1070.0792)" class="st0 st1 st2">€</text>
</g>
</svg>
