<?xml version="1.0" standalone="no"?>
<!DOCTYPE svg PUBLIC "-//W3C//DTD SVG 1.1//EN" "http://www.w3.org/Graphics/SVG/1.1/DTD/svg11.dtd" >
<svg>
<metadata>
Created by FontForge 20090622 at Fri Jan 19 15:33:46 2018
 By deploy user
&#194;&#169; 1989, 1990, 2001, 2002 Adobe Systems Incorporated. All rights reserved.
</metadata>
<defs>
<font id="SouvenirStd-BoldItalic" horiz-adv-x="720" >
  <font-face 
    font-family="ITC Souvenir Std Medium"
    font-weight="700"
    font-style="italic"
    font-stretch="normal"
    units-per-em="1000"
    panose-1="2 8 9 5 5 7 10 9 2 4"
    ascent="762"
    descent="-238"
    x-height="476"
    cap-height="732"
    bbox="-167.043 -235 1256 968"
    underline-thickness="50"
    underline-position="-50"
    slope="-10"
    unicode-range="U+0020-U+FB02"
  />
<missing-glyph horiz-adv-x="561" 
d="M61 0v700h500v-700h-500zM311 395l170 255h-340zM341 350l170 -255v510zM141 50h340l-170 255zM111 605v-510l170 255z" />
    <glyph glyph-name="f_i" unicode="fi" horiz-adv-x="760" 
d="M92 476h44q16 76 38 123.5t62 82t101 48.5t153 14q153 0 209.5 -23.5t56.5 -84.5q0 -47 -32.5 -75.5t-87.5 -28.5q-39 0 -71.5 22t-32.5 59q0 2 2 12t2 19q0 14 -80 14q-37 0 -55.5 -10.5t-33 -50t-23.5 -121.5h312q4 0 18 2t24 2q15 0 24.5 -13t9.5 -34
q0 -17 -27 -146.5t-27 -138.5q0 -20 26 -31t26 -31q0 -37 -102 -67.5t-131 -30.5q-47 0 -47 50q0 30 30 162.5t30 157.5q0 24 -29 24h-149q-38 -308 -121.5 -444t-224.5 -136q-58 0 -92 21.5t-34 55.5q0 30 19.5 50.5t49.5 20.5q23 0 36.5 -9.5t17 -21.5t10 -21.5t18.5 -9.5
q36 0 58.5 111.5t54.5 382.5h-36q-40 0 -40 39q0 25 12 40t32 15z" />
    <glyph glyph-name="f_l" unicode="fl" horiz-adv-x="800" 
d="M100 476h36q25 132 93.5 200t200.5 68h306q28 0 39 -8.5t11 -29.5q0 -8 -51 -253.5t-51 -282.5q0 -22 11.5 -34t25.5 -14t25.5 -9t11.5 -21q0 -27 -109 -65.5t-146 -38.5q-47 0 -47 49q0 46 52 299t52 279q0 27 -14.5 35t-71.5 8q-69 0 -93 -33t-41 -149h64q42 0 42 -40
q0 -54 -64 -54h-50q-16 -113 -34.5 -197t-46.5 -159t-63.5 -122.5t-86.5 -74.5t-115 -27q-58 0 -92 22t-34 55q0 30 19.5 50.5t49.5 20.5q23 0 36.5 -9.5t16.5 -21.5t9.5 -21.5t17.5 -9.5q13 0 23.5 8.5t18.5 31t14 47.5t13 71.5t12.5 88.5l15 114t18.5 133h-22q-30 0 -42 9
t-12 30q0 55 52 55z" />
    <glyph glyph-name=".notdef" horiz-adv-x="561" 
d="M61 0v700h500v-700h-500zM311 395l170 255h-340zM341 350l170 -255v510zM141 50h340l-170 255zM111 605v-510l170 255z" />
    <glyph glyph-name=".null" horiz-adv-x="0" 
 />
    <glyph glyph-name="nonmarkingreturn" horiz-adv-x="333" 
 />
    <glyph glyph-name="space" unicode=" " horiz-adv-x="360" 
 />
    <glyph glyph-name="exclam" unicode="!" horiz-adv-x="420" 
d="M408 677q0 -15 -4 -31t-16 -48.5l-26.5 -70.5l-44 -117l-60.5 -168q-17 -48 -69 -48q-30 0 -38 11.5t-9 46.5q-2 104 -6.5 217.5t-4.5 160.5q0 55 27.5 78.5t92.5 23.5q98 0 128 -11t30 -44zM58 52q0 45 47 78.5t95 33.5q39 0 62.5 -16.5t23.5 -47.5q0 -45 -47 -78.5
t-95 -33.5q-39 0 -62.5 16.5t-23.5 47.5z" />
    <glyph glyph-name="quotedbl" unicode="&#x22;" horiz-adv-x="333" 
d="M102 744q58 0 58 -69q0 -33 -19 -216q-3 -24 -9.5 -34.5t-25.5 -10.5q-24 0 -32 10.5t-11 34.5q-19 183 -19 216q0 69 58 69zM291 744q58 0 58 -69q0 -33 -19 -216q-3 -24 -9.5 -34.5t-25.5 -10.5q-24 0 -32 10.5t-11 34.5q-19 183 -19 216q0 69 58 69z" />
    <glyph glyph-name="numbersign" unicode="#" 
d="M588 304l-4 -98h-90l-29 -206h-105l29 206h-96l-29 -206h-105l29 206h-88l4 98h98l18 124h-88l4 98h98l29 206h105l-29 -206h96l29 206h105l-29 -206h80l-4 -98h-90l-18 -124h80zM421 428h-96l-18 -124h96z" />
    <glyph glyph-name="dollar" unicode="$" 
d="M20 159q0 38 24.5 59.5t61.5 21.5q28 0 44 -9t22 -23t9.5 -31.5t8.5 -35t15.5 -31.5t35 -23t62.5 -9q63 0 105 31.5t42 80.5q0 29 -26 50.5t-65.5 33.5t-85.5 30t-85.5 37.5t-65.5 57.5t-26 90q0 102 91 172t197 71q10 80 21.5 102t43.5 22q39 0 39 -33q0 -29 -14 -91
q202 -25 202 -130q0 -36 -28 -58t-65 -22q-29 0 -47 14t-18 36q0 3 1 13t1 21q0 20 -25.5 34t-62.5 14q-53 0 -91.5 -29t-38.5 -69q0 -25 19.5 -45t50.5 -34t69 -27.5t76 -30t69 -36.5t50.5 -52.5t19.5 -73.5q0 -71 -48.5 -130t-117 -90.5t-138.5 -36.5q-10 -89 -23 -112.5
t-43 -23.5q-42 0 -42 30q0 14 18 106q-36 2 -75 11.5t-78 27.5t-64 49.5t-25 70.5z" />
    <glyph glyph-name="percent" unicode="%" horiz-adv-x="900" 
d="M298 654q0 40 -28 40q-27 0 -47.5 -50.5t-28.5 -103t-8 -84.5q0 -40 28 -40q27 0 47.5 50.5t28.5 103t8 84.5zM221 60l405 651q8 13 12 18t14 10t24 5q35 0 35 -24q0 -17 -16 -43l-417 -665q-15 -24 -44 -24q-34 0 -34 28q0 10 21 44zM728 276q0 40 -28 40
q-27 0 -47.5 -50.5t-28.5 -103t-8 -84.5q0 -40 28 -40q27 0 47.5 50.5t28.5 103t8 84.5zM70 510q0 95 55.5 164.5t146.5 69.5q65 0 103.5 -39.5t38.5 -104.5q0 -95 -55.5 -164.5t-146.5 -69.5q-65 0 -103.5 39.5t-38.5 104.5zM500 132q0 95 55.5 164.5t146.5 69.5
q65 0 103.5 -39.5t38.5 -104.5q0 -95 -55.5 -164.5t-146.5 -69.5q-65 0 -103.5 39.5t-38.5 104.5z" />
    <glyph glyph-name="ampersand" unicode="&#x26;" horiz-adv-x="910" 
d="M686 424h166q42 0 42 -30q0 -24 -45 -44q-21 -9 -48 -40.5l-68.5 -79t-88.5 -83.5q63 -61 133 -61q13 0 32 6t25 6q22 0 22 -26q0 -32 -62.5 -58t-148.5 -26q-95 0 -163 48q-101 -48 -219 -48q-48 0 -92 9t-85.5 29t-66.5 57t-25 87q0 34 16 65.5t37.5 53t55.5 43.5
t57.5 33.5t57.5 25.5q-40 78 -40 132q0 97 85.5 159t218.5 62q105 0 161.5 -36t56.5 -97q0 -41 -22.5 -77.5t-60 -62.5t-73 -43t-75.5 -30q66 -125 125 -190q86 68 86 115q0 19 -23 34t-23 32q0 35 52 35zM398 573q0 -28 30 -97q41 22 70.5 53.5t29.5 67.5q0 23 -15 41
t-40 18q-34 0 -54.5 -25t-20.5 -58zM200 185q0 -49 33 -79t83 -30q53 0 100 25q-68 62 -155 210q-61 -55 -61 -126z" />
    <glyph glyph-name="quotesingle" unicode="'" horiz-adv-x="222" 
d="M144 744q58 0 58 -69q0 -33 -19 -216q-3 -24 -9.5 -34.5t-25.5 -10.5q-24 0 -32 10.5t-11 34.5q-19 183 -19 216q0 69 58 69z" />
    <glyph glyph-name="parenleft" unicode="(" horiz-adv-x="400" 
d="M34 174q0 108 43.5 217t104 184t122.5 122t102 47q17 0 27.5 -9t10.5 -23q0 -11 -21.5 -43l-52 -81t-61 -110.5t-52 -149.5t-21.5 -181q0 -88 12.5 -159t25 -107.5t12.5 -40.5q0 -23 -14 -36.5t-39 -13.5q-45 0 -90.5 50t-77 141t-31.5 193z" />
    <glyph glyph-name="parenright" unicode=")" horiz-adv-x="400" 
d="M378 360q0 -108 -43.5 -217t-104 -184t-122.5 -122t-102 -47q-17 0 -27.5 9t-10.5 23q0 11 21.5 43l52 81t61 110.5t52 149.5t21.5 181q0 88 -12.5 159t-25 107.5t-12.5 40.5q0 23 14 36.5t39 13.5q45 0 90.5 -50t77 -141t31.5 -193z" />
    <glyph glyph-name="asterisk" unicode="*" horiz-adv-x="750" 
d="M366 524v2q-9 2 -36 7t-47.5 10t-43.5 14.5t-36 25.5t-13 38q0 25 18.5 46t43.5 21q54 0 123 -139q2 -5 3 -7l2 2q-26 104 -26 130q0 70 66 70q26 0 45 -16t19 -41q0 -11 -5.5 -26.5t-16 -34t-19 -31.5l-21 -31.5l-14.5 -21.5l2 -2l26 27t36.5 36.5t36 27t38.5 13.5
q27 0 45 -19t18 -46q0 -32 -25.5 -48.5t-88.5 -16.5q-32 0 -78 4l-2 -2q8 -3 43 -12t58.5 -17t45 -26t21.5 -41q0 -27 -21.5 -49.5t-47.5 -22.5q-16 0 -31.5 11t-28.5 31.5t-21 36t-18 41t-12 28.5l-2 -2q5 -18 13.5 -69.5t8.5 -67.5q0 -27 -18 -45t-45 -18
q-28 0 -48.5 18.5t-20.5 45.5q0 12 11 33t23 38.5l29 40.5t21 28l-2 2l-27 -27t-40 -38t-39.5 -28.5t-40.5 -14.5q-26 0 -42.5 20t-16.5 47q0 33 31.5 50t112.5 17q14 0 54 -2z" />
    <glyph glyph-name="plus" unicode="+" horiz-adv-x="660" 
d="M240 316v160h156v-160h160v-156h-160v-160h-156v160h-160v156h160z" />
    <glyph glyph-name="comma" unicode="," horiz-adv-x="360" 
d="M24 -129q0 10 46 54.5t46 61.5q0 5 -4 5l-10 -2q-8 -2 -13 -2q-34 0 -55.5 18t-21.5 44q0 41 39.5 71.5t94.5 30.5q45 0 75.5 -23t30.5 -61q0 -50 -43 -104t-90 -85t-67 -31q-10 0 -19 6.5t-9 16.5z" />
    <glyph glyph-name="hyphen" unicode="-" horiz-adv-x="360" 
d="M259 160h-211q-47 0 -48 43q0 113 75 113h211q47 0 48 -43q0 -113 -75 -113z" />
    <glyph glyph-name="period" unicode="." horiz-adv-x="360" 
d="M12 64q0 50 41 82t95 32q46 0 75 -22.5t29 -53.5q0 -50 -41 -82t-95 -32q-46 0 -75 22.5t-29 53.5z" />
    <glyph glyph-name="slash" unicode="/" horiz-adv-x="450" 
d="M-47 58l407 654q11 17 30.5 24.5t61.5 7.5q76 0 76 -30q0 -19 -13 -40l-407 -654q-11 -17 -30.5 -24.5t-61.5 -7.5q-76 0 -76 30q0 19 13 40z" />
    <glyph glyph-name="zero" unicode="0" 
d="M680 451q0 -123 -45.5 -228t-131 -170t-193.5 -65q-128 0 -196 80.5t-68 212.5q0 123 45.5 228t131 170t193.5 65q128 0 196 -80.5t68 -212.5zM474 568q0 90 -62 90q-39 0 -72 -66.5t-51 -156.5t-27.5 -164.5t-9.5 -106.5q0 -90 62 -90q39 0 72 66.5t51 156.5t27.5 164.5
t9.5 106.5z" />
    <glyph glyph-name="one" unicode="1" 
d="M510 0h-356q-48 0 -48 38q0 26 19.5 36t43.5 9t46 11t27 42q11 69 29 172.5l28.5 167t10.5 78.5q0 21 -18.5 27t-40.5 3.5t-40.5 5t-18.5 31.5q0 12 7.5 21.5t30 18.5t40 14l60.5 17q26 7 86 29.5t90 22.5q66 0 66 -43q0 -35 -45 -281t-45 -291q0 -23 15.5 -33t33.5 -10
t33.5 -8t15.5 -28q0 -24 -19 -37t-51 -13z" />
    <glyph glyph-name="two" unicode="2" 
d="M516 0h-466q-40 0 -40 40q0 42 44.5 96t107.5 107.5l126 109.5t107.5 120.5t44.5 122.5q0 29 -16 45.5t-44 16.5q-36 0 -67 -26t-31 -69q0 -8 6 -23t6 -25q0 -24 -28.5 -48.5t-76.5 -24.5q-91 0 -91 83q0 91 102 155t233 64q114 0 178.5 -47t64.5 -125q0 -41 -19 -83
t-45.5 -75t-70 -72t-76.5 -64l-82 -61l-71 -53v-2h122q48 0 79 11.5t49 23t36 11.5q13 0 22.5 -7t9.5 -20q0 -12 -52 -130q-13 -29 -26 -40t-36 -11z" />
    <glyph glyph-name="three" unicode="3" 
d="M468 396v-2q80 -7 126 -49t46 -106q0 -106 -95 -178.5t-262 -72.5q-123 0 -193 36t-70 101q0 40 27.5 67.5t77.5 27.5q37 0 54 -15.5t21 -61.5q4 -45 17.5 -61t44.5 -16q45 0 79.5 53t34.5 124q0 45 -19.5 67.5t-47 25.5t-55 2.5t-47 7t-19.5 30.5q0 29 17 38.5t73 9.5
q65 0 104.5 56t39.5 127q0 51 -48 51q-28 0 -44 -15.5t-16 -43.5q0 -5 1 -16t1 -17q0 -28 -26 -46t-71 -18q-47 0 -70 17t-23 45q0 76 82.5 128t205.5 52q121 0 187.5 -41.5t66.5 -126.5q0 -65 -52 -117t-147 -63h-1z" />
    <glyph glyph-name="four" unicode="4" 
d="M316 178h-226q-50 0 -50 34q0 38 81.5 164t201.5 244q79 78 114 95t89 17q73 0 96.5 -10.5t23.5 -37.5q0 -6 -0.5 -12.5t-3 -21t-5 -31.5t-8.5 -51.5l-12.5 -72.5l-17.5 -102.5l-23 -134.5h68q38 0 38 -29q0 -24 -17 -37.5t-45 -13.5h-56q-12 -69 -12 -78q0 -19 20 -30
t20 -30t-17 -29.5t-45 -10.5h-251q-53 0 -53 34q0 17 8.5 24.5t21 11t25.5 11t23 31.5t12 66zM154 258h176q29 227 84 344l-2 2q-58 -59 -132 -159t-126 -187z" />
    <glyph glyph-name="five" unicode="5" 
d="M290 586l-38 -148q61 34 155 34q115 0 184 -52.5t69 -138.5q0 -91 -54 -159t-136.5 -101t-177.5 -33q-111 0 -182.5 39t-71.5 95q0 42 33.5 72t76.5 30q33 0 59.5 -15.5t26.5 -47.5q0 -7 -4 -20.5t-4 -20.5q0 -21 15.5 -33.5t39.5 -12.5q42 0 81.5 55t39.5 144
q0 47 -24 80t-69 33q-40 0 -85.5 -29t-59.5 -29q-15 0 -24.5 10t-9.5 25q0 9 12 53.5l33.5 126.5t37.5 155q11 46 34 46q25 0 97 -6q74 -6 112 -6q43 0 121 6q80 6 112 6q27 0 27 -22q0 -49 -75 -97.5t-173 -48.5q-30 0 -60.5 2t-64.5 4.5t-53 3.5z" />
    <glyph glyph-name="six" unicode="6" 
d="M342 438l2 -2q58 32 119 32q92 0 149.5 -48.5t57.5 -138.5q0 -128 -103.5 -210.5t-247.5 -82.5q-125 0 -196 61.5t-71 183.5q0 123 70 241.5t190 194t254 75.5q62 0 94.5 -5.5t41 -14t8.5 -22.5q0 -44 -86 -44q-59 0 -106 -19t-80.5 -54.5t-54 -68.5t-41.5 -78zM288 155
q0 -81 52 -81q40 0 72 66t32 178q0 72 -48 72q-44 0 -76 -66.5t-32 -168.5z" />
    <glyph glyph-name="seven" unicode="7" 
d="M332 0h-197q-39 0 -39 24q0 29 168.5 248.5t249.5 297.5h-250q-31 0 -51.5 -14t-35 -28t-30.5 -14q-31 0 -31 34q0 18 9.5 63.5t20.5 78.5q9 25 27.5 33.5t56.5 8.5h444q38 0 38 -24q0 -11 -12 -32l-38.5 -66.5t-60.5 -109.5t-87.5 -184t-110.5 -268q-19 -48 -71 -48z
" />
    <glyph glyph-name="eight" unicode="8" 
d="M200 356v2q-96 46 -96 149q0 94 91 165.5t227 71.5q274 0 274 -150q0 -56 -40.5 -100t-105.5 -64q53 -29 83.5 -74.5t30.5 -99.5q0 -86 -55 -148.5t-136.5 -91t-176.5 -28.5q-128 0 -200 47.5t-72 132.5q0 64 52.5 118.5t123.5 69.5zM354 576q0 -26 17 -44.5t53 -38
t42 -23.5q50 62 50 110q0 34 -21 56t-55 22q-33 0 -59.5 -24.5t-26.5 -57.5zM218 177q0 -45 28 -74t73 -29q42 0 70.5 28t28.5 64q0 22 -16 44t-33 34.5t-50.5 34t-46.5 31.5q-54 -68 -54 -133z" />
    <glyph glyph-name="nine" unicode="9" 
d="M390 294l-2 2q-58 -32 -119 -32q-92 0 -149.5 48.5t-57.5 138.5q0 128 103.5 210.5t247.5 82.5q125 0 196 -61.5t71 -183.5q0 -123 -70 -241.5t-190 -194t-254 -75.5q-62 0 -94.5 5.5t-41 14t-8.5 22.5q0 44 86 44q59 0 106 19t80.5 54.5t54 68.5t41.5 78zM444 577
q0 81 -52 81q-40 0 -72 -66t-32 -178q0 -72 48 -72q44 0 76 66.5t32 168.5z" />
    <glyph glyph-name="colon" unicode=":" horiz-adv-x="360" 
d="M12 64q0 50 41 82t95 32q46 0 75 -22.5t29 -53.5q0 -50 -41 -82t-95 -32q-46 0 -75 22.5t-29 53.5zM56 326q0 50 41 82t95 32q46 0 75 -22.5t29 -53.5q0 -50 -41 -82t-95 -32q-46 0 -75 22.5t-29 53.5z" />
    <glyph glyph-name="semicolon" unicode=";" horiz-adv-x="360" 
d="M24 -129q0 10 46 54.5t46 61.5q0 5 -4 5l-10 -2q-8 -2 -13 -2q-34 0 -55.5 18t-21.5 44q0 41 39.5 71.5t94.5 30.5q45 0 75.5 -23t30.5 -61q0 -50 -43 -104t-90 -85t-67 -31q-10 0 -19 6.5t-9 16.5zM56 326q0 50 41 82t95 32q46 0 75 -22.5t29 -53.5q0 -50 -41 -82
t-95 -32q-46 0 -75 22.5t-29 53.5z" />
    <glyph glyph-name="less" unicode="&#x3c;" horiz-adv-x="660" 
d="M548 121v-158l-476 208v134l476 208v-158l-259 -117z" />
    <glyph glyph-name="equal" unicode="=" horiz-adv-x="660" 
d="M556 426v-156h-476v156h476zM556 206v-156h-476v156h476z" />
    <glyph glyph-name="greater" unicode="&#x3e;" horiz-adv-x="660" 
d="M92 -37v158l259 117l-259 117v158l476 -208v-134z" />
    <glyph glyph-name="question" unicode="?" horiz-adv-x="570" 
d="M319 744q127 0 193 -45.5t66 -124.5q0 -45 -18.5 -83t-46 -62t-61.5 -44.5t-63.5 -32.5t-54 -23.5t-30.5 -20.5q-14 -18 -19.5 -48.5t-18.5 -45t-50 -14.5q-60 0 -60 38q0 11 7 51.5t9 56.5q3 26 22 45t43 34t48 35t40.5 59t16.5 95q0 22 -16 39t-35 17q-24 0 -36 -15
t-17.5 -36.5t-13.5 -43t-32 -36.5t-65 -15q-36 0 -57.5 16.5t-21.5 43.5q0 66 73.5 113t197.5 47zM90 52q0 45 47 78.5t95 33.5q39 0 62.5 -16.5t23.5 -47.5q0 -45 -47 -78.5t-95 -33.5q-39 0 -62.5 16.5t-23.5 47.5z" />
    <glyph glyph-name="at" unicode="@" horiz-adv-x="880" 
d="M398 320q0 -39 14 -64.5t32 -25.5q50 0 84 67t34 132q0 40 -11 55.5t-32 15.5q-39 0 -80 -54.5t-41 -125.5zM586 514l10 36h84l-62 -259q-2 -12 -2 -21q0 -56 29 -56q34 0 68.5 69t34.5 136q0 93 -77.5 166t-198.5 73q-45 0 -89 -16.5t-85.5 -50t-67.5 -96.5t-26 -145
q0 -120 85.5 -198t193.5 -78q67 0 115 13t102 39l10 -69q-122 -69 -226 -69q-102 0 -184 35.5t-130 90.5t-73 116.5t-25 119.5q0 172 117 283t283 111q153 0 256.5 -92t103.5 -230q0 -59 -23 -117t-71 -100.5t-109 -42.5q-48 0 -74 29t-25 49h-2q-8 -19 -45.5 -48t-80.5 -30
q-39 -1 -72.5 32t-33.5 101q0 38 13.5 83.5t39 88.5t69 72t95.5 29q15 0 25.5 -2.5t18.5 -10t11 -11t10 -16t8 -14.5z" />
    <glyph glyph-name="A" unicode="A" horiz-adv-x="770" 
d="M436 232h-249q-2 -5 -18.5 -36.5t-27.5 -56.5t-11 -37q0 -18 22 -34.5t22 -32.5q0 -19 -14.5 -27t-50.5 -8h-135q-40 0 -40 31q0 17 9.5 27t22 15t28 18.5t25.5 34.5q85 184 208 381q56 90 86.5 135t57 69.5t42.5 28.5t47 4q28 0 41.5 -2.5t33.5 -21.5t33 -54.5t34 -107
t43.5 -174l54.5 -260.5q5 -26 14.5 -39t17 -14t13 -8.5t5.5 -24.5q0 -38 -48 -38h-263q-41 0 -41 33q0 16 8 25t17 11.5t17 9.5t8 20q0 4 -12 133zM372 567l-8 -13l-134 -234h194q-17 135 -52 247z" />
    <glyph glyph-name="B" unicode="B" horiz-adv-x="830" 
d="M176 732h379q124 0 179.5 -34t55.5 -106q0 -62 -53.5 -112t-120.5 -74v-2q160 0 160 -152q0 -110 -92.5 -181t-231.5 -71h-382q-64 0 -64 35q0 14 13 25l28.5 25t19.5 35q85 465 85 505q0 17 -19 35t-19 34q0 18 18 29t44 9zM544 583q0 35 -21.5 48t-59.5 13
q-51 0 -67 -17q-21 -22 -36 -126q-3 -24 -14 -105q46 16 87 39t76 63.5t35 84.5zM530 247q0 64 -57 99q-41 -17 -141 -36q-4 -30 -15 -95t-11 -89q0 -38 53 -38q70 0 120.5 45t50.5 114z" />
    <glyph glyph-name="C" unicode="C" horiz-adv-x="810" 
d="M296 292q0 -90 49.5 -145t132.5 -55q46 0 87.5 16t66 36t47.5 36t37 16q17 0 29.5 -11.5t12.5 -27.5q0 -60 -101 -114.5t-215 -54.5q-105 0 -193.5 33.5t-147.5 108.5t-59 179q0 93 42 175.5t110 138.5t155 88.5t176 32.5q72 0 142 -22.5t107.5 -48.5t37.5 -42
q0 -103 -16.5 -142t-50.5 -39q-13 0 -22 5t-14.5 17t-8.5 21t-6.5 26.5t-5.5 25.5q-12 45 -51.5 78t-88.5 33q-63 0 -113 -32.5t-79.5 -86t-44.5 -116t-15 -129.5z" />
    <glyph glyph-name="D" unicode="D" horiz-adv-x="910" 
d="M335 0h-264q-65 0 -65 36q0 16 13 25t28.5 25t21.5 47l56 307q29 161 29 187q0 17 -19 34t-19 30q0 17 15 29t35 12h413q148 0 230.5 -74t82.5 -208q0 -93 -40.5 -193t-108.5 -153q-133 -104 -408 -104zM646 445q0 84 -46.5 141.5t-131.5 57.5q-34 0 -51 -10t-31 -47
t-23 -112l-28 -168t-27 -187q0 -32 62 -32q67 0 121.5 32.5t87.5 85t50 114t17 125.5z" />
    <glyph glyph-name="E" unicode="E" 
d="M168 732h520q25 0 37.5 -11t12.5 -38q0 -119 -63 -119q-18 0 -27.5 8t-17 20t-19 24t-42.5 20t-79 8h-32.5t-25 -4t-19.5 -7t-14 -15.5t-12 -23.5t-9 -37t-10 -49.5t-10 -67.5h140q30 0 61 22t41 22q13 0 22.5 -10.5t9.5 -23.5q0 -12 -2 -31t-7 -46.5t-17.5 -46
t-30.5 -18.5q-19 0 -40 22t-57 22h-134q-32 -165 -32 -206q0 -58 46 -58h106q35 0 62.5 14.5t41.5 32.5t31 32.5t34 14.5q45 0 45 -36q0 -31 -18 -77q-18 -47 -27 -56q-14 -13 -43 -13h-529q-55 0 -55 35q0 12 8.5 21.5t18.5 15.5t20.5 18.5t13.5 29.5q85 482 85 507
q0 17 -20 34t-20 30q0 17 15 29t41 12z" />
    <glyph glyph-name="F" unicode="F" horiz-adv-x="670" 
d="M284 0h-230q-48 0 -48 35q0 15 13 25.5t28.5 25.5t19.5 40q81 467 81 500q0 17 -20 34t-20 30q0 18 16 30t40 12h494q31 0 43.5 -14.5t12.5 -57.5q0 -60 -12 -82t-38 -22q-22 0 -34.5 14t-18 30t-26 30t-55.5 14h-72q-21 0 -32.5 -1.5t-23.5 -11t-17.5 -21t-13 -41.5
t-12 -60.5l-13.5 -90.5h135q26 0 42.5 10.5t27.5 21t25 10.5q16 0 25 -9t9 -23q0 -30 -5 -59.5t-20 -54t-38 -24.5q-5 0 -9 1t-7.5 3.5t-5 4t-5.5 6t-5 5.5q-18 20 -57 20h-124q-30 -187 -30 -220q0 -20 20 -37.5t20 -29.5q0 -19 -16.5 -31t-43.5 -12z" />
    <glyph glyph-name="G" unicode="G" horiz-adv-x="850" 
d="M490 394h276q34 0 48 -6.5t14 -21.5q0 -9 -19 -63t-19 -104q0 -9 1 -31t1 -32q0 -33 -60.5 -68t-149 -57.5t-165.5 -22.5q-103 0 -186 33.5t-136 108t-53 179.5q0 194 138 314.5t346 120.5q104 0 205 -38t101 -84q0 -144 -64 -144q-23 0 -37 18.5t-23 44.5t-22.5 52
t-45.5 44.5t-82 18.5q-103 0 -182.5 -102t-79.5 -247q0 -93 39.5 -154t107.5 -61q57 0 92 45.5t35 127.5q0 41 -46 41h-50q-44 0 -44 37q0 20 18.5 35.5t41.5 15.5z" />
    <glyph glyph-name="H" unicode="H" horiz-adv-x="910" 
d="M356 440h221q27 156 27 183q0 20 -20 37t-20 30q0 19 15 30.5t38 11.5h231q52 0 52 -34q0 -13 -8 -22.5t-18.5 -15t-21.5 -21.5t-15 -42q-75 -476 -75 -489q0 -20 20 -37t20 -29q0 -20 -17 -31t-39 -11h-214q-64 0 -64 35q0 16 12.5 25.5t27.5 23t19 39.5l36 229h-223
l-14 -82l-11 -63t-7 -42.5t-4.5 -32t-1.5 -20.5q0 -22 19 -40t19 -30q0 -23 -17 -32.5t-55 -9.5h-206q-56 0 -56 35q0 16 13 26t28.5 25t20.5 41q11 60 46.5 271t35.5 229q0 17 -20 34t-20 30q0 17 15 29t35 12h232q56 0 56 -35q0 -13 -8.5 -22t-19 -14.5t-21 -20.5
t-14.5 -37z" />
    <glyph glyph-name="I" unicode="I" horiz-adv-x="450" 
d="M176 732h224q30 0 42 -7t12 -25q0 -13 -8.5 -22t-19 -14.5t-21.5 -21.5t-15 -42q-9 -56 -32.5 -180.5l-38.5 -210.5t-15 -103q0 -18 20 -35t20 -28q0 -20 -15.5 -31.5t-39.5 -11.5h-230q-47 0 -47 33q0 10 5.5 17t13.5 12.5t17 13t16.5 21t10.5 32.5q77 479 77 497
q0 17 -20 34.5t-20 29.5q0 42 64 42z" />
    <glyph glyph-name="J" unicode="J" horiz-adv-x="650" 
d="M383 732h233q50 0 50 -32q0 -13 -8 -22t-18 -14.5t-20 -19.5t-13 -35l-69 -424q-16 -95 -100 -146t-217 -51q-120 0 -187.5 41t-67.5 113t53.5 123t148.5 51q41 0 63.5 -16t22.5 -44q0 -24 -15.5 -39t-34.5 -20.5t-34.5 -22t-15.5 -43.5q0 -26 15 -40.5t35 -14.5
q39 0 61 27.5t35 109.5q2 14 22 127t32 188.5t12 93.5q0 20 -20 37t-20 30q0 17 17 30t40 13z" />
    <glyph glyph-name="K" unicode="K" horiz-adv-x="820" 
d="M169 732h213q54 0 54 -36q0 -14 -7.5 -21.5t-17.5 -12t-21 -23t-16 -49.5l-28 -178q53 21 167.5 111t114.5 119q0 8 -15 20.5t-15 28.5q0 41 48 41h150q46 0 46 -37q0 -20 -14.5 -33.5t-34.5 -22.5t-24 -12l-198 -181q48 -79 90.5 -169.5t62.5 -149.5q9 -27 27.5 -44.5
t18.5 -36.5q0 -46 -76 -46h-210q-52 0 -52 38q0 20 22 35t22 26q0 24 -38.5 107t-61.5 116l-48 -18q-9 -58 -18 -103.5l-12.5 -63t-3.5 -31.5q0 -17 19 -34t19 -30q0 -16 -15.5 -29t-38.5 -13h-222q-50 0 -50 36q0 15 13 25t29 24t20 38q84 472 84 501q0 17 -20 34.5
t-20 30.5q0 17 16.5 30t40.5 13z" />
    <glyph glyph-name="L" unicode="L" horiz-adv-x="670" 
d="M156 732h245q55 0 55 -35q0 -10 -5 -17t-13 -12.5t-16.5 -13t-16.5 -21t-11 -32.5l-30.5 -171l-26 -143t-15 -92.5t-6.5 -68.5q0 -22 14.5 -30t53.5 -8h51q42 0 74 18t47.5 39t36 39t42.5 18q20 0 32.5 -11t12.5 -27t-34 -86q-12 -25 -17 -34t-16 -22.5t-23.5 -17.5
t-31.5 -4h-486q-36 0 -51 8t-15 27q0 13 8 22t18.5 14t21.5 21.5t15 42.5q0 1 9.5 54l20.5 119l23 136.5t20 122t8 59.5q0 17 -20 34t-20 30q0 19 14.5 30.5t31.5 11.5z" />
    <glyph glyph-name="M" unicode="M" horiz-adv-x="1000" 
d="M149 0h-85q-58 0 -58 33q0 12 8.5 21t19 15.5t21.5 23.5t15 42q78 475 78 490q0 17 -20 34.5t-20 29.5q2 42 66 43h226q14 0 23.5 -4.5t17.5 -20t13.5 -38t12.5 -66t13 -95.5l16 -135q3 -23 4 -35h2l163 330q18 36 36.5 50t46.5 14h214q46 0 46 -34q0 -13 -8 -22
t-18.5 -14.5t-21 -20.5t-14.5 -37q-11 -63 -36.5 -198.5l-38.5 -208.5t-13 -90q0 -18 19 -35t19 -28q0 -17 -13 -30.5t-30 -13.5h-238q-51 0 -51 35q0 14 27 35.5t31 42.5q40 217 98 481l-2 2l-204 -414q-15 -31 -28 -49t-27.5 -26t-25 -9.5t-31.5 -1.5q-48 0 -69 16t-27 54
l-70 442h-2q-22 -187 -39 -308.5t-23 -153t-6 -38.5q0 -20 20 -37t20 -30q0 -41 -57 -41z" />
    <glyph glyph-name="N" unicode="N" horiz-adv-x="810" 
d="M144 0h-95q-43 0 -43 34q0 15 11.5 24.5t26 24.5t18.5 40q0 1 22 121l43 243t21 138q0 16 -17 33t-17 32t15.5 28.5t44.5 13.5h180q14 0 23 -3.5t19.5 -17t19.5 -31.5t26 -55l36 -78l53 -111.5l73 -145.5h2l16 97.5t12.5 76.5l9 54.5l6.5 41.5t3.5 26.5t2 21t0.5 15.5
q0 19 -21 37.5t-21 35.5q0 36 54 36h106q50 0 50 -30q0 -18 -8.5 -27.5t-19.5 -14t-23.5 -24.5t-18.5 -57l-38 -237q-41 -251 -57 -295q-14 -39 -39 -45q-9 -2 -24 -2h-68q-23 0 -37 9.5t-45.5 58.5t-80.5 157.5l-131 300.5h-2q-68 -410 -68 -419q0 -17 19 -34t19 -30
q0 -16 -15 -29.5t-43 -13.5z" />
    <glyph glyph-name="O" unicode="O" horiz-adv-x="900" 
d="M42 313q0 120 63.5 219.5t168.5 155.5t228 56q75 0 141.5 -19t121 -57t86 -102t31.5 -147q0 -120 -63.5 -219.5t-168.5 -155.5t-228 -56q-75 0 -141.5 19t-121 57t-86 102t-31.5 147zM288 274q0 -99 36.5 -148.5t91.5 -49.5q90 0 155 106t65 276q0 99 -36.5 148.5
t-91.5 49.5q-90 0 -155 -106t-65 -276z" />
    <glyph glyph-name="P" unicode="P" horiz-adv-x="760" 
d="M166 732h389q105 0 165 -48t60 -118q0 -89 -65.5 -155t-168 -98.5t-223.5 -32.5l-10 -64.5t-7.5 -48t-4 -30.5t-1.5 -28q0 -19 20 -36.5t20 -30.5q0 -16 -15.5 -29t-38.5 -13h-225q-55 0 -55 35q0 13 8 21.5t18 13.5t20.5 21t14.5 41q77 475 77 493q0 15 -19 33t-19 36
q0 16 16.5 27t43.5 11zM370 592l-36 -224q73 3 132.5 58t59.5 127q0 45 -25.5 73t-69.5 28q-23 0 -40 -17t-21 -45z" />
    <glyph glyph-name="Q" unicode="Q" horiz-adv-x="930" 
d="M42 313q0 120 63.5 219.5t168.5 155.5t228 56q75 0 141.5 -19t121 -57t86 -102t31.5 -147q0 -148 -93 -261t-237 -152q35 -34 105 -34q9 0 26 2t26 2q30 0 51.5 -18.5t21.5 -45.5q0 -30 -31 -53t-81 -23q-85 0 -149 36t-113 116q-58 2 -110.5 14.5t-99.5 38t-81.5 63
t-54.5 91t-20 118.5zM288 274q0 -83 25.5 -131.5t67.5 -62.5q-7 35 -7 67q0 40 21.5 68.5t49.5 28.5q21 0 33 -10t12 -25q0 -5 -5 -34t-5 -50q0 -11 3 -31q67 35 110 132t43 232q0 99 -36.5 148.5t-91.5 49.5q-90 0 -155 -106t-65 -276z" />
    <glyph glyph-name="R" unicode="R" horiz-adv-x="820" 
d="M399 310l-67 -8q-34 -168 -34 -198q0 -17 19 -34t19 -28q0 -42 -53 -42h-223q-30 0 -42 8.5t-12 25.5q0 16 28.5 37.5t33.5 48.5q82 458 82 503q0 17 -20 34.5t-20 29.5q0 18 17.5 31.5t46.5 13.5h415q114 0 168.5 -37t54.5 -117q0 -72 -51.5 -127.5t-126.5 -80.5
q67 -130 85 -234q4 -24 13 -39.5t17.5 -20.5t14.5 -13t6 -19q0 -44 -71 -44h-231q-54 0 -54 33q0 15 8 24t18 13t18 14.5t8 28.5q0 97 -67 197zM378 569l-32 -183q98 13 155 52.5t57 125.5q0 41 -25.5 65.5t-68.5 24.5q-71 0 -86 -85z" />
    <glyph glyph-name="S" unicode="S" horiz-adv-x="710" 
d="M-16 161q0 31 20 53t51 22q24 0 39.5 -16.5t28 -40t29 -47t53.5 -40t91 -16.5q59 0 96.5 31t37.5 73q0 26 -20 44t-52.5 28.5t-71.5 20t-78 23.5t-71.5 34.5t-52.5 57t-20 86.5q0 113 93 191.5t250 78.5q91 0 185 -29.5t94 -64.5q0 -85 -14.5 -117.5t-46.5 -32.5
q-21 0 -32.5 12.5t-15 30.5t-11.5 40t-19.5 40t-42 30.5t-76.5 12.5q-52 0 -85 -26t-33 -63t37.5 -61t91.5 -39t108 -34t91.5 -60.5t37.5 -104.5q0 -82 -54.5 -149.5t-138 -104t-173.5 -36.5q-79 0 -152 19.5t-123.5 60t-50.5 93.5z" />
    <glyph glyph-name="T" unicode="T" horiz-adv-x="660" 
d="M389 0h-213q-56 0 -56 35q0 14 8.5 22.5t19 14t21.5 23t16 46.5q75 452 75 482q0 21 -34 21q-36 0 -61 -15.5t-35.5 -33.5t-27.5 -33.5t-38 -15.5q-38 0 -38 37q0 38 25.5 93.5t62.5 55.5h572q19 0 26.5 -1.5t13.5 -13t7 -30.5t1 -62q0 -27 -15.5 -44t-41.5 -17
q-19 0 -30.5 12.5t-15.5 27.5t-20.5 27.5t-44.5 12.5q-47 0 -58 -5.5t-14 -27.5q-3 -21 -23.5 -142l-37.5 -230.5t-17 -128.5q0 -20 20 -37t20 -29q0 -44 -67 -44z" />
    <glyph glyph-name="U" unicode="U" horiz-adv-x="820" 
d="M176 732h210q58 0 58 -36q0 -16 -12 -25.5l-27 -21.5t-20 -33q0 -1 -17.5 -70.5t-27.5 -115.5t-21 -114t-11 -112q0 -56 34.5 -92t89.5 -36q57 0 102 44.5t61 126.5q41 215 41 363q0 22 -6 36t-14 18.5t-14 11.5t-6 17q0 39 57 39h105q31 0 41.5 -8t10.5 -27
q0 -16 -5 -22t-13 -10t-16.5 -13t-17.5 -40.5t-14 -83.5q-3 -28 -8 -92.5t-9 -96t-11.5 -78t-20.5 -80.5t-31 -62q-86 -131 -291 -131q-158 0 -229.5 54t-71.5 170q0 69 39 238.5t39 176.5q0 24 -19 38t-19 30q0 37 64 37z" />
    <glyph glyph-name="V" unicode="V" horiz-adv-x="730" 
d="M88 732h223q59 0 59 -38q0 -16 -11 -25.5t-24 -13.5t-24 -16t-11 -32q0 -76 31 -219t69 -212q87 138 150.5 266.5t63.5 167.5q0 15 -9.5 25.5t-21.5 16t-21.5 15t-9.5 22.5q0 19 12 31t32 12h158q48 0 48 -39q0 -19 -9 -27.5t-24 -18t-23 -26.5l-128.5 -254t-94.5 -172
t-68 -109.5t-52.5 -57t-45 -24.5t-47.5 -4q-65 0 -85 15t-45 78q-48 119 -72.5 235t-40.5 291q-3 27 -21 40t-18 30q0 43 60 43z" />
    <glyph glyph-name="W" unicode="W" horiz-adv-x="1040" 
d="M110 732h226q56 0 56 -35q0 -18 -11 -27t-25 -13t-25 -21.5t-11 -48.5q0 -45 30 -393h2q57 91 95.5 204.5t38.5 211.5q0 23 -6 36t-14 16.5t-14 11.5t-6 21q0 37 50 37h232q52 0 52 -31q0 -18 -10.5 -27t-23.5 -12t-23.5 -18t-10.5 -44q0 -293 46 -396q52 72 112 222.5
t60 192.5q0 21 -13.5 31.5l-27 20.5t-13.5 29q0 15 11.5 23.5t28.5 8.5h150q26 0 35 -7t9 -24q0 -21 -27.5 -37.5t-33.5 -35.5q-27 -92 -56.5 -165t-87.5 -188l-37 -73.5l-29.5 -60.5t-23.5 -46t-21 -36.5t-19 -24.5t-20 -18t-21.5 -9t-27 -6t-33.5 -1q-39 0 -60 4.5
t-37.5 17.5t-24.5 41t-16 70t-17 110q-7 55 -12 87h-2q-112 -228 -139 -270q-33 -49 -69 -57q-15 -3 -47 -3q-79 0 -101 38q-27 47 -42.5 206t-15.5 371q0 23 -6 35t-14 14t-14 8.5t-6 19.5q0 40 60 40z" />
    <glyph glyph-name="X" unicode="X" horiz-adv-x="740" 
d="M99 732h234q27 0 41 -10.5t14 -25.5q0 -18 -17 -32t-17 -24q0 -32 86 -160q50 56 75 88.5t30 44t5 23.5q0 15 -16 29t-16 25q0 42 66 42h128q46 0 46 -36q0 -19 -30 -38.5t-35 -25.5l-207 -228l51.5 -87.5l59 -102t38.5 -76.5q13 -29 26.5 -46.5t21 -22t12.5 -11.5t5 -18
q0 -17 -12 -28.5t-34 -11.5h-254q-56 0 -56 36q0 15 20 30.5t20 31.5q0 36 -102 190q-78 -98 -102 -135t-24 -54q0 -14 17 -29t17 -33q0 -21 -12.5 -29t-39.5 -8h-160q-44 0 -44 34q0 22 39.5 47.5t41.5 28.5l219 254l-154 279q-3 6 -20.5 18t-17.5 29q0 42 57 42z" />
    <glyph glyph-name="Y" unicode="Y" horiz-adv-x="740" 
d="M96 732h246q70 0 70 -35q0 -13 -9 -22t-19 -13.5t-19 -14.5t-9 -26q0 -76 96 -235q76 94 116 148t49 72t9 30q0 14 -18 28t-18 28q0 40 55 40h117q54 0 54 -35q0 -14 -7 -21t-26 -21t-37 -35l-258 -317q-5 -33 -13 -76t-12.5 -70t-4.5 -44q0 -16 10.5 -25.5t23.5 -13
t23.5 -11.5t10.5 -22q0 -41 -56 -41h-290q-52 0 -52 35q0 18 13 28t29.5 13t32 14.5t19.5 33.5l28 166q-88 130 -149 311q-8 25 -20.5 40t-21.5 19t-16 11.5t-7 20.5q0 40 60 40z" />
    <glyph glyph-name="Z" unicode="Z" horiz-adv-x="640" 
d="M411 644h-77q-52 0 -87 -9.5t-50.5 -23t-26.5 -27t-23.5 -23t-31.5 -9.5q-39 0 -39 32q0 16 2.5 36.5t10 48t25 45.5t42.5 18h516q21 0 30.5 -8.5t9.5 -29.5q0 -39 -73 -137.5t-161 -194.5l-161 -177t-73 -89t13 -8h139q36 0 65.5 14.5t46 32.5t36.5 32.5t38 14.5
q38 0 38 -31q0 -7 -3.5 -19t-11.5 -35.5l-14 -42.5q-16 -54 -78 -54h-501q-54 0 -54 54q0 37 73.5 133t161.5 190l161.5 173.5t73.5 87.5q0 6 -17 6z" />
    <glyph glyph-name="bracketleft" unicode="[" horiz-adv-x="400" 
d="M288 -198h-244q-44 0 -44 35q0 20 3.5 45.5t14 83.5l24 135l40 234.5l56.5 345.5q4 28 20 39.5t50 11.5h228q42 0 42 -30q0 -21 -17 -31t-42 -14t-51 -10.5t-46.5 -27t-26.5 -57.5q-24 -159 -45.5 -284.5t-31 -175t-15 -84.5t-5.5 -58q0 -30 15 -48t36 -24.5t42 -10.5
t36 -13t15 -27q0 -35 -54 -35z" />
    <glyph glyph-name="backslash" unicode="\" horiz-adv-x="480" 
d="M126 712l407 -654q13 -21 13 -40q0 -30 -76 -30q-42 0 -61.5 7.5t-30.5 24.5l-407 654q-13 21 -13 40q0 30 76 30q42 0 61.5 -7.5t30.5 -24.5z" />
    <glyph glyph-name="bracketright" unicode="]" horiz-adv-x="400" 
d="M120 732h244q44 0 44 -35q0 -20 -3.5 -45.5t-14 -83.5l-24 -135l-40 -234.5l-56.5 -345.5q-4 -28 -20 -39.5t-50 -11.5h-228q-42 0 -42 30q0 21 17 31t42 14t51 10.5t46.5 27t26.5 57.5q24 159 45.5 284.5t31 175t15 84.5t5.5 58q0 30 -15 48t-36 24.5t-42 10.5t-36 13
t-15 27q0 35 54 35z" />
    <glyph glyph-name="asciicircum" unicode="^" horiz-adv-x="660" 
d="M236 361h-157l181 371h160l181 -371h-158l-103 223z" />
    <glyph glyph-name="underscore" unicode="_" horiz-adv-x="500" 
d="M500 -125h-500v50h500v-50z" />
    <glyph glyph-name="grave" unicode="`" horiz-adv-x="370" 
d="M192 718h67q16 0 23.5 -6.5t15.5 -31.5q5 -17 17 -48.5t17.5 -50t5.5 -28.5t-7 -16.5t-18 -6.5q-3 0 -6 0.5t-5.5 1.5t-6.5 4t-7.5 6l-10 9l-13 12.5l-17 17.5l-21.5 22l-27.5 28l-33.5 34q-11 11 -11 24q0 29 38 29z" />
    <glyph glyph-name="a" unicode="a" horiz-adv-x="700" 
d="M42 173q0 125 96 220t222 95q85 0 125 -62q89 62 128 62q14 0 26.5 -9t12.5 -22q0 -4 -15.5 -60t-31 -128.5t-15.5 -116.5q0 -19 11 -28.5t25 -11t25 -8t11 -21.5q0 -24 -90 -59.5t-122 -35.5q-23 0 -35.5 16t-12.5 40q0 22 8 66l-2 2q-31 -56 -81 -90t-110 -34
q-79 0 -127 52.5t-48 132.5zM256 144q0 -31 11 -46.5t27 -15.5q34 0 64.5 53t46 114t15.5 101q0 60 -38 60q-34 0 -64.5 -52.5t-46 -113t-15.5 -100.5z" />
    <glyph glyph-name="b" unicode="b" horiz-adv-x="690" 
d="M479 488q84 0 134.5 -58.5t50.5 -144.5q0 -80 -46.5 -149.5t-119.5 -108.5t-152 -39q-90 0 -142 62q-27 -22 -63.5 -42t-62.5 -20q-21 0 -33.5 11t-12.5 30q0 18 57 285t57 290q0 17 -20 30.5t-20 37.5t83.5 48t143.5 24q21 0 35 -10t14 -30q0 -32 -60 -290l2 -2
q28 35 69.5 55.5t85.5 20.5zM272 148q0 -36 14 -55t36 -19q39 0 80.5 68t41.5 168q0 36 -14 55t-36 19q-40 0 -81 -67.5t-41 -168.5z" />
    <glyph glyph-name="c" unicode="c" horiz-adv-x="580" 
d="M368 402q-41 0 -78.5 -64.5t-37.5 -148.5q0 -51 23.5 -79t57.5 -28q39 0 74 19.5t60 39t38 19.5t23 -8.5t10 -22.5q0 -50 -87 -95.5t-181 -45.5q-103 0 -170.5 56t-67.5 155q0 82 48 149t123 103.5t158 36.5q82 0 142.5 -35.5t60.5 -87.5q0 -28 -22.5 -47.5t-59.5 -19.5
q-36 0 -53.5 16t-19 36t-10.5 36t-31 16z" />
    <glyph glyph-name="d" unicode="d" horiz-adv-x="730" 
d="M684 599l-59 -349q-13 -78 -13 -99q0 -18 11.5 -27t25.5 -10.5t25.5 -9.5t11.5 -24q0 -21 -87 -56.5t-124 -35.5q-47 0 -47 85q0 23 4 73l-2 2q-25 -71 -80 -115.5t-126 -44.5q-78 0 -130 54t-52 133q0 119 85 216t202 97q68 0 119 -54q2 12 11 50t14 66t5 50
q0 21 -24 35.5t-24 34.5q0 29 79 51.5t158 22.5q37 0 37 -28q0 -7 -2.5 -22t-8 -44zM262 170q0 -34 15.5 -56t35.5 -22q43 0 77 77t34 157q0 76 -51 76q-43 0 -77 -76t-34 -156z" />
    <glyph glyph-name="e" unicode="e" horiz-adv-x="620" 
d="M32 196q0 118 107 205t253 87q90 0 150 -35t60 -83q0 -25 -9 -47t-30 -39.5t-39 -30.5t-52 -24.5t-52.5 -18.5t-56.5 -14.5t-49 -9.5t-44 -7q-13 -2 -18 -3q3 -94 105 -94q36 0 75.5 17.5t69.5 35t42 17.5q13 0 23.5 -10t10.5 -23q0 -24 -38 -54.5t-107 -53.5t-144 -23
q-111 0 -184 55t-73 153zM252 250q36 4 70.5 15.5t64 38t29.5 61.5q0 20 -13 32.5t-33 12.5q-46 0 -77.5 -52.5t-40.5 -107.5z" />
    <glyph glyph-name="f" unicode="f" horiz-adv-x="450" 
d="M92 476h44q22 127 84 197.5t181 70.5q64 0 107.5 -25.5t43.5 -62.5q0 -28 -20.5 -46t-49.5 -18q-20 0 -35 9t-22 20t-16.5 20t-19.5 9q-12 0 -20.5 -13.5t-15 -52.5t-9.5 -108h54q48 0 48 -40q0 -26 -16 -40t-42 -14h-56q-43 -306 -122.5 -443t-223.5 -137q-60 0 -93 22
t-33 55t20.5 52t48.5 19q24 0 37.5 -9.5t16.5 -21.5t9.5 -21.5t18.5 -9.5q14 0 25.5 13t20.5 40t15.5 58.5t13 79t11.5 90.5l12.5 104t14.5 109h-28q-48 0 -48 39q0 28 12.5 41.5t31.5 13.5z" />
    <glyph glyph-name="g" unicode="g" horiz-adv-x="640" 
d="M-22 -105q0 40 39 70.5t107 30.5q82 0 82 -30q0 -7 -8 -18.5t-8 -18.5q0 -15 19.5 -25t52.5 -10q45 0 75.5 22.5t30.5 54.5q0 24 -18.5 34.5t-61.5 10.5q-254 0 -254 180q0 129 93 210.5t231 81.5q37 0 107 -6t139 -6q30 0 41 -7.5t11 -24.5q0 -29 -18.5 -44.5
t-47.5 -15.5q-6 0 -20 2q28 -48 28 -93q0 -77 -47.5 -143t-120.5 -89v-2q126 -4 126 -90q0 -69 -79.5 -118t-235.5 -49q-97 0 -159 15t-83 34.5t-21 43.5zM240 172q0 -78 50 -78q41 0 71.5 72.5t30.5 161.5q0 82 -50 82q-41 0 -71.5 -74t-30.5 -164z" />
    <glyph glyph-name="h" unicode="h" horiz-adv-x="730" 
d="M210 0h-130q-20 0 -28 4t-8 16q0 14 52 283.5t52 282.5q0 14 -8 22t-18 10.5t-18 9.5t-8 18q0 37 94 67.5t144 30.5q42 0 42 -48t-76 -352l2 -2q82 146 199 146q56 0 99.5 -31.5t43.5 -85.5q0 -22 -22 -108.5t-22 -106.5q0 -16 11.5 -25t25.5 -11t25.5 -8.5t11.5 -19.5
q0 -34 -101 -69t-155 -35q-42 0 -42 59q0 22 27 146t27 139q0 32 -31 32q-37 0 -69 -64t-67 -238q-8 -37 -18 -49.5t-35 -12.5z" />
    <glyph glyph-name="i" unicode="i" horiz-adv-x="370" 
d="M326 432q0 -18 -27 -145t-27 -140t8 -21t18 -11t18 -13t8 -26q0 -22 -99 -55t-134 -33q-47 0 -47 49q0 27 27 152t27 129q0 14 -8 22t-18 10.5t-18 9.5t-8 18q0 37 94 67.5t144 30.5q21 0 31.5 -12.5t10.5 -31.5zM126 606q0 47 38 80.5t94 33.5q52 0 80 -23.5t28 -54.5
q0 -47 -38 -80.5t-94 -33.5q-52 0 -80 23.5t-28 54.5z" />
    <glyph glyph-name="j" unicode="j" horiz-adv-x="380" 
d="M46 378q0 37 94 67.5t144 30.5q21 0 31.5 -12.5t10.5 -31.5q0 -32 -10.5 -92t-32 -166.5t-35.5 -191.5q-17 -100 -85 -146t-163 -46q-150 0 -150 78q0 30 22.5 49t49.5 19q21 0 34 -10.5t17 -23.5t12.5 -23.5t20.5 -10.5q14 0 23 32.5t24 123.5q8 54 14 86q31 177 31 208
q0 14 -8 22t-18 10.5t-18 9.5t-8 18zM126 606q0 47 38 80.5t94 33.5q52 0 80 -23.5t28 -54.5q0 -47 -38 -80.5t-94 -33.5q-52 0 -80 23.5t-28 54.5z" />
    <glyph glyph-name="k" unicode="k" horiz-adv-x="620" 
d="M176 0h-128q-26 0 -26 22q0 8 56 284.5t56 300.5q0 17 -16 27t-16 22q0 33 93.5 60.5t130.5 27.5q34 0 34 -32q0 -26 -82 -390l2 -2q52 59 138 113.5t150 54.5q34 0 56 -17.5t22 -50.5q0 -38 -32 -62t-71 -24q-29 0 -43 10.5t-19 21t-9 10.5q-10 0 -38 -20
q52 -180 59 -196q15 -37 39 -44q9 -3 24 -4q12 -1 17.5 -2t13 -4.5t10.5 -11t3 -20.5q0 -28 -85 -57t-123 -29q-95 0 -112 276l-18 -18l-41 -208q-5 -21 -14.5 -29.5t-30.5 -8.5z" />
    <glyph glyph-name="l" unicode="l" horiz-adv-x="390" 
d="M148 586q0 14 -8 22t-18 10.5t-18 9.5t-8 18q0 37 94 67.5t144 30.5q21 0 31.5 -12.5t10.5 -31.5q0 -18 -52 -269t-52 -261q0 -22 11.5 -34t25.5 -14t25.5 -9t11.5 -21q0 -27 -109 -65.5t-146 -38.5q-47 0 -47 49q0 20 14.5 92l42 206.5t47.5 250.5z" />
    <glyph glyph-name="m" unicode="m" horiz-adv-x="1030" 
d="M210 0h-130q-20 0 -28 4t-8 16t27 139.5t27 153.5q0 18 -8.5 28t-18.5 11.5t-18.5 8.5t-8.5 21q0 22 51 48.5t103 41.5l51 16q43 0 43 -69q0 -22 -10 -95l2 -2q44 83 96 124.5t121 41.5q45 0 79 -30t32 -72q-1 -24 -12 -57l2 -2q36 82 85 121.5t102 39.5q56 0 99.5 -31.5
t43.5 -85.5q0 -22 -22 -108.5t-22 -106.5q0 -16 11.5 -25t25.5 -11t25.5 -8.5t11.5 -19.5q0 -34 -101 -69t-155 -35q-42 0 -42 59q0 22 27 146t27 139q0 14 -7.5 23t-18.5 9q-39 0 -69 -83.5t-63 -230.5q-8 -34 -17 -42t-45 -8h-106q-36 0 -36 30q0 33 27 161t27 141
q0 32 -27 32q-59 0 -120 -302q-8 -37 -18 -49.5t-35 -12.5z" />
    <glyph glyph-name="n" unicode="n" 
d="M210 0h-130q-20 0 -28 4t-8 16t27 139.5t27 153.5q0 18 -8.5 28t-18.5 11.5t-18.5 8.5t-8.5 21q0 32 97.5 69t125.5 37q43 0 43 -69q0 -35 -10 -75l2 -2q82 146 199 146q56 0 99.5 -31.5t43.5 -85.5q0 -22 -22 -108.5t-22 -106.5q0 -16 11.5 -25t25.5 -11t25.5 -8.5
t11.5 -19.5q0 -34 -101 -69t-155 -35q-42 0 -42 59q0 22 27 146t27 139q0 32 -31 32q-37 0 -69 -64t-67 -238q-8 -37 -18 -49.5t-35 -12.5z" />
    <glyph glyph-name="o" unicode="o" horiz-adv-x="680" 
d="M32 210q0 125 102 201.5t238 76.5q123 0 202.5 -62t79.5 -160q0 -125 -102 -201.5t-238 -76.5q-123 0 -202.5 62t-79.5 160zM252 170q0 -96 66 -96q55 0 85.5 66t30.5 166q0 96 -66 96q-55 0 -85.5 -66t-30.5 -166z" />
    <glyph glyph-name="p" unicode="p" horiz-adv-x="700" 
d="M196 -198h-156q-74 0 -74 40q0 17 7.5 25.5t17.5 10.5t20.5 12.5t14.5 31.5q6 31 18.5 88.5l21 98.5l17.5 86.5t14 75.5t5 42q0 20 -9 30t-19 12t-19 9t-9 20q0 30 93 67t129 37q22 0 31 -12t9 -42t-16 -84l2 -2q34 45 56.5 70t62.5 47.5t85 22.5q84 0 130 -50t46 -132
q0 -124 -91 -221t-216 -97q-31 0 -55 13.5t-24 42.5q0 16 10 27t28 11q29 0 55 28t41 67t23.5 75t8.5 57q0 55 -37 55q-42 0 -80.5 -67.5t-60 -154.5t-34 -154t-12.5 -82q0 -14 15 -30.5t15 -28.5q0 -20 -18.5 -32.5t-45.5 -12.5z" />
    <glyph glyph-name="q" unicode="q" horiz-adv-x="680" 
d="M532 -198h-198q-21 0 -35.5 10t-14.5 26q0 20 15 31t31.5 20t19.5 22l34 159l-2 2q-25 -38 -66.5 -61t-87.5 -23q-85 0 -135.5 54.5t-50.5 139.5q0 124 91.5 215t223.5 91q105 0 145 -66q78 66 134 66q42 0 42 -28q0 -13 -55 -257.5t-55 -286.5q0 -18 15 -35.5t15 -30.5
q0 -22 -17 -35t-49 -13zM262 164q0 -32 13 -52t35 -20q43 0 82.5 75t39.5 167q0 39 -11.5 53.5t-36.5 14.5q-43 0 -82.5 -74.5t-39.5 -163.5z" />
    <glyph glyph-name="r" unicode="r" horiz-adv-x="490" 
d="M214 0h-134q-28 0 -28 19q0 22 26 142.5t26 153.5q0 17 -9 26.5t-19 12.5t-19 10.5t-9 20.5q0 31 93 67t131 36q36 0 36 -60q0 -19 -14 -86l2 -2q15 32 27 52t32 45.5t45.5 38t55.5 12.5q29 0 48.5 -20t19.5 -51q0 -63 -28.5 -100t-61.5 -37q-20 0 -33 10t-17.5 22
t-10.5 22t-14 10q-9 0 -15.5 -5t-13 -17.5t-11 -27.5t-11 -43l-12.5 -54l-16 -71t-20 -85q-6 -25 -15.5 -33t-30.5 -8z" />
    <glyph glyph-name="s" unicode="s" horiz-adv-x="570" 
d="M8 107q0 29 20.5 49.5t48.5 20.5q26 0 39 -11.5t17.5 -27.5t10 -32.5t24 -28t51.5 -11.5q40 0 59.5 14t19.5 35q0 23 -24 38.5t-58.5 26.5t-69 24t-58.5 40t-24 67q0 74 72.5 125.5t189.5 51.5q88 0 150 -29.5t62 -79.5q0 -27 -18 -43.5t-45 -16.5t-42 9.5t-20.5 22.5
l-11 26.5t-20.5 23t-42 9.5q-28 0 -44.5 -11t-16.5 -28q0 -22 25.5 -37t62 -25.5t73 -24.5t62 -42t25.5 -70q0 -80 -85.5 -132t-194.5 -52q-95 0 -166.5 33t-71.5 86z" />
    <glyph glyph-name="t" unicode="t" horiz-adv-x="450" 
d="M120 382h-24q-48 0 -48 40q0 24 16.5 36t58.5 18q32 4 53 22.5t31.5 41.5l21.5 45.5t30.5 37.5t50.5 15q60 0 60 -31q0 -11 -24 -131h56q42 0 42 -41q0 -24 -17 -38.5t-45 -14.5h-54l-21.5 -101.5l-14.5 -69t-7 -36t-3 -27.5q0 -28 31 -28q10 0 28.5 5t27.5 5
q33 0 33 -42q0 -39 -116.5 -69.5t-175.5 -30.5q-26 0 -39 18t-13 45q0 10 1 20t6 34.5l10.5 52l18.5 91.5z" />
    <glyph glyph-name="u" unicode="u" horiz-adv-x="730" 
d="M486 476h156q24 0 24 -17q0 -9 -29 -137.5t-29 -160.5q0 -17 11.5 -26.5t25.5 -12t25.5 -10t11.5 -21.5q0 -29 -103 -66t-143 -37q-21 0 -29.5 14.5t-8.5 52.5q0 15 3 44t3 41l-2 2q-28 -69 -79 -111.5t-121 -42.5q-57 0 -96.5 35t-39.5 83q0 21 20 112t20 100
q0 15 -9 24.5t-20 13t-20 10.5t-9 18q0 36 102.5 70t139.5 34q19 0 30.5 -14t11.5 -36q0 -28 -26 -147t-26 -148q0 -31 27 -31q39 0 75 76t60 210q9 51 16.5 64.5t27.5 13.5z" />
    <glyph glyph-name="v" unicode="v" horiz-adv-x="630" 
d="M580 350q0 -92 -40 -174.5t-116 -135t-170 -52.5q-85 0 -137.5 33.5t-52.5 94.5q0 34 19 111.5t19 92.5q0 13 -8.5 21.5t-18.5 12t-18.5 10.5t-8.5 19q0 37 95.5 71t137.5 34q26 0 35.5 -12.5t9.5 -39.5q0 -53 -24 -162t-24 -131q0 -21 15 -32t38 -11q57 0 104 63t47 118
q0 16 -13 28t-28 19t-28 25t-13 45q0 38 25 64t57 26q43 0 70.5 -35.5t27.5 -102.5z" />
    <glyph glyph-name="w" unicode="w" horiz-adv-x="900" 
d="M478 476h140q32 0 32 -23q0 -6 -24 -129t-24 -169q0 -43 41 -43q47 0 86 57.5t39 107.5q0 18 -12 30.5t-27 20t-27 26t-12 46.5q0 38 22 63t53 25q38 0 63.5 -36t25.5 -115q0 -89 -35.5 -167.5t-106.5 -130t-161 -51.5q-66 0 -111.5 30t-45.5 78q0 9 8 62l-2 2
q-26 -73 -78 -122.5t-124 -49.5q-54 0 -95 29t-41 81q0 31 20 125t20 103q0 12 -8.5 19.5t-18.5 10.5t-18.5 10t-8.5 18q0 36 95 70t135 34q52 0 52 -55q0 -31 -27 -153t-27 -134q0 -14 8 -24t22 -10q26 0 51 42t42 104t26 103.5t13 68.5q7 46 40 46z" />
    <glyph glyph-name="x" unicode="x" horiz-adv-x="600" 
d="M180 216l-68 117q-6 9 -18.5 13.5t-24 5.5t-20.5 7.5t-9 20.5q0 32 86 70t125 38q20 0 37.5 -24.5t35.5 -66.5t26 -55q34 57 86 101.5t108 44.5q30 0 49 -17t19 -46q0 -28 -22.5 -48.5t-50.5 -20.5q-16 0 -34.5 5t-21.5 5q-11 0 -26 -13t-25 -26.5l-24.5 -34t-15.5 -22.5
l76 -120q18 -29 63 -40q29 -8 29 -32q0 -26 -83 -58t-127 -32q-26 0 -43.5 19t-42.5 69t-42 76q-35 -61 -88.5 -112.5t-107.5 -51.5q-28 0 -47 17t-19 45q0 34 29 54t65 20q5 0 15.5 -2t15.5 -2q12 0 27.5 12.5t26 26t24.5 33.5t17 24z" />
    <glyph glyph-name="y" unicode="y" horiz-adv-x="590" 
d="M74 164l-4 174q0 16 -9 24t-20 10t-20 11t-9 27q0 30 94.5 54t125.5 24q42 0 42 -36q0 -16 -2 -56.5t-2 -63.5q0 -133 15 -186.5t45 -53.5q40 0 81 76.5t41 122.5q0 22 -27 51t-27 62q0 36 24 60t60 24q34 0 56 -28t22 -82q0 -67 -43.5 -168.5t-108.5 -194t-148.5 -159
t-154.5 -66.5q-47 0 -72 18.5t-25 50.5q0 28 21 46.5t49 18.5q21 0 45 -15t33 -15q34 0 86.5 48.5t71.5 85.5l-2 2q-39 -42 -96 -42q-63 0 -102 47.5t-40 128.5z" />
    <glyph glyph-name="z" unicode="z" horiz-adv-x="520" 
d="M342 0h-308q-46 0 -46 37q0 17 20.5 46t109.5 143l134 172h-48q-15 0 -24 -14.5t-14 -32t-21 -32t-43 -14.5q-21 0 -36.5 15.5t-15.5 37.5q0 51 42.5 84.5t89.5 33.5h290q44 0 44 -35q0 -8 -2 -15t-10 -19t-18.5 -25.5l-33.5 -41.5l-48.5 -59.5l-69.5 -86.5l-92 -116h74
q16 0 27.5 15.5t17.5 33.5t23 33.5t44 15.5q21 0 37.5 -15t16.5 -41q0 -48 -42 -84t-98 -36z" />
    <glyph glyph-name="braceleft" unicode="{" horiz-adv-x="400" 
d="M302 596l-32 -186q-11 -67 -32.5 -98t-75.5 -45v-2q66 -19 66 -82q0 -43 -17 -120t-17 -116q0 -33 22.5 -50t49.5 -20t49.5 -14.5t22.5 -33.5q0 -14 -5.5 -21t-33 -12.5t-81.5 -5.5q-67 0 -110 8t-63 24t-26.5 32.5t-6.5 41.5q0 43 21 153.5t21 138.5q0 30 -14.5 48.5
t-47.5 29.5q49 15 70 43t30 84l36 229q11 74 63.5 98t176.5 24q67 0 87.5 -8.5t20.5 -29.5q0 -19 -25 -29.5t-56 -15t-59.5 -20.5t-33.5 -45z" />
    <glyph glyph-name="bar" unicode="|" horiz-adv-x="440" 
d="M142 0v744h156v-744h-156z" />
    <glyph glyph-name="braceright" unicode="}" horiz-adv-x="400" 
d="M106 -62l32 186q11 67 32.5 98t75.5 45v2q-66 19 -66 82q0 43 17 120t17 116q0 33 -22.5 50t-49.5 20t-49.5 14.5t-22.5 33.5q0 14 5.5 21t33 12.5t81.5 5.5q67 0 110 -8t63 -24t26.5 -32.5t6.5 -41.5q0 -42 -21 -153t-21 -139q0 -30 14.5 -48.5t47.5 -29.5
q-49 -15 -70 -43t-30 -84l-36 -229q-11 -74 -63.5 -98t-176.5 -24q-67 0 -87.5 8.5t-20.5 29.5q0 19 25 29.5t56 15t59.5 20.5t33.5 45z" />
    <glyph glyph-name="asciitilde" unicode="~" horiz-adv-x="660" 
d="M505 344l45 -130q-3 -4 -14 -15.5t-15 -16t-14 -14t-15.5 -13.5t-15.5 -10.5t-18.5 -9t-19.5 -5t-22 -2.5q-38 0 -104 34q-50 26 -113 26q-51 0 -84 -56l-45 130q20 27 34.5 42.5t41.5 29.5t58 14q41 0 115 -34q58 -26 98 -26q19 0 36.5 9.5t27 19t24.5 27.5z" />
    <glyph glyph-name="uni00A0" unicode="&#xa0;" horiz-adv-x="360" 
 />
    <glyph glyph-name="exclamdown" unicode="&#xa1;" horiz-adv-x="420" 
d="M3 -155q0 15 4 31t16 48.5l26.5 70.5l44 117l60.5 168q17 48 69 48q30 0 38 -11.5t9 -46.5q2 -104 6.5 -217.5t4.5 -160.5q0 -55 -27.5 -78.5t-92.5 -23.5q-98 0 -128 11t-30 44zM353 470q0 -45 -47 -78.5t-95 -33.5q-39 0 -62.5 16.5t-23.5 47.5q0 45 47 78.5t95 33.5
q39 0 62.5 -16.5t23.5 -47.5z" />
    <glyph glyph-name="cent" unicode="&#xa2;" 
d="M136 307q0 102 74.5 183t177.5 98q6 73 21 97.5t45 24.5q38 0 38 -34q0 -6 -6 -34t-8 -50q64 0 112 -27.5t48 -64.5q0 -28 -22.5 -49t-58.5 -21q-30 0 -47.5 13t-22.5 29t-16 29t-29 13q-38 0 -67 -58.5t-29 -141.5q0 -55 21 -83.5t56 -28.5q34 0 65 14t52.5 28t31.5 14
q12 0 21 -9t9 -21q0 -30 -60.5 -65.5t-141.5 -38.5q-10 -85 -25 -110.5t-44 -25.5q-15 0 -26 8t-11 22q0 5 16 106q-79 13 -126.5 59.5t-47.5 123.5z" />
    <glyph glyph-name="sterling" unicode="&#xa3;" 
d="M182 334h-56q-34 0 -34 30q0 19 12.5 31.5t35.5 12.5h38q-8 85 -8 101q0 113 79 174t216 61q111 0 165 -38t54 -98q0 -38 -22 -59t-60 -21q-33 0 -56.5 14.5t-23.5 39.5q0 6 1 18t1 18q0 21 -15.5 34.5t-37.5 13.5q-39 0 -65 -35.5t-26 -100.5q0 -50 8 -122h156
q42 0 42 -30q0 -21 -12.5 -32.5t-31.5 -11.5h-162q-15 -102 -146 -226l2 -2q5 3 23.5 12l26 12.5t23.5 10t26.5 9.5t25 5.5t28.5 2.5q33 0 80 -15t61 -15q26 0 41 14t26.5 28t26.5 14q11 0 19.5 -8t8.5 -19q0 -40 -49 -104.5t-109 -64.5q-58 0 -124 18t-95 18
q-52 0 -116 -18q-11 -3 -26.5 -8l-23.5 -7.5t-12 -2.5q-11 0 -30 30t-19 40q0 7 21 30l46 51.5t46 81.5t21 113z" />
    <glyph glyph-name="currency" unicode="&#xa4;" 
d="M666 602l-68 -66q56 -67 56 -170t-56 -170l68 -66l-70 -69l-68 69q-58 -60 -168 -60q-111 0 -169 60l-68 -69l-69 69l67 66q-57 66 -57 170t57 170l-67 66l69 69l68 -69q60 60 169 60q108 0 168 -60l68 69zM361 194q69 0 116 51t47 121t-47 121t-116 51q-71 0 -119 -50
t-48 -122q0 -73 48 -122.5t119 -49.5z" />
    <glyph glyph-name="yen" unicode="&#xa5;" 
d="M467 312h171q29 0 29 -31q0 -21 -12 -32t-31 -11h-173q-17 -108 -17 -125q0 -16 9.5 -25.5t21 -13t21 -11.5t9.5 -22q0 -41 -50 -41h-261q-48 0 -48 35q0 18 12 28t27 13t29.5 14.5t17.5 33.5l17 114h-177q-24 0 -24 33q0 41 45 41h152q-29 47 -48 94h-103q-32 0 -32 32
q0 42 45 42h58q-19 50 -42 121q-8 25 -19 40t-19.5 19t-14.5 11.5t-6 20.5q0 40 54 40h222q63 0 63 -35q0 -19 -25.5 -35.5t-25.5 -40.5q0 -39 29.5 -112.5t57.5 -122.5q1 1 16 21t26 36l29 41.5l31.5 46t26.5 42.5t20 38t7 25q0 14 -16.5 28t-16.5 28q0 40 51 40h105
q48 0 48 -35q0 -11 -10.5 -22.5t-33.5 -34.5t-41 -48l-82 -112h69q37 0 37 -33q0 -41 -47 -41h-113z" />
    <glyph glyph-name="brokenbar" unicode="&#xa6;" horiz-adv-x="440" 
d="M142 0v287h156v-287h-156zM142 457v287h156v-287h-156z" />
    <glyph glyph-name="section" unicode="&#xa7;" horiz-adv-x="740" 
d="M28 -6q0 20 13 34t33 14q16 0 28 -17.5t24 -42.5t29.5 -50t55 -42.5t90.5 -17.5q47 0 90 25t43 69q0 38 -38.5 60.5t-93 35t-109 28.5t-93 52.5t-38.5 94.5q0 102 102 169q-56 44 -56 103q0 85 94 160t230 75q94 0 169.5 -25t84.5 -51q8 -21 8 -60q0 -102 -49 -102
q-17 0 -27.5 12t-15 29.5t-13.5 38.5t-22 38.5t-42.5 29.5t-72.5 12q-48 0 -83 -26t-35 -61q0 -29 26.5 -49.5t66.5 -30.5t87 -25t87 -32.5t66.5 -54.5t26.5 -90q0 -14 -2 -26.5t-8 -26t-9 -21t-14.5 -22l-14.5 -18.5t-18.5 -21t-17.5 -20q50 -40 50 -98
q0 -99 -104.5 -176.5t-243.5 -77.5q-85 0 -173.5 25t-94.5 57q-16 77 -16 122zM240 312q0 -27 38.5 -43.5t113 -36.5t118.5 -40q20 20 20 44q0 26 -44.5 43t-115 36t-106.5 41q-24 -26 -24 -44z" />
    <glyph glyph-name="dieresis" unicode="&#xa8;" horiz-adv-x="370" 
d="M12 614q0 43 29.5 68.5t72.5 25.5q41 0 66.5 -18t25.5 -50q0 -43 -29.5 -68.5t-72.5 -25.5q-41 0 -66.5 18t-25.5 50zM280 614q0 43 29.5 68.5t72.5 25.5q41 0 66.5 -18t25.5 -50q0 -43 -29.5 -68.5t-72.5 -25.5q-41 0 -66.5 18t-25.5 50z" />
    <glyph glyph-name="copyright" unicode="&#xa9;" horiz-adv-x="800" 
d="M34 366q0 161 105 269.5t265 108.5t265 -108.5t105 -269.5t-105 -269.5t-265 -108.5t-265 108.5t-105 269.5zM130 366q0 -131 77 -220.5t197 -89.5t197 89.5t77 220.5t-77 220.5t-197 89.5t-197 -89.5t-77 -220.5zM558 289h26l-16 -85q-3 -14 -54.5 -28t-89.5 -14
q-111 0 -171.5 56.5t-60.5 160.5q0 29 6.5 56.5t23.5 56.5t43 50t69.5 34.5t98.5 13.5q53 0 93 -13.5t40 -27.5v-79h-26q-34 92 -104 92q-52 0 -78 -47.5t-26 -129.5q0 -92 22 -143.5t79 -51.5q38 0 71 26.5t54 72.5z" />
    <glyph glyph-name="ordfeminine" unicode="&#xaa;" horiz-adv-x="460" 
d="M62 555q0 75 62 132t143 57q54 0 82 -37q59 37 83 37q9 0 17 -5.5t8 -13.5q0 -2 -9.5 -36t-19.5 -77.5t-10 -69.5q0 -18 23 -23.5t23 -17.5q0 -14 -59 -35.5t-79 -21.5q-30 0 -30 33q0 18 5 40l-2 -1l-1 2q-20 -33 -52.5 -53.5t-71.5 -20.5q-51 0 -81.5 31.5t-30.5 79.5z
M200 537q0 -37 25 -37q32 0 56.5 59.5t24.5 101.5q0 35 -24 35q-32 0 -57 -58.5t-25 -100.5z" />
    <glyph glyph-name="guillemotleft" unicode="&#xab;" horiz-adv-x="510" 
d="M224 254q0 22 88.5 94t105.5 72q38 0 38 -28q0 -14 -23 -41.5t-46 -63t-23 -70.5q0 -30 17 -73.5t17 -51.5q0 -15 -9 -25.5t-25 -10.5q-23 0 -81.5 85t-58.5 113zM22 254q0 22 88.5 94t105.5 72q38 0 38 -28q0 -14 -23 -41.5t-46 -63t-23 -70.5q0 -30 17 -73.5t17 -51.5
q0 -15 -9 -25.5t-25 -10.5q-23 0 -81.5 85t-58.5 113z" />
    <glyph glyph-name="logicalnot" unicode="&#xac;" horiz-adv-x="660" 
d="M400 51v219h-320v156h476v-375h-156z" />
    <glyph glyph-name="uni00AD" unicode="&#xad;" horiz-adv-x="360" 
d="M259 160h-211q-47 0 -48 43q0 113 75 113h211q47 0 48 -43q0 -113 -75 -113z" />
    <glyph glyph-name="registered" unicode="&#xae;" horiz-adv-x="800" 
d="M224 556v22h222q53 0 84.5 -27.5t31.5 -81.5q0 -33 -21.5 -63.5t-58.5 -41.5l61 -90l59 -86v-16h-104q-14 0 -31 29t-38.5 77.5t-34.5 69.5h-22v-122q0 -18 9 -24.5t35 -7.5v-22h-192v22q26 1 35 7.5t9 24.5v298q0 18 -9 24t-35 8zM372 550v-174h25q53 0 53 90
q0 84 -47 84h-31zM34 366q0 161 105 269.5t265 108.5t265 -108.5t105 -269.5t-105 -269.5t-265 -108.5t-265 108.5t-105 269.5zM130 366q0 -131 77 -220.5t197 -89.5t197 89.5t77 220.5t-77 220.5t-197 89.5t-197 -89.5t-77 -220.5z" />
    <glyph glyph-name="macron" unicode="&#xaf;" horiz-adv-x="370" 
d="M126 678h266q72 0 72 -38q0 -26 -27 -43t-73 -17h-266q-72 0 -72 38q0 26 27 43t73 17z" />
    <glyph glyph-name="degree" unicode="&#xb0;" horiz-adv-x="400" 
d="M229 678q-36 0 -60.5 -26t-24.5 -63t24.5 -63t60.5 -26t60.5 26t24.5 63t-24.5 63t-60.5 26zM229 744q64 0 110.5 -46t46.5 -109t-46.5 -109t-110.5 -46t-110.5 46t-46.5 109t46.5 109t110.5 46z" />
    <glyph glyph-name="plusminus" unicode="&#xb1;" horiz-adv-x="660" 
d="M240 408v68h156v-68h160v-156h-160v-76h-156v76h-160v156h160zM80 0v156h476v-156h-476z" />
    <glyph glyph-name="twosuperior" unicode="&#xb2;" horiz-adv-x="420" 
d="M334 298h-303q-27 0 -27 24q0 25 29 57.5t70.5 64.5l83 65.5t70.5 72.5t29 74q0 16 -11 26t-29 10q-24 0 -44 -15.5t-20 -40.5q0 -5 4 -14t4 -15q0 -15 -18.5 -29t-50.5 -14q-59 0 -59 49q0 55 66.5 93t151.5 38q74 0 116 -28t42 -75q0 -29 -15 -57.5t-46 -56.5
t-54.5 -46t-66 -46.5l-56.5 -38.5v-2h81q41 0 68.5 15t37.5 15q9 0 16 -5t7 -12q0 -4 -4.5 -14t-14.5 -30l-17 -34q-14 -31 -40 -31z" />
    <glyph glyph-name="threesuperior" unicode="&#xb3;" horiz-adv-x="420" 
d="M311 536v-2q52 -4 82 -29.5t30 -63.5q0 -64 -62 -107.5t-171 -43.5q-79 0 -124.5 22t-45.5 61q0 25 18 41t50 16q24 0 36.5 -9.5t13.5 -36.5t10 -36.5t29 -9.5q29 0 51.5 32t22.5 75q0 32 -19 45t-42 11t-42 2t-19 21t11 22.5t47 5.5q42 0 68 34t26 76q0 30 -31 30
q-40 0 -40 -35q0 -3 0.5 -9.5t0.5 -9.5q0 -17 -16.5 -28t-45.5 -11q-61 0 -61 37q0 45 54 76.5t134 31.5q165 0 165 -100q0 -39 -34 -70.5t-96 -37.5z" />
    <glyph glyph-name="acute" unicode="&#xb4;" horiz-adv-x="370" 
d="M262 718h58q19 0 30.5 -8t11.5 -20q0 -14 -15 -28t-87 -69l-63 -48q-19 -15 -36 -15q-29 0 -29 21q0 12 51 88l39 58q15 21 40 21z" />
    <glyph glyph-name="mu" unicode="&#xb5;" horiz-adv-x="730" 
d="M486 476h156q24 0 24 -17q0 -9 -29 -137.5t-29 -160.5q0 -17 11.5 -26.5t25.5 -12t25.5 -10t11.5 -21.5q0 -29 -103 -66t-143 -37q-21 0 -29.5 14.5t-8.5 52.5q0 15 3 44t3 41l-2 2q-24 -59 -65 -99t-96 -51q-18 -71 -27 -154q-3 -27 -25 -37.5t-82 -10.5q-107 0 -107 54
q0 11 53 230.5t53 243.5q0 15 -9 24.5t-20 13t-20 10.5t-9 18q0 36 102.5 70t139.5 34q19 0 30.5 -14t11.5 -36q0 -28 -26 -147t-26 -148q0 -31 27 -31q39 0 75 76t60 210q9 51 16.5 64.5t27.5 13.5z" />
    <glyph glyph-name="paragraph" unicode="&#xb6;" horiz-adv-x="680" 
d="M350 732h297q32 0 44.5 -7t12.5 -26q0 -14 -3 -32l-140 -795q-8 -46 -21.5 -58t-54.5 -12q-35 0 -46 8t-11 32q0 4 3.5 21.5t3.5 20.5l128 724q1 5 1 16q0 18 -29 18q-19 0 -27 -6.5t-11 -27.5l-130 -736q-8 -46 -21.5 -58t-54.5 -12q-35 0 -46 8t-11 32q0 4 3.5 21.5
t3.5 20.5l68 382q-58 -38 -112 -38q-85 0 -134.5 55.5t-48.5 139.5q0 132 101.5 220.5t234.5 88.5z" />
    <glyph glyph-name="periodcentered" unicode="&#xb7;" horiz-adv-x="360" 
d="M74 238q0 38 28 65.5t65 27.5t65 -27.5t28 -65.5t-28 -65.5t-65 -27.5t-65 27.5t-28 65.5z" />
    <glyph glyph-name="cedilla" unicode="&#xb8;" horiz-adv-x="370" 
d="M168 0l-8 -34q26 6 53 6q41 0 73 -24t32 -72t-49.5 -73t-126.5 -25q-74 0 -122 16.5t-48 44.5q0 12 6.5 23.5t21.5 11.5q5 0 55.5 -17t100.5 -17q70 0 70 37q0 15 -12 24t-30 9q-14 0 -40 -7t-36 -7q-7 0 -13.5 5t-6.5 12q0 5 9 40.5t13 46.5h58z" />
    <glyph glyph-name="onesuperior" unicode="&#xb9;" horiz-adv-x="420" 
d="M314 298h-231q-32 0 -32 23q0 16 12.5 21.5t28.5 5t30.5 7t17.5 25.5q7 43 18.5 104l18.5 99t7 47q0 13 -12 16.5t-26.5 2t-26.5 3.5t-12 19t19.5 21.5t70.5 20.5q15 4 55 17.5t59 13.5q43 0 43 -25q0 -21 -28.5 -168.5t-28.5 -175.5q0 -14 10 -19.5t21.5 -5.5t21.5 -5
t10 -17q0 -30 -46 -30z" />
    <glyph glyph-name="ordmasculine" unicode="&#xba;" horiz-adv-x="460" 
d="M60 577q0 75 66.5 121t155.5 46q80 0 132 -37t52 -96q0 -75 -66.5 -121t-154.5 -46q-81 0 -133 37t-52 96zM204 553q0 -57 43 -57q36 0 55.5 39t19.5 100q0 57 -42 57q-36 0 -56 -39.5t-20 -99.5z" />
    <glyph glyph-name="guillemotright" unicode="&#xbb;" horiz-adv-x="510" 
d="M272 222q0 -22 -88.5 -94t-105.5 -72q-38 0 -38 28q0 14 23 41.5t46 63t23 70.5q0 30 -17 73.5t-17 51.5q0 15 9 25.5t25 10.5q23 0 81.5 -85t58.5 -113zM474 222q0 -22 -88.5 -94t-105.5 -72q-38 0 -38 28q0 14 23 41.5t46 63t23 70.5q0 30 -17 73.5t-17 51.5
q0 15 9 25.5t25 10.5q23 0 81.5 -85t58.5 -113z" />
    <glyph glyph-name="onequarter" unicode="&#xbc;" horiz-adv-x="1080" 
d="M740 107h-147q-32 0 -32 20q0 23 52.5 98.5t130.5 146.5q52 47 75 57.5t57 10.5q48 0 63 -6.5t15 -23.5q0 -7 -45 -255h44q25 0 25 -18q0 -14 -11 -22t-29 -8h-37q0 -3 -4 -20t-4 -27q0 -12 13 -18t13 -18q0 -24 -40 -24h-163q-35 0 -35 20q0 12 8.5 17.5t19 7t20 17
t11.5 45.5zM635 155h114q18 133 55 207h-2q-87 -84 -167 -207zM306 298h-231q-32 0 -32 23q0 16 12.5 21.5t28.5 5t30.5 7t17.5 25.5q7 43 18.5 104l18.5 99t7 47q0 13 -12 16.5t-26.5 2t-26.5 3.5t-12 19t19.5 21.5t70.5 20.5q15 4 55 17.5t59 13.5q43 0 43 -25
q0 -21 -28.5 -168.5t-28.5 -175.5q0 -14 10 -19.5t21.5 -5.5t21.5 -5t10 -17q0 -30 -46 -30zM744 663l-381 -625q-16 -27 -29 -38.5t-36 -11.5q-13 0 -22 7t-9 20q-1 15 21 50l376 622q19 32 32.5 44.5t34.5 12.5q29 0 37 -24q1 -17 -24 -57z" />
    <glyph glyph-name="onehalf" unicode="&#xbd;" horiz-adv-x="1080" 
d="M306 298h-231q-32 0 -32 23q0 16 12.5 21.5t28.5 5t30.5 7t17.5 25.5q7 43 18.5 104l18.5 99t7 47q0 13 -12 16.5t-26.5 2t-26.5 3.5t-12 19t19.5 21.5t70.5 20.5q15 4 55 17.5t59 13.5q43 0 43 -25q0 -21 -28.5 -168.5t-28.5 -175.5q0 -14 10 -19.5t21.5 -5.5t21.5 -5
t10 -17q0 -30 -46 -30zM898 0h-303q-27 0 -27 24q0 25 29 57.5t70.5 64.5l83 65.5t70.5 72.5t29 74q0 16 -11 26t-29 10q-24 0 -44 -15.5t-20 -40.5q0 -5 4 -14t4 -15q0 -15 -18.5 -29t-50.5 -14q-59 0 -59 49q0 55 66.5 93t151.5 38q74 0 116 -28t42 -75q0 -29 -15 -57.5
t-46 -56.5t-54.5 -46t-66 -46.5l-56.5 -38.5v-2h81q41 0 68.5 15t37.5 15q9 0 16 -5t7 -12q0 -4 -4.5 -14t-14.5 -30l-17 -34q-14 -31 -40 -31zM732 663l-381 -625q-16 -27 -29 -38.5t-36 -11.5q-13 0 -22 7t-9 20q-1 15 21 50l376 622q19 32 32.5 44.5t34.5 12.5
q29 0 37 -24q1 -17 -24 -57z" />
    <glyph glyph-name="threequarters" unicode="&#xbe;" horiz-adv-x="1080" 
d="M740 107h-147q-32 0 -32 20q0 23 52.5 98.5t130.5 146.5q52 47 75 57.5t57 10.5q48 0 63 -6.5t15 -23.5q0 -7 -45 -255h44q25 0 25 -18q0 -14 -11 -22t-29 -8h-37q0 -3 -4 -20t-4 -27q0 -12 13 -18t13 -18q0 -24 -40 -24h-163q-35 0 -35 20q0 12 8.5 17.5t19 7t20 17
t11.5 45.5zM635 155h114q18 133 55 207h-2q-87 -84 -167 -207zM287 536v-2q52 -4 82 -29.5t30 -63.5q0 -64 -62 -107.5t-171 -43.5q-79 0 -124.5 22t-45.5 61q0 25 18 41t50 16q24 0 36.5 -9.5t13.5 -36.5t10 -36.5t29 -9.5q29 0 51.5 32t22.5 75q0 32 -19 45t-42 11t-42 2
t-19 21t11 22.5t47 5.5q42 0 68 34t26 76q0 30 -31 30q-40 0 -40 -35q0 -3 0.5 -9.5t0.5 -9.5q0 -17 -16.5 -28t-45.5 -11q-61 0 -61 37q0 45 54 76.5t134 31.5q165 0 165 -100q0 -39 -34 -70.5t-96 -37.5zM748 663l-381 -625q-16 -27 -29 -38.5t-36 -11.5q-13 0 -22 7
t-9 20q-1 15 21 50l376 622q19 32 32.5 44.5t34.5 12.5q29 0 37 -24q1 -17 -24 -57z" />
    <glyph glyph-name="questiondown" unicode="&#xbf;" horiz-adv-x="570" 
d="M229 -210q-127 0 -193 45.5t-66 124.5q0 45 18.5 83t46 62t61.5 44.5t63.5 32.5t54 23.5t30.5 20.5q14 18 19.5 48.5t18.5 45t50 14.5q60 0 60 -38q0 -11 -7 -51.5t-9 -56.5q-3 -26 -22 -45t-43 -34t-48 -35t-40.5 -59t-16.5 -95q0 -22 16 -39t35 -17q24 0 36 15
t17.5 36.5t13.5 43t32 36.5t65 15q36 0 57.5 -16.5t21.5 -43.5q0 -66 -73.5 -113t-197.5 -47zM458 482q0 -45 -47 -78.5t-95 -33.5q-39 0 -62.5 16.5t-23.5 47.5q0 45 47 78.5t95 33.5q39 0 62.5 -16.5t23.5 -47.5z" />
    <glyph glyph-name="Agrave" unicode="&#xc0;" horiz-adv-x="770" 
d="M436 232h-249q-2 -5 -18.5 -36.5t-27.5 -56.5t-11 -37q0 -18 22 -34.5t22 -32.5q0 -19 -14.5 -27t-50.5 -8h-135q-40 0 -40 31q0 17 9.5 27t22 15t28 18.5t25.5 34.5q85 184 208 381q56 90 86.5 135t57 69.5t42.5 28.5t47 4q28 0 41.5 -2.5t33.5 -21.5t33 -54.5t34 -107
t43.5 -174l54.5 -260.5q5 -26 14.5 -39t17 -14t13 -8.5t5.5 -24.5q0 -38 -48 -38h-263q-41 0 -41 33q0 16 8 25t17 11.5t17 9.5t8 20q0 4 -12 133zM372 567l-8 -13l-134 -234h194q-17 135 -52 247zM433 942h67q16 0 23.5 -6.5t15.5 -31.5q5 -17 17 -48.5t17.5 -50t5.5 -28.5
t-7 -16.5t-18 -6.5q-3 0 -6 0.5t-5.5 1.5t-6.5 4t-7.5 6l-10 9l-13 12.5l-17 17.5l-21.5 22l-27.5 28l-33.5 34q-11 11 -11 24q0 29 38 29z" />
    <glyph glyph-name="Aacute" unicode="&#xc1;" horiz-adv-x="770" 
d="M436 232h-249q-2 -5 -18.5 -36.5t-27.5 -56.5t-11 -37q0 -18 22 -34.5t22 -32.5q0 -19 -14.5 -27t-50.5 -8h-135q-40 0 -40 31q0 17 9.5 27t22 15t28 18.5t25.5 34.5q85 184 208 381q56 90 86.5 135t57 69.5t42.5 28.5t47 4q28 0 41.5 -2.5t33.5 -21.5t33 -54.5t34 -107
t43.5 -174l54.5 -260.5q5 -26 14.5 -39t17 -14t13 -8.5t5.5 -24.5q0 -38 -48 -38h-263q-41 0 -41 33q0 16 8 25t17 11.5t17 9.5t8 20q0 4 -12 133zM372 567l-8 -13l-134 -234h194q-17 135 -52 247zM503 942h58q19 0 30.5 -8t11.5 -20q0 -14 -15 -28t-87 -69l-63 -48
q-19 -15 -36 -15q-29 0 -29 21q0 12 51 88l39 58q15 21 40 21z" />
    <glyph glyph-name="Acircumflex" unicode="&#xc2;" horiz-adv-x="770" 
d="M436 232h-249q-2 -5 -18.5 -36.5t-27.5 -56.5t-11 -37q0 -18 22 -34.5t22 -32.5q0 -19 -14.5 -27t-50.5 -8h-135q-40 0 -40 31q0 17 9.5 27t22 15t28 18.5t25.5 34.5q85 184 208 381q56 90 86.5 135t57 69.5t42.5 28.5t47 4q28 0 41.5 -2.5t33.5 -21.5t33 -54.5t34 -107
t43.5 -174l54.5 -260.5q5 -26 14.5 -39t17 -14t13 -8.5t5.5 -24.5q0 -38 -48 -38h-263q-41 0 -41 33q0 16 8 25t17 11.5t17 9.5t8 20q0 4 -12 133zM372 567l-8 -13l-134 -234h194q-17 135 -52 247zM493 950q26 0 51 -32q92 -117 96 -126q3 -6 3 -12q0 -11 -6.5 -18.5
t-16.5 -7.5q-12 0 -31 10.5t-56 37.5t-54 38q-26 -14 -63 -37l-59.5 -36t-31.5 -13q-12 0 -20 7.5t-8 19.5t19.5 31.5t119.5 107.5q35 30 57 30z" />
    <glyph glyph-name="Atilde" unicode="&#xc3;" horiz-adv-x="770" 
d="M436 232h-249q-2 -5 -18.5 -36.5t-27.5 -56.5t-11 -37q0 -18 22 -34.5t22 -32.5q0 -19 -14.5 -27t-50.5 -8h-135q-40 0 -40 31q0 17 9.5 27t22 15t28 18.5t25.5 34.5q85 184 208 381q56 90 86.5 135t57 69.5t42.5 28.5t47 4q28 0 41.5 -2.5t33.5 -21.5t33 -54.5t34 -107
t43.5 -174l54.5 -260.5q5 -26 14.5 -39t17 -14t13 -8.5t5.5 -24.5q0 -38 -48 -38h-263q-41 0 -41 33q0 16 8 25t17 11.5t17 9.5t8 20q0 4 -12 133zM372 567l-8 -13l-134 -234h194q-17 135 -52 247zM539 884q26 0 48 20t33 20q27 0 27 -30q0 -28 -31 -71t-66 -43
q-21 0 -62 18t-58 18q-25 0 -49 -20t-35 -20q-10 0 -17.5 7t-7.5 18q0 31 33.5 75t65.5 44q23 0 61.5 -18t57.5 -18z" />
    <glyph glyph-name="Adieresis" unicode="&#xc4;" horiz-adv-x="770" 
d="M436 232h-249q-2 -5 -18.5 -36.5t-27.5 -56.5t-11 -37q0 -18 22 -34.5t22 -32.5q0 -19 -14.5 -27t-50.5 -8h-135q-40 0 -40 31q0 17 9.5 27t22 15t28 18.5t25.5 34.5q85 184 208 381q56 90 86.5 135t57 69.5t42.5 28.5t47 4q28 0 41.5 -2.5t33.5 -21.5t33 -54.5t34 -107
t43.5 -174l54.5 -260.5q5 -26 14.5 -39t17 -14t13 -8.5t5.5 -24.5q0 -38 -48 -38h-263q-41 0 -41 33q0 16 8 25t17 11.5t17 9.5t8 20q0 4 -12 133zM372 567l-8 -13l-134 -234h194q-17 135 -52 247zM253 838q0 43 29.5 68.5t72.5 25.5q41 0 66.5 -18t25.5 -50
q0 -43 -29.5 -68.5t-72.5 -25.5q-41 0 -66.5 18t-25.5 50zM521 838q0 43 29.5 68.5t72.5 25.5q41 0 66.5 -18t25.5 -50q0 -43 -29.5 -68.5t-72.5 -25.5q-41 0 -66.5 18t-25.5 50z" />
    <glyph glyph-name="Aring" unicode="&#xc5;" horiz-adv-x="770" 
d="M436 232h-249q-2 -5 -18.5 -36.5t-27.5 -56.5t-11 -37q0 -18 22 -34.5t22 -32.5q0 -19 -14.5 -27t-50.5 -8h-135q-40 0 -40 31q0 17 9.5 27t22 15t28 18.5t25.5 34.5q85 184 208 381q56 90 86.5 135t57 69.5t42.5 28.5t47 4q28 0 41.5 -2.5t33.5 -21.5t33 -54.5t34 -107
t43.5 -174l54.5 -260.5q5 -26 14.5 -39t17 -14t13 -8.5t5.5 -24.5q0 -38 -48 -38h-263q-41 0 -41 33q0 16 8 25t17 11.5t17 9.5t8 20q0 4 -12 133zM372 567l-8 -13l-134 -234h194q-17 135 -52 247zM381 858q0 45 32 77.5t78 32.5t78 -32.5t32 -77.5t-32 -77.5t-78 -32.5
t-78 32.5t-32 77.5zM447 858q0 -18 12.5 -31t31.5 -13t31.5 13t12.5 31t-12.5 31t-31.5 13t-31.5 -13t-12.5 -31z" />
    <glyph glyph-name="AE" unicode="&#xc6;" horiz-adv-x="1020" 
d="M418 232h-220q-10 -23 -21.5 -47l-16.5 -35l-10 -22t-6.5 -16.5t-1.5 -9.5q0 -18 23 -34.5t23 -32.5q0 -35 -50 -35h-150q-40 0 -40 33q0 15 9.5 26t21.5 16.5t25.5 15.5t19.5 23q45 101 181 335q60 106 92 157.5t62 82.5t49 37t54 6h526q25 0 37.5 -11t12.5 -38
q0 -119 -63 -119q-18 0 -27.5 8t-17 20t-19 24t-42.5 20t-79 8h-28t-21.5 -3.5t-17 -7t-12.5 -16t-11 -24t-8.5 -37t-9.5 -49.5t-10 -67h126q30 0 61 22t41 22q13 0 22.5 -10.5t9.5 -23.5q0 -12 -2 -31t-7 -46.5t-17.5 -46t-30.5 -18.5q-19 0 -40 22t-57 22h-116
q-32 -165 -32 -206q0 -58 50 -58h84q35 0 62.5 14.5t41.5 32.5t31 32.5t34 14.5q45 0 45 -36q0 -31 -18 -77q-18 -47 -27 -56q-14 -13 -43 -13h-506q-48 0 -48 35q0 13 8 22t18.5 14.5t21 20.5t14.5 38zM242 320h189q49 266 49 300q0 24 -15 24q-25 0 -69 -62.5t-154 -261.5
z" />
    <glyph glyph-name="Ccedilla" unicode="&#xc7;" horiz-adv-x="810" 
d="M465 -11l-5 -23q25 6 53 6q41 0 73 -24t32 -72t-49.5 -73t-126.5 -25q-74 0 -122 16.5t-48 44.5q0 12 6.5 23.5t21.5 11.5q5 0 55.5 -17t100.5 -17q70 0 70 37q0 15 -12 24t-30 9q-14 0 -40 -7t-36 -7q-7 0 -13.5 5t-6.5 12q0 14 19 76q-153 9 -259 92t-106 228
q0 93 42 175.5t110 138.5t155 88.5t176 32.5q72 0 142 -22.5t107.5 -48.5t37.5 -42q0 -103 -16.5 -142t-50.5 -39q-13 0 -22 5t-14.5 17t-8.5 21t-6.5 26.5t-5.5 25.5q-12 45 -51.5 78t-88.5 33q-63 0 -113 -32.5t-79.5 -86t-44.5 -116t-15 -129.5q0 -90 49.5 -145
t132.5 -55q46 0 87.5 16t66 36t47.5 36t37 16q17 0 29.5 -11.5t12.5 -27.5q0 -56 -91.5 -109t-201.5 -59z" />
    <glyph glyph-name="Egrave" unicode="&#xc8;" 
d="M168 732h520q25 0 37.5 -11t12.5 -38q0 -119 -63 -119q-18 0 -27.5 8t-17 20t-19 24t-42.5 20t-79 8h-32.5t-25 -4t-19.5 -7t-14 -15.5t-12 -23.5t-9 -37t-10 -49.5t-10 -67.5h140q30 0 61 22t41 22q13 0 22.5 -10.5t9.5 -23.5q0 -12 -2 -31t-7 -46.5t-17.5 -46
t-30.5 -18.5q-19 0 -40 22t-57 22h-134q-32 -165 -32 -206q0 -58 46 -58h106q35 0 62.5 14.5t41.5 32.5t31 32.5t34 14.5q45 0 45 -36q0 -31 -18 -77q-18 -47 -27 -56q-14 -13 -43 -13h-529q-55 0 -55 35q0 12 8.5 21.5t18.5 15.5t20.5 18.5t13.5 29.5q85 482 85 507
q0 17 -20 34t-20 30q0 17 15 29t41 12zM402 942h67q16 0 23.5 -6.5t15.5 -31.5q5 -17 17 -48.5t17.5 -50t5.5 -28.5t-7 -16.5t-18 -6.5q-3 0 -6 0.5t-5.5 1.5t-6.5 4t-7.5 6l-10 9l-13 12.5l-17 17.5l-21.5 22l-27.5 28l-33.5 34q-11 11 -11 24q0 29 38 29z" />
    <glyph glyph-name="Eacute" unicode="&#xc9;" 
d="M168 732h520q25 0 37.5 -11t12.5 -38q0 -119 -63 -119q-18 0 -27.5 8t-17 20t-19 24t-42.5 20t-79 8h-32.5t-25 -4t-19.5 -7t-14 -15.5t-12 -23.5t-9 -37t-10 -49.5t-10 -67.5h140q30 0 61 22t41 22q13 0 22.5 -10.5t9.5 -23.5q0 -12 -2 -31t-7 -46.5t-17.5 -46
t-30.5 -18.5q-19 0 -40 22t-57 22h-134q-32 -165 -32 -206q0 -58 46 -58h106q35 0 62.5 14.5t41.5 32.5t31 32.5t34 14.5q45 0 45 -36q0 -31 -18 -77q-18 -47 -27 -56q-14 -13 -43 -13h-529q-55 0 -55 35q0 12 8.5 21.5t18.5 15.5t20.5 18.5t13.5 29.5q85 482 85 507
q0 17 -20 34t-20 30q0 17 15 29t41 12zM472 942h58q19 0 30.5 -8t11.5 -20q0 -14 -15 -28t-87 -69l-63 -48q-19 -15 -36 -15q-29 0 -29 21q0 12 51 88l39 58q15 21 40 21z" />
    <glyph glyph-name="Ecircumflex" unicode="&#xca;" 
d="M168 732h520q25 0 37.5 -11t12.5 -38q0 -119 -63 -119q-18 0 -27.5 8t-17 20t-19 24t-42.5 20t-79 8h-32.5t-25 -4t-19.5 -7t-14 -15.5t-12 -23.5t-9 -37t-10 -49.5t-10 -67.5h140q30 0 61 22t41 22q13 0 22.5 -10.5t9.5 -23.5q0 -12 -2 -31t-7 -46.5t-17.5 -46
t-30.5 -18.5q-19 0 -40 22t-57 22h-134q-32 -165 -32 -206q0 -58 46 -58h106q35 0 62.5 14.5t41.5 32.5t31 32.5t34 14.5q45 0 45 -36q0 -31 -18 -77q-18 -47 -27 -56q-14 -13 -43 -13h-529q-55 0 -55 35q0 12 8.5 21.5t18.5 15.5t20.5 18.5t13.5 29.5q85 482 85 507
q0 17 -20 34t-20 30q0 17 15 29t41 12zM462 950q26 0 51 -32q92 -117 96 -126q3 -6 3 -12q0 -11 -6.5 -18.5t-16.5 -7.5q-12 0 -31 10.5t-56 37.5t-54 38q-26 -14 -63 -37l-59.5 -36t-31.5 -13q-12 0 -20 7.5t-8 19.5t19.5 31.5t119.5 107.5q35 30 57 30z" />
    <glyph glyph-name="Edieresis" unicode="&#xcb;" 
d="M168 732h520q25 0 37.5 -11t12.5 -38q0 -119 -63 -119q-18 0 -27.5 8t-17 20t-19 24t-42.5 20t-79 8h-32.5t-25 -4t-19.5 -7t-14 -15.5t-12 -23.5t-9 -37t-10 -49.5t-10 -67.5h140q30 0 61 22t41 22q13 0 22.5 -10.5t9.5 -23.5q0 -12 -2 -31t-7 -46.5t-17.5 -46
t-30.5 -18.5q-19 0 -40 22t-57 22h-134q-32 -165 -32 -206q0 -58 46 -58h106q35 0 62.5 14.5t41.5 32.5t31 32.5t34 14.5q45 0 45 -36q0 -31 -18 -77q-18 -47 -27 -56q-14 -13 -43 -13h-529q-55 0 -55 35q0 12 8.5 21.5t18.5 15.5t20.5 18.5t13.5 29.5q85 482 85 507
q0 17 -20 34t-20 30q0 17 15 29t41 12zM222 838q0 43 29.5 68.5t72.5 25.5q41 0 66.5 -18t25.5 -50q0 -43 -29.5 -68.5t-72.5 -25.5q-41 0 -66.5 18t-25.5 50zM490 838q0 43 29.5 68.5t72.5 25.5q41 0 66.5 -18t25.5 -50q0 -43 -29.5 -68.5t-72.5 -25.5q-41 0 -66.5 18
t-25.5 50z" />
    <glyph glyph-name="Igrave" unicode="&#xcc;" horiz-adv-x="450" 
d="M176 732h224q30 0 42 -7t12 -25q0 -13 -8.5 -22t-19 -14.5t-21.5 -21.5t-15 -42q-9 -56 -32.5 -180.5l-38.5 -210.5t-15 -103q0 -18 20 -35t20 -28q0 -20 -15.5 -31.5t-39.5 -11.5h-230q-47 0 -47 33q0 10 5.5 17t13.5 12.5t17 13t16.5 21t10.5 32.5q77 479 77 497
q0 17 -20 34.5t-20 29.5q0 42 64 42zM274 942h67q16 0 23.5 -6.5t15.5 -31.5q5 -17 17 -48.5t17.5 -50t5.5 -28.5t-7 -16.5t-18 -6.5q-3 0 -6 0.5t-5.5 1.5t-6.5 4t-7.5 6l-10 9l-13 12.5l-17 17.5l-21.5 22l-27.5 28l-33.5 34q-11 11 -11 24q0 29 38 29z" />
    <glyph glyph-name="Iacute" unicode="&#xcd;" horiz-adv-x="450" 
d="M176 732h224q30 0 42 -7t12 -25q0 -13 -8.5 -22t-19 -14.5t-21.5 -21.5t-15 -42q-9 -56 -32.5 -180.5l-38.5 -210.5t-15 -103q0 -18 20 -35t20 -28q0 -20 -15.5 -31.5t-39.5 -11.5h-230q-47 0 -47 33q0 10 5.5 17t13.5 12.5t17 13t16.5 21t10.5 32.5q77 479 77 497
q0 17 -20 34.5t-20 29.5q0 42 64 42zM344 942h58q19 0 30.5 -8t11.5 -20q0 -14 -15 -28t-87 -69l-63 -48q-19 -15 -36 -15q-29 0 -29 21q0 12 51 88l39 58q15 21 40 21z" />
    <glyph glyph-name="Icircumflex" unicode="&#xce;" horiz-adv-x="450" 
d="M176 732h224q30 0 42 -7t12 -25q0 -13 -8.5 -22t-19 -14.5t-21.5 -21.5t-15 -42q-9 -56 -32.5 -180.5l-38.5 -210.5t-15 -103q0 -18 20 -35t20 -28q0 -20 -15.5 -31.5t-39.5 -11.5h-230q-47 0 -47 33q0 10 5.5 17t13.5 12.5t17 13t16.5 21t10.5 32.5q77 479 77 497
q0 17 -20 34.5t-20 29.5q0 42 64 42zM334 950q26 0 51 -32q92 -117 96 -126q3 -6 3 -12q0 -11 -6.5 -18.5t-16.5 -7.5q-12 0 -31 10.5t-56 37.5t-54 38q-26 -14 -63 -37l-59.5 -36t-31.5 -13q-12 0 -20 7.5t-8 19.5t19.5 31.5t119.5 107.5q35 30 57 30z" />
    <glyph glyph-name="Idieresis" unicode="&#xcf;" horiz-adv-x="450" 
d="M176 732h224q30 0 42 -7t12 -25q0 -13 -8.5 -22t-19 -14.5t-21.5 -21.5t-15 -42q-9 -56 -32.5 -180.5l-38.5 -210.5t-15 -103q0 -18 20 -35t20 -28q0 -20 -15.5 -31.5t-39.5 -11.5h-230q-47 0 -47 33q0 10 5.5 17t13.5 12.5t17 13t16.5 21t10.5 32.5q77 479 77 497
q0 17 -20 34.5t-20 29.5q0 42 64 42zM94 838q0 43 29.5 68.5t72.5 25.5q41 0 66.5 -18t25.5 -50q0 -43 -29.5 -68.5t-72.5 -25.5q-41 0 -66.5 18t-25.5 50zM362 838q0 43 29.5 68.5t72.5 25.5q41 0 66.5 -18t25.5 -50q0 -43 -29.5 -68.5t-72.5 -25.5q-41 0 -66.5 18
t-25.5 50z" />
    <glyph glyph-name="Eth" unicode="&#xd0;" horiz-adv-x="910" 
d="M69 133l40 219h-44q-47 0 -47 34q0 54 74 54h33q29 161 29 187q0 17 -19 34t-19 30q0 17 15 29t35 12h413q148 0 230.5 -74t82.5 -208q0 -93 -40.5 -193t-108.5 -153q-133 -104 -408 -104h-264q-65 0 -65 36q0 16 13 25t28.5 25t21.5 47zM358 440h134q56 0 56 -34
q0 -54 -74 -54h-131q-35 -218 -35 -225q0 -21 14 -30t48 -9q67 0 121.5 32.5t87.5 85t50 114t17 125.5q0 84 -46.5 141.5t-131.5 57.5q-35 0 -51.5 -10t-31.5 -54.5t-27 -139.5z" />
    <glyph glyph-name="Ntilde" unicode="&#xd1;" horiz-adv-x="810" 
d="M144 0h-95q-43 0 -43 34q0 15 11.5 24.5t26 24.5t18.5 40q0 1 22 121l43 243t21 138q0 16 -17 33t-17 32t15.5 28.5t44.5 13.5h180q14 0 23 -3.5t19.5 -17t19.5 -31.5t26 -55l36 -78l53 -111.5l73 -145.5h2l16 97.5t12.5 76.5l9 54.5l6.5 41.5t3.5 26.5t2 21t0.5 15.5
q0 19 -21 37.5t-21 35.5q0 36 54 36h106q50 0 50 -30q0 -18 -8.5 -27.5t-19.5 -14t-23.5 -24.5t-18.5 -57l-38 -237q-41 -251 -57 -295q-14 -39 -39 -45q-9 -2 -24 -2h-68q-23 0 -37 9.5t-45.5 58.5t-80.5 157.5l-131 300.5h-2q-68 -410 -68 -419q0 -17 19 -34t19 -30
q0 -16 -15 -29.5t-43 -13.5zM564 884q26 0 48 20t33 20q27 0 27 -30q0 -28 -31 -71t-66 -43q-21 0 -62 18t-58 18q-25 0 -49 -20t-35 -20q-10 0 -17.5 7t-7.5 18q0 31 33.5 75t65.5 44q23 0 61.5 -18t57.5 -18z" />
    <glyph glyph-name="Ograve" unicode="&#xd2;" horiz-adv-x="900" 
d="M42 313q0 120 63.5 219.5t168.5 155.5t228 56q75 0 141.5 -19t121 -57t86 -102t31.5 -147q0 -120 -63.5 -219.5t-168.5 -155.5t-228 -56q-75 0 -141.5 19t-121 57t-86 102t-31.5 147zM288 274q0 -99 36.5 -148.5t91.5 -49.5q90 0 155 106t65 276q0 99 -36.5 148.5
t-91.5 49.5q-90 0 -155 -106t-65 -276zM492 942h67q16 0 23.5 -6.5t15.5 -31.5q5 -17 17 -48.5t17.5 -50t5.5 -28.5t-7 -16.5t-18 -6.5q-3 0 -6 0.5t-5.5 1.5t-6.5 4t-7.5 6l-10 9l-13 12.5l-17 17.5l-21.5 22l-27.5 28l-33.5 34q-11 11 -11 24q0 29 38 29z" />
    <glyph glyph-name="Oacute" unicode="&#xd3;" horiz-adv-x="900" 
d="M42 313q0 120 63.5 219.5t168.5 155.5t228 56q75 0 141.5 -19t121 -57t86 -102t31.5 -147q0 -120 -63.5 -219.5t-168.5 -155.5t-228 -56q-75 0 -141.5 19t-121 57t-86 102t-31.5 147zM288 274q0 -99 36.5 -148.5t91.5 -49.5q90 0 155 106t65 276q0 99 -36.5 148.5
t-91.5 49.5q-90 0 -155 -106t-65 -276zM562 942h58q19 0 30.5 -8t11.5 -20q0 -14 -15 -28t-87 -69l-63 -48q-19 -15 -36 -15q-29 0 -29 21q0 12 51 88l39 58q15 21 40 21z" />
    <glyph glyph-name="Ocircumflex" unicode="&#xd4;" horiz-adv-x="900" 
d="M42 313q0 120 63.5 219.5t168.5 155.5t228 56q75 0 141.5 -19t121 -57t86 -102t31.5 -147q0 -120 -63.5 -219.5t-168.5 -155.5t-228 -56q-75 0 -141.5 19t-121 57t-86 102t-31.5 147zM288 274q0 -99 36.5 -148.5t91.5 -49.5q90 0 155 106t65 276q0 99 -36.5 148.5
t-91.5 49.5q-90 0 -155 -106t-65 -276zM552 950q26 0 51 -32q92 -117 96 -126q3 -6 3 -12q0 -11 -6.5 -18.5t-16.5 -7.5q-12 0 -31 10.5t-56 37.5t-54 38q-26 -14 -63 -37l-59.5 -36t-31.5 -13q-12 0 -20 7.5t-8 19.5t19.5 31.5t119.5 107.5q35 30 57 30z" />
    <glyph glyph-name="Otilde" unicode="&#xd5;" horiz-adv-x="900" 
d="M42 313q0 120 63.5 219.5t168.5 155.5t228 56q75 0 141.5 -19t121 -57t86 -102t31.5 -147q0 -120 -63.5 -219.5t-168.5 -155.5t-228 -56q-75 0 -141.5 19t-121 57t-86 102t-31.5 147zM288 274q0 -99 36.5 -148.5t91.5 -49.5q90 0 155 106t65 276q0 99 -36.5 148.5
t-91.5 49.5q-90 0 -155 -106t-65 -276zM598 884q26 0 48 20t33 20q27 0 27 -30q0 -28 -31 -71t-66 -43q-21 0 -62 18t-58 18q-25 0 -49 -20t-35 -20q-10 0 -17.5 7t-7.5 18q0 31 33.5 75t65.5 44q23 0 61.5 -18t57.5 -18z" />
    <glyph glyph-name="Odieresis" unicode="&#xd6;" horiz-adv-x="900" 
d="M42 313q0 120 63.5 219.5t168.5 155.5t228 56q75 0 141.5 -19t121 -57t86 -102t31.5 -147q0 -120 -63.5 -219.5t-168.5 -155.5t-228 -56q-75 0 -141.5 19t-121 57t-86 102t-31.5 147zM288 274q0 -99 36.5 -148.5t91.5 -49.5q90 0 155 106t65 276q0 99 -36.5 148.5
t-91.5 49.5q-90 0 -155 -106t-65 -276zM312 838q0 43 29.5 68.5t72.5 25.5q41 0 66.5 -18t25.5 -50q0 -43 -29.5 -68.5t-72.5 -25.5q-41 0 -66.5 18t-25.5 50zM580 838q0 43 29.5 68.5t72.5 25.5q41 0 66.5 -18t25.5 -50q0 -43 -29.5 -68.5t-72.5 -25.5q-41 0 -66.5 18
t-25.5 50z" />
    <glyph glyph-name="multiply" unicode="&#xd7;" horiz-adv-x="660" 
d="M80 108l130 130l-130 130l109 108l129 -130l129 130l109 -108l-130 -130l130 -130l-109 -108l-129 130l-129 -130z" />
    <glyph glyph-name="Oslash" unicode="&#xd8;" horiz-adv-x="900" 
d="M281 234l340 345q-39 77 -113 77q-91 0 -160.5 -106.5t-69.5 -275.5q0 -22 3 -40zM644 492l-338 -343q18 -36 47.5 -54.5t62.5 -18.5q91 0 160.5 106.5t69.5 275.5q0 14 -2 34zM42 313q0 120 63.5 219.5t168.5 155.5t228 56q131 0 227 -54q57 64 77 64q16 0 28 -11.5
t12 -27.5q0 -21 -53 -72q89 -84 89 -224q0 -120 -63.5 -219.5t-168.5 -155.5t-228 -56q-130 0 -224 52l-10 -12q-9 -11 -14.5 -17t-15.5 -15t-18.5 -13.5t-15.5 -4.5q-15 0 -27.5 11.5t-12.5 26.5q0 7 3 14.5t10 16t12 14t14 14l11 10.5q-92 87 -92 228z" />
    <glyph glyph-name="Ugrave" unicode="&#xd9;" horiz-adv-x="820" 
d="M176 732h210q58 0 58 -36q0 -16 -12 -25.5l-27 -21.5t-20 -33q0 -1 -17.5 -70.5t-27.5 -115.5t-21 -114t-11 -112q0 -56 34.5 -92t89.5 -36q57 0 102 44.5t61 126.5q41 215 41 363q0 22 -6 36t-14 18.5t-14 11.5t-6 17q0 39 57 39h105q31 0 41.5 -8t10.5 -27
q0 -16 -5 -22t-13 -10t-16.5 -13t-17.5 -40.5t-14 -83.5q-3 -28 -8 -92.5t-9 -96t-11.5 -78t-20.5 -80.5t-31 -62q-86 -131 -291 -131q-158 0 -229.5 54t-71.5 170q0 69 39 238.5t39 176.5q0 24 -19 38t-19 30q0 37 64 37zM458 942h67q16 0 23.5 -6.5t15.5 -31.5
q5 -17 17 -48.5t17.5 -50t5.5 -28.5t-7 -16.5t-18 -6.5q-3 0 -6 0.5t-5.5 1.5t-6.5 4t-7.5 6l-10 9l-13 12.5l-17 17.5l-21.5 22l-27.5 28l-33.5 34q-11 11 -11 24q0 29 38 29z" />
    <glyph glyph-name="Uacute" unicode="&#xda;" horiz-adv-x="820" 
d="M176 732h210q58 0 58 -36q0 -16 -12 -25.5l-27 -21.5t-20 -33q0 -1 -17.5 -70.5t-27.5 -115.5t-21 -114t-11 -112q0 -56 34.5 -92t89.5 -36q57 0 102 44.5t61 126.5q41 215 41 363q0 22 -6 36t-14 18.5t-14 11.5t-6 17q0 39 57 39h105q31 0 41.5 -8t10.5 -27
q0 -16 -5 -22t-13 -10t-16.5 -13t-17.5 -40.5t-14 -83.5q-3 -28 -8 -92.5t-9 -96t-11.5 -78t-20.5 -80.5t-31 -62q-86 -131 -291 -131q-158 0 -229.5 54t-71.5 170q0 69 39 238.5t39 176.5q0 24 -19 38t-19 30q0 37 64 37zM528 942h58q19 0 30.5 -8t11.5 -20q0 -14 -15 -28
t-87 -69l-63 -48q-19 -15 -36 -15q-29 0 -29 21q0 12 51 88l39 58q15 21 40 21z" />
    <glyph glyph-name="Ucircumflex" unicode="&#xdb;" horiz-adv-x="820" 
d="M176 732h210q58 0 58 -36q0 -16 -12 -25.5l-27 -21.5t-20 -33q0 -1 -17.5 -70.5t-27.5 -115.5t-21 -114t-11 -112q0 -56 34.5 -92t89.5 -36q57 0 102 44.5t61 126.5q41 215 41 363q0 22 -6 36t-14 18.5t-14 11.5t-6 17q0 39 57 39h105q31 0 41.5 -8t10.5 -27
q0 -16 -5 -22t-13 -10t-16.5 -13t-17.5 -40.5t-14 -83.5q-3 -28 -8 -92.5t-9 -96t-11.5 -78t-20.5 -80.5t-31 -62q-86 -131 -291 -131q-158 0 -229.5 54t-71.5 170q0 69 39 238.5t39 176.5q0 24 -19 38t-19 30q0 37 64 37zM518 950q26 0 51 -32q92 -117 96 -126q3 -6 3 -12
q0 -11 -6.5 -18.5t-16.5 -7.5q-12 0 -31 10.5t-56 37.5t-54 38q-26 -14 -63 -37l-59.5 -36t-31.5 -13q-12 0 -20 7.5t-8 19.5t19.5 31.5t119.5 107.5q35 30 57 30z" />
    <glyph glyph-name="Udieresis" unicode="&#xdc;" horiz-adv-x="820" 
d="M176 732h210q58 0 58 -36q0 -16 -12 -25.5l-27 -21.5t-20 -33q0 -1 -17.5 -70.5t-27.5 -115.5t-21 -114t-11 -112q0 -56 34.5 -92t89.5 -36q57 0 102 44.5t61 126.5q41 215 41 363q0 22 -6 36t-14 18.5t-14 11.5t-6 17q0 39 57 39h105q31 0 41.5 -8t10.5 -27
q0 -16 -5 -22t-13 -10t-16.5 -13t-17.5 -40.5t-14 -83.5q-3 -28 -8 -92.5t-9 -96t-11.5 -78t-20.5 -80.5t-31 -62q-86 -131 -291 -131q-158 0 -229.5 54t-71.5 170q0 69 39 238.5t39 176.5q0 24 -19 38t-19 30q0 37 64 37zM278 838q0 43 29.5 68.5t72.5 25.5q41 0 66.5 -18
t25.5 -50q0 -43 -29.5 -68.5t-72.5 -25.5q-41 0 -66.5 18t-25.5 50zM546 838q0 43 29.5 68.5t72.5 25.5q41 0 66.5 -18t25.5 -50q0 -43 -29.5 -68.5t-72.5 -25.5q-41 0 -66.5 18t-25.5 50z" />
    <glyph glyph-name="Yacute" unicode="&#xdd;" horiz-adv-x="740" 
d="M96 732h246q70 0 70 -35q0 -13 -9 -22t-19 -13.5t-19 -14.5t-9 -26q0 -76 96 -235q76 94 116 148t49 72t9 30q0 14 -18 28t-18 28q0 40 55 40h117q54 0 54 -35q0 -14 -7 -21t-26 -21t-37 -35l-258 -317q-5 -33 -13 -76t-12.5 -70t-4.5 -44q0 -16 10.5 -25.5t23.5 -13
t23.5 -11.5t10.5 -22q0 -41 -56 -41h-290q-52 0 -52 35q0 18 13 28t29.5 13t32 14.5t19.5 33.5l28 166q-88 130 -149 311q-8 25 -20.5 40t-21.5 19t-16 11.5t-7 20.5q0 40 60 40zM447 942h58q19 0 30.5 -8t11.5 -20q0 -14 -15 -28t-87 -69l-63 -48q-19 -15 -36 -15
q-29 0 -29 21q0 12 51 88l39 58q15 21 40 21z" />
    <glyph glyph-name="Thorn" unicode="&#xde;" horiz-adv-x="760" 
d="M360 444l-36 -224q73 3 132.5 58t59.5 127q0 45 -25.5 73t-69.5 28q-23 0 -40 -17t-21 -45zM387 584h158q105 0 165 -48t60 -118q0 -89 -65.5 -155t-169 -98.5t-227.5 -32.5q-4 -16 -4 -26q0 -18 20 -35t20 -28q0 -20 -15.5 -31.5t-39.5 -11.5h-230q-47 0 -47 33
q0 10 5.5 17t13.5 12.5t17 13t16.5 21t10.5 32.5q77 479 77 497q0 17 -20 34.5t-20 29.5q0 42 64 42h224q30 0 42 -7t12 -25q0 -13 -8.5 -22t-19 -14.5t-21.5 -21.5t-15 -42z" />
    <glyph glyph-name="germandbls" unicode="&#xdf;" horiz-adv-x="690" 
d="M236 0h-174q-46 0 -46 38q0 14 8 22.5t18.5 13t21.5 20.5t16 44l68 383q21 120 100.5 171.5t207.5 51.5q123 0 190.5 -37.5t67.5 -99.5q0 -29 -20.5 -58t-45.5 -47.5t-45.5 -39t-20.5 -36.5q0 -18 25 -66t50 -108.5t25 -109.5q0 -66 -51 -110t-139 -44q-67 0 -113.5 22.5
t-46.5 51.5q0 13 9 22.5t22 9.5t34.5 -14t36.5 -14q34 0 34 48q0 44 -34 125.5t-34 105.5q0 30 20.5 63.5t45.5 59.5t45.5 60.5t20.5 66.5t-19 51.5t-51 19.5q-43 0 -67 -51q-28 -59 -71 -308l-23 -129l-25 -148q-5 -30 -40 -30z" />
    <glyph glyph-name="agrave" unicode="&#xe0;" horiz-adv-x="700" 
d="M42 173q0 125 96 220t222 95q85 0 125 -62q89 62 128 62q14 0 26.5 -9t12.5 -22q0 -4 -15.5 -60t-31 -128.5t-15.5 -116.5q0 -19 11 -28.5t25 -11t25 -8t11 -21.5q0 -24 -90 -59.5t-122 -35.5q-23 0 -35.5 16t-12.5 40q0 22 8 66l-2 2q-31 -56 -81 -90t-110 -34
q-79 0 -127 52.5t-48 132.5zM256 144q0 -31 11 -46.5t27 -15.5q34 0 64.5 53t46 114t15.5 101q0 60 -38 60q-34 0 -64.5 -52.5t-46 -113t-15.5 -100.5zM366 718h67q16 0 23.5 -6.5t15.5 -31.5q5 -17 17 -48.5t17.5 -50t5.5 -28.5t-7 -16.5t-18 -6.5q-3 0 -6 0.5t-5.5 1.5
t-6.5 4t-7.5 6l-10 9l-13 12.5l-17 17.5l-21.5 22l-27.5 28l-33.5 34q-11 11 -11 24q0 29 38 29z" />
    <glyph glyph-name="aacute" unicode="&#xe1;" horiz-adv-x="700" 
d="M42 173q0 125 96 220t222 95q85 0 125 -62q89 62 128 62q14 0 26.5 -9t12.5 -22q0 -4 -15.5 -60t-31 -128.5t-15.5 -116.5q0 -19 11 -28.5t25 -11t25 -8t11 -21.5q0 -24 -90 -59.5t-122 -35.5q-23 0 -35.5 16t-12.5 40q0 22 8 66l-2 2q-31 -56 -81 -90t-110 -34
q-79 0 -127 52.5t-48 132.5zM256 144q0 -31 11 -46.5t27 -15.5q34 0 64.5 53t46 114t15.5 101q0 60 -38 60q-34 0 -64.5 -52.5t-46 -113t-15.5 -100.5zM436 718h58q19 0 30.5 -8t11.5 -20q0 -14 -15 -28t-87 -69l-63 -48q-19 -15 -36 -15q-29 0 -29 21q0 12 51 88l39 58
q15 21 40 21z" />
    <glyph glyph-name="acircumflex" unicode="&#xe2;" horiz-adv-x="700" 
d="M42 173q0 125 96 220t222 95q85 0 125 -62q89 62 128 62q14 0 26.5 -9t12.5 -22q0 -4 -15.5 -60t-31 -128.5t-15.5 -116.5q0 -19 11 -28.5t25 -11t25 -8t11 -21.5q0 -24 -90 -59.5t-122 -35.5q-23 0 -35.5 16t-12.5 40q0 22 8 66l-2 2q-31 -56 -81 -90t-110 -34
q-79 0 -127 52.5t-48 132.5zM256 144q0 -31 11 -46.5t27 -15.5q34 0 64.5 53t46 114t15.5 101q0 60 -38 60q-34 0 -64.5 -52.5t-46 -113t-15.5 -100.5zM426 726q26 0 51 -32q92 -117 96 -126q3 -6 3 -12q0 -11 -6.5 -18.5t-16.5 -7.5q-12 0 -31 10.5t-56 37.5t-54 38
q-26 -14 -63 -37l-59.5 -36t-31.5 -13q-12 0 -20 7.5t-8 19.5t19.5 31.5t119.5 107.5q35 30 57 30z" />
    <glyph glyph-name="atilde" unicode="&#xe3;" horiz-adv-x="700" 
d="M42 173q0 125 96 220t222 95q85 0 125 -62q89 62 128 62q14 0 26.5 -9t12.5 -22q0 -4 -15.5 -60t-31 -128.5t-15.5 -116.5q0 -19 11 -28.5t25 -11t25 -8t11 -21.5q0 -24 -90 -59.5t-122 -35.5q-23 0 -35.5 16t-12.5 40q0 22 8 66l-2 2q-31 -56 -81 -90t-110 -34
q-79 0 -127 52.5t-48 132.5zM256 144q0 -31 11 -46.5t27 -15.5q34 0 64.5 53t46 114t15.5 101q0 60 -38 60q-34 0 -64.5 -52.5t-46 -113t-15.5 -100.5zM472 660q26 0 48 20t33 20q27 0 27 -30q0 -28 -31 -71t-66 -43q-21 0 -62 18t-58 18q-25 0 -49 -20t-35 -20
q-10 0 -17.5 7t-7.5 18q0 31 33.5 75t65.5 44q23 0 61.5 -18t57.5 -18z" />
    <glyph glyph-name="adieresis" unicode="&#xe4;" horiz-adv-x="700" 
d="M42 173q0 125 96 220t222 95q85 0 125 -62q89 62 128 62q14 0 26.5 -9t12.5 -22q0 -4 -15.5 -60t-31 -128.5t-15.5 -116.5q0 -19 11 -28.5t25 -11t25 -8t11 -21.5q0 -24 -90 -59.5t-122 -35.5q-23 0 -35.5 16t-12.5 40q0 22 8 66l-2 2q-31 -56 -81 -90t-110 -34
q-79 0 -127 52.5t-48 132.5zM256 144q0 -31 11 -46.5t27 -15.5q34 0 64.5 53t46 114t15.5 101q0 60 -38 60q-34 0 -64.5 -52.5t-46 -113t-15.5 -100.5zM186 614q0 43 29.5 68.5t72.5 25.5q41 0 66.5 -18t25.5 -50q0 -43 -29.5 -68.5t-72.5 -25.5q-41 0 -66.5 18t-25.5 50z
M454 614q0 43 29.5 68.5t72.5 25.5q41 0 66.5 -18t25.5 -50q0 -43 -29.5 -68.5t-72.5 -25.5q-41 0 -66.5 18t-25.5 50z" />
    <glyph glyph-name="aring" unicode="&#xe5;" horiz-adv-x="700" 
d="M42 173q0 125 96 220t222 95q85 0 125 -62q89 62 128 62q14 0 26.5 -9t12.5 -22q0 -4 -15.5 -60t-31 -128.5t-15.5 -116.5q0 -19 11 -28.5t25 -11t25 -8t11 -21.5q0 -24 -90 -59.5t-122 -35.5q-23 0 -35.5 16t-12.5 40q0 22 8 66l-2 2q-31 -56 -81 -90t-110 -34
q-79 0 -127 52.5t-48 132.5zM256 144q0 -31 11 -46.5t27 -15.5q34 0 64.5 53t46 114t15.5 101q0 60 -38 60q-34 0 -64.5 -52.5t-46 -113t-15.5 -100.5zM314 634q0 45 32 77.5t78 32.5t78 -32.5t32 -77.5t-32 -77.5t-78 -32.5t-78 32.5t-32 77.5zM380 634q0 -18 12.5 -31
t31.5 -13t31.5 13t12.5 31t-12.5 31t-31.5 13t-31.5 -13t-12.5 -31z" />
    <glyph glyph-name="ae" unicode="&#xe6;" horiz-adv-x="940" 
d="M202 121q0 -19 13.5 -30t33.5 -11q48 0 78 39t41 91q-166 0 -166 -89zM334 288h44q8 28 8 45q0 67 -59 67q-34 0 -84.5 -41t-92.5 -41q-35 0 -55.5 14.5t-20.5 36.5q0 48 77.5 83.5t179.5 35.5q66 0 104 -13.5t72 -57.5q84 71 205 71q90 0 150 -35t60 -83
q0 -137 -310 -187q-9 -2 -25 -4q-12 -2 -17 -3q6 -94 107 -94q36 0 75.5 17.5t69.5 35t42 17.5q13 0 23.5 -10t10.5 -23q0 -24 -38 -54.5t-107 -53.5t-144 -23q-123 0 -172 79q-88 -79 -235 -79q-84 0 -145 33.5t-61 98.5q0 77 89 122t249 46zM572 250q36 4 70.5 15.5t64 38
t29.5 61.5q0 20 -13 32.5t-33 12.5q-46 0 -77.5 -52.5t-40.5 -107.5z" />
    <glyph glyph-name="ccedilla" unicode="&#xe7;" horiz-adv-x="580" 
d="M305 -10l-6 -24q25 6 53 6q41 0 73 -24t32 -72t-49.5 -73t-126.5 -25q-74 0 -122 16.5t-48 44.5q0 12 6.5 23.5t21.5 11.5q5 0 55.5 -17t100.5 -17q70 0 70 37q0 15 -11.5 24t-30.5 9q-14 0 -40 -7t-36 -7q-7 0 -13.5 5t-6.5 12q0 14 19 76q-95 7 -154.5 62t-59.5 148
q0 82 48 149t123 103.5t158 36.5q82 0 142.5 -35.5t60.5 -87.5q0 -28 -22.5 -47.5t-59.5 -19.5q-36 0 -53.5 16t-19 36t-10.5 36t-31 16q-41 0 -78.5 -64.5t-37.5 -148.5q0 -51 23.5 -79t57.5 -28q39 0 74 19.5t60 39t38 19.5t23 -8.5t10 -22.5q0 -45 -73 -87.5t-160 -51.5z
" />
    <glyph glyph-name="egrave" unicode="&#xe8;" horiz-adv-x="620" 
d="M32 196q0 118 107 205t253 87q90 0 150 -35t60 -83q0 -25 -9 -47t-30 -39.5t-39 -30.5t-52 -24.5t-52.5 -18.5t-56.5 -14.5t-49 -9.5t-44 -7q-13 -2 -18 -3q3 -94 105 -94q36 0 75.5 17.5t69.5 35t42 17.5q13 0 23.5 -10t10.5 -23q0 -24 -38 -54.5t-107 -53.5t-144 -23
q-111 0 -184 55t-73 153zM252 250q36 4 70.5 15.5t64 38t29.5 61.5q0 20 -13 32.5t-33 12.5q-46 0 -77.5 -52.5t-40.5 -107.5zM349 718h67q16 0 23.5 -6.5t15.5 -31.5q5 -17 17 -48.5t17.5 -50t5.5 -28.5t-7 -16.5t-18 -6.5q-3 0 -6 0.5t-5.5 1.5t-6.5 4t-7.5 6l-10 9
l-13 12.5l-17 17.5l-21.5 22l-27.5 28l-33.5 34q-11 11 -11 24q0 29 38 29z" />
    <glyph glyph-name="eacute" unicode="&#xe9;" horiz-adv-x="620" 
d="M32 196q0 118 107 205t253 87q90 0 150 -35t60 -83q0 -25 -9 -47t-30 -39.5t-39 -30.5t-52 -24.5t-52.5 -18.5t-56.5 -14.5t-49 -9.5t-44 -7q-13 -2 -18 -3q3 -94 105 -94q36 0 75.5 17.5t69.5 35t42 17.5q13 0 23.5 -10t10.5 -23q0 -24 -38 -54.5t-107 -53.5t-144 -23
q-111 0 -184 55t-73 153zM252 250q36 4 70.5 15.5t64 38t29.5 61.5q0 20 -13 32.5t-33 12.5q-46 0 -77.5 -52.5t-40.5 -107.5zM419 718h58q19 0 30.5 -8t11.5 -20q0 -14 -15 -28t-87 -69l-63 -48q-19 -15 -36 -15q-29 0 -29 21q0 12 51 88l39 58q15 21 40 21z" />
    <glyph glyph-name="ecircumflex" unicode="&#xea;" horiz-adv-x="620" 
d="M32 196q0 118 107 205t253 87q90 0 150 -35t60 -83q0 -25 -9 -47t-30 -39.5t-39 -30.5t-52 -24.5t-52.5 -18.5t-56.5 -14.5t-49 -9.5t-44 -7q-13 -2 -18 -3q3 -94 105 -94q36 0 75.5 17.5t69.5 35t42 17.5q13 0 23.5 -10t10.5 -23q0 -24 -38 -54.5t-107 -53.5t-144 -23
q-111 0 -184 55t-73 153zM252 250q36 4 70.5 15.5t64 38t29.5 61.5q0 20 -13 32.5t-33 12.5q-46 0 -77.5 -52.5t-40.5 -107.5zM409 726q26 0 51 -32q92 -117 96 -126q3 -6 3 -12q0 -11 -6.5 -18.5t-16.5 -7.5q-12 0 -31 10.5t-56 37.5t-54 38q-26 -14 -63 -37l-59.5 -36
t-31.5 -13q-12 0 -20 7.5t-8 19.5t19.5 31.5t119.5 107.5q35 30 57 30z" />
    <glyph glyph-name="edieresis" unicode="&#xeb;" horiz-adv-x="620" 
d="M32 196q0 118 107 205t253 87q90 0 150 -35t60 -83q0 -25 -9 -47t-30 -39.5t-39 -30.5t-52 -24.5t-52.5 -18.5t-56.5 -14.5t-49 -9.5t-44 -7q-13 -2 -18 -3q3 -94 105 -94q36 0 75.5 17.5t69.5 35t42 17.5q13 0 23.5 -10t10.5 -23q0 -24 -38 -54.5t-107 -53.5t-144 -23
q-111 0 -184 55t-73 153zM252 250q36 4 70.5 15.5t64 38t29.5 61.5q0 20 -13 32.5t-33 12.5q-46 0 -77.5 -52.5t-40.5 -107.5zM169 614q0 43 29.5 68.5t72.5 25.5q41 0 66.5 -18t25.5 -50q0 -43 -29.5 -68.5t-72.5 -25.5q-41 0 -66.5 18t-25.5 50zM437 614q0 43 29.5 68.5
t72.5 25.5q41 0 66.5 -18t25.5 -50q0 -43 -29.5 -68.5t-72.5 -25.5q-41 0 -66.5 18t-25.5 50z" />
    <glyph glyph-name="igrave" unicode="&#xec;" horiz-adv-x="370" 
d="M326 432q0 -18 -27 -145t-27 -140t8 -21t18 -11t18 -13t8 -26q0 -22 -99 -55t-134 -33q-47 0 -47 49q0 27 27 152t27 129q0 14 -8 22t-18 10.5t-18 9.5t-8 18q0 37 94 67.5t144 30.5q21 0 31.5 -12.5t10.5 -31.5zM183 718h67q16 0 23.5 -6.5t15.5 -31.5q5 -17 17 -48.5
t17.5 -50t5.5 -28.5t-7 -16.5t-18 -6.5q-3 0 -6 0.5t-5.5 1.5t-6.5 4t-7.5 6l-10 9l-13 12.5l-17 17.5l-21.5 22l-27.5 28l-33.5 34q-11 11 -11 24q0 29 38 29z" />
    <glyph glyph-name="iacute" unicode="&#xed;" horiz-adv-x="370" 
d="M326 432q0 -18 -27 -145t-27 -140t8 -21t18 -11t18 -13t8 -26q0 -22 -99 -55t-134 -33q-47 0 -47 49q0 27 27 152t27 129q0 14 -8 22t-18 10.5t-18 9.5t-8 18q0 37 94 67.5t144 30.5q21 0 31.5 -12.5t10.5 -31.5zM253 718h58q19 0 30.5 -8t11.5 -20q0 -14 -15 -28
t-87 -69l-63 -48q-19 -15 -36 -15q-29 0 -29 21q0 12 51 88l39 58q15 21 40 21z" />
    <glyph glyph-name="icircumflex" unicode="&#xee;" horiz-adv-x="370" 
d="M326 432q0 -18 -27 -145t-27 -140t8 -21t18 -11t18 -13t8 -26q0 -22 -99 -55t-134 -33q-47 0 -47 49q0 27 27 152t27 129q0 14 -8 22t-18 10.5t-18 9.5t-8 18q0 37 94 67.5t144 30.5q21 0 31.5 -12.5t10.5 -31.5zM243 726q26 0 51 -32q92 -117 96 -126q3 -6 3 -12
q0 -11 -6.5 -18.5t-16.5 -7.5q-12 0 -31 10.5t-56 37.5t-54 38q-26 -14 -63 -37l-59.5 -36t-31.5 -13q-12 0 -20 7.5t-8 19.5t19.5 31.5t119.5 107.5q35 30 57 30z" />
    <glyph glyph-name="idieresis" unicode="&#xef;" horiz-adv-x="370" 
d="M326 432q0 -18 -27 -145t-27 -140t8 -21t18 -11t18 -13t8 -26q0 -22 -99 -55t-134 -33q-47 0 -47 49q0 27 27 152t27 129q0 14 -8 22t-18 10.5t-18 9.5t-8 18q0 37 94 67.5t144 30.5q21 0 31.5 -12.5t10.5 -31.5zM3 614q0 43 29.5 68.5t72.5 25.5q41 0 66.5 -18t25.5 -50
q0 -43 -29.5 -68.5t-72.5 -25.5q-41 0 -66.5 18t-25.5 50zM271 614q0 43 29.5 68.5t72.5 25.5q41 0 66.5 -18t25.5 -50q0 -43 -29.5 -68.5t-72.5 -25.5q-41 0 -66.5 18t-25.5 50z" />
    <glyph glyph-name="eth" unicode="&#xf0;" horiz-adv-x="680" 
d="M434 290q0 90 -66 90q-55 0 -85.5 -61.5t-30.5 -154.5q0 -90 66 -90q55 0 85.5 61t30.5 155zM402 678l117 59q14 7 32 7q12 0 23.5 -11t11.5 -23q0 -28 -25 -40l-84 -42q5 -3 19 -14q158 -134 158 -338q0 -93 -50 -160t-125.5 -97.5t-164.5 -30.5q-132 0 -207 57.5
t-75 146.5q0 131 88.5 202.5t231.5 71.5q34 0 53 -4q-16 62 -49 105l-102 -51q-24 -12 -35 -12q-14 0 -25.5 11t-11.5 26q0 26 22 37l94 48q-40 31 -98 53q-20 8 -28 14.5t-8 20.5q0 13 9.5 21.5t24.5 8.5q25 0 83.5 -16t120.5 -50z" />
    <glyph glyph-name="ntilde" unicode="&#xf1;" 
d="M210 0h-130q-20 0 -28 4t-8 16t27 139.5t27 153.5q0 18 -8.5 28t-18.5 11.5t-18.5 8.5t-8.5 21q0 32 97.5 69t125.5 37q43 0 43 -69q0 -35 -10 -75l2 -2q82 146 199 146q56 0 99.5 -31.5t43.5 -85.5q0 -22 -22 -108.5t-22 -106.5q0 -16 11.5 -25t25.5 -11t25.5 -8.5
t11.5 -19.5q0 -34 -101 -69t-155 -35q-42 0 -42 59q0 22 27 146t27 139q0 32 -31 32q-37 0 -69 -64t-67 -238q-8 -37 -18 -49.5t-35 -12.5zM473 660q26 0 48 20t33 20q27 0 27 -30q0 -28 -31 -71t-66 -43q-21 0 -62 18t-58 18q-25 0 -49 -20t-35 -20q-10 0 -17.5 7t-7.5 18
q0 31 33.5 75t65.5 44q23 0 61.5 -18t57.5 -18z" />
    <glyph glyph-name="ograve" unicode="&#xf2;" horiz-adv-x="680" 
d="M32 210q0 125 102 201.5t238 76.5q123 0 202.5 -62t79.5 -160q0 -125 -102 -201.5t-238 -76.5q-123 0 -202.5 62t-79.5 160zM252 170q0 -96 66 -96q55 0 85.5 66t30.5 166q0 96 -66 96q-55 0 -85.5 -66t-30.5 -166zM347 718h67q16 0 23.5 -6.5t15.5 -31.5q5 -17 17 -48.5
t17.5 -50t5.5 -28.5t-7 -16.5t-18 -6.5q-3 0 -6 0.5t-5.5 1.5t-6.5 4t-7.5 6l-10 9l-13 12.5l-17 17.5l-21.5 22l-27.5 28l-33.5 34q-11 11 -11 24q0 29 38 29z" />
    <glyph glyph-name="oacute" unicode="&#xf3;" horiz-adv-x="680" 
d="M32 210q0 125 102 201.5t238 76.5q123 0 202.5 -62t79.5 -160q0 -125 -102 -201.5t-238 -76.5q-123 0 -202.5 62t-79.5 160zM252 170q0 -96 66 -96q55 0 85.5 66t30.5 166q0 96 -66 96q-55 0 -85.5 -66t-30.5 -166zM417 718h58q19 0 30.5 -8t11.5 -20q0 -14 -15 -28
t-87 -69l-63 -48q-19 -15 -36 -15q-29 0 -29 21q0 12 51 88l39 58q15 21 40 21z" />
    <glyph glyph-name="ocircumflex" unicode="&#xf4;" horiz-adv-x="680" 
d="M32 210q0 125 102 201.5t238 76.5q123 0 202.5 -62t79.5 -160q0 -125 -102 -201.5t-238 -76.5q-123 0 -202.5 62t-79.5 160zM252 170q0 -96 66 -96q55 0 85.5 66t30.5 166q0 96 -66 96q-55 0 -85.5 -66t-30.5 -166zM407 726q26 0 51 -32q92 -117 96 -126q3 -6 3 -12
q0 -11 -6.5 -18.5t-16.5 -7.5q-12 0 -31 10.5t-56 37.5t-54 38q-26 -14 -63 -37l-59.5 -36t-31.5 -13q-12 0 -20 7.5t-8 19.5t19.5 31.5t119.5 107.5q35 30 57 30z" />
    <glyph glyph-name="otilde" unicode="&#xf5;" horiz-adv-x="680" 
d="M32 210q0 125 102 201.5t238 76.5q123 0 202.5 -62t79.5 -160q0 -125 -102 -201.5t-238 -76.5q-123 0 -202.5 62t-79.5 160zM252 170q0 -96 66 -96q55 0 85.5 66t30.5 166q0 96 -66 96q-55 0 -85.5 -66t-30.5 -166zM453 660q26 0 48 20t33 20q27 0 27 -30q0 -28 -31 -71
t-66 -43q-21 0 -62 18t-58 18q-25 0 -49 -20t-35 -20q-10 0 -17.5 7t-7.5 18q0 31 33.5 75t65.5 44q23 0 61.5 -18t57.5 -18z" />
    <glyph glyph-name="odieresis" unicode="&#xf6;" horiz-adv-x="680" 
d="M32 210q0 125 102 201.5t238 76.5q123 0 202.5 -62t79.5 -160q0 -125 -102 -201.5t-238 -76.5q-123 0 -202.5 62t-79.5 160zM252 170q0 -96 66 -96q55 0 85.5 66t30.5 166q0 96 -66 96q-55 0 -85.5 -66t-30.5 -166zM167 614q0 43 29.5 68.5t72.5 25.5q41 0 66.5 -18
t25.5 -50q0 -43 -29.5 -68.5t-72.5 -25.5q-41 0 -66.5 18t-25.5 50zM435 614q0 43 29.5 68.5t72.5 25.5q41 0 66.5 -18t25.5 -50q0 -43 -29.5 -68.5t-72.5 -25.5q-41 0 -66.5 18t-25.5 50z" />
    <glyph glyph-name="divide" unicode="&#xf7;" horiz-adv-x="660" 
d="M556 160h-476v156h476v-156zM223 457q0 39 28 67t67 28t67 -28t28 -67t-28 -67t-67 -28t-67 28t-28 67zM223 19q0 39 28 67t67 28t67 -28t28 -67t-28 -67t-67 -28t-67 28t-28 67z" />
    <glyph glyph-name="oslash" unicode="&#xf8;" horiz-adv-x="680" 
d="M444 271l-192 -169q10 -28 66 -28q51 0 86 54t40 143zM241 194l197 175q-21 33 -70 33q-53 0 -87.5 -54.5t-39.5 -153.5zM32 210q0 125 102 201.5t238 76.5q94 0 161 -36q5 5 9 8q5 4 15.5 14l16 15t14.5 11.5t17 9t17 2.5q13 0 22.5 -9.5t9.5 -22.5q0 -24 -57 -74
q57 -55 57 -140q0 -125 -102 -201.5t-238 -76.5q-87 0 -156 33q-5 -5 -16 -14.5l-15 -13l-12 -10t-12 -8.5l-10.5 -5.5t-12.5 -4.5t-12 -1q-13 0 -23.5 10t-10.5 23q0 22 60 68q-62 60 -62 145z" />
    <glyph glyph-name="ugrave" unicode="&#xf9;" horiz-adv-x="730" 
d="M486 476h156q24 0 24 -17q0 -9 -29 -137.5t-29 -160.5q0 -17 11.5 -26.5t25.5 -12t25.5 -10t11.5 -21.5q0 -29 -103 -66t-143 -37q-21 0 -29.5 14.5t-8.5 52.5q0 15 3 44t3 41l-2 2q-28 -69 -79 -111.5t-121 -42.5q-57 0 -96.5 35t-39.5 83q0 21 20 112t20 100
q0 15 -9 24.5t-20 13t-20 10.5t-9 18q0 36 102.5 70t139.5 34q19 0 30.5 -14t11.5 -36q0 -28 -26 -147t-26 -148q0 -31 27 -31q39 0 75 76t60 210q9 51 16.5 64.5t27.5 13.5zM367 718h67q16 0 23.5 -6.5t15.5 -31.5q5 -17 17 -48.5t17.5 -50t5.5 -28.5t-7 -16.5t-18 -6.5
q-3 0 -6 0.5t-5.5 1.5t-6.5 4t-7.5 6l-10 9l-13 12.5l-17 17.5l-21.5 22l-27.5 28l-33.5 34q-11 11 -11 24q0 29 38 29z" />
    <glyph glyph-name="uacute" unicode="&#xfa;" horiz-adv-x="730" 
d="M486 476h156q24 0 24 -17q0 -9 -29 -137.5t-29 -160.5q0 -17 11.5 -26.5t25.5 -12t25.5 -10t11.5 -21.5q0 -29 -103 -66t-143 -37q-21 0 -29.5 14.5t-8.5 52.5q0 15 3 44t3 41l-2 2q-28 -69 -79 -111.5t-121 -42.5q-57 0 -96.5 35t-39.5 83q0 21 20 112t20 100
q0 15 -9 24.5t-20 13t-20 10.5t-9 18q0 36 102.5 70t139.5 34q19 0 30.5 -14t11.5 -36q0 -28 -26 -147t-26 -148q0 -31 27 -31q39 0 75 76t60 210q9 51 16.5 64.5t27.5 13.5zM437 718h58q19 0 30.5 -8t11.5 -20q0 -14 -15 -28t-87 -69l-63 -48q-19 -15 -36 -15q-29 0 -29 21
q0 12 51 88l39 58q15 21 40 21z" />
    <glyph glyph-name="ucircumflex" unicode="&#xfb;" horiz-adv-x="730" 
d="M486 476h156q24 0 24 -17q0 -9 -29 -137.5t-29 -160.5q0 -17 11.5 -26.5t25.5 -12t25.5 -10t11.5 -21.5q0 -29 -103 -66t-143 -37q-21 0 -29.5 14.5t-8.5 52.5q0 15 3 44t3 41l-2 2q-28 -69 -79 -111.5t-121 -42.5q-57 0 -96.5 35t-39.5 83q0 21 20 112t20 100
q0 15 -9 24.5t-20 13t-20 10.5t-9 18q0 36 102.5 70t139.5 34q19 0 30.5 -14t11.5 -36q0 -28 -26 -147t-26 -148q0 -31 27 -31q39 0 75 76t60 210q9 51 16.5 64.5t27.5 13.5zM427 726q26 0 51 -32q92 -117 96 -126q3 -6 3 -12q0 -11 -6.5 -18.5t-16.5 -7.5q-12 0 -31 10.5
t-56 37.5t-54 38q-26 -14 -63 -37l-59.5 -36t-31.5 -13q-12 0 -20 7.5t-8 19.5t19.5 31.5t119.5 107.5q35 30 57 30z" />
    <glyph glyph-name="udieresis" unicode="&#xfc;" horiz-adv-x="730" 
d="M486 476h156q24 0 24 -17q0 -9 -29 -137.5t-29 -160.5q0 -17 11.5 -26.5t25.5 -12t25.5 -10t11.5 -21.5q0 -29 -103 -66t-143 -37q-21 0 -29.5 14.5t-8.5 52.5q0 15 3 44t3 41l-2 2q-28 -69 -79 -111.5t-121 -42.5q-57 0 -96.5 35t-39.5 83q0 21 20 112t20 100
q0 15 -9 24.5t-20 13t-20 10.5t-9 18q0 36 102.5 70t139.5 34q19 0 30.5 -14t11.5 -36q0 -28 -26 -147t-26 -148q0 -31 27 -31q39 0 75 76t60 210q9 51 16.5 64.5t27.5 13.5zM187 614q0 43 29.5 68.5t72.5 25.5q41 0 66.5 -18t25.5 -50q0 -43 -29.5 -68.5t-72.5 -25.5
q-41 0 -66.5 18t-25.5 50zM455 614q0 43 29.5 68.5t72.5 25.5q41 0 66.5 -18t25.5 -50q0 -43 -29.5 -68.5t-72.5 -25.5q-41 0 -66.5 18t-25.5 50z" />
    <glyph glyph-name="yacute" unicode="&#xfd;" horiz-adv-x="590" 
d="M74 164l-4 174q0 16 -9 24t-20 10t-20 11t-9 27q0 30 94.5 54t125.5 24q42 0 42 -36q0 -16 -2 -56.5t-2 -63.5q0 -133 15 -186.5t45 -53.5q40 0 81 76.5t41 122.5q0 22 -27 51t-27 62q0 36 24 60t60 24q34 0 56 -28t22 -82q0 -67 -43.5 -168.5t-108.5 -194t-148.5 -159
t-154.5 -66.5q-47 0 -72 18.5t-25 50.5q0 28 21 46.5t49 18.5q21 0 45 -15t33 -15q34 0 86.5 48.5t71.5 85.5l-2 2q-39 -42 -96 -42q-63 0 -102 47.5t-40 128.5zM372 718h58q19 0 30.5 -8t11.5 -20q0 -14 -15 -28t-87 -69l-63 -48q-19 -15 -36 -15q-29 0 -29 21q0 12 51 88
l39 58q15 21 40 21z" />
    <glyph glyph-name="thorn" unicode="&#xfe;" horiz-adv-x="700" 
d="M196 -198h-156q-74 0 -74 40q0 17 7.5 25.5t17.5 10.5t20.5 12.5t14.5 31.5q120 579 120 647q0 20 -9 30t-19 12t-19 9t-9 20q0 30 93.5 67t122.5 37q22 0 34 -15t12 -39q0 -10 -2 -26.5t-7.5 -48t-11.5 -62.5l-17 -90.5l-20 -112.5l2 -2q23 33 40.5 53t43 42.5t55 33.5
t63.5 11q84 0 130 -50t46 -132q0 -124 -91 -221t-216 -97q-31 0 -55 13.5t-24 42.5q0 16 10 27t28 11q29 0 55 28t41 67t23.5 75t8.5 57q0 55 -37 55q-42 0 -80.5 -67.5t-60 -154.5t-34 -154t-12.5 -82q0 -14 15 -30.5t15 -28.5q0 -20 -18.5 -32.5t-45.5 -12.5z" />
    <glyph glyph-name="ydieresis" unicode="&#xff;" horiz-adv-x="590" 
d="M74 164l-4 174q0 16 -9 24t-20 10t-20 11t-9 27q0 30 94.5 54t125.5 24q42 0 42 -36q0 -16 -2 -56.5t-2 -63.5q0 -133 15 -186.5t45 -53.5q40 0 81 76.5t41 122.5q0 22 -27 51t-27 62q0 36 24 60t60 24q34 0 56 -28t22 -82q0 -67 -43.5 -168.5t-108.5 -194t-148.5 -159
t-154.5 -66.5q-47 0 -72 18.5t-25 50.5q0 28 21 46.5t49 18.5q21 0 45 -15t33 -15q34 0 86.5 48.5t71.5 85.5l-2 2q-39 -42 -96 -42q-63 0 -102 47.5t-40 128.5zM122 614q0 43 29.5 68.5t72.5 25.5q41 0 66.5 -18t25.5 -50q0 -43 -29.5 -68.5t-72.5 -25.5q-41 0 -66.5 18
t-25.5 50zM390 614q0 43 29.5 68.5t72.5 25.5q41 0 66.5 -18t25.5 -50q0 -43 -29.5 -68.5t-72.5 -25.5q-41 0 -66.5 18t-25.5 50z" />
    <glyph glyph-name="dotlessi" unicode="&#x131;" horiz-adv-x="370" 
d="M326 432q0 -18 -27 -145t-27 -140t8 -21t18 -11t18 -13t8 -26q0 -22 -99 -55t-134 -33q-47 0 -47 49q0 27 27 152t27 129q0 14 -8 22t-18 10.5t-18 9.5t-8 18q0 37 94 67.5t144 30.5q21 0 31.5 -12.5t10.5 -31.5z" />
    <glyph glyph-name="Lslash" unicode="&#x141;" horiz-adv-x="670" 
d="M66 293l33 17q51 295 51 316q0 17 -20 34t-20 30q0 19 14.5 30.5t31.5 11.5h245q55 0 55 -35q0 -10 -5 -17t-13 -12.5t-16.5 -13t-16.5 -21t-11 -32.5l-29 -161l83 40q56 28 69 28q15 0 23.5 -13.5t8.5 -28.5q0 -14 -11 -24t-41 -25l-149 -74q-32 -170 -32 -217
q0 -22 14.5 -30t53.5 -8h51q42 0 74 18t47.5 39t36 39t42.5 18q20 0 32.5 -11t12.5 -27t-34 -86q-12 -25 -17 -34t-16 -22.5t-23.5 -17.5t-31.5 -4h-486q-36 0 -51 8t-15 27q0 13 8 22t18.5 14t21.5 21.5t15 42.5q0 1 1 6.5l4.5 25.5l7.5 45q-62 -32 -71 -32q-13 0 -22 13.5
t-9 29.5q0 18 17 31t69 39z" />
    <glyph glyph-name="lslash" unicode="&#x142;" horiz-adv-x="390" 
d="M44 37q0 21 43 233q-63 -36 -77 -36q-9 0 -16 9.5t-7 26.5q0 18 30 39t88 52q24 111 43 225q0 14 -8 22t-18 10.5t-18 9.5t-8 18q0 37 94 67.5t144 30.5q21 0 31.5 -12.5t10.5 -31.5q0 -18 -40 -211q68 39 78 39t16.5 -10.5t6.5 -26.5q0 -29 -120 -95q-45 -214 -45 -226
q0 -22 11.5 -34t25.5 -14t25.5 -9t11.5 -21q0 -27 -109 -65.5t-146 -38.5q-47 0 -47 49z" />
    <glyph glyph-name="OE" unicode="&#x152;" horiz-adv-x="1130" 
d="M667 732h431q25 0 37.5 -11t12.5 -38q0 -119 -63 -119q-18 0 -27.5 8t-17 20t-19 24t-42.5 20t-79 8q-21 0 -30 -0.5t-21 -8t-16.5 -17t-11.5 -36.5t-12 -56t-13 -86h112q30 0 61 22t41 22q13 0 22.5 -10.5t9.5 -23.5q0 -12 -2 -31t-7 -46.5t-17.5 -46t-30.5 -18.5
q-19 0 -40 22t-57 22h-102q-32 -165 -32 -206q0 -58 50 -58h70q35 0 62.5 14.5t41.5 32.5t31 32.5t34 14.5q45 0 45 -36q0 -31 -18 -77q-1 -3 -5 -13l-5 -12.5l-4 -10t-4.5 -9t-5.5 -7t-6.5 -7t-7 -4.5t-9.5 -3.5t-11.5 -1.5t-13.5 -1h-468q-26 0 -26 19q0 5 2 14t2 13l-2 2
q-49 -60 -161 -60q-141 0 -222 91t-81 233q0 110 51.5 209t145 161t204.5 62q112 0 170 -58q5 29 15 37.5t39 8.5zM294 269q0 -102 36.5 -147.5t95.5 -45.5q93 0 112 149q4 30 29 171.5t25 187.5q0 35 -22.5 53.5t-58.5 18.5q-85 0 -151 -103.5t-66 -283.5z" />
    <glyph glyph-name="oe" unicode="&#x153;" horiz-adv-x="1010" 
d="M252 170q0 -96 66 -96q55 0 85.5 66t30.5 166q0 96 -66 96q-55 0 -85.5 -66t-30.5 -166zM372 488q120 0 198 -59q96 59 212 59q90 0 150 -35t60 -83q0 -40 -26.5 -72.5t-63 -51.5t-88 -34t-88 -21.5t-75.5 -12.5q-10 -1 -15 -2q15 -54 40 -74t71 -20q36 0 75.5 17.5
t69.5 35t42 17.5q13 0 23.5 -10t10.5 -23q0 -24 -38 -54.5t-107 -53.5t-144 -23q-104 0 -173 48q-87 -48 -192 -48q-123 0 -202.5 62t-79.5 160q0 125 102 201.5t238 76.5zM806 365q0 20 -13 32.5t-33 12.5q-46 0 -77.5 -52.5t-40.5 -107.5q36 4 70.5 15.5t64 38t29.5 61.5z
" />
    <glyph glyph-name="Scaron" unicode="&#x160;" horiz-adv-x="710" 
d="M-16 161q0 31 20 53t51 22q24 0 39.5 -16.5t28 -40t29 -47t53.5 -40t91 -16.5q59 0 96.5 31t37.5 73q0 26 -20 44t-52.5 28.5t-71.5 20t-78 23.5t-71.5 34.5t-52.5 57t-20 86.5q0 113 93 191.5t250 78.5q91 0 185 -29.5t94 -64.5q0 -85 -14.5 -117.5t-46.5 -32.5
q-21 0 -32.5 12.5t-15 30.5t-11.5 40t-19.5 40t-42 30.5t-76.5 12.5q-52 0 -85 -26t-33 -63t37.5 -61t91.5 -39t108 -34t91.5 -60.5t37.5 -104.5q0 -82 -54.5 -149.5t-138 -104t-173.5 -36.5q-79 0 -152 19.5t-123.5 60t-50.5 93.5zM400 754q-26 0 -51 32q-92 117 -96 126
q-3 6 -3 12q0 11 6.5 18.5t16.5 7.5q12 0 31 -10.5t56 -37.5t54 -38q26 14 63 37l59.5 36t31.5 13q12 0 20 -7.5t8 -19.5t-19.5 -31.5t-119.5 -107.5q-35 -30 -57 -30z" />
    <glyph glyph-name="scaron" unicode="&#x161;" horiz-adv-x="570" 
d="M8 107q0 29 20.5 49.5t48.5 20.5q26 0 39 -11.5t17.5 -27.5t10 -32.5t24 -28t51.5 -11.5q40 0 59.5 14t19.5 35q0 23 -24 38.5t-58.5 26.5t-69 24t-58.5 40t-24 67q0 74 72.5 125.5t189.5 51.5q88 0 150 -29.5t62 -79.5q0 -27 -18 -43.5t-45 -16.5t-42 9.5t-20.5 22.5
l-11 26.5t-20.5 23t-42 9.5q-28 0 -44.5 -11t-16.5 -28q0 -22 25.5 -37t62 -25.5t73 -24.5t62 -42t25.5 -70q0 -80 -85.5 -132t-194.5 -52q-95 0 -166.5 33t-71.5 86zM330 530q-26 0 -51 32q-92 117 -96 126q-3 6 -3 12q0 11 6.5 18.5t16.5 7.5q12 0 31 -10.5t56 -37.5
t54 -38q26 14 63 37l59.5 36t31.5 13q12 0 20 -7.5t8 -19.5t-19.5 -31.5t-119.5 -107.5q-35 -30 -57 -30z" />
    <glyph glyph-name="Ydieresis" unicode="&#x178;" horiz-adv-x="740" 
d="M96 732h246q70 0 70 -35q0 -13 -9 -22t-19 -13.5t-19 -14.5t-9 -26q0 -76 96 -235q76 94 116 148t49 72t9 30q0 14 -18 28t-18 28q0 40 55 40h117q54 0 54 -35q0 -14 -7 -21t-26 -21t-37 -35l-258 -317q-5 -33 -13 -76t-12.5 -70t-4.5 -44q0 -16 10.5 -25.5t23.5 -13
t23.5 -11.5t10.5 -22q0 -41 -56 -41h-290q-52 0 -52 35q0 18 13 28t29.5 13t32 14.5t19.5 33.5l28 166q-88 130 -149 311q-8 25 -20.5 40t-21.5 19t-16 11.5t-7 20.5q0 40 60 40zM197 838q0 43 29.5 68.5t72.5 25.5q41 0 66.5 -18t25.5 -50q0 -43 -29.5 -68.5t-72.5 -25.5
q-41 0 -66.5 18t-25.5 50zM465 838q0 43 29.5 68.5t72.5 25.5q41 0 66.5 -18t25.5 -50q0 -43 -29.5 -68.5t-72.5 -25.5q-41 0 -66.5 18t-25.5 50z" />
    <glyph glyph-name="Zcaron" unicode="&#x17d;" horiz-adv-x="640" 
d="M411 644h-77q-52 0 -87 -9.5t-50.5 -23t-26.5 -27t-23.5 -23t-31.5 -9.5q-39 0 -39 32q0 16 2.5 36.5t10 48t25 45.5t42.5 18h516q21 0 30.5 -8.5t9.5 -29.5q0 -39 -73 -137.5t-161 -194.5l-161 -177t-73 -89t13 -8h139q36 0 65.5 14.5t46 32.5t36.5 32.5t38 14.5
q38 0 38 -31q0 -7 -3.5 -19t-11.5 -35.5l-14 -42.5q-16 -54 -78 -54h-501q-54 0 -54 54q0 37 73.5 133t161.5 190l161.5 173.5t73.5 87.5q0 6 -17 6zM365 754q-26 0 -51 32q-92 117 -96 126q-3 6 -3 12q0 11 6.5 18.5t16.5 7.5q12 0 31 -10.5t56 -37.5t54 -38q26 14 63 37
l59.5 36t31.5 13q12 0 20 -7.5t8 -19.5t-19.5 -31.5t-119.5 -107.5q-35 -30 -57 -30z" />
    <glyph glyph-name="zcaron" unicode="&#x17e;" horiz-adv-x="520" 
d="M342 0h-308q-46 0 -46 37q0 17 20.5 46t109.5 143l134 172h-48q-15 0 -24 -14.5t-14 -32t-21 -32t-43 -14.5q-21 0 -36.5 15.5t-15.5 37.5q0 51 42.5 84.5t89.5 33.5h290q44 0 44 -35q0 -8 -2 -15t-10 -19t-18.5 -25.5l-33.5 -41.5l-48.5 -59.5l-69.5 -86.5l-92 -116h74
q16 0 27.5 15.5t17.5 33.5t23 33.5t44 15.5q21 0 37.5 -15t16.5 -41q0 -48 -42 -84t-98 -36zM305 530q-26 0 -51 32q-92 117 -96 126q-3 6 -3 12q0 11 6.5 18.5t16.5 7.5q12 0 31 -10.5t56 -37.5t54 -38q26 14 63 37l59.5 36t31.5 13q12 0 20 -7.5t8 -19.5t-19.5 -31.5
t-119.5 -107.5q-35 -30 -57 -30z" />
    <glyph glyph-name="florin" unicode="&#x192;" 
d="M194 468h84q107 322 317 322q37 0 75.5 -12t69 -40t30.5 -67q0 -26 -16.5 -46.5t-42.5 -20.5t-44.5 14.5t-26.5 32.5t-20 32.5t-27 14.5q-9 0 -17.5 -4t-16 -13.5t-13.5 -19t-13 -25.5t-11.5 -29t-11 -33.5l-10.5 -34l-10.5 -36.5t-9.5 -35h92q46 0 46 -38
q0 -24 -17.5 -39t-49.5 -15h-93q-60 -193 -91 -268q-134 -318 -337 -318q-67 0 -117.5 35t-50.5 86q0 28 22 49.5t50 21.5q25 0 43.5 -17t27 -38t24.5 -38t37 -17q29 0 48 26t37 92l103 386h-64q-50 0 -50 46q0 21 15.5 33.5t38.5 12.5z" />
    <glyph glyph-name="circumflex" unicode="&#x2c6;" horiz-adv-x="370" 
d="M252 726q26 0 51 -32q92 -117 96 -126q3 -6 3 -12q0 -11 -6.5 -18.5t-16.5 -7.5q-12 0 -31 10.5t-56 37.5t-54 38q-26 -14 -63 -37l-59.5 -36t-31.5 -13q-12 0 -20 7.5t-8 19.5t19.5 31.5t119.5 107.5q35 30 57 30z" />
    <glyph glyph-name="caron" unicode="&#x2c7;" horiz-adv-x="370" 
d="M230 530q-26 0 -51 32q-92 117 -96 126q-3 6 -3 12q0 11 6.5 18.5t16.5 7.5q12 0 31 -10.5t56 -37.5t54 -38q26 14 63 37l59.5 36t31.5 13q12 0 20 -7.5t8 -19.5t-19.5 -31.5t-119.5 -107.5q-35 -30 -57 -30z" />
    <glyph glyph-name="uni02C9" unicode="&#x2c9;" horiz-adv-x="370" 
d="M126 678h266q72 0 72 -38q0 -26 -27 -43t-73 -17h-266q-72 0 -72 38q0 26 27 43t73 17z" />
    <glyph glyph-name="breve" unicode="&#x2d8;" horiz-adv-x="370" 
d="M98 693q0 13 8 21t20 8q11 0 22.5 -11.5t21.5 -25.5t34 -25.5t57 -11.5t59 11.5t37.5 25.5t24 25.5t22.5 11.5t17 -8t7 -19q0 -43 -54.5 -91t-133.5 -48q-71 0 -106.5 45t-35.5 92z" />
    <glyph glyph-name="dotaccent" unicode="&#x2d9;" horiz-adv-x="370" 
d="M146 614q0 43 29.5 68.5t72.5 25.5q41 0 66.5 -18t25.5 -50q0 -43 -29.5 -68.5t-72.5 -25.5q-41 0 -66.5 18t-25.5 50z" />
    <glyph glyph-name="ring" unicode="&#x2da;" horiz-adv-x="370" 
d="M140 634q0 45 32 77.5t78 32.5t78 -32.5t32 -77.5t-32 -77.5t-78 -32.5t-78 32.5t-32 77.5zM206 634q0 -18 12.5 -31t31.5 -13t31.5 13t12.5 31t-12.5 31t-31.5 13t-31.5 -13t-12.5 -31z" />
    <glyph glyph-name="ogonek" unicode="&#x2db;" horiz-adv-x="370" 
d="M30 0h92q-34 -15 -56 -43t-22 -62q0 -51 53 -51q18 0 46 13t38 13q9 0 16 -8.5t7 -18.5q0 -22 -34 -41.5t-83 -19.5q-60 0 -97.5 26.5t-37.5 76.5q0 31 19.5 63t58.5 52z" />
    <glyph glyph-name="tilde" unicode="&#x2dc;" horiz-adv-x="370" 
d="M298 660q26 0 48 20t33 20q27 0 27 -30q0 -28 -31 -71t-66 -43q-21 0 -62 18t-58 18q-25 0 -49 -20t-35 -20q-10 0 -17.5 7t-7.5 18q0 31 33.5 75t65.5 44q23 0 61.5 -18t57.5 -18z" />
    <glyph glyph-name="hungarumlaut" unicode="&#x2dd;" horiz-adv-x="370" 
d="M188 718h58q19 0 30.5 -8t11.5 -20q0 -14 -12 -26t-81 -67l-64 -52q-19 -15 -36 -15q-25 0 -25 21q0 3 1 6.5t4 10l6 12.5t10 18.5l14 24l19.5 33l23.5 41.5q12 21 40 21zM396 718h58q19 0 30.5 -8t11.5 -20q0 -14 -15 -28t-87 -69l-63 -48q-19 -15 -36 -15q-29 0 -29 21
q0 12 51 88l39 58q15 21 40 21z" />
    <glyph glyph-name="uni03A9" unicode="&#x3a9;" horiz-adv-x="940" 
d="M871 202l-73 -202h-339l-7 31l55 72t56 82t59 111t32 111q25 142 -9 212t-118 70q-85 0 -140.5 -68t-81.5 -217q-28 -159 67 -372l-16 -32h-343l4 202h44q13 -47 30 -61.5t59 -14.5h109q-37 24 -64 46.5t-56 58t-40.5 82t-1.5 100.5q26 149 148.5 237.5t294.5 88.5
q173 0 262 -86.5t63 -232.5q-9 -48 -35.5 -92t-68.5 -81.5t-80.5 -64t-88.5 -56.5h125q40 0 60 14.5t49 61.5h45z" />
    <glyph glyph-name="uni03BC" unicode="&#x3bc;" horiz-adv-x="730" 
d="M486 476h156q24 0 24 -17q0 -9 -29 -137.5t-29 -160.5q0 -17 11.5 -26.5t25.5 -12t25.5 -10t11.5 -21.5q0 -29 -103 -66t-143 -37q-21 0 -29.5 14.5t-8.5 52.5q0 15 3 44t3 41l-2 2q-24 -59 -65 -99t-96 -51q-18 -71 -27 -154q-3 -27 -25 -37.5t-82 -10.5q-107 0 -107 54
q0 11 53 230.5t53 243.5q0 15 -9 24.5t-20 13t-20 10.5t-9 18q0 36 102.5 70t139.5 34q19 0 30.5 -14t11.5 -36q0 -28 -26 -147t-26 -148q0 -31 27 -31q39 0 75 76t60 210q9 51 16.5 64.5t27.5 13.5z" />
    <glyph glyph-name="pi" unicode="&#x3c0;" horiz-adv-x="748" 
d="M715 539l36 -11q-10 -38 -36 -88.5t-43 -65.5q-34 -8 -81 -8q-20 -73 -39 -192q-14 -89 35 -89q19 0 53 16l9 -37q-30 -33 -80 -55.5t-95 -22.5q-139 0 -112 149q14 81 52 234q-30 0 -58.5 0.5t-45 1t-34.5 0.5l-1 -8q-20 -111 -52.5 -196t-53 -115.5t-36.5 -45.5
q-54 -17 -91 -20l-7 28q70 74 116.5 176t60.5 183q-51 1 -85 -7.5t-79 -31.5l-16 39q55 61 82 81q67 50 169 49q196 -4 348 -4q53 0 84 40z" />
    <glyph glyph-name="uni2010" unicode="&#x2010;" horiz-adv-x="360" 
d="M259 160h-211q-47 0 -48 43q0 113 75 113h211q47 0 48 -43q0 -113 -75 -113z" />
    <glyph glyph-name="endash" unicode="&#x2013;" horiz-adv-x="500" 
d="M450 160h-420q-47 0 -48 43q0 113 75 113h420q47 0 48 -43q0 -113 -75 -113z" />
    <glyph glyph-name="emdash" unicode="&#x2014;" horiz-adv-x="1000" 
d="M950 160h-920q-47 0 -48 43q0 113 75 113h920q47 0 48 -43q0 -113 -75 -113z" />
    <glyph glyph-name="quoteleft" unicode="&#x2018;" horiz-adv-x="330" 
d="M92 531q0 45 40 97t86 84t70 32q11 0 18.5 -6t7.5 -16t-44 -54t-44 -58q0 -4 4 -4q3 0 10.5 2t11.5 2q34 0 55 -17.5t21 -44.5q0 -36 -36 -67t-94 -31q-47 0 -76.5 23t-29.5 58z" />
    <glyph glyph-name="quoteright" unicode="&#x2019;" horiz-adv-x="330" 
d="M331 663q0 -45 -40 -97t-86 -84t-70 -32q-11 0 -18.5 6t-7.5 16t44 54t44 58q0 4 -4 4q-3 0 -10.5 -2t-11.5 -2q-34 0 -55 17.5t-21 44.5q0 36 36 67t94 31q47 0 76.5 -23t29.5 -58z" />
    <glyph glyph-name="quotesinglbase" unicode="&#x201a;" horiz-adv-x="330" 
d="M246 67q0 -45 -40 -97t-86 -84t-70 -32q-11 0 -18.5 6t-7.5 16t44 54t44 58q0 4 -4 4q-2 0 -10 -2t-12 -2q-34 0 -55 17.5t-21 44.5q0 36 36 67t94 31q47 0 76.5 -23t29.5 -58z" />
    <glyph glyph-name="quotedblleft" unicode="&#x201c;" horiz-adv-x="610" 
d="M85 531q0 45 40 97t86 84t70 32q11 0 18.5 -6t7.5 -16t-44 -54t-44 -58q0 -4 4 -4q3 0 10.5 2t11.5 2q34 0 55 -17.5t21 -44.5q0 -36 -36 -67t-94 -31q-47 0 -76.5 23t-29.5 58zM378 531q0 45 40 97t86 84t70 32q11 0 18.5 -6t7.5 -16t-44 -54t-44 -58q0 -4 4 -4
q3 0 10.5 2t11.5 2q34 0 55 -17.5t21 -44.5q0 -36 -36 -67t-94 -31q-47 0 -76.5 23t-29.5 58z" />
    <glyph glyph-name="quotedblright" unicode="&#x201d;" horiz-adv-x="610" 
d="M628 663q0 -45 -40 -97t-86 -84t-70 -32q-11 0 -18.5 6t-7.5 16t44 54t44 58q0 4 -4 4q-3 0 -10.5 -2t-11.5 -2q-34 0 -55 17.5t-21 44.5q0 36 36 67t94 31q47 0 76.5 -23t29.5 -58zM335 663q0 -45 -40 -97t-86 -84t-70 -32q-11 0 -18.5 6t-7.5 16t44 54t44 58q0 4 -4 4
q-3 0 -10.5 -2t-11.5 -2q-34 0 -55 17.5t-21 44.5q0 36 36 67t94 31q47 0 76.5 -23t29.5 -58z" />
    <glyph glyph-name="quotedblbase" unicode="&#x201e;" horiz-adv-x="610" 
d="M533 67q0 -45 -40 -97t-86 -84t-70 -32q-11 0 -18.5 6t-7.5 16t44 54t44 58q0 4 -4 4q-2 0 -10 -2t-12 -2q-34 0 -55 17.5t-21 44.5q0 36 36 67t94 31q47 0 76.5 -23t29.5 -58zM240 67q0 -45 -40 -97t-86 -84t-70 -32q-11 0 -18.5 6t-7.5 16t44 54t44 58q0 4 -4 4
q-2 0 -10 -2t-12 -2q-34 0 -55 17.5t-21 44.5q0 36 36 67t94 31q47 0 76.5 -23t29.5 -58z" />
    <glyph glyph-name="dagger" unicode="&#x2020;" horiz-adv-x="700" 
d="M392 358l-16 -391q-8 -177 -115 -177q-39 0 -67 25t-28 64q0 30 8.5 66.5t22 76l44 135.5l61.5 201q-10 -3 -34 -12t-37 -13.5t-33 -10t-38 -8t-36 -2.5q-36 0 -58 20.5t-22 56.5q0 41 27 69t68 28q14 0 39.5 -5.5t44.5 -11l52.5 -15.5l40.5 -12q-1 12 -5.5 49t-7.5 70
t-3 61q0 58 28 90t78 32q37 0 60.5 -20.5t23.5 -57.5q0 -71 -82 -224q12 3 49.5 15t71 20.5t53.5 8.5q37 0 61.5 -21.5t24.5 -60.5q0 -41 -25 -66.5t-66 -25.5q-26 0 -56.5 7.5t-70 20.5t-58.5 18z" />
    <glyph glyph-name="daggerdbl" unicode="&#x2021;" horiz-adv-x="670" 
d="M-2 116q0 42 26 67t68 25q17 0 34.5 -2.5t40 -9t35 -10.5t40 -14t34.5 -12q-14 40 -14 80q0 28 13 65t35 63l-2 2q-108 -52 -175 -52q-37 0 -61 21.5t-24 58.5q0 43 25.5 68.5t67.5 25.5q28 0 58.5 -6.5t69 -18t57.5 -15.5q-22 154 -22 169q0 61 28 92t74 31
q42 0 65 -23.5t23 -67.5q0 -25 -9 -53.5t-17.5 -45.5t-29.5 -53t-28 -49l53 15.5t69 18t55 6.5q37 0 60 -23t23 -60q0 -40 -25.5 -65.5t-65.5 -25.5q-29 0 -59 8.5t-67 23t-57 20.5q18 -41 18 -80q0 -65 -50 -128l2 -2q120 48 174 48q35 0 57.5 -24.5t22.5 -59.5
q0 -39 -27.5 -64.5t-66.5 -25.5q-22 0 -50.5 6.5t-71 20t-56.5 17.5q1 -24 8.5 -82t7.5 -79q0 -62 -27.5 -94.5t-74.5 -32.5q-38 0 -63 24.5t-25 59.5q0 18 10.5 47t20 48.5t31.5 60t26 48.5q-8 -3 -41.5 -14t-49 -15.5t-42 -9.5t-47.5 -5q-39 0 -61.5 21.5t-22.5 60.5z" />
    <glyph glyph-name="bullet" unicode="&#x2022;" horiz-adv-x="500" 
d="M72 366q0 76 53.5 129.5t129.5 53.5t129.5 -53.5t53.5 -129.5t-53.5 -129.5t-129.5 -53.5t-129.5 53.5t-53.5 129.5z" />
    <glyph glyph-name="ellipsis" unicode="&#x2026;" horiz-adv-x="1000" 
d="M12 64q0 50 41 82t95 32q46 0 75 -22.5t29 -53.5q0 -50 -41 -82t-95 -32q-46 0 -75 22.5t-29 53.5zM345 64q0 50 41 82t95 32q46 0 75 -22.5t29 -53.5q0 -50 -41 -82t-95 -32q-46 0 -75 22.5t-29 53.5zM678 64q0 50 41 82t95 32q46 0 75 -22.5t29 -53.5q0 -50 -41 -82
t-95 -32q-46 0 -75 22.5t-29 53.5z" />
    <glyph glyph-name="perthousand" unicode="&#x2030;" horiz-adv-x="1300" 
d="M1140 276q0 40 -28 40q-27 0 -47.5 -50.5t-28.5 -103t-8 -84.5q0 -40 28 -40q27 0 47.5 50.5t28.5 103t8 84.5zM221 60l405 651q8 13 12 18t14 10t24 5q35 0 35 -24q0 -17 -16 -43l-417 -665q-15 -24 -44 -24q-34 0 -34 28q0 10 21 44zM298 654q0 40 -28 40
q-27 0 -47.5 -50.5t-28.5 -103t-8 -84.5q0 -40 28 -40q27 0 47.5 50.5t28.5 103t8 84.5zM912 132q0 95 55.5 164.5t146.5 69.5q65 0 103.5 -39.5t38.5 -104.5q0 -95 -55.5 -164.5t-146.5 -69.5q-65 0 -103.5 39.5t-38.5 104.5zM70 510q0 95 55.5 164.5t146.5 69.5
q65 0 103.5 -39.5t38.5 -104.5q0 -95 -55.5 -164.5t-146.5 -69.5q-65 0 -103.5 39.5t-38.5 104.5zM500 132q0 95 55.5 164.5t146.5 69.5q65 0 103.5 -39.5t38.5 -104.5q0 -95 -55.5 -164.5t-146.5 -69.5q-65 0 -103.5 39.5t-38.5 104.5zM728 276q0 40 -28 40
q-27 0 -47.5 -50.5t-28.5 -103t-8 -84.5q0 -40 28 -40q27 0 47.5 50.5t28.5 103t8 84.5z" />
    <glyph glyph-name="guilsinglleft" unicode="&#x2039;" horiz-adv-x="320" 
d="M22 254q0 22 88.5 94t105.5 72q38 0 38 -28q0 -14 -23 -41.5t-46 -63t-23 -70.5q0 -30 17 -73.5t17 -51.5q0 -15 -9 -25.5t-25 -10.5q-23 0 -81.5 85t-58.5 113z" />
    <glyph glyph-name="guilsinglright" unicode="&#x203a;" horiz-adv-x="320" 
d="M272 222q0 -22 -88.5 -94t-105.5 -72q-38 0 -38 28q0 14 23 41.5t46 63t23 70.5q0 30 -17 73.5t-17 51.5q0 15 9 25.5t25 10.5q23 0 81.5 -85t58.5 -113z" />
    <glyph glyph-name="fraction" unicode="&#x2044;" horiz-adv-x="167" 
d="M310 663l-381 -625q-16 -27 -29 -38.5t-36 -11.5q-13 0 -22 7t-9 20q-1 15 21 50l376 622q19 32 32.5 44.5t34.5 12.5q29 0 37 -24q1 -17 -24 -57z" />
    <glyph glyph-name="Euro" unicode="&#x20ac;" 
d="M511 309q0 -21 -12 -32t-31 -11h-143q0 -192 124 -192q65 0 130 55q6 5 16.5 14.5t15.5 13.5t13 8t15 4q16 0 25 -10t9 -27q0 -21 -26.5 -49.5t-70.5 -52.5q-80 -42 -165 -42q-117 0 -199 70t-91 208h-75q-24 0 -24 33q0 41 45 41h54q3 31 11 69h-54q-32 0 -32 32
q0 42 45 42h65q47 114 142.5 187.5t213.5 73.5q85 0 152 -33.5t67 -64.5q0 -70 -13 -128q-12 -53 -46 -53q-33 0 -40 33q-2 11 -4.5 34t-3.5 28q-7 48 -28 73t-70 25q-57 0 -100.5 -54t-66.5 -121h143q37 0 37 -33q0 -41 -47 -41h-152q-8 -38 -11 -69h153q29 0 29 -31z" />
    <glyph glyph-name="afii61289" unicode="&#x2113;" horiz-adv-x="577" 
d="M493 179l25 -31q-124 -159 -275 -159q-100 0 -140 46q-21 27 -27 59t5 118l7 39l-79 -39l-9 42l98 55l25 138q19 111 43.5 171.5t71.5 105.5q80 81 176 81q71 0 98.5 -46.5t15.5 -114.5q-16 -88 -76 -157.5t-178 -146.5l-13 -76q-17 -92 0.5 -135t73.5 -43q71 0 158 93z
M305 513l-19 -104q58 54 90.5 105t46.5 130q10 37 3.5 75t-32.5 38q-31 0 -47.5 -49t-41.5 -195z" />
    <glyph glyph-name="trademark" unicode="&#x2122;" horiz-adv-x="990" 
d="M216 704v-318q0 -17 10 -23t40 -7v-28h-222v28q30 1 40 7t10 23v318h-42q-27 0 -42.5 -17t-19.5 -43h-28v88h386v-88h-28q-4 26 -19.5 43t-42.5 17h-42zM620 329l-128 273h-2v-196q0 -29 9.5 -39t40.5 -11v-28h-134v28q31 1 40.5 11t9.5 39v238q0 18 -22 39t-50 21v28
h163l127 -263l138 263h138v-28q-30 -1 -40 -7t-10 -23v-288q0 -17 10 -23.5t40 -6.5v-28h-222v28q30 0 40 6.5t10 23.5v216h-2l-140 -273h-16z" />
    <glyph glyph-name="Omega" unicode="&#x2126;" horiz-adv-x="940" 
d="M871 202l-73 -202h-339l-7 31l55 72t56 82t59 111t32 111q25 142 -9 212t-118 70q-85 0 -140.5 -68t-81.5 -217q-28 -159 67 -372l-16 -32h-343l4 202h44q13 -47 30 -61.5t59 -14.5h109q-37 24 -64 46.5t-56 58t-40.5 82t-1.5 100.5q26 149 148.5 237.5t294.5 88.5
q173 0 262 -86.5t63 -232.5q-9 -48 -35.5 -92t-68.5 -81.5t-80.5 -64t-88.5 -56.5h125q40 0 60 14.5t49 61.5h45z" />
    <glyph glyph-name="estimated" unicode="&#x212e;" horiz-adv-x="979" 
d="M943 355h-679q-5 0 -5 -5v-205q0 -14 9 -23q106 -112 256 -112q162 0 271 125h60q-57 -67 -145 -106.5t-187 -39.5q-173 0 -295.5 110t-122.5 266q0 157 122.5 267t295.5 110q175 0 297.5 -110t122.5 -267v-10zM789 382v206q0 15 -10 25q-109 107 -255 107t-255 -111
q-10 -9 -10 -25v-202q0 -7 5 -7h521q4 0 4 7z" />
    <glyph glyph-name="partialdiff" unicode="&#x2202;" horiz-adv-x="696" 
d="M347 470h1q45 0 82 -17t52 -46q22 61 33 118q22 99 -1 157q-24 62 -93 62q-79 0 -205 -90q-13 0 -28 22t-19.5 48.5t6.5 48.5q33 14 51 20.5t57.5 14t85.5 7.5q182 0 257 -156q49 -105 26 -242q-27 -153 -112 -264q-124 -163 -311 -163q-111 0 -166 62.5t-37 164.5
q19 109 107 179q90 74 214 74zM386 407h-1q-63 0 -111 -59q-61 -78 -81 -197q-20 -113 53 -113q58 0 119 100q54 86 95 210q-22 59 -74 59z" />
    <glyph glyph-name="uni2206" unicode="&#x2206;" horiz-adv-x="821" 
d="M716 0h-734l8 47l436 673l91 19l207 -692zM505 80l-128 461l-286 -461h414z" />
    <glyph glyph-name="product" unicode="&#x220f;" horiz-adv-x="970" 
d="M938 750v-43q-75 -6 -92 -23.5t-17 -86.5v-525q0 -72 17 -90t92 -23v-44h-386v44q64 5 77 21.5t13 92.5v581q0 27 -7.5 33.5t-35.5 6.5h-160q-27 0 -33.5 -6.5t-6.5 -33.5v-581q0 -76 12 -92.5t71 -21.5v-44h-378v44q73 6 90 24.5t17 89.5v524q0 69 -17.5 86.5
t-94.5 23.5v43h839z" />
    <glyph glyph-name="summation" unicode="&#x2211;" horiz-adv-x="780" 
d="M753 171l-61 -266h-594v48l254 328l-245 422v47h583q4 -86 15 -213l-45 -12q-24 84 -51 126q-17 28 -39.5 38t-84.5 10h-158l179 -313l-260 -338h283q31 0 46 0.5t33.5 5.5t27 12t22 24.5t23 37l27.5 55.5z" />
    <glyph glyph-name="minus" unicode="&#x2212;" horiz-adv-x="660" 
d="M556 160h-476v156h476v-156z" />
    <glyph glyph-name="uni2215" unicode="&#x2215;" horiz-adv-x="167" 
d="M310 663l-381 -625q-16 -27 -29 -38.5t-36 -11.5q-13 0 -22 7t-9 20q-1 15 21 50l376 622q19 32 32.5 44.5t34.5 12.5q29 0 37 -24q1 -17 -24 -57z" />
    <glyph glyph-name="uni2219" unicode="&#x2219;" horiz-adv-x="360" 
d="M74 238q0 38 28 65.5t65 27.5t65 -27.5t28 -65.5t-28 -65.5t-65 -27.5t-65 27.5t-28 65.5z" />
    <glyph glyph-name="radical" unicode="&#x221a;" horiz-adv-x="741" 
d="M739 925l-208 -1088l-44 -18l-256 566l-102 -46l-18 52l239 108l167 -391h2l154 830z" />
    <glyph glyph-name="infinity" unicode="&#x221e;" horiz-adv-x="888" 
d="M840 302v-1q0 -92 -55 -146.5t-131 -54.5q-113 0 -198 120q-46 -59 -92 -89.5t-107 -30.5q-75 0 -129 54t-54 140q0 88 55 143t138 55q61 0 107.5 -28.5t90.5 -86.5q1 1 12 14t13.5 15.5t14 15t16.5 16.5l17.5 14t20.5 13.5t21 10.5t24 9.5t25.5 4.5t29.5 2
q76 0 128.5 -52.5t52.5 -137.5zM267 195h2q38 0 69.5 26t65.5 69q-22 32 -31 44t-27.5 31.5t-37.5 26.5t-43 7q-40 0 -66.5 -28.5t-26.5 -76.5q0 -40 28 -69.5t67 -29.5zM650 399h-2q-21 0 -40 -8.5t-39 -28t-28.5 -29.5t-27.5 -35q45 -61 75.5 -82t66.5 -21q39 0 63 31.5
t24 66.5q0 46 -25.5 76t-66.5 30z" />
    <glyph glyph-name="integral" unicode="&#x222b;" horiz-adv-x="564" 
d="M262 -29l-25 418q-7 122 5.5 214.5t36.5 144t58 83.5t63 42t59 10q37 0 66.5 -19.5t29.5 -50.5q0 -37 -21.5 -57t-51.5 -20q-20 0 -33 21t-21.5 41.5t-17.5 20.5q-11 0 -16.5 -11.5t-8.5 -45.5t1 -96l22 -394q6 -108 -3.5 -195t-30.5 -144t-52 -96t-66 -55.5t-75 -16.5
q-39 0 -67.5 21.5t-29.5 51.5q-1 33 28.5 56.5t61.5 23.5q14 0 24 -14t14.5 -31t11 -31t14.5 -14q32 0 24 143z" />
    <glyph glyph-name="approxequal" unicode="&#x2248;" horiz-adv-x="676" 
d="M573 500l67 -69q-77 -113 -171 -113q-58 0 -131 42q-60 34 -96 34q-34 0 -61 -19.5t-57 -55.5l-67 68q29 46 81.5 79t105.5 33q61 0 120 -35q38 -24 56.5 -32t42.5 -8q53 0 110 76zM573 283l67 -69q-77 -113 -173 -113q-55 0 -129 42q-59 34 -96 34q-35 0 -61.5 -19.5
t-56.5 -56.5l-67 69q29 46 82 79t106 33q58 0 118 -35q6 -3 18.5 -11t19.5 -11.5l17.5 -8.5t21 -7t21.5 -2q32 0 56.5 18t55.5 58z" />
    <glyph glyph-name="notequal" unicode="&#x2260;" horiz-adv-x="693" 
d="M531 549l-39 -85h147v-103h-191l-60 -132h251v-103h-296l-57 -126l-84 38l40 88h-146v103h191l59 132h-250v103h295l56 123z" />
    <glyph glyph-name="lessequal" unicode="&#x2264;" horiz-adv-x="714" 
d="M660 133l-539 237v110l538 235v-114l-427 -175v-2l428 -176v-115zM662 -9h-543v106h543v-106z" />
    <glyph glyph-name="greaterequal" unicode="&#x2265;" horiz-adv-x="715" 
d="M121 715l540 -236v-110l-539 -236v115l428 176v2l-429 175v114zM656 -9h-536v106h536v-106z" />
    <glyph glyph-name="lozenge" unicode="&#x25ca;" horiz-adv-x="781" 
d="M733 353l-244 -435h-128l-244 435l247 438h125zM612 353l-184 338h-5l-184 -338l185 -342h3z" />
    <glyph glyph-name="fi" unicode="&#xfb01;" horiz-adv-x="760" 
d="M92 476h44q16 76 38 123.5t62 82t101 48.5t153 14q153 0 209.5 -23.5t56.5 -84.5q0 -47 -32.5 -75.5t-87.5 -28.5q-39 0 -71.5 22t-32.5 59q0 2 2 12t2 19q0 14 -80 14q-37 0 -55.5 -10.5t-33 -50t-23.5 -121.5h312q4 0 18 2t24 2q15 0 24.5 -13t9.5 -34
q0 -17 -27 -146.5t-27 -138.5q0 -20 26 -31t26 -31q0 -37 -102 -67.5t-131 -30.5q-47 0 -47 50q0 30 30 162.5t30 157.5q0 24 -29 24h-149q-38 -308 -121.5 -444t-224.5 -136q-58 0 -92 21.5t-34 55.5q0 30 19.5 50.5t49.5 20.5q23 0 36.5 -9.5t17 -21.5t10 -21.5t18.5 -9.5
q36 0 58.5 111.5t54.5 382.5h-36q-40 0 -40 39q0 25 12 40t32 15z" />
    <glyph glyph-name="fl" unicode="&#xfb02;" horiz-adv-x="800" 
d="M100 476h36q25 132 93.5 200t200.5 68h306q28 0 39 -8.5t11 -29.5q0 -8 -51 -253.5t-51 -282.5q0 -22 11.5 -34t25.5 -14t25.5 -9t11.5 -21q0 -27 -109 -65.5t-146 -38.5q-47 0 -47 49q0 46 52 299t52 279q0 27 -14.5 35t-71.5 8q-69 0 -93 -33t-41 -149h64q42 0 42 -40
q0 -54 -64 -54h-50q-16 -113 -34.5 -197t-46.5 -159t-63.5 -122.5t-86.5 -74.5t-115 -27q-58 0 -92 22t-34 55q0 30 19.5 50.5t49.5 20.5q23 0 36.5 -9.5t16.5 -21.5t9.5 -21.5t17.5 -9.5q13 0 23.5 8.5t18.5 31t14 47.5t13 71.5t12.5 88.5l15 114t18.5 133h-22q-30 0 -42 9
t-12 30q0 55 52 55z" />
    <glyph glyph-name="a.superior" horiz-adv-x="460" 
d="M62 555q0 75 62 132t143 57q54 0 82 -37q59 37 83 37q9 0 17 -5.5t8 -13.5q0 -2 -9.5 -36t-19.5 -77.5t-10 -69.5q0 -18 23 -23.5t23 -17.5q0 -14 -59 -35.5t-79 -21.5q-30 0 -30 33q0 18 5 40l-2 -1l-1 2q-20 -33 -52.5 -53.5t-71.5 -20.5q-51 0 -81.5 31.5t-30.5 79.5z
M200 537q0 -37 25 -37q32 0 56.5 59.5t24.5 101.5q0 35 -24 35q-32 0 -57 -58.5t-25 -100.5z" />
    <glyph glyph-name="o.superior" horiz-adv-x="460" 
d="M60 577q0 75 66.5 121t155.5 46q80 0 132 -37t52 -96q0 -75 -66.5 -121t-154.5 -46q-81 0 -133 37t-52 96zM204 553q0 -57 43 -57q36 0 55.5 39t19.5 100q0 57 -42 57q-36 0 -56 -39.5t-20 -99.5z" />
    <glyph glyph-name="one.superior" horiz-adv-x="420" 
d="M314 298h-231q-32 0 -32 23q0 16 12.5 21.5t28.5 5t30.5 7t17.5 25.5q7 43 18.5 104l18.5 99t7 47q0 13 -12 16.5t-26.5 2t-26.5 3.5t-12 19t19.5 21.5t70.5 20.5q15 4 55 17.5t59 13.5q43 0 43 -25q0 -21 -28.5 -168.5t-28.5 -175.5q0 -14 10 -19.5t21.5 -5.5t21.5 -5
t10 -17q0 -30 -46 -30z" />
    <glyph glyph-name="two.superior" horiz-adv-x="420" 
d="M334 298h-303q-27 0 -27 24q0 25 29 57.5t70.5 64.5l83 65.5t70.5 72.5t29 74q0 16 -11 26t-29 10q-24 0 -44 -15.5t-20 -40.5q0 -5 4 -14t4 -15q0 -15 -18.5 -29t-50.5 -14q-59 0 -59 49q0 55 66.5 93t151.5 38q74 0 116 -28t42 -75q0 -29 -15 -57.5t-46 -56.5
t-54.5 -46t-66 -46.5l-56.5 -38.5v-2h81q41 0 68.5 15t37.5 15q9 0 16 -5t7 -12q0 -4 -4.5 -14t-14.5 -30l-17 -34q-14 -31 -40 -31z" />
    <glyph glyph-name="three.superior" horiz-adv-x="420" 
d="M311 536v-2q52 -4 82 -29.5t30 -63.5q0 -64 -62 -107.5t-171 -43.5q-79 0 -124.5 22t-45.5 61q0 25 18 41t50 16q24 0 36.5 -9.5t13.5 -36.5t10 -36.5t29 -9.5q29 0 51.5 32t22.5 75q0 32 -19 45t-42 11t-42 2t-19 21t11 22.5t47 5.5q42 0 68 34t26 76q0 30 -31 30
q-40 0 -40 -35q0 -3 0.5 -9.5t0.5 -9.5q0 -17 -16.5 -28t-45.5 -11q-61 0 -61 37q0 45 54 76.5t134 31.5q165 0 165 -100q0 -39 -34 -70.5t-96 -37.5z" />
    </font>
</defs>
</svg>
