<?xml version="1.0" standalone="no"?>
<!DOCTYPE svg PUBLIC "-//W3C//DTD SVG 1.1//EN" "http://www.w3.org/Graphics/SVG/1.1/DTD/svg11.dtd" >
<svg>
<metadata>
Created by FontForge 20090622 at Fri Jan 19 15:33:15 2018
 By deploy user
&#194;&#169; 1989, 1990, 2001, 2002 Adobe Systems Incorporated. All rights reserved.
</metadata>
<defs>
<font id="SouvenirStd-Bold" horiz-adv-x="330" >
  <font-face 
    font-family="ITC Souvenir Std Medium"
    font-weight="700"
    font-stretch="normal"
    units-per-em="1000"
    panose-1="2 8 9 5 5 7 10 2 2 4"
    ascent="762"
    descent="-238"
    x-height="486"
    cap-height="732"
    bbox="-167 -252 1314 1001"
    underline-thickness="50"
    underline-position="-50"
    unicode-range="U+0020-U+FB02"
  />
<missing-glyph horiz-adv-x="500" 
d="M0 0v700h500v-700h-500zM250 395l170 255h-340zM280 350l170 -255v510zM80 50h340l-170 255zM50 605v-510l170 255z" />
    <glyph glyph-name="f_i" unicode="fi" horiz-adv-x="710" 
d="M300 486h279q44 0 58 -16.5t14 -73.5v-280q0 -28 19 -43.5t19 -33.5q0 -14 -14 -26.5t-38 -12.5h-192q-24 0 -38 12.5t-14 26.5q0 18 19 33.5t19 43.5v162q0 78 -16 95t-94 17h-21v-268q0 -20 8 -32t17.5 -15.5t17.5 -12t8 -23.5q0 -39 -64 -39h-194q-64 0 -64 39
q0 15 8 23.5t17.5 12t17.5 15.5t8 32v268h-16q-51 0 -51 48t51 48h16v17q0 79 18 130.5t57.5 78.5t89.5 37.5t125 10.5q142 0 201 -37.5t59 -89.5q0 -44 -27 -67t-76 -23q-39 0 -70.5 21t-37.5 57q-3 20 -15.5 28.5t-39.5 8.5q-39 0 -51.5 -13t-12.5 -58v-101z" />
    <glyph glyph-name="f_l" unicode="fl" horiz-adv-x="710" 
d="M300 390v-266q0 -20 8 -32t17.5 -15.5t17.5 -12t8 -23.5q0 -39 -64 -39h-194q-64 0 -64 39q0 15 8 23.5t17.5 12t17.5 15.5t8 32v268h-16q-51 0 -51 48t51 48h16v56q0 96 54.5 156t160.5 60h304q34 0 47 -21.5t13 -90.5v-532q0 -18 8 -29t18 -14.5t18 -12t8 -21.5
q0 -14 -14 -26.5t-38 -12.5h-220q-24 0 -38 12.5t-14 26.5q0 13 8 21.5t18 12t18 14.5t8 29v472q0 41 -17.5 56.5t-52.5 15.5q-40 0 -54.5 -19t-14.5 -69v-86h49q51 0 51 -48t-51 -48h-49z" />
    <glyph glyph-name=".notdef" horiz-adv-x="500" 
d="M0 0v700h500v-700h-500zM250 395l170 255h-340zM280 350l170 -255v510zM80 50h340l-170 255zM50 605v-510l170 255z" />
    <glyph glyph-name=".null" horiz-adv-x="0" 
 />
    <glyph glyph-name="nonmarkingreturn" horiz-adv-x="333" 
 />
    <glyph glyph-name="space" unicode=" " horiz-adv-x="360" 
 />
    <glyph glyph-name="exclam" unicode="!" horiz-adv-x="390" 
d="M195 -16q-56 0 -89 28t-33 63t33 63t89 28t89 -28t33 -63t-33 -63t-89 -28zM334 659q0 -25 -10 -76.5t-30 -146.5t-35 -177q-5 -32 -19 -45.5t-45 -13.5t-45 13.5t-19 45.5q-15 82 -35 177t-30 146.5t-10 76.5q0 47 31 68t108 21t108 -21t31 -68z" />
    <glyph glyph-name="quotedbl" unicode="&#x22;" horiz-adv-x="333" 
d="M74 748q58 0 58 -69q0 -33 -19 -216q-3 -24 -9.5 -34.5t-25.5 -10.5q-24 0 -32 10.5t-11 34.5q-19 183 -19 216q0 69 58 69zM259 748q58 0 58 -69q0 -33 -19 -216q-3 -24 -9.5 -34.5t-25.5 -10.5q-24 0 -32 10.5t-11 34.5q-19 183 -19 216q0 69 58 69z" />
    <glyph glyph-name="numbersign" unicode="#" horiz-adv-x="720" 
d="M592 303l-4 -94h-93l-30 -209h-105l28 209h-92l-29 -209h-107l30 209h-92l4 94h100l18 126h-92l4 94h100l30 209h106l-28 -209h92l29 209h106l-29 -209h84l-4 -94h-92l-18 -126h84zM420 429h-93l-18 -126h93z" />
    <glyph glyph-name="dollar" unicode="$" horiz-adv-x="720" 
d="M315 714v47q0 56 48 56t48 -56v-47q39 -1 82.5 -13.5t81.5 -44.5t38 -75q0 -28 -22 -42.5t-52 -14.5q-32 0 -47 13t-18.5 31t-8 36t-25.5 31t-62 13q-109 0 -109 -83q0 -37 28 -62.5t70 -38t90.5 -30t90.5 -37t70 -60t28 -98.5q0 -49 -21.5 -89t-56.5 -64t-75 -37.5
t-82 -16.5v-48q0 -56 -48 -56t-48 56v48q-36 2 -75.5 11.5t-78 27.5t-63.5 50t-25 73q0 22 19.5 37t50.5 15q32 0 50 -11t23 -27.5t12.5 -35.5t17.5 -35.5t39 -27.5t76 -11q46 0 77.5 25t31.5 67q0 31 -21 53.5t-54 36t-73 26t-80.5 28.5t-73.5 37t-54 58.5t-21 87.5
q0 91 69.5 143.5t152.5 53.5z" />
    <glyph glyph-name="percent" unicode="%" horiz-adv-x="890" 
d="M214 404q25 0 36 35.5t11 115.5t-11 115.5t-36 35.5t-36 -35.5t-11 -115.5t11 -115.5t36 -35.5zM128 38l530 666q22 28 34 34q18 10 50 10q41 0 41 -17q0 -11 -19 -34l-539 -685q-23 -28 -68 -28q-30 0 -40.5 3.5t-10.5 14.5q0 9 22 36zM676 26q25 0 36 35.5t11 115.5
t-11 115.5t-36 35.5t-36 -35.5t-11 -115.5t11 -115.5t36 -35.5zM19 555q0 83 56 138t139 55t139 -55t56 -138t-56 -138t-139 -55t-139 55t-56 138zM481 177q0 83 56 138t139 55t139 -55t56 -138t-56 -138t-139 -55t-139 55t-56 138z" />
    <glyph glyph-name="ampersand" unicode="&#x26;" horiz-adv-x="860" 
d="M457 407l148 -184q50 52 50 95q0 15 -9 25t-20.5 14t-20.5 13.5t-9 22.5q0 32 53 32h162q43 0 43 -36q0 -17 -9.5 -24t-29.5 -19t-37 -35l-114 -154q47 -61 121 -61q12 0 30 4.5t25 4.5q12 0 21 -9.5t9 -22.5q0 -30 -52 -59.5t-137 -29.5t-179 60q-92 -60 -212 -60
q-114 0 -195 51t-81 147q0 144 173 214q-59 77 -59 163q0 84 75.5 136.5t190.5 52.5q107 0 172 -41t65 -117q0 -67 -51 -114.5t-123 -68.5zM208 212q0 -57 35.5 -92.5t92.5 -35.5q41 0 89 24q-100 94 -176 211q-41 -44 -41 -107zM397 662q-26 0 -41.5 -19.5t-15.5 -46.5
q0 -12 3 -23.5t9.5 -24t11 -19.5t15.5 -22l14 -19q68 40 68 98q0 30 -17.5 53t-46.5 23z" />
    <glyph glyph-name="quotesingle" unicode="'" horiz-adv-x="222" 
d="M111 748q58 0 58 -69q0 -33 -19 -216q-3 -24 -9.5 -34.5t-25.5 -10.5q-24 0 -32 10.5t-11 34.5q-19 183 -19 216q0 69 58 69z" />
    <glyph glyph-name="parenleft" unicode="(" horiz-adv-x="390" 
d="M44 264q0 93 42.5 206.5t112 195.5t136.5 82q17 0 28 -10.5t11 -27.5q0 -13 -18 -55.5l-40 -92.5t-40 -128.5t-18 -154.5q0 -80 17 -168t37.5 -147l37.5 -106t17 -55q0 -18 -15 -28.5t-34 -10.5q-66 0 -132 89t-104 205.5t-38 205.5z" />
    <glyph glyph-name="parenright" unicode=")" horiz-adv-x="390" 
d="M346 248q0 -93 -42.5 -206.5t-112 -195.5t-136.5 -82q-17 0 -28 10.5t-11 27.5q0 13 18 55.5l40 92.5t40 128.5t18 154.5q0 80 -17 168t-37.5 147l-37.5 106t-17 55q0 18 15 28.5t34 10.5q66 0 132 -89t104 -205.5t38 -205.5z" />
    <glyph glyph-name="asterisk" unicode="*" horiz-adv-x="420" 
d="M210 748q16 0 28 -14t12 -32q0 -22 -15.5 -61t-15.5 -47q0 -9 6 -9q8 0 24.5 24.5t38.5 49t45 24.5q19 0 30.5 -12.5t11.5 -31.5q0 -41 -71 -55q-7 -1 -15 -2.5t-14.5 -2.5l-13 -2t-11.5 -2t-9 -2.5t-6 -4t-2 -4.5q0 -4 4 -6.5t12 -4t16 -2t20.5 -2l21.5 -2.5
q74 -10 74 -54q0 -18 -12.5 -30t-30.5 -12q-20 0 -43.5 23.5t-42 47t-24.5 23.5q-9 0 -9 -9q0 -11 19.5 -54t19.5 -65q0 -20 -13 -32.5t-35 -12.5q-17 0 -28.5 15t-11.5 34t16.5 63t16.5 51q0 9 -9 9q-8 0 -25 -25t-38.5 -50.5t-41.5 -25.5q-17 0 -30.5 12.5t-13.5 29.5
q0 24 18.5 37t51.5 21q12 3 31.5 6t28.5 5.5t9 7.5q0 7 -8 10t-32 5t-32 3q-73 10 -73 53q0 18 12.5 29.5t30.5 11.5q20 0 43 -23t41 -45.5t27 -22.5q10 0 10 8q0 9 -19.5 50.5t-19.5 60.5q0 20 12 33t34 13z" />
    <glyph glyph-name="plus" unicode="+" horiz-adv-x="600" 
d="M222 321v165h156v-165h165v-156h-165v-165h-156v165h-165v156h165z" />
    <glyph glyph-name="comma" unicode="," horiz-adv-x="360" 
d="M177 4q-20 -4 -31 -4q-35 0 -59.5 22t-24.5 57q0 43 37 71t82 28q51 0 89 -29.5t38 -79.5q0 -68 -67.5 -135t-108.5 -67q-11 0 -23 7.5t-12 17.5q0 5 15.5 21t35.5 41.5t29 49.5z" />
    <glyph glyph-name="hyphen" unicode="-" horiz-adv-x="360" 
d="M276 161h-192q-32 0 -45 19.5t-13 62.5t13 62.5t45 19.5h192q32 0 45 -19.5t13 -62.5t-13 -62.5t-45 -19.5z" />
    <glyph glyph-name="period" unicode="." horiz-adv-x="360" 
d="M184 180q46 0 84 -27.5t38 -70.5t-38 -70.5t-84 -27.5t-84 27.5t-38 70.5t38 70.5t84 27.5z" />
    <glyph glyph-name="slash" unicode="/" horiz-adv-x="410" 
d="M469 677l-390 -661q-19 -32 -82 -32q-69 0 -69 30q0 24 10 41l390 661q20 32 85 32q69 0 69 -30q0 -18 -13 -41z" />
    <glyph glyph-name="zero" unicode="0" horiz-adv-x="720" 
d="M360 748q102 0 180.5 -55.5t117 -141.5t38.5 -185t-38.5 -185t-117 -141.5t-180.5 -55.5t-180.5 55.5t-117 141.5t-38.5 185t38.5 185t117 141.5t180.5 55.5zM360 70q86 0 86 296t-86 296t-86 -296t86 -296z" />
    <glyph glyph-name="one" unicode="1" horiz-adv-x="720" 
d="M551 0h-361q-33 0 -45 10.5t-12 33.5q0 42 60 42t60 42v382q0 51 -13 65.5t-57 14.5q-41 0 -52 8t-11 30q0 26 35 38l152 48q6 2 30 11.5t46.5 16t40.5 6.5q36 0 52.5 -17.5t16.5 -66.5v-536q0 -26 15.5 -34t49.5 -8q50 0 50 -42q0 -23 -12 -33.5t-45 -10.5z" />
    <glyph glyph-name="two" unicode="2" horiz-adv-x="720" 
d="M345 156h111q46 0 78 8.5t44.5 19t26 19t26.5 8.5q33 0 33 -35q0 -8 -5.5 -30t-14 -51t-11.5 -45q-7 -31 -20.5 -40.5t-55.5 -9.5h-429q-72 0 -72 51q0 42 35.5 92t86 98.5l100.5 99t85.5 111.5t35.5 119q0 44 -19 67.5t-52 23.5q-31 0 -56 -25.5t-25 -58.5q0 -16 11 -38
t11 -34q0 -25 -27 -42.5t-67 -17.5q-48 0 -78 27t-30 75q0 90 87 145t215 55q133 0 206.5 -57t73.5 -141q0 -49 -20 -95.5t-57 -87.5t-72.5 -73.5l-83 -72.5t-71.5 -65z" />
    <glyph glyph-name="three" unicode="3" horiz-adv-x="720" 
d="M91 576q0 77 70.5 124.5t188.5 47.5q124 0 199 -52t75 -137q0 -64 -41 -105t-107 -55v-2q78 -13 129 -64t51 -128q0 -99 -87 -160t-223 -61q-135 0 -213.5 44.5t-78.5 113.5q0 42 28 61.5t72 19.5q47 0 65.5 -14t22.5 -58q5 -53 19.5 -72t51.5 -19q43 0 68 36t25 105
q0 75 -31 108t-119 33q-39 0 -55.5 8t-16.5 32q0 26 13 36t49 10q71 0 103.5 35t32.5 109q0 90 -58 90q-53 0 -53 -47q0 -8 5 -28.5t5 -30.5q0 -25 -23.5 -39.5t-64.5 -14.5q-102 0 -102 74z" />
    <glyph glyph-name="four" unicode="4" horiz-adv-x="720" 
d="M567 180v-80q0 -16 7.5 -23t17 -7.5t17 -7.5t7.5 -24q0 -20 -13.5 -29t-45.5 -9h-238q-34 0 -46.5 8.5t-12.5 28.5q0 17 9.5 25.5t20.5 10t20.5 8t9.5 19.5v80h-192q-49 0 -64.5 10t-15.5 35q0 62 90.5 224.5t167.5 235.5q43 41 65 49t87 8q71 0 90 -15.5t19 -83.5v-377
h56q27 0 38 -10t11 -33t-11 -33t-38 -10h-56zM327 266v302h-3q-109 -145 -166 -302h169z" />
    <glyph glyph-name="five" unicode="5" horiz-adv-x="720" 
d="M238 583l-12 -137q62 23 144 23q75 0 138 -24.5t104.5 -79t41.5 -130.5q0 -114 -84.5 -182.5t-231.5 -68.5q-123 0 -197.5 42.5t-74.5 107.5q0 40 25.5 63.5t66.5 23.5q45 0 70.5 -20t25.5 -53v-27q0 -51 54 -51q43 0 69.5 39.5t26.5 115.5q0 158 -124 158
q-29 0 -52.5 -14.5t-41 -29t-31.5 -14.5q-39 0 -39 47q0 19 5.5 78.5l14 146.5t13.5 151l65 -5.5t59 -4.5q84 -6 141 -6q40 0 102 8q64 8 79 8q33 0 33 -37q0 -42 -52 -88.5t-142 -46.5q-4 0 -196 7z" />
    <glyph glyph-name="six" unicode="6" horiz-adv-x="720" 
d="M369 -16q-152 0 -241.5 82t-89.5 232q0 89 34 170t94 143.5t151 99.5t197 37q132 0 132 -47q0 -25 -14.5 -32t-62.5 -7q-101 0 -169 -57t-84 -158q50 17 108 17q112 0 185 -59t73 -167q0 -121 -92.5 -187.5t-220.5 -66.5zM360 384q-39 0 -55.5 -38t-16.5 -119t16.5 -119
t55.5 -38t55.5 38t16.5 119t-16.5 119t-55.5 38z" />
    <glyph glyph-name="seven" unicode="7" horiz-adv-x="720" 
d="M382 0h-182q-49 0 -49 26q0 34 109 230t200 320h-230q-26 0 -41.5 -5.5t-21.5 -14t-10.5 -16.5t-12.5 -13.5t-22 -5.5q-25 0 -33 12t-8 54q0 72 5.5 100.5t17.5 36.5t44 8h440q51 0 51 -20q0 -11 -9 -33.5l-27 -67t-39.5 -108t-51 -178t-57.5 -254.5q-9 -46 -22 -58.5
t-51 -12.5z" />
    <glyph glyph-name="eight" unicode="8" horiz-adv-x="720" 
d="M34 191q0 58 40 103.5t98 62.5q-118 76 -118 175q0 98 90 157t231 59q130 0 206.5 -48.5t76.5 -127.5q0 -51 -33.5 -86.5t-86.5 -54.5q148 -79 148 -211q0 -108 -89.5 -172t-241.5 -64t-236.5 60.5t-84.5 146.5zM230 203q0 -55 35 -94t88 -39q42 0 67.5 23.5t25.5 55.5
q0 21 -12.5 40.5t-35.5 36.5t-43 29t-48.5 27t-38.5 21q-38 -56 -38 -100zM294 590q0 -13 5 -24.5t16.5 -22t21 -18t27 -16.5t26.5 -13l28 -12t22 -9q30 47 30 91q0 39 -25.5 67.5t-68.5 28.5q-32 0 -57 -21.5t-25 -50.5z" />
    <glyph glyph-name="nine" unicode="9" horiz-adv-x="720" 
d="M351 748q152 0 241.5 -82t89.5 -232q0 -89 -34 -170t-94 -143.5t-151 -99.5t-197 -37q-132 0 -132 47q0 25 14.5 32t62.5 7q101 0 169 57t84 158q-50 -17 -108 -17q-112 0 -185 59t-73 167q0 121 92.5 187.5t220.5 66.5zM360 348q39 0 55.5 38t16.5 119t-16.5 119
t-55.5 38t-55.5 -38t-16.5 -119t16.5 -119t55.5 -38z" />
    <glyph glyph-name="colon" unicode=":" horiz-adv-x="360" 
d="M184 180q46 0 84 -27.5t38 -70.5t-38 -70.5t-84 -27.5t-84 27.5t-38 70.5t38 70.5t84 27.5zM184 490q46 0 84 -27.5t38 -70.5t-38 -70.5t-84 -27.5t-84 27.5t-38 70.5t38 70.5t84 27.5z" />
    <glyph glyph-name="semicolon" unicode=";" horiz-adv-x="360" 
d="M177 4q-20 -4 -31 -4q-35 0 -59.5 22t-24.5 57q0 43 37 71t82 28q51 0 89 -29.5t38 -79.5q0 -68 -67.5 -135t-108.5 -67q-11 0 -23 7.5t-12 17.5q0 5 15.5 21t35.5 41.5t29 49.5zM184 490q46 0 84 -27.5t38 -70.5t-38 -70.5t-84 -27.5t-84 27.5t-38 70.5t38 70.5t84 27.5
z" />
    <glyph glyph-name="less" unicode="&#x3c;" horiz-adv-x="600" 
d="M543 126v-158l-486 208v134l486 208v-158l-264 -117z" />
    <glyph glyph-name="equal" unicode="=" horiz-adv-x="600" 
d="M543 430v-156h-486v156h486zM543 212v-156h-486v156h486z" />
    <glyph glyph-name="greater" unicode="&#x3e;" horiz-adv-x="600" 
d="M57 -32v158l264 117l-264 117v158l486 -208v-134z" />
    <glyph glyph-name="question" unicode="?" horiz-adv-x="580" 
d="M313 282v-34q0 -52 -56 -52q-40 0 -55 12t-15 48v110q0 19 13 30.5t31.5 21t37.5 24t32 49t13 87.5q0 43 -16.5 66.5t-43.5 23.5q-48 0 -48 -52q0 -48 -21 -71.5t-72 -23.5q-45 0 -68 20.5t-23 55.5q0 59 69.5 105t181.5 46q130 0 207.5 -59.5t77.5 -153.5
q0 -64 -33.5 -103.5t-88.5 -67.5q-14 -7 -36 -16.5t-34.5 -16t-26 -14.5t-20 -16.5t-6.5 -18.5zM258 -16q-56 0 -89 28t-33 63t33 63t89 28t89 -28t33 -63t-33 -63t-89 -28z" />
    <glyph glyph-name="at" unicode="@" horiz-adv-x="860" 
d="M376 316q0 -39 13.5 -59.5t32.5 -20.5q35 0 72.5 63.5t37.5 126.5q0 62 -36 62q-38 0 -79 -53t-41 -119zM570 527l9 22h87l-59 -246q-5 -20 -5 -45q0 -34 29 -34q34 0 66.5 64.5t32.5 132.5q2 93 -77 165t-203 72q-48 0 -94 -17t-87.5 -51.5t-67 -97t-25.5 -143.5
q0 -120 86 -197.5t199 -77.5q70 0 116.5 14t102.5 43l11 -78q-123 -69 -229 -69q-83 0 -153.5 24t-118 62t-81 86.5t-48.5 97.5t-15 95q0 175 118 287t286 112q154 0 259 -93t105 -233q0 -116 -64.5 -193t-141.5 -77q-33 0 -57.5 13t-34 27t-8.5 23h-2q-42 -58 -123 -61
q-46 -2 -82.5 33.5t-36.5 107.5q0 43 13.5 89t39.5 89t71.5 70t102.5 27q55 0 79 -43z" />
    <glyph glyph-name="A" unicode="A" horiz-adv-x="750" 
d="M435 226h-250q-34 -100 -34 -118q0 -20 25.5 -33t25.5 -34q0 -41 -59 -41h-112q-48 0 -48 40q0 20 26 38t28 26q18 59 95 267.5t107 270.5q26 54 50 72t80 18q47 0 66.5 -5t31.5 -18t31 -51q13 -26 114 -277t108 -277q5 -17 26 -30t21 -36q0 -38 -60 -38h-206
q-69 0 -69 38q0 17 19.5 30.5t19.5 20.5t-3 18l-13 46zM217 326h181l-87 230z" />
    <glyph glyph-name="B" unicode="B" horiz-adv-x="770" 
d="M67 122v488q0 23 -13.5 32.5l-26.5 18.5t-13 31q0 20 14 30t50 10h419q96 0 155.5 -47t59.5 -115q0 -110 -131 -166v-2q81 -17 128 -65.5t47 -128.5q0 -94 -66 -151t-182 -57h-430q-36 0 -50 10t-14 30q0 17 8.5 27t18 13t18 13.5t8.5 28.5zM307 584v-174q57 13 106 58.5
t49 100.5q0 81 -94 81q-38 0 -49.5 -14t-11.5 -52zM307 315v-154q0 -40 10 -55.5t48 -15.5q64 0 102.5 36t38.5 96q0 79 -70 123q-59 -20 -129 -30z" />
    <glyph glyph-name="C" unicode="C" horiz-adv-x="780" 
d="M28 364q0 109 62 198.5t159 137.5t205 48q143 0 246 -71q27 -19 34 -42t7 -98q0 -23 -14.5 -35.5t-38.5 -12.5q-18 0 -31.5 12.5t-22 31.5t-21.5 40.5t-28.5 40.5t-45.5 31.5t-69 12.5q-92 0 -142 -77.5t-50 -203.5q0 -149 58 -217t152 -68q44 0 82.5 19t60 41t44.5 41
t41 19t30.5 -13.5t12.5 -31.5q0 -66 -100 -124.5t-190 -58.5q-197 0 -319 104.5t-122 275.5z" />
    <glyph glyph-name="D" unicode="D" horiz-adv-x="860" 
d="M67 122v488q0 23 -13.5 32.5l-26.5 18.5t-13 31q0 20 14 30t50 10h351q113 0 200 -38t140.5 -122t53.5 -206t-53.5 -206t-140.5 -122t-200 -38h-351q-36 0 -50 10t-14 30q0 17 8.5 27t18 13t18 13.5t8.5 28.5zM307 565v-398q0 -45 10 -61t38 -16q96 0 157 82t61 194
t-61 194t-157 82q-28 0 -38 -16t-10 -61z" />
    <glyph glyph-name="E" unicode="E" horiz-adv-x="690" 
d="M68 122v488q0 18 -8.5 28.5t-18 13.5t-18 13t-8.5 27q0 20 14 30t50 10h488q43 0 62 -13t19 -47v-46q0 -29 -14.5 -44.5t-33.5 -15.5q-21 0 -32 8t-18.5 19t-19.5 22t-45 19t-86 8q-59 0 -75 -12.5t-16 -63.5v-120h123q27 0 44 6.5t23 14t15.5 14t23.5 6.5q22 0 32 -19
t10 -71q0 -53 -10 -72.5t-32 -19.5q-14 0 -23.5 6.5t-15.5 14t-23 14t-44 6.5h-123v-151q0 -70 20 -87.5t91 -17.5q51 0 84.5 9.5t47 23t22.5 27.5t20.5 23.5t30.5 9.5q24 0 37.5 -14.5t13.5 -38.5q0 -17 -7 -56.5t-15 -53.5q-12 -20 -74 -20h-500q-36 0 -50 10t-14 30
q0 17 8.5 27t18 13t18 13.5t8.5 28.5z" />
    <glyph glyph-name="F" unicode="F" horiz-adv-x="650" 
d="M78 732h434q69 0 84 -14q27 -25 27 -121q0 -46 -38 -46q-18 0 -30 9.5t-21 22.5t-22.5 26.5t-44 23t-77.5 9.5q-55 0 -69 -12t-14 -54v-150h104q27 0 44 6.5t23 14t15.5 14t23.5 6.5q22 0 32 -19t10 -71q0 -53 -10 -72.5t-32 -19.5q-14 0 -23.5 6.5t-15.5 14t-23 14
t-44 6.5h-104v-204q0 -23 13.5 -32.5l26.5 -18.5t13 -31q0 -20 -14 -30t-50 -10h-218q-36 0 -50 10t-14 30q0 17 8.5 27t18 13t18 13.5t8.5 28.5v488q0 23 -13.5 32.5l-26.5 18.5t-13 31q0 20 14 30t50 10z" />
    <glyph glyph-name="G" unicode="G" horiz-adv-x="790" 
d="M504 300h-54q-51 0 -51 46q0 25 15 37.5t52 12.5h234q47 0 64 -8t17 -30q0 -14 -6 -56.5t-6 -61.5q0 -30 8.5 -68t8.5 -45q0 -37 -66 -72t-142.5 -53t-123.5 -18q-187 0 -306.5 101t-119.5 281q0 117 60 205.5t155.5 132.5t210.5 44q139 0 240 -55q34 -18 44 -39.5
t10 -51.5v-64q0 -23 -15.5 -32t-33.5 -9q-20 0 -34.5 16.5t-26.5 40.5t-27.5 47.5t-46 40t-73.5 16.5q-89 0 -151 -75t-62 -217q0 -117 48.5 -195.5t119.5 -78.5q51 0 76 29t25 106q0 44 -10 58.5t-33 14.5z" />
    <glyph glyph-name="H" unicode="H" horiz-adv-x="830" 
d="M306 610v-168h218v168q0 18 -8.5 28.5t-18 13.5t-18 13t-8.5 27q0 20 14 30t50 10h218q36 0 50 -10t14 -30q0 -17 -8.5 -27t-18 -13t-18 -13.5t-8.5 -28.5v-488q0 -18 8.5 -28.5t18 -13.5t18 -13t8.5 -27q0 -20 -14 -30t-50 -10h-218q-36 0 -50 10t-14 30q0 17 8.5 27
t18 13t18 13.5t8.5 28.5v230h-218v-230q0 -18 8.5 -28.5t18 -13.5t18 -13t8.5 -27q0 -20 -14 -30t-50 -10h-218q-36 0 -50 10t-14 30q0 17 8.5 27t18 13t18 13.5t8.5 28.5v488q0 18 -8.5 28.5t-18 13.5t-18 13t-8.5 27q0 20 14 30t50 10h218q36 0 50 -10t14 -30
q0 -17 -8.5 -27t-18 -13t-18 -13.5t-8.5 -28.5z" />
    <glyph glyph-name="I" unicode="I" horiz-adv-x="380" 
d="M310 610v-488q0 -18 8.5 -28.5t18 -13.5t18 -13t8.5 -27q0 -20 -14 -30t-50 -10h-218q-36 0 -50 10t-14 30q0 17 8.5 27t18 13t18 13.5t8.5 28.5v488q0 18 -8.5 28.5t-18 13.5t-18 13t-8.5 27q0 20 14 30t50 10h218q36 0 50 -10t14 -30q0 -17 -8.5 -27t-18 -13t-18 -13.5
t-8.5 -28.5z" />
    <glyph glyph-name="J" unicode="J" horiz-adv-x="600" 
d="M550 610v-387q0 -133 -67.5 -186t-207.5 -53q-138 0 -207 50.5t-69 130.5q0 69 48 110.5t118 41.5q50 0 82 -20.5t32 -53.5q0 -20 -15.5 -31.5t-34.5 -15t-34.5 -18t-15.5 -41.5q0 -26 16 -41.5t43 -15.5q72 0 72 118v412q0 18 -8.5 28.5t-18 13.5t-18 13t-8.5 27
q0 20 14 30t50 10h218q36 0 50 -10t14 -30q0 -17 -8.5 -27t-18 -13t-18 -13.5t-8.5 -28.5z" />
    <glyph glyph-name="K" unicode="K" horiz-adv-x="820" 
d="M67 122v488q0 23 -13.5 32.5l-26.5 18.5t-13 31q0 20 14 30t50 10h218q36 0 50 -10t14 -30q0 -17 -8.5 -27t-18 -13t-18 -13.5t-8.5 -28.5v-208q59 27 163 112t104 125q0 8 -20 22.5t-20 33.5q0 37 70 37h102q72 0 72 -48q0 -19 -11 -27.5t-30.5 -17t-31.5 -22.5
q-67 -79 -171 -175q64 -65 118.5 -150t88 -142.5t57.5 -71.5q16 -9 22 -16.5t6 -22.5q0 -39 -60 -39h-232q-67 0 -67 42q0 18 16.5 33.5t16.5 20.5q0 19 -26.5 59.5t-119.5 166.5l-47 -26v-174q0 -23 13.5 -32.5l26.5 -18.5t13 -31q0 -20 -14 -30t-50 -10h-218q-36 0 -50 10
t-14 30q0 17 8.5 27t18 13t18 13.5t8.5 28.5z" />
    <glyph glyph-name="L" unicode="L" horiz-adv-x="600" 
d="M67 122v488q0 23 -13.5 32.5l-26.5 18.5t-13 31q0 20 14 30t50 10h218q36 0 50 -10t14 -30q0 -17 -8.5 -27t-18 -13t-18 -13.5t-8.5 -28.5v-459q0 -42 14 -51.5t70 -9.5q34 0 58 11.5t36 28t22 33.5t24.5 28.5t34.5 11.5t34 -12t14 -32t-13 -64.5t-24 -65.5
q-9 -18 -21 -23.5t-43 -5.5h-435q-36 0 -50 10t-14 30q0 17 8.5 27t18 13t18 13.5t8.5 28.5z" />
    <glyph glyph-name="M" unicode="M" horiz-adv-x="950" 
d="M877 618v-496q0 -23 13.5 -32.5l26.5 -18.5t13 -31q0 -20 -14 -30t-50 -10h-218q-36 0 -50 10t-14 30q0 17 8.5 27t18 13t18 13.5t8.5 28.5v380h-2l-130 -367q-8 -23 -28 -31.5t-68 -8.5q-26 0 -39.5 2.5t-27.5 13.5t-23 34l-134 343h-2v-352q0 -21 12 -34t27 -18t27 -16
t12 -28q0 -40 -61 -40h-118q-65 0 -65 42q0 19 10.5 29t22.5 13t22.5 16t10.5 36v476q0 20 -11 29t-23.5 10t-23.5 12.5t-11 36.5q0 32 50 32h220q43 0 60 -14.5t36 -68.5l108 -302l129 343q9 24 24 33t44 9h187q43 0 58 -10.5t15 -34.5q0 -18 -10.5 -27.5t-23.5 -11.5
t-23.5 -9t-10.5 -21z" />
    <glyph glyph-name="N" unicode="N" horiz-adv-x="770" 
d="M608 332v248q0 26 -6.5 42.5t-15.5 23t-18 11t-15.5 12.5t-6.5 22q0 23 13 32t49 9h100q36 0 49 -9t13 -32q0 -14 -6.5 -22t-15.5 -12.5t-18 -11t-15.5 -23t-6.5 -42.5v-512q0 -40 -13.5 -54t-60.5 -14q-58 0 -73.5 6t-36.5 35l-324 443h-2v-332q0 -29 7 -47t17.5 -24
t21 -10t17.5 -11t7 -22q0 -19 -15 -28.5t-55 -9.5h-100q-40 0 -55 9.5t-15 28.5q0 15 7 22t17.5 11t21 10t17.5 24t7 47v404q0 37 -8.5 58t-21 28t-25 10.5t-21 11.5t-8.5 25q0 23 11.5 33t50.5 10h186q30 0 45 -7.5t33 -31.5l266 -361h2z" />
    <glyph glyph-name="O" unicode="O" horiz-adv-x="890" 
d="M445 748q111 0 205.5 -44.5t154.5 -133t60 -204.5t-60 -204.5t-154.5 -133t-205.5 -44.5t-205.5 44.5t-154.5 133t-60 204.5t60 204.5t154.5 133t205.5 44.5zM275 366q0 -292 170 -292t170 292t-170 292t-170 -292z" />
    <glyph glyph-name="P" unicode="P" horiz-adv-x="710" 
d="M67 122v488q0 23 -13.5 32.5l-26.5 18.5t-13 31q0 20 14 30t50 10h335q303 0 303 -207q0 -221 -409 -253v-150q0 -18 9.5 -28.5t21 -13.5t21 -13t9.5 -27q0 -20 -14 -30t-50 -10h-226q-36 0 -50 10t-14 30q0 17 8.5 27t18 13t18 13.5t8.5 28.5zM307 598v-232
q68 16 113.5 57.5t45.5 106.5q0 51 -31 85.5t-81 34.5q-47 0 -47 -52z" />
    <glyph glyph-name="Q" unicode="Q" horiz-adv-x="890" 
d="M25 366q0 116 60 204.5t154.5 133t205.5 44.5t205.5 -44.5t154.5 -133t60 -204.5q0 -129 -71.5 -221.5t-186.5 -132.5q43 -18 72 -18q16 0 48 5t48 5q30 0 50.5 -18.5t20.5 -47.5q0 -40 -39.5 -57t-85.5 -17q-65 0 -134.5 31t-123.5 90q-6 -1 -18 -1q-111 0 -205.5 44.5
t-154.5 133t-60 204.5zM275 366q0 -260 136 -288q-15 38 -15 100q0 72 53 72q20 0 30.5 -11t12.5 -23.5t2 -33.5q0 -58 23 -90q98 53 98 274q0 292 -170 292t-170 -292z" />
    <glyph glyph-name="R" unicode="R" horiz-adv-x="770" 
d="M67 122v488q0 23 -13.5 32.5l-26.5 18.5t-13 31q0 20 14 30t50 10h419q50 0 91.5 -9t77 -28.5t55.5 -55t20 -84.5q0 -64 -40 -113.5t-103 -79.5q75 -80 128 -231q9 -27 22 -43.5t22.5 -21t16 -12t6.5 -20.5q0 -34 -69 -34h-226q-37 0 -52.5 8t-14.5 29q0 18 19 32t19 25
q0 34 -36.5 105.5t-65.5 106.5l-60 -8v-176q0 -23 13.5 -32.5l26.5 -18.5t13 -31q0 -20 -14 -30t-50 -10h-218q-36 0 -50 10t-14 30q0 17 8.5 27t18 13t18 13.5t8.5 28.5zM307 570v-177q3 0 10 -0.5t11 -0.5q66 0 114.5 39.5t48.5 103.5q0 48 -30 81.5t-77 33.5
q-77 0 -77 -80z" />
    <glyph glyph-name="S" unicode="S" horiz-adv-x="720" 
d="M704 263q0 -68 -31.5 -123t-83 -88t-113 -50.5t-125.5 -17.5q-124 0 -227 54t-103 124q0 28 18.5 48t45.5 20q25 0 43.5 -15t33.5 -37t34 -44t54.5 -37t85.5 -15q59 0 93.5 28t34.5 64q0 37 -43 58t-104 34t-122 32.5t-104 68t-43 125.5q0 112 90.5 184t233.5 72
q72 0 120.5 -11.5t111.5 -38.5q38 -16 46 -38.5t8 -93.5q0 -60 -50 -60q-17 0 -29.5 12t-20 29.5t-19 38.5t-26 38.5t-42.5 29.5t-66 12q-57 0 -87 -22.5t-30 -56.5q0 -30 23 -50.5t59.5 -33t81 -23.5t89 -26.5t81 -37.5t59.5 -61t23 -92z" />
    <glyph glyph-name="T" unicode="T" horiz-adv-x="700" 
d="M91 732h518q50 0 60 -16q7 -11 17 -53t10 -57q0 -25 -14 -40t-37 -15q-19 0 -33.5 14t-23 31.5t-30 31.5t-52.5 14q-21 0 -28.5 -9t-7.5 -34v-477q0 -18 8.5 -28.5t18 -13.5t18 -13t8.5 -27q0 -20 -14 -30t-50 -10h-218q-36 0 -50 10t-14 30q0 17 8.5 27t18 13t18 13.5
t8.5 28.5v477q0 25 -7.5 34t-28.5 9q-31 0 -52.5 -14t-30 -31.5t-23 -31.5t-33.5 -14q-23 0 -37 15t-14 40q0 15 10 57t17 53q10 16 60 16z" />
    <glyph glyph-name="U" unicode="U" horiz-adv-x="760" 
d="M560 732h130q30 0 43 -8.5t13 -28.5q0 -18 -9 -28t-20.5 -13t-20.5 -13t-9 -27q0 -50 5.5 -163.5t5.5 -152.5q0 -55 -5 -95t-24.5 -84t-53 -71.5t-94 -45.5t-145.5 -18q-170 0 -247.5 75t-77.5 254q0 47 6.5 161.5t6.5 141.5q0 18 -8 28t-17.5 12.5t-17.5 10.5t-8 23
q0 24 17 33t63 9h209q39 0 52.5 -10t13.5 -32q0 -13 -9 -21t-20 -11t-20 -13.5t-9 -28.5q0 -2 -9.5 -130.5t-9.5 -177.5q0 -36 2.5 -65t12 -62t25 -55t43.5 -37t66 -15q79 0 113 50.5t34 159.5q0 48 -6.5 165t-6.5 151q0 22 -11 35t-24 17.5t-24 14.5t-11 28q0 19 12.5 28
t43.5 9z" />
    <glyph glyph-name="V" unicode="V" horiz-adv-x="760" 
d="M45 732h224q64 0 64 -41q0 -23 -28 -39t-28 -37q0 -47 29.5 -121.5t124.5 -281.5l22 -48q63 143 96 236.5t39.5 128.5t6.5 68q0 18 -11.5 30.5t-26 18t-26 17.5t-11.5 30q0 23 18.5 31t69.5 8h70q53 0 73 -9t20 -37q0 -23 -23 -39t-28 -30q-166 -504 -233 -579
q-22 -25 -41 -31.5t-77 -6.5q-33 0 -47.5 2.5t-36 20.5t-44.5 57q-46 77 -101.5 213t-98.5 295q-10 39 -31 64t-21 46q0 15 15 24.5t41 9.5z" />
    <glyph glyph-name="W" unicode="W" horiz-adv-x="1030" 
d="M439 732h222q30 0 41 -10.5t11 -31.5q0 -19 -24.5 -32t-24.5 -36q0 -25 4 -55.5t13.5 -66.5l17.5 -64.5t22.5 -69l21.5 -61t22.5 -60t17.5 -45.5q100 238 100 388q0 26 -10.5 42t-23.5 21t-23.5 15.5t-10.5 26.5q0 18 14.5 28.5t39.5 10.5h134q44 0 44 -37
q0 -12 -7 -21.5t-16.5 -16t-19.5 -23t-15 -39.5q-91 -456 -166 -551q-24 -31 -41.5 -37.5t-72.5 -6.5q-64 0 -91 25q-31 29 -72 147q-12 35 -46 142h-2l-25 -88l-20 -69t-19 -55l-17 -39t-18.5 -29l-19.5 -17t-24 -11.5t-27.5 -4t-34.5 -1.5q-62 0 -78.5 11t-43.5 69
q-76 165 -139 522q-6 32 -27 50t-21 40q0 23 16 31.5t51 8.5h206q63 0 63 -43q0 -16 -11.5 -23.5t-23 -16.5t-11.5 -27q0 -41 4.5 -81.5t18.5 -92.5l20.5 -75t28.5 -90t25 -77h2q63 197 63 322q0 44 -6.5 72.5t-15 40.5t-17.5 18.5t-15.5 14t-6.5 20.5q0 20 14 29t50 9z" />
    <glyph glyph-name="X" unicode="X" horiz-adv-x="760" 
d="M196 0h-162q-41 0 -41 42q0 14 14.5 28.5t29.5 21.5q16 8 32 27t32 45.5t55 82t88 115.5q-69 92 -112 157t-55.5 86.5t-22.5 30.5q-6 5 -22.5 17t-24.5 21.5t-8 20.5q0 21 14 29t57 8h190q52 0 72.5 -9.5t20.5 -33.5q0 -14 -14 -25.5t-14 -15.5q0 -9 19.5 -37.5
t95.5 -132.5q97 125 97 157q0 9 -11.5 17t-22.5 18.5t-11 27.5q0 34 44 34h136q24 0 40 -12t16 -29q0 -16 -9.5 -27t-24 -19t-18.5 -13l-178 -226l125.5 -170.5t111.5 -149.5q2 -2 13.5 -6.5t20 -13.5t8.5 -25q0 -19 -15 -30t-42 -11h-230q-44 0 -62.5 9.5t-18.5 31.5
q0 17 14.5 28.5t14.5 13.5q0 28 -135 207q-62 -89 -81 -124.5t-19 -59.5q0 -19 21.5 -38t21.5 -36q0 -32 -50 -32z" />
    <glyph glyph-name="Y" unicode="Y" horiz-adv-x="760" 
d="M48 732h258q34 0 46.5 -10.5t12.5 -33.5q0 -16 -22.5 -31t-22.5 -29q0 -15 12.5 -43t33 -60l38 -58.5l36 -52t19.5 -27.5q32 36 86 124t54 117q0 10 -22 26t-22 36q0 18 14.5 30t44.5 12h94q36 0 51.5 -9t15.5 -31q0 -15 -9.5 -27t-27 -28t-29.5 -33l-203 -300v-182
q0 -18 8.5 -28.5t18 -13.5t18 -13t8.5 -27q0 -20 -14 -30t-50 -10h-218q-36 0 -50 10t-14 30q0 17 8.5 27t18 13t18 13.5t8.5 28.5v168q-36 45 -101 145.5t-93 154.5q-12 22 -28.5 37t-28.5 20t-21 15.5t-9 26.5q0 43 63 43z" />
    <glyph glyph-name="Z" unicode="Z" horiz-adv-x="640" 
d="M104 732h463q49 0 66.5 -8.5t17.5 -36.5q0 -50 -56.5 -146.5t-123.5 -184l-123.5 -164t-56.5 -90.5q0 -12 21 -12h92q47 0 79 9.5t47 23t25 26.5t22 22.5t30 9.5q44 0 44 -40q0 -20 -12 -80q-7 -35 -19 -48t-45 -13h-481q-83 0 -83 62q0 53 91.5 189t182.5 254.5
t91 130.5q0 6 -26 6h-76q-43 0 -72 -9t-42 -22t-21.5 -25.5t-20 -21.5t-29.5 -9q-22 0 -34.5 13t-12.5 35q0 83 15 114q7 15 47 15z" />
    <glyph glyph-name="bracketleft" unicode="[" horiz-adv-x="360" 
d="M268 598v-684q0 -24 13 -36t28 -14t28 -11.5t13 -28.5q0 -44 -67 -44h-166q-29 0 -37 9t-8 43v848q0 34 8 43t37 9h166q67 0 67 -44q0 -19 -13 -28.5t-28 -11.5t-28 -14t-13 -36z" />
    <glyph glyph-name="backslash" unicode="\" horiz-adv-x="520" 
d="M411 14l-440 661q-19 30 -19 43q0 30 67 30q45 0 60.5 -4.5t29.5 -25.5l440 -661q19 -29 19 -47q0 -26 -66 -26q-47 0 -62 4.5t-29 25.5z" />
    <glyph glyph-name="bracketright" unicode="]" horiz-adv-x="360" 
d="M92 -86v684q0 24 -13 36t-28 14t-28 11.5t-13 28.5q0 44 67 44h166q29 0 37 -9t8 -43v-848q0 -34 -8 -43t-37 -9h-166q-67 0 -67 44q0 19 13 28.5t28 11.5t28 14t13 36z" />
    <glyph glyph-name="asciicircum" unicode="^" horiz-adv-x="600" 
d="M196 361h-157l181 371h160l181 -371h-158l-103 223z" />
    <glyph glyph-name="underscore" unicode="_" horiz-adv-x="500" 
d="M500 -125h-500v50h500v-50z" />
    <glyph glyph-name="grave" unicode="`" 
d="M100 732h45q14 0 22.5 -2t20.5 -12.5t24 -31.5q6 -9 17 -27l18.5 -29.5t15.5 -25.5t12 -24t4 -15q0 -9 -7.5 -15t-17.5 -6q-8 0 -43 21l-82 51.5t-52 33.5q-36 23 -36 45q0 17 10 25.5t20.5 10t28.5 1.5z" />
    <glyph glyph-name="a" unicode="a" horiz-adv-x="620" 
d="M568 304v-176q0 -21 8 -34t17.5 -18t17.5 -14.5t8 -24.5q0 -37 -50 -37h-149q-34 0 -46.5 9.5t-18.5 42.5q-40 -62 -149 -62q-89 0 -137 47.5t-48 110.5q0 172 322 172q-1 57 -14 76.5t-45 19.5q-19 0 -34.5 -11.5t-25.5 -26t-30.5 -26t-47.5 -11.5q-40 0 -62 16.5
t-22 42.5q0 96 245 96q45 0 80.5 -4.5t70.5 -17.5t58.5 -34t37.5 -55.5t14 -80.5zM241 147q0 -26 12 -41.5t32 -15.5q63 0 63 156q-48 0 -77.5 -26t-29.5 -73z" />
    <glyph glyph-name="b" unicode="b" horiz-adv-x="670" 
d="M59 186v408q0 29 -9 43.5t-19.5 16.5t-19.5 9t-9 22t15 26t52 23q75 26 137 26q34 0 53.5 -16t19.5 -40v-242q55 34 134 34q104 0 172 -68.5t68 -172.5q0 -66 -28 -118t-75 -83.5t-104 -47.5t-120 -16q-267 0 -267 196zM279 309v-136q0 -50 16 -73.5t50 -23.5
q37 0 57.5 49t20.5 116t-20.5 116t-57.5 49q-34 0 -50 -23.5t-16 -73.5z" />
    <glyph glyph-name="c" unicode="c" horiz-adv-x="550" 
d="M545 374q0 -30 -22.5 -45.5t-53.5 -15.5q-28 0 -48.5 15t-30.5 33.5t-25 33.5t-33 15q-38 0 -61 -42.5t-24 -122.5q-1 -75 34 -114t82 -39q34 0 65 18t53.5 36t37.5 18t25.5 -12t10.5 -27q0 -52 -81 -93.5t-163 -41.5q-77 0 -143 28.5t-108.5 87.5t-42.5 137
q0 118 84 185.5t204 67.5q107 0 173.5 -35t66.5 -87z" />
    <glyph glyph-name="d" unicode="d" horiz-adv-x="670" 
d="M396 466v128q0 29 -9 43.5t-19.5 16.5t-19.5 9t-9 22t15 26t52 23q75 26 137 26q34 0 53.5 -16t19.5 -40v-563q0 -28 5.5 -44t13 -21.5t15.5 -8.5t13.5 -9.5t5.5 -20.5q0 -20 -13 -28.5t-50 -8.5h-132q-33 0 -43 10t-20 44q-45 -64 -146 -64q-107 0 -177.5 69.5
t-70.5 176.5q0 115 83.5 187.5t202.5 72.5q18 0 35 -4.5t26 -9zM398 199v98q0 59 -19 86t-49 27q-34 0 -58.5 -38t-24.5 -124t24.5 -124t58.5 -38q30 0 49 27t19 86z" />
    <glyph glyph-name="e" unicode="e" horiz-adv-x="590" 
d="M17 236q0 81 49 142t120 89.5t150 28.5q108 0 170.5 -45t62.5 -102q0 -29 -11 -52.5t-35 -41t-49.5 -30t-66 -23.5t-72 -17.5t-80.5 -14.5q11 -38 40 -62t70 -24q40 0 74 20t58 40t40 20t27.5 -9t11.5 -25q0 -51 -86.5 -95.5t-177.5 -44.5q-119 0 -207 65.5t-88 180.5z
M367 358q0 20 -9.5 36t-28.5 16q-37 0 -59.5 -44.5t-22.5 -109.5q47 2 83.5 29.5t36.5 72.5z" />
    <glyph glyph-name="f" unicode="f" horiz-adv-x="390" 
d="M300 390v-268q0 -20 8 -32t17.5 -15.5t17.5 -12t8 -23.5q0 -39 -64 -39h-194q-64 0 -64 39q0 15 8 23.5t17.5 12t17.5 15.5t8 32v268h-16q-51 0 -51 48t51 48h16v38q0 115 57 175.5t167 60.5q60 0 96.5 -21.5t36.5 -61.5q0 -30 -20 -49.5t-50 -19.5q-19 0 -35 8.5
t-18.5 11t-12.5 14.5q0 -10 -2.5 -32t-2.5 -36v-88h53q51 0 51 -48t-51 -48h-49z" />
    <glyph glyph-name="g" unicode="g" horiz-adv-x="640" 
d="M17 258q0 64 25.5 111.5t69.5 74.5t96.5 39.5t113.5 12.5q39 0 117 -5t118 -5q43 0 60.5 -11t17.5 -38q0 -47 -78 -47q46 -49 46 -129q0 -58 -29.5 -106t-80.5 -74v-2q52 -9 87 -36t35 -75q0 -71 -74.5 -112.5t-224.5 -41.5q-293 0 -293 109q0 38 42 60t106 22
q79 0 79 -31q0 -6 -6.5 -14.5t-6.5 -12.5q0 -15 20 -25t56 -10q48 0 75 19.5t27 46.5q0 37 -53 61q-61 -7 -78 -7q-112 0 -189.5 58.5t-77.5 167.5zM247 266q0 -154 63 -154t63 154t-63 154t-63 -154z" />
    <glyph glyph-name="h" unicode="h" horiz-adv-x="650" 
d="M271 668v-212q68 40 135 40q97 0 145 -53.5t48 -149.5v-177q0 -28 19 -43.5t19 -33.5q0 -14 -14 -26.5t-38 -12.5h-192q-24 0 -38 12.5t-14 26.5q0 18 19 33.5t19 43.5v196q0 82 -54 82t-54 -82v-196q0 -28 19 -43.5t19 -33.5q0 -14 -14 -26.5t-38 -12.5h-192
q-24 0 -38 12.5t-14 26.5q0 18 19 33.5t19 43.5v214v274q0 19 -9 29.5t-20 14t-20 12.5t-9 24q0 38 54 44q26 3 95.5 17.5t78.5 14.5q50 0 50 -92z" />
    <glyph glyph-name="i" unicode="i" 
d="M56 116v224q0 19 -9 29.5t-20 14t-20 12.5t-9 24q0 19 19.5 31.5t49.5 15.5q26 3 88 16t71 13q50 0 50 -92v-288q0 -28 19 -43.5t19 -33.5q0 -14 -14 -26.5t-38 -12.5h-192q-24 0 -38 12.5t-14 26.5q0 18 19 33.5t19 43.5zM152 540q-56 0 -90.5 28.5t-34.5 67.5
t34.5 67.5t90.5 28.5t90.5 -28.5t34.5 -67.5t-34.5 -67.5t-90.5 -28.5z" />
    <glyph glyph-name="j" unicode="j" horiz-adv-x="340" 
d="M303 404v-416q0 -87 -57 -130.5t-142 -43.5q-70 0 -119 29t-49 68q0 26 20.5 41.5t47.5 15.5q28 0 48 -17.5t26 -40.5h2q3 10 3 34v396q0 19 -9 29.5t-20 14t-20 12.5t-9 24q0 19 19.5 31.5t49.5 15.5q26 3 88 16t71 13q50 0 50 -92zM187 540q-56 0 -90.5 28.5
t-34.5 67.5t34.5 67.5t90.5 28.5t90.5 -28.5t34.5 -67.5t-34.5 -67.5t-90.5 -28.5z" />
    <glyph glyph-name="k" unicode="k" horiz-adv-x="650" 
d="M56 116v488q0 19 -9 29.5t-20 14t-20 12.5t-9 24q0 19 19.5 31.5t49.5 15.5q26 3 88 16t71 13q50 0 50 -92v-368q29 4 83.5 42.5t54.5 60.5q0 6 -7 10.5t-15 7.5t-15 10.5t-7 19.5q0 35 52 35h142q44 0 44 -32q0 -14 -8 -23.5t-24.5 -19.5t-22.5 -15l-100 -86
q81 -66 147 -194q9 -18 24 -31t24 -21.5t9 -21.5q0 -24 -16.5 -33t-61.5 -9h-183q-59 0 -59 39q0 14 13.5 25t13.5 17q0 20 -33.5 71.5t-54.5 65.5v-102q0 -28 19 -43.5t19 -33.5q0 -14 -14 -26.5t-38 -12.5h-192q-24 0 -38 12.5t-14 26.5q0 18 19 33.5t19 43.5z" />
    <glyph glyph-name="l" unicode="l" horiz-adv-x="340" 
d="M69 116v488q0 19 -9 29.5t-20 14t-20 12.5t-9 24q0 19 19.5 31.5t49.5 15.5q26 3 88 16t71 13q50 0 50 -92v-552q0 -18 8 -29t18 -14.5t18 -12t8 -21.5q0 -14 -14 -26.5t-38 -12.5h-220q-24 0 -38 12.5t-14 26.5q0 13 8 21.5t18 12t18 14.5t8 29z" />
    <glyph glyph-name="m" unicode="m" horiz-adv-x="960" 
d="M891 0h-166q-65 0 -65 39q0 20 19 32.5t19 33.5v199q0 49 -12 69.5t-38 20.5t-38 -20.5t-12 -69.5v-199q0 -21 19 -33.5t19 -32.5q0 -39 -65 -39h-166q-65 0 -65 39q0 20 19 32.5t19 33.5v199q0 49 -12 69.5t-38 20.5t-38 -20.5t-12 -69.5v-199q0 -21 19 -33.5t19 -32.5
q0 -39 -65 -39h-166q-65 0 -65 39q0 20 19 32.5t19 33.5v223q0 24 -7.5 36.5t-16 14t-16 8.5t-7.5 22q0 6 2.5 11t8 9.5t10.5 8t13 7l12.5 5.5t13 5t10.5 4q92 37 132 37q18 0 28.5 -12t13.5 -22.5t7 -31.5q58 66 157 66q45 0 85 -20.5t60 -57.5q50 78 167 78
q91 0 139 -45.5t48 -134.5v-211q0 -21 19 -33.5t19 -32.5q0 -39 -65 -39z" />
    <glyph glyph-name="n" unicode="n" horiz-adv-x="650" 
d="M60 116v214q0 23 -7.5 35.5t-17 15.5t-17 10t-7.5 21q0 19 17 31t58 25q84 28 124 28q25 0 34 -16.5t14 -49.5q59 66 157 66q97 0 145 -53.5t48 -149.5v-177q0 -28 19 -43.5t19 -33.5q0 -14 -14 -26.5t-38 -12.5h-192q-24 0 -38 12.5t-14 26.5q0 18 19 33.5t19 43.5v196
q0 82 -54 82t-54 -82v-196q0 -28 19 -43.5t19 -33.5q0 -14 -14 -26.5t-38 -12.5h-192q-24 0 -38 12.5t-14 26.5q0 18 19 33.5t19 43.5z" />
    <glyph glyph-name="o" unicode="o" horiz-adv-x="650" 
d="M325 496q120 0 213.5 -68.5t94.5 -184.5q-1 -116 -94.5 -184.5t-213.5 -68.5t-213.5 68.5t-94.5 184.5q1 116 94.5 184.5t213.5 68.5zM247 243q0 -167 78 -167t78 167t-78 167t-78 -167z" />
    <glyph glyph-name="p" unicode="p" horiz-adv-x="670" 
d="M64 -56v386q0 29 -9 43.5t-19.5 16.5t-19.5 9t-9 22t15 26t52 23q75 26 131 26q14 0 23.5 -3t17.5 -15t9.5 -15t9.5 -23q56 56 146 56q106 0 174 -73t68 -181q0 -105 -72.5 -178.5t-177.5 -73.5q-46 0 -72 16.5t-26 46.5q0 35 32 35q38 0 62 40t24 108q0 69 -24 115.5
t-58 46.5q-57 0 -57 -100v-354q0 -20 8 -32t17.5 -15.5t17.5 -12t8 -23.5q0 -39 -64 -39h-194q-64 0 -64 39q0 15 8 23.5t17.5 12t17.5 15.5t8 32z" />
    <glyph glyph-name="q" unicode="q" horiz-adv-x="670" 
d="M607 426v-482q0 -20 8 -32t17.5 -15.5t17.5 -12t8 -23.5q0 -39 -64 -39h-194q-64 0 -64 39q0 15 8 23.5t17.5 12t17.5 15.5t8 32v84q-58 -38 -136 -38q-103 0 -168.5 67.5t-65.5 170.5q0 115 79 191.5t194 76.5q82 0 158 -55q73 55 112 55q29 0 38 -19t9 -51zM387 178
v130q0 102 -64 102q-30 0 -53 -39.5t-23 -125.5q0 -88 23 -128.5t53 -40.5q64 0 64 102z" />
    <glyph glyph-name="r" unicode="r" horiz-adv-x="480" 
d="M302 270v-148q0 -20 8 -32t17.5 -15.5t17.5 -12t8 -23.5q0 -21 -14.5 -30t-49.5 -9h-194q-35 0 -49.5 9t-14.5 30q0 15 8 23.5t17.5 12t17.5 15.5t8 32v174q0 27 -7.5 44.5t-18 25t-20.5 13.5t-17.5 14t-7.5 21q0 17 14 28t49 23q24 8 71 19.5t65 11.5q52 0 59 -92h2
q20 40 54.5 66t75.5 26q37 0 61 -26t24 -63q0 -36 -23.5 -60.5t-59.5 -24.5q-11 0 -30.5 5t-29.5 5q-17 0 -29 -16.5t-12 -45.5z" />
    <glyph glyph-name="s" unicode="s" horiz-adv-x="550" 
d="M522 172q0 -80 -72.5 -131t-195.5 -51q-107 0 -170.5 36t-63.5 83q0 22 15 38t37 16q20 0 37 -13.5t28 -30t32.5 -30t50.5 -13.5q28 0 50 11.5t22 33.5q0 21 -26.5 32.5t-64.5 18.5t-76 18t-64.5 41t-26.5 79q0 83 73.5 134.5t187.5 51.5q89 0 169 -33q24 -10 32 -28
t8 -60q0 -52 -40 -52q-18 0 -31.5 14.5t-22 32t-29 32t-51.5 14.5q-66 0 -66 -44q0 -21 26.5 -33t64.5 -20t76 -20.5t64.5 -44t26.5 -82.5z" />
    <glyph glyph-name="t" unicode="t" horiz-adv-x="420" 
d="M288 591v-105h45q39 0 55.5 -11t16.5 -37t-16.5 -37t-55.5 -11h-39v-227q0 -43 11 -55t42 -12q40 0 53.5 -12.5t13.5 -33.5q0 -50 -87 -50h-152q-55 0 -78 22t-23 75v293h-9q-40 0 -56 9t-16 35q0 36 46 46q46 9 69.5 30t28 44l8.5 44.5t20 35.5t51 14q49 0 60.5 -9.5
t11.5 -47.5z" />
    <glyph glyph-name="u" unicode="u" horiz-adv-x="670" 
d="M273 421v-241q0 -88 53 -88t53 88v182q0 22 -22 34t-22 27q0 19 7 27t27 13l131 29q16 4 38 4q36 0 48.5 -17t12.5 -58v-297q0 -21 8 -33t17.5 -15.5t17.5 -13t8 -25.5q0 -20 -14.5 -28.5t-48.5 -8.5h-123q-36 0 -48.5 9.5t-19.5 44.5q-69 -64 -168 -64
q-92 0 -133.5 43.5t-41.5 157.5v171q-1 24 -22.5 38t-21.5 33q0 26 33 33l132 26q24 4 38 4q36 0 48.5 -17t12.5 -58z" />
    <glyph glyph-name="v" unicode="v" horiz-adv-x="580" 
d="M57 486h180q62 0 62 -41q0 -17 -20 -32.5t-20 -24.5q0 -34 34.5 -124t59.5 -132q70 145 70 241q0 23 -26 39.5t-26 34.5t12 28.5t32 10.5h118q18 0 29 -9.5t11 -25.5q0 -18 -37 -55q-4 -4 -26.5 -69.5l-48 -138.5t-33.5 -90q-36 -75 -58.5 -91.5t-80.5 -16.5
q-59 0 -83 17q-22 15 -45.5 54t-44.5 90t-37 93.5t-30 86l-15 46.5q-8 21 -27.5 37t-19.5 34q0 22 17 30t53 8z" />
    <glyph glyph-name="w" unicode="w" horiz-adv-x="840" 
d="M376 486h155q38 0 52 -9t14 -30q0 -15 -8 -23t-16 -13.5t-8 -12.5q0 -19 6 -49t16.5 -65t20 -63l19.5 -58t12 -35q25 53 46.5 126.5t21.5 119.5q0 21 -25 38.5t-25 36.5q0 21 11.5 29t38.5 8h96q28 0 38 -9.5t10 -29.5q0 -18 -19.5 -34.5t-29.5 -48.5l-25 -79l-32.5 -102
t-21.5 -64q-15 -37 -23.5 -54.5t-25.5 -38t-41.5 -28.5t-60.5 -8q-79 0 -115 53q-14 22 -43 96q-15 -34 -22.5 -49t-19.5 -36.5t-21.5 -30t-24.5 -18t-32 -12.5t-41 -3q-32 0 -46.5 3t-34.5 17.5t-36 50.5t-36.5 94.5t-50.5 158.5q-13 44 -26 70.5t-20 32t-11.5 11.5
t-4.5 18q0 40 70 40h170q35 0 48.5 -8.5t13.5 -30.5q0 -14 -5 -22t-11 -10t-11 -7.5t-5 -14.5q0 -35 25.5 -128.5t48.5 -136.5q34 79 34 162q0 49 -9 79t-19.5 38t-19.5 18t-9 23q0 38 68 38z" />
    <glyph glyph-name="x" unicode="x" horiz-adv-x="590" 
d="M167 228l-130 174q-2 3 -14 7.5t-21 14.5t-9 27q0 20 12.5 27.5t47.5 7.5h210q33 0 45.5 -9t12.5 -28q0 -10 -9.5 -22.5t-9.5 -17.5q0 -12 58 -80q46 46 46 70q0 7 -17.5 20.5t-17.5 30.5q0 20 14.5 28t46.5 8h76q31 0 42 -8.5t11 -24.5q0 -19 -25.5 -40t-32.5 -32
q-22 -34 -97 -109l136 -176q8 -11 30.5 -26t22.5 -30q0 -40 -43 -40h-221q-64 0 -64 39q0 15 11.5 26.5t11.5 13.5q0 4 -4 11t-12 17.5t-16 19.5t-19 23t-18 22q-46 -53 -46 -76q0 -9 11.5 -15.5t23 -16.5t11.5 -26q0 -21 -10.5 -29.5t-36.5 -8.5h-125q-52 0 -52 34
q0 19 8.5 28.5t23 16t20.5 13.5z" />
    <glyph glyph-name="y" unicode="y" horiz-adv-x="570" 
d="M419 486h109q53 0 53 -35q0 -12 -20.5 -32.5t-20.5 -34.5q0 -25 -9 -73t-26.5 -113.5t-48.5 -132t-69.5 -123t-94.5 -92.5t-120 -36q-40 0 -77 18t-37 54q0 29 22 47t52 18q26 0 54 -15.5t33 -15.5q20 0 51.5 31t40.5 54q-25 -5 -45 -5q-49 0 -84 14t-68 53t-56.5 116
t-38.5 195q-3 26 -17.5 45t-14.5 28q0 35 54 35h186q31 0 45 -9.5t14 -31.5q0 -15 -15.5 -31t-15.5 -41q0 -73 19 -142t40 -105t32 -36q15 0 32 40.5t29.5 110.5t12.5 143q0 23 -23.5 35t-23.5 33q0 19 10 26.5t36 7.5z" />
    <glyph glyph-name="z" unicode="z" horiz-adv-x="540" 
d="M265 418h-62q-27 0 -46 -8.5t-28.5 -20.5t-17 -24t-18 -20.5t-24.5 -8.5q-39 0 -39 43q0 60 15 83.5t56 23.5h343q44 0 59.5 -10t15.5 -34q0 -35 -49.5 -107t-115 -152t-79.5 -103h77q27 0 46 8.5t28.5 20.5t17 24t18 20.5t24.5 8.5q15 0 25 -9t10 -24q0 -44 -16 -94
q-7 -21 -19.5 -28t-43.5 -7h-344q-87 0 -87 54q0 41 62 120z" />
    <glyph glyph-name="braceleft" unicode="{" horiz-adv-x="360" 
d="M270 607v-205q0 -65 -16 -98t-65 -47v-2q49 -14 65 -47t16 -98v-205q0 -25 13 -38t28 -15t28 -11.5t13 -29.5q0 -24 -19.5 -35.5t-65.5 -11.5q-105 0 -149 33t-44 127v202q0 57 -15.5 86t-60.5 44q45 15 60.5 43.5t15.5 86.5v202q0 94 44 127t149 33q46 0 65.5 -11.5
t19.5 -35.5q0 -20 -13 -29.5t-28 -11.5t-28 -15t-13 -38z" />
    <glyph glyph-name="bar" unicode="|" horiz-adv-x="340" 
d="M92 0v760h156v-760h-156z" />
    <glyph glyph-name="braceright" unicode="}" horiz-adv-x="360" 
d="M90 -95v205q0 65 16 98t65 47v2q-49 14 -65 47t-16 98v205q0 25 -13 38t-28 15t-28 11.5t-13 29.5q0 24 19.5 35.5t65.5 11.5q105 0 149 -33t44 -127v-202q0 -57 15.5 -86t60.5 -44q-45 -15 -60.5 -43.5t-15.5 -86.5v-202q0 -94 -44 -127t-149 -33q-46 0 -65.5 11.5
t-19.5 35.5q0 20 13 29.5t28 11.5t28 15t13 38z" />
    <glyph glyph-name="asciitilde" unicode="~" horiz-adv-x="600" 
d="M495 349l44 -130q-2 -2 -14 -15.5t-14.5 -16l-13.5 -13.5t-16 -14t-15.5 -10.5t-18.5 -9.5t-19 -4.5t-22 -2.5q-38 0 -104 34q-50 26 -113 26q-51 0 -84 -56l-44 130q19 26 33.5 42t41.5 30t58 14q41 0 115 -34q58 -26 98 -26q19 0 36.5 9.5t27 19t24.5 27.5z" />
    <glyph glyph-name="uni00A0" unicode="&#xa0;" horiz-adv-x="360" 
 />
    <glyph glyph-name="exclamdown" unicode="&#xa1;" horiz-adv-x="390" 
d="M195 578q56 0 89 -28t33 -63t-33 -63t-89 -28t-89 28t-33 63t33 63t89 28zM56 -97q0 25 10 76.5t30 146.5t35 177q5 32 19 45.5t45 13.5t45 -13.5t19 -45.5q15 -82 35 -177t30 -146.5t10 -76.5q0 -47 -31 -68t-108 -21t-108 21t-31 68z" />
    <glyph glyph-name="cent" unicode="&#xa2;" horiz-adv-x="720" 
d="M435 145v-69q0 -36 -10.5 -46.5t-35.5 -10.5t-35.5 10.5t-10.5 46.5v69q-96 4 -157 66t-61 163q0 97 63 163.5t155 77.5v81q0 36 10.5 46.5t35.5 10.5t35.5 -10.5t10.5 -46.5v-81q45 0 100 -28.5t55 -75.5q0 -26 -21 -42.5t-48 -16.5q-28 0 -48 13.5t-29 29t-21.5 29
t-27.5 13.5q-29 0 -48.5 -38.5t-19.5 -102.5q0 -73 29.5 -116t72.5 -43q28 0 52.5 18t44 36t38.5 18q18 0 30.5 -12.5t12.5 -30.5q0 -44 -63.5 -82.5t-108.5 -38.5z" />
    <glyph glyph-name="sterling" unicode="&#xa3;" horiz-adv-x="720" 
d="M45 440h71v46q0 114 77 188t223 74q119 0 193 -43t74 -111q0 -31 -22 -49.5t-66 -18.5q-37 0 -55.5 14t-23.5 34l-10 40t-22 34t-52 14q-44 0 -70 -28.5t-26 -73.5q0 -23 9.5 -67.5t10.5 -52.5h146q51 0 51 -48t-51 -48h-129q1 -7 2.5 -19t2.5 -22.5t1 -21.5
q0 -75 -46 -136l2 -2q59 47 103 47q29 0 78.5 -14t70.5 -14q27 0 48 16.5t37 33t31 16.5q16 0 25.5 -9.5t9.5 -23.5q0 -23 -31 -72.5t-84.5 -94t-102.5 -44.5q-52 0 -152 27t-144 27q-40 0 -71.5 -13.5t-52 -27t-31.5 -13.5q-19 0 -32.5 20.5t-13.5 40.5q0 17 20.5 28.5
t44.5 20t44.5 38.5t20.5 81q0 35 -20 131h-88q-51 0 -51 48t51 48z" />
    <glyph glyph-name="currency" unicode="&#xa4;" horiz-adv-x="720" 
d="M666 602l-68 -66q56 -67 56 -170t-56 -170l68 -66l-70 -69l-68 69q-58 -60 -168 -60q-111 0 -169 60l-68 -69l-69 69l67 66q-57 66 -57 170t57 170l-67 66l69 69l68 -69q60 60 169 60q108 0 168 -60l68 69zM361 194q69 0 116 51t47 121t-47 121t-116 51q-71 0 -119 -50
t-48 -122q0 -73 48 -122.5t119 -49.5z" />
    <glyph glyph-name="yen" unicode="&#xa5;" horiz-adv-x="720" 
d="M248 215h-154q-56 0 -56 48t56 48h122l-35 71h-94q-56 0 -56 48t56 48h52l-55 133q-3 9 -38.5 33.5t-35.5 48.5q0 39 69 39h234q36 0 50 -11t14 -34q0 -17 -21.5 -29.5t-21.5 -30.5q0 -68 98 -277q51 104 80.5 181t29.5 99q0 7 -11 14t-22 18t-11 27q0 24 11.5 33.5
t42.5 9.5h106q52 0 52 -42q0 -18 -12 -29.5l-30.5 -28t-29.5 -41.5l-52 -113h50q56 0 56 -48t-56 -48h-95l-33 -71h120q56 0 56 -48t-56 -48h-150v-93q0 -28 26 -42t26 -39t-15 -33t-67 -8h-169q-52 0 -67 8t-15 33q0 17 8 26.5t17.5 12.5t17.5 13.5t8 28.5v93z" />
    <glyph glyph-name="brokenbar" unicode="&#xa6;" horiz-adv-x="340" 
d="M92 0v296h156v-296h-156zM92 464v296h156v-296h-156z" />
    <glyph glyph-name="section" unicode="&#xa7;" horiz-adv-x="640" 
d="M586 0q0 -71 -45.5 -125t-110.5 -79.5t-134 -25.5q-58 0 -135.5 20.5t-90.5 55.5q-10 29 -19.5 74t-9.5 66q0 20 11.5 33.5t31.5 13.5q22 0 40 -18.5t32 -44.5t30.5 -52.5t43.5 -45t63 -18.5q40 0 75.5 28t35.5 66q0 36 -28 61t-69.5 38t-90.5 30.5t-90.5 36.5t-69.5 57
t-28 92q0 93 98 159q-22 25 -32 38.5t-19 36.5t-9 49q0 91 71 146.5t196 55.5q96 0 176 -34q22 -9 38.5 -55.5t16.5 -75.5q0 -20 -12 -33t-31 -13q-20 0 -41 20t-37.5 43.5t-48 43.5t-70.5 20q-33 0 -57.5 -18t-24.5 -49q0 -26 20 -44.5t51.5 -30t70 -22t77 -25t70 -34.5
t51.5 -54.5t20 -81.5q0 -90 -82 -162q35 -34 50.5 -65.5t15.5 -77.5zM180 329q0 -30 31 -46.5t105.5 -39.5t128.5 -50q21 28 21 51q0 15 -9.5 27t-35.5 24.5t-50.5 21.5l-76 27t-89.5 33q-25 -19 -25 -48z" />
    <glyph glyph-name="dieresis" unicode="&#xa8;" 
d="M47 554q-38 0 -61 23t-23 53t23 53t61 23t61 -23t23 -53t-23 -53t-61 -23zM283 554q-38 0 -61 23t-23 53t23 53t61 23t61 -23t23 -53t-23 -53t-61 -23z" />
    <glyph glyph-name="copyright" unicode="&#xa9;" horiz-adv-x="860" 
d="M430 748q168 0 275 -109.5t107 -272.5t-107 -272.5t-275 -109.5q-169 0 -275.5 109t-106.5 273t106.5 273t275.5 109zM712 366q0 131 -79.5 219t-202.5 87q-123 1 -202.5 -87t-79.5 -219t79.5 -218.5t202.5 -87.5t202.5 87.5t79.5 218.5zM583 286h29l-16 -83
q-2 -15 -32 -27q-76 -21 -114 -21q-113 0 -175.5 58.5t-62.5 165.5q0 43 12.5 80t40 69t77.5 50t118 18q46 0 110 -20q24 -8 24 -27v-77h-38q-18 86 -94 86q-48 0 -76.5 -49.5t-29.5 -140.5q-1 -38 8.5 -76t34.5 -68.5t61 -30.5q75 0 123 93z" />
    <glyph glyph-name="ordfeminine" unicode="&#xaa;" horiz-adv-x="460" 
d="M400 632v-105q0 -20 17 -31.5t17 -23.5q0 -22 -33 -22h-97q-22 0 -30 5.5t-12 25.5q-27 -37 -97 -37q-58 0 -89.5 28.5t-31.5 66.5q0 103 210 103q-1 34 -9 46t-29 12q-16 0 -39 -22.5t-51 -22.5q-54 0 -54 35q0 58 159 58q50 0 85 -8.5t59.5 -35.5t24.5 -72zM188 538
q0 -16 8 -25t21 -9q39 0 39 94q-30 0 -49 -16t-19 -44z" />
    <glyph glyph-name="guillemotleft" unicode="&#xab;" horiz-adv-x="400" 
d="M17 246q0 25 75 105t92 80q10 0 17.5 -5.5t7.5 -15.5q0 -13 -37 -78.5t-37 -80.5q0 -11 39 -84.5t39 -89.5q0 -10 -8 -16t-18 -6q-17 0 -93.5 84.5t-76.5 106.5zM187 246q0 25 75 105t92 80q10 0 17.5 -5.5t7.5 -15.5q0 -13 -37 -78.5t-37 -80.5q0 -11 39 -84.5t39 -89.5
q0 -10 -8 -16t-18 -6q-17 0 -93.5 84.5t-76.5 106.5z" />
    <glyph glyph-name="logicalnot" unicode="&#xac;" horiz-adv-x="600" 
d="M387 56v218h-330v156h486v-374h-156z" />
    <glyph glyph-name="uni00AD" unicode="&#xad;" horiz-adv-x="360" 
d="M276 161h-192q-32 0 -45 19.5t-13 62.5t13 62.5t45 19.5h192q32 0 45 -19.5t13 -62.5t-13 -62.5t-45 -19.5z" />
    <glyph glyph-name="registered" unicode="&#xae;" horiz-adv-x="860" 
d="M250 557v26h220q53 0 85.5 -28t32.5 -83q0 -36 -22 -66.5t-60 -42.5l61 -90q28 -41 65 -87v-15h-106q-14 0 -30.5 27t-40 77t-37.5 74h-18v-115q0 -25 7 -32.5t35 -8.5v-22h-192v22q28 1 35 8.5t7 32.5v281q0 24 -7.5 32.5t-34.5 9.5zM400 545v-162h24q56 0 56 84
q0 43 -12.5 60.5t-39.5 17.5h-28zM430 748q168 0 275 -109.5t107 -272.5t-107 -272.5t-275 -109.5q-169 0 -275.5 109t-106.5 273t106.5 273t275.5 109zM712 366q0 131 -79.5 219t-202.5 87q-123 1 -202.5 -87t-79.5 -219t79.5 -218.5t202.5 -87.5t202.5 87.5t79.5 218.5z
" />
    <glyph glyph-name="macron" unicode="&#xaf;" 
d="M69 685h192q44 0 62.5 -11.5t18.5 -43.5t-18.5 -43.5t-62.5 -11.5h-192q-44 0 -62.5 11.5t-18.5 43.5t18.5 43.5t62.5 11.5z" />
    <glyph glyph-name="degree" unicode="&#xb0;" horiz-adv-x="400" 
d="M200 682q-36 0 -60.5 -26t-24.5 -63t24.5 -63t60.5 -26t60.5 26t24.5 63t-24.5 63t-60.5 26zM200 748q64 0 110.5 -46t46.5 -109t-46.5 -109t-110.5 -46t-110.5 46t-46.5 109t46.5 109t110.5 46z" />
    <glyph glyph-name="plusminus" unicode="&#xb1;" horiz-adv-x="600" 
d="M222 407v79h156v-79h165v-156h-165v-79h-156v79h-165v156h165zM57 0v144h486v-144h-486z" />
    <glyph glyph-name="twosuperior" unicode="&#xb2;" horiz-adv-x="420" 
d="M200 393h72q38 0 60.5 8.5t33 16.5t20.5 8q22 0 22 -21q0 -5 -4 -18l-9.5 -30.5t-7.5 -27.5q-4 -18 -13 -24t-36 -6h-279q-47 0 -47 31q0 25 23 55t56 59l65.5 59.5t55.5 67t23 71.5q0 52 -46 52q-20 0 -35.5 -14t-15.5 -34q0 -9 6.5 -22.5t6.5 -20.5q0 -16 -17.5 -26
t-43.5 -10q-31 0 -50.5 16t-19.5 45q0 54 56 87t140 33q86 0 134.5 -34t48.5 -85q0 -36 -23 -72.5t-48.5 -59t-68.5 -56t-59 -48.5z" />
    <glyph glyph-name="threesuperior" unicode="&#xb3;" horiz-adv-x="420" 
d="M38 645q0 46 46 74.5t123 28.5q80 0 129 -31.5t49 -82.5q0 -38 -27 -62.5t-70 -33.5v-2q51 -7 84 -37.5t33 -76.5q0 -60 -56.5 -96.5t-144.5 -36.5t-139 26.5t-51 68.5q0 49 65 49q30 0 42 -8.5t15 -34.5q4 -32 13 -43.5t33 -11.5q28 0 44.5 21.5t16.5 63.5q0 44 -20 64
t-78 20q-25 0 -35.5 5t-10.5 19q0 16 8 22t32 6q46 0 67 20.5t21 65.5q0 54 -37 54q-34 0 -34 -28q0 -5 3.5 -17t3.5 -18q0 -33 -59 -33q-66 0 -66 45z" />
    <glyph glyph-name="acute" unicode="&#xb4;" 
d="M185 732h45q18 0 28.5 -1.5t20.5 -10t10 -25.5q0 -22 -36 -45q-5 -3 -52 -33.5l-82 -51.5t-43 -21q-10 0 -17.5 6t-7.5 15q0 5 4 15t12 24t15.5 25.5l18.5 29.5t17 27q18 30 32 38t35 8z" />
    <glyph glyph-name="mu" unicode="&#xb5;" horiz-adv-x="670" 
d="M273 421v-241q0 -88 53 -88t53 88v182q0 22 -22 34t-22 27q0 19 7 27t27 13l131 29q16 4 38 4q36 0 48.5 -17t12.5 -58v-297q0 -21 8 -33t17.5 -15.5t17.5 -13t8 -25.5q0 -20 -14.5 -28.5t-48.5 -8.5h-123q-36 0 -48.5 9.5t-19.5 44.5q-55 -50 -123 -60v-126
q0 -33 -22.5 -43.5t-87.5 -10.5t-87.5 10.5t-22.5 43.5v494q-1 24 -22.5 38t-21.5 33q0 26 33 33l132 26q24 4 38 4q36 0 48.5 -17t12.5 -58z" />
    <glyph glyph-name="paragraph" unicode="&#xb6;" horiz-adv-x="810" 
d="M354 732h297q41 0 53 -12.5t12 -52.5v-785q0 -33 -13.5 -46.5t-50.5 -13.5t-50.5 13.5t-13.5 46.5v726q0 21 -7 27.5t-26 6.5t-26 -6.5t-7 -27.5v-726q0 -33 -13.5 -46.5t-50.5 -13.5t-50.5 13.5t-13.5 46.5v384q-52 -38 -106 -38q-96 0 -158 70t-62 167q0 121 82 194
t204 73z" />
    <glyph glyph-name="periodcentered" unicode="&#xb7;" horiz-adv-x="360" 
d="M80 243q0 41 29.5 70.5t70.5 29.5t70.5 -29.5t29.5 -70.5t-29.5 -70.5t-70.5 -29.5t-70.5 29.5t-29.5 70.5z" />
    <glyph glyph-name="cedilla" unicode="&#xb8;" 
d="M179 0l-19 -55h20q49 0 75.5 -24t26.5 -68q0 -92 -126 -92q-45 0 -70 17.5t-25 36.5q0 10 6 17t16 7q9 0 29.5 -10t32.5 -10q17 0 29 10t12 27q0 31 -33 31q-17 0 -34 -3t-19 -3q-12 0 -12 12q0 8 6 26l28 81h57z" />
    <glyph glyph-name="onesuperior" unicode="&#xb9;" horiz-adv-x="420" 
d="M334 299h-234q-22 0 -30 6t-8 20q0 26 39 26t39 25v228q0 31 -8 39.5t-37 8.5q-26 0 -33.5 5t-7.5 19q0 15 23 23l99 28q3 1 19 7t30.5 10t26.5 4q23 0 33.5 -10.5t10.5 -40.5v-321q0 -25 36 -25q39 0 39 -26q0 -14 -8 -20t-29 -6z" />
    <glyph glyph-name="ordmasculine" unicode="&#xba;" horiz-adv-x="460" 
d="M230 748q77 0 138.5 -41.5t62.5 -110.5q-1 -70 -62 -111t-139 -41t-139 41t-62 111q1 69 62 110.5t139 41.5zM179 596q0 -100 51 -100t51 100t-51 100t-51 -100z" />
    <glyph glyph-name="guillemotright" unicode="&#xbb;" horiz-adv-x="400" 
d="M383 246q0 -22 -76.5 -106.5t-93.5 -84.5q-10 0 -18 6t-8 16q0 16 39 89.5t39 84.5q0 15 -37 80.5t-37 78.5q0 10 7.5 15.5t17.5 5.5q17 0 92 -80t75 -105zM213 246q0 -22 -76.5 -106.5t-93.5 -84.5q-10 0 -18 6t-8 16q0 16 39 89.5t39 84.5q0 15 -37 80.5t-37 78.5
q0 10 7.5 15.5t17.5 5.5q17 0 92 -80t75 -105z" />
    <glyph glyph-name="onequarter" unicode="&#xbc;" horiz-adv-x="1080" 
d="M999 108v-48q0 -10 5 -14t10.5 -4t10.5 -4.5t5 -14.5q0 -23 -38 -23h-155q-38 0 -38 22q0 16 19.5 21.5t19.5 16.5v48h-125q-32 0 -42 6t-10 21q0 27 38.5 101t96.5 142t101 68h57q45 0 45 -60v-226h36q32 0 32 -26t-32 -26h-36zM843 160v180h-2q-71 -85 -108 -180h110z
M809 682l-371 -654q-25 -44 -71 -44q-42 0 -42 26q0 5 1.5 10t3.5 8.5l6.5 11l7.5 12.5l369 652q25 44 71 44q42 0 42 -26q0 -9 -17 -40zM334 299h-234q-22 0 -30 6t-8 20q0 26 39 26t39 25v228q0 31 -8 39.5t-37 8.5q-26 0 -33.5 5t-7.5 19q0 15 23 23l99 28q3 1 19 7
t30.5 10t26.5 4q23 0 33.5 -10.5t10.5 -40.5v-321q0 -25 36 -25q39 0 39 -26q0 -14 -8 -20t-29 -6z" />
    <glyph glyph-name="onehalf" unicode="&#xbd;" horiz-adv-x="1080" 
d="M860 94h72q38 0 60.5 8t33 16.5t20.5 8.5q22 0 22 -21q0 -5 -4 -18l-9.5 -30.5t-7.5 -27.5q-4 -18 -13 -24t-36 -6h-279q-47 0 -47 31q0 25 23 55t56 59l65.5 59.5t55.5 67t23 71.5q0 52 -46 52q-20 0 -35.5 -14t-15.5 -34q0 -9 6.5 -22.5t6.5 -20.5q0 -16 -17.5 -26
t-43.5 -10q-31 0 -50.5 16t-19.5 45q0 54 56 87t140 33q86 0 134.5 -34t48.5 -85q0 -36 -23 -72.5t-48.5 -59t-68.5 -56t-59 -48.5zM783 682l-371 -654q-25 -44 -71 -44q-42 0 -42 26q0 5 1.5 10t3.5 8.5l6.5 11l7.5 12.5l369 652q25 44 71 44q42 0 42 -26q0 -9 -17 -40z
M334 299h-234q-22 0 -30 6t-8 20q0 26 39 26t39 25v228q0 31 -8 39.5t-37 8.5q-26 0 -33.5 5t-7.5 19q0 15 23 23l99 28q3 1 19 7t30.5 10t26.5 4q23 0 33.5 -10.5t10.5 -40.5v-321q0 -25 36 -25q39 0 39 -26q0 -14 -8 -20t-29 -6z" />
    <glyph glyph-name="threequarters" unicode="&#xbe;" horiz-adv-x="1080" 
d="M999 108v-48q0 -10 5 -14t10.5 -4t10.5 -4.5t5 -14.5q0 -23 -38 -23h-155q-38 0 -38 22q0 16 19.5 21.5t19.5 16.5v48h-125q-32 0 -42 6t-10 21q0 27 38.5 101t96.5 142t101 68h57q45 0 45 -60v-226h36q32 0 32 -26t-32 -26h-36zM843 160v180h-2q-71 -85 -108 -180h110z
M796 682l-371 -654q-25 -44 -71 -44q-42 0 -42 26q0 5 1.5 10t3.5 8.5l6.5 11l7.5 12.5l369 652q25 44 71 44q42 0 42 -26q0 -9 -17 -40zM38 645q0 46 46 74.5t123 28.5q80 0 129 -31.5t49 -82.5q0 -38 -27 -62.5t-70 -33.5v-2q51 -7 84 -37.5t33 -76.5q0 -60 -56.5 -96.5
t-144.5 -36.5t-139 26.5t-51 68.5q0 49 65 49q30 0 42 -8.5t15 -34.5q4 -32 13 -43.5t33 -11.5q28 0 44.5 21.5t16.5 63.5q0 44 -20 64t-78 20q-25 0 -35.5 5t-10.5 19q0 16 8 22t32 6q46 0 67 20.5t21 65.5q0 54 -37 54q-34 0 -34 -28q0 -5 3.5 -17t3.5 -18q0 -33 -59 -33
q-66 0 -66 45z" />
    <glyph glyph-name="questiondown" unicode="&#xbf;" horiz-adv-x="580" 
d="M267 280v34q0 52 56 52q40 0 55 -12t15 -48v-110q0 -19 -13 -30.5t-31.5 -21t-37.5 -24t-32 -49t-13 -87.5q0 -43 16.5 -66.5t43.5 -23.5q48 0 48 52q0 48 21 71.5t72 23.5q45 0 68 -20.5t23 -55.5q0 -59 -69.5 -105t-181.5 -46q-130 0 -207.5 59.5t-77.5 153.5
q0 64 33.5 103.5t88.5 67.5q14 7 36 16.5t34.5 16t26 14.5t20 16.5t6.5 18.5zM322 578q56 0 89 -28t33 -63t-33 -63t-89 -28t-89 28t-33 63t33 63t89 28z" />
    <glyph glyph-name="Agrave" unicode="&#xc0;" horiz-adv-x="750" 
d="M435 226h-250q-34 -100 -34 -118q0 -20 25.5 -33t25.5 -34q0 -41 -59 -41h-112q-48 0 -48 40q0 20 26 38t28 26q18 59 95 267.5t107 270.5q26 54 50 72t80 18q47 0 66.5 -5t31.5 -18t31 -51q13 -26 114 -277t108 -277q5 -17 26 -30t21 -36q0 -38 -60 -38h-206
q-69 0 -69 38q0 17 19.5 30.5t19.5 20.5t-3 18l-13 46zM217 326h181l-87 230zM310 958h45q14 0 22.5 -2t20.5 -12.5t24 -31.5q6 -9 17 -27l18.5 -29.5t15.5 -25.5t12 -24t4 -15q0 -9 -7.5 -15t-17.5 -6q-8 0 -43 21l-82 51.5t-52 33.5q-36 23 -36 45q0 17 10 25.5t20.5 10
t28.5 1.5z" />
    <glyph glyph-name="Aacute" unicode="&#xc1;" horiz-adv-x="750" 
d="M435 226h-250q-34 -100 -34 -118q0 -20 25.5 -33t25.5 -34q0 -41 -59 -41h-112q-48 0 -48 40q0 20 26 38t28 26q18 59 95 267.5t107 270.5q26 54 50 72t80 18q47 0 66.5 -5t31.5 -18t31 -51q13 -26 114 -277t108 -277q5 -17 26 -30t21 -36q0 -38 -60 -38h-206
q-69 0 -69 38q0 17 19.5 30.5t19.5 20.5t-3 18l-13 46zM217 326h181l-87 230zM401 958h45q18 0 28.5 -1.5t20.5 -10t10 -25.5q0 -22 -36 -45q-5 -3 -52 -33.5l-82 -51.5t-43 -21q-10 0 -17.5 6t-7.5 15q0 5 4 15t12 24t15.5 25.5l18.5 29.5t17 27q18 30 32 38t35 8z" />
    <glyph glyph-name="Acircumflex" unicode="&#xc2;" horiz-adv-x="750" 
d="M435 226h-250q-34 -100 -34 -118q0 -20 25.5 -33t25.5 -34q0 -41 -59 -41h-112q-48 0 -48 40q0 20 26 38t28 26q18 59 95 267.5t107 270.5q26 54 50 72t80 18q47 0 66.5 -5t31.5 -18t31 -51q13 -26 114 -277t108 -277q5 -17 26 -30t21 -36q0 -38 -60 -38h-206
q-69 0 -69 38q0 17 19.5 30.5t19.5 20.5t-3 18l-13 46zM217 326h181l-87 230zM376 862l-126 -75q-25 -17 -36 -17q-7 0 -12.5 5.5t-5.5 13.5q0 10 20 34l94 99q1 1 7.5 8t8.5 9l7.5 7.5t8 7t8 5.5t9 5t8 2.5t9.5 1.5q4 0 8 -1t8 -3l7 -3.5t7.5 -5l7.5 -6t7.5 -7l6.5 -6.5
t6.5 -7t6.5 -7l94 -99q20 -22 20 -36q0 -7 -6 -12t-12 -5q-8 0 -36 17z" />
    <glyph glyph-name="Atilde" unicode="&#xc3;" horiz-adv-x="750" 
d="M435 226h-250q-34 -100 -34 -118q0 -20 25.5 -33t25.5 -34q0 -41 -59 -41h-112q-48 0 -48 40q0 20 26 38t28 26q18 59 95 267.5t107 270.5q26 54 50 72t80 18q47 0 66.5 -5t31.5 -18t31 -51q13 -26 114 -277t108 -277q5 -17 26 -30t21 -36q0 -38 -60 -38h-206
q-69 0 -69 38q0 17 19.5 30.5t19.5 20.5t-3 18l-13 46zM217 326h181l-87 230zM300 932q39 0 75.5 -17t64 -33.5t44.5 -16.5q15 0 36 21t30 21q19 0 19 -17q0 -33 -41.5 -71.5t-89.5 -38.5q-35 0 -71.5 17t-65 34t-44.5 17q-14 0 -25 -9.5t-16.5 -21t-13.5 -21t-16 -9.5
q-21 0 -21 19q0 42 44 84t91 42z" />
    <glyph glyph-name="Adieresis" unicode="&#xc4;" horiz-adv-x="750" 
d="M435 226h-250q-34 -100 -34 -118q0 -20 25.5 -33t25.5 -34q0 -41 -59 -41h-112q-48 0 -48 40q0 20 26 38t28 26q18 59 95 267.5t107 270.5q26 54 50 72t80 18q47 0 66.5 -5t31.5 -18t31 -51q13 -26 114 -277t108 -277q5 -17 26 -30t21 -36q0 -38 -60 -38h-206
q-69 0 -69 38q0 17 19.5 30.5t19.5 20.5t-3 18l-13 46zM217 326h181l-87 230zM257 780q-38 0 -61 23t-23 53t23 53t61 23t61 -23t23 -53t-23 -53t-61 -23zM493 780q-38 0 -61 23t-23 53t23 53t61 23t61 -23t23 -53t-23 -53t-61 -23z" />
    <glyph glyph-name="Aring" unicode="&#xc5;" horiz-adv-x="750" 
d="M435 226h-250q-34 -100 -34 -118q0 -20 25.5 -33t25.5 -34q0 -41 -59 -41h-112q-48 0 -48 40q0 20 26 38t28 26q18 59 95 267.5t107 270.5q26 54 50 72t80 18q47 0 66.5 -5t31.5 -18t31 -51q13 -26 114 -277t108 -277q5 -17 26 -30t21 -36q0 -38 -60 -38h-206
q-69 0 -69 38q0 17 19.5 30.5t19.5 20.5t-3 18l-13 46zM217 326h181l-87 230zM369 1001q49 0 84.5 -35t35.5 -85t-35.5 -85t-84.5 -35t-84.5 35t-35.5 85t35.5 85t84.5 35zM369 927q-19 0 -32.5 -13t-13.5 -33t13.5 -33t32.5 -13t32.5 13t13.5 33t-13.5 33t-32.5 13z" />
    <glyph glyph-name="AE" unicode="&#xc6;" horiz-adv-x="1050" 
d="M472 122v157h-234q-65 -138 -65 -165q0 -12 9.5 -20t21.5 -12t21.5 -15t9.5 -29q0 -38 -61 -38h-146q-51 0 -51 43q0 18 12.5 26.5t29.5 17t23 22.5q154 339 298 554q28 43 52.5 56t63.5 13h470q43 0 62 -13t19 -47v-46q0 -29 -14.5 -44.5t-33.5 -15.5q-26 0 -41 12
t-22 26t-30 26t-63 12q-59 0 -75 -12.5t-16 -63.5v-138h78q27 0 44 6.5t23 14t15.5 14t23.5 6.5q22 0 32 -19t10 -71q0 -53 -10 -72.5t-32 -19.5q-14 0 -23.5 6.5t-15.5 14t-23 14t-44 6.5h-78v-133q0 -70 20 -87.5t91 -17.5q33 0 55 7t32 17t18 22.5t12.5 22.5t15 17
t27.5 7q24 0 37.5 -14.5t13.5 -38.5q0 -17 -7 -56.5t-15 -53.5q-12 -20 -74 -20h-455q-36 0 -50 10t-14 30q0 17 8.5 27t18 13t18 13.5t8.5 28.5zM286 379h186v241q0 22 -9 22q-8 0 -27.5 -23t-58.5 -84.5t-91 -155.5z" />
    <glyph glyph-name="Ccedilla" unicode="&#xc7;" horiz-adv-x="780" 
d="M462 -16l-13 -39h20q49 0 75.5 -24t26.5 -68q0 -92 -126 -92q-45 0 -70 17.5t-25 36.5q0 10 6 17t16 7q9 0 29.5 -10t32.5 -10q17 0 29 10t12 27q0 31 -33 31q-17 0 -34 -3t-19 -3q-12 0 -12 12q0 8 6 26l24 68q-172 17 -275.5 118.5t-103.5 258.5q0 109 62 198.5
t159 137.5t205 48q143 0 246 -71q27 -19 34 -42t7 -98q0 -23 -14.5 -35.5t-38.5 -12.5q-18 0 -31.5 12.5t-22 31.5t-21.5 40.5t-28.5 40.5t-45.5 31.5t-69 12.5q-92 0 -142 -77.5t-50 -203.5q0 -149 58 -217t152 -68q44 0 82.5 19t60 41t44.5 41t41 19t30.5 -13.5
t12.5 -31.5q0 -66 -100 -125t-190 -58h-7z" />
    <glyph glyph-name="Egrave" unicode="&#xc8;" horiz-adv-x="690" 
d="M68 122v488q0 18 -8.5 28.5t-18 13.5t-18 13t-8.5 27q0 20 14 30t50 10h488q43 0 62 -13t19 -47v-46q0 -29 -14.5 -44.5t-33.5 -15.5q-21 0 -32 8t-18.5 19t-19.5 22t-45 19t-86 8q-59 0 -75 -12.5t-16 -63.5v-120h123q27 0 44 6.5t23 14t15.5 14t23.5 6.5q22 0 32 -19
t10 -71q0 -53 -10 -72.5t-32 -19.5q-14 0 -23.5 6.5t-15.5 14t-23 14t-44 6.5h-123v-151q0 -70 20 -87.5t91 -17.5q51 0 84.5 9.5t47 23t22.5 27.5t20.5 23.5t30.5 9.5q24 0 37.5 -14.5t13.5 -38.5q0 -17 -7 -56.5t-15 -53.5q-12 -20 -74 -20h-500q-36 0 -50 10t-14 30
q0 17 8.5 27t18 13t18 13.5t8.5 28.5zM280 958h45q14 0 22.5 -2t20.5 -12.5t24 -31.5q6 -9 17 -27l18.5 -29.5t15.5 -25.5t12 -24t4 -15q0 -9 -7.5 -15t-17.5 -6q-8 0 -43 21l-82 51.5t-52 33.5q-36 23 -36 45q0 17 10 25.5t20.5 10t28.5 1.5z" />
    <glyph glyph-name="Eacute" unicode="&#xc9;" horiz-adv-x="690" 
d="M68 122v488q0 18 -8.5 28.5t-18 13.5t-18 13t-8.5 27q0 20 14 30t50 10h488q43 0 62 -13t19 -47v-46q0 -29 -14.5 -44.5t-33.5 -15.5q-21 0 -32 8t-18.5 19t-19.5 22t-45 19t-86 8q-59 0 -75 -12.5t-16 -63.5v-120h123q27 0 44 6.5t23 14t15.5 14t23.5 6.5q22 0 32 -19
t10 -71q0 -53 -10 -72.5t-32 -19.5q-14 0 -23.5 6.5t-15.5 14t-23 14t-44 6.5h-123v-151q0 -70 20 -87.5t91 -17.5q51 0 84.5 9.5t47 23t22.5 27.5t20.5 23.5t30.5 9.5q24 0 37.5 -14.5t13.5 -38.5q0 -17 -7 -56.5t-15 -53.5q-12 -20 -74 -20h-500q-36 0 -50 10t-14 30
q0 17 8.5 27t18 13t18 13.5t8.5 28.5zM379 958h45q18 0 28.5 -1.5t20.5 -10t10 -25.5q0 -22 -36 -45q-5 -3 -52 -33.5l-82 -51.5t-43 -21q-10 0 -17.5 6t-7.5 15q0 5 4 15t12 24t15.5 25.5l18.5 29.5t17 27q18 30 32 38t35 8z" />
    <glyph glyph-name="Ecircumflex" unicode="&#xca;" horiz-adv-x="690" 
d="M68 122v488q0 18 -8.5 28.5t-18 13.5t-18 13t-8.5 27q0 20 14 30t50 10h488q43 0 62 -13t19 -47v-46q0 -29 -14.5 -44.5t-33.5 -15.5q-21 0 -32 8t-18.5 19t-19.5 22t-45 19t-86 8q-59 0 -75 -12.5t-16 -63.5v-120h123q27 0 44 6.5t23 14t15.5 14t23.5 6.5q22 0 32 -19
t10 -71q0 -53 -10 -72.5t-32 -19.5q-14 0 -23.5 6.5t-15.5 14t-23 14t-44 6.5h-123v-151q0 -70 20 -87.5t91 -17.5q51 0 84.5 9.5t47 23t22.5 27.5t20.5 23.5t30.5 9.5q24 0 37.5 -14.5t13.5 -38.5q0 -17 -7 -56.5t-15 -53.5q-12 -20 -74 -20h-500q-36 0 -50 10t-14 30
q0 17 8.5 27t18 13t18 13.5t8.5 28.5zM353 862l-126 -75q-25 -17 -36 -17q-7 0 -12.5 5.5t-5.5 13.5q0 10 20 34l94 99q1 1 7.5 8t8.5 9l7.5 7.5t8 7t8 5.5t9 5t8 2.5t9.5 1.5q4 0 8 -1t8 -3l7 -3.5t7.5 -5l7.5 -6t7.5 -7l6.5 -6.5l7 -7t6 -7l94 -99q20 -22 20 -36
q0 -7 -6 -12t-12 -5q-8 0 -36 17z" />
    <glyph glyph-name="Edieresis" unicode="&#xcb;" horiz-adv-x="690" 
d="M68 122v488q0 18 -8.5 28.5t-18 13.5t-18 13t-8.5 27q0 20 14 30t50 10h488q43 0 62 -13t19 -47v-46q0 -29 -14.5 -44.5t-33.5 -15.5q-21 0 -32 8t-18.5 19t-19.5 22t-45 19t-86 8q-59 0 -75 -12.5t-16 -63.5v-120h123q27 0 44 6.5t23 14t15.5 14t23.5 6.5q22 0 32 -19
t10 -71q0 -53 -10 -72.5t-32 -19.5q-14 0 -23.5 6.5t-15.5 14t-23 14t-44 6.5h-123v-151q0 -70 20 -87.5t91 -17.5q51 0 84.5 9.5t47 23t22.5 27.5t20.5 23.5t30.5 9.5q24 0 37.5 -14.5t13.5 -38.5q0 -17 -7 -56.5t-15 -53.5q-12 -20 -74 -20h-500q-36 0 -50 10t-14 30
q0 17 8.5 27t18 13t18 13.5t8.5 28.5zM234 780q-38 0 -61 23t-23 53t23 53t61 23t61 -23t23 -53t-23 -53t-61 -23zM470 780q-38 0 -61 23t-23 53t23 53t61 23t61 -23t23 -53t-23 -53t-61 -23z" />
    <glyph glyph-name="Igrave" unicode="&#xcc;" horiz-adv-x="380" 
d="M310 610v-488q0 -18 8.5 -28.5t18 -13.5t18 -13t8.5 -27q0 -20 -14 -30t-50 -10h-218q-36 0 -50 10t-14 30q0 17 8.5 27t18 13t18 13.5t8.5 28.5v488q0 18 -8.5 28.5t-18 13.5t-18 13t-8.5 27q0 20 14 30t50 10h218q36 0 50 -10t14 -30q0 -17 -8.5 -27t-18 -13t-18 -13.5
t-8.5 -28.5zM113 958h45q14 0 22.5 -2t20.5 -12.5t24 -31.5q6 -9 17 -27l18.5 -29.5t15.5 -25.5t12 -24t4 -15q0 -9 -7.5 -15t-17.5 -6q-8 0 -43 21l-82 51.5t-52 33.5q-36 23 -36 45q0 17 10 25.5t20.5 10t28.5 1.5z" />
    <glyph glyph-name="Iacute" unicode="&#xcd;" horiz-adv-x="380" 
d="M310 610v-488q0 -18 8.5 -28.5t18 -13.5t18 -13t8.5 -27q0 -20 -14 -30t-50 -10h-218q-36 0 -50 10t-14 30q0 17 8.5 27t18 13t18 13.5t8.5 28.5v488q0 18 -8.5 28.5t-18 13.5t-18 13t-8.5 27q0 20 14 30t50 10h218q36 0 50 -10t14 -30q0 -17 -8.5 -27t-18 -13t-18 -13.5
t-8.5 -28.5zM218 958h45q18 0 28.5 -1.5t20.5 -10t10 -25.5q0 -22 -36 -45q-5 -3 -52 -33.5l-82 -51.5t-43 -21q-10 0 -17.5 6t-7.5 15q0 5 4 15t12 24t15.5 25.5l18.5 29.5t17 27q18 30 32 38t35 8z" />
    <glyph glyph-name="Icircumflex" unicode="&#xce;" horiz-adv-x="380" 
d="M310 610v-488q0 -18 8.5 -28.5t18 -13.5t18 -13t8.5 -27q0 -20 -14 -30t-50 -10h-218q-36 0 -50 10t-14 30q0 17 8.5 27t18 13t18 13.5t8.5 28.5v488q0 18 -8.5 28.5t-18 13.5t-18 13t-8.5 27q0 20 14 30t50 10h218q36 0 50 -10t14 -30q0 -17 -8.5 -27t-18 -13t-18 -13.5
t-8.5 -28.5zM191 862l-126 -75q-25 -17 -36 -17q-7 0 -12.5 5.5t-5.5 13.5q0 10 20 34l94 99q1 1 7.5 8t8.5 9l7.5 7.5t8 7t8 5.5t9 5t8 2.5t9.5 1.5q4 0 8 -1t8 -3l7 -3.5t7.5 -5l7.5 -6t7.5 -7l6.5 -6.5l7 -7t6 -7l94 -99q20 -22 20 -36q0 -7 -6 -12t-12 -5q-8 0 -36 17z
" />
    <glyph glyph-name="Idieresis" unicode="&#xcf;" horiz-adv-x="380" 
d="M310 610v-488q0 -18 8.5 -28.5t18 -13.5t18 -13t8.5 -27q0 -20 -14 -30t-50 -10h-218q-36 0 -50 10t-14 30q0 17 8.5 27t18 13t18 13.5t8.5 28.5v488q0 18 -8.5 28.5t-18 13.5t-18 13t-8.5 27q0 20 14 30t50 10h218q36 0 50 -10t14 -30q0 -17 -8.5 -27t-18 -13t-18 -13.5
t-8.5 -28.5zM72 780q-38 0 -61 23t-23 53t23 53t61 23t61 -23t23 -53t-23 -53t-61 -23zM308 780q-38 0 -61 23t-23 53t23 53t61 23t61 -23t23 -53t-23 -53t-61 -23z" />
    <glyph glyph-name="Eth" unicode="&#xd0;" horiz-adv-x="860" 
d="M67 442v168q0 23 -13.5 32.5l-26.5 18.5t-13 31q0 20 14 30t50 10h351q113 0 200 -38t140.5 -122t53.5 -206t-53.5 -206t-140.5 -122t-200 -38h-351q-36 0 -50 10t-14 30q0 17 8.5 27t18 13t18 13.5t8.5 28.5v230h-22q-46 0 -46 45t46 45h22zM307 442h138q46 0 46 -45
t-46 -45h-138v-185q0 -45 10 -61t38 -16q96 0 157 82t61 194t-61 194t-157 82q-28 0 -38 -16t-10 -61v-123z" />
    <glyph glyph-name="Ntilde" unicode="&#xd1;" horiz-adv-x="770" 
d="M608 332v248q0 26 -6.5 42.5t-15.5 23t-18 11t-15.5 12.5t-6.5 22q0 23 13 32t49 9h100q36 0 49 -9t13 -32q0 -14 -6.5 -22t-15.5 -12.5t-18 -11t-15.5 -23t-6.5 -42.5v-512q0 -40 -13.5 -54t-60.5 -14q-58 0 -73.5 6t-36.5 35l-324 443h-2v-332q0 -29 7 -47t17.5 -24
t21 -10t17.5 -11t7 -22q0 -19 -15 -28.5t-55 -9.5h-100q-40 0 -55 9.5t-15 28.5q0 15 7 22t17.5 11t21 10t17.5 24t7 47v404q0 37 -8.5 58t-21 28t-25 10.5t-21 11.5t-8.5 25q0 23 11.5 33t50.5 10h186q30 0 45 -7.5t33 -31.5l266 -361h2zM327 932q39 0 75.5 -17t64 -33.5
t44.5 -16.5q15 0 36 21t30 21q19 0 19 -17q0 -33 -41.5 -71.5t-89.5 -38.5q-35 0 -71.5 17t-65 34t-44.5 17q-14 0 -25 -9.5t-16.5 -21t-13 -21t-16.5 -9.5q-21 0 -21 19q0 42 44 84t91 42z" />
    <glyph glyph-name="Ograve" unicode="&#xd2;" horiz-adv-x="890" 
d="M445 748q111 0 205.5 -44.5t154.5 -133t60 -204.5t-60 -204.5t-154.5 -133t-205.5 -44.5t-205.5 44.5t-154.5 133t-60 204.5t60 204.5t154.5 133t205.5 44.5zM275 366q0 -292 170 -292t170 292t-170 292t-170 -292zM368 958h45q14 0 22.5 -2t20.5 -12.5t24 -31.5
q6 -9 17 -27l18.5 -29.5t15.5 -25.5t12 -24t4 -15q0 -9 -7.5 -15t-17.5 -6q-8 0 -43 21l-82 51.5t-52 33.5q-36 23 -36 45q0 17 10 25.5t20.5 10t28.5 1.5z" />
    <glyph glyph-name="Oacute" unicode="&#xd3;" horiz-adv-x="890" 
d="M445 748q111 0 205.5 -44.5t154.5 -133t60 -204.5t-60 -204.5t-154.5 -133t-205.5 -44.5t-205.5 44.5t-154.5 133t-60 204.5t60 204.5t154.5 133t205.5 44.5zM275 366q0 -292 170 -292t170 292t-170 292t-170 -292zM483 958h45q18 0 28.5 -1.5t20.5 -10t10 -25.5
q0 -22 -36 -45q-5 -3 -52 -33.5l-82 -51.5t-43 -21q-10 0 -17.5 6t-7.5 15q0 5 4 15t12 24t15.5 25.5l18.5 29.5t17 27q18 30 32 38t35 8z" />
    <glyph glyph-name="Ocircumflex" unicode="&#xd4;" horiz-adv-x="890" 
d="M445 748q111 0 205.5 -44.5t154.5 -133t60 -204.5t-60 -204.5t-154.5 -133t-205.5 -44.5t-205.5 44.5t-154.5 133t-60 204.5t60 204.5t154.5 133t205.5 44.5zM275 366q0 -292 170 -292t170 292t-170 292t-170 -292zM446 862l-126 -75q-25 -17 -36 -17q-7 0 -12.5 5.5
t-5.5 13.5q0 10 20 34l94 99q1 1 7.5 8t8.5 9l7.5 7.5t8 7t8 5.5t9 5t8 2.5t9.5 1.5q4 0 8 -1t8 -3l7 -3.5t7.5 -5l7.5 -6t7.5 -7l6.5 -6.5t6.5 -7t6.5 -7l94 -99q20 -22 20 -36q0 -7 -6 -12t-12 -5q-8 0 -36 17z" />
    <glyph glyph-name="Otilde" unicode="&#xd5;" horiz-adv-x="890" 
d="M445 748q111 0 205.5 -44.5t154.5 -133t60 -204.5t-60 -204.5t-154.5 -133t-205.5 -44.5t-205.5 44.5t-154.5 133t-60 204.5t60 204.5t154.5 133t205.5 44.5zM275 366q0 -292 170 -292t170 292t-170 292t-170 -292zM378 932q39 0 75.5 -17t64 -33.5t44.5 -16.5
q15 0 36 21t30 21q19 0 19 -17q0 -33 -41.5 -71.5t-89.5 -38.5q-35 0 -71.5 17t-65 34t-44.5 17q-14 0 -25 -9.5t-16.5 -21t-13.5 -21t-16 -9.5q-21 0 -21 19q0 42 44 84t91 42z" />
    <glyph glyph-name="Odieresis" unicode="&#xd6;" horiz-adv-x="890" 
d="M445 748q111 0 205.5 -44.5t154.5 -133t60 -204.5t-60 -204.5t-154.5 -133t-205.5 -44.5t-205.5 44.5t-154.5 133t-60 204.5t60 204.5t154.5 133t205.5 44.5zM275 366q0 -292 170 -292t170 292t-170 292t-170 -292zM327 780q-38 0 -61 23t-23 53t23 53t61 23t61 -23
t23 -53t-23 -53t-61 -23zM563 780q-38 0 -61 23t-23 53t23 53t61 23t61 -23t23 -53t-23 -53t-61 -23z" />
    <glyph glyph-name="multiply" unicode="&#xd7;" horiz-adv-x="600" 
d="M411 243l132 -133l-111 -110l-132 133l-132 -133l-111 110l132 133l-132 133l111 110l132 -133l132 133l111 -110z" />
    <glyph glyph-name="Oslash" unicode="&#xd8;" horiz-adv-x="890" 
d="M296 199l249 420q-39 39 -100 39q-170 0 -170 -292q0 -100 21 -167zM594 531l-249 -418q39 -39 100 -39q170 0 170 292q0 100 -21 165zM731 761l-46 -77q84 -50 132 -131.5t48 -186.5q0 -116 -60 -204.5t-154.5 -133t-205.5 -44.5q-85 0 -160 27l-40 -67q-22 -36 -59 -36
q-36 0 -36 29q0 19 11 34l46 77q-84 48 -133 130t-49 188q0 116 60 204.5t154.5 133t205.5 44.5q86 0 160 -28l40 68q22 36 59 36q36 0 36 -29q0 -17 -9 -34z" />
    <glyph glyph-name="Ugrave" unicode="&#xd9;" horiz-adv-x="760" 
d="M560 732h130q30 0 43 -8.5t13 -28.5q0 -18 -9 -28t-20.5 -13t-20.5 -13t-9 -27q0 -50 5.5 -163.5t5.5 -152.5q0 -55 -5 -95t-24.5 -84t-53 -71.5t-94 -45.5t-145.5 -18q-170 0 -247.5 75t-77.5 254q0 47 6.5 161.5t6.5 141.5q0 18 -8 28t-17.5 12.5t-17.5 10.5t-8 23
q0 24 17 33t63 9h209q39 0 52.5 -10t13.5 -32q0 -13 -9 -21t-20 -11t-20 -13.5t-9 -28.5q0 -2 -9.5 -130.5t-9.5 -177.5q0 -36 2.5 -65t12 -62t25 -55t43.5 -37t66 -15q79 0 113 50.5t34 159.5q0 48 -6.5 165t-6.5 151q0 22 -11 35t-24 17.5t-24 14.5t-11 28q0 19 12.5 28
t43.5 9zM315 958h45q14 0 22.5 -2t20.5 -12.5t24 -31.5q6 -9 17 -27l18.5 -29.5t15.5 -25.5t12 -24t4 -15q0 -9 -7.5 -15t-17.5 -6q-8 0 -43 21l-82 51.5t-52 33.5q-36 23 -36 45q0 17 10 25.5t20.5 10t28.5 1.5z" />
    <glyph glyph-name="Uacute" unicode="&#xda;" horiz-adv-x="760" 
d="M560 732h130q30 0 43 -8.5t13 -28.5q0 -18 -9 -28t-20.5 -13t-20.5 -13t-9 -27q0 -50 5.5 -163.5t5.5 -152.5q0 -55 -5 -95t-24.5 -84t-53 -71.5t-94 -45.5t-145.5 -18q-170 0 -247.5 75t-77.5 254q0 47 6.5 161.5t6.5 141.5q0 18 -8 28t-17.5 12.5t-17.5 10.5t-8 23
q0 24 17 33t63 9h209q39 0 52.5 -10t13.5 -32q0 -13 -9 -21t-20 -11t-20 -13.5t-9 -28.5q0 -2 -9.5 -130.5t-9.5 -177.5q0 -36 2.5 -65t12 -62t25 -55t43.5 -37t66 -15q79 0 113 50.5t34 159.5q0 48 -6.5 165t-6.5 151q0 22 -11 35t-24 17.5t-24 14.5t-11 28q0 19 12.5 28
t43.5 9zM423 958h45q18 0 28.5 -1.5t20.5 -10t10 -25.5q0 -22 -36 -45q-5 -3 -52 -33.5l-82 -51.5t-43 -21q-10 0 -17.5 6t-7.5 15q0 5 4 15t12 24t15.5 25.5l18.5 29.5t17 27q18 30 32 38t35 8z" />
    <glyph glyph-name="Ucircumflex" unicode="&#xdb;" horiz-adv-x="760" 
d="M560 732h130q30 0 43 -8.5t13 -28.5q0 -18 -9 -28t-20.5 -13t-20.5 -13t-9 -27q0 -50 5.5 -163.5t5.5 -152.5q0 -55 -5 -95t-24.5 -84t-53 -71.5t-94 -45.5t-145.5 -18q-170 0 -247.5 75t-77.5 254q0 47 6.5 161.5t6.5 141.5q0 18 -8 28t-17.5 12.5t-17.5 10.5t-8 23
q0 24 17 33t63 9h209q39 0 52.5 -10t13.5 -32q0 -13 -9 -21t-20 -11t-20 -13.5t-9 -28.5q0 -2 -9.5 -130.5t-9.5 -177.5q0 -36 2.5 -65t12 -62t25 -55t43.5 -37t66 -15q79 0 113 50.5t34 159.5q0 48 -6.5 165t-6.5 151q0 22 -11 35t-24 17.5t-24 14.5t-11 28q0 19 12.5 28
t43.5 9zM404 862l-126 -75q-25 -17 -36 -17q-7 0 -12.5 5.5t-5.5 13.5q0 10 20 34l94 99q1 1 7.5 8t8.5 9l7.5 7.5t8 7t8 5.5t9 5t8 2.5t9.5 1.5q4 0 8 -1t8 -3l7 -3.5t7.5 -5l7.5 -6t7.5 -7l6.5 -6.5l7 -7t6 -7l94 -99q20 -22 20 -36q0 -7 -6 -12t-12 -5q-8 0 -36 17z" />
    <glyph glyph-name="Udieresis" unicode="&#xdc;" horiz-adv-x="760" 
d="M560 732h130q30 0 43 -8.5t13 -28.5q0 -18 -9 -28t-20.5 -13t-20.5 -13t-9 -27q0 -50 5.5 -163.5t5.5 -152.5q0 -55 -5 -95t-24.5 -84t-53 -71.5t-94 -45.5t-145.5 -18q-170 0 -247.5 75t-77.5 254q0 47 6.5 161.5t6.5 141.5q0 18 -8 28t-17.5 12.5t-17.5 10.5t-8 23
q0 24 17 33t63 9h209q39 0 52.5 -10t13.5 -32q0 -13 -9 -21t-20 -11t-20 -13.5t-9 -28.5q0 -2 -9.5 -130.5t-9.5 -177.5q0 -36 2.5 -65t12 -62t25 -55t43.5 -37t66 -15q79 0 113 50.5t34 159.5q0 48 -6.5 165t-6.5 151q0 22 -11 35t-24 17.5t-24 14.5t-11 28q0 19 12.5 28
t43.5 9zM285 780q-38 0 -61 23t-23 53t23 53t61 23t61 -23t23 -53t-23 -53t-61 -23zM521 780q-38 0 -61 23t-23 53t23 53t61 23t61 -23t23 -53t-23 -53t-61 -23z" />
    <glyph glyph-name="Yacute" unicode="&#xdd;" horiz-adv-x="760" 
d="M48 732h258q34 0 46.5 -10.5t12.5 -33.5q0 -16 -22.5 -31t-22.5 -29q0 -15 12.5 -43t33 -60l38 -58.5l36 -52t19.5 -27.5q32 36 86 124t54 117q0 10 -22 26t-22 36q0 18 14.5 30t44.5 12h94q36 0 51.5 -9t15.5 -31q0 -15 -9.5 -27t-27 -28t-29.5 -33l-203 -300v-182
q0 -18 8.5 -28.5t18 -13.5t18 -13t8.5 -27q0 -20 -14 -30t-50 -10h-218q-36 0 -50 10t-14 30q0 17 8.5 27t18 13t18 13.5t8.5 28.5v168q-36 45 -101 145.5t-93 154.5q-12 22 -28.5 37t-28.5 20t-21 15.5t-9 26.5q0 43 63 43zM423 958h45q18 0 28.5 -1.5t20.5 -10t10 -25.5
q0 -22 -36 -45q-5 -3 -52 -33.5l-82 -51.5t-43 -21q-10 0 -17.5 6t-7.5 15q0 5 4 15t12 24t15.5 25.5l18.5 29.5t17 27q18 30 32 38t35 8z" />
    <glyph glyph-name="Thorn" unicode="&#xde;" horiz-adv-x="710" 
d="M310 600h103q303 0 303 -207q0 -220 -406 -251v-20q0 -18 8.5 -28.5t18 -13.5t18 -13t8.5 -27q0 -20 -14 -30t-50 -10h-218q-67 0 -67 40q0 17 9 27t19 13t19 13.5t9 28.5v488q0 18 -9 28.5t-19 13.5t-19 13t-9 27q0 40 67 40h218q36 0 50 -10t14 -30q0 -17 -8.5 -27
t-18 -13t-18 -13.5t-8.5 -28.5v-10zM310 489v-254q68 16 112 57.5t44 105.5q0 51 -31 85.5t-81 34.5q-36 0 -44 -29z" />
    <glyph glyph-name="germandbls" unicode="&#xdf;" horiz-adv-x="730" 
d="M287 534v-422q0 -68 -13 -90t-48 -22h-145q-64 0 -64 38q0 15 8 24t17 12.5t17 16t8 32.5v346q0 142 79.5 210.5t224.5 68.5q133 0 211.5 -56.5t78.5 -144.5q0 -123 -128 -154v-2q82 -9 131.5 -59t49.5 -134q0 -94 -64 -154t-166 -60q-84 0 -129 38.5t-45 105.5
q0 43 22.5 77.5t62.5 34.5q16 0 27.5 -11t11.5 -27q0 -14 -14 -31t-14 -29q0 -17 11 -28.5t27 -11.5q31 0 51.5 26t20.5 82q0 73 -38 109.5t-110 36.5q-52 0 -52 40q0 24 12.5 35t40.5 11q86 0 86 98q0 45 -24 72.5t-62 27.5q-39 0 -60.5 -26.5t-21.5 -79.5z" />
    <glyph glyph-name="agrave" unicode="&#xe0;" horiz-adv-x="620" 
d="M568 304v-176q0 -21 8 -34t17.5 -18t17.5 -14.5t8 -24.5q0 -37 -50 -37h-149q-34 0 -46.5 9.5t-18.5 42.5q-40 -62 -149 -62q-89 0 -137 47.5t-48 110.5q0 172 322 172q-1 57 -14 76.5t-45 19.5q-19 0 -34.5 -11.5t-25.5 -26t-30.5 -26t-47.5 -11.5q-40 0 -62 16.5
t-22 42.5q0 96 245 96q45 0 80.5 -4.5t70.5 -17.5t58.5 -34t37.5 -55.5t14 -80.5zM241 147q0 -26 12 -41.5t32 -15.5q63 0 63 156q-48 0 -77.5 -26t-29.5 -73zM239 732h45q14 0 22.5 -2t20.5 -12.5t24 -31.5q6 -9 17 -27l18.5 -29.5t15.5 -25.5t12 -24t4 -15q0 -9 -7.5 -15
t-17.5 -6q-8 0 -43 21l-82 51.5t-52 33.5q-36 23 -36 45q0 17 10 25.5t20.5 10t28.5 1.5z" />
    <glyph glyph-name="aacute" unicode="&#xe1;" horiz-adv-x="620" 
d="M568 304v-176q0 -21 8 -34t17.5 -18t17.5 -14.5t8 -24.5q0 -37 -50 -37h-149q-34 0 -46.5 9.5t-18.5 42.5q-40 -62 -149 -62q-89 0 -137 47.5t-48 110.5q0 172 322 172q-1 57 -14 76.5t-45 19.5q-19 0 -34.5 -11.5t-25.5 -26t-30.5 -26t-47.5 -11.5q-40 0 -62 16.5
t-22 42.5q0 96 245 96q45 0 80.5 -4.5t70.5 -17.5t58.5 -34t37.5 -55.5t14 -80.5zM241 147q0 -26 12 -41.5t32 -15.5q63 0 63 156q-48 0 -77.5 -26t-29.5 -73zM330 732h45q18 0 28.5 -1.5t20.5 -10t10 -25.5q0 -22 -36 -45q-5 -3 -52 -33.5l-82 -51.5t-43 -21q-10 0 -17.5 6
t-7.5 15q0 5 4 15t12 24t15.5 25.5l18.5 29.5t17 27q18 30 32 38t35 8z" />
    <glyph glyph-name="acircumflex" unicode="&#xe2;" horiz-adv-x="620" 
d="M568 304v-176q0 -21 8 -34t17.5 -18t17.5 -14.5t8 -24.5q0 -37 -50 -37h-149q-34 0 -46.5 9.5t-18.5 42.5q-40 -62 -149 -62q-89 0 -137 47.5t-48 110.5q0 172 322 172q-1 57 -14 76.5t-45 19.5q-19 0 -34.5 -11.5t-25.5 -26t-30.5 -26t-47.5 -11.5q-40 0 -62 16.5
t-22 42.5q0 96 245 96q45 0 80.5 -4.5t70.5 -17.5t58.5 -34t37.5 -55.5t14 -80.5zM241 147q0 -26 12 -41.5t32 -15.5q63 0 63 156q-48 0 -77.5 -26t-29.5 -73zM311 636l-126 -75q-25 -17 -36 -17q-7 0 -12.5 5.5t-5.5 13.5q0 10 20 34l94 99q1 1 7.5 8t8.5 9t7.5 7t8 7t8 6
t9 5t8 2.5t9.5 1.5q4 0 8 -1t8 -3l7 -3.5t7.5 -5l7.5 -6t7.5 -7l6.5 -6.5t6.5 -7t6.5 -7l94 -99q20 -22 20 -36q0 -7 -6 -12t-12 -5q-8 0 -36 17z" />
    <glyph glyph-name="atilde" unicode="&#xe3;" horiz-adv-x="620" 
d="M568 304v-176q0 -21 8 -34t17.5 -18t17.5 -14.5t8 -24.5q0 -37 -50 -37h-149q-34 0 -46.5 9.5t-18.5 42.5q-40 -62 -149 -62q-89 0 -137 47.5t-48 110.5q0 172 322 172q-1 57 -14 76.5t-45 19.5q-19 0 -34.5 -11.5t-25.5 -26t-30.5 -26t-47.5 -11.5q-40 0 -62 16.5
t-22 42.5q0 96 245 96q45 0 80.5 -4.5t70.5 -17.5t58.5 -34t37.5 -55.5t14 -80.5zM241 147q0 -26 12 -41.5t32 -15.5q63 0 63 156q-48 0 -77.5 -26t-29.5 -73zM243 706q39 0 75.5 -17t64 -33.5t44.5 -16.5q15 0 36 21t30 21q19 0 19 -17q0 -33 -41.5 -71.5t-89.5 -38.5
q-35 0 -71.5 17t-65 34t-44.5 17q-14 0 -25 -9.5t-16.5 -21t-13 -21t-16.5 -9.5q-21 0 -21 19q0 42 44 84t91 42z" />
    <glyph glyph-name="adieresis" unicode="&#xe4;" horiz-adv-x="620" 
d="M568 304v-176q0 -21 8 -34t17.5 -18t17.5 -14.5t8 -24.5q0 -37 -50 -37h-149q-34 0 -46.5 9.5t-18.5 42.5q-40 -62 -149 -62q-89 0 -137 47.5t-48 110.5q0 172 322 172q-1 57 -14 76.5t-45 19.5q-19 0 -34.5 -11.5t-25.5 -26t-30.5 -26t-47.5 -11.5q-40 0 -62 16.5
t-22 42.5q0 96 245 96q45 0 80.5 -4.5t70.5 -17.5t58.5 -34t37.5 -55.5t14 -80.5zM241 147q0 -26 12 -41.5t32 -15.5q63 0 63 156q-48 0 -77.5 -26t-29.5 -73zM192 554q-38 0 -61 23t-23 53t23 53t61 23t61 -23t23 -53t-23 -53t-61 -23zM428 554q-38 0 -61 23t-23 53t23 53
t61 23t61 -23t23 -53t-23 -53t-61 -23z" />
    <glyph glyph-name="aring" unicode="&#xe5;" horiz-adv-x="620" 
d="M568 304v-176q0 -21 8 -34t17.5 -18t17.5 -14.5t8 -24.5q0 -37 -50 -37h-149q-34 0 -46.5 9.5t-18.5 42.5q-40 -62 -149 -62q-89 0 -137 47.5t-48 110.5q0 172 322 172q-1 57 -14 76.5t-45 19.5q-19 0 -34.5 -11.5t-25.5 -26t-30.5 -26t-47.5 -11.5q-40 0 -62 16.5
t-22 42.5q0 96 245 96q45 0 80.5 -4.5t70.5 -17.5t58.5 -34t37.5 -55.5t14 -80.5zM241 147q0 -26 12 -41.5t32 -15.5q63 0 63 156q-48 0 -77.5 -26t-29.5 -73zM310 775q49 0 84.5 -35t35.5 -85t-35.5 -85t-84.5 -35t-84.5 35t-35.5 85t35.5 85t84.5 35zM310 701
q-19 0 -32.5 -13t-13.5 -33t13.5 -33t32.5 -13t32.5 13t13.5 33t-13.5 33t-32.5 13z" />
    <glyph glyph-name="ae" unicode="&#xe6;" horiz-adv-x="930" 
d="M307 410q-25 0 -46.5 -13t-34.5 -28t-35.5 -28t-49.5 -13q-39 0 -61.5 16.5t-22.5 40.5q0 43 71.5 77t165.5 34q131 0 192 -73q74 73 205 73q51 0 99 -14.5t84.5 -49.5t36.5 -84q0 -73 -74.5 -111t-241.5 -67q7 -35 34.5 -60.5t79.5 -25.5q40 0 74 17.5t57 35t37 17.5
q15 0 27 -10.5t12 -25.5q0 -34 -42 -64.5t-98.5 -47t-105.5 -16.5q-129 0 -194 76q-72 -76 -221 -76q-101 0 -167.5 38.5t-66.5 113.5q0 80 87.5 117t270.5 37q0 68 -18.5 91t-53.5 23zM667 410q-31 0 -57.5 -46t-22.5 -108q63 8 92.5 38t29.5 64q0 23 -11 37.5t-31 14.5z
M241 136q0 -46 54 -46q42 0 63 36t21 86q-67 0 -102.5 -21t-35.5 -55z" />
    <glyph glyph-name="ccedilla" unicode="&#xe7;" horiz-adv-x="550" 
d="M307 -10l-16 -45h20q49 0 75.5 -24t26.5 -68q0 -92 -126 -92q-45 0 -70 17.5t-25 36.5q0 10 6 17t16 7q9 0 29.5 -10t32.5 -10q17 0 29 10t12 27q0 31 -33 31q-17 0 -34 -3t-19 -3q-12 0 -12 12q0 8 6 26l26 76q-100 16 -167 81.5t-67 166.5q0 118 84 185.5t204 67.5
q107 0 173.5 -35t66.5 -87q0 -30 -22.5 -45.5t-53.5 -15.5q-28 0 -48.5 15t-30.5 33.5t-25 33.5t-33 15q-38 0 -61 -42.5t-24 -122.5q-1 -75 34 -114t82 -39q34 0 65 18t53.5 36t37.5 18t25.5 -12t10.5 -27q0 -52 -81.5 -94t-162.5 -41h-4z" />
    <glyph glyph-name="egrave" unicode="&#xe8;" horiz-adv-x="590" 
d="M17 236q0 81 49 142t120 89.5t150 28.5q108 0 170.5 -45t62.5 -102q0 -29 -11 -52.5t-35 -41t-49.5 -30t-66 -23.5t-72 -17.5t-80.5 -14.5q11 -38 40 -62t70 -24q40 0 74 20t58 40t40 20t27.5 -9t11.5 -25q0 -51 -86.5 -95.5t-177.5 -44.5q-119 0 -207 65.5t-88 180.5z
M367 358q0 20 -9.5 36t-28.5 16q-37 0 -59.5 -44.5t-22.5 -109.5q47 2 83.5 29.5t36.5 72.5zM240 732h45q14 0 22.5 -2t20.5 -12.5t24 -31.5q6 -9 17 -27l18.5 -29.5t15.5 -25.5t12 -24t4 -15q0 -9 -7.5 -15t-17.5 -6q-8 0 -43 21l-82 51.5t-52 33.5q-36 23 -36 45
q0 17 10 25.5t20.5 10t28.5 1.5z" />
    <glyph glyph-name="eacute" unicode="&#xe9;" horiz-adv-x="590" 
d="M17 236q0 81 49 142t120 89.5t150 28.5q108 0 170.5 -45t62.5 -102q0 -29 -11 -52.5t-35 -41t-49.5 -30t-66 -23.5t-72 -17.5t-80.5 -14.5q11 -38 40 -62t70 -24q40 0 74 20t58 40t40 20t27.5 -9t11.5 -25q0 -51 -86.5 -95.5t-177.5 -44.5q-119 0 -207 65.5t-88 180.5z
M367 358q0 20 -9.5 36t-28.5 16q-37 0 -59.5 -44.5t-22.5 -109.5q47 2 83.5 29.5t36.5 72.5zM345 732h45q18 0 28.5 -1.5t20.5 -10t10 -25.5q0 -22 -36 -45q-5 -3 -52 -33.5l-82 -51.5t-43 -21q-10 0 -17.5 6t-7.5 15q0 5 4 15t12 24t15.5 25.5l18.5 29.5t17 27q18 30 32 38
t35 8z" />
    <glyph glyph-name="ecircumflex" unicode="&#xea;" horiz-adv-x="590" 
d="M17 236q0 81 49 142t120 89.5t150 28.5q108 0 170.5 -45t62.5 -102q0 -29 -11 -52.5t-35 -41t-49.5 -30t-66 -23.5t-72 -17.5t-80.5 -14.5q11 -38 40 -62t70 -24q40 0 74 20t58 40t40 20t27.5 -9t11.5 -25q0 -51 -86.5 -95.5t-177.5 -44.5q-119 0 -207 65.5t-88 180.5z
M367 358q0 20 -9.5 36t-28.5 16q-37 0 -59.5 -44.5t-22.5 -109.5q47 2 83.5 29.5t36.5 72.5zM317 636l-126 -75q-25 -17 -36 -17q-7 0 -12.5 5.5t-5.5 13.5q0 10 20 34l94 99q1 1 7.5 8t8.5 9t7.5 7t8 7t8 6t9 5t8 2.5t9.5 1.5q4 0 8 -1t8 -3l7 -3.5t7.5 -5l7.5 -6t7.5 -7
l6.5 -6.5l7 -7t6 -7l94 -99q20 -22 20 -36q0 -7 -6 -12t-12 -5q-8 0 -36 17z" />
    <glyph glyph-name="edieresis" unicode="&#xeb;" horiz-adv-x="590" 
d="M17 236q0 81 49 142t120 89.5t150 28.5q108 0 170.5 -45t62.5 -102q0 -29 -11 -52.5t-35 -41t-49.5 -30t-66 -23.5t-72 -17.5t-80.5 -14.5q11 -38 40 -62t70 -24q40 0 74 20t58 40t40 20t27.5 -9t11.5 -25q0 -51 -86.5 -95.5t-177.5 -44.5q-119 0 -207 65.5t-88 180.5z
M367 358q0 20 -9.5 36t-28.5 16q-37 0 -59.5 -44.5t-22.5 -109.5q47 2 83.5 29.5t36.5 72.5zM198 554q-38 0 -61 23t-23 53t23 53t61 23t61 -23t23 -53t-23 -53t-61 -23zM434 554q-38 0 -61 23t-23 53t23 53t61 23t61 -23t23 -53t-23 -53t-61 -23z" />
    <glyph glyph-name="igrave" unicode="&#xec;" 
d="M56 116v224q0 19 -9 29.5t-20 14t-20 12.5t-9 24q0 19 19.5 31.5t49.5 15.5q26 3 88 16t71 13q50 0 50 -92v-288q0 -28 19 -43.5t19 -33.5q0 -14 -14 -26.5t-38 -12.5h-192q-24 0 -38 12.5t-14 26.5q0 18 19 33.5t19 43.5zM85 732h45q14 0 22.5 -2t20.5 -12.5t24 -31.5
q6 -9 17 -27l18.5 -29.5t15.5 -25.5t12 -24t4 -15q0 -9 -7.5 -15t-17.5 -6q-8 0 -43 21l-82 51.5t-52 33.5q-36 23 -36 45q0 17 10 25.5t20.5 10t28.5 1.5z" />
    <glyph glyph-name="iacute" unicode="&#xed;" 
d="M56 116v224q0 19 -9 29.5t-20 14t-20 12.5t-9 24q0 19 19.5 31.5t49.5 15.5q26 3 88 16t71 13q50 0 50 -92v-288q0 -28 19 -43.5t19 -33.5q0 -14 -14 -26.5t-38 -12.5h-192q-24 0 -38 12.5t-14 26.5q0 18 19 33.5t19 43.5zM185 732h45q18 0 28.5 -1.5t20.5 -10t10 -25.5
q0 -22 -36 -45q-5 -3 -52 -33.5l-82 -51.5t-43 -21q-10 0 -17.5 6t-7.5 15q0 5 4 15t12 24t15.5 25.5l18.5 29.5t17 27q18 30 32 38t35 8z" />
    <glyph glyph-name="icircumflex" unicode="&#xee;" 
d="M56 116v224q0 19 -9 29.5t-20 14t-20 12.5t-9 24q0 19 19.5 31.5t49.5 15.5q26 3 88 16t71 13q50 0 50 -92v-288q0 -28 19 -43.5t19 -33.5q0 -14 -14 -26.5t-38 -12.5h-192q-24 0 -38 12.5t-14 26.5q0 18 19 33.5t19 43.5zM161 636l-126 -75q-25 -17 -36 -17
q-7 0 -12.5 5.5t-5.5 13.5q0 10 20 34l94 99q1 1 7.5 8t8.5 9t7.5 7t8 7t8 6t9 5t8 2.5t9.5 1.5q4 0 8 -1t8 -3l7 -3.5t7.5 -5l7.5 -6t7.5 -7l6.5 -6.5l7 -7t6 -7l94 -99q20 -22 20 -36q0 -7 -6 -12t-12 -5q-8 0 -36 17z" />
    <glyph glyph-name="idieresis" unicode="&#xef;" 
d="M56 116v224q0 19 -9 29.5t-20 14t-20 12.5t-9 24q0 19 19.5 31.5t49.5 15.5q26 3 88 16t71 13q50 0 50 -92v-288q0 -28 19 -43.5t19 -33.5q0 -14 -14 -26.5t-38 -12.5h-192q-24 0 -38 12.5t-14 26.5q0 18 19 33.5t19 43.5zM42 554q-38 0 -61 23t-23 53t23 53t61 23
t61 -23t23 -53t-23 -53t-61 -23zM278 554q-38 0 -61 23t-23 53t23 53t61 23t61 -23t23 -53t-23 -53t-61 -23z" />
    <glyph glyph-name="eth" unicode="&#xf0;" horiz-adv-x="650" 
d="M247 243q0 -167 78 -167t78 167t-78 167t-78 -167zM133 600l83 42q-50 33 -91 43q-32 10 -32 39q0 36 49 36q88 0 192 -59l72 36q44 23 67 23q15 0 27.5 -12t12.5 -27q0 -24 -19 -34l-81 -40q96 -74 158.5 -175t61.5 -198q-1 -133 -88 -208.5t-220 -75.5
q-120 0 -213.5 68.5t-94.5 184.5q0 78 47 137t116.5 87t147.5 29q20 0 28 -2q-18 45 -68 91l-98 -49q-30 -14 -47 -14q-15 0 -25.5 10.5t-10.5 25.5q0 27 26 42z" />
    <glyph glyph-name="ntilde" unicode="&#xf1;" horiz-adv-x="650" 
d="M60 116v214q0 23 -7.5 35.5t-17 15.5t-17 10t-7.5 21q0 19 17 31t58 25q84 28 124 28q25 0 34 -16.5t14 -49.5q59 66 157 66q97 0 145 -53.5t48 -149.5v-177q0 -28 19 -43.5t19 -33.5q0 -14 -14 -26.5t-38 -12.5h-192q-24 0 -38 12.5t-14 26.5q0 18 19 33.5t19 43.5v196
q0 82 -54 82t-54 -82v-196q0 -28 19 -43.5t19 -33.5q0 -14 -14 -26.5t-38 -12.5h-192q-24 0 -38 12.5t-14 26.5q0 18 19 33.5t19 43.5zM258 706q39 0 75.5 -17t64 -33.5t44.5 -16.5q15 0 36 21t30 21q19 0 19 -17q0 -33 -41.5 -71.5t-89.5 -38.5q-35 0 -71.5 17t-65 34
t-44.5 17q-14 0 -25 -9.5t-16.5 -21t-13.5 -21t-16 -9.5q-21 0 -21 19q0 42 44 84t91 42z" />
    <glyph glyph-name="ograve" unicode="&#xf2;" horiz-adv-x="650" 
d="M325 496q120 0 213.5 -68.5t94.5 -184.5q-1 -116 -94.5 -184.5t-213.5 -68.5t-213.5 68.5t-94.5 184.5q1 116 94.5 184.5t213.5 68.5zM247 243q0 -167 78 -167t78 167t-78 167t-78 -167zM254 732h45q14 0 22.5 -2t20.5 -12.5t24 -31.5q6 -9 17 -27l18.5 -29.5t15.5 -25.5
t12 -24t4 -15q0 -9 -7.5 -15t-17.5 -6q-8 0 -43 21l-82 51.5t-52 33.5q-36 23 -36 45q0 17 10 25.5t20.5 10t28.5 1.5z" />
    <glyph glyph-name="oacute" unicode="&#xf3;" horiz-adv-x="650" 
d="M325 496q120 0 213.5 -68.5t94.5 -184.5q-1 -116 -94.5 -184.5t-213.5 -68.5t-213.5 68.5t-94.5 184.5q1 116 94.5 184.5t213.5 68.5zM247 243q0 -167 78 -167t78 167t-78 167t-78 -167zM363 732h45q18 0 28.5 -1.5t20.5 -10t10 -25.5q0 -22 -36 -45q-5 -3 -52 -33.5
l-82 -51.5t-43 -21q-10 0 -17.5 6t-7.5 15q0 5 4 15t12 24t15.5 25.5l18.5 29.5t17 27q18 30 32 38t35 8z" />
    <glyph glyph-name="ocircumflex" unicode="&#xf4;" horiz-adv-x="650" 
d="M325 496q120 0 213.5 -68.5t94.5 -184.5q-1 -116 -94.5 -184.5t-213.5 -68.5t-213.5 68.5t-94.5 184.5q1 116 94.5 184.5t213.5 68.5zM247 243q0 -167 78 -167t78 167t-78 167t-78 -167zM326 636l-126 -75q-25 -17 -36 -17q-7 0 -12.5 5.5t-5.5 13.5q0 10 20 34l94 99
q1 1 7.5 8t8.5 9t7.5 7t8 7t8 6t9 5t8 2.5t9.5 1.5q4 0 8 -1t8 -3l7 -3.5t7.5 -5l7.5 -6t7.5 -7l6.5 -6.5l7 -7t6 -7l94 -99q20 -22 20 -36q0 -7 -6 -12t-12 -5q-8 0 -36 17z" />
    <glyph glyph-name="otilde" unicode="&#xf5;" horiz-adv-x="650" 
d="M325 496q120 0 213.5 -68.5t94.5 -184.5q-1 -116 -94.5 -184.5t-213.5 -68.5t-213.5 68.5t-94.5 184.5q1 116 94.5 184.5t213.5 68.5zM247 243q0 -167 78 -167t78 167t-78 167t-78 -167zM258 706q39 0 75.5 -17t64 -33.5t44.5 -16.5q15 0 36 21t30 21q19 0 19 -17
q0 -33 -41.5 -71.5t-89.5 -38.5q-35 0 -71.5 17t-65 34t-44.5 17q-14 0 -25 -9.5t-16.5 -21t-13.5 -21t-16 -9.5q-21 0 -21 19q0 42 44 84t91 42z" />
    <glyph glyph-name="odieresis" unicode="&#xf6;" horiz-adv-x="650" 
d="M325 496q120 0 213.5 -68.5t94.5 -184.5q-1 -116 -94.5 -184.5t-213.5 -68.5t-213.5 68.5t-94.5 184.5q1 116 94.5 184.5t213.5 68.5zM247 243q0 -167 78 -167t78 167t-78 167t-78 -167zM207 554q-38 0 -61 23t-23 53t23 53t61 23t61 -23t23 -53t-23 -53t-61 -23z
M443 554q-38 0 -61 23t-23 53t23 53t61 23t61 -23t23 -53t-23 -53t-61 -23z" />
    <glyph glyph-name="divide" unicode="&#xf7;" horiz-adv-x="600" 
d="M543 165h-486v156h486v-156zM205 462q0 39 28 67t67 28t67 -28t28 -67t-28 -67t-67 -28t-67 28t-28 67zM205 24q0 39 28 67t67 28t67 -28t28 -67t-28 -67t-67 -28t-67 28t-28 67z" />
    <glyph glyph-name="oslash" unicode="&#xf8;" horiz-adv-x="650" 
d="M244 185l120 213q-16 12 -39 12q-86 0 -86 -167q0 -31 3 -58h2zM406 304l-123 -214q19 -14 42 -14q86 0 86 167q0 34 -3 61h-2zM526 510l-32 -55q63 -32 100.5 -86t38.5 -126q-1 -116 -94.5 -184.5t-213.5 -68.5q-48 0 -93 12l-38 -65q-10 -17 -48 -17q-34 0 -34 26
q0 9 16 38l27 48q-62 32 -99.5 86t-38.5 125q1 116 94.5 184.5t213.5 68.5q43 0 89 -11l34 61q11 20 52 20q32 0 38 -20q0 -14 -12 -36z" />
    <glyph glyph-name="ugrave" unicode="&#xf9;" horiz-adv-x="670" 
d="M273 421v-241q0 -88 53 -88t53 88v182q0 22 -22 34t-22 27q0 19 7 27t27 13l131 29q16 4 38 4q36 0 48.5 -17t12.5 -58v-297q0 -21 8 -33t17.5 -15.5t17.5 -13t8 -25.5q0 -20 -14.5 -28.5t-48.5 -8.5h-123q-36 0 -48.5 9.5t-19.5 44.5q-69 -64 -168 -64
q-92 0 -133.5 43.5t-41.5 157.5v171q-1 24 -22.5 38t-21.5 33q0 26 33 33l132 26q24 4 38 4q36 0 48.5 -17t12.5 -58zM240 732h45q14 0 22.5 -2t20.5 -12.5t24 -31.5q6 -9 17 -27l18.5 -29.5t15.5 -25.5t12 -24t4 -15q0 -9 -7.5 -15t-17.5 -6q-8 0 -43 21l-82 51.5t-52 33.5
q-36 23 -36 45q0 17 10 25.5t20.5 10t28.5 1.5z" />
    <glyph glyph-name="uacute" unicode="&#xfa;" horiz-adv-x="670" 
d="M273 421v-241q0 -88 53 -88t53 88v182q0 22 -22 34t-22 27q0 19 7 27t27 13l131 29q16 4 38 4q36 0 48.5 -17t12.5 -58v-297q0 -21 8 -33t17.5 -15.5t17.5 -13t8 -25.5q0 -20 -14.5 -28.5t-48.5 -8.5h-123q-36 0 -48.5 9.5t-19.5 44.5q-69 -64 -168 -64
q-92 0 -133.5 43.5t-41.5 157.5v171q-1 24 -22.5 38t-21.5 33q0 26 33 33l132 26q24 4 38 4q36 0 48.5 -17t12.5 -58zM346 732h45q18 0 28.5 -1.5t20.5 -10t10 -25.5q0 -22 -36 -45q-5 -3 -52 -33.5l-82 -51.5t-43 -21q-10 0 -17.5 6t-7.5 15q0 5 4 15t12 24t15.5 25.5
l18.5 29.5t17 27q18 30 32 38t35 8z" />
    <glyph glyph-name="ucircumflex" unicode="&#xfb;" horiz-adv-x="670" 
d="M273 421v-241q0 -88 53 -88t53 88v182q0 22 -22 34t-22 27q0 19 7 27t27 13l131 29q16 4 38 4q36 0 48.5 -17t12.5 -58v-297q0 -21 8 -33t17.5 -15.5t17.5 -13t8 -25.5q0 -20 -14.5 -28.5t-48.5 -8.5h-123q-36 0 -48.5 9.5t-19.5 44.5q-69 -64 -168 -64
q-92 0 -133.5 43.5t-41.5 157.5v171q-1 24 -22.5 38t-21.5 33q0 26 33 33l132 26q24 4 38 4q36 0 48.5 -17t12.5 -58zM327 636l-126 -75q-25 -17 -36 -17q-7 0 -12.5 5.5t-5.5 13.5q0 10 20 34l94 99q1 1 7.5 8t8.5 9t7.5 7t8 7t8 6t9 5t8 2.5t9.5 1.5q4 0 8 -1t8 -3l7 -3.5
t7.5 -5l7.5 -6t7.5 -7l6.5 -6.5l7 -7t6 -7l94 -99q20 -22 20 -36q0 -7 -6 -12t-12 -5q-8 0 -36 17z" />
    <glyph glyph-name="udieresis" unicode="&#xfc;" horiz-adv-x="670" 
d="M273 421v-241q0 -88 53 -88t53 88v182q0 22 -22 34t-22 27q0 19 7 27t27 13l131 29q16 4 38 4q36 0 48.5 -17t12.5 -58v-297q0 -21 8 -33t17.5 -15.5t17.5 -13t8 -25.5q0 -20 -14.5 -28.5t-48.5 -8.5h-123q-36 0 -48.5 9.5t-19.5 44.5q-69 -64 -168 -64
q-92 0 -133.5 43.5t-41.5 157.5v171q-1 24 -22.5 38t-21.5 33q0 26 33 33l132 26q24 4 38 4q36 0 48.5 -17t12.5 -58zM208 554q-38 0 -61 23t-23 53t23 53t61 23t61 -23t23 -53t-23 -53t-61 -23zM444 554q-38 0 -61 23t-23 53t23 53t61 23t61 -23t23 -53t-23 -53t-61 -23z
" />
    <glyph glyph-name="yacute" unicode="&#xfd;" horiz-adv-x="570" 
d="M419 486h109q53 0 53 -35q0 -12 -20.5 -32.5t-20.5 -34.5q0 -25 -9 -73t-26.5 -113.5t-48.5 -132t-69.5 -123t-94.5 -92.5t-120 -36q-40 0 -77 18t-37 54q0 29 22 47t52 18q26 0 54 -15.5t33 -15.5q20 0 51.5 31t40.5 54q-25 -5 -45 -5q-49 0 -84 14t-68 53t-56.5 116
t-38.5 195q-3 26 -17.5 45t-14.5 28q0 35 54 35h186q31 0 45 -9.5t14 -31.5q0 -15 -15.5 -31t-15.5 -41q0 -73 19 -142t40 -105t32 -36q15 0 32 40.5t29.5 110.5t12.5 143q0 23 -23.5 35t-23.5 33q0 19 10 26.5t36 7.5zM323 732h45q18 0 28.5 -1.5t20.5 -10t10 -25.5
q0 -22 -36 -45q-5 -3 -52 -33.5l-82 -51.5t-43 -21q-10 0 -17.5 6t-7.5 15q0 5 4 15t12 24t15.5 25.5l18.5 29.5t17 27q18 30 32 38t35 8z" />
    <glyph glyph-name="thorn" unicode="&#xfe;" horiz-adv-x="670" 
d="M64 -56v650q0 29 -9 43.5t-19.5 16.5t-19.5 9t-9 22t15 26t52 23q75 26 137 26q34 0 53.5 -16t19.5 -40v-250q55 42 127 42q106 0 174 -73t68 -181q0 -105 -72.5 -178.5t-177.5 -73.5q-46 0 -72 16.5t-26 46.5q0 35 32 35q38 0 62 40t24 108q0 69 -24 115.5t-58 46.5
q-57 0 -57 -100v-354q0 -20 8 -32t17.5 -15.5t17.5 -12t8 -23.5q0 -39 -64 -39h-194q-64 0 -64 39q0 15 8 23.5t17.5 12t17.5 15.5t8 32z" />
    <glyph glyph-name="ydieresis" unicode="&#xff;" horiz-adv-x="570" 
d="M419 486h109q53 0 53 -35q0 -12 -20.5 -32.5t-20.5 -34.5q0 -25 -9 -73t-26.5 -113.5t-48.5 -132t-69.5 -123t-94.5 -92.5t-120 -36q-40 0 -77 18t-37 54q0 29 22 47t52 18q26 0 54 -15.5t33 -15.5q20 0 51.5 31t40.5 54q-25 -5 -45 -5q-49 0 -84 14t-68 53t-56.5 116
t-38.5 195q-3 26 -17.5 45t-14.5 28q0 35 54 35h186q31 0 45 -9.5t14 -31.5q0 -15 -15.5 -31t-15.5 -41q0 -73 19 -142t40 -105t32 -36q15 0 32 40.5t29.5 110.5t12.5 143q0 23 -23.5 35t-23.5 33q0 19 10 26.5t36 7.5zM167 554q-38 0 -61 23t-23 53t23 53t61 23t61 -23
t23 -53t-23 -53t-61 -23zM403 554q-38 0 -61 23t-23 53t23 53t61 23t61 -23t23 -53t-23 -53t-61 -23z" />
    <glyph glyph-name="dotlessi" unicode="&#x131;" 
d="M56 116v224q0 19 -9 29.5t-20 14t-20 12.5t-9 24q0 19 19.5 31.5t49.5 15.5q26 3 88 16t71 13q50 0 50 -92v-288q0 -28 19 -43.5t19 -33.5q0 -14 -14 -26.5t-38 -12.5h-192q-24 0 -38 12.5t-14 26.5q0 18 19 33.5t19 43.5z" />
    <glyph glyph-name="Lslash" unicode="&#x141;" horiz-adv-x="600" 
d="M307 348v-197q0 -42 14 -51.5t70 -9.5q34 0 58 11.5t36 28t22 33.5t24.5 28.5t34.5 11.5t34 -12t14 -32t-13 -64.5t-24 -65.5q-9 -18 -21 -23.5t-43 -5.5h-435q-36 0 -50 10t-14 30q0 17 8.5 27t18 13t18 13.5t8.5 28.5v107l-13 -7q-26 -12 -48 -12q-21 0 -21 40
q0 29 48 53l34 17v290q0 23 -13.5 32.5l-26.5 18.5t-13 31q0 20 14 30t50 10h218q36 0 50 -10t14 -30q0 -17 -8.5 -27t-18 -13t-18 -13.5t-8.5 -28.5v-171l128 64q30 15 41 15q13 0 21 -12.5t8 -25.5q0 -15 -9 -27.5t-17 -17.5t-23 -13z" />
    <glyph glyph-name="lslash" unicode="&#x142;" horiz-adv-x="340" 
d="M289 412v-296q0 -18 8 -29t18 -14.5t18 -12t8 -21.5q0 -14 -14 -26.5t-38 -12.5h-220q-24 0 -38 12.5t-14 26.5q0 13 8 21.5t18 12t18 14.5t8 29v168l-36 -21q-21 -12 -31 -12q-23 0 -23 40q0 35 38 56l52 30v227q0 19 -9 29.5t-20 14t-20 12.5t-9 24q0 19 19.5 31.5
t49.5 15.5q26 3 88 16t71 13q50 0 50 -92v-165l31 18q30 18 39 18q20 0 20 -41q0 -21 -10 -33t-33 -26z" />
    <glyph glyph-name="OE" unicode="&#x152;" horiz-adv-x="1220" 
d="M840 328v-133q0 -70 19.5 -87.5t90.5 -17.5q51 0 83.5 9.5t46.5 23t22.5 27.5t20 23.5t30.5 9.5q24 0 37.5 -14.5t13.5 -38.5q0 -17 -7 -56.5t-15 -53.5q-12 -20 -74 -20h-448q-28 0 -33 4.5t-5 31.5v15q-106 -67 -232 -67q-161 0 -261.5 102.5t-100.5 265.5
q0 167 115.5 281.5t281.5 114.5q102 0 198 -59l-1 7q0 22 7.5 29t31.5 7h435q43 0 62 -13t19 -47v-46q0 -29 -14.5 -44.5t-33.5 -15.5q-21 0 -33 8t-20.5 19t-21.5 22t-44.5 19t-79.5 8q-59 0 -74.5 -12.5t-15.5 -63.5v-138h120q27 0 44 6.5t23 14t15.5 14t23.5 6.5
q22 0 32 -19t10 -71q0 -53 -10 -72.5t-32 -19.5q-14 0 -23.5 6.5t-15.5 14t-23 14t-44 6.5h-120zM278 366q0 -144 43 -218t116 -74t116 74t43 218t-43 218t-116 74t-116 -74t-43 -218z" />
    <glyph glyph-name="oe" unicode="&#x153;" horiz-adv-x="990" 
d="M247 243q0 -167 78 -167t78 167t-78 167t-78 -167zM17 243q1 116 94.5 184.5t213.5 68.5q115 0 203 -61q90 61 208 61q108 0 170.5 -45t62.5 -102q0 -29 -11 -52.5t-35 -41t-49.5 -30t-66 -23.5t-72 -17.5t-80.5 -14.5q11 -38 40 -62t70 -24q40 0 74 20t58 40t40 20
t27.5 -9t11.5 -25q0 -51 -86.5 -95.5t-177.5 -44.5q-111 0 -193 56q-83 -56 -194 -56q-120 0 -213.5 68.5t-94.5 184.5zM767 358q0 20 -9.5 36t-28.5 16q-37 0 -59.5 -44.5t-22.5 -109.5q47 2 83.5 29.5t36.5 72.5z" />
    <glyph glyph-name="Scaron" unicode="&#x160;" horiz-adv-x="720" 
d="M704 263q0 -68 -31.5 -123t-83 -88t-113 -50.5t-125.5 -17.5q-124 0 -227 54t-103 124q0 28 18.5 48t45.5 20q25 0 43.5 -15t33.5 -37t34 -44t54.5 -37t85.5 -15q59 0 93.5 28t34.5 64q0 37 -43 58t-104 34t-122 32.5t-104 68t-43 125.5q0 112 90.5 184t233.5 72
q72 0 120.5 -11.5t111.5 -38.5q38 -16 46 -38.5t8 -93.5q0 -60 -50 -60q-17 0 -29.5 12t-20 29.5t-19 38.5t-26 38.5t-42.5 29.5t-66 12q-57 0 -87 -22.5t-30 -56.5q0 -30 23 -50.5t59.5 -33t81 -23.5t89 -26.5t81 -37.5t59.5 -61t23 -92zM376 876l126 75q25 17 36 17
q7 0 12.5 -5.5t5.5 -13.5q0 -10 -20 -34l-94 -99q-1 -1 -7.5 -8t-8.5 -9t-7.5 -7t-8 -7t-8 -6t-9 -5t-8 -2.5t-9.5 -1.5q-4 0 -8 1t-8 3l-7 3.5t-7.5 5l-7.5 6t-7.5 7l-6.5 6.5t-6.5 7t-6.5 7l-94 99q-20 22 -20 36q0 7 6 12t12 5q8 0 36 -17z" />
    <glyph glyph-name="scaron" unicode="&#x161;" horiz-adv-x="550" 
d="M522 172q0 -80 -72.5 -131t-195.5 -51q-107 0 -170.5 36t-63.5 83q0 22 15 38t37 16q20 0 37 -13.5t28 -30t32.5 -30t50.5 -13.5q28 0 50 11.5t22 33.5q0 21 -26.5 32.5t-64.5 18.5t-76 18t-64.5 41t-26.5 79q0 83 73.5 134.5t187.5 51.5q89 0 169 -33q24 -10 32 -28
t8 -60q0 -52 -40 -52q-18 0 -31.5 14.5t-22 32t-29 32t-51.5 14.5q-66 0 -66 -44q0 -21 26.5 -33t64.5 -20t76 -20.5t64.5 -44t26.5 -82.5zM274 650l126 75q25 17 36 17q7 0 12.5 -5.5t5.5 -13.5q0 -10 -20 -34l-94 -99q-1 -1 -7.5 -8t-8.5 -9l-7.5 -7.5t-8 -7t-8 -5.5
t-9 -5t-8 -2.5t-9.5 -1.5q-4 0 -8 1t-8 3l-7 3.5t-7.5 5l-7.5 6t-7.5 7l-6.5 6.5l-7 7t-6 7l-94 99q-20 22 -20 36q0 7 6 12t12 5q8 0 36 -17z" />
    <glyph glyph-name="Ydieresis" unicode="&#x178;" horiz-adv-x="760" 
d="M48 732h258q34 0 46.5 -10.5t12.5 -33.5q0 -16 -22.5 -31t-22.5 -29q0 -15 12.5 -43t33 -60l38 -58.5l36 -52t19.5 -27.5q32 36 86 124t54 117q0 10 -22 26t-22 36q0 18 14.5 30t44.5 12h94q36 0 51.5 -9t15.5 -31q0 -15 -9.5 -27t-27 -28t-29.5 -33l-203 -300v-182
q0 -18 8.5 -28.5t18 -13.5t18 -13t8.5 -27q0 -20 -14 -30t-50 -10h-218q-36 0 -50 10t-14 30q0 17 8.5 27t18 13t18 13.5t8.5 28.5v168q-36 45 -101 145.5t-93 154.5q-12 22 -28.5 37t-28.5 20t-21 15.5t-9 26.5q0 43 63 43zM279 780q-38 0 -61 23t-23 53t23 53t61 23
t61 -23t23 -53t-23 -53t-61 -23zM515 780q-38 0 -61 23t-23 53t23 53t61 23t61 -23t23 -53t-23 -53t-61 -23z" />
    <glyph glyph-name="Zcaron" unicode="&#x17d;" horiz-adv-x="640" 
d="M104 732h463q49 0 66.5 -8.5t17.5 -36.5q0 -50 -56.5 -146.5t-123.5 -184l-123.5 -164t-56.5 -90.5q0 -12 21 -12h92q47 0 79 9.5t47 23t25 26.5t22 22.5t30 9.5q44 0 44 -40q0 -20 -12 -80q-7 -35 -19 -48t-45 -13h-481q-83 0 -83 62q0 53 91.5 189t182.5 254.5
t91 130.5q0 6 -26 6h-76q-43 0 -72 -9t-42 -22t-21.5 -25.5t-20 -21.5t-29.5 -9q-22 0 -34.5 13t-12.5 35q0 83 15 114q7 15 47 15zM336 876l126 75q25 17 36 17q7 0 12.5 -5.5t5.5 -13.5q0 -10 -20 -34l-94 -99q-1 -1 -7.5 -8t-8.5 -9t-7.5 -7t-8 -7t-8 -6t-9 -5t-8 -2.5
t-9.5 -1.5q-4 0 -8 1t-8 3l-7 3.5t-7.5 5l-7.5 6t-7.5 7l-6.5 6.5l-7 7t-6 7l-94 99q-20 22 -20 36q0 7 6 12t12 5q8 0 36 -17z" />
    <glyph glyph-name="zcaron" unicode="&#x17e;" horiz-adv-x="540" 
d="M265 418h-62q-27 0 -46 -8.5t-28.5 -20.5t-17 -24t-18 -20.5t-24.5 -8.5q-39 0 -39 43q0 60 15 83.5t56 23.5h343q44 0 59.5 -10t15.5 -34q0 -35 -49.5 -107t-115 -152t-79.5 -103h77q27 0 46 8.5t28.5 20.5t17 24t18 20.5t24.5 8.5q15 0 25 -9t10 -24q0 -44 -16 -94
q-7 -21 -19.5 -28t-43.5 -7h-344q-87 0 -87 54q0 41 62 120zM269 650l126 75q25 17 36 17q7 0 12.5 -5.5t5.5 -13.5q0 -10 -20 -34l-94 -99q-1 -1 -7.5 -8t-8.5 -9l-7.5 -7.5t-8 -7t-8 -5.5t-9 -5t-8 -2.5t-9.5 -1.5q-4 0 -8 1t-8 3l-7 3.5t-7.5 5l-7.5 6t-7.5 7l-6.5 6.5
l-7 7t-6 7l-94 99q-20 22 -20 36q0 7 6 12t12 5q8 0 36 -17z" />
    <glyph glyph-name="florin" unicode="&#x192;" horiz-adv-x="720" 
d="M235 126l41 266h-33q-41 0 -56 11.5t-15 36.5t15 36.5t56 11.5h47q19 154 102.5 236t214.5 82q66 0 114.5 -33.5t48.5 -78.5q0 -30 -23 -53.5t-53 -23.5q-24 0 -43.5 16.5t-35 32.5t-31.5 16q-33 0 -47 -40.5t-30 -153.5h30q41 0 56 -11.5t15 -36.5t-15 -36.5t-56 -11.5
h-40l-49 -298q-17 -104 -73 -177.5t-127 -106t-150 -32.5q-93 0 -155 41.5t-62 89.5q0 36 25 60t62 24q23 0 41 -16.5t28.5 -37t29.5 -37t42 -16.5q50 0 78.5 60t47.5 180z" />
    <glyph glyph-name="circumflex" unicode="&#x2c6;" 
d="M166 636l-126 -75q-25 -17 -36 -17q-7 0 -12.5 5.5t-5.5 13.5q0 10 20 34l94 99q1 1 7.5 8t8.5 9t7.5 7t8 7t8 6t9 5t8 2.5t9.5 1.5q4 0 8 -1t8 -3l7 -3.5t7.5 -5l7.5 -6t7.5 -7l6.5 -6.5l7 -7t6 -7l94 -99q20 -22 20 -36q0 -7 -6 -12t-12 -5q-8 0 -36 17z" />
    <glyph glyph-name="caron" unicode="&#x2c7;" 
d="M164 650l126 75q25 17 36 17q7 0 12.5 -5.5t5.5 -13.5q0 -10 -20 -34l-94 -99q-1 -1 -7.5 -8t-8.5 -9l-7.5 -7.5t-8 -7t-8 -5.5t-9 -5t-8 -2.5t-9.5 -1.5q-4 0 -8 1t-8 3l-7 3.5t-7.5 5l-7.5 6t-7.5 7l-6.5 6.5l-7 7t-6 7l-94 99q-20 22 -20 36q0 7 6 12t12 5q8 0 36 -17
z" />
    <glyph glyph-name="uni02C9" unicode="&#x2c9;" 
d="M69 685h192q44 0 62.5 -11.5t18.5 -43.5t-18.5 -43.5t-62.5 -11.5h-192q-44 0 -62.5 11.5t-18.5 43.5t18.5 43.5t62.5 11.5z" />
    <glyph glyph-name="breve" unicode="&#x2d8;" 
d="M326 707q19 0 19 -28q0 -58 -54.5 -104.5t-125.5 -46.5t-125.5 46.5t-54.5 104.5q0 32 18 32q9 0 18.5 -10t20.5 -24t25.5 -28t40 -24t57.5 -10q39 0 69 14.5t43 31.5t26 31.5t23 14.5z" />
    <glyph glyph-name="dotaccent" unicode="&#x2d9;" 
d="M165 554q-38 0 -61 23t-23 53t23 53t61 23t61 -23t23 -53t-23 -53t-61 -23z" />
    <glyph glyph-name="ring" unicode="&#x2da;" 
d="M165 775q49 0 84.5 -35t35.5 -85t-35.5 -85t-84.5 -35t-84.5 35t-35.5 85t35.5 85t84.5 35zM165 701q-19 0 -32.5 -13t-13.5 -33t13.5 -33t32.5 -13t32.5 13t13.5 33t-13.5 33t-32.5 13z" />
    <glyph glyph-name="ogonek" unicode="&#x2db;" 
d="M106 0h91q-50 -40 -50 -87q0 -41 42 -41q20 0 43.5 13.5t29.5 13.5q25 0 25 -29q0 -22 -36.5 -39t-93.5 -17q-50 0 -78 24t-28 68q0 50 55 94z" />
    <glyph glyph-name="tilde" unicode="&#x2dc;" 
d="M98 706q39 0 75.5 -17t64 -33.5t44.5 -16.5q15 0 36 21t30 21q19 0 19 -17q0 -33 -41.5 -71.5t-89.5 -38.5q-35 0 -71.5 17t-65 34t-44.5 17q-14 0 -25 -9.5t-16.5 -21t-13.5 -21t-16 -9.5q-21 0 -21 19q0 42 44 84t91 42z" />
    <glyph glyph-name="hungarumlaut" unicode="&#x2dd;" 
d="M86 732h46q18 0 28.5 -1.5t20.5 -10t10 -25.5q0 -22 -37 -45l-49.5 -34t-77.5 -51t-42 -21q-10 0 -17.5 6t-7.5 15q0 5 4 15t12 24t15.5 25.5l18.5 29.5t17 27q15 30 28 38t31 8zM296 732h45q18 0 28.5 -1.5t20.5 -10t10 -25.5q0 -22 -36 -45q-5 -3 -52 -33.5l-82 -51.5
t-43 -21q-10 0 -17.5 6t-7.5 15q0 5 4 15t12 24t15.5 25.5l18.5 29.5t17 27q18 30 32 38t35 8z" />
    <glyph glyph-name="uni03A9" unicode="&#x3a9;" horiz-adv-x="940" 
d="M898 222l-40 -222h-354l-14 34q121 225 121 383q0 138 -35.5 205.5t-109.5 67.5q-73 0 -105.5 -63.5t-32.5 -210.5q0 -157 117 -381l-10 -35h-361l-32 222h52q21 -45 40.5 -59.5t63.5 -14.5h98q-42 23 -74 45t-67 56t-54.5 79t-19.5 97q0 147 107 234.5t282 87.5
q176 0 282 -86.5t106 -230.5q0 -47 -19.5 -89.5t-56 -78.5t-70.5 -61t-81 -53h119q39 0 57 14.5t38 59.5h53z" />
    <glyph glyph-name="uni03BC" unicode="&#x3bc;" horiz-adv-x="670" 
d="M273 421v-241q0 -88 53 -88t53 88v182q0 22 -22 34t-22 27q0 19 7 27t27 13l131 29q16 4 38 4q36 0 48.5 -17t12.5 -58v-297q0 -21 8 -33t17.5 -15.5t17.5 -13t8 -25.5q0 -20 -14.5 -28.5t-48.5 -8.5h-123q-36 0 -48.5 9.5t-19.5 44.5q-55 -50 -123 -60v-126
q0 -33 -22.5 -43.5t-87.5 -10.5t-87.5 10.5t-22.5 43.5v494q-1 24 -22.5 38t-21.5 33q0 26 33 33l132 26q24 4 38 4q36 0 48.5 -17t12.5 -58z" />
    <glyph glyph-name="pi" unicode="&#x3c0;" horiz-adv-x="769" 
d="M699 550l43 -11q-1 -40 -20 -100t-34 -75q-32 -9 -78 -9q-6 -72 -5 -168q1 -87 48 -87q10 0 46 9l16 -42q-25 -32 -75.5 -56.5t-99.5 -24.5q-152 0 -152 156q0 81 11 215q-37 0 -65 1t-48 1v-3q0 -263 -79 -350q-53 -17 -96 -20l-14 32q57 79 86.5 174t29.5 170
q-52 1 -84 -5.5t-74 -28.5l-25 46q46 64 67 84q62 57 172 56q155 -3 352 -3q55 0 78 39z" />
    <glyph glyph-name="uni2010" unicode="&#x2010;" horiz-adv-x="360" 
d="M276 161h-192q-32 0 -45 19.5t-13 62.5t13 62.5t45 19.5h192q32 0 45 -19.5t13 -62.5t-13 -62.5t-45 -19.5z" />
    <glyph glyph-name="endash" unicode="&#x2013;" horiz-adv-x="500" 
d="M460 161h-420q-32 0 -45 19.5t-13 62.5t13 62.5t45 19.5h420q32 0 45 -19.5t13 -62.5t-13 -62.5t-45 -19.5z" />
    <glyph glyph-name="emdash" unicode="&#x2014;" horiz-adv-x="1000" 
d="M960 161h-920q-32 0 -45 19.5t-13 62.5t13 62.5t45 19.5h920q32 0 45 -19.5t13 -62.5t-13 -62.5t-45 -19.5z" />
    <glyph glyph-name="quoteleft" unicode="&#x2018;" horiz-adv-x="340" 
d="M174 468q-46 0 -80 26.5t-34 71.5q0 62 61 122t96 60q10 0 21 -7t11 -16q0 -3 -14 -17.5t-32 -38t-26 -45.5q18 4 27 4q32 0 54 -19.5t22 -51.5q0 -39 -33 -64t-73 -25z" />
    <glyph glyph-name="quoteright" unicode="&#x2019;" horiz-adv-x="340" 
d="M166 748q46 0 80 -26.5t34 -71.5q0 -62 -61 -122t-96 -60q-10 0 -21 7t-11 16q0 3 14 17.5t32 38t26 45.5q-18 -4 -27 -4q-32 0 -54 19.5t-22 51.5q0 39 33 64t73 25z" />
    <glyph glyph-name="quotesinglbase" unicode="&#x201a;" horiz-adv-x="340" 
d="M166 160q46 0 80 -26.5t34 -71.5q0 -62 -61 -122t-96 -60q-10 0 -21 7t-11 16q0 3 14 17.5t32 38t26 45.5q-18 -4 -27 -4q-32 0 -54 19.5t-22 51.5q0 39 33 64t73 25z" />
    <glyph glyph-name="quotedblleft" unicode="&#x201c;" horiz-adv-x="580" 
d="M161 468q-46 0 -80 26.5t-34 71.5q0 62 61 122t96 60q10 0 21 -7t11 -16q0 -3 -14 -17.5t-32 -38t-26 -45.5q18 4 27 4q32 0 54 -19.5t22 -51.5q0 -39 -33 -64t-73 -25zM427 468q-46 0 -80 26.5t-34 71.5q0 62 61 122t96 60q10 0 21 -7t11 -16q0 -3 -14 -17.5t-32 -38
t-26 -45.5q18 4 27 4q32 0 54 -19.5t22 -51.5q0 -39 -33 -64t-73 -25z" />
    <glyph glyph-name="quotedblright" unicode="&#x201d;" horiz-adv-x="580" 
d="M419 748q46 0 80 -26.5t34 -71.5q0 -62 -61 -122t-96 -60q-10 0 -21 7t-11 16q0 3 14 17.5t32 38t26 45.5q-18 -4 -27 -4q-32 0 -54 19.5t-22 51.5q0 39 33 64t73 25zM153 748q46 0 80 -26.5t34 -71.5q0 -62 -61 -122t-96 -60q-10 0 -21 7t-11 16q0 3 14 17.5t32 38
t26 45.5q-18 -4 -27 -4q-32 0 -54 19.5t-22 51.5q0 39 33 64t73 25z" />
    <glyph glyph-name="quotedblbase" unicode="&#x201e;" horiz-adv-x="580" 
d="M419 160q46 0 80 -26.5t34 -71.5q0 -62 -61 -122t-96 -60q-10 0 -21 7t-11 16q0 3 14 17.5t32 38t26 45.5q-18 -4 -27 -4q-32 0 -54 19.5t-22 51.5q0 39 33 64t73 25zM153 160q46 0 80 -26.5t34 -71.5q0 -62 -61 -122t-96 -60q-10 0 -21 7t-11 16q0 3 14 17.5t32 38
t26 45.5q-18 -4 -27 -4q-32 0 -54 19.5t-22 51.5q0 39 33 64t73 25z" />
    <glyph glyph-name="dagger" unicode="&#x2020;" horiz-adv-x="530" 
d="M222 -163l-41 454l31 131q-100 -17 -131 -17t-51.5 20t-20.5 52q0 30 21 50t51 20q17 0 44 -4t57 -9.5t31 -5.5q-2 22 -11.5 79t-9.5 75q0 28 22.5 47t50.5 19t50.5 -19t22.5 -47q0 -18 -9.5 -75t-11.5 -79q1 0 31 5.5t57 9.5t44 4q30 0 51 -20t21 -50q0 -32 -20.5 -52
t-51.5 -20t-131 17l31 -131l-41 -454q-1 -19 -3 -28.5t-12 -20t-28 -10.5t-28 10.5t-12 20t-3 28.5z" />
    <glyph glyph-name="daggerdbl" unicode="&#x2021;" horiz-adv-x="530" 
d="M318 422l13 -79l-13 -82q114 19 131 19q30 0 51 -20t21 -50q0 -32 -20.5 -52t-51.5 -20t-131 17l16 -107l-26 -239q-4 -35 -13.5 -48t-28.5 -13t-28.5 13t-13.5 48l-28 239l16 107q-100 -17 -131 -17t-51.5 20t-20.5 52q0 30 21 50t51 20q17 0 131 -19l-14 82l14 79
q-100 -17 -131 -17t-51.5 20t-20.5 52q0 30 21 50t51 20q17 0 131 -19q-2 25 -11 80.5t-9 73.5q0 28 22.5 47t50.5 19t50.5 -19t22.5 -47q0 -18 -9 -73.5t-11 -80.5q114 19 131 19q30 0 51 -20t21 -50q0 -32 -20.5 -52t-51.5 -20t-131 17z" />
    <glyph glyph-name="bullet" unicode="&#x2022;" horiz-adv-x="400" 
d="M17 366q0 76 53.5 129.5t129.5 53.5t129.5 -53.5t53.5 -129.5t-53.5 -129.5t-129.5 -53.5t-129.5 53.5t-53.5 129.5z" />
    <glyph glyph-name="ellipsis" unicode="&#x2026;" horiz-adv-x="1000" 
d="M167 180q46 0 84 -27.5t38 -70.5t-38 -70.5t-84 -27.5t-84 27.5t-38 70.5t38 70.5t84 27.5zM500 180q46 0 84 -27.5t38 -70.5t-38 -70.5t-84 -27.5t-84 27.5t-38 70.5t38 70.5t84 27.5zM833 180q46 0 84 -27.5t38 -70.5t-38 -70.5t-84 -27.5t-84 27.5t-38 70.5t38 70.5
t84 27.5z" />
    <glyph glyph-name="perthousand" unicode="&#x2030;" horiz-adv-x="1330" 
d="M1119 26q25 0 36 35.5t11 115.5t-11 115.5t-36 35.5t-36 -35.5t-11 -115.5t11 -115.5t36 -35.5zM125 38l530 666q22 28 34 34q18 10 50 10q41 0 41 -17q0 -11 -19 -34l-539 -685q-23 -28 -68 -28q-30 0 -40.5 3.5t-10.5 14.5q0 9 22 36zM211 404q25 0 36 35.5t11 115.5
t-11 115.5t-36 35.5t-36 -35.5t-11 -115.5t11 -115.5t36 -35.5zM924 177q0 83 56 138t139 55t139 -55t56 -138t-56 -138t-139 -55t-139 55t-56 138zM16 555q0 83 56 138t139 55t139 -55t56 -138t-56 -138t-139 -55t-139 55t-56 138zM478 177q0 83 56 138t139 55t139 -55
t56 -138t-56 -138t-139 -55t-139 55t-56 138zM673 26q25 0 36 35.5t11 115.5t-11 115.5t-36 35.5t-36 -35.5t-11 -115.5t11 -115.5t36 -35.5z" />
    <glyph glyph-name="guilsinglleft" unicode="&#x2039;" horiz-adv-x="230" 
d="M17 246q0 25 75 105t92 80q10 0 17.5 -5.5t7.5 -15.5q0 -13 -37 -78.5t-37 -80.5q0 -11 39 -84.5t39 -89.5q0 -10 -8 -16t-18 -6q-17 0 -93.5 84.5t-76.5 106.5z" />
    <glyph glyph-name="guilsinglright" unicode="&#x203a;" horiz-adv-x="230" 
d="M213 246q0 -22 -76.5 -106.5t-93.5 -84.5q-10 0 -18 6t-8 16q0 16 39 89.5t39 84.5q0 15 -37 80.5t-37 78.5q0 10 7.5 15.5t17.5 5.5q17 0 92 -80t75 -105z" />
    <glyph glyph-name="fraction" unicode="&#x2044;" horiz-adv-x="167" 
d="M317 682l-371 -654q-25 -44 -71 -44q-42 0 -42 26q0 5 1.5 10t3.5 8.5l6.5 11l7.5 12.5l369 652q25 44 71 44q42 0 42 -26q0 -9 -17 -40z" />
    <glyph glyph-name="Euro" unicode="&#x20ac;" horiz-adv-x="720" 
d="M546 296q0 -48 -56 -48h-117q12 -178 118 -178q41 0 67 20.5t51 58.5q3 4 9 14.5t9 14l8.5 9.5t12 8t15.5 2q36 0 36 -43q0 -27 -21.5 -62t-53.5 -60q-63 -48 -153 -48q-142 0 -226.5 65t-116.5 199h-43q-56 0 -56 48t56 48h32v20q0 24 1 36h-33q-56 0 -56 48t56 48h50
q33 116 118.5 184t198.5 68q130 0 194 -56q21 -19 26.5 -42t5.5 -98q0 -23 -11.5 -35.5t-30.5 -12.5q-28 0 -43 24.5t-21 54.5t-30 54.5t-67 24.5q-84 0 -102 -166h117q56 0 56 -48t-56 -48h-123v-23v-33h123q56 0 56 -48z" />
    <glyph glyph-name="afii61289" unicode="&#x2113;" horiz-adv-x="611" 
d="M551 194l35 -36q-103 -173 -265 -173q-109 0 -160 48q-27 28 -41.5 66.5t-14.5 116.5v26l-70 -33l-19 48l89 51v143q0 101 15 161.5t52 108.5q76 95 184 95q79 0 118 -49t39 -120q0 -89 -47.5 -155t-158.5 -146v-72q0 -90 22.5 -133t78.5 -43q70 0 143 96zM307 515v-90
q30 34 45 56.5t27.5 66t12.5 100.5q0 114 -45 114q-29 0 -34.5 -44.5t-5.5 -202.5z" />
    <glyph glyph-name="trademark" unicode="&#x2122;" horiz-adv-x="990" 
d="M256 692v-304q0 -25 8 -32.5t39 -9.5v-32h-217v32q32 2 40 9.5t8 32.5v304h-38q-54 0 -59 -48h-32v88h379v-88h-32q-5 48 -59 48h-37zM663 315l-131 285h-2v-181q0 -42 11 -56.5t37 -16.5v-32h-135v32q25 2 34 16t9 57v220q-3 24 -21.5 38.5t-42.5 16.5v38h157l125 -266
l139 266h142v-38q-31 -1 -39.5 -9.5t-8.5 -32.5v-264q0 -25 8 -32.5t39 -9.5v-32h-216v32q31 2 39 9.5t8 32.5v204h-3l-133 -277h-16z" />
    <glyph glyph-name="Omega" unicode="&#x2126;" horiz-adv-x="940" 
d="M898 222l-40 -222h-354l-14 34q121 225 121 383q0 138 -35.5 205.5t-109.5 67.5q-73 0 -105.5 -63.5t-32.5 -210.5q0 -157 117 -381l-10 -35h-361l-32 222h52q21 -45 40.5 -59.5t63.5 -14.5h98q-42 23 -74 45t-67 56t-54.5 79t-19.5 97q0 147 107 234.5t282 87.5
q176 0 282 -86.5t106 -230.5q0 -47 -19.5 -89.5t-56 -78.5t-70.5 -61t-81 -53h119q39 0 57 14.5t38 59.5h53z" />
    <glyph glyph-name="estimated" unicode="&#x212e;" horiz-adv-x="920" 
d="M883 355h-686q-6 0 -6 -5v-207q0 -11 9 -24q110 -113 260 -113q80 0 150.5 33.5t122.5 92.5h61q-58 -68 -146.5 -107.5t-188.5 -39.5q-175 0 -299 111t-124 269t123.5 269.5t299.5 111.5t300 -111.5t124 -269.5v-10zM727 382v209q0 15 -10 24q-109 109 -257 109
q-149 0 -258 -112q-11 -11 -11 -26v-204q0 -7 6 -7h526q4 0 4 7z" />
    <glyph glyph-name="partialdiff" unicode="&#x2202;" horiz-adv-x="713" 
d="M329 470h1q42 0 78.5 -14.5t53.5 -39.5q13 56 15 122q1 29 0.5 53t-7 50t-20.5 50q-27 43 -83 43q-79 0 -195 -98q-14 0 -35.5 25.5t-33.5 59.5t-3 54q33 14 48 19.5t54.5 13t88.5 7.5q192 0 297 -159q72 -112 72 -245q0 -149 -68 -261q-97 -164 -296 -164
q-113 0 -181 62.5t-68 165.5q0 110 77 183q80 73 205 73zM387 399h-1q-53 0 -84 -58q-45 -80 -45 -208q0 -94 52 -94q42 0 84 99q39 93 56 213q-26 48 -62 48z" />
    <glyph glyph-name="uni2206" unicode="&#x2206;" horiz-adv-x="835" 
d="M792 0h-750v56l318 669l102 21l330 -690v-56zM526 92l-189 419l-187 -419h376z" />
    <glyph glyph-name="product" unicode="&#x220f;" horiz-adv-x="928" 
d="M893 763v-50q-74 -6 -91 -26.5t-17 -101.5v-492q0 -80 17.5 -100.5t92.5 -26.5v-50h-417v50q60 5 72 23.5t12 103.5v564q0 29 -7.5 35.5t-36.5 6.5h-112q-28 0 -34.5 -7t-6.5 -36v-563q0 -85 11 -103.5t66 -23.5v-50h-410v50q73 6 91 27t18 100v492q0 81 -18.5 102
t-94.5 26v50h865z" />
    <glyph glyph-name="summation" unicode="&#x2211;" horiz-adv-x="723" 
d="M696 192l-65 -289h-604v55l248 314l-239 436v55h592q0 -5 5.5 -89t10.5 -137l-51 -14q-31 88 -55 128q-19 32 -41 43t-83 11h-120l161 -305l-257 -327h262q38 0 55.5 2t36 7t31.5 22t26 37.5t35 64.5z" />
    <glyph glyph-name="minus" unicode="&#x2212;" horiz-adv-x="600" 
d="M543 165h-486v156h486v-156z" />
    <glyph glyph-name="uni2215" unicode="&#x2215;" horiz-adv-x="167" 
d="M317 682l-371 -654q-25 -44 -71 -44q-42 0 -42 26q0 5 1.5 10t3.5 8.5l6.5 11l7.5 12.5l369 652q25 44 71 44q42 0 42 -26q0 -9 -17 -40z" />
    <glyph glyph-name="uni2219" unicode="&#x2219;" horiz-adv-x="360" 
d="M80 243q0 41 29.5 70.5t70.5 29.5t70.5 -29.5t29.5 -70.5t-29.5 -70.5t-70.5 -29.5t-70.5 29.5t-29.5 70.5z" />
    <glyph glyph-name="radical" unicode="&#x221a;" horiz-adv-x="682" 
d="M684 925l-214 -1099l-53 -19l-251 563l-102 -44l-19 59l262 115l148 -357h2l151 795z" />
    <glyph glyph-name="infinity" unicode="&#x221e;" horiz-adv-x="863" 
d="M816 305v-1q0 -96 -57 -153t-135 -57q-33 0 -59 5.5t-65 32.5t-71 77q-44 -58 -89 -86.5t-107 -28.5q-76 0 -132 55.5t-56 146.5q0 92 57 149t143 57q62 0 107.5 -25.5t86.5 -82.5q2 2 10 12t12 14t13 14t15.5 15l17 13.5t19.5 13l21.5 10.5t24.5 9t26.5 5t29.5 2
q78 -1 133 -55t55 -142zM245 205h3q59 0 122 86q-26 40 -37.5 55.5t-35 31t-52.5 15.5q-37 0 -62 -25t-25 -71q0 -37 26 -64.5t61 -27.5zM617 393h-1q-25 0 -50 -16.5t-38 -32t-34 -44.5q40 -59 67.5 -77t62.5 -18t56.5 29t21.5 61q0 41 -23 69.5t-62 28.5z" />
    <glyph glyph-name="integral" unicode="&#x222b;" horiz-adv-x="522" 
d="M194 -50l-26 416q-6 94 0.5 171.5t21 130t37 92.5t46 62.5t50.5 36.5t47.5 18.5t40.5 4.5q42 0 75.5 -22t33.5 -56q0 -43 -25.5 -66.5t-59.5 -23.5q-18 0 -31 15t-19 33t-13 33t-15 15q-13 0 -15 -26.5t3 -114.5l23 -387q8 -132 -10 -235.5t-55 -165.5t-84.5 -93.5
t-102.5 -31.5q-42 0 -74.5 24t-33.5 58q-1 38 34 65.5t70 27.5q20 0 32 -26t19.5 -52.5t16.5 -26.5q14 0 16.5 32t-2.5 92z" />
    <glyph glyph-name="approxequal" unicode="&#x2248;" horiz-adv-x="644" 
d="M534 518l80 -80q-40 -59 -88.5 -89t-90.5 -30q-60 0 -128 41q-54 33 -91 33q-33 0 -58.5 -18.5t-56.5 -55.5l-78 80q29 47 84.5 82t110.5 35q65 0 116 -33q39 -25 55.5 -32.5t37.5 -7.5q50 0 107 75zM534 291l80 -80q-40 -58 -88 -88.5t-93 -30.5q-56 0 -126 41
q-56 33 -90 33q-24 0 -46 -11.5t-35 -24t-35 -37.5l-78 80q29 46 85 81t111 35q61 0 114 -32q5 -3 21 -13.5t23.5 -14.5t21 -8.5t26.5 -4.5q30 0 53 17.5t56 57.5z" />
    <glyph glyph-name="notequal" unicode="&#x2260;" horiz-adv-x="644" 
d="M494 556l-34 -76h132v-121h-183l-53 -122h236v-121h-288l-54 -121l-97 43l35 78h-136v121h187l53 122h-240v121h291l53 119z" />
    <glyph glyph-name="lessequal" unicode="&#x2264;" horiz-adv-x="644" 
d="M592 145l-539 234v129l538 233v-133l-411 -163v-3l412 -164v-133zM593 -13h-540v124h540v-124z" />
    <glyph glyph-name="greaterequal" unicode="&#x2265;" horiz-adv-x="644" 
d="M54 741l538 -234v-129l-537 -233v133l410 165v2l-411 163v133zM586 -13h-532v124h532v-124z" />
    <glyph glyph-name="lozenge" unicode="&#x25ca;" horiz-adv-x="727" 
d="M681 357l-243 -440h-152l-241 440l245 443h149zM539 357l-173 329h-6l-173 -329l174 -332h4z" />
    <glyph glyph-name="fi" unicode="&#xfb01;" horiz-adv-x="710" 
d="M300 486h279q44 0 58 -16.5t14 -73.5v-280q0 -28 19 -43.5t19 -33.5q0 -14 -14 -26.5t-38 -12.5h-192q-24 0 -38 12.5t-14 26.5q0 18 19 33.5t19 43.5v162q0 78 -16 95t-94 17h-21v-268q0 -20 8 -32t17.5 -15.5t17.5 -12t8 -23.5q0 -39 -64 -39h-194q-64 0 -64 39
q0 15 8 23.5t17.5 12t17.5 15.5t8 32v268h-16q-51 0 -51 48t51 48h16v17q0 79 18 130.5t57.5 78.5t89.5 37.5t125 10.5q142 0 201 -37.5t59 -89.5q0 -44 -27 -67t-76 -23q-39 0 -70.5 21t-37.5 57q-3 20 -15.5 28.5t-39.5 8.5q-39 0 -51.5 -13t-12.5 -58v-101z" />
    <glyph glyph-name="fl" unicode="&#xfb02;" horiz-adv-x="710" 
d="M300 390v-266q0 -20 8 -32t17.5 -15.5t17.5 -12t8 -23.5q0 -39 -64 -39h-194q-64 0 -64 39q0 15 8 23.5t17.5 12t17.5 15.5t8 32v268h-16q-51 0 -51 48t51 48h16v56q0 96 54.5 156t160.5 60h304q34 0 47 -21.5t13 -90.5v-532q0 -18 8 -29t18 -14.5t18 -12t8 -21.5
q0 -14 -14 -26.5t-38 -12.5h-220q-24 0 -38 12.5t-14 26.5q0 13 8 21.5t18 12t18 14.5t8 29v472q0 41 -17.5 56.5t-52.5 15.5q-40 0 -54.5 -19t-14.5 -69v-86h49q51 0 51 -48t-51 -48h-49z" />
    <glyph glyph-name="a.superior" horiz-adv-x="460" 
d="M400 632v-105q0 -20 17 -31.5t17 -23.5q0 -22 -33 -22h-97q-22 0 -30 5.5t-12 25.5q-27 -37 -97 -37q-58 0 -89.5 28.5t-31.5 66.5q0 103 210 103q-1 34 -9 46t-29 12q-16 0 -39 -22.5t-51 -22.5q-54 0 -54 35q0 58 159 58q50 0 85 -8.5t59.5 -35.5t24.5 -72zM188 538
q0 -16 8 -25t21 -9q39 0 39 94q-30 0 -49 -16t-19 -44z" />
    <glyph glyph-name="o.superior" horiz-adv-x="460" 
d="M230 748q77 0 138.5 -41.5t62.5 -110.5q-1 -70 -62 -111t-139 -41t-139 41t-62 111q1 69 62 110.5t139 41.5zM179 596q0 -100 51 -100t51 100t-51 100t-51 -100z" />
    <glyph glyph-name="one.superior" horiz-adv-x="420" 
d="M334 299h-234q-22 0 -30 6t-8 20q0 26 39 26t39 25v228q0 31 -8 39.5t-37 8.5q-26 0 -33.5 5t-7.5 19q0 15 23 23l99 28q3 1 19 7t30.5 10t26.5 4q23 0 33.5 -10.5t10.5 -40.5v-321q0 -25 36 -25q39 0 39 -26q0 -14 -8 -20t-29 -6z" />
    <glyph glyph-name="two.superior" horiz-adv-x="420" 
d="M200 393h72q38 0 60.5 8.5t33 16.5t20.5 8q22 0 22 -21q0 -5 -4 -18l-9.5 -30.5t-7.5 -27.5q-4 -18 -13 -24t-36 -6h-279q-47 0 -47 31q0 25 23 55t56 59l65.5 59.5t55.5 67t23 71.5q0 52 -46 52q-20 0 -35.5 -14t-15.5 -34q0 -9 6.5 -22.5t6.5 -20.5q0 -16 -17.5 -26
t-43.5 -10q-31 0 -50.5 16t-19.5 45q0 54 56 87t140 33q86 0 134.5 -34t48.5 -85q0 -36 -23 -72.5t-48.5 -59t-68.5 -56t-59 -48.5z" />
    <glyph glyph-name="three.superior" horiz-adv-x="420" 
d="M38 645q0 46 46 74.5t123 28.5q80 0 129 -31.5t49 -82.5q0 -38 -27 -62.5t-70 -33.5v-2q51 -7 84 -37.5t33 -76.5q0 -60 -56.5 -96.5t-144.5 -36.5t-139 26.5t-51 68.5q0 49 65 49q30 0 42 -8.5t15 -34.5q4 -32 13 -43.5t33 -11.5q28 0 44.5 21.5t16.5 63.5q0 44 -20 64
t-78 20q-25 0 -35.5 5t-10.5 19q0 16 8 22t32 6q46 0 67 20.5t21 65.5q0 54 -37 54q-34 0 -34 -28q0 -5 3.5 -17t3.5 -18q0 -33 -59 -33q-66 0 -66 45z" />
    </font>
</defs>
</svg>
