<?xml version="1.0" encoding="UTF-8" standalone="no"?>
<!-- Generator: Adobe Illustrator 17.1.0, SVG Export Plug-In . SVG Version: 6.00 Build 0)  -->

<svg
   xmlns:dc="http://purl.org/dc/elements/1.1/"
   xmlns:cc="http://creativecommons.org/ns#"
   xmlns:rdf="http://www.w3.org/1999/02/22-rdf-syntax-ns#"
   xmlns:svg="http://www.w3.org/2000/svg"
   xmlns="http://www.w3.org/2000/svg"
   xmlns:sodipodi="http://sodipodi.sourceforge.net/DTD/sodipodi-0.dtd"
   xmlns:inkscape="http://www.inkscape.org/namespaces/inkscape"
   version="1.1"
   id="Capa_1"
   x="0px"
   y="0px"
   viewBox="0 0 463.76199 97.791994"
   enable-background="new 0 0 841.89 595.28"
   xml:space="preserve"
   inkscape:version="0.91 r13725"
   sodipodi:docname="logo.svg"
   width="463.76199"
   height="97.792"><metadata
     id="metadata107"><rdf:RDF><cc:Work
         rdf:about=""><dc:format>image/svg+xml</dc:format><dc:type
           rdf:resource="http://purl.org/dc/dcmitype/StillImage" /><dc:title></dc:title></cc:Work></rdf:RDF></metadata><defs
     id="defs105" /><sodipodi:namedview
     pagecolor="#ffffff"
     bordercolor="#666666"
     borderopacity="1"
     objecttolerance="10"
     gridtolerance="10"
     guidetolerance="10"
     inkscape:pageopacity="0"
     inkscape:pageshadow="2"
     inkscape:window-width="1440"
     inkscape:window-height="875"
     id="namedview103"
     showgrid="false"
     fit-margin-top="15"
     fit-margin-left="15"
     fit-margin-right="15"
     fit-margin-bottom="15"
     inkscape:zoom="2.3999336"
     inkscape:cx="156.39281"
     inkscape:cy="48.896008"
     inkscape:window-x="1440"
     inkscape:window-y="0"
     inkscape:window-maximized="1"
     inkscape:current-layer="Capa_1" /><g
     id="g3"
     transform="translate(-189.187,-249.323)"><path
       d="m 216.324,307.754 -12.137,0 0,-4.105 5.354,0 0,-34.625 -5.354,0 0,-4.105 12.732,0 c 10.59,0 17.61,2.916 17.61,21.418 0,18.323 -7.496,21.417 -18.205,21.417 z m 1.428,-38.136 -2.856,0 0,33.436 2.38,0 c 7.615,0 11.899,-2.796 11.899,-16.718 0,-14.398 -4.284,-16.718 -11.423,-16.718 z"
       id="path5"
       inkscape:connector-curvature="0"
       style="fill:#535b67" /><path
       d="m 246.413,294.249 c 0.476,9.341 5.057,9.4 8.091,9.4 3.034,0 8.15,-1.547 8.15,-1.547 l 0,4.759 c 0,0 -4.105,1.487 -8.15,1.487 -6.188,0 -13.386,-1.487 -13.386,-15.766 0,-12.435 5.89,-15.766 11.899,-15.766 5.533,0 11.304,1.963 11.304,15.766 l 0,1.666 -17.908,0 z m 6.604,-13.386 c -3.867,0 -6.068,1.963 -6.544,9.697 l 12.553,0 c -0.001,-8.269 -2.797,-9.697 -6.009,-9.697 z"
       id="path7"
       inkscape:connector-curvature="0"
       style="fill:#535b67" /><path
       d="m 283.51,308.349 c -4.998,0 -12.672,-2.261 -12.672,-15.587 0,-13.445 8.389,-15.944 12.375,-15.944 4.462,0 7.258,1.13 7.258,1.13 l 0,8.984 -4.105,0 0,-5.354 c -0.773,-0.119 -1.487,-0.179 -2.975,-0.179 -3.094,0 -7.199,2.023 -7.199,11.363 0,8.389 3.629,10.828 7.318,10.828 2.915,0 6.961,-1.25 6.961,-1.25 l 0,4.819 c 0,0 -3.332,1.19 -6.961,1.19 z"
       id="path9"
       inkscape:connector-curvature="0"
       style="fill:#535b67" /><path
       d="m 295.72,307.754 0,-4.105 5.354,0 0,-22.132 -5.354,0 0,-4.105 10.709,0 0,26.237 5.354,0 0,4.105 -16.063,0 z m 8.032,-36.292 c -1.963,0 -3.51,-1.606 -3.51,-3.569 0,-1.963 1.547,-3.57 3.51,-3.57 1.963,0 3.51,1.606 3.51,3.57 0,1.964 -1.547,3.569 -3.51,3.569 z"
       id="path11"
       inkscape:connector-curvature="0"
       style="fill:#535b67" /><path
       d="m 336.35,307.754 -0.595,-2.677 c -0.655,0.654 -3.272,3.272 -8.032,3.272 -4.522,0 -11.602,-2.201 -11.602,-15.766 0,-13.803 8.805,-15.766 12.791,-15.766 3.927,0 6.128,2.023 6.842,2.796 l 0,-10.59 -5.354,0 0,-4.105 10.708,0 0,38.731 5.354,0 0,4.105 -10.112,0 z m -0.595,-23.976 c -0.833,-0.654 -3.213,-2.499 -6.247,-2.499 -3.629,0 -8.032,1.606 -8.032,11.304 0,10.292 4.105,11.363 7.437,11.363 3.094,0 5.831,-2.261 6.842,-3.094 l 0,-17.074 z"
       id="path13"
       inkscape:connector-curvature="0"
       style="fill:#535b67" /><path
       d="m 350.958,307.754 0,-4.105 5.354,0 0,-22.132 -5.354,0 0,-4.105 10.709,0 0,26.237 5.354,0 0,4.105 -16.063,0 z m 8.032,-36.292 c -1.963,0 -3.51,-1.606 -3.51,-3.569 0,-1.963 1.547,-3.57 3.51,-3.57 1.963,0 3.51,1.606 3.51,3.57 0,1.964 -1.547,3.569 -3.51,3.569 z"
       id="path15"
       inkscape:connector-curvature="0"
       style="fill:#535b67" /><path
       d="m 411.311,307.754 0,-21.775 c 0,-3.808 -1.785,-4.343 -4.165,-4.343 -3.451,0 -7.734,3.332 -7.734,3.332 l 0,18.681 5.354,0 0,4.105 -10.709,0 0,-21.775 c 0,-3.808 -1.785,-4.343 -4.165,-4.343 -3.927,0 -7.734,3.332 -7.734,3.332 l 0,18.681 5.354,0 0,4.105 -16.063,0 0,-4.105 5.354,0 0,-22.132 -5.354,0 0,-4.105 10.114,0 0.595,3.629 c 0,0 4.284,-4.224 9.103,-4.224 3.689,0 6.961,1.606 7.556,4.7 0,0 4.462,-4.7 9.698,-4.7 4.998,0 8.151,2.142 8.151,9.4 l 0,17.432 5.354,0 0,4.105 -10.709,0 z"
       id="path17"
       inkscape:connector-curvature="0"
       style="fill:#535b67" /><path
       d="m 439.925,308.349 c -6.96,0 -14.754,-2.796 -14.754,-22.013 0,-19.276 9.638,-22.013 14.933,-22.013 5.354,0 8.865,1.785 8.865,1.785 l 0,10.471 -5.593,0 0,-5.176 c 0,0 -1.189,-0.297 -2.855,-0.297 -3.57,0 -7.021,3.034 -7.021,15.23 0,10.888 2.559,15.171 7.021,15.171 3.808,0 8.448,-1.785 8.448,-1.785 l 0,6.723 c 0,0 -3.748,1.904 -9.044,1.904 z"
       id="path19"
       inkscape:connector-curvature="0"
       style="fill:#535b67" /><path
       d="m 471.139,307.754 -0.595,-2.618 c 0,0 -3.094,3.212 -8.329,3.212 -3.867,0 -8.924,-1.725 -8.924,-9.34 0,-8.151 6.604,-9.876 11.899,-9.876 l 5.354,0 0,-2.023 c 0,-3.094 -1.606,-3.569 -4.462,-3.569 -4.462,0 -9.936,1.785 -9.936,1.785 l 0,-6.604 c 0,0 5.414,-1.904 11.364,-1.904 6.187,0 11.363,1.666 11.363,10.352 l 0,14.993 5.354,0 0,5.592 -13.088,0 z m -0.595,-13.921 -2.083,0 c -4.581,0 -6.842,0.952 -6.842,4.7 0,2.559 1.487,3.629 3.629,3.629 2.915,0 5.295,-1.547 5.295,-1.547 l 0,-6.782 z"
       id="path21"
       inkscape:connector-curvature="0"
       style="fill:#535b67" /><path
       d="m 497.837,308.349 c -3.986,0 -9.936,-1.487 -9.936,-1.487 l 0,-9.757 5.593,0 0,4.224 c 0,0 2.32,0.417 3.926,0.417 2.677,0 4.641,-0.595 4.641,-2.559 0,-1.963 -2.38,-2.499 -4.7,-3.212 l -2.499,-0.773 c -3.272,-1.011 -7.556,-2.915 -7.556,-8.865 0,-7.675 6.009,-9.519 12.256,-9.519 5.771,0 9.281,1.487 9.281,1.487 l 0,9.162 -5.592,0 0,-3.808 c 0,0 -1.904,-0.297 -3.927,-0.297 -2.439,0 -3.986,0.654 -3.986,2.38 0,1.904 2.558,2.439 4.998,3.272 l 2.975,1.012 c 3.272,1.13 6.842,3.391 6.842,8.448 -0.001,8.685 -6.129,9.875 -12.316,9.875 z"
       id="path23"
       inkscape:connector-curvature="0"
       style="fill:#535b67" /><path
       d="m 526.765,308.349 c -4.284,0 -8.626,-1.071 -8.626,-8.507 l 0,-16.837 -5.354,0 0,-5.592 5.354,0 0,-9.519 8.329,0 0,9.519 6.901,0 0,5.592 -6.901,0 0,16.718 c 0,1.785 0.952,2.023 2.023,2.023 1.368,0 5.711,-1.071 5.711,-1.071 l 0,6.306 c 0,-10e-4 -3.57,1.368 -7.437,1.368 z"
       id="path25"
       inkscape:connector-curvature="0"
       style="fill:#535b67" /><path
       d="m 545.501,295.32 c 0.417,5.473 3.689,6.425 6.307,6.425 4.224,0 9.638,-1.606 9.638,-1.606 l 0,6.604 c 0,0 -4.522,1.606 -9.638,1.606 -6.544,0 -14.576,-1.963 -14.576,-15.766 0,-12.435 7.021,-15.766 13.386,-15.766 5.949,0 12.732,2.677 12.732,15.766 l 0,2.737 -17.849,0 z m 5.117,-13.089 c -3.57,0 -4.819,1.963 -5.117,7.853 l 9.757,0 c -0.178,-6.187 -1.606,-7.853 -4.64,-7.853 z"
       id="path27"
       inkscape:connector-curvature="0"
       style="fill:#535b67" /><path
       d="m 565.828,307.754 0,-5.592 5.354,0 0,-31.651 -5.354,0 0,-5.593 13.684,0 0,37.244 5.354,0 0,5.592 -19.038,0 z"
       id="path29"
       inkscape:connector-curvature="0"
       style="fill:#535b67" /><path
       d="m 587.651,307.754 0,-5.592 5.354,0 0,-31.651 -5.354,0 0,-5.593 13.684,0 0,37.244 5.354,0 0,5.592 -19.038,0 z"
       id="path31"
       inkscape:connector-curvature="0"
       style="fill:#535b67" /><path
       d="m 623.551,308.349 c -6.366,0 -14.397,-2.379 -14.397,-15.766 0,-12.97 7.793,-15.766 14.397,-15.766 6.544,0 14.398,2.38 14.398,15.766 0,13.624 -8.092,15.766 -14.398,15.766 z m 0,-25.642 c -3.272,0 -6.068,1.19 -6.068,9.876 0,8.567 3.391,9.816 6.068,9.816 2.677,0 6.068,-1.13 6.068,-9.816 10e-4,-8.984 -2.796,-9.876 -6.068,-9.876 z m 3.986,-8.865 -8.27,0 4.343,-9.519 8.626,0 -4.699,9.519 z"
       id="path33"
       inkscape:connector-curvature="0"
       style="fill:#535b67" /></g><g
     id="g35"
     transform="translate(-189.187,-249.323)"><path
       d="m 207.801,325.584 0,3.489 -1.825,0 0,-11.205 2.385,0 c 2.625,0 4.242,0.625 4.242,3.81 0,2.978 -1.681,3.874 -4.802,3.906 z m 0.624,-6.242 -0.625,0 0,4.914 c 2.081,-0.064 2.978,-0.48 2.978,-2.545 0,-2.241 -0.912,-2.369 -2.353,-2.369 z"
       id="path37"
       inkscape:connector-curvature="0"
       style="fill:#535b67" /><path
       d="m 214.337,329.074 0,-11.524 1.825,0 0,11.524 -1.825,0 z"
       id="path39"
       inkscape:connector-curvature="0"
       style="fill:#535b67" /><path
       d="m 222.989,329.074 -0.208,-0.88 c 0,0 -0.769,1.041 -2.241,1.041 -1.041,0 -2.449,-0.4 -2.449,-2.689 0,-2.321 1.873,-2.721 3.217,-2.721 l 1.425,0 0,-0.785 c 0,-1.008 -0.528,-1.104 -1.409,-1.104 -0.977,0 -2.321,0.4 -2.481,0.448 l 0,-1.488 c 0,0 1.329,-0.464 2.785,-0.464 1.601,0 2.929,0.416 2.929,2.753 l 0,5.891 -1.568,0 z m -0.256,-4.21 -0.849,0.016 c -1.296,0.032 -1.969,0.32 -1.969,1.569 0,1.168 0.528,1.376 1.185,1.376 0.88,0 1.633,-0.656 1.633,-0.656 l 0,-2.305 z"
       id="path41"
       inkscape:connector-curvature="0"
       style="fill:#535b67" /><path
       d="m 229.622,329.234 c -1.185,0 -2.113,-0.384 -2.113,-2.209 l 0,-5.138 -1.44,0 0,-1.296 1.44,0 0.112,-1.905 1.712,-0.656 0,2.561 1.921,0 -0.192,1.296 -1.729,0 0,5.154 c 0,0.624 0.272,0.704 0.688,0.704 0.448,0 1.473,-0.288 1.473,-0.288 l 0,1.457 c 0.001,0 -0.896,0.32 -1.872,0.32 z"
       id="path43"
       inkscape:connector-curvature="0"
       style="fill:#535b67" /><path
       d="m 237.666,329.074 -0.208,-0.88 c 0,0 -0.769,1.041 -2.241,1.041 -1.041,0 -2.449,-0.4 -2.449,-2.689 0,-2.321 1.873,-2.721 3.217,-2.721 l 1.425,0 0,-0.785 c 0,-1.008 -0.528,-1.104 -1.409,-1.104 -0.977,0 -2.321,0.4 -2.481,0.448 l 0,-1.488 c 0,0 1.329,-0.464 2.785,-0.464 1.601,0 2.929,0.416 2.929,2.753 l 0,5.891 -1.568,0 z m -0.256,-4.21 -0.849,0.016 c -1.296,0.032 -1.969,0.32 -1.969,1.569 0,1.168 0.528,1.376 1.185,1.376 0.88,0 1.633,-0.656 1.633,-0.656 l 0,-2.305 z"
       id="path45"
       inkscape:connector-curvature="0"
       style="fill:#535b67" /><path
       d="m 245.019,318.862 c -0.688,0 -1.008,0.32 -1.008,1.056 l 0,0.672 1.921,0 -0.192,1.296 -1.729,0 0,7.187 -1.825,0 0,-7.187 -1.44,0 0,-1.296 1.44,0 0,-0.672 c 0,-1.921 1.185,-2.529 2.625,-2.529 1.041,0 1.841,0.352 1.841,0.352 l 0,1.393 c 0,0 -0.897,-0.272 -1.633,-0.272 z"
       id="path47"
       inkscape:connector-curvature="0"
       style="fill:#535b67" /><path
       d="m 250.437,329.234 c -1.617,0 -3.666,-0.561 -3.666,-4.402 0,-3.762 2.033,-4.402 3.666,-4.402 1.633,0 3.666,0.544 3.666,4.402 -0.001,3.906 -2.066,4.402 -3.666,4.402 z m 0,-7.475 c -0.88,0 -1.841,0.256 -1.841,3.073 0,2.785 1.121,3.057 1.841,3.057 0.72,0 1.841,-0.288 1.841,-3.057 -0.001,-2.881 -0.961,-3.073 -1.841,-3.073 z"
       id="path49"
       inkscape:connector-curvature="0"
       style="fill:#535b67" /><path
       d="m 259.191,322.207 c -0.752,0 -1.217,0.496 -1.217,0.496 l 0,6.371 -1.825,0 0,-8.483 1.441,0 0.24,0.992 c 0,0 0.48,-1.152 1.697,-1.152 0.416,0 0.816,0.096 0.816,0.096 l 0,1.841 c 10e-4,-10e-4 -0.623,-0.161 -1.152,-0.161 z"
       id="path51"
       inkscape:connector-curvature="0"
       style="fill:#535b67" /><path
       d="m 271.235,329.074 0,-6.114 c 0,-0.816 -0.384,-0.96 -0.992,-0.96 -0.816,0 -1.825,0.672 -1.825,0.672 l 0,6.402 -1.825,0 0,-6.114 c 0,-0.816 -0.384,-0.96 -0.993,-0.96 -0.912,0 -1.825,0.672 -1.825,0.672 l 0,6.402 -1.825,0 0,-8.483 1.457,0 0.32,0.928 c 0,0 1.088,-1.088 2.465,-1.088 1.024,0 1.793,0.4 2.033,1.217 0.336,-0.304 1.344,-1.217 2.609,-1.217 1.345,0 2.225,0.608 2.225,2.529 l 0,6.114 -1.824,0 z"
       id="path53"
       inkscape:connector-curvature="0"
       style="fill:#535b67" /><path
       d="m 279.896,329.074 -0.208,-0.88 c 0,0 -0.769,1.041 -2.241,1.041 -1.041,0 -2.449,-0.4 -2.449,-2.689 0,-2.321 1.873,-2.721 3.217,-2.721 l 1.425,0 0,-0.785 c 0,-1.008 -0.528,-1.104 -1.409,-1.104 -0.977,0 -2.321,0.4 -2.481,0.448 l 0,-1.488 c 0,0 1.329,-0.464 2.785,-0.464 1.601,0 2.929,0.416 2.929,2.753 l 0,5.891 -1.568,0 z m -0.256,-4.21 -0.849,0.016 c -1.296,0.032 -1.969,0.32 -1.969,1.569 0,1.168 0.528,1.376 1.185,1.376 0.88,0 1.633,-0.656 1.633,-0.656 l 0,-2.305 z"
       id="path55"
       inkscape:connector-curvature="0"
       style="fill:#535b67" /><path
       d="m 294.184,329.074 -0.224,-0.8 c -0.144,0.176 -0.96,0.96 -2.289,0.96 -1.265,0 -3.169,-0.561 -3.169,-4.402 0,-3.921 2.417,-4.402 3.489,-4.402 1.104,0 1.697,0.625 1.793,0.736 l 0,-3.617 1.825,0 0,11.524 -1.425,0 z m -0.4,-6.675 c -0.128,-0.096 -0.736,-0.528 -1.489,-0.528 -0.96,0 -1.969,0.288 -1.969,2.961 0,2.785 0.912,2.993 1.809,2.993 0.784,0 1.505,-0.56 1.649,-0.672 l 0,-4.754 z"
       id="path57"
       inkscape:connector-curvature="0"
       style="fill:#535b67" /><path
       d="m 304.347,325.424 -4.802,0 c 0.016,2.129 1.185,2.305 1.953,2.305 0.977,0 2.385,-0.432 2.385,-0.432 l 0,1.521 c 0,0 -1.152,0.416 -2.385,0.416 -1.712,0 -3.761,-0.464 -3.761,-4.402 0,-3.521 1.809,-4.402 3.441,-4.402 1.488,0 3.281,0.704 3.185,4.402 l -0.016,0.592 z m -3.169,-3.713 c -1.057,0 -1.601,0.704 -1.617,2.513 l 3.025,0 c -0.016,-1.841 -0.448,-2.513 -1.408,-2.513 z"
       id="path59"
       inkscape:connector-curvature="0"
       style="fill:#535b67" /><path
       d="m 314.793,329.234 c -0.736,0 -1.44,-0.288 -1.569,-0.368 l 0,3.249 -1.824,0 0,-11.525 1.409,0 0.288,0.833 c 0.224,-0.272 0.944,-0.993 2.097,-0.993 1.297,0 3.153,0.4 3.153,4.354 0,4.082 -2.417,4.45 -3.554,4.45 z m 0.097,-7.395 c -0.752,0 -1.505,0.464 -1.665,0.624 l 0,5.122 c 0.128,0.048 0.833,0.272 1.473,0.272 0.864,0 1.825,-0.353 1.825,-3.073 -0.001,-2.673 -0.689,-2.945 -1.633,-2.945 z"
       id="path61"
       inkscape:connector-curvature="0"
       style="fill:#535b67" /><path
       d="m 324.899,329.074 -0.208,-0.88 c 0,0 -0.769,1.041 -2.241,1.041 -1.04,0 -2.449,-0.4 -2.449,-2.689 0,-2.321 1.873,-2.721 3.217,-2.721 l 1.425,0 0,-0.785 c 0,-1.008 -0.528,-1.104 -1.409,-1.104 -0.977,0 -2.321,0.4 -2.481,0.448 l 0,-1.488 c 0,0 1.329,-0.464 2.785,-0.464 1.601,0 2.929,0.416 2.929,2.753 l 0,5.891 -1.568,0 z m -0.255,-4.21 -0.849,0.016 c -1.296,0.032 -1.969,0.32 -1.969,1.569 0,1.168 0.528,1.376 1.185,1.376 0.88,0 1.633,-0.656 1.633,-0.656 l 0,-2.305 z"
       id="path63"
       inkscape:connector-curvature="0"
       style="fill:#535b67" /><path
       d="m 331.964,322.207 c -0.752,0 -1.217,0.496 -1.217,0.496 l 0,6.371 -1.825,0 0,-8.483 1.441,0 0.24,0.992 c 0,0 0.48,-1.152 1.697,-1.152 0.416,0 0.816,0.096 0.816,0.096 l 0,1.841 c 0.001,-10e-4 -0.623,-0.161 -1.152,-0.161 z"
       id="path65"
       inkscape:connector-curvature="0"
       style="fill:#535b67" /><path
       d="m 337.683,329.234 c -1.185,0 -2.113,-0.384 -2.113,-2.209 l 0,-5.138 -1.44,0 0,-1.296 1.44,0 0.112,-1.905 1.713,-0.656 0,2.561 1.921,0 -0.192,1.296 -1.729,0 0,5.154 c 0,0.624 0.272,0.704 0.688,0.704 0.448,0 1.473,-0.288 1.473,-0.288 l 0,1.457 c 0,0 -0.897,0.32 -1.873,0.32 z"
       id="path67"
       inkscape:connector-curvature="0"
       style="fill:#535b67" /><path
       d="m 342.038,319.39 c -0.64,0 -1.121,-0.512 -1.121,-1.152 0,-0.64 0.48,-1.152 1.121,-1.152 0.641,0 1.136,0.512 1.136,1.152 0,0.64 -0.496,1.152 -1.136,1.152 z m -0.913,9.684 0,-8.483 1.825,0 0,8.483 -1.825,0 z"
       id="path69"
       inkscape:connector-curvature="0"
       style="fill:#535b67" /><path
       d="m 348.678,329.234 c -1.473,0 -3.649,-0.352 -3.649,-4.354 0,-4.034 2.449,-4.45 3.81,-4.45 0.992,0 1.712,0.336 1.712,0.336 l 0,1.457 c 0,0 -0.992,-0.32 -1.665,-0.32 -0.976,0 -2.033,0.256 -2.033,2.977 0,2.497 0.928,2.833 1.905,2.833 0.736,0 1.792,-0.353 1.792,-0.353 l 0,1.537 c 10e-4,0 -0.927,0.337 -1.872,0.337 z"
       id="path71"
       inkscape:connector-curvature="0"
       style="fill:#535b67" /><path
       d="m 353.151,319.39 c -0.64,0 -1.121,-0.512 -1.121,-1.152 0,-0.64 0.48,-1.152 1.121,-1.152 0.641,0 1.136,0.512 1.136,1.152 0,0.64 -0.496,1.152 -1.136,1.152 z m -0.913,9.684 0,-8.483 1.825,0 0,8.483 -1.825,0 z"
       id="path73"
       inkscape:connector-curvature="0"
       style="fill:#535b67" /><path
       d="m 359.967,329.234 c -0.736,0 -1.44,-0.288 -1.569,-0.368 l 0,3.249 -1.825,0 0,-11.525 1.409,0 0.288,0.833 c 0.224,-0.272 0.944,-0.993 2.097,-0.993 1.297,0 3.153,0.4 3.153,4.354 0.001,4.082 -2.416,4.45 -3.553,4.45 z m 0.097,-7.395 c -0.752,0 -1.505,0.464 -1.665,0.624 l 0,5.122 c 0.128,0.048 0.833,0.272 1.473,0.272 0.864,0 1.825,-0.353 1.825,-3.073 -10e-4,-2.673 -0.689,-2.945 -1.633,-2.945 z"
       id="path75"
       inkscape:connector-curvature="0"
       style="fill:#535b67" /><path
       d="m 370.073,329.074 -0.208,-0.88 c 0,0 -0.769,1.041 -2.241,1.041 -1.04,0 -2.449,-0.4 -2.449,-2.689 0,-2.321 1.873,-2.721 3.217,-2.721 l 1.425,0 0,-0.785 c 0,-1.008 -0.528,-1.104 -1.409,-1.104 -0.977,0 -2.321,0.4 -2.481,0.448 l 0,-1.488 c 0,0 1.329,-0.464 2.785,-0.464 1.601,0 2.929,0.416 2.929,2.753 l 0,5.891 -1.568,0 z m -0.256,-4.21 -0.849,0.016 c -1.296,0.032 -1.969,0.32 -1.969,1.569 0,1.168 0.528,1.376 1.185,1.376 0.88,0 1.633,-0.656 1.633,-0.656 l 0,-2.305 z"
       id="path77"
       inkscape:connector-curvature="0"
       style="fill:#535b67" /><path
       d="m 377.334,329.234 c -1.473,0 -3.649,-0.352 -3.649,-4.354 0,-4.034 2.449,-4.45 3.81,-4.45 0.992,0 1.712,0.336 1.712,0.336 l 0,1.457 c 0,0 -0.992,-0.32 -1.665,-0.32 -0.976,0 -2.033,0.256 -2.033,2.977 0,2.497 0.928,2.833 1.905,2.833 0.736,0 1.792,-0.353 1.792,-0.353 l 0,1.537 c 0,0 -0.928,0.337 -1.872,0.337 z"
       id="path79"
       inkscape:connector-curvature="0"
       style="fill:#535b67" /><path
       d="m 381.806,319.39 c -0.64,0 -1.121,-0.512 -1.121,-1.152 0,-0.64 0.48,-1.152 1.121,-1.152 0.641,0 1.136,0.512 1.136,1.152 0,0.64 -0.496,1.152 -1.136,1.152 z m -0.912,9.684 0,-8.483 1.825,0 0,8.483 -1.825,0 z"
       id="path81"
       inkscape:connector-curvature="0"
       style="fill:#535b67" /><path
       d="m 388.383,329.234 c -1.617,0 -3.666,-0.561 -3.666,-4.402 0,-3.762 2.033,-4.402 3.666,-4.402 1.633,0 3.666,0.544 3.666,4.402 -10e-4,3.906 -2.066,4.402 -3.666,4.402 z m 0,-7.475 c -0.88,0 -1.841,0.256 -1.841,3.073 0,2.785 1.121,3.057 1.841,3.057 0.72,0 1.841,-0.288 1.841,-3.057 0,-2.881 -0.961,-3.073 -1.841,-3.073 z m 0.608,-2.609 -1.777,0 1.713,-2.481 2.272,0 -2.208,2.481 z"
       id="path83"
       inkscape:connector-curvature="0"
       style="fill:#535b67" /><path
       d="m 402.174,329.234 c -1.473,0 -3.649,-0.352 -3.649,-4.354 0,-4.034 2.449,-4.45 3.81,-4.45 0.992,0 1.712,0.336 1.712,0.336 l 0,1.457 c 0,0 -0.992,-0.32 -1.665,-0.32 -0.976,0 -2.033,0.256 -2.033,2.977 0,2.497 0.928,2.833 1.905,2.833 0.736,0 1.792,-0.353 1.792,-0.353 l 0,1.537 c 0.001,0 -0.927,0.337 -1.872,0.337 z"
       id="path85"
       inkscape:connector-curvature="0"
       style="fill:#535b67" /><path
       d="m 406.647,319.39 c -0.64,0 -1.121,-0.512 -1.121,-1.152 0,-0.64 0.48,-1.152 1.121,-1.152 0.641,0 1.136,0.512 1.136,1.152 0,0.64 -0.496,1.152 -1.136,1.152 z m -0.913,9.684 0,-8.483 1.825,0 0,8.483 -1.825,0 z"
       id="path87"
       inkscape:connector-curvature="0"
       style="fill:#535b67" /><path
       d="m 415.13,329.074 -0.24,-1.008 c 0,0 -1.12,1.168 -2.529,1.168 -1.36,0 -2.369,-0.608 -2.369,-2.481 l 0,-6.163 1.825,0 0,5.875 c 0,0.912 0.32,1.216 1.041,1.216 0.913,0 1.937,-0.736 1.937,-0.736 l 0,-6.354 1.825,0 0,8.483 -1.49,0 z"
       id="path89"
       inkscape:connector-curvature="0"
       style="fill:#535b67" /><path
       d="m 421.786,329.234 c -1.185,0 -2.113,-0.384 -2.113,-2.209 l 0,-5.138 -1.44,0 0,-1.296 1.44,0 0.112,-1.905 1.713,-0.656 0,2.561 1.921,0 -0.192,1.296 -1.729,0 0,5.154 c 0,0.624 0.272,0.704 0.688,0.704 0.448,0 1.473,-0.288 1.473,-0.288 l 0,1.457 c 0,0 -0.896,0.32 -1.873,0.32 z"
       id="path91"
       inkscape:connector-curvature="0"
       style="fill:#535b67" /><path
       d="m 429.83,329.074 -0.208,-0.88 c 0,0 -0.769,1.041 -2.241,1.041 -1.04,0 -2.449,-0.4 -2.449,-2.689 0,-2.321 1.873,-2.721 3.217,-2.721 l 1.425,0 0,-0.785 c 0,-1.008 -0.528,-1.104 -1.409,-1.104 -0.977,0 -2.321,0.4 -2.481,0.448 l 0,-1.488 c 0,0 1.329,-0.464 2.785,-0.464 1.601,0 2.929,0.416 2.929,2.753 l 0,5.891 -1.568,0 z m -0.256,-4.21 -0.849,0.016 c -1.296,0.032 -1.969,0.32 -1.969,1.569 0,1.168 0.528,1.376 1.185,1.376 0.88,0 1.633,-0.656 1.633,-0.656 l 0,-2.305 z"
       id="path93"
       inkscape:connector-curvature="0"
       style="fill:#535b67" /><path
       d="m 439.147,329.074 -0.224,-0.8 c -0.144,0.176 -0.96,0.96 -2.289,0.96 -1.265,0 -3.169,-0.561 -3.169,-4.402 0,-3.921 2.417,-4.402 3.489,-4.402 1.104,0 1.697,0.625 1.793,0.736 l 0,-3.617 1.825,0 0,11.524 -1.425,0 z m -0.399,-6.675 c -0.128,-0.096 -0.736,-0.528 -1.489,-0.528 -0.96,0 -1.969,0.288 -1.969,2.961 0,2.785 0.912,2.993 1.809,2.993 0.784,0 1.505,-0.56 1.649,-0.672 l 0,-4.754 z"
       id="path95"
       inkscape:connector-curvature="0"
       style="fill:#535b67" /><path
       d="m 447.434,329.074 -0.208,-0.88 c 0,0 -0.769,1.041 -2.241,1.041 -1.04,0 -2.449,-0.4 -2.449,-2.689 0,-2.321 1.873,-2.721 3.217,-2.721 l 1.425,0 0,-0.785 c 0,-1.008 -0.528,-1.104 -1.409,-1.104 -0.977,0 -2.321,0.4 -2.481,0.448 l 0,-1.488 c 0,0 1.329,-0.464 2.785,-0.464 1.601,0 2.929,0.416 2.929,2.753 l 0,5.891 -1.568,0 z m -0.256,-4.21 -0.849,0.016 c -1.296,0.032 -1.969,0.32 -1.969,1.569 0,1.168 0.528,1.376 1.185,1.376 0.88,0 1.633,-0.656 1.633,-0.656 l 0,-2.305 z"
       id="path97"
       inkscape:connector-curvature="0"
       style="fill:#535b67" /><path
       d="m 456.58,329.074 0,-6.083 c 0,-0.88 -0.496,-0.992 -1.168,-0.992 -1.072,0 -2.129,0.736 -2.129,0.736 l 0,6.338 -1.825,0 0,-8.483 1.457,0 0.32,0.977 c 0,0 1.265,-1.137 2.785,-1.137 1.409,0 2.385,0.592 2.385,2.529 l 0,6.114 -1.825,0 z"
       id="path99"
       inkscape:connector-curvature="0"
       style="fill:#535b67" /><path
       d="m 465.226,329.074 -0.208,-0.88 c 0,0 -0.769,1.041 -2.241,1.041 -1.04,0 -2.449,-0.4 -2.449,-2.689 0,-2.321 1.873,-2.721 3.217,-2.721 l 1.425,0 0,-0.785 c 0,-1.008 -0.528,-1.104 -1.409,-1.104 -0.977,0 -2.321,0.4 -2.481,0.448 l 0,-1.488 c 0,0 1.329,-0.464 2.785,-0.464 1.601,0 2.929,0.416 2.929,2.753 l 0,5.891 -1.568,0 z m -0.256,-4.21 -0.849,0.016 c -1.296,0.032 -1.969,0.32 -1.969,1.569 0,1.168 0.528,1.376 1.185,1.376 0.88,0 1.633,-0.656 1.633,-0.656 l 0,-2.305 z"
       id="path101"
       inkscape:connector-curvature="0"
       style="fill:#535b67" /></g></svg>