<?xml version="1.0" encoding="utf-8"?>
<!-- Generator: Adobe Illustrator 16.0.0, SVG Export Plug-In . SVG Version: 6.00 Build 0)  -->
<!DOCTYPE svg PUBLIC "-//W3C//DTD SVG 1.1//EN" "http://www.w3.org/Graphics/SVG/1.1/DTD/svg11.dtd">
<svg version="1.1" id="Livello_1" xmlns="http://www.w3.org/2000/svg" xmlns:xlink="http://www.w3.org/1999/xlink" x="0px" y="0px"
	 width="40px" height="40px" viewBox="0 0 40 40" enable-background="new 0 0 40 40" xml:space="preserve">
<path d="M11.572,19.713c-0.809,0-1.617,0.101-2.02,0.303c0.899-3.602,4.307-7.642,7.513-9.387c0.007-0.003,0.012-0.008,0.018-0.011
	c0.024-0.013,0.048-0.031,0.071-0.044l-0.003-0.002c0.355-0.19,0.605-0.552,0.605-0.983c0-0.388-0.208-0.713-0.505-0.916
	l0.025-0.024l-4.196-2.65L13.067,6.01c-0.189-0.143-0.413-0.242-0.668-0.242c-0.184,0-0.35,0.054-0.504,0.132l-0.021-0.019
	c-6.26,4.442-10.401,11.206-10.401,18.78c0,6.562,4.241,10.297,8.985,10.297c4.342,0,7.978-3.634,7.978-7.978
	C18.437,22.641,15.409,19.713,11.572,19.713z"/>
<path d="M32.119,19.713c-0.809,0-1.617,0.101-2.02,0.303c0.898-3.602,4.307-7.642,7.512-9.387c0.008-0.003,0.013-0.008,0.019-0.011
	c0.024-0.013,0.048-0.031,0.071-0.044l-0.003-0.002c0.354-0.19,0.604-0.552,0.604-0.983c0-0.388-0.207-0.713-0.505-0.916
	l0.025-0.024l-4.196-2.65L33.613,6.01c-0.188-0.143-0.412-0.242-0.668-0.242c-0.184,0-0.35,0.054-0.504,0.132l-0.021-0.019
	c-6.26,4.442-10.401,11.206-10.401,18.78c0,6.562,4.242,10.297,8.985,10.297c4.343,0,7.978-3.634,7.978-7.978
	C38.984,22.641,35.956,19.713,32.119,19.713z"/>
</svg>
