<?xml version="1.0" encoding="utf-8"?>
<!-- Generator: Adobe Illustrator 16.0.0, SVG Export Plug-In . SVG Version: 6.00 Build 0)  -->
<!DOCTYPE svg PUBLIC "-//W3C//DTD SVG 1.1//EN" "http://www.w3.org/Graphics/SVG/1.1/DTD/svg11.dtd">
<svg version="1.1" id="Livello_1" xmlns="http://www.w3.org/2000/svg" xmlns:xlink="http://www.w3.org/1999/xlink" x="0px" y="0px"
	 width="40px" height="40px" viewBox="0 0 40 40" enable-background="new 0 0 40 40" xml:space="preserve">
<g>
	<path d="M9.223,5.404c-4.342,0-7.979,3.634-7.979,7.977c0,4.342,3.028,7.27,6.865,7.27c0.809,0,1.617-0.102,2.02-0.303
		c-0.898,3.602-4.307,7.642-7.512,9.387c-0.008,0.003-0.013,0.008-0.019,0.011c-0.024,0.013-0.048,0.031-0.071,0.044l0.003,0.002
		c-0.354,0.19-0.604,0.553-0.604,0.983c0,0.388,0.207,0.713,0.505,0.916l-0.025,0.024l4.196,2.649l0.013-0.011
		c0.189,0.143,0.413,0.242,0.669,0.242c0.184,0,0.35-0.055,0.504-0.133l0.021,0.02c6.26-4.443,10.401-11.206,10.401-18.78
		C18.207,9.139,13.967,5.404,9.223,5.404z"/>
	<path d="M29.77,5.404c-4.342,0-7.979,3.634-7.979,7.977c0,4.342,3.028,7.27,6.865,7.27c0.809,0,1.617-0.102,2.021-0.303
		c-0.899,3.602-4.308,7.642-7.513,9.387c-0.008,0.003-0.013,0.008-0.019,0.011c-0.024,0.013-0.048,0.031-0.071,0.044l0.004,0.002
		c-0.355,0.19-0.605,0.553-0.605,0.983c0,0.388,0.208,0.713,0.505,0.916l-0.024,0.024l4.195,2.649l0.014-0.011
		c0.188,0.143,0.412,0.242,0.668,0.242c0.184,0,0.35-0.055,0.504-0.133l0.021,0.02c6.26-4.443,10.401-11.206,10.401-18.78
		C38.754,9.139,34.514,5.404,29.77,5.404z"/>
</g>
</svg>
