<?xml version="1.0" standalone="no"?>
<!DOCTYPE svg PUBLIC "-//W3C//DTD SVG 1.1//EN" "http://www.w3.org/Graphics/SVG/1.1/DTD/svg11.dtd" >
<svg>
<metadata>
Created by FontForge 20090622 at Fri Jan 19 15:34:15 2018
 By deploy user
&#194;&#169; 1985, 1987, 1994, 2001, 2002 Adobe Systems Incorporated. All rights reserved.
</metadata>
<defs>
<font id="SouvenirStd-Demi" horiz-adv-x="680" >
  <font-face 
    font-family="ITC Souvenir Std Light"
    font-weight="600"
    font-stretch="normal"
    units-per-em="1000"
    panose-1="2 8 8 3 5 5 10 2 2 4"
    ascent="762"
    descent="-238"
    x-height="481"
    cap-height="732"
    bbox="-171 -283 1390 987"
    underline-thickness="50"
    underline-position="-50"
    unicode-range="U+0020-U+FB02"
  />
<missing-glyph horiz-adv-x="500" 
d="M0 0v700h500v-700h-500zM250 395l170 255h-340zM280 350l170 -255v510zM80 50h340l-170 255zM50 605v-510l170 255z" />
    <glyph glyph-name="f_i" unicode="fi" horiz-adv-x="660" 
d="M253 404v-269q0 -37 5 -50.5t22 -21.5q25 -13 25 -31q0 -32 -54 -32h-159q-54 0 -54 32q0 18 25 31q17 8 22 21.5t5 50.5v269h-13q-20 0 -30 1.5t-18.5 10.5t-8.5 27q0 25 13 31.5t39 6.5h19v44q0 122 73 177t186 55q88 0 160 -29q40 -15 67.5 -44.5t27.5 -69.5
q0 -36 -31.5 -58t-70.5 -22q-36 0 -64.5 22.5t-28.5 56.5q0 7 2.5 16.5t2.5 13.5q0 20 -21.5 31t-48.5 11q-92 0 -92 -139v-65h225q13 0 48 5q21 3 36 3q14 0 23 -8.5t12.5 -26t4.5 -30t1 -33.5v-256q0 -40 2 -52t13 -20q25 -11 25 -31q0 -21 -12.5 -26.5t-34.5 -5.5h-149
q-14 0 -22.5 1.5t-16.5 9t-8 21.5q0 20 25 31q11 8 13 20t2 52v148q0 58 -8 82.5t-25.5 31.5t-61.5 7h-92z" />
    <glyph glyph-name="f_l" unicode="fl" 
d="M253 404v-269q0 -37 5 -50.5t22 -21.5q25 -13 25 -31q0 -32 -54 -32h-159q-54 0 -54 32q0 18 25 31q17 8 22 21.5t5 50.5v269h-13q-20 0 -30 1.5t-18.5 10.5t-8.5 27q0 25 13 31.5t39 6.5h19q-2 122 25 179q22 48 75.5 72.5t123.5 24.5q72 0 135 -27q90 27 115 27
q14 0 23 -8.5t12.5 -26t4.5 -30t1 -33.5v-524q0 -29 1 -39.5t6.5 -18.5t18.5 -14q25 -11 25 -31q0 -21 -14 -26.5t-44 -5.5h-149q-20 0 -30.5 1.5t-19 8.5t-8.5 22q0 20 25 31q18 8 22 20t4 52v409q0 83 -18 101q-29 30 -85 30q-53 0 -70 -27.5t-17 -72.5v-94h29
q26 0 39 -1.5t23.5 -10t10.5 -25.5q0 -18 -10.5 -27.5t-22.5 -11t-37 -1.5h-32z" />
    <glyph glyph-name=".notdef" horiz-adv-x="500" 
d="M0 0v700h500v-700h-500zM250 395l170 255h-340zM280 350l170 -255v510zM80 50h340l-170 255zM50 605v-510l170 255z" />
    <glyph glyph-name=".null" horiz-adv-x="0" 
 />
    <glyph glyph-name="nonmarkingreturn" horiz-adv-x="333" 
 />
    <glyph glyph-name="space" unicode=" " horiz-adv-x="340" 
 />
    <glyph glyph-name="exclam" unicode="!" horiz-adv-x="360" 
d="M180 -15q-35 0 -64 21.5t-29 54.5q0 35 29 55.5t64 20.5q37 0 67 -21t30 -56t-30.5 -55t-66.5 -20zM180 189q-18 0 -28 9t-12.5 17.5t-5.5 28.5q-57 392 -57 425q0 46 27 62t76 16t76 -16t27 -62q0 -33 -57 -425q-3 -20 -5.5 -28.5t-12.5 -17.5t-28 -9z" />
    <glyph glyph-name="quotedbl" unicode="&#x22;" horiz-adv-x="580" 
d="M202 428h-46l-44 239q-5 27 16 53.5t51 26.5t51 -26.5t16 -53.5zM424 428h-46l-44 239q-5 27 16 53.5t51 26.5t51 -26.5t16 -53.5z" />
    <glyph glyph-name="numbersign" unicode="#" 
d="M448 247l-32 -92q-14 -40 -26 -50q-11 -8 -28 -8q-19 0 -32.5 13.5t-13.5 32.5q0 9 6 25l27 79h-115l-32 -91q-5 -16 -7.5 -21.5t-9 -17t-15.5 -16t-21 -4.5q-21 0 -35 13.5t-14 34.5q0 9 6 25l26 77h-48q-54 0 -54 43t52 43h80l42 121h-53q-53 0 -53 43t51 43h85l26 75
l3 8q3 8 3 9t3 8t4 8t4 6.5t5 6.5t6 4.5t7.5 4.5t8.5 2t11 1q19 0 33 -14t14 -33q0 -10 -6 -26l-20 -60h115l26 76q1 2 3 8.5t3 8.5t3 7.5t3.5 7.5t4.5 6.5t5 6.5t5.5 5t7.5 4t9 2t10 1q19 0 32 -13.5t13 -32.5q0 -12 -5 -25l-21 -62h46q53 0 53 -43t-51 -43h-79l-41 -121
h50q54 0 54 -43t-52 -43h-82zM420 454h-115l-42 -120h116z" />
    <glyph glyph-name="dollar" unicode="$" 
d="M302 477v188q-79 -20 -79 -93q0 -59 79 -95zM302 76v238q-119 36 -164.5 89t-45.5 123q0 86 60.5 138t149.5 60v86q0 19 2 29t11.5 19t27.5 9q25 0 32 -14.5t7 -41.5v-87q28 -1 58.5 -9t60 -22t48.5 -38.5t19 -53.5q0 -24 -16 -40.5t-40 -16.5q-25 0 -38 10.5t-18 27
l-10.5 33.5t-21 31.5t-42.5 19.5v-220q37 -12 65 -24t59 -31t51 -41.5t33 -55t13 -71.5q0 -87 -66 -144t-155 -59v-86q0 -18 -1.5 -28t-10.5 -19.5t-27 -9.5q-25 0 -33 14t-8 41v88q-105 7 -168 53.5t-63 112.5q0 17 17 28t38 11q13 0 23 -4.5t17 -13.5t10 -15t8 -17
q22 -51 46 -71.5t72 -27.5zM382 282v-203q89 20 89 101q0 68 -89 102z" />
    <glyph glyph-name="percent" unicode="%" horiz-adv-x="940" 
d="M217 342q72 0 72 191q0 171 -71 171t-71 -176q0 -186 70 -186zM758 698l-485 -666q-2 -2 -5 -7q-15 -21 -23.5 -26t-34.5 -5q-39 0 -39 16q0 4 19 32l453 618q-62 -35 -128 -35q-73 0 -132 35q14 -21 26 -60.5t12 -75.5q0 -100 -54 -164t-152 -64q-94 0 -147 67.5
t-53 163.5q0 94 55 158.5t148 64.5q59 0 156 -35q103 -35 141 -35q59 0 125 30.5t90 30.5q43 0 43 -12q0 -11 -15 -31zM724 -15q-94 0 -147 67.5t-53 163.5q0 94 55 158.5t148 64.5q94 0 148.5 -65t54.5 -160q0 -100 -54 -164.5t-152 -64.5zM726 31q72 0 72 191
q0 172 -71 172t-71 -183q0 -180 70 -180z" />
    <glyph glyph-name="ampersand" unicode="&#x26;" horiz-adv-x="840" 
d="M609 421h155q45 0 45 -32q0 -17 -24 -27t-34 -18.5t-27 -36.5q-70 -113 -114 -160q64 -67 143 -67q12 0 32 4.5t28 4.5q10 0 17.5 -8t7.5 -19q0 -26 -36 -44q-55 -29 -127 -29q-95 0 -187 67q-99 -71 -219 -71q-61 0 -116.5 20t-95 65.5t-39.5 107.5q0 140 171 219
q-65 85 -65 163t63.5 132.5t182.5 54.5q52 0 96.5 -15t76.5 -51.5t32 -89.5q0 -63 -54 -111t-127 -77q94 -126 166 -201q64 73 64 121q0 15 -9.5 24.5t-20.5 13.5t-20.5 12t-9.5 21q0 27 45 27zM238 335q-71 -58 -71 -130q0 -60 40 -98.5t100 -38.5q35 0 60.5 10t59.5 32
q-97 87 -189 225zM343 469q102 56 102 124q0 36 -24 59.5t-61 23.5q-33 0 -56 -22.5t-23 -54.5q0 -48 62 -130z" />
    <glyph glyph-name="quotesingle" unicode="'" horiz-adv-x="260" 
d="M153 428h-46l-44 239q-5 27 16 53.5t51 26.5t51 -26.5t16 -53.5z" />
    <glyph glyph-name="parenleft" unicode="(" horiz-adv-x="340" 
d="M311 -181q0 -14 -12.5 -21.5t-26.5 -7.5q-43 0 -91 65q-65 85 -102.5 199.5t-37.5 222.5q0 163 86 315q41 74 96 129q24 26 59 26q14 0 23.5 -7t9.5 -20q0 -14 -24 -65q-89 -184 -89 -373q0 -197 88 -402q21 -49 21 -61z" />
    <glyph glyph-name="parenright" unicode=")" horiz-adv-x="340" 
d="M23 719q0 14 12.5 21t26.5 7q19 0 37.5 -11t28.5 -22.5t25 -30.5q65 -85 102.5 -199t37.5 -223q0 -165 -86 -315q-42 -75 -96 -130q-26 -26 -59 -26q-14 0 -23.5 7.5t-9.5 20.5q0 14 24 65q89 184 89 372q0 198 -88 403q-21 46 -21 61z" />
    <glyph glyph-name="asterisk" unicode="*" horiz-adv-x="400" 
d="M211 505l13 -31q15 -32 15 -49q0 -19 -11 -31.5t-29 -12.5q-17 0 -28.5 11.5t-11.5 28.5t10 44l12 34q10 23 10 33t-6 10q-10 0 -36 -35q-2 -3 -10 -14t-12.5 -16l-12 -13t-15.5 -11.5t-16 -3.5q-17 0 -29 11.5t-12 28.5q0 6 2 12t6 10l7.5 7.5t10.5 6t11.5 4.5t12.5 3.5
t12 2.5t12.5 2.5t10.5 1.5l5 1q5 1 10 1.5t11.5 2t11 3.5t8 4.5t3.5 5.5q0 12 -61 19q-18 2 -26 3t-23 6t-21.5 14.5t-6.5 24.5q0 16 11.5 26.5t27.5 10.5q20 0 41.5 -21.5t39 -43.5t26.5 -22q6 0 6 9q0 8 -9 29l-11 28q-15 32 -15 51q0 17 11.5 28t28.5 11t28 -13t11 -29
q0 -19 -15.5 -57t-15.5 -47t5 -9q10 0 26 23.5t36.5 46.5t41.5 23q17 0 28 -11t11 -27q0 -23 -21.5 -36t-46.5 -16t-46.5 -7.5t-21.5 -11.5q0 -9 22 -13t48 -5.5t48 -13.5t22 -34q0 -18 -11 -28.5t-28 -10.5q-9 0 -17.5 4t-18 12t-14.5 13.5t-14.5 17.5t-11.5 14
q-23 28 -31 28q-6 0 -6 -9q0 -8 8 -29z" />
    <glyph glyph-name="plus" unicode="+" horiz-adv-x="660" 
d="M73 335h213v212h95v-212h212v-95h-212v-213h-95v213h-213v95z" />
    <glyph glyph-name="comma" unicode="," horiz-adv-x="340" 
d="M174 0q-15 -3 -30 -3q-31 0 -52 19.5t-21 50.5q0 37 28.5 58t65.5 21q46 0 74.5 -29.5t28.5 -73.5q0 -69 -57 -129.5t-86 -60.5q-9 0 -17.5 6t-8.5 15q0 5 15.5 20t34.5 43t25 63z" />
    <glyph glyph-name="hyphen" unicode="-" horiz-adv-x="340" 
d="M245 226h-150q-18 0 -28.5 1.5t-21 7t-15.5 18.5t-5 34q0 39 17 49.5t53 10.5h150q24 0 37 -2.5t23 -16.5t10 -41q0 -21 -5 -34t-15.5 -18.5t-21 -7t-28.5 -1.5z" />
    <glyph glyph-name="period" unicode="." horiz-adv-x="340" 
d="M172 -15q-37 0 -67 22t-30 58q0 37 29 59t67 22q37 0 65.5 -23t28.5 -59q0 -35 -28.5 -57t-64.5 -22z" />
    <glyph glyph-name="slash" unicode="/" horiz-adv-x="460" 
d="M443 688l-362 -790q-1 -3 -4.5 -11.5t-4.5 -10.5t-4.5 -7.5t-5.5 -7t-6.5 -4t-10 -3t-12.5 -0.5q-33 0 -33 14q0 6 9 24l365 799q1 3 3.5 8.5t3.5 7.5l3 6t3.5 5.5t3.5 4t4.5 3.5t5.5 2.5t6.5 2t8 1t9.5 0.5q29 0 29 -12q0 -10 -11 -32z" />
    <glyph glyph-name="zero" unicode="0" 
d="M340 -15q-62 0 -113 23t-85.5 61t-58.5 89t-35 105.5t-11 111.5q0 69 18.5 134t54 119.5t95.5 88t135 33.5q93 0 163 -54t105 -139.5t35 -188.5q0 -166 -84.5 -274.5t-218.5 -108.5zM340 55q31 0 54 27.5t33.5 62.5t17 86t7.5 80t1 62q0 32 -1 62t-7.5 78t-17.5 82
t-33.5 60t-53.5 26q-113 0 -113 -313t113 -313z" />
    <glyph glyph-name="one" unicode="1" 
d="M256 152v378q0 48 -11.5 62.5t-59.5 14.5q-44 0 -59.5 5.5t-15.5 25.5q0 13 9.5 21t17 10t24.5 5q69 13 137 44.5t88 31.5q31 0 41.5 -17t10.5 -50v-527q0 -25 1 -35.5t6.5 -23.5t18.5 -18t35 -7q2 0 11 -1t12.5 -1.5t11 -2t10.5 -4l7.5 -6.5t6 -9.5t1.5 -12.5
q0 -35 -47 -35h-331q-17 0 -26.5 1.5t-18 10t-8.5 23.5q0 31 63 36q45 4 55 18.5t10 62.5z" />
    <glyph glyph-name="two" unicode="2" 
d="M516 0h-403q-18 0 -28.5 1.5t-20.5 10.5t-10 26q0 37 40 95.5t89 106.5l107 109t70 81.5t45 75t12 67.5q0 44 -27 74t-70 30q-40 0 -75 -28t-35 -67q0 -14 12 -36t12 -35q0 -26 -23.5 -39t-51.5 -13q-41 0 -66 25t-25 66q0 63 44 110.5t106.5 68.5t129.5 21
q118 0 187.5 -54.5t69.5 -140.5q0 -47 -21.5 -92t-60 -87t-79 -79l-92 -85t-84.5 -87h151q47 0 71.5 6t54.5 31q29 24 44 24q11 0 19 -8t8 -19q0 -8 -4 -19.5t-11.5 -36t-14.5 -56.5q-7 -33 -20.5 -40t-49.5 -7z" />
    <glyph glyph-name="three" unicode="3" 
d="M429 400q77 -14 130.5 -65t53.5 -125q0 -40 -17 -78.5t-51 -72t-92 -54t-133 -20.5q-121 0 -195.5 43t-74.5 113q0 36 21.5 55t56.5 19q34 0 49.5 -12.5t19.5 -45.5q6 -56 28 -81t69 -25q66 0 97 41t31 110q0 48 -14.5 80.5t-41 47t-51.5 19.5t-59 5q-41 0 -56 7t-15 30
q0 33 43 33q90 0 128.5 37t38.5 109q0 47 -22 79t-68 32q-31 0 -52.5 -16t-21.5 -44q0 -10 3 -28t3 -27q0 -23 -21.5 -34.5t-47.5 -11.5q-84 0 -84 67q0 75 75 119t177 44q60 0 113.5 -18.5t92 -62.5t38.5 -105q0 -64 -42.5 -106t-108.5 -58z" />
    <glyph glyph-name="four" unicode="4" 
d="M332 119v70h-224q-26 0 -38 1.5t-22 9.5t-10 26q0 54 79 205q111 211 224 296q21 15 34 19t50 4q58 0 74.5 -13.5t16.5 -70.5v-405h67q18 0 26.5 -1.5t15.5 -9.5t7 -24q0 -22 -11.5 -29.5t-33.5 -7.5h-70v-69q0 -34 4 -43t21 -15q30 -10 30 -31q0 -31 -50 -31h-201
q-12 0 -19.5 0.5t-16.5 3.5t-13 9.5t-4 17.5q0 9 5.5 15.5t11 9t16.5 5.5q21 6 26 16.5t5 41.5zM334 261v348q-140 -165 -202 -348h202z" />
    <glyph glyph-name="five" unicode="5" 
d="M107 390l23 285q3 38 10 53t25 15q8 0 20.5 -1t31 -2t32.5 -2q72 -6 115 -6q47 0 181 11q27 0 27 -23q0 -28 -29 -57.5t-57 -39.5q-47 -16 -178 -16q-58 0 -98 4l-13 -175q69 31 150 31q111 0 188.5 -59t77.5 -167q0 -46 -15.5 -89t-49 -81.5t-95 -62t-144.5 -23.5
q-101 0 -176.5 40t-75.5 111q0 34 21.5 51.5t55.5 17.5q28 0 50 -14.5t22 -41.5l-2 -31q0 -34 24.5 -50t60.5 -16q68 0 101 50t33 122t-33.5 121t-102.5 49q-37 0 -66 -16t-49 -31.5t-34 -15.5q-36 0 -31 59z" />
    <glyph glyph-name="six" unicode="6" 
d="M252 415q78 44 149 44q100 0 167 -60t67 -158q0 -109 -75.5 -182.5t-211.5 -73.5q-145 0 -224 83.5t-79 228.5q0 191 128.5 322t320.5 131q93 0 93 -39q0 -31 -60 -34q-115 -4 -187.5 -75.5t-87.5 -186.5zM347 53q30 0 51 17.5t30.5 46.5t13.5 55.5t4 53.5q0 26 -4 51
t-13.5 50.5t-29 41.5t-47.5 16q-60 0 -86 -47t-26 -112q0 -28 5 -55.5t16.5 -55t33.5 -45t52 -17.5z" />
    <glyph glyph-name="seven" unicode="7" 
d="M454 610h-232q-38 0 -55.5 -7.5t-29.5 -32.5q-13 -27 -34 -27q-16 0 -23.5 9.5t-8.5 20.5t-1 37q0 50 0.5 69t7.5 34t17.5 17t35.5 2h417q17 0 25 -1t14 -5t6 -13q0 -6 -18 -50q-103 -244 -189 -590q-11 -47 -27.5 -60t-54.5 -13h-103q-46 5 -46 29q0 12 20 54
q59 126 155 308.5t124 218.5z" />
    <glyph glyph-name="eight" unicode="8" 
d="M197 364q-130 71 -130 178q0 88 79.5 148t208.5 60q116 0 187 -47.5t71 -123.5q0 -50 -40.5 -91t-94.5 -65q160 -77 160 -211q0 -41 -18.5 -80.5t-54 -72.5t-97 -53.5t-139.5 -20.5t-137 20t-90 51.5t-46 63.5t-15 63q0 64 45 111t111 70zM271 323q-82 -59 -82 -133
q0 -58 42.5 -94.5t102.5 -36.5q46 0 87 28t41 72q0 43 -42.5 80t-148.5 84zM402 458l13 12.5l13.5 13t11 12t11 13.5l8 13t7 16l3.5 16.5t2 19.5q0 46 -34 77t-81 31q-45 0 -78 -27.5t-33 -71.5q0 -19 12.5 -37.5t26.5 -30t41 -25t39 -18z" />
    <glyph glyph-name="nine" unicode="9" 
d="M427 318q-65 -42 -141 -42q-104 0 -172 60.5t-68 162.5q0 107 79.5 179t205.5 72q144 0 223.5 -84.5t79.5 -228.5q0 -187 -127 -319.5t-314 -132.5q-103 0 -103 38q0 12 6 19t19 10t19 3.5t21 1.5q116 5 184 74.5t88 186.5zM332 348q57 0 83 47t26 109q0 81 -26.5 130
t-76.5 49q-30 0 -51.5 -17t-32 -45t-14.5 -55t-4 -55q0 -26 4 -51.5t14 -52t30 -43t48 -16.5z" />
    <glyph glyph-name="colon" unicode=":" horiz-adv-x="340" 
d="M171 -15q-37 0 -67 22t-30 58q0 37 29 59t67 22q37 0 65.5 -23t28.5 -59q0 -35 -28.5 -57t-64.5 -22zM171 292q-37 0 -67 22t-30 58q0 37 29 59t67 22q37 0 65.5 -23t28.5 -59q0 -35 -28.5 -57t-64.5 -22z" />
    <glyph glyph-name="semicolon" unicode=";" horiz-adv-x="340" 
d="M169 292q-37 0 -67 22t-30 58q0 37 29 59t67 22q37 0 65.5 -23t28.5 -59q0 -35 -28.5 -57t-64.5 -22zM174 0q-15 -3 -30 -3q-31 0 -52 19.5t-21 50.5q0 37 28.5 58t65.5 21q46 0 74.5 -29.5t28.5 -73.5q0 -69 -57 -129.5t-86 -60.5q-9 0 -17.5 6t-8.5 15q0 5 15.5 20
t34.5 43t25 63z" />
    <glyph glyph-name="less" unicode="&#x3c;" horiz-adv-x="660" 
d="M610 81v-93l-554 253v90l554 255v-94l-461 -207z" />
    <glyph glyph-name="equal" unicode="=" horiz-adv-x="660" 
d="M70 415h520v-95h-520v95zM70 255h520v-95h-520v95z" />
    <glyph glyph-name="greater" unicode="&#x3e;" horiz-adv-x="660" 
d="M56 81l462 204l-462 207v94l554 -255v-90l-554 -253v93z" />
    <glyph glyph-name="question" unicode="?" horiz-adv-x="540" 
d="M233 -15q-35 0 -63.5 21t-28.5 54q0 36 29.5 56t66.5 20q35 0 64.5 -21t29.5 -56t-30.5 -54.5t-67.5 -19.5zM182 281v46v15.5v13t1 9.5t2 8.5t3 6.5t4.5 6.5t7.5 5.5t10.5 6.5t13.5 7.5q57 32 80 64q31 43 31 107q0 50 -21.5 83.5t-67.5 33.5q-30 0 -51 -18
q-19 -17 -17 -53v-7v-6.5v-5.5t-0.5 -6t-1 -5.5t-2 -5.5t-3 -5t-3.5 -5.5t-5 -5.5q-21 -21 -59 -21q-29 0 -49 16t-20 44q0 50 40 85t89 48.5t97 13.5q109 0 173 -46q81 -58 81 -158q0 -87 -67 -147q-9 -8 -18 -15t-19.5 -13.5l-17.5 -11t-20 -10.5t-19 -9t-22 -10t-21 -9
q-23 -10 -28.5 -23.5t-5.5 -43.5q0 -21 -1.5 -31.5t-11.5 -20.5t-30 -10q-10 0 -17.5 1t-12.5 4.5t-9 5.5t-6.5 8.5t-4 9.5t-2 12t-0.5 12v14.5v14.5z" />
    <glyph glyph-name="at" unicode="@" horiz-adv-x="860" 
d="M653 563l-104 -263q-18 -45 -18 -58q0 -8 9 -13.5t19 -5.5q60 0 118 68q59 67 59 149q0 112 -86.5 180t-204.5 68q-61 0 -123 -24.5t-106 -65.5q-49 -46 -75.5 -107.5t-26.5 -127.5q0 -135 98.5 -226t238.5 -91q88 0 164.5 40.5t120.5 113.5h59q-42 -103 -137.5 -159
t-214.5 -56q-162 0 -277.5 110.5t-115.5 268.5q0 160 116 271q115 112 286 112q142 0 245 -86t103 -222q0 -107 -80 -194t-189 -87q-33 0 -54.5 15.5t-17.5 47.5q-64 -59 -132 -59q-55 0 -84.5 37.5t-29.5 92.5q0 62 29 127.5t85 112.5t123 47q56 0 87 -43l11 27h105z
M354 225q51 0 105 118q43 89 43 137q0 13 -8 23.5t-21 10.5q-37 0 -74.5 -49.5t-58 -107t-20.5 -91.5q0 -41 34 -41z" />
    <glyph glyph-name="A" unicode="A" horiz-adv-x="740" 
d="M461 237h-280q-38 -94 -38 -134q0 -23 26 -38t26 -33q0 -21 -16.5 -26.5t-48.5 -5.5h-82q-19 0 -29 1.5t-19 9.5t-9 23t21 30q23 14 30 32q80 290 250 607q14 25 28 31t54 6q37 0 46.5 -6t24.5 -34q124 -237 250 -605q5 -18 30 -32q19 -11 19 -29q0 -34 -51 -34h-169
q-61 0 -61 32q0 14 10.5 21.5t21.5 14t11 15.5q0 31 -45 154zM209 319h224q-57 166 -111 265q-65 -129 -113 -265z" />
    <glyph glyph-name="B" unicode="B" horiz-adv-x="740" 
d="M75 127v478q0 23 -1 32t-6 16.5t-16 10.5q-17 5 -23.5 12.5t-6.5 21.5q0 34 49 34h363q126 0 180 -46t54 -116q0 -56 -41.5 -99.5t-99.5 -67.5q81 -15 135.5 -66.5t54.5 -130.5q0 -89 -69 -147.5t-190 -58.5h-387q-49 0 -49 34q0 8 4 14.5t8 9.5t13 7q18 8 23 20.5
t5 41.5zM257 591v-192q37 8 72 20.5t70.5 33.5t57 52t21.5 69q0 90 -137 90q-55 0 -69.5 -15.5t-14.5 -57.5zM257 318v-172q0 -48 15 -60.5t69 -12.5q76 0 128.5 35t52.5 107q0 48 -33.5 86.5t-81.5 52.5q-98 -29 -150 -36z" />
    <glyph glyph-name="C" unicode="C" horiz-adv-x="760" 
d="M677 681q27 -16 33 -33q9 -28 9 -110q0 -18 -11.5 -28.5t-30.5 -10.5q-31 0 -49 51q-17 49 -62 86.5t-109 37.5q-104 0 -167 -86.5t-63 -214.5q0 -32 4 -64.5t18.5 -77t38.5 -78t69 -57t105 -23.5q39 0 72.5 12.5t56 30t40.5 35t34.5 30t30.5 12.5t24.5 -10.5t10.5 -24.5
q0 -53 -91 -113t-214 -60q-164 0 -279 103t-115 265q0 109 58 200.5t152.5 142.5t202.5 51q135 0 232 -66z" />
    <glyph glyph-name="D" unicode="D" horiz-adv-x="820" 
d="M71 732h289q91 0 159.5 -16t127.5 -63q131 -102 131 -282q0 -168 -101 -270q-101 -101 -283 -101h-323q-49 0 -49 34q0 8 4 14.5t8 9.5t13 7q18 8 23 20.5t5 41.5v478q0 23 -1 32t-6 16.5t-16 10.5q-17 5 -23.5 12.5t-6.5 21.5q0 34 49 34zM257 575v-407q0 -32 1.5 -45.5
t8.5 -28t23 -19t44 -4.5q120 0 184.5 82.5t64.5 206.5q0 82 -27 148.5t-86 109.5t-142 43q-50 0 -60.5 -16.5t-10.5 -69.5z" />
    <glyph glyph-name="E" unicode="E" horiz-adv-x="660" 
d="M257 356v-173q0 -77 22.5 -93.5t125.5 -17.5q52 0 82 9t60 41q1 1 7 8t8.5 9.5l8.5 8.5t10 9t9.5 6.5t11 5t10.5 1.5q14 0 25 -9.5t11 -23.5q0 -30 -22 -91q-10 -31 -21 -38.5t-45 -7.5h-489q-49 0 -49 34q0 8 4 14.5t8 9.5t13 7q18 8 23 20.5t5 41.5v478q0 23 -1 32
t-6 16.5t-16 10.5q-17 5 -23.5 12.5t-6.5 21.5q0 34 49 34h467q45 0 55 -12q17 -21 17 -95q0 -43 -36 -43q-10 0 -19.5 5.5t-13 9t-13.5 15.5q-29 32 -57 40.5t-106 8.5q-48 0 -73.5 -7t-30 -14t-4.5 -20v-183h151q31 0 47 9.5t25 18.5t22 9q35 0 35 -69v-9.5v-12v-12
t-1 -12.5t-2.5 -11.5t-4.5 -10.5t-6.5 -8t-9 -6t-11.5 -2q-13 0 -34.5 17.5t-59.5 17.5h-151z" />
    <glyph glyph-name="F" unicode="F" horiz-adv-x="620" 
d="M256 335v-208q0 -27 3 -37.5t15 -17.5t17.5 -10.5t11.5 -11.5t6 -16q0 -34 -49 -34h-190q-49 0 -49 34q0 8 4 14.5t8 9.5t13 7q18 8 23 20.5t5 41.5v478q0 23 -1 32t-6 16.5t-16 10.5q-17 5 -23.5 12.5t-6.5 21.5q0 34 49 34h434q54 0 66 -8q7 -5 12 -13t7.5 -20.5l4 -20
t3 -24t1.5 -17.5t0.5 -7t0.5 -8.5v-8t-1 -8.5t-2 -7.5t-3 -7t-4.5 -5t-7 -3.5t-9.5 -1q-19 0 -44 27q-36 41 -70.5 51t-99.5 10q-71 0 -86.5 -12.5t-15.5 -63.5v-169h146q24 0 39.5 6t21.5 12.5t14 12.5t19 6q16 0 24 -11t9.5 -23t1.5 -35q0 -20 -1 -31.5t-4 -25.5
t-10.5 -20.5t-19.5 -6.5q-13 0 -34.5 17.5t-59.5 17.5h-146z" />
    <glyph glyph-name="G" unicode="G" horiz-adv-x="780" 
d="M502 385h161q61 0 78.5 -7.5t17.5 -26.5q0 -6 -5.5 -41.5t-5.5 -74.5q0 -36 7 -76t7 -42q0 -47 -121 -92q-108 -40 -205 -40q-174 0 -289 100t-115 272q0 176 120.5 283t298.5 107q56 0 118.5 -14t106.5 -39q33 -19 42 -37q8 -16 8 -88q0 -34 -9.5 -45.5t-27.5 -11.5
q-26 0 -40 33q-53 126 -180 126q-61 0 -109 -28t-76 -74t-42.5 -100t-14.5 -111q0 -50 13.5 -99.5t39 -93t69 -70.5t96.5 -27q70 0 106 37q29 30 29 119q0 52 -12.5 67.5t-61.5 15.5q-30 0 -43.5 1.5t-24 10t-10.5 26.5q0 24 17.5 32t56.5 8z" />
    <glyph glyph-name="H" unicode="H" horiz-adv-x="820" 
d="M77 127v478q0 29 -5 40.5t-24 20.5q-24 11 -24 32q0 34 49 34h190q49 0 49 -34q0 -23 -24 -32q-19 -7 -24 -17.5t-5 -43.5v-170h298v170q0 29 -4.5 41t-24.5 20q-24 10 -24 32q0 34 49 34h190q49 0 49 -34q0 -22 -24 -32q-21 -8 -25 -20t-4 -41v-478q0 -20 0.5 -27
t5.5 -16t17 -15q12 -7 17 -10.5t9 -9.5t4 -15q0 -34 -49 -34h-190q-49 0 -49 34q0 21 22 29q19 8 25 22.5t6 41.5v233h-298v-233q0 -22 1 -29t6 -15t18 -15q11 -6 15.5 -9.5t8.5 -9.5t4 -15q0 -34 -49 -34h-190q-49 0 -49 34q0 12 7 18.5t24 15.5q14 7 18 19t4 40z" />
    <glyph glyph-name="I" unicode="I" horiz-adv-x="340" 
d="M76 127v478q0 23 -1 32t-6 16.5t-16 10.5q-17 5 -23.5 12.5t-6.5 21.5q0 34 49 34h190q49 0 49 -34q0 -19 -20 -28q-22 -11 -27.5 -23.5t-5.5 -41.5v-478q0 -27 3.5 -38.5t17.5 -19.5q13 -7 18.5 -10.5t9.5 -9.5t4 -15q0 -34 -49 -34h-190q-49 0 -49 34q0 8 4 14.5t8 9.5
t13 7q18 8 23 20.5t5 41.5z" />
    <glyph glyph-name="J" unicode="J" horiz-adv-x="560" 
d="M304 732h190q49 0 49 -34q0 -23 -31 -35q-15 -6 -18.5 -17.5t-3.5 -40.5v-380q0 -62 -10.5 -105.5t-46.5 -75.5q-67 -59 -194 -59q-42 0 -81.5 9.5t-76 29t-58.5 56t-22 85.5q0 59 37 99.5t97 40.5q57 0 78.5 -30.5t21.5 -94.5q-25 10 -55 10q-19 0 -33 -15t-14 -40
q0 -34 24.5 -53.5t59.5 -19.5q29 0 48.5 12t28 34.5t11.5 44.5t3 52v400q0 30 -5.5 43t-25.5 21q-22 10 -22 29q0 34 49 34z" />
    <glyph glyph-name="K" unicode="K" horiz-adv-x="780" 
d="M262 283v-156q0 -29 3 -38t18 -18q14 -8 18.5 -12t9 -11t4.5 -18q0 -30 -49 -30h-190q-49 0 -49 30q0 15 6.5 22t25.5 19q15 9 18 18t3 38v478q0 29 -3 38t-18 18q-14 8 -18.5 12t-9 11t-4.5 18q0 30 49 30h190q49 0 49 -30q0 -15 -6.5 -22t-25.5 -19q-15 -9 -18 -18
t-3 -38v-229q105 79 171.5 139.5t87 88t20.5 40.5q0 14 -21.5 26.5t-21.5 30.5q0 31 46 31h123q36 0 49.5 -9.5t13.5 -29.5q0 -21 -33 -36l-16 -9t-14.5 -9.5l-11 -8t-11 -11l-10.5 -12l-13.5 -16l-15.5 -18.5q-54 -65 -130 -134q119 -125 230 -322q21 -39 46 -51
q22 -12 25 -21q3 -6 3 -16q0 -29 -48 -29h-191q-62 0 -62 33q0 16 17.5 29.5t17.5 20.5q0 33 -65.5 125t-107.5 135q-46 -41 -78 -60z" />
    <glyph glyph-name="L" unicode="L" horiz-adv-x="600" 
d="M77 127v478q0 29 -3 38t-18 18q-14 8 -18.5 12t-9 11t-4.5 18q0 30 49 30h190q49 0 49 -30q0 -15 -6.5 -22t-25.5 -19q-15 -9 -18 -18t-3 -38v-471q0 -42 12 -51t59 -11h37q52 0 82 9t60 41q1 1 7 8t8.5 9.5l8.5 8.5t10 9t9.5 6.5t11 5t10.5 1.5q14 0 25 -9.5t11 -23.5
q0 -30 -22 -91q-10 -31 -21 -38.5t-45 -7.5h-449q-49 0 -49 30q0 15 6.5 22t25.5 19q15 9 18 18t3 38z" />
    <glyph glyph-name="M" unicode="M" horiz-adv-x="920" 
d="M60 732h195q9 0 16.5 -1.5t12.5 -3.5t9.5 -6.5l7 -7t6 -10t4.5 -10t3.5 -11t3.5 -10.5q69 -200 145 -370q60 124 159 385q11 28 20.5 36.5t41.5 8.5h171q49 0 49 -34q0 -21 -20 -28q-32 -11 -40 -23.5t-8 -41.5q0 -44 7.5 -213.5t7.5 -264.5q0 -27 3.5 -38.5t17.5 -19.5
q13 -7 18.5 -10.5t9.5 -9.5t4 -15q0 -34 -49 -34h-190q-49 0 -49 34q0 8 4 14.5t8 9.5t13 7q18 8 23 20.5t5 41.5q0 81 -15 434q-102 -267 -165 -409q-17 -37 -27.5 -46.5t-42.5 -9.5q-35 0 -48.5 7t-26.5 35q-90 185 -176 412q-15 -281 -15 -425q0 -26 10 -38t39 -23
q25 -10 25 -33q0 -20 -18.5 -25.5t-54.5 -5.5h-87q-63 0 -63 31q0 23 25 33q26 12 32.5 23t6.5 38q0 59 4 178t8.5 217t4.5 106q0 24 -44 37q-10 3 -14.5 4.5t-11.5 6t-9.5 10t-2.5 14.5q0 12 5 19.5t14.5 10t17 3.5t20.5 1z" />
    <glyph glyph-name="N" unicode="N" horiz-adv-x="760" 
d="M101 125v443q0 54 -8 70t-34 25q-10 3 -14.5 4.5t-11.5 6t-9.5 10t-2.5 14.5q0 12 5 19.5t14.5 10t17 3.5t20.5 1h137q29 0 40 -4.5t30 -24.5q46 -47 106.5 -130l210.5 -303v337q0 27 -8.5 38t-35.5 23q-25 10 -25 33q0 20 16 25.5t52 5.5h87q16 0 25.5 -0.5t20.5 -3.5
t16.5 -9.5t5.5 -17.5q0 -23 -25 -33q-30 -12 -37 -21.5t-7 -39.5v-543q0 -48 -9.5 -59.5t-53.5 -11.5q-42 0 -52 16q-194 293 -386 535v-419q0 -27 9 -38.5t35 -22.5q25 -10 25 -33q0 -20 -17 -25.5t-51 -5.5h-87q-16 0 -25.5 0.5t-20.5 3.5t-16.5 9.5t-5.5 17.5q0 23 25 33
q27 11 35.5 22t8.5 39z" />
    <glyph glyph-name="O" unicode="O" horiz-adv-x="860" 
d="M424 -15q-72 0 -141 25.5t-125 72t-90.5 121t-34.5 164.5q0 164 114 271.5t280 107.5q168 0 284 -106t116 -273q0 -165 -118 -274t-285 -109zM428 61q57 0 99 28.5t63.5 75.5t31.5 96.5t10 102.5q0 52 -10 102t-31.5 98t-63 77.5t-98.5 29.5q-93 0 -147 -85.5t-54 -214.5
q0 -51 9.5 -101.5t31 -99.5t62.5 -79t97 -30z" />
    <glyph glyph-name="P" unicode="P" 
d="M256 276v-149q0 -19 1 -27t7.5 -17t20.5 -14q23 -9 31 -15.5t8 -19.5q0 -34 -49 -34h-205q-49 0 -49 34q0 8 4 14.5t8 9.5t13 7q18 8 23 20.5t5 41.5v478q0 23 -1 32t-6 16.5t-16 10.5q-17 5 -23.5 12.5t-6.5 21.5q0 34 49 34h309q85 0 146 -18.5t91.5 -49t43.5 -63
t13 -68.5q0 -35 -11.5 -67.5t-41 -66.5t-75 -60t-120 -43t-169.5 -20zM256 586v-233q40 5 76 16.5t70.5 31t55 52t20.5 74.5q0 63 -40 99t-104 36q-45 0 -61.5 -16t-16.5 -60z" />
    <glyph glyph-name="Q" unicode="Q" horiz-adv-x="860" 
d="M457 -12q-25 -3 -54 -3q-159 0 -265.5 109t-106.5 268q0 167 115.5 276t283.5 109q81 0 148.5 -24t111.5 -63t74.5 -89t44 -100.5t13.5 -99.5q0 -123 -74 -222.5t-192 -137.5q55 -40 116 -40q14 0 43 4t43 4q23 0 38.5 -15.5t15.5 -38.5q0 -24 -19.5 -38.5t-41.5 -19
t-46 -4.5q-72 0 -136.5 33.5t-111.5 91.5zM415 66q-20 58 -20 99q0 58 40 58q6 0 11 -1t8.5 -4l6.5 -5.5t4.5 -7.5t3 -8t2 -9.5t1 -9t1 -10.5t0.5 -9q2 -36 25 -85q37 13 63.5 45.5t40 74.5t19.5 82t6 81q0 52 -9.5 102.5t-31 100t-62.5 80.5t-97 31q-57 0 -98 -28
t-62.5 -75t-31 -96t-9.5 -102q0 -49 9.5 -97.5t30 -95t59 -77t90.5 -34.5z" />
    <glyph glyph-name="R" unicode="R" horiz-adv-x="740" 
d="M259 305v-178q0 -27 3.5 -38.5t17.5 -19.5q13 -7 18.5 -10.5t9.5 -9.5t4 -15q0 -34 -49 -34h-190q-49 0 -49 34q0 8 4 14.5t8 9.5t13 7q18 8 23 20.5t5 41.5v478q0 23 -1 32t-6 16.5t-16 10.5q-17 5 -23.5 12.5t-6.5 21.5q0 34 49 34h355q113 0 166 -27
q42 -21 67.5 -60.5t25.5 -86.5q0 -66 -42.5 -114.5t-109.5 -79.5q77 -82 139 -244q8 -19 12 -26.5t13 -17t23 -17.5q1 -1 6 -4t6 -3.5t4.5 -3.5t4.5 -5t2 -6t1 -8q0 -29 -52 -29h-196q-14 0 -20.5 0.5t-18 3t-16.5 10t-5 19.5q0 15 21.5 28t21.5 27q0 35 -44.5 115
t-78.5 118q-28 -7 -99 -16zM258 575v-193q39 1 77 9.5t74.5 25t59.5 48t23 73.5q0 62 -40.5 92.5t-104.5 30.5q-57 0 -73 -19.5t-16 -66.5z" />
    <glyph glyph-name="S" unicode="S" 
d="M150 144q22 -32 66 -56t107 -24q59 0 106.5 30.5t47.5 85.5q0 31 -18.5 53t-48.5 33t-68.5 21t-78.5 17.5t-78.5 23.5t-68.5 37.5t-48.5 60.5t-18.5 92q0 18 5.5 42.5t25 58.5t50 61.5t87 47t129.5 19.5q120 0 221 -52q22 -13 27 -29q7 -24 7 -90q0 -41 -37 -41
q-14 0 -26 14.5t-24.5 35.5t-30 42t-50.5 35.5t-79 14.5q-48 0 -86.5 -26t-38.5 -71q0 -36 23.5 -60t61 -36t82.5 -21.5t90 -24t82.5 -35.5t61 -62.5t23.5 -100.5q0 -43 -19 -86t-55.5 -81.5t-101 -63t-145.5 -24.5q-70 0 -126.5 14.5t-89.5 35t-55.5 46t-30.5 45.5t-8 35
q0 22 14 38.5t35 16.5t33.5 -11.5t45.5 -60.5z" />
    <glyph glyph-name="T" unicode="T" 
d="M246 127v477q0 34 -6 44t-34 10q-39 0 -67.5 -13t-41.5 -28.5t-28 -28.5t-30 -13q-33 0 -33 38q0 5 9 57q8 44 19 53t47 9h512q36 0 47 -9t19 -53q9 -52 9 -57q0 -38 -33 -38q-15 0 -30 13t-28 28.5t-41.5 28.5t-67.5 13q-28 0 -34 -10t-6 -44v-477q0 -27 3.5 -38.5
t17.5 -19.5q13 -7 18.5 -10.5t9.5 -9.5t4 -15q0 -34 -49 -34h-190q-49 0 -49 34q0 8 4 14.5t8 9.5t13 7q18 8 23 20.5t5 41.5z" />
    <glyph glyph-name="U" unicode="U" horiz-adv-x="760" 
d="M67 732h200q49 0 49 -32q0 -14 -6.5 -21t-22.5 -13t-23.5 -14.5t-9.5 -17.5t-3 -28q-11 -167 -11 -316q0 -68 14.5 -115t41.5 -70.5t57 -33t68 -9.5q84 0 131.5 51t47.5 181q0 64 -7 176t-8 158q0 12 -5 19t-9.5 9.5t-20.5 10.5q-26 13 -26 32q0 33 59 33h87q59 0 59 -33
q0 -19 -26 -32q-13 -7 -16 -8.5t-9.5 -7t-7.5 -11.5t-1 -17q0 -24 8 -141t8 -188q0 -89 -22.5 -151t-66.5 -95.5t-98 -48t-126 -14.5q-67 0 -119.5 14t-98.5 47.5t-71 97.5t-25 156q0 62 6.5 174t6.5 130q0 23 -1 32t-6 16.5t-16 10.5q-17 5 -23.5 12.5t-6.5 21.5
q0 35 49 35z" />
    <glyph glyph-name="V" unicode="V" horiz-adv-x="740" 
d="M56 732h165q62 0 62 -33q0 -13 -9 -22t-20 -12.5t-20 -13t-9 -24.5q0 -54 50 -190.5t140 -306.5q73 149 121 292.5t48 190.5q0 19 -11 31t-24.5 17t-24.5 15t-11 25q0 31 57 31h114q55 0 55 -33q0 -18 -20 -35q-17 -14 -23 -24t-14 -38q-13 -45 -27 -88.5l-24 -73.5
t-27.5 -74l-24.5 -62t-29.5 -67.5l-27 -59.5l-32.5 -69t-32 -68q-17 -35 -34 -45t-55 -10q-45 0 -60.5 10t-40.5 50q-78 128 -129.5 255.5t-97.5 323.5q-5 23 -17.5 34.5t-22 19t-9.5 20.5q0 34 64 34z" />
    <glyph glyph-name="W" unicode="W" horiz-adv-x="1000" 
d="M62 732h162q50 0 50 -35q0 -18 -25 -31q-16 -8 -21 -15.5t-5 -25.5q0 -57 33 -205.5t79 -259.5q96 245 96 424q0 43 -6 58t-23 27q-1 1 -5.5 4t-5.5 4t-4.5 4t-4.5 5t-2 5.5t-1 7.5q0 33 50 33h181q46 0 46 -35q0 -14 -12.5 -21.5t-25 -18t-12.5 -30.5q0 -53 44 -215
t95 -255q54 127 84 258.5t30 191.5q0 23 -10.5 37t-22.5 18.5t-22.5 13.5t-10.5 24q0 21 17.5 26.5t54.5 5.5h88q49 0 49 -31q0 -12 -18 -30q-3 -2 -9 -7.5t-8 -7.5t-5.5 -6.5t-5 -8t-3.5 -10t-3 -14.5q-29 -214 -87.5 -387.5t-91.5 -220.5q-17 -24 -71 -24q-40 0 -55 8.5
t-33 41.5q-17 30 -31.5 61.5t-29 71l-22.5 62.5t-24 73l-21 65q-66 -251 -125 -351q-11 -20 -26.5 -26t-44.5 -6q-50 0 -66.5 16t-41.5 73q-103 241 -140 538q-2 15 -3.5 21t-7 14.5t-16.5 16.5q-21 16 -21 34q0 16 10 23.5t22 9t38 1.5z" />
    <glyph glyph-name="X" unicode="X" horiz-adv-x="740" 
d="M203 0h-151q-53 0 -53 33q0 14 8 21t25 15q23 11 34.5 23.5t29.5 41.5q82 130 165 227q-90 98 -187 263q-16 27 -37 39l-16.5 9t-11 10.5t-5.5 17.5q0 26 32 32h215q11 -1 13.5 -1.5l12 -2.5t13 -5t7 -9t3.5 -14q0 -14 -16 -27t-16 -20q0 -19 30.5 -62.5t105.5 -132.5
q104 138 116 162q6 13 6 23q0 12 -12 20l-24.5 17t-12.5 24q0 28 44 28h114q23 0 34.5 -1.5t21 -9t9.5 -22.5q0 -10 -5.5 -17.5t-10 -11t-16.5 -9.5q-2 -1 -6.5 -3.5t-6.5 -4l-5.5 -4t-7 -6.5t-6.5 -9q-82 -127 -181 -236q118 -129 214 -283q14 -23 23 -31.5t28 -17.5
q27 -13 27 -34q0 -32 -57 -32h-224q-29 11 -29 34q0 16 18 27t18 16q0 19 -33.5 66t-126.5 158q-79 -105 -102 -142.5t-23 -66.5q0 -17 22 -32.5t22 -30.5q0 -24 -29 -29z" />
    <glyph glyph-name="Y" unicode="Y" horiz-adv-x="740" 
d="M281 127v165q-117 156 -208 319q-13 24 -20.5 31t-31.5 20q-29 14 -29 37q0 22 18.5 27.5t57.5 5.5h184q16 0 26 -2t18.5 -10.5t8.5 -23.5q0 -16 -22.5 -27.5t-22.5 -22.5q0 -25 32.5 -81t130.5 -192q84 105 124.5 173t40.5 92q0 15 -24 29t-24 31q0 34 53 34h87
q22 0 33.5 -1.5t21 -9t9.5 -22.5q0 -7 -6 -17t-13 -14q-17 -9 -23.5 -16t-19.5 -29q-103 -182 -219 -323v-173q0 -27 3.5 -38.5t17.5 -19.5q13 -7 18.5 -10.5t9.5 -9.5t4 -15q0 -34 -49 -34h-190q-49 0 -49 34q0 8 4 14.5t8 9.5t13 7q18 8 23 20.5t5 41.5z" />
    <glyph glyph-name="Z" unicode="Z" horiz-adv-x="620" 
d="M105 732h431q25 0 37 -1.5t22.5 -11t10.5 -27.5q0 -32 -49 -120t-140 -212q-119 -161 -153.5 -211.5t-34.5 -61.5q0 -10 26 -10h99q63 0 102.5 10.5t75.5 47.5q28 30 47 30q34 0 34 -32q0 -11 -12 -89q-3 -21 -11.5 -31t-16.5 -11.5t-26 -1.5h-449q-24 0 -39.5 2.5
t-29.5 15t-14 35.5q0 64 210 342q170 227 170 254q0 11 -45 11q-113 0 -154.5 -9.5t-67.5 -43.5q-27 -34 -46 -34q-15 0 -25 9t-10 24q0 78 13 110q6 16 45 16z" />
    <glyph glyph-name="bracketleft" unicode="[" horiz-adv-x="320" 
d="M70 -132v812q0 36 9.5 44t45.5 8h125q40 0 52.5 -5.5t12.5 -26.5q0 -27 -40 -35q-37 -7 -48 -21t-11 -70v-600q0 -56 11 -70t48 -21q40 -8 40 -35q0 -21 -12.5 -26.5t-52.5 -5.5h-125q-36 0 -45.5 8t-9.5 44z" />
    <glyph glyph-name="backslash" unicode="\" horiz-adv-x="640" 
d="M441 0l-313 757h72l313 -757h-72z" />
    <glyph glyph-name="bracketright" unicode="]" horiz-adv-x="320" 
d="M104 -26v600q0 56 -11 70t-48 21q-40 8 -40 35q0 21 12.5 26.5t52.5 5.5h125q36 0 45.5 -8t9.5 -44v-812q0 -36 -9.5 -44t-45.5 -8h-125q-40 0 -52.5 5.5t-12.5 26.5q0 27 40 35q37 7 48 21t11 70z" />
    <glyph glyph-name="asciicircum" unicode="^" horiz-adv-x="660" 
d="M123 178h-93l253 554h90l256 -554h-95l-207 455z" />
    <glyph glyph-name="underscore" unicode="_" horiz-adv-x="500" 
d="M0 -75h500v-50h-500v50z" />
    <glyph glyph-name="grave" unicode="`" horiz-adv-x="380" 
d="M170 675l110 -62q40 -22 40 -33q0 -13 -7.5 -29t-17.5 -16q-12 0 -70 15l-135 35q-45 12 -45 35q0 21 16.5 50.5t34.5 29.5q30 0 74 -25z" />
    <glyph glyph-name="a" unicode="a" horiz-adv-x="580" 
d="M516 295v-158q0 -38 3 -51t16 -19q18 -9 25.5 -16t7.5 -19q0 -15 -9.5 -22.5t-18.5 -8.5t-26 -1h-104q-35 0 -42.5 12t-7.5 50q-47 -77 -155 -77q-75 0 -127.5 40.5t-52.5 114.5q0 50 29 87t75.5 55.5t92.5 26.5t93 8h34q0 47 -23.5 76t-69.5 29q-30 0 -65.5 -32
t-67.5 -32q-25 0 -43.5 12t-18.5 36t24.5 42t61.5 26t67 11.5t54 3.5q126 0 187 -51.5t61 -142.5zM354 254h-18q-59 0 -101 -29.5t-42 -85.5q0 -30 17 -51t46 -21q45 0 77 48q16 25 18.5 43t2.5 96z" />
    <glyph glyph-name="b" unicode="b" horiz-adv-x="620" 
d="M221 659v-222q65 52 141 52q104 0 165.5 -66.5t61.5 -172.5q0 -124 -86 -194.5t-214 -70.5q-104 0 -167 45q-39 29 -51.5 69t-12.5 100v352q0 65 -5 82t-27 29q-1 1 -4 2.5l-5 2.5t-4.5 2.5t-3.5 3t-3 3.5t-3 4t-1.5 4.5t-0.5 5.5q0 13 10.5 20.5t37.5 15.5
q111 31 131 31q14 0 23 -8.5t12.5 -26t4.5 -30t1 -33.5zM221 280v-55q0 -35 3 -60.5t11 -53t27.5 -42.5t48.5 -15q40 0 65 31t32.5 67t7.5 76q0 27 -4 55t-14 59t-31 51t-49 20q-44 0 -70.5 -34t-26.5 -99z" />
    <glyph glyph-name="c" unicode="c" horiz-adv-x="520" 
d="M455 38q-79 -53 -163 -53q-112 0 -190.5 67.5t-78.5 178.5q0 115 78 186.5t194 71.5q38 0 82 -9.5t83.5 -36t39.5 -64.5q0 -24 -17 -39t-41 -15t-42.5 14t-28.5 31.5t-28.5 31.5t-43.5 14q-29 0 -50.5 -19t-32.5 -49t-16 -58t-5 -56h1q0 -66 32 -115t95 -49q67 0 118 51
q25 25 41 25q12 0 20.5 -9.5t8.5 -21.5q0 -36 -56 -77z" />
    <glyph glyph-name="d" unicode="d" horiz-adv-x="620" 
d="M391 456v95q0 65 -5 82t-27 29q-1 1 -4 2.5l-5 2.5t-4.5 2.5t-3.5 3t-3 3.5t-3 4t-1.5 4.5t-0.5 5.5q0 13 10.5 20.5t37.5 15.5q111 31 131 31q14 0 23 -8.5t12.5 -26t4.5 -30t1 -33.5v-522q0 -38 5 -52t22 -22q25 -13 25 -31q0 -32 -54 -32h-102q-36 0 -44 12t-8 50
q-46 -77 -147 -77t-166.5 70.5t-65.5 173.5q0 111 72.5 185.5t182.5 74.5q58 0 117 -33zM391 178v134q0 50 -21 74q-25 30 -66 30t-68 -31.5t-35.5 -69.5t-8.5 -79t7.5 -76t33 -65t66.5 -30q50 0 77 42q15 25 15 71z" />
    <glyph glyph-name="e" unicode="e" horiz-adv-x="560" 
d="M203 172q11 -48 46 -77.5t83 -29.5q68 0 135 60q2 2 7.5 7t7.5 6.5t6.5 4t9 3.5t10.5 1q11 0 20 -8t9 -19q0 -24 -27 -51t-54 -42q-70 -42 -166 -42q-108 0 -188.5 65t-80.5 171q0 121 89 194.5t212 73.5q78 0 141.5 -37t63.5 -109q0 -138 -324 -171zM194 239
q40 3 76.5 13t68.5 37t32 65q0 30 -15.5 47.5t-44.5 17.5q-58 0 -89.5 -59.5t-27.5 -120.5z" />
    <glyph glyph-name="f" unicode="f" horiz-adv-x="360" 
d="M253 404v-269q0 -37 5 -50.5t22 -21.5q25 -13 25 -31q0 -32 -54 -32h-159q-54 0 -54 32q0 18 25 31q17 8 22 21.5t5 50.5v269h-13q-20 0 -30 1.5t-18.5 10.5t-8.5 27q0 25 13 31.5t39 6.5h19q-2 122 25 179q22 48 65.5 72.5t98.5 24.5q38 0 71.5 -17t33.5 -51
q0 -24 -15.5 -41t-39.5 -17q-18 0 -39.5 14.5t-22.5 14.5q-15 0 -15 -56v-123h29q26 0 39 -1.5t23.5 -10t10.5 -25.5q0 -18 -10.5 -27.5t-22.5 -11t-37 -1.5h-32z" />
    <glyph glyph-name="g" unicode="g" horiz-adv-x="600" 
d="M459 481h55q21 0 32.5 -1.5t23 -11.5t11.5 -29q0 -16 -11.5 -24.5t-21.5 -9.5t-28 -2h-26q55 -60 55 -143q0 -119 -101 -185q51 -12 84.5 -41t33.5 -77q0 -45 -29 -77.5t-76 -47.5t-89.5 -21t-85.5 -6q-34 0 -68.5 3t-82 11.5t-77 30t-29.5 52.5q0 39 34.5 59.5
t75.5 20.5q55 0 55 -26q0 -8 -4.5 -14t-4.5 -13q0 -22 33.5 -31.5t63.5 -9.5t56 5t49.5 22.5t23.5 47.5q0 46 -66 74q-36 -10 -77 -10q-105 0 -175.5 59.5t-70.5 163.5q0 119 82 183q72 56 195 56q28 0 80 -4t80 -4zM281 99q29 0 49.5 17t30 45t13 53.5t3.5 53.5
q0 34 -6.5 66.5t-28 62t-55.5 29.5t-56.5 -31t-29.5 -65.5t-7 -68.5q0 -26 3 -50t11.5 -51.5t27 -44t45.5 -16.5z" />
    <glyph glyph-name="h" unicode="h" horiz-adv-x="620" 
d="M228 659v-218q67 48 146 48q187 0 187 -203v-151q0 -40 2 -52t13 -20q25 -11 25 -31q0 -21 -12.5 -26.5t-34.5 -5.5h-149q-14 0 -22.5 1.5t-16.5 9t-8 21.5q0 20 25 31q11 8 13 20t2 52v158q0 34 -4.5 56.5t-23.5 40.5t-53 18q-41 0 -67 -29q-22 -24 -22 -70v-174
q0 -40 2 -52t13 -20q25 -11 25 -31q0 -21 -12.5 -26.5t-34.5 -5.5h-149q-14 0 -22.5 1.5t-16.5 9t-8 21.5q0 20 25 31q11 8 13 20t2 52v416q0 65 -5 82t-27 29q-1 1 -4 2.5l-5 2.5t-4.5 2.5t-3.5 3t-3 3.5t-3 4t-1.5 4.5t-0.5 5.5q0 13 10.5 20.5t37.5 15.5q111 31 131 31
q14 0 23 -8.5t12.5 -26t4.5 -30t1 -33.5z" />
    <glyph glyph-name="i" unicode="i" horiz-adv-x="300" 
d="M143 546q-36 0 -65.5 20.5t-29.5 54.5q0 38 29.5 61t67.5 23q40 0 69 -21t29 -59q0 -36 -31 -57.5t-69 -21.5zM78 135v148q0 65 -5 82t-27 29q-1 1 -4 2.5l-5 2.5t-4.5 2.5t-3.5 3t-3 3.5t-3 4t-1.5 4.5t-0.5 5.5q0 13 10.5 20.5t37.5 15.5q111 31 131 31q14 0 23 -8.5
t12.5 -26t4.5 -30t1 -33.5v-256q0 -40 2 -52t13 -20q25 -11 25 -31q0 -21 -12.5 -26.5t-34.5 -5.5h-149q-14 0 -22.5 1.5t-16.5 9t-8 21.5q0 20 25 31q11 8 13 20t2 52z" />
    <glyph glyph-name="j" unicode="j" horiz-adv-x="300" 
d="M157 546q-36 0 -65.5 20.5t-29.5 54.5q0 38 29.5 61t67.5 23q40 0 69 -21t29 -59q0 -36 -31 -57.5t-69 -21.5zM89 -64v347q0 65 -5 82t-27 29q-1 1 -4 2.5l-5 2.5t-4.5 2.5t-3.5 3t-3 3.5t-3 4t-1.5 4.5t-0.5 5.5q0 13 10.5 20.5t37.5 15.5q111 31 131 31q14 0 23 -8.5
t12.5 -26t4.5 -30t1 -33.5v-350q0 -36 -1 -55.5t-8 -49.5t-21 -51q-24 -38 -63.5 -59t-85.5 -21q-42 0 -81 18t-39 55q0 23 15 39t38 16q24 0 47.5 -19t25.5 -19q10 0 10 41z" />
    <glyph glyph-name="k" unicode="k" horiz-adv-x="600" 
d="M63 135v416q0 65 -5 82t-27 29q-1 1 -4 2.5l-5 2.5t-4.5 2.5t-3.5 3t-3 3.5t-3 4t-1.5 4.5t-0.5 5.5q0 13 10.5 20.5t37.5 15.5q111 31 131 31q14 0 23 -8.5t12.5 -26t4.5 -30t1 -33.5v-386q33 12 93 61t60 73q0 10 -18 21.5t-18 23.5q0 20 26 25q22 4 102 4h11h14.5
t14.5 -0.5t15 -2.5t12 -5t9 -8.5t3 -12.5q0 -6 -2 -11t-6.5 -9.5t-7.5 -6.5t-10.5 -6.5t-9.5 -5.5q-4 -2 -45.5 -44t-80.5 -67q83 -74 157 -206q11 -22 28 -32q23 -13 23 -31q0 -33 -46 -33h-165q-50 0 -50 32q0 12 15 22.5t15 19.5q0 22 -39 76.5t-63 73.5l-37 -21v-68
q0 -40 2 -52t13 -20q25 -11 25 -31q0 -21 -12.5 -26.5t-34.5 -5.5h-149q-14 0 -22.5 1.5t-16.5 9t-8 21.5q0 20 25 31q11 8 13 20t2 52z" />
    <glyph glyph-name="l" unicode="l" horiz-adv-x="300" 
d="M73 135v416q0 65 -5 82t-27 29q-1 1 -4 2.5l-5 2.5t-4.5 2.5t-3.5 3t-3 3.5t-3 4t-1.5 4.5t-0.5 5.5q0 13 10.5 20.5t37.5 15.5q111 31 131 31q14 0 23 -8.5t12.5 -26t4.5 -30t1 -33.5v-524q0 -29 1 -39.5t6.5 -18.5t18.5 -14q25 -11 25 -31q0 -21 -14 -26.5t-44 -5.5
h-149q-20 0 -30.5 1.5t-19 8.5t-8.5 22q0 20 25 31q18 8 22 20t4 52z" />
    <glyph glyph-name="m" unicode="m" horiz-adv-x="920" 
d="M68 135v183v12v11.5t-0.5 9.5t-1.5 9l-3.5 7t-5.5 8t-8 6.5t-11 6.5q-21 8 -21 27q0 24 61.5 49t92.5 25q34 0 45 -72q63 72 161 72t143 -81q54 81 171 81q77 0 126 -46q44 -42 44 -137v-171q0 -40 2 -52t13 -20q25 -11 25 -31q0 -21 -12.5 -26.5t-34.5 -5.5h-149
q-14 0 -22.5 1.5t-16.5 9t-8 21.5q0 20 25 31q11 8 13 20t2 52v147q0 18 -0.5 26t-2 25t-5.5 26t-11 19.5t-18.5 15.5t-27.5 5q-43 0 -69 -34q-18 -24 -18 -88v-142q0 -40 2 -52t13 -20q25 -11 25 -31q0 -21 -12.5 -26.5t-34.5 -5.5h-149q-14 0 -22.5 1.5t-16.5 9t-8 21.5
q0 20 25 31q11 8 13 20t2 52v147q0 18 -0.5 26t-2 25t-5.5 26t-11 19.5t-18.5 15.5t-27.5 5q-43 0 -69 -34q-18 -24 -18 -88v-142q0 -40 2 -52t13 -20q25 -11 25 -31q0 -21 -12.5 -26.5t-34.5 -5.5h-149q-14 0 -22.5 1.5t-16.5 9t-8 21.5q0 20 25 31q11 8 13 20t2 52z" />
    <glyph glyph-name="n" unicode="n" horiz-adv-x="620" 
d="M561 291v-156q0 -40 2 -52t13 -20q25 -11 25 -31q0 -21 -12.5 -26.5t-34.5 -5.5h-149q-14 0 -22.5 1.5t-16.5 9t-8 21.5q0 20 25 31q11 8 13 20t2 52v153q0 21 -0.5 34t-4.5 30.5t-11.5 27.5t-22 17.5t-35.5 7.5q-52 0 -77 -41q-15 -24 -15 -82v-147q0 -40 2 -52t13 -20
q25 -11 25 -31q0 -21 -12.5 -26.5t-34.5 -5.5h-149q-14 0 -22.5 1.5t-16.5 9t-8 21.5q0 20 25 31q11 8 13 20t2 52v183v12v11.5t-0.5 9.5t-1.5 9l-3.5 7t-5.5 8t-8 6.5t-11 6.5q-21 8 -21 27q0 24 61.5 49t92.5 25q34 0 45 -72q59 72 159 72q92 0 142 -53q43 -47 43 -145z
" />
    <glyph glyph-name="o" unicode="o" horiz-adv-x="620" 
d="M309 -15q-124 0 -203.5 69.5t-79.5 180.5q0 100 79.5 177t212.5 77q110 0 193.5 -70t83.5 -179q0 -113 -86 -184t-200 -71zM310 55q113 0 113 192q0 30 -5 57.5t-16.5 54.5t-34.5 43t-55 16q-61 0 -87.5 -53.5t-26.5 -122.5q0 -33 4.5 -61.5t15.5 -59t34.5 -48.5
t57.5 -18z" />
    <glyph glyph-name="p" unicode="p" horiz-adv-x="640" 
d="M242 277v-326q0 -29 1 -39.5t6.5 -18.5t18.5 -14q25 -11 25 -31q0 -21 -14 -26.5t-44 -5.5h-149q-20 0 -30.5 1.5t-19 8.5t-8.5 22q0 20 25 31q18 8 22 20t4 52v367v12v11.5t-0.5 9.5t-1.5 9l-3.5 7t-5.5 8t-8 6.5t-11 6.5q-21 8 -21 27q0 24 61.5 49t92.5 25
q34 0 45 -72q67 72 154 72q106 0 170 -71.5t64 -178.5t-69.5 -180.5t-174.5 -73.5q-21 0 -42.5 4.5t-41.5 19t-20 35.5q0 10 6 17.5t16 7.5q7 0 22.5 -1.5t23.5 -1.5q41 0 74.5 41.5t33.5 125.5q0 28 -5 55.5t-16.5 54.5t-33.5 44t-52 17q-43 0 -70 -32q-24 -27 -24 -95z
" />
    <glyph glyph-name="q" unicode="q" horiz-adv-x="620" 
d="M393 -49v88q-59 -54 -144 -54q-97 0 -160.5 68t-63.5 167q0 113 73 191t184 78q81 0 150 -48q59 48 90 48q23 0 28.5 -14t5.5 -41v-483q0 -29 1 -39.5t6.5 -18.5t18.5 -14q25 -11 25 -31q0 -21 -14 -26.5t-44 -5.5h-149q-20 0 -30.5 1.5t-19 8.5t-8.5 22q0 20 25 31
q18 8 22 20t4 52zM393 170v117q0 53 -20 91t-68 38q-42 0 -67.5 -33t-33 -70.5t-7.5 -79.5q0 -29 5 -56.5t16 -55.5t33 -45t53 -17q45 0 72 37q17 23 17 74z" />
    <glyph glyph-name="r" unicode="r" horiz-adv-x="440" 
d="M90 135v183q0 44 -42 64q-27 13 -27 33q0 11 9.5 21t17 14t22.5 10q76 29 105 29q48 0 57 -104q21 42 56 73t75 31q32 0 53.5 -21t21.5 -53q0 -26 -14.5 -47.5t-38.5 -21.5q-14 0 -35.5 6.5t-31.5 6.5q-13 0 -26.5 -10t-26 -45t-12.5 -90v-79q0 -41 3.5 -52t23.5 -21
q24 -13 24 -30q0 -15 -9.5 -22.5t-18.5 -8.5t-26 -1h-157q-17 0 -26 1t-18.5 8.5t-9.5 22.5q0 17 24 30q18 9 22.5 20.5t4.5 52.5z" />
    <glyph glyph-name="s" unicode="s" horiz-adv-x="500" 
d="M101 11q-79 35 -79 86q0 18 12 32t30 14q11 0 20 -5t12 -8t14 -16q20 -22 30.5 -31.5t29.5 -18t43 -8.5q31 0 58 15t27 44q0 28 -27 42.5t-65 22t-76 18.5t-65 41t-27 80q0 85 69.5 127.5t159.5 42.5q39 0 85 -10t73 -28q21 -13 21 -67q0 -49 -30 -49q-14 0 -27 13.5
t-22.5 29.5t-32.5 29.5t-56 13.5q-29 0 -52.5 -14t-23.5 -42q0 -25 27.5 -39t66.5 -22t78 -20.5t66.5 -44t27.5 -81.5q0 -76 -68 -124.5t-167 -48.5q-75 0 -132 26z" />
    <glyph glyph-name="t" unicode="t" horiz-adv-x="380" 
d="M242 402v-255q0 -38 10.5 -54t46.5 -16q23 0 35 -1.5t22.5 -10.5t10.5 -27q0 -38 -67 -38h-137q-50 0 -67 14t-17 63v325h-20q-20 0 -30 1.5t-20 10.5t-10 27t10 25t30 11l26.5 4.5t21 8.5t19.5 18q18 29 28 91q6 29 16 39.5t39 10.5q35 0 44 -8.5t9 -39.5v-120h56
q20 0 30.5 -1.5t21 -11t10.5 -27.5q0 -39 -60 -39h-58z" />
    <glyph glyph-name="u" unicode="u" horiz-adv-x="620" 
d="M61 169v166q0 30 -3.5 43t-18.5 25q-17 13 -17 26q0 14 11 21.5t43 17.5q62 19 105 19q23 0 33 -18.5t10 -68.5v-222q0 -24 1.5 -39t7.5 -34t21 -28t38 -9q45 0 73 35q18 22 18 78v154q0 30 -3.5 43t-18.5 25q-17 13 -17 26q0 14 11 21.5t43 17.5q62 19 105 19
q23 0 33 -18.5t10 -68.5v-263q0 -38 5 -52t22 -22q25 -13 25 -31q0 -32 -54 -32h-97q-36 0 -44 12t-8 50q-67 -77 -170 -77q-96 0 -145 75q-19 30 -19 109z" />
    <glyph glyph-name="v" unicode="v" horiz-adv-x="540" 
d="M55 481h130q20 0 31.5 -1t22.5 -8t11 -21q0 -16 -20.5 -31.5t-20.5 -32.5q0 -44 37.5 -136.5t69.5 -141.5q49 94 70.5 165t21.5 106q0 24 -23 40.5t-23 32.5q0 13 8.5 19.5t18.5 7.5t28 1h55q24 0 35 -1t19.5 -7t8.5 -18q0 -16 -14 -30q-17 -17 -20.5 -24t-10.5 -36
l-11 -42q-35 -120 -78 -207t-66 -111q-19 -20 -60 -20q-34 0 -52 9t-36 36q-51 78 -83.5 158.5t-62.5 188.5q-8 31 -22 42q-22 16 -22 31q0 20 14 25.5t44 5.5z" />
    <glyph glyph-name="w" unicode="w" horiz-adv-x="800" 
d="M45 481h144q51 2 51 -32q0 -17 -17.5 -28t-17.5 -25q0 -42 25.5 -135.5t61.5 -155.5q60 117 60 243q0 21 -0.5 30t-6 22t-17.5 22q-18 16 -18 31q0 28 46 28h132q17 0 26 -1t18.5 -8.5t9.5 -21.5q0 -16 -17 -27t-17 -26q0 -44 25 -131.5t64 -160.5q28 54 55.5 138
t27.5 133q0 29 -22.5 44t-22.5 34q0 27 55 27h52q62 0 62 -28q0 -13 -14 -29q-21 -24 -28 -51q-84 -308 -145 -366q-22 -22 -65 -22q-29 0 -45 6.5t-32 27.5q-33 45 -78 164q-39 -103 -79 -160q-16 -22 -32 -30t-43 -8q-45 0 -64 17.5t-43 67.5q-74 150 -100 308
q-5 28 -13 35q-25 20 -25 37q0 31 47 31z" />
    <glyph glyph-name="x" unicode="x" horiz-adv-x="560" 
d="M145 0h-85q-16 0 -26 1t-19.5 8.5t-9.5 20.5q0 22 23 33l14 8l9 5.5t7.5 6.5t5.5 6.5l8.5 10.5t10.5 14q45 58 100 116q-45 52 -122 159q-13 20 -34 31q-23 13 -23 31q0 30 44 30h171q48 0 48 -29q0 -10 -10.5 -22t-10.5 -18q0 -22 74 -99q20 20 42 49t22 44
q0 8 -17 19.5t-17 26.5q0 19 12 24t44 5h58q32 0 45 -4.5t13 -22.5t-27 -35q-13 -9 -16.5 -12.5t-13.5 -18.5q-43 -61 -105 -123q36 -40 73 -89.5l58 -75.5t36 -34q9 -5 12 -6.5t9 -6t8.5 -10.5t2.5 -13q0 -12 -11 -21t-25 -9h-179q-53 0 -53 30q0 14 12 25.5t12 15.5
q0 12 -60 80q-18 19 -28 31q-65 -71 -65 -97q0 -12 21.5 -24t21.5 -31q0 -20 -14 -25t-46 -5z" />
    <glyph glyph-name="y" unicode="y" horiz-adv-x="540" 
d="M46 481h130q21 0 32.5 -1.5t21 -9t9.5 -22.5q0 -10 -17 -27.5t-17 -43.5q0 -89 32 -181q40 -113 80 -113q28 0 51 62.5t33 125.5t10 94q0 26 -4 37t-22 21q-21 13 -21 30q0 13 8 19.5t18 7.5t31 1h57q26 0 37 -1t18.5 -7t7.5 -18q0 -15 -14 -30t-15 -24
q-14 -107 -44.5 -209t-76 -190.5t-111 -142.5t-141.5 -54q-32 0 -60.5 16.5t-28.5 45.5q0 24 17.5 38.5t41.5 14.5q18 0 44 -11t33 -11q20 0 50.5 27.5t66.5 88.5q-52 -13 -63 -13q-36 0 -65.5 18t-57.5 59.5t-50 120t-36 190.5q-3 25 -18.5 37.5t-15.5 26.5q0 31 49 28z
" />
    <glyph glyph-name="z" unicode="z" horiz-adv-x="500" 
d="M401 0h-307q-16 0 -26.5 1t-23.5 5t-20 14t-7 25q0 31 42 87l224 286h-75q-38 0 -59.5 -7.5t-40.5 -33.5q-22 -33 -41 -33q-12 0 -19.5 9t-7.5 22q0 49 15 87q7 19 49 19h303q26 0 38 -1.5t21 -10t9 -26.5q0 -35 -58 -111l-201 -264h75q50 0 74.5 10.5t45.5 41.5
q19 27 37 27q26 0 26 -26q0 -46 -16 -92q-10 -29 -57 -29z" />
    <glyph glyph-name="braceleft" unicode="{" horiz-adv-x="340" 
d="M96 -51v204q0 54 -21 81q-23 28 -60 38q26 3 52 25q14 11 20.5 28t7.5 28.5t1 37.5v180q0 91 31 124q18 19 49.5 28t52 9.5t71.5 -0.5q-58 -27 -58 -122v-191q0 -65 -17.5 -100t-71.5 -47q52 -13 70.5 -45.5t18.5 -93.5v-205q0 -50 13.5 -78.5t44.5 -44.5h-25.5h-24.5
t-21 0.5t-21 1.5l-17.5 3t-19 5t-16.5 7t-17 10q-26 19 -34 46.5t-8 70.5z" />
    <glyph glyph-name="bar" unicode="|" horiz-adv-x="660" 
d="M282 -250v1000h96v-1000h-96z" />
    <glyph glyph-name="braceright" unicode="}" horiz-adv-x="340" 
d="M97 -72v205q0 61 18.5 93.5t70.5 45.5q-54 12 -71.5 47t-17.5 100v191q0 95 -58 122q51 1 71.5 0.5t52 -9.5t49.5 -28q31 -33 31 -124v-180q0 -26 1 -37.5t7.5 -28.5t20.5 -28q26 -22 52 -25q-37 -10 -60 -38q-21 -27 -21 -81v-204q0 -43 -8 -70.5t-34 -46.5
q-8 -6 -17 -10t-16.5 -7t-19 -5l-17.5 -3t-21 -1.5t-21 -0.5h-24.5h-25.5q31 16 44.5 44.5t13.5 78.5z" />
    <glyph glyph-name="asciitilde" unicode="~" horiz-adv-x="660" 
d="M548 380l74 -47l-34 -46t-33 -35.5t-46.5 -31.5t-53.5 -9q-38 0 -103 25l-53 20q-69 24 -87 24q-10 0 -19 -2.5t-15.5 -5.5t-14 -9.5t-12 -11t-11.5 -13.5t-10 -13.5l-10 -15.5t-9 -15l-74 49q37 60 76.5 94t96.5 34q47 0 132.5 -34.5t112.5 -34.5q9 0 17.5 2t17 8.5
t13.5 10t13.5 14l11 13.5t11 16t9.5 14z" />
    <glyph glyph-name="uni00A0" unicode="&#xa0;" horiz-adv-x="340" 
 />
    <glyph glyph-name="exclamdown" unicode="&#xa1;" horiz-adv-x="360" 
d="M180 489q35 0 64 -21.5t29 -54.5q0 -35 -29 -55.5t-64 -20.5q-37 0 -67 21t-30 56t30.5 55t66.5 20zM180 285q18 0 28 -9t12.5 -17.5t5.5 -28.5q57 -392 57 -425q0 -46 -27 -62t-76 -16t-76 16t-27 62q0 33 57 425q3 20 5.5 28.5t12.5 17.5t28 9z" />
    <glyph glyph-name="cent" unicode="&#xa2;" 
d="M399 142v-78q0 -18 -1 -26.5t-9.5 -17t-24.5 -8.5q-24 0 -30.5 11t-6.5 36v80q-99 5 -159 70t-60 165q0 96 61.5 163.5t157.5 81.5v90q0 24 6.5 36t28.5 12t28 -11.5t6 -36.5v-90q47 0 102 -28.5t55 -70.5q0 -24 -17 -38.5t-41 -14.5t-41 14t-25.5 30.5t-25 30.5
t-39.5 14q-36 0 -60 -31.5t-31.5 -67.5t-7.5 -72q0 -65 32 -119t93 -54q55 0 102 51q24 26 41 26q13 0 21.5 -9t8.5 -22q0 -34 -56 -73q-49 -34 -108 -43z" />
    <glyph glyph-name="sterling" unicode="&#xa3;" 
d="M131 342h-64q-17 0 -25 1t-13.5 5t-5.5 13q0 29 12 44q10 14 37 14h46q-6 42 -6 74q0 119 74 188t194 69q113 0 173 -46t60 -101q0 -61 -63 -61q-32 0 -47.5 15t-22.5 55q-11 68 -93 68q-51 0 -80 -34t-29 -86q0 -53 20 -141h159q41 0 41 -16q0 -8 -7 -25t-13 -24
q-10 -12 -44 -12h-124l6 -79q0 -86 -54 -155q65 42 109 42q32 0 84.5 -15t74.5 -15q16 0 28 6t18.5 12t19.5 21q1 2 4.5 6t5.5 6.5t5.5 5.5t6 4.5t6.5 3t8 1.5q11 0 19 -9t8 -20q0 -37 -51 -97q-62 -75 -139 -75q-40 0 -127 24t-124 24q-52 0 -98 -28q-26 -18 -38 -18
q-15 0 -27 17.5t-12 32.5q0 12 11 20t27.5 16t32.5 21t27 41t11 69q0 33 -21 138z" />
    <glyph glyph-name="currency" unicode="&#xa4;" 
d="M340 471q-46 0 -74 -31.5t-28 -78.5q0 -48 28 -80t74 -32t75 32.5t29 79.5t-29 78.5t-75 31.5zM59 146l98 98q-31 51 -31 117t31 115l-98 98q-18 18 -17.5 38t13 32.5t32.5 13t38 -17.5l98 -98q54 33 117 33q67 0 117 -33l98 98q24 24 50.5 16.5t31.5 -32t-16 -50.5
l-98 -98q33 -50 33 -115q0 -67 -33 -117l98 -98q12 -12 16 -25.5t0.5 -25t-12 -20t-20 -12t-25 0.5t-25.5 16l-98 98q-50 -33 -117 -33q-63 0 -117 33l-98 -98q-24 -24 -50.5 -16.5t-31.5 32t16 50.5z" />
    <glyph glyph-name="yen" unicode="&#xa5;" 
d="M266 234v58l-9 13h-111q-17 0 -27 1.5t-19.5 9t-9.5 22.5q0 20 16.5 25.5t50.5 5.5h56q-79 116 -137 237q-15 31 -25 40l-17 11q-1 1 -6.5 4t-7.5 4.5l-6 4.5t-5.5 5.5l-4 6.5t-3.5 8t-1 9q0 33 43 33h194q38 0 38 -34q0 -13 -21 -27.5t-21 -25.5q0 -48 151 -272
q36 46 94 140.5t58 124.5q0 15 -22 29.5t-22 33.5q0 31 52 31h84q52 0 52 -24q0 -25 -18 -40q-25 -18 -41 -51q-49 -97 -151 -248h93q37 0 37 -32q0 -21 -8.5 -26.5t-28.5 -5.5h-140v-71h125q16 0 25.5 -1.5t18 -9t8.5 -21.5q0 -21 -10.5 -27t-31.5 -5h-135v-34
q0 -36 4 -48.5t20 -20.5q25 -13 25 -32q0 -35 -43 -35h-151q-24 0 -35 1.5t-19 9.5t-8 25q0 18 25 31q16 7 20.5 14.5t4.5 26.5v62h-115q-20 0 -30.5 1.5t-20.5 8.5t-10 22q0 21 15.5 26.5t45.5 5.5h115z" />
    <glyph glyph-name="brokenbar" unicode="&#xa6;" horiz-adv-x="660" 
d="M282 -175v350h96v-350h-96zM282 325v350h96v-350h-96z" />
    <glyph glyph-name="section" unicode="&#xa7;" horiz-adv-x="600" 
d="M119 432q-30 35 -43 60t-13 63q0 80 66.5 136t174.5 56q96 0 171 -35q10 -5 17 -11t12 -17t6.5 -15.5t4.5 -21.5t4 -20q9 -42 9 -49q0 -15 -10.5 -25t-25.5 -10q-4 0 -8 1t-7.5 4t-6.5 5t-6.5 6.5t-5 6t-5 7t-4.5 6.5q-18 25 -29.5 39t-29.5 30.5t-39 24t-47 7.5
q-41 0 -74 -22.5t-33 -61.5t37.5 -63.5t91 -39t107 -33t91 -58.5t37.5 -102q0 -86 -78 -162q59 -61 59 -130q0 -103 -82 -164.5t-188 -61.5q-74 0 -146 32q-37 16 -46 28q-7 8 -11 20q-8 20 -17.5 65.5t-9.5 63.5q0 15 9 26t24 11q18 0 32.5 -18t27.5 -43.5t29 -51
t43.5 -43.5t64.5 -18q48 0 88.5 31t40.5 78q0 33 -20.5 57t-54 38t-73 25.5t-79.5 26t-73.5 33.5t-54 53t-20.5 80q0 84 93 156zM181 395q-33 -31 -33 -67q0 -35 27 -53.5t74 -30.5q114 -33 174 -65q27 44 27 71q0 23 -16.5 41t-33.5 25.5t-43 16.5q-131 41 -176 62z" />
    <glyph glyph-name="dieresis" unicode="&#xa8;" horiz-adv-x="540" 
d="M153 566q-30 0 -53 20.5t-23 50.5q0 31 23 51.5t54 20.5q32 0 53.5 -20t21.5 -52q0 -29 -23 -50t-53 -21zM387 565q-30 0 -52.5 21.5t-22.5 51.5q0 29 22 49.5t51 20.5q34 0 56.5 -19.5t22.5 -52.5q0 -30 -23.5 -50.5t-53.5 -20.5z" />
    <glyph glyph-name="copyright" unicode="&#xa9;" horiz-adv-x="840" 
d="M36 366q0 158 112 269.5t269 111.5q158 0 270 -111.5t112 -269.5t-112 -269.5t-270 -111.5q-157 0 -269 111.5t-112 269.5zM100 366q0 -136 94.5 -226.5t222.5 -90.5q129 0 223.5 90.5t94.5 226.5t-94.5 226.5t-223.5 90.5q-128 0 -222.5 -90.5t-94.5 -226.5zM548 246
q15 22 25 25q5 1 10 1q11 0 19 -8.5t8 -19.5q0 -28 -26 -56q-57 -66 -156 -66q-116 0 -179.5 72t-63.5 177q0 99 64.5 173t172.5 74q38 0 81 -12.5t69 -33.5q14 -11 17 -65q0 -11 1 -22t-6.5 -19.5t-23.5 -8.5q-13 0 -23 15t-18.5 33.5t-33.5 33.5t-64 15q-43 0 -70 -30.5
t-36.5 -69.5t-9.5 -86q0 -73 33.5 -123t97.5 -50q42 0 66.5 10.5t45.5 40.5z" />
    <glyph glyph-name="ordfeminine" unicode="&#xaa;" horiz-adv-x="440" 
d="M371 612v-89q0 -20 2.5 -27.5t13.5 -12.5q17 -8 17 -21q0 -14 -10 -18t-32 -4h-62q-15 0 -21 1.5t-10 8t-4 20.5q-31 -38 -105 -38q-48 0 -79 24t-31 70q0 31 19.5 53.5t50 33.5t60 16t58.5 5h19q0 24 -14 39t-38 15q-22 0 -44.5 -18.5t-43.5 -18.5q-44 0 -44 31
q0 29 47 41t87 12q75 0 121 -28q43 -27 43 -95zM260 590h-10q-34 0 -59.5 -16t-25.5 -48q0 -17 10 -27.5t26 -10.5q26 0 45 24q14 18 14 78z" />
    <glyph glyph-name="guillemotleft" unicode="&#xab;" horiz-adv-x="380" 
d="M127 265l57 -103q21 -38 21 -48q0 -12 -11 -15.5t-43 -3.5q-16 0 -26.5 4t-15 9t-10.5 16l-64 116q-14 25 -14 50t14 50l64 116q6 11 10.5 16t15 9t26.5 4q32 0 43 -3.5t11 -15.5q0 -10 -21 -48l-57 -103q-6 -12 -6 -25t6 -25zM287 265l57 -103q21 -38 21 -48
q0 -12 -11 -15.5t-43 -3.5q-16 0 -26.5 4t-15 9t-10.5 16l-64 116q-14 25 -14 50t14 50l64 116q6 11 10.5 16t15 9t26.5 4q32 0 43 -3.5t11 -15.5q0 -10 -21 -48l-57 -103q-6 -12 -6 -25t6 -25z" />
    <glyph glyph-name="logicalnot" unicode="&#xac;" horiz-adv-x="660" 
d="M502 99v221h-439v95h534v-316h-95z" />
    <glyph glyph-name="uni00AD" unicode="&#xad;" horiz-adv-x="340" 
d="M245 226h-150q-18 0 -28.5 1.5t-21 7t-15.5 18.5t-5 34q0 39 17 49.5t53 10.5h150q24 0 37 -2.5t23 -16.5t10 -41q0 -21 -5 -34t-15.5 -18.5t-21 -7t-28.5 -1.5z" />
    <glyph glyph-name="registered" unicode="&#xae;" horiz-adv-x="840" 
d="M36 366q0 158 112 269.5t269 111.5q158 0 270 -111.5t112 -269.5t-112 -269.5t-270 -111.5q-157 0 -269 111.5t-112 269.5zM100 366q0 -136 94.5 -226.5t222.5 -90.5q129 0 223.5 90.5t94.5 226.5t-94.5 226.5t-223.5 90.5q-128 0 -222.5 -90.5t-94.5 -226.5zM345 325
v-115q0 -18 18.5 -28t18.5 -22q0 -17 -12 -21.5t-35 -4.5h-75q-42 0 -42 26q0 12 18.5 22t18.5 28v320q0 13 -6 20t-12.5 8t-12.5 6t-6 15q0 5 0.5 8.5t2.5 6.5t3.5 5t5 3t5.5 1.5t6.5 1t6 0.5h7h6.5h192q76 0 113.5 -34t37.5 -79q0 -41 -27 -73.5t-69 -51.5q62 -75 86 -142
q2 -4 5.5 -13.5t5 -12.5t6 -8t12.5 -9q2 -1 4.5 -2.5t4 -2.5t4 -3t3.5 -3t2 -3t1.5 -4.5t0.5 -5.5q0 -12 -7.5 -17.5t-14 -6t-19.5 -0.5h-84q-13 0 -19.5 0.5t-14 6t-7.5 17.5q0 15 16 21t16 14q0 30 -29.5 77.5t-54.5 69.5zM344 508v-123q35 3 68 12t63 31.5t30 54.5
q0 19 -7 32.5t-15.5 20t-25.5 10t-27 4t-30 0.5q-35 0 -45.5 -7.5t-10.5 -34.5z" />
    <glyph glyph-name="macron" unicode="&#xaf;" horiz-adv-x="440" 
d="M299 584h-153q-21 0 -29.5 1t-20 5t-15.5 15t-4 30q0 30 15.5 38t47.5 8h155h22.5t17.5 -2.5t16.5 -7t8.5 -14t4 -24.5q0 -18 -4 -28.5t-14.5 -14.5t-19 -5t-27.5 -1z" />
    <glyph glyph-name="degree" unicode="&#xb0;" horiz-adv-x="400" 
d="M350 600q0 -62 -44 -106t-106 -44t-106 44t-44 106q-1 62 43.5 106t106.5 44t106 -44t44 -106zM200 507q40 0 66.5 26.5t26.5 66.5t-27 66.5t-67 26.5t-66.5 -26.5t-25.5 -66.5q0 -40 26.5 -66.5t66.5 -26.5z" />
    <glyph glyph-name="plusminus" unicode="&#xb1;" horiz-adv-x="660" 
d="M70 415h213v132h95v-132h212v-95h-212v-133h-95v133h-213v95zM70 122h520v-95h-520v95z" />
    <glyph glyph-name="twosuperior" unicode="&#xb2;" horiz-adv-x="408" 
d="M321 300h-262q-38 0 -38 23q0 22 26.5 57.5t57.5 63.5q88 81 120 120.5t32 79.5q0 26 -17 41t-46 15q-27 0 -46.5 -11.5t-19.5 -34.5q0 -9 7.5 -21.5t7.5 -20.5q0 -16 -18 -26.5t-36 -10.5q-26 0 -42.5 15t-16.5 40q0 56 56.5 88t125.5 32q77 0 122 -32.5t45 -84.5
q0 -44 -33 -84.5t-94.5 -91t-86.5 -77.5h93q64 0 78 19q18 23 33 23q7 0 12 -5t5 -12q0 -9 -2.5 -18t-7.5 -25t-9 -34q-3 -14 -9.5 -20t-13 -7t-23.5 -1z" />
    <glyph glyph-name="threesuperior" unicode="&#xb3;" horiz-adv-x="408" 
d="M268 540q49 -8 84 -39t35 -75q0 -53 -48.5 -94t-141.5 -41q-79 0 -127.5 27t-48.5 73q0 21 14 32.5t37 11.5q22 0 32.5 -7.5t12.5 -27.5q4 -34 18 -48.5t45 -14.5q42 0 62.5 23.5t20.5 60.5q0 51 -30 68t-78 17q-27 0 -36.5 4.5t-9.5 18.5q0 31 28 31q109 0 109 82
q0 24 -15 42.5t-44 18.5q-20 0 -34 -9.5t-14 -26.5q0 -6 3 -13t3 -14q0 -17 -16.5 -25.5t-38.5 -8.5q-19 0 -33 10.5t-14 35.5q0 45 49 71.5t115 26.5q62 0 110.5 -29t48.5 -83q0 -38 -27.5 -63t-70.5 -35z" />
    <glyph glyph-name="acute" unicode="&#xb4;" horiz-adv-x="380" 
d="M100 613l110 62q44 25 74 25q18 0 34.5 -29.5t16.5 -50.5q0 -23 -45 -35l-135 -35q-58 -15 -70 -15q-10 0 -17.5 16t-7.5 29q0 11 40 33z" />
    <glyph glyph-name="mu" unicode="&#xb5;" horiz-adv-x="620" 
d="M61 100v235q0 30 -3.5 43t-18.5 25q-17 13 -17 26q0 14 11 21.5t43 17.5q62 19 105 19q23 0 33 -18.5t10 -68.5v-222q0 -24 1.5 -39t7.5 -34t21 -28t38 -9q45 0 73 35q18 22 18 78v154q0 30 -3.5 43t-18.5 25q-17 13 -17 26q0 14 11 21.5t43 17.5q62 19 105 19
q23 0 33 -18.5t10 -68.5v-263q0 -38 5 -52t22 -22q25 -13 25 -31q0 -32 -54 -32h-97q-36 0 -44 12t-8 50q-30 -35 -75.5 -56t-69.5 -21q-30 0 -50 20q0 -28 12 -67t12 -63q0 -33 -26.5 -51.5t-62.5 -18.5q-37 0 -61 21t-24 64q0 19 5.5 88t5.5 122z" />
    <glyph glyph-name="paragraph" unicode="&#xb6;" horiz-adv-x="780" 
d="M651 659v-779q0 -40 -12 -53q-14 -17 -35 -17q-19 0 -34 13q-14 14 -14 53v785h-65v-781q0 -40 -11 -53q-15 -17 -37 -17q-18 0 -33 13q-14 14 -14 53v362q-53 2 -103.5 11.5t-101.5 30t-89 50.5t-62 76.5t-24 104.5q0 115 76 173q61 48 190 48h398q3 0 12.5 0.5t14.5 0
t13 -1t12.5 -3t9.5 -6t7.5 -10t2.5 -15.5t-2 -16t-7 -11t-8.5 -6.5t-13 -3.5t-13 -1h-15h-13.5h-29zM396 661h-36q-193 0 -193 -151q0 -90 67.5 -148.5t161.5 -71.5v371z" />
    <glyph glyph-name="periodcentered" unicode="&#xb7;" horiz-adv-x="340" 
d="M172 207q-37 0 -67 22t-30 58q0 37 29 58.5t67 21.5q36 0 65 -23t29 -58t-28.5 -57t-64.5 -22z" />
    <glyph glyph-name="cedilla" unicode="&#xb8;" horiz-adv-x="340" 
d="M120 2h53l-12 -53q23 5 49 5q35 0 64 -16.5t29 -48.5q0 -41 -48.5 -72t-123.5 -31q-38 0 -90.5 14t-52.5 40q0 11 7.5 20.5t18.5 9.5q12 0 44 -16q42 -22 80 -22q79 0 79 47q0 16 -14.5 23.5t-31.5 7.5q-13 0 -33.5 -6t-23.5 -6q-17 0 -17 15q0 13 23 89z" />
    <glyph glyph-name="onesuperior" unicode="&#xb9;" horiz-adv-x="408" 
d="M153 395v223q0 26 -7.5 34t-38.5 8q-29 0 -39 3.5t-10 15.5q0 14 8.5 18.5t24.5 6.5q45 8 89 27t57 19q20 0 27 -10t7 -30v-312q0 -20 1.5 -28t10.5 -15t28 -8q1 0 7 -0.5t8 -1t7 -1.5t7 -3t5 -4.5t4 -6.5t1 -9q0 -21 -31 -21h-215q-11 0 -17 1t-11.5 6t-5.5 14
q0 4 1.5 7.5t3 6t4.5 4.5t5.5 3t7 2t6.5 1.5t6.5 1t5.5 0.5q30 2 36.5 11t6.5 37z" />
    <glyph glyph-name="ordmasculine" unicode="&#xba;" horiz-adv-x="440" 
d="M223 432q-80 0 -132.5 42.5t-52.5 106.5q0 70 57 112t129 42q73 0 129.5 -40.5t56.5 -110.5q0 -69 -58 -110.5t-129 -41.5zM223 482q70 0 70 108q0 38 -16 66.5t-52 28.5q-38 0 -54 -30t-16 -72q0 -101 68 -101z" />
    <glyph glyph-name="guillemotright" unicode="&#xbb;" horiz-adv-x="380" 
d="M93 315l-57 103q-21 38 -21 48q0 12 11 15.5t43 3.5q16 0 26.5 -4t15 -9t10.5 -16l64 -116q14 -25 14 -50t-14 -50l-64 -116q-6 -11 -10.5 -16t-15 -9t-26.5 -4q-32 0 -43 3.5t-11 15.5q0 10 21 48l57 103q6 12 6 25t-6 25zM253 315l-57 103q-21 38 -21 48q0 12 11 15.5
t43 3.5q16 0 26.5 -4t15 -9t10.5 -16l64 -116q14 -25 14 -50t-14 -50l-64 -116q-6 -11 -10.5 -16t-15 -9t-26.5 -4q-32 0 -43 3.5t-11 15.5q0 10 21 48l57 103q6 12 6 25t-6 25z" />
    <glyph glyph-name="onequarter" unicode="&#xbc;" horiz-adv-x="1020" 
d="M814 156v209q-92 -98 -132 -209h132zM769 706l-394 -668q-11 -18 -15 -23.5t-13.5 -10t-26.5 -4.5q-33 0 -33 16q0 8 16 32l395 664q10 18 14.5 23.5t14.5 10t27 4.5q30 0 30 -13q0 -5 -15 -31zM812 80v24h-155q-23 0 -34.5 6.5t-11.5 25.5q0 25 51 123q73 126 146 177
q21 14 74 14q30 0 40 -8.5t10 -41.5v-242h43q11 0 17 -1.5t10.5 -7.5t4.5 -17q0 -27 -29 -27h-46v-24q0 -21 2.5 -26t14.5 -9q24 -8 24 -27t-37 -19h-131q-13 0 -20.5 1t-13 5t-5.5 13q0 19 26 27q14 4 17 9.5t3 24.5zM153 395v223q0 26 -7.5 34t-38.5 8q-29 0 -39 3.5
t-10 15.5q0 14 8.5 18.5t24.5 6.5q45 8 89 27t57 19q20 0 27 -10t7 -30v-312q0 -20 1.5 -28t10.5 -15t28 -8q1 0 7 -0.5t8 -1t7 -1.5t7 -3t5 -4.5t4 -6.5t1 -9q0 -21 -31 -21h-215q-11 0 -17 1t-11.5 6t-5.5 14q0 4 1.5 7.5t3 6t4.5 4.5t5.5 3t7 2t6.5 1.5t6.5 1t5.5 0.5
q30 2 36.5 11t6.5 37z" />
    <glyph glyph-name="onehalf" unicode="&#xbd;" horiz-adv-x="1020" 
d="M153 395v223q0 26 -7.5 34t-38.5 8q-29 0 -39 3.5t-10 15.5q0 14 8.5 18.5t24.5 6.5q45 8 89 27t57 19q20 0 27 -10t7 -30v-312q0 -20 1.5 -28t10.5 -15t28 -8q1 0 7 -0.5t8 -1t7 -1.5t7 -3t5 -4.5t4 -6.5t1 -9q0 -21 -31 -21h-215q-11 0 -17 1t-11.5 6t-5.5 14
q0 4 1.5 7.5t3 6t4.5 4.5t5.5 3t7 2t6.5 1.5t6.5 1t5.5 0.5q30 2 36.5 11t6.5 37zM749 706l-394 -668q-11 -18 -15 -23.5t-13.5 -10t-26.5 -4.5q-33 0 -33 16q0 8 16 32l395 664q10 18 14.5 23.5t14.5 10t27 4.5q30 0 30 -13q0 -5 -15 -31zM918 0h-262q-38 0 -38 23
q0 22 26.5 57.5t57.5 63.5q88 81 120 120.5t32 79.5q0 26 -17 41t-46 15q-27 0 -46.5 -11.5t-19.5 -34.5q0 -9 7.5 -21.5t7.5 -20.5q0 -16 -18 -26.5t-36 -10.5q-26 0 -42.5 15t-16.5 40q0 56 56.5 88t125.5 32q77 0 122 -32.5t45 -84.5q0 -44 -33 -84.5t-94.5 -91
t-86.5 -77.5h93q64 0 78 19q18 23 33 23q7 0 12 -5t5 -12q0 -9 -2.5 -18t-7.5 -25t-9 -34q-3 -14 -9.5 -20t-13 -7t-23.5 -1z" />
    <glyph glyph-name="threequarters" unicode="&#xbe;" horiz-adv-x="1020" 
d="M769 706l-394 -668q-11 -18 -15 -23.5t-13.5 -10t-26.5 -4.5q-33 0 -33 16q0 8 16 32l395 664q10 18 14.5 23.5t14.5 10t27 4.5q30 0 30 -13q0 -5 -15 -31zM814 156v209q-92 -98 -132 -209h132zM268 540q49 -8 84 -39t35 -75q0 -53 -48.5 -94t-141.5 -41q-79 0 -127.5 27
t-48.5 73q0 21 14 32.5t37 11.5q22 0 32.5 -7.5t12.5 -27.5q4 -34 18 -48.5t45 -14.5q42 0 62.5 23.5t20.5 60.5q0 51 -30 68t-78 17q-27 0 -36.5 4.5t-9.5 18.5q0 31 28 31q109 0 109 82q0 24 -15 42.5t-44 18.5q-20 0 -34 -9.5t-14 -26.5q0 -6 3 -13t3 -14
q0 -17 -16.5 -25.5t-38.5 -8.5q-19 0 -33 10.5t-14 35.5q0 45 49 71.5t115 26.5q62 0 110.5 -29t48.5 -83q0 -38 -27.5 -63t-70.5 -35zM812 80v24h-155q-23 0 -34.5 6.5t-11.5 25.5q0 25 51 123q73 126 146 177q21 14 74 14q30 0 40 -8.5t10 -41.5v-242h43q11 0 17 -1.5
t10.5 -7.5t4.5 -17q0 -27 -29 -27h-46v-24q0 -21 2.5 -26t14.5 -9q24 -8 24 -27t-37 -19h-131q-13 0 -20.5 1t-13 5t-5.5 13q0 19 26 27q14 4 17 9.5t3 24.5z" />
    <glyph glyph-name="questiondown" unicode="&#xbf;" horiz-adv-x="540" 
d="M315 489q35 0 63.5 -21t28.5 -54q0 -36 -29.5 -56t-66.5 -20q-35 0 -64.5 21t-29.5 56t30.5 54.5t67.5 19.5zM366 193v-45v-16v-13t-1 -9.5t-1.5 -8.5t-3 -6.5t-5 -6.5t-7.5 -5.5t-10 -7t-14 -7.5q-58 -33 -80 -64q-31 -43 -31 -107q0 -50 21.5 -83.5t67.5 -33.5
q30 0 51 18q19 17 17 53v7v6.5v5.5t0.5 6t1 5.5t2 5.5t3 5t3.5 5.5t5 5.5q21 21 59 21q29 0 49 -15.5t20 -44.5q0 -50 -40 -85t-89 -48.5t-97 -13.5q-109 0 -173 46q-80 57 -80 158q0 87 66 147l17.5 15t20 14l17.5 10.5t20.5 10.5l18.5 9t22 10t21 9q17 7 24.5 18.5t8.5 21
t1 32.5q0 28 8.5 42.5t35.5 14.5q9 0 16.5 -1t13 -4.5t9 -5.5t6 -8.5t4 -9.5t2 -12t0.5 -12.5v-14.5v-14z" />
    <glyph glyph-name="Agrave" unicode="&#xc0;" horiz-adv-x="740" 
d="M461 237h-280q-38 -94 -38 -134q0 -23 26 -38t26 -33q0 -21 -16.5 -26.5t-48.5 -5.5h-82q-19 0 -29 1.5t-19 9.5t-9 23t21 30q23 14 30 32q80 290 250 607q14 25 28 31t54 6q37 0 46.5 -6t24.5 -34q124 -237 250 -605q5 -18 30 -32q19 -11 19 -29q0 -34 -51 -34h-169
q-61 0 -61 32q0 14 10.5 21.5t21.5 14t11 15.5q0 31 -45 154zM209 319h224q-57 166 -111 265q-65 -129 -113 -265zM340 920l110 -62q40 -22 40 -33q0 -13 -7.5 -29t-17.5 -16q-12 0 -70 15l-135 35q-45 12 -45 35q0 21 16.5 50.5t34.5 29.5q30 0 74 -25z" />
    <glyph glyph-name="Aacute" unicode="&#xc1;" horiz-adv-x="740" 
d="M461 237h-280q-38 -94 -38 -134q0 -23 26 -38t26 -33q0 -21 -16.5 -26.5t-48.5 -5.5h-82q-19 0 -29 1.5t-19 9.5t-9 23t21 30q23 14 30 32q80 290 250 607q14 25 28 31t54 6q37 0 46.5 -6t24.5 -34q124 -237 250 -605q5 -18 30 -32q19 -11 19 -29q0 -34 -51 -34h-169
q-61 0 -61 32q0 14 10.5 21.5t21.5 14t11 15.5q0 31 -45 154zM209 319h224q-57 166 -111 265q-65 -129 -113 -265zM290 858l110 62q44 25 74 25q18 0 34.5 -29.5t16.5 -50.5q0 -23 -45 -35l-135 -35q-58 -15 -70 -15q-10 0 -17.5 16t-7.5 29q0 11 40 33z" />
    <glyph glyph-name="Acircumflex" unicode="&#xc2;" horiz-adv-x="740" 
d="M461 237h-280q-38 -94 -38 -134q0 -23 26 -38t26 -33q0 -21 -16.5 -26.5t-48.5 -5.5h-82q-19 0 -29 1.5t-19 9.5t-9 23t21 30q23 14 30 32q80 290 250 607q14 25 28 31t54 6q37 0 46.5 -6t24.5 -34q124 -237 250 -605q5 -18 30 -32q19 -11 19 -29q0 -34 -51 -34h-169
q-61 0 -61 32q0 14 10.5 21.5t21.5 14t11 15.5q0 31 -45 154zM209 319h224q-57 166 -111 265q-65 -129 -113 -265zM209 812l106 119q22 31 35 31h40q14 0 35 -31l106 -119q24 -24 24 -32q0 -7 -11.5 -8.5t-58.5 -1.5q-20 0 -29.5 3.5t-20.5 16.5l-50 60q-6 8 -14.5 8
t-15.5 -8l-50 -60q-11 -13 -20.5 -16.5t-29.5 -3.5q-47 0 -58.5 1.5t-11.5 8.5q0 8 24 32z" />
    <glyph glyph-name="Atilde" unicode="&#xc3;" horiz-adv-x="740" 
d="M461 237h-280q-38 -94 -38 -134q0 -23 26 -38t26 -33q0 -21 -16.5 -26.5t-48.5 -5.5h-82q-19 0 -29 1.5t-19 9.5t-9 23t21 30q23 14 30 32q80 290 250 607q14 25 28 31t54 6q37 0 46.5 -6t24.5 -34q124 -237 250 -605q5 -18 30 -32q19 -11 19 -29q0 -34 -51 -34h-169
q-61 0 -61 32q0 14 10.5 21.5t21.5 14t11 15.5q0 31 -45 154zM209 319h224q-57 166 -111 265q-65 -129 -113 -265zM203 884q38 45 106 45q38 0 90 -27t74 -27q23 0 44.5 25t30.5 25q19 0 19 -21q0 -44 -30 -78q-38 -45 -106 -45q-38 0 -90 27t-74 27q-23 0 -44.5 -25
t-30.5 -25t-14 10t-5 21q0 34 30 68z" />
    <glyph glyph-name="Adieresis" unicode="&#xc4;" horiz-adv-x="740" 
d="M461 237h-280q-38 -94 -38 -134q0 -23 26 -38t26 -33q0 -21 -16.5 -26.5t-48.5 -5.5h-82q-19 0 -29 1.5t-19 9.5t-9 23t21 30q23 14 30 32q80 290 250 607q14 25 28 31t54 6q37 0 46.5 -6t24.5 -34q124 -237 250 -605q5 -18 30 -32q19 -11 19 -29q0 -34 -51 -34h-169
q-61 0 -61 32q0 14 10.5 21.5t21.5 14t11 15.5q0 31 -45 154zM209 319h224q-57 166 -111 265q-65 -129 -113 -265zM253 791q-30 0 -53 20.5t-23 50.5q0 31 23 51.5t54 20.5q32 0 53.5 -20t21.5 -52q0 -29 -23 -50t-53 -21zM487 790q-30 0 -52.5 21.5t-22.5 51.5
q0 29 22 49.5t51 20.5q34 0 56.5 -19.5t22.5 -52.5q0 -30 -23.5 -50.5t-53.5 -20.5z" />
    <glyph glyph-name="Aring" unicode="&#xc5;" horiz-adv-x="740" 
d="M461 237h-280q-38 -94 -38 -134q0 -23 26 -38t26 -33q0 -21 -16.5 -26.5t-48.5 -5.5h-82q-19 0 -29 1.5t-19 9.5t-9 23t21 30q23 14 30 32q80 290 250 607q14 25 28 31t54 6q37 0 46.5 -6t24.5 -34q124 -237 250 -605q5 -18 30 -32q19 -11 19 -29q0 -34 -51 -34h-169
q-61 0 -61 32q0 14 10.5 21.5t21.5 14t11 15.5q0 31 -45 154zM209 319h224q-57 166 -111 265q-65 -129 -113 -265zM370 772q-44 0 -75.5 31t-31.5 74q0 45 31 77.5t75 32.5q45 0 77 -31t32 -76t-31.5 -76.5t-76.5 -31.5zM370 832q21 0 34 14t13 35q0 20 -14.5 32.5
t-34.5 12.5q-18 0 -31 -14.5t-13 -32.5q0 -19 13.5 -33t32.5 -14z" />
    <glyph glyph-name="AE" unicode="&#xc6;" horiz-adv-x="1020" 
d="M465 356h-201q-50 -88 -79 -158.5t-29 -98.5q0 -20 30.5 -32.5t30.5 -34.5q0 -27 -35.5 -32t-55.5 0h-90q-53 0 -53 34q0 22 28 34q17 8 24 15t15 25q46 127 169 348t168 255q18 13 35.5 17t57.5 4h418q45 0 55 -12q17 -21 17 -95q0 -43 -36 -43q-10 0 -19.5 5.5t-13 9
t-13.5 15.5q-28 31 -52.5 40t-80.5 9q-48 0 -73.5 -7t-30 -14t-4.5 -20v-183h121q31 0 47 9.5t25 18.5t22 9q35 0 35 -69v-9.5v-12v-12t-1 -12.5t-2.5 -11.5t-4.5 -10.5t-6.5 -8t-9 -6t-11.5 -2q-13 0 -34.5 17.5t-59.5 17.5h-121v-173q0 -74 21.5 -92.5t96.5 -18.5
q52 0 82 9t60 41q1 1 7 8t8.5 9.5l8.5 8.5t10 9t9.5 6.5t11 5t10.5 1.5q14 0 25 -9.5t11 -23.5q0 -30 -22 -91q-10 -31 -21 -38.5t-45 -7.5h-459q-49 0 -49 34q0 8 4 14.5t8 9.5t13 7q18 8 23 20.5t5 41.5v229zM309 437h156v176v16t-1.5 11.5t-4 9t-7.5 2.5
q-7 0 -22.5 -18.5t-47.5 -69.5t-73 -127z" />
    <glyph glyph-name="Ccedilla" unicode="&#xc7;" horiz-adv-x="760" 
d="M436 -15l-8 -36q23 5 49 5q35 0 64 -16.5t29 -48.5q0 -41 -48.5 -72t-123.5 -31q-38 0 -90.5 14t-52.5 40q0 11 7.5 20.5t18.5 9.5q12 0 44 -16q42 -22 80 -22q79 0 79 47q0 16 -14.5 23.5t-31.5 7.5q-13 0 -33.5 -6t-23.5 -6q-17 0 -17 15q0 13 19 74
q-150 15 -250.5 115t-100.5 251q0 109 58 200.5t152.5 142.5t202.5 51q135 0 232 -66q27 -16 33 -33q9 -28 9 -110q0 -18 -11.5 -28.5t-30.5 -10.5q-31 0 -49 51q-17 49 -62 86.5t-109 37.5q-104 0 -167 -86.5t-63 -214.5q0 -32 4 -64.5t18.5 -77t38.5 -78t69 -57t105 -23.5
q39 0 72.5 12.5t56 30t40.5 35t34.5 30t30.5 12.5t24.5 -10.5t10.5 -24.5q0 -52 -87.5 -111t-207.5 -62z" />
    <glyph glyph-name="Egrave" unicode="&#xc8;" horiz-adv-x="660" 
d="M257 356v-173q0 -77 22.5 -93.5t125.5 -17.5q52 0 82 9t60 41q1 1 7 8t8.5 9.5l8.5 8.5t10 9t9.5 6.5t11 5t10.5 1.5q14 0 25 -9.5t11 -23.5q0 -30 -22 -91q-10 -31 -21 -38.5t-45 -7.5h-489q-49 0 -49 34q0 8 4 14.5t8 9.5t13 7q18 8 23 20.5t5 41.5v478q0 23 -1 32
t-6 16.5t-16 10.5q-17 5 -23.5 12.5t-6.5 21.5q0 34 49 34h467q45 0 55 -12q17 -21 17 -95q0 -43 -36 -43q-10 0 -19.5 5.5t-13 9t-13.5 15.5q-29 32 -57 40.5t-106 8.5q-48 0 -73.5 -7t-30 -14t-4.5 -20v-183h151q31 0 47 9.5t25 18.5t22 9q35 0 35 -69v-9.5v-12v-12
t-1 -12.5t-2.5 -11.5t-4.5 -10.5t-6.5 -8t-9 -6t-11.5 -2q-13 0 -34.5 17.5t-59.5 17.5h-151zM310 920l110 -62q40 -22 40 -33q0 -13 -7.5 -29t-17.5 -16q-12 0 -70 15l-135 35q-45 12 -45 35q0 21 16.5 50.5t34.5 29.5q30 0 74 -25z" />
    <glyph glyph-name="Eacute" unicode="&#xc9;" horiz-adv-x="660" 
d="M257 356v-173q0 -77 22.5 -93.5t125.5 -17.5q52 0 82 9t60 41q1 1 7 8t8.5 9.5l8.5 8.5t10 9t9.5 6.5t11 5t10.5 1.5q14 0 25 -9.5t11 -23.5q0 -30 -22 -91q-10 -31 -21 -38.5t-45 -7.5h-489q-49 0 -49 34q0 8 4 14.5t8 9.5t13 7q18 8 23 20.5t5 41.5v478q0 23 -1 32
t-6 16.5t-16 10.5q-17 5 -23.5 12.5t-6.5 21.5q0 34 49 34h467q45 0 55 -12q17 -21 17 -95q0 -43 -36 -43q-10 0 -19.5 5.5t-13 9t-13.5 15.5q-29 32 -57 40.5t-106 8.5q-48 0 -73.5 -7t-30 -14t-4.5 -20v-183h151q31 0 47 9.5t25 18.5t22 9q35 0 35 -69v-9.5v-12v-12
t-1 -12.5t-2.5 -11.5t-4.5 -10.5t-6.5 -8t-9 -6t-11.5 -2q-13 0 -34.5 17.5t-59.5 17.5h-151zM240 858l110 62q44 25 74 25q18 0 34.5 -29.5t16.5 -50.5q0 -23 -45 -35l-135 -35q-58 -15 -70 -15q-10 0 -17.5 16t-7.5 29q0 11 40 33z" />
    <glyph glyph-name="Ecircumflex" unicode="&#xca;" horiz-adv-x="660" 
d="M257 356v-173q0 -77 22.5 -93.5t125.5 -17.5q52 0 82 9t60 41q1 1 7 8t8.5 9.5l8.5 8.5t10 9t9.5 6.5t11 5t10.5 1.5q14 0 25 -9.5t11 -23.5q0 -30 -22 -91q-10 -31 -21 -38.5t-45 -7.5h-489q-49 0 -49 34q0 8 4 14.5t8 9.5t13 7q18 8 23 20.5t5 41.5v478q0 23 -1 32
t-6 16.5t-16 10.5q-17 5 -23.5 12.5t-6.5 21.5q0 34 49 34h467q45 0 55 -12q17 -21 17 -95q0 -43 -36 -43q-10 0 -19.5 5.5t-13 9t-13.5 15.5q-29 32 -57 40.5t-106 8.5q-48 0 -73.5 -7t-30 -14t-4.5 -20v-183h151q31 0 47 9.5t25 18.5t22 9q35 0 35 -69v-9.5v-12v-12
t-1 -12.5t-2.5 -11.5t-4.5 -10.5t-6.5 -8t-9 -6t-11.5 -2q-13 0 -34.5 17.5t-59.5 17.5h-151zM169 827l106 119q22 31 35 31h40q14 0 35 -31l106 -119q24 -24 24 -32q0 -7 -11.5 -8.5t-58.5 -1.5q-20 0 -29.5 3.5t-20.5 16.5l-50 60q-6 8 -14.5 8t-15.5 -8l-50 -60
q-11 -13 -20.5 -16.5t-29.5 -3.5q-47 0 -58.5 1.5t-11.5 8.5q0 8 24 32z" />
    <glyph glyph-name="Edieresis" unicode="&#xcb;" horiz-adv-x="660" 
d="M257 356v-173q0 -77 22.5 -93.5t125.5 -17.5q52 0 82 9t60 41q1 1 7 8t8.5 9.5l8.5 8.5t10 9t9.5 6.5t11 5t10.5 1.5q14 0 25 -9.5t11 -23.5q0 -30 -22 -91q-10 -31 -21 -38.5t-45 -7.5h-489q-49 0 -49 34q0 8 4 14.5t8 9.5t13 7q18 8 23 20.5t5 41.5v478q0 23 -1 32
t-6 16.5t-16 10.5q-17 5 -23.5 12.5t-6.5 21.5q0 34 49 34h467q45 0 55 -12q17 -21 17 -95q0 -43 -36 -43q-10 0 -19.5 5.5t-13 9t-13.5 15.5q-29 32 -57 40.5t-106 8.5q-48 0 -73.5 -7t-30 -14t-4.5 -20v-183h151q31 0 47 9.5t25 18.5t22 9q35 0 35 -69v-9.5v-12v-12
t-1 -12.5t-2.5 -11.5t-4.5 -10.5t-6.5 -8t-9 -6t-11.5 -2q-13 0 -34.5 17.5t-59.5 17.5h-151zM213 811q-30 0 -53 20.5t-23 50.5q0 31 23 51.5t54 20.5q32 0 53.5 -20t21.5 -52q0 -29 -23 -50t-53 -21zM447 810q-30 0 -52.5 21.5t-22.5 51.5q0 29 22 49.5t51 20.5
q34 0 56.5 -19.5t22.5 -52.5q0 -30 -23.5 -50.5t-53.5 -20.5z" />
    <glyph glyph-name="Igrave" unicode="&#xcc;" horiz-adv-x="340" 
d="M76 127v478q0 23 -1 32t-6 16.5t-16 10.5q-17 5 -23.5 12.5t-6.5 21.5q0 34 49 34h190q49 0 49 -34q0 -19 -20 -28q-22 -11 -27.5 -23.5t-5.5 -41.5v-478q0 -27 3.5 -38.5t17.5 -19.5q13 -7 18.5 -10.5t9.5 -9.5t4 -15q0 -34 -49 -34h-190q-49 0 -49 34q0 8 4 14.5t8 9.5
t13 7q18 8 23 20.5t5 41.5zM135 920l110 -62q40 -22 40 -33q0 -13 -7.5 -29t-17.5 -16q-12 0 -70 15l-135 35q-45 12 -45 35q0 21 16.5 50.5t34.5 29.5q30 0 74 -25z" />
    <glyph glyph-name="Iacute" unicode="&#xcd;" horiz-adv-x="340" 
d="M76 127v478q0 23 -1 32t-6 16.5t-16 10.5q-17 5 -23.5 12.5t-6.5 21.5q0 34 49 34h190q49 0 49 -34q0 -19 -20 -28q-22 -11 -27.5 -23.5t-5.5 -41.5v-478q0 -27 3.5 -38.5t17.5 -19.5q13 -7 18.5 -10.5t9.5 -9.5t4 -15q0 -34 -49 -34h-190q-49 0 -49 34q0 8 4 14.5t8 9.5
t13 7q18 8 23 20.5t5 41.5zM95 858l110 62q44 25 74 25q18 0 34.5 -29.5t16.5 -50.5q0 -23 -45 -35l-135 -35q-58 -15 -70 -15q-10 0 -17.5 16t-7.5 29q0 11 40 33z" />
    <glyph glyph-name="Icircumflex" unicode="&#xce;" horiz-adv-x="340" 
d="M76 127v478q0 23 -1 32t-6 16.5t-16 10.5q-17 5 -23.5 12.5t-6.5 21.5q0 34 49 34h190q49 0 49 -34q0 -19 -20 -28q-22 -11 -27.5 -23.5t-5.5 -41.5v-478q0 -27 3.5 -38.5t17.5 -19.5q13 -7 18.5 -10.5t9.5 -9.5t4 -15q0 -34 -49 -34h-190q-49 0 -49 34q0 8 4 14.5t8 9.5
t13 7q18 8 23 20.5t5 41.5zM9 827l106 119q22 31 35 31h40q14 0 35 -31l106 -119q24 -24 24 -32q0 -7 -11.5 -8.5t-58.5 -1.5q-20 0 -29.5 3.5t-20.5 16.5l-50 60q-6 8 -14.5 8t-15.5 -8l-50 -60q-11 -13 -20.5 -16.5t-29.5 -3.5q-47 0 -58.5 1.5t-11.5 8.5q0 8 24 32z" />
    <glyph glyph-name="Idieresis" unicode="&#xcf;" horiz-adv-x="340" 
d="M76 127v478q0 23 -1 32t-6 16.5t-16 10.5q-17 5 -23.5 12.5t-6.5 21.5q0 34 49 34h190q49 0 49 -34q0 -19 -20 -28q-22 -11 -27.5 -23.5t-5.5 -41.5v-478q0 -27 3.5 -38.5t17.5 -19.5q13 -7 18.5 -10.5t9.5 -9.5t4 -15q0 -34 -49 -34h-190q-49 0 -49 34q0 8 4 14.5t8 9.5
t13 7q18 8 23 20.5t5 41.5zM53 796q-30 0 -53 20.5t-23 50.5q0 31 23 51.5t54 20.5q32 0 53.5 -20t21.5 -52q0 -29 -23 -50t-53 -21zM287 795q-30 0 -52.5 21.5t-22.5 51.5q0 29 22 49.5t51 20.5q34 0 56.5 -19.5t22.5 -52.5q0 -30 -23.5 -50.5t-53.5 -20.5z" />
    <glyph glyph-name="Eth" unicode="&#xd0;" horiz-adv-x="820" 
d="M257 575v-149h118q19 0 29.5 -1.5t20.5 -12t10 -30.5q0 -16 -4.5 -26t-14.5 -14t-18.5 -5t-22.5 -1h-118v-168q0 -32 1.5 -45.5t8.5 -28t23 -19t44 -4.5q120 0 184.5 82.5t64.5 206.5q0 82 -27 148.5t-86 109.5t-142 43q-50 0 -60.5 -16.5t-10.5 -69.5zM75 426v179
q0 29 -5 41.5t-23 20.5q-9 4 -13 7t-8 9.5t-4 14.5q0 34 49 34h289q91 0 159.5 -16t127.5 -63q131 -102 131 -282q0 -168 -101 -270q-101 -101 -283 -101h-323q-49 0 -49 34q0 8 4 14.5t8 9.5t13 7q18 8 23 20.5t5 41.5v209h-60q-14 0 -22.5 1t-18.5 5t-14.5 14t-4.5 26
q0 20 10 30.5t20.5 12t29.5 1.5h60z" />
    <glyph glyph-name="Ntilde" unicode="&#xd1;" horiz-adv-x="760" 
d="M101 125v443q0 54 -8 70t-34 25q-10 3 -14.5 4.5t-11.5 6t-9.5 10t-2.5 14.5q0 12 5 19.5t14.5 10t17 3.5t20.5 1h137q29 0 40 -4.5t30 -24.5q46 -47 106.5 -130l210.5 -303v337q0 27 -8.5 38t-35.5 23q-25 10 -25 33q0 20 16 25.5t52 5.5h87q16 0 25.5 -0.5t20.5 -3.5
t16.5 -9.5t5.5 -17.5q0 -23 -25 -33q-30 -12 -37 -21.5t-7 -39.5v-543q0 -48 -9.5 -59.5t-53.5 -11.5q-42 0 -52 16q-194 293 -386 535v-419q0 -27 9 -38.5t35 -22.5q25 -10 25 -33q0 -20 -17 -25.5t-51 -5.5h-87q-16 0 -25.5 0.5t-20.5 3.5t-16.5 9.5t-5.5 17.5q0 23 25 33
q27 11 35.5 22t8.5 39zM228 884q38 45 106 45q38 0 90 -27t74 -27q23 0 44.5 25t30.5 25q19 0 19 -21q0 -44 -30 -78q-38 -45 -106 -45q-38 0 -90 27t-74 27q-23 0 -44.5 -25t-30.5 -25t-14 10t-5 21q0 34 30 68z" />
    <glyph glyph-name="Ograve" unicode="&#xd2;" horiz-adv-x="860" 
d="M424 -15q-72 0 -141 25.5t-125 72t-90.5 121t-34.5 164.5q0 164 114 271.5t280 107.5q168 0 284 -106t116 -273q0 -165 -118 -274t-285 -109zM428 61q57 0 99 28.5t63.5 75.5t31.5 96.5t10 102.5q0 52 -10 102t-31.5 98t-63 77.5t-98.5 29.5q-93 0 -147 -85.5t-54 -214.5
q0 -51 9.5 -101.5t31 -99.5t62.5 -79t97 -30zM410 920l110 -62q40 -22 40 -33q0 -13 -7.5 -29t-17.5 -16q-12 0 -70 15l-135 35q-45 12 -45 35q0 21 16.5 50.5t34.5 29.5q30 0 74 -25z" />
    <glyph glyph-name="Oacute" unicode="&#xd3;" horiz-adv-x="860" 
d="M424 -15q-72 0 -141 25.5t-125 72t-90.5 121t-34.5 164.5q0 164 114 271.5t280 107.5q168 0 284 -106t116 -273q0 -165 -118 -274t-285 -109zM428 61q57 0 99 28.5t63.5 75.5t31.5 96.5t10 102.5q0 52 -10 102t-31.5 98t-63 77.5t-98.5 29.5q-93 0 -147 -85.5t-54 -214.5
q0 -51 9.5 -101.5t31 -99.5t62.5 -79t97 -30zM340 858l110 62q44 25 74 25q18 0 34.5 -29.5t16.5 -50.5q0 -23 -45 -35l-135 -35q-58 -15 -70 -15q-10 0 -17.5 16t-7.5 29q0 11 40 33z" />
    <glyph glyph-name="Ocircumflex" unicode="&#xd4;" horiz-adv-x="860" 
d="M424 -15q-72 0 -141 25.5t-125 72t-90.5 121t-34.5 164.5q0 164 114 271.5t280 107.5q168 0 284 -106t116 -273q0 -165 -118 -274t-285 -109zM428 61q57 0 99 28.5t63.5 75.5t31.5 96.5t10 102.5q0 52 -10 102t-31.5 98t-63 77.5t-98.5 29.5q-93 0 -147 -85.5t-54 -214.5
q0 -51 9.5 -101.5t31 -99.5t62.5 -79t97 -30zM269 827l106 119q22 31 35 31h40q14 0 35 -31l106 -119q24 -24 24 -32q0 -7 -11.5 -8.5t-58.5 -1.5q-20 0 -29.5 3.5t-20.5 16.5l-50 60q-6 8 -14.5 8t-15.5 -8l-50 -60q-11 -13 -20.5 -16.5t-29.5 -3.5q-47 0 -58.5 1.5
t-11.5 8.5q0 8 24 32z" />
    <glyph glyph-name="Otilde" unicode="&#xd5;" horiz-adv-x="860" 
d="M424 -15q-72 0 -141 25.5t-125 72t-90.5 121t-34.5 164.5q0 164 114 271.5t280 107.5q168 0 284 -106t116 -273q0 -165 -118 -274t-285 -109zM428 61q57 0 99 28.5t63.5 75.5t31.5 96.5t10 102.5q0 52 -10 102t-31.5 98t-63 77.5t-98.5 29.5q-93 0 -147 -85.5t-54 -214.5
q0 -51 9.5 -101.5t31 -99.5t62.5 -79t97 -30zM263 899q38 45 106 45q38 0 90 -27t74 -27q23 0 44.5 25t30.5 25q19 0 19 -21q0 -44 -30 -78q-38 -45 -106 -45q-38 0 -90 27t-74 27q-23 0 -44.5 -25t-30.5 -25t-14 10t-5 21q0 34 30 68z" />
    <glyph glyph-name="Odieresis" unicode="&#xd6;" horiz-adv-x="860" 
d="M424 -15q-72 0 -141 25.5t-125 72t-90.5 121t-34.5 164.5q0 164 114 271.5t280 107.5q168 0 284 -106t116 -273q0 -165 -118 -274t-285 -109zM428 61q57 0 99 28.5t63.5 75.5t31.5 96.5t10 102.5q0 52 -10 102t-31.5 98t-63 77.5t-98.5 29.5q-93 0 -147 -85.5t-54 -214.5
q0 -51 9.5 -101.5t31 -99.5t62.5 -79t97 -30zM313 801q-30 0 -53 20.5t-23 50.5q0 31 23 51.5t54 20.5q32 0 53.5 -20t21.5 -52q0 -29 -23 -50t-53 -21zM547 800q-30 0 -52.5 21.5t-22.5 51.5q0 29 22 49.5t51 20.5q34 0 56.5 -19.5t22.5 -52.5q0 -30 -23.5 -50.5
t-53.5 -20.5z" />
    <glyph glyph-name="multiply" unicode="&#xd7;" horiz-adv-x="660" 
d="M70 95l193 193l-192 192l67 67l192 -192l192 192l67 -67l-192 -192l193 -193l-67 -67l-193 193l-193 -193z" />
    <glyph glyph-name="Oslash" unicode="&#xd8;" horiz-adv-x="860" 
d="M220 47l-46 -67q-1 -1 -4.5 -6.5t-4.5 -6.5t-4 -5t-5 -4.5t-5.5 -2.5t-7 -2.5t-7.5 -0.5q-31 0 -31 15q0 6 12 25l59 84q-143 121 -143 273q0 171 110.5 284.5t279.5 113.5q106 0 193 -47l46 62q15 23 27 23q37 0 37 -16q0 -10 -12 -24l-51 -71q77 -54 119 -134t42 -175
q0 -162 -117 -271t-280 -109q-116 0 -207 62zM590 566l-307 -422q24 -38 63 -61t82 -23q91 0 146 79t55 227q0 117 -39 200zM255 198l302 417q-51 57 -126 57q-91 0 -147 -81t-56 -215q0 -87 27 -178z" />
    <glyph glyph-name="Ugrave" unicode="&#xd9;" horiz-adv-x="760" 
d="M67 732h200q49 0 49 -32q0 -14 -6.5 -21t-22.5 -13t-23.5 -14.5t-9.5 -17.5t-3 -28q-11 -167 -11 -316q0 -68 14.5 -115t41.5 -70.5t57 -33t68 -9.5q84 0 131.5 51t47.5 181q0 64 -7 176t-8 158q0 12 -5 19t-9.5 9.5t-20.5 10.5q-26 13 -26 32q0 33 59 33h87q59 0 59 -33
q0 -19 -26 -32q-13 -7 -16 -8.5t-9.5 -7t-7.5 -11.5t-1 -17q0 -24 8 -141t8 -188q0 -89 -22.5 -151t-66.5 -95.5t-98 -48t-126 -14.5q-67 0 -119.5 14t-98.5 47.5t-71 97.5t-25 156q0 62 6.5 174t6.5 130q0 23 -1 32t-6 16.5t-16 10.5q-17 5 -23.5 12.5t-6.5 21.5
q0 35 49 35zM380 920l110 -62q40 -22 40 -33q0 -13 -7.5 -29t-17.5 -16q-12 0 -70 15l-135 35q-45 12 -45 35q0 21 16.5 50.5t34.5 29.5q30 0 74 -25z" />
    <glyph glyph-name="Uacute" unicode="&#xda;" horiz-adv-x="760" 
d="M67 732h200q49 0 49 -32q0 -14 -6.5 -21t-22.5 -13t-23.5 -14.5t-9.5 -17.5t-3 -28q-11 -167 -11 -316q0 -68 14.5 -115t41.5 -70.5t57 -33t68 -9.5q84 0 131.5 51t47.5 181q0 64 -7 176t-8 158q0 12 -5 19t-9.5 9.5t-20.5 10.5q-26 13 -26 32q0 33 59 33h87q59 0 59 -33
q0 -19 -26 -32q-13 -7 -16 -8.5t-9.5 -7t-7.5 -11.5t-1 -17q0 -24 8 -141t8 -188q0 -89 -22.5 -151t-66.5 -95.5t-98 -48t-126 -14.5q-67 0 -119.5 14t-98.5 47.5t-71 97.5t-25 156q0 62 6.5 174t6.5 130q0 23 -1 32t-6 16.5t-16 10.5q-17 5 -23.5 12.5t-6.5 21.5
q0 35 49 35zM340 858l110 62q44 25 74 25q18 0 34.5 -29.5t16.5 -50.5q0 -23 -45 -35l-135 -35q-58 -15 -70 -15q-10 0 -17.5 16t-7.5 29q0 11 40 33z" />
    <glyph glyph-name="Ucircumflex" unicode="&#xdb;" horiz-adv-x="760" 
d="M67 732h200q49 0 49 -32q0 -14 -6.5 -21t-22.5 -13t-23.5 -14.5t-9.5 -17.5t-3 -28q-11 -167 -11 -316q0 -68 14.5 -115t41.5 -70.5t57 -33t68 -9.5q84 0 131.5 51t47.5 181q0 64 -7 176t-8 158q0 12 -5 19t-9.5 9.5t-20.5 10.5q-26 13 -26 32q0 33 59 33h87q59 0 59 -33
q0 -19 -26 -32q-13 -7 -16 -8.5t-9.5 -7t-7.5 -11.5t-1 -17q0 -24 8 -141t8 -188q0 -89 -22.5 -151t-66.5 -95.5t-98 -48t-126 -14.5q-67 0 -119.5 14t-98.5 47.5t-71 97.5t-25 156q0 62 6.5 174t6.5 130q0 23 -1 32t-6 16.5t-16 10.5q-17 5 -23.5 12.5t-6.5 21.5
q0 35 49 35zM249 827l106 119q22 31 35 31h40q14 0 35 -31l106 -119q24 -24 24 -32q0 -7 -11.5 -8.5t-58.5 -1.5q-20 0 -29.5 3.5t-20.5 16.5l-50 60q-6 8 -14.5 8t-15.5 -8l-50 -60q-11 -13 -20.5 -16.5t-29.5 -3.5q-47 0 -58.5 1.5t-11.5 8.5q0 8 24 32z" />
    <glyph glyph-name="Udieresis" unicode="&#xdc;" horiz-adv-x="760" 
d="M67 732h200q49 0 49 -32q0 -14 -6.5 -21t-22.5 -13t-23.5 -14.5t-9.5 -17.5t-3 -28q-11 -167 -11 -316q0 -68 14.5 -115t41.5 -70.5t57 -33t68 -9.5q84 0 131.5 51t47.5 181q0 64 -7 176t-8 158q0 12 -5 19t-9.5 9.5t-20.5 10.5q-26 13 -26 32q0 33 59 33h87q59 0 59 -33
q0 -19 -26 -32q-13 -7 -16 -8.5t-9.5 -7t-7.5 -11.5t-1 -17q0 -24 8 -141t8 -188q0 -89 -22.5 -151t-66.5 -95.5t-98 -48t-126 -14.5q-67 0 -119.5 14t-98.5 47.5t-71 97.5t-25 156q0 62 6.5 174t6.5 130q0 23 -1 32t-6 16.5t-16 10.5q-17 5 -23.5 12.5t-6.5 21.5
q0 35 49 35zM293 801q-30 0 -53 20.5t-23 50.5q0 31 23 51.5t54 20.5q32 0 53.5 -20t21.5 -52q0 -29 -23 -50t-53 -21zM527 800q-30 0 -52.5 21.5t-22.5 51.5q0 29 22 49.5t51 20.5q34 0 56.5 -19.5t22.5 -52.5q0 -30 -23.5 -50.5t-53.5 -20.5z" />
    <glyph glyph-name="Yacute" unicode="&#xdd;" horiz-adv-x="740" 
d="M281 127v165q-117 156 -208 319q-13 24 -20.5 31t-31.5 20q-29 14 -29 37q0 22 18.5 27.5t57.5 5.5h184q16 0 26 -2t18.5 -10.5t8.5 -23.5q0 -16 -22.5 -27.5t-22.5 -22.5q0 -25 32.5 -81t130.5 -192q84 105 124.5 173t40.5 92q0 15 -24 29t-24 31q0 34 53 34h87
q22 0 33.5 -1.5t21 -9t9.5 -22.5q0 -7 -6 -17t-13 -14q-17 -9 -23.5 -16t-19.5 -29q-103 -182 -219 -323v-173q0 -27 3.5 -38.5t17.5 -19.5q13 -7 18.5 -10.5t9.5 -9.5t4 -15q0 -34 -49 -34h-190q-49 0 -49 34q0 8 4 14.5t8 9.5t13 7q18 8 23 20.5t5 41.5zM370 858l110 62
q44 25 74 25q18 0 34.5 -29.5t16.5 -50.5q0 -23 -45 -35l-135 -35q-58 -15 -70 -15q-10 0 -17.5 16t-7.5 29q0 11 40 33z" />
    <glyph glyph-name="Thorn" unicode="&#xde;" 
d="M74 127v478q0 23 -1 32t-6 16.5t-16 10.5q-17 5 -23.5 12.5t-6.5 21.5q0 34 49 34h190q49 0 49 -34q0 -8 -4 -14.5t-8 -9.5t-13 -7q-18 -8 -23 -20.5t-5 -41.5v-33h121q49 0 93 -8t87 -26t68 -54t25 -87q0 -94 -104.5 -160t-289.5 -66v-44q0 -29 5 -41.5t23 -20.5
q9 -4 13 -7t8 -9.5t4 -14.5q0 -34 -49 -34h-190q-49 0 -49 34q0 8 4 14.5t8 9.5t13 7q18 8 23 20.5t5 41.5zM256 425v-185q207 10 207 154q0 107 -133 107q-43 0 -58.5 -14.5t-15.5 -61.5z" />
    <glyph glyph-name="germandbls" unicode="&#xdf;" horiz-adv-x="660" 
d="M232 524v-471q0 -31 -9.5 -42t-39.5 -11h-107q-20 0 -30.5 1.5t-19 8.5t-8.5 22q0 20 25 31q18 8 22 20t4 52v344q0 66 13 114.5t51 86.5q73 70 198 70q98 0 173.5 -44.5t75.5 -130.5q0 -132 -130 -175q185 -21 185 -210q0 -94 -55.5 -149.5t-142.5 -55.5
q-67 0 -114.5 33.5t-47.5 109.5q0 43 19 72.5t52 29.5q14 0 26.5 -9t12.5 -26q0 -19 -11.5 -36.5t-11.5 -28.5q0 -24 15 -38t36 -14q31 0 49 32t18 84q0 68 -45 107t-100 39q-29 0 -44.5 10.5t-15.5 39.5q0 50 60 50q37 0 62.5 28.5t25.5 81.5q0 114 -93 114q-98 0 -98 -140
z" />
    <glyph glyph-name="agrave" unicode="&#xe0;" horiz-adv-x="580" 
d="M516 295v-158q0 -38 3 -51t16 -19q18 -9 25.5 -16t7.5 -19q0 -15 -9.5 -22.5t-18.5 -8.5t-26 -1h-104q-35 0 -42.5 12t-7.5 50q-47 -77 -155 -77q-75 0 -127.5 40.5t-52.5 114.5q0 50 29 87t75.5 55.5t92.5 26.5t93 8h34q0 47 -23.5 76t-69.5 29q-30 0 -65.5 -32
t-67.5 -32q-25 0 -43.5 12t-18.5 36t24.5 42t61.5 26t67 11.5t54 3.5q126 0 187 -51.5t61 -142.5zM354 254h-18q-59 0 -101 -29.5t-42 -85.5q0 -30 17 -51t46 -21q45 0 77 48q16 25 18.5 43t2.5 96zM270 675l110 -62q40 -22 40 -33q0 -13 -7.5 -29t-17.5 -16q-12 0 -70 15
l-135 35q-45 12 -45 35q0 21 16.5 50.5t34.5 29.5q30 0 74 -25z" />
    <glyph glyph-name="aacute" unicode="&#xe1;" horiz-adv-x="580" 
d="M516 295v-158q0 -38 3 -51t16 -19q18 -9 25.5 -16t7.5 -19q0 -15 -9.5 -22.5t-18.5 -8.5t-26 -1h-104q-35 0 -42.5 12t-7.5 50q-47 -77 -155 -77q-75 0 -127.5 40.5t-52.5 114.5q0 50 29 87t75.5 55.5t92.5 26.5t93 8h34q0 47 -23.5 76t-69.5 29q-30 0 -65.5 -32
t-67.5 -32q-25 0 -43.5 12t-18.5 36t24.5 42t61.5 26t67 11.5t54 3.5q126 0 187 -51.5t61 -142.5zM354 254h-18q-59 0 -101 -29.5t-42 -85.5q0 -30 17 -51t46 -21q45 0 77 48q16 25 18.5 43t2.5 96zM200 613l110 62q44 25 74 25q18 0 34.5 -29.5t16.5 -50.5q0 -23 -45 -35
l-135 -35q-58 -15 -70 -15q-10 0 -17.5 16t-7.5 29q0 11 40 33z" />
    <glyph glyph-name="acircumflex" unicode="&#xe2;" horiz-adv-x="580" 
d="M516 295v-158q0 -38 3 -51t16 -19q18 -9 25.5 -16t7.5 -19q0 -15 -9.5 -22.5t-18.5 -8.5t-26 -1h-104q-35 0 -42.5 12t-7.5 50q-47 -77 -155 -77q-75 0 -127.5 40.5t-52.5 114.5q0 50 29 87t75.5 55.5t92.5 26.5t93 8h34q0 47 -23.5 76t-69.5 29q-30 0 -65.5 -32
t-67.5 -32q-25 0 -43.5 12t-18.5 36t24.5 42t61.5 26t67 11.5t54 3.5q126 0 187 -51.5t61 -142.5zM354 254h-18q-59 0 -101 -29.5t-42 -85.5q0 -30 17 -51t46 -21q45 0 77 48q16 25 18.5 43t2.5 96zM129 582l106 119q22 31 35 31h40q14 0 35 -31l106 -119q24 -24 24 -32
q0 -7 -11.5 -8.5t-58.5 -1.5q-20 0 -29.5 3.5t-20.5 16.5l-50 60q-6 8 -14.5 8t-15.5 -8l-50 -60q-11 -13 -20.5 -16.5t-29.5 -3.5q-47 0 -58.5 1.5t-11.5 8.5q0 8 24 32z" />
    <glyph glyph-name="atilde" unicode="&#xe3;" horiz-adv-x="580" 
d="M516 295v-158q0 -38 3 -51t16 -19q18 -9 25.5 -16t7.5 -19q0 -15 -9.5 -22.5t-18.5 -8.5t-26 -1h-104q-35 0 -42.5 12t-7.5 50q-47 -77 -155 -77q-75 0 -127.5 40.5t-52.5 114.5q0 50 29 87t75.5 55.5t92.5 26.5t93 8h34q0 47 -23.5 76t-69.5 29q-30 0 -65.5 -32
t-67.5 -32q-25 0 -43.5 12t-18.5 36t24.5 42t61.5 26t67 11.5t54 3.5q126 0 187 -51.5t61 -142.5zM354 254h-18q-59 0 -101 -29.5t-42 -85.5q0 -30 17 -51t46 -21q45 0 77 48q16 25 18.5 43t2.5 96zM123 659q38 45 106 45q38 0 90 -27t74 -27q23 0 44.5 25t30.5 25
q19 0 19 -21q0 -44 -30 -78q-38 -45 -106 -45q-38 0 -90 27t-74 27q-23 0 -44.5 -25t-30.5 -25t-14 10t-5 21q0 34 30 68z" />
    <glyph glyph-name="adieresis" unicode="&#xe4;" horiz-adv-x="580" 
d="M516 295v-158q0 -38 3 -51t16 -19q18 -9 25.5 -16t7.5 -19q0 -15 -9.5 -22.5t-18.5 -8.5t-26 -1h-104q-35 0 -42.5 12t-7.5 50q-47 -77 -155 -77q-75 0 -127.5 40.5t-52.5 114.5q0 50 29 87t75.5 55.5t92.5 26.5t93 8h34q0 47 -23.5 76t-69.5 29q-30 0 -65.5 -32
t-67.5 -32q-25 0 -43.5 12t-18.5 36t24.5 42t61.5 26t67 11.5t54 3.5q126 0 187 -51.5t61 -142.5zM354 254h-18q-59 0 -101 -29.5t-42 -85.5q0 -30 17 -51t46 -21q45 0 77 48q16 25 18.5 43t2.5 96zM173 566q-30 0 -53 20.5t-23 50.5q0 31 23 51.5t54 20.5q32 0 53.5 -20
t21.5 -52q0 -29 -23 -50t-53 -21zM407 565q-30 0 -52.5 21.5t-22.5 51.5q0 29 22 49.5t51 20.5q34 0 56.5 -19.5t22.5 -52.5q0 -30 -23.5 -50.5t-53.5 -20.5z" />
    <glyph glyph-name="aring" unicode="&#xe5;" horiz-adv-x="580" 
d="M516 295v-158q0 -38 3 -51t16 -19q18 -9 25.5 -16t7.5 -19q0 -15 -9.5 -22.5t-18.5 -8.5t-26 -1h-104q-35 0 -42.5 12t-7.5 50q-47 -77 -155 -77q-75 0 -127.5 40.5t-52.5 114.5q0 50 29 87t75.5 55.5t92.5 26.5t93 8h34q0 47 -23.5 76t-69.5 29q-30 0 -65.5 -32
t-67.5 -32q-25 0 -43.5 12t-18.5 36t24.5 42t61.5 26t67 11.5t54 3.5q126 0 187 -51.5t61 -142.5zM354 254h-18q-59 0 -101 -29.5t-42 -85.5q0 -30 17 -51t46 -21q45 0 77 48q16 25 18.5 43t2.5 96zM280 542q-44 0 -75.5 31t-31.5 74q0 45 31 77.5t75 32.5q45 0 77 -31
t32 -76t-31.5 -76.5t-76.5 -31.5zM280 602q21 0 34 14t13 35q0 20 -14.5 32.5t-34.5 12.5q-18 0 -31 -14.5t-13 -32.5q0 -19 13.5 -33t32.5 -14z" />
    <glyph glyph-name="ae" unicode="&#xe6;" horiz-adv-x="880" 
d="M786 24q-72 -39 -153 -39q-57 0 -108 23t-85 66q-74 -89 -212 -89q-47 0 -91.5 14t-78 49t-33.5 84q0 50 28.5 86t75 53t91.5 24.5t92 7.5q35 0 59 -3q2 47 -25 82.5t-73 35.5q-41 0 -81 -34t-73 -34q-20 0 -40 11.5t-20 30.5q0 26 23.5 46t58.5 30.5t67 15.5t56 5
q137 0 193 -81q75 81 208 81q75 0 136.5 -36t61.5 -97q0 -36 -14.5 -62t-51 -47.5t-104.5 -32t-169 -10.5q4 -58 43.5 -97.5t96.5 -39.5q34 0 64 11t47 24l32.5 24t25.5 11q13 0 22.5 -8.5t9.5 -21.5q0 -23 -25 -45.5t-54 -37.5zM525 270q190 0 190 92q0 25 -20.5 40.5
t-46.5 15.5q-52 0 -86.5 -46.5t-36.5 -101.5zM373 231h-31q-46 0 -78.5 -11.5t-47 -28.5t-20 -30t-5.5 -23q0 -30 19.5 -48.5t49.5 -18.5q31 0 58 16t40 44q15 32 15 100z" />
    <glyph glyph-name="ccedilla" unicode="&#xe7;" horiz-adv-x="520" 
d="M292 -15l-9 -36q23 5 49 5q35 0 64 -16.5t29 -48.5q0 -41 -48.5 -72t-123.5 -31q-38 0 -90.5 14t-52.5 40q0 11 7.5 20.5t18.5 9.5q12 0 44 -16q42 -22 80 -22q79 0 79 47q0 16 -14.5 23.5t-31.5 7.5q-13 0 -33.5 -6t-23.5 -6q-17 0 -17 15q0 14 20 77q-94 16 -155 80
t-61 161q0 115 78 186.5t194 71.5q38 0 82 -9.5t83.5 -36t39.5 -64.5q0 -24 -17 -39t-41 -15t-42.5 14t-28.5 31.5t-28.5 31.5t-43.5 14q-29 0 -50.5 -19t-32.5 -49t-16 -58t-5 -56h1q0 -66 32 -115t95 -49q67 0 118 51q25 25 41 25q12 0 20.5 -9.5t8.5 -21.5q0 -36 -56 -77
q-79 -53 -163 -53z" />
    <glyph glyph-name="egrave" unicode="&#xe8;" horiz-adv-x="560" 
d="M203 172q11 -48 46 -77.5t83 -29.5q68 0 135 60q2 2 7.5 7t7.5 6.5t6.5 4t9 3.5t10.5 1q11 0 20 -8t9 -19q0 -24 -27 -51t-54 -42q-70 -42 -166 -42q-108 0 -188.5 65t-80.5 171q0 121 89 194.5t212 73.5q78 0 141.5 -37t63.5 -109q0 -138 -324 -171zM194 239
q40 3 76.5 13t68.5 37t32 65q0 30 -15.5 47.5t-44.5 17.5q-58 0 -89.5 -59.5t-27.5 -120.5zM260 675l110 -62q40 -22 40 -33q0 -13 -7.5 -29t-17.5 -16q-12 0 -70 15l-135 35q-45 12 -45 35q0 21 16.5 50.5t34.5 29.5q30 0 74 -25z" />
    <glyph glyph-name="eacute" unicode="&#xe9;" horiz-adv-x="560" 
d="M203 172q11 -48 46 -77.5t83 -29.5q68 0 135 60q2 2 7.5 7t7.5 6.5t6.5 4t9 3.5t10.5 1q11 0 20 -8t9 -19q0 -24 -27 -51t-54 -42q-70 -42 -166 -42q-108 0 -188.5 65t-80.5 171q0 121 89 194.5t212 73.5q78 0 141.5 -37t63.5 -109q0 -138 -324 -171zM194 239
q40 3 76.5 13t68.5 37t32 65q0 30 -15.5 47.5t-44.5 17.5q-58 0 -89.5 -59.5t-27.5 -120.5zM240 613l110 62q44 25 74 25q18 0 34.5 -29.5t16.5 -50.5q0 -23 -45 -35l-135 -35q-58 -15 -70 -15q-10 0 -17.5 16t-7.5 29q0 11 40 33z" />
    <glyph glyph-name="ecircumflex" unicode="&#xea;" horiz-adv-x="560" 
d="M203 172q11 -48 46 -77.5t83 -29.5q68 0 135 60q2 2 7.5 7t7.5 6.5t6.5 4t9 3.5t10.5 1q11 0 20 -8t9 -19q0 -24 -27 -51t-54 -42q-70 -42 -166 -42q-108 0 -188.5 65t-80.5 171q0 121 89 194.5t212 73.5q78 0 141.5 -37t63.5 -109q0 -138 -324 -171zM194 239
q40 3 76.5 13t68.5 37t32 65q0 30 -15.5 47.5t-44.5 17.5q-58 0 -89.5 -59.5t-27.5 -120.5zM149 582l106 119q22 31 35 31h40q14 0 35 -31l106 -119q24 -24 24 -32q0 -7 -11.5 -8.5t-58.5 -1.5q-20 0 -29.5 3.5t-20.5 16.5l-50 60q-6 8 -14.5 8t-15.5 -8l-50 -60
q-11 -13 -20.5 -16.5t-29.5 -3.5q-47 0 -58.5 1.5t-11.5 8.5q0 8 24 32z" />
    <glyph glyph-name="edieresis" unicode="&#xeb;" horiz-adv-x="560" 
d="M203 172q11 -48 46 -77.5t83 -29.5q68 0 135 60q2 2 7.5 7t7.5 6.5t6.5 4t9 3.5t10.5 1q11 0 20 -8t9 -19q0 -24 -27 -51t-54 -42q-70 -42 -166 -42q-108 0 -188.5 65t-80.5 171q0 121 89 194.5t212 73.5q78 0 141.5 -37t63.5 -109q0 -138 -324 -171zM194 239
q40 3 76.5 13t68.5 37t32 65q0 30 -15.5 47.5t-44.5 17.5q-58 0 -89.5 -59.5t-27.5 -120.5zM193 566q-30 0 -53 20.5t-23 50.5q0 31 23 51.5t54 20.5q32 0 53.5 -20t21.5 -52q0 -29 -23 -50t-53 -21zM427 565q-30 0 -52.5 21.5t-22.5 51.5q0 29 22 49.5t51 20.5
q34 0 56.5 -19.5t22.5 -52.5q0 -30 -23.5 -50.5t-53.5 -20.5z" />
    <glyph glyph-name="igrave" unicode="&#xec;" horiz-adv-x="300" 
d="M78 135v148q0 65 -5 82t-27 29q-1 1 -4 2.5l-5 2.5t-4.5 2.5t-3.5 3t-3 3.5t-3 4t-1.5 4.5t-0.5 5.5q0 13 10.5 20.5t37.5 15.5q111 31 131 31q14 0 23 -8.5t12.5 -26t4.5 -30t1 -33.5v-256q0 -40 2 -52t13 -20q25 -11 25 -31q0 -21 -12.5 -26.5t-34.5 -5.5h-149
q-14 0 -22.5 1.5t-16.5 9t-8 21.5q0 20 25 31q11 8 13 20t2 52zM130 675l110 -62q40 -22 40 -33q0 -13 -7.5 -29t-17.5 -16q-12 0 -70 15l-135 35q-45 12 -45 35q0 21 16.5 50.5t34.5 29.5q30 0 74 -25z" />
    <glyph glyph-name="iacute" unicode="&#xed;" horiz-adv-x="300" 
d="M78 135v148q0 65 -5 82t-27 29q-1 1 -4 2.5l-5 2.5t-4.5 2.5t-3.5 3t-3 3.5t-3 4t-1.5 4.5t-0.5 5.5q0 13 10.5 20.5t37.5 15.5q111 31 131 31q14 0 23 -8.5t12.5 -26t4.5 -30t1 -33.5v-256q0 -40 2 -52t13 -20q25 -11 25 -31q0 -21 -12.5 -26.5t-34.5 -5.5h-149
q-14 0 -22.5 1.5t-16.5 9t-8 21.5q0 20 25 31q11 8 13 20t2 52zM70 613l110 62q44 25 74 25q18 0 34.5 -29.5t16.5 -50.5q0 -23 -45 -35l-135 -35q-58 -15 -70 -15q-10 0 -17.5 16t-7.5 29q0 11 40 33z" />
    <glyph glyph-name="icircumflex" unicode="&#xee;" horiz-adv-x="300" 
d="M78 135v148q0 65 -5 82t-27 29q-1 1 -4 2.5l-5 2.5t-4.5 2.5t-3.5 3t-3 3.5t-3 4t-1.5 4.5t-0.5 5.5q0 13 10.5 20.5t37.5 15.5q111 31 131 31q14 0 23 -8.5t12.5 -26t4.5 -30t1 -33.5v-256q0 -40 2 -52t13 -20q25 -11 25 -31q0 -21 -12.5 -26.5t-34.5 -5.5h-149
q-14 0 -22.5 1.5t-16.5 9t-8 21.5q0 20 25 31q11 8 13 20t2 52zM-11 582l106 119q22 31 35 31h40q14 0 35 -31l106 -119q24 -24 24 -32q0 -7 -11.5 -8.5t-58.5 -1.5q-20 0 -29.5 3.5t-20.5 16.5l-50 60q-6 8 -14.5 8t-15.5 -8l-50 -60q-11 -13 -20.5 -16.5t-29.5 -3.5
q-47 0 -58.5 1.5t-11.5 8.5q0 8 24 32z" />
    <glyph glyph-name="idieresis" unicode="&#xef;" horiz-adv-x="300" 
d="M78 135v148q0 65 -5 82t-27 29q-1 1 -4 2.5l-5 2.5t-4.5 2.5t-3.5 3t-3 3.5t-3 4t-1.5 4.5t-0.5 5.5q0 13 10.5 20.5t37.5 15.5q111 31 131 31q14 0 23 -8.5t12.5 -26t4.5 -30t1 -33.5v-256q0 -40 2 -52t13 -20q25 -11 25 -31q0 -21 -12.5 -26.5t-34.5 -5.5h-149
q-14 0 -22.5 1.5t-16.5 9t-8 21.5q0 20 25 31q11 8 13 20t2 52zM33 566q-30 0 -53 20.5t-23 50.5q0 31 23 51.5t54 20.5q32 0 53.5 -20t21.5 -52q0 -29 -23 -50t-53 -21zM267 565q-30 0 -52.5 21.5t-22.5 51.5q0 29 22 49.5t51 20.5q34 0 56.5 -19.5t22.5 -52.5
q0 -30 -23.5 -50.5t-53.5 -20.5z" />
    <glyph glyph-name="eth" unicode="&#xf0;" horiz-adv-x="660" 
d="M198 243q0 -33 4.5 -61.5t15.5 -59t34.5 -48.5t57.5 -18q63 1 96.5 62.5t33.5 135.5q0 65 -31 115t-97 50q-61 0 -87.5 -53.5t-26.5 -122.5zM349 585l-193 -69q-32 -13 -53 -11t-32 23q-21 39 44 62l148 53q-64 32 -153 32q-60 0 -60 43q0 39 100 39q158 0 261 -61
l155 55q56 20 73 -14q12 -23 -1 -38.5t-49 -28.5l-96 -34q122 -113 122 -311q0 -165 -83 -252.5t-223 -87.5q-124 0 -203.5 69.5t-79.5 180.5q0 99 75 176.5t199 77.5q79 0 120 -34q-19 88 -71 130z" />
    <glyph glyph-name="ntilde" unicode="&#xf1;" horiz-adv-x="620" 
d="M561 291v-156q0 -40 2 -52t13 -20q25 -11 25 -31q0 -21 -12.5 -26.5t-34.5 -5.5h-149q-14 0 -22.5 1.5t-16.5 9t-8 21.5q0 20 25 31q11 8 13 20t2 52v153q0 21 -0.5 34t-4.5 30.5t-11.5 27.5t-22 17.5t-35.5 7.5q-52 0 -77 -41q-15 -24 -15 -82v-147q0 -40 2 -52t13 -20
q25 -11 25 -31q0 -21 -12.5 -26.5t-34.5 -5.5h-149q-14 0 -22.5 1.5t-16.5 9t-8 21.5q0 20 25 31q11 8 13 20t2 52v183v12v11.5t-0.5 9.5t-1.5 9l-3.5 7t-5.5 8t-8 6.5t-11 6.5q-21 8 -21 27q0 24 61.5 49t92.5 25q34 0 45 -72q59 72 159 72q92 0 142 -53q43 -47 43 -145z
M143 659q38 45 106 45q38 0 90 -27t74 -27q23 0 44.5 25t30.5 25q19 0 19 -21q0 -44 -30 -78q-38 -45 -106 -45q-38 0 -90 27t-74 27q-23 0 -44.5 -25t-30.5 -25t-14 10t-5 21q0 34 30 68z" />
    <glyph glyph-name="ograve" unicode="&#xf2;" horiz-adv-x="620" 
d="M309 -15q-124 0 -203.5 69.5t-79.5 180.5q0 100 79.5 177t212.5 77q110 0 193.5 -70t83.5 -179q0 -113 -86 -184t-200 -71zM310 55q113 0 113 192q0 30 -5 57.5t-16.5 54.5t-34.5 43t-55 16q-61 0 -87.5 -53.5t-26.5 -122.5q0 -33 4.5 -61.5t15.5 -59t34.5 -48.5
t57.5 -18zM290 675l110 -62q40 -22 40 -33q0 -13 -7.5 -29t-17.5 -16q-12 0 -70 15l-135 35q-45 12 -45 35q0 21 16.5 50.5t34.5 29.5q30 0 74 -25z" />
    <glyph glyph-name="oacute" unicode="&#xf3;" horiz-adv-x="620" 
d="M309 -15q-124 0 -203.5 69.5t-79.5 180.5q0 100 79.5 177t212.5 77q110 0 193.5 -70t83.5 -179q0 -113 -86 -184t-200 -71zM310 55q113 0 113 192q0 30 -5 57.5t-16.5 54.5t-34.5 43t-55 16q-61 0 -87.5 -53.5t-26.5 -122.5q0 -33 4.5 -61.5t15.5 -59t34.5 -48.5
t57.5 -18zM220 613l110 62q44 25 74 25q18 0 34.5 -29.5t16.5 -50.5q0 -23 -45 -35l-135 -35q-58 -15 -70 -15q-10 0 -17.5 16t-7.5 29q0 11 40 33z" />
    <glyph glyph-name="ocircumflex" unicode="&#xf4;" horiz-adv-x="620" 
d="M309 -15q-124 0 -203.5 69.5t-79.5 180.5q0 100 79.5 177t212.5 77q110 0 193.5 -70t83.5 -179q0 -113 -86 -184t-200 -71zM310 55q113 0 113 192q0 30 -5 57.5t-16.5 54.5t-34.5 43t-55 16q-61 0 -87.5 -53.5t-26.5 -122.5q0 -33 4.5 -61.5t15.5 -59t34.5 -48.5
t57.5 -18zM149 582l106 119q22 31 35 31h40q14 0 35 -31l106 -119q24 -24 24 -32q0 -7 -11.5 -8.5t-58.5 -1.5q-20 0 -29.5 3.5t-20.5 16.5l-50 60q-6 8 -14.5 8t-15.5 -8l-50 -60q-11 -13 -20.5 -16.5t-29.5 -3.5q-47 0 -58.5 1.5t-11.5 8.5q0 8 24 32z" />
    <glyph glyph-name="otilde" unicode="&#xf5;" horiz-adv-x="620" 
d="M309 -15q-124 0 -203.5 69.5t-79.5 180.5q0 100 79.5 177t212.5 77q110 0 193.5 -70t83.5 -179q0 -113 -86 -184t-200 -71zM310 55q113 0 113 192q0 30 -5 57.5t-16.5 54.5t-34.5 43t-55 16q-61 0 -87.5 -53.5t-26.5 -122.5q0 -33 4.5 -61.5t15.5 -59t34.5 -48.5
t57.5 -18zM143 659q38 45 106 45q38 0 90 -27t74 -27q23 0 44.5 25t30.5 25q19 0 19 -21q0 -44 -30 -78q-38 -45 -106 -45q-38 0 -90 27t-74 27q-23 0 -44.5 -25t-30.5 -25t-14 10t-5 21q0 34 30 68z" />
    <glyph glyph-name="odieresis" unicode="&#xf6;" horiz-adv-x="620" 
d="M309 -15q-124 0 -203.5 69.5t-79.5 180.5q0 100 79.5 177t212.5 77q110 0 193.5 -70t83.5 -179q0 -113 -86 -184t-200 -71zM310 55q113 0 113 192q0 30 -5 57.5t-16.5 54.5t-34.5 43t-55 16q-61 0 -87.5 -53.5t-26.5 -122.5q0 -33 4.5 -61.5t15.5 -59t34.5 -48.5
t57.5 -18zM193 566q-30 0 -53 20.5t-23 50.5q0 31 23 51.5t54 20.5q32 0 53.5 -20t21.5 -52q0 -29 -23 -50t-53 -21zM427 565q-30 0 -52.5 21.5t-22.5 51.5q0 29 22 49.5t51 20.5q34 0 56.5 -19.5t22.5 -52.5q0 -30 -23.5 -50.5t-53.5 -20.5z" />
    <glyph glyph-name="divide" unicode="&#xf7;" horiz-adv-x="660" 
d="M78 240v95h504v-95h-504zM330 0q-32 0 -53.5 20.5t-21.5 54.5t21.5 54.5t53.5 20.5t53.5 -20.5t21.5 -54.5t-21.5 -54.5t-53.5 -20.5zM330 425q-32 0 -53.5 20.5t-21.5 54.5t21.5 54.5t53.5 20.5t53.5 -20.5t21.5 -54.5t-21.5 -54.5t-53.5 -20.5z" />
    <glyph glyph-name="oslash" unicode="&#xf8;" horiz-adv-x="620" 
d="M178 19l-33 -45q-16 -21 -26 -21q-23 0 -23 11q0 5 12 23l36 51q-116 70 -116 195q0 114 86.5 185t201.5 71q72 0 126 -31l36 49q13 20 24 20q26 0 26 -10q0 -2 -12 -22l-40 -56q117 -75 117 -201q0 -113 -84.5 -183t-199.5 -70q-66 0 -131 34zM411 338l-182 -242
q30 -41 81 -41q115 0 115 189q0 52 -14 94zM209 140l182 240q-31 38 -79 38q-45 0 -72.5 -30.5t-35.5 -67.5t-8 -82q0 -52 13 -98z" />
    <glyph glyph-name="ugrave" unicode="&#xf9;" horiz-adv-x="620" 
d="M61 169v166q0 30 -3.5 43t-18.5 25q-17 13 -17 26q0 14 11 21.5t43 17.5q62 19 105 19q23 0 33 -18.5t10 -68.5v-222q0 -24 1.5 -39t7.5 -34t21 -28t38 -9q45 0 73 35q18 22 18 78v154q0 30 -3.5 43t-18.5 25q-17 13 -17 26q0 14 11 21.5t43 17.5q62 19 105 19
q23 0 33 -18.5t10 -68.5v-263q0 -38 5 -52t22 -22q25 -13 25 -31q0 -32 -54 -32h-97q-36 0 -44 12t-8 50q-67 -77 -170 -77q-96 0 -145 75q-19 30 -19 109zM270 675l110 -62q40 -22 40 -33q0 -13 -7.5 -29t-17.5 -16q-12 0 -70 15l-135 35q-45 12 -45 35q0 21 16.5 50.5
t34.5 29.5q30 0 74 -25z" />
    <glyph glyph-name="uacute" unicode="&#xfa;" horiz-adv-x="620" 
d="M61 169v166q0 30 -3.5 43t-18.5 25q-17 13 -17 26q0 14 11 21.5t43 17.5q62 19 105 19q23 0 33 -18.5t10 -68.5v-222q0 -24 1.5 -39t7.5 -34t21 -28t38 -9q45 0 73 35q18 22 18 78v154q0 30 -3.5 43t-18.5 25q-17 13 -17 26q0 14 11 21.5t43 17.5q62 19 105 19
q23 0 33 -18.5t10 -68.5v-263q0 -38 5 -52t22 -22q25 -13 25 -31q0 -32 -54 -32h-97q-36 0 -44 12t-8 50q-67 -77 -170 -77q-96 0 -145 75q-19 30 -19 109zM260 613l110 62q44 25 74 25q18 0 34.5 -29.5t16.5 -50.5q0 -23 -45 -35l-135 -35q-58 -15 -70 -15q-10 0 -17.5 16
t-7.5 29q0 11 40 33z" />
    <glyph glyph-name="ucircumflex" unicode="&#xfb;" horiz-adv-x="620" 
d="M61 169v166q0 30 -3.5 43t-18.5 25q-17 13 -17 26q0 14 11 21.5t43 17.5q62 19 105 19q23 0 33 -18.5t10 -68.5v-222q0 -24 1.5 -39t7.5 -34t21 -28t38 -9q45 0 73 35q18 22 18 78v154q0 30 -3.5 43t-18.5 25q-17 13 -17 26q0 14 11 21.5t43 17.5q62 19 105 19
q23 0 33 -18.5t10 -68.5v-263q0 -38 5 -52t22 -22q25 -13 25 -31q0 -32 -54 -32h-97q-36 0 -44 12t-8 50q-67 -77 -170 -77q-96 0 -145 75q-19 30 -19 109zM149 582l106 119q22 31 35 31h40q14 0 35 -31l106 -119q24 -24 24 -32q0 -7 -11.5 -8.5t-58.5 -1.5q-20 0 -29.5 3.5
t-20.5 16.5l-50 60q-6 8 -14.5 8t-15.5 -8l-50 -60q-11 -13 -20.5 -16.5t-29.5 -3.5q-47 0 -58.5 1.5t-11.5 8.5q0 8 24 32z" />
    <glyph glyph-name="udieresis" unicode="&#xfc;" horiz-adv-x="620" 
d="M61 169v166q0 30 -3.5 43t-18.5 25q-17 13 -17 26q0 14 11 21.5t43 17.5q62 19 105 19q23 0 33 -18.5t10 -68.5v-222q0 -24 1.5 -39t7.5 -34t21 -28t38 -9q45 0 73 35q18 22 18 78v154q0 30 -3.5 43t-18.5 25q-17 13 -17 26q0 14 11 21.5t43 17.5q62 19 105 19
q23 0 33 -18.5t10 -68.5v-263q0 -38 5 -52t22 -22q25 -13 25 -31q0 -32 -54 -32h-97q-36 0 -44 12t-8 50q-67 -77 -170 -77q-96 0 -145 75q-19 30 -19 109zM183 566q-30 0 -53 20.5t-23 50.5q0 31 23 51.5t54 20.5q32 0 53.5 -20t21.5 -52q0 -29 -23 -50t-53 -21zM417 565
q-30 0 -52.5 21.5t-22.5 51.5q0 29 22 49.5t51 20.5q34 0 56.5 -19.5t22.5 -52.5q0 -30 -23.5 -50.5t-53.5 -20.5z" />
    <glyph glyph-name="yacute" unicode="&#xfd;" horiz-adv-x="540" 
d="M46 481h130q21 0 32.5 -1.5t21 -9t9.5 -22.5q0 -10 -17 -27.5t-17 -43.5q0 -89 32 -181q40 -113 80 -113q28 0 51 62.5t33 125.5t10 94q0 26 -4 37t-22 21q-21 13 -21 30q0 13 8 19.5t18 7.5t31 1h57q26 0 37 -1t18.5 -7t7.5 -18q0 -15 -14 -30t-15 -24
q-14 -107 -44.5 -209t-76 -190.5t-111 -142.5t-141.5 -54q-32 0 -60.5 16.5t-28.5 45.5q0 24 17.5 38.5t41.5 14.5q18 0 44 -11t33 -11q20 0 50.5 27.5t66.5 88.5q-52 -13 -63 -13q-36 0 -65.5 18t-57.5 59.5t-50 120t-36 190.5q-3 25 -18.5 37.5t-15.5 26.5q0 31 49 28z
M250 613l110 62q44 25 74 25q18 0 34.5 -29.5t16.5 -50.5q0 -23 -45 -35l-135 -35q-58 -15 -70 -15q-10 0 -17.5 16t-7.5 29q0 11 40 33z" />
    <glyph glyph-name="thorn" unicode="&#xfe;" horiz-adv-x="640" 
d="M64 -49v600q0 65 -5 82t-27 29q-1 1 -4 2.5l-5 2.5t-4.5 2.5t-3.5 3t-3 3.5t-3 4t-1.5 4.5t-0.5 5.5q0 13 10.5 20.5t37.5 15.5q111 31 131 31q14 0 23 -8.5t12.5 -26t4.5 -30t1 -33.5v-229q56 59 149 59q106 0 170 -71.5t64 -178.5t-69.5 -180.5t-174.5 -73.5
q-21 0 -42.5 4.5t-41.5 19t-20 35.5q0 10 6 17.5t16 7.5q7 0 22.5 -1.5t23.5 -1.5q41 0 74.5 41.5t33.5 125.5q0 28 -5 55.5t-16.5 54.5t-33.5 44t-52 17q-53 0 -80 -32q-24 -27 -24 -95v-326q0 -29 1 -39.5t6.5 -18.5t18.5 -14q25 -11 25 -31q0 -21 -14 -26.5t-44 -5.5
h-149q-20 0 -30.5 1.5t-19 8.5t-8.5 22q0 20 25 31q18 8 22 20t4 52z" />
    <glyph glyph-name="ydieresis" unicode="&#xff;" horiz-adv-x="540" 
d="M46 481h130q21 0 32.5 -1.5t21 -9t9.5 -22.5q0 -10 -17 -27.5t-17 -43.5q0 -89 32 -181q40 -113 80 -113q28 0 51 62.5t33 125.5t10 94q0 26 -4 37t-22 21q-21 13 -21 30q0 13 8 19.5t18 7.5t31 1h57q26 0 37 -1t18.5 -7t7.5 -18q0 -15 -14 -30t-15 -24
q-14 -107 -44.5 -209t-76 -190.5t-111 -142.5t-141.5 -54q-32 0 -60.5 16.5t-28.5 45.5q0 24 17.5 38.5t41.5 14.5q18 0 44 -11t33 -11q20 0 50.5 27.5t66.5 88.5q-52 -13 -63 -13q-36 0 -65.5 18t-57.5 59.5t-50 120t-36 190.5q-3 25 -18.5 37.5t-15.5 26.5q0 31 49 28z
M188 566q-30 0 -53 20.5t-23 50.5q0 31 23 51.5t54 20.5q32 0 53.5 -20t21.5 -52q0 -29 -23 -50t-53 -21zM422 565q-30 0 -52.5 21.5t-22.5 51.5q0 29 22 49.5t51 20.5q34 0 56.5 -19.5t22.5 -52.5q0 -30 -23.5 -50.5t-53.5 -20.5z" />
    <glyph glyph-name="dotlessi" unicode="&#x131;" horiz-adv-x="300" 
d="M78 135v148q0 65 -5 82t-27 29q-1 1 -4 2.5l-5 2.5t-4.5 2.5t-3.5 3t-3 3.5t-3 4t-1.5 4.5t-0.5 5.5q0 13 10.5 20.5t37.5 15.5q111 31 131 31q14 0 23 -8.5t12.5 -26t4.5 -30t1 -33.5v-256q0 -40 2 -52t13 -20q25 -11 25 -31q0 -21 -12.5 -26.5t-34.5 -5.5h-149
q-14 0 -22.5 1.5t-16.5 9t-8 21.5q0 20 25 31q11 8 13 20t2 52z" />
    <glyph glyph-name="Lslash" unicode="&#x141;" horiz-adv-x="600" 
d="M77 127v122l-51 -34q-36 -24 -54 -24q-10 0 -18.5 13t-8.5 34q0 11 6.5 18t31.5 24l94 63v262q0 29 -3 38t-18 18q-14 8 -18.5 12t-9 11t-4.5 18q0 30 49 30h190q49 0 49 -30q0 -15 -6.5 -22t-25.5 -19q-15 -9 -18 -18t-3 -38v-141l117 78q35 24 44 24q17 0 28.5 -11
t11.5 -29q0 -15 -8.5 -24.5t-32.5 -25.5l-160 -106v-236q0 -42 12 -51t59 -11h37q52 0 82 9t60 41q1 1 7 8t8.5 9.5l8.5 8.5t10 9t9.5 6.5t11 5t10.5 1.5q14 0 25 -9.5t11 -23.5q0 -30 -22 -91q-10 -31 -21 -38.5t-45 -7.5h-449q-49 0 -49 30q0 15 6.5 22t25.5 19
q15 9 18 18t3 38z" />
    <glyph glyph-name="lslash" unicode="&#x142;" horiz-adv-x="300" 
d="M73 135v167l-42 -28q-23 -17 -37 -17q-15 0 -25.5 12t-10.5 27q0 23 32 47l83 54v154q0 65 -5 82t-27 29q-1 1 -4 2.5l-5 2.5t-4.5 2.5t-3.5 3t-3 3.5t-3 4t-1.5 4.5t-0.5 5.5q0 13 10.5 20.5t37.5 15.5q111 31 131 31q14 0 23 -8.5t12.5 -26t4.5 -30t1 -33.5v-149l49 32
q23 17 37 17q15 0 25.5 -12t10.5 -27q0 -23 -32 -47l-90 -59v-279q0 -29 1 -39.5t6.5 -18.5t18.5 -14q25 -11 25 -31q0 -21 -14 -26.5t-44 -5.5h-149q-20 0 -30.5 1.5t-19 8.5t-8.5 22q0 20 25 31q18 8 22 20t4 52z" />
    <glyph glyph-name="OE" unicode="&#x152;" horiz-adv-x="1200" 
d="M808 356v-173q0 -77 21 -93.5t116 -17.5q52 0 82 9t60 41q1 1 7 8t8.5 9.5l8.5 8.5t10 9t9.5 6.5t11 5t10.5 1.5q14 0 25 -9.5t11 -23.5q0 -30 -22 -91q-10 -31 -21 -38.5t-45 -7.5h-714q-163 0 -257.5 95t-94.5 257q0 166 99.5 273t234.5 107h710q45 0 55 -12
q17 -21 17 -95q0 -43 -36 -43q-10 0 -19.5 5.5t-13 9t-13.5 15.5q-29 32 -55.5 40.5t-96.5 8.5q-48 0 -73.5 -7t-30 -14t-4.5 -20v-183h140q31 0 47 9.5t25 18.5t22 9q35 0 35 -69v-9.5v-12v-12t-1 -12.5t-2.5 -11.5t-4.5 -10.5t-6.5 -8t-9 -6t-11.5 -2q-13 0 -34.5 17.5
t-59.5 17.5h-140zM436 65q56 0 98 28t65 73.5t33.5 95.5t10.5 103t-10 102.5t-32 96.5t-64.5 75t-100.5 28q-56 0 -98 -28t-65 -73.5t-33.5 -95.5t-10.5 -103t10 -102.5t32 -96.5t64.5 -75t100.5 -28z" />
    <glyph glyph-name="oe" unicode="&#x153;" horiz-adv-x="960" 
d="M499 60q-79 -75 -190 -75q-116 0 -200 68t-84 182t85 184t200 70q63 0 109.5 -20t90.5 -66q89 86 223 86q74 0 136.5 -37.5t62.5 -107.5q0 -158 -335 -164q10 -52 48.5 -82.5t91.5 -30.5q64 0 132 54q28 23 41 23q11 0 20 -9t9 -21q0 -23 -30 -50t-59 -41
q-74 -38 -156 -38q-120 0 -195 75zM590 245q67 -1 127.5 29t60.5 91q0 26 -21 40.5t-48 14.5q-39 0 -67.5 -29.5t-40.5 -68t-11 -77.5zM196 235q0 -31 5 -59.5t17 -56.5t35.5 -45t55.5 -17q55 0 85 51t30 131q0 43 -9 80t-36.5 67.5t-70.5 30.5q-41 0 -68 -32t-35.5 -70.5
t-8.5 -79.5z" />
    <glyph glyph-name="Scaron" unicode="&#x160;" 
d="M150 144q22 -32 66 -56t107 -24q59 0 106.5 30.5t47.5 85.5q0 31 -18.5 53t-48.5 33t-68.5 21t-78.5 17.5t-78.5 23.5t-68.5 37.5t-48.5 60.5t-18.5 92q0 18 5.5 42.5t25 58.5t50 61.5t87 47t129.5 19.5q120 0 221 -52q22 -13 27 -29q7 -24 7 -90q0 -41 -37 -41
q-14 0 -26 14.5t-24.5 35.5t-30 42t-50.5 35.5t-79 14.5q-48 0 -86.5 -26t-38.5 -71q0 -36 23.5 -60t61 -36t82.5 -21.5t90 -24t82.5 -35.5t61 -62.5t23.5 -100.5q0 -43 -19 -86t-55.5 -81.5t-101 -63t-145.5 -24.5q-70 0 -126.5 14.5t-89.5 35t-55.5 46t-30.5 45.5t-8 35
q0 22 14 38.5t35 16.5t33.5 -11.5t45.5 -60.5zM285 806l-106 119q-24 24 -24 32q0 7 11.5 8.5t58.5 1.5q20 0 29.5 -3.5t20.5 -16.5l50 -60q7 -8 15.5 -8t14.5 8l50 60q11 13 20.5 16.5t29.5 3.5q47 0 58.5 -1.5t11.5 -8.5q0 -8 -24 -32l-106 -119q-21 -31 -35 -31h-40
q-13 0 -35 31z" />
    <glyph glyph-name="scaron" unicode="&#x161;" horiz-adv-x="500" 
d="M101 11q-79 35 -79 86q0 18 12 32t30 14q11 0 20 -5t12 -8t14 -16q20 -22 30.5 -31.5t29.5 -18t43 -8.5q31 0 58 15t27 44q0 28 -27 42.5t-65 22t-76 18.5t-65 41t-27 80q0 85 69.5 127.5t159.5 42.5q39 0 85 -10t73 -28q21 -13 21 -67q0 -49 -30 -49q-14 0 -27 13.5
t-22.5 29.5t-32.5 29.5t-56 13.5q-29 0 -52.5 -14t-23.5 -42q0 -25 27.5 -39t66.5 -22t78 -20.5t66.5 -44t27.5 -81.5q0 -76 -68 -124.5t-167 -48.5q-75 0 -132 26zM195 561l-106 119q-24 24 -24 32q0 7 11.5 8.5t58.5 1.5q20 0 29.5 -3.5t20.5 -16.5l50 -60q7 -8 15.5 -8
t14.5 8l50 60q11 13 20.5 16.5t29.5 3.5q47 0 58.5 -1.5t11.5 -8.5q0 -8 -24 -32l-106 -119q-21 -31 -35 -31h-40q-13 0 -35 31z" />
    <glyph glyph-name="Ydieresis" unicode="&#x178;" horiz-adv-x="740" 
d="M281 127v165q-117 156 -208 319q-13 24 -20.5 31t-31.5 20q-29 14 -29 37q0 22 18.5 27.5t57.5 5.5h184q16 0 26 -2t18.5 -10.5t8.5 -23.5q0 -16 -22.5 -27.5t-22.5 -22.5q0 -25 32.5 -81t130.5 -192q84 105 124.5 173t40.5 92q0 15 -24 29t-24 31q0 34 53 34h87
q22 0 33.5 -1.5t21 -9t9.5 -22.5q0 -7 -6 -17t-13 -14q-17 -9 -23.5 -16t-19.5 -29q-103 -182 -219 -323v-173q0 -27 3.5 -38.5t17.5 -19.5q13 -7 18.5 -10.5t9.5 -9.5t4 -15q0 -34 -49 -34h-190q-49 0 -49 34q0 8 4 14.5t8 9.5t13 7q18 8 23 20.5t5 41.5zM293 801
q-30 0 -53 20.5t-23 50.5q0 31 23 51.5t54 20.5q32 0 53.5 -20t21.5 -52q0 -29 -23 -50t-53 -21zM527 800q-30 0 -52.5 21.5t-22.5 51.5q0 29 22 49.5t51 20.5q34 0 56.5 -19.5t22.5 -52.5q0 -30 -23.5 -50.5t-53.5 -20.5z" />
    <glyph glyph-name="Zcaron" unicode="&#x17d;" horiz-adv-x="620" 
d="M105 732h431q25 0 37 -1.5t22.5 -11t10.5 -27.5q0 -32 -49 -120t-140 -212q-119 -161 -153.5 -211.5t-34.5 -61.5q0 -10 26 -10h99q63 0 102.5 10.5t75.5 47.5q28 30 47 30q34 0 34 -32q0 -11 -12 -89q-3 -21 -11.5 -31t-16.5 -11.5t-26 -1.5h-449q-24 0 -39.5 2.5
t-29.5 15t-14 35.5q0 64 210 342q170 227 170 254q0 11 -45 11q-113 0 -154.5 -9.5t-67.5 -43.5q-27 -34 -46 -34q-15 0 -25 9t-10 24q0 78 13 110q6 16 45 16zM265 806l-106 119q-24 24 -24 32q0 7 11.5 8.5t58.5 1.5q20 0 29.5 -3.5t20.5 -16.5l50 -60q7 -8 15.5 -8
t14.5 8l50 60q11 13 20.5 16.5t29.5 3.5q47 0 58.5 -1.5t11.5 -8.5q0 -8 -24 -32l-106 -119q-21 -31 -35 -31h-40q-13 0 -35 31z" />
    <glyph glyph-name="zcaron" unicode="&#x17e;" horiz-adv-x="500" 
d="M401 0h-307q-16 0 -26.5 1t-23.5 5t-20 14t-7 25q0 31 42 87l224 286h-75q-38 0 -59.5 -7.5t-40.5 -33.5q-22 -33 -41 -33q-12 0 -19.5 9t-7.5 22q0 49 15 87q7 19 49 19h303q26 0 38 -1.5t21 -10t9 -26.5q0 -35 -58 -111l-201 -264h75q50 0 74.5 10.5t45.5 41.5
q19 27 37 27q26 0 26 -26q0 -46 -16 -92q-10 -29 -57 -29zM195 561l-106 119q-24 24 -24 32q0 7 11.5 8.5t58.5 1.5q20 0 29.5 -3.5t20.5 -16.5l50 -60q7 -8 15.5 -8t14.5 8l50 60q11 13 20.5 16.5t29.5 3.5q47 0 58.5 -1.5t11.5 -8.5q0 -8 -24 -32l-106 -119
q-21 -31 -35 -31h-40q-13 0 -35 31z" />
    <glyph glyph-name="florin" unicode="&#x192;" 
d="M276 403h-33q-31 0 -45 1.5t-24 10.5t-10 27t11 27t22.5 10.5t30.5 1.5h60q9 81 39.5 145t71.5 100.5t84.5 55.5t84.5 19q54 0 83 -25t29 -67q0 -26 -15.5 -45t-41.5 -19q-29 0 -55 32.5t-44 32.5q-28 0 -41.5 -46.5t-34.5 -182.5h32q28 0 42 -1.5t25.5 -10t11.5 -25.5
q0 -19 -11 -28t-22 -10.5t-32 -1.5h-55q-35 -251 -60 -345t-66 -148q-88 -117 -222 -117q-56 0 -105.5 28t-49.5 80q0 27 17.5 47.5t44.5 20.5q21 0 37 -13.5t25 -30t26 -30t41 -13.5q20 0 36 15.5t22 30.5t14 39q5 14 10 39t12 66l14 83l18.5 113.5t22.5 133.5z" />
    <glyph glyph-name="circumflex" unicode="&#x2c6;" horiz-adv-x="520" 
d="M99 582l106 119q22 31 35 31h40q14 0 35 -31l106 -119q24 -24 24 -32q0 -7 -11.5 -8.5t-58.5 -1.5q-20 0 -29.5 3.5t-20.5 16.5l-50 60q-6 8 -14.5 8t-15.5 -8l-50 -60q-11 -13 -20.5 -16.5t-29.5 -3.5q-47 0 -58.5 1.5t-11.5 8.5q0 8 24 32z" />
    <glyph glyph-name="caron" unicode="&#x2c7;" horiz-adv-x="520" 
d="M205 561l-106 119q-24 24 -24 32q0 7 11.5 8.5t58.5 1.5q20 0 29.5 -3.5t20.5 -16.5l50 -60q7 -8 15.5 -8t14.5 8l50 60q11 13 20.5 16.5t29.5 3.5q47 0 58.5 -1.5t11.5 -8.5q0 -8 -24 -32l-106 -119q-21 -31 -35 -31h-40q-13 0 -35 31z" />
    <glyph glyph-name="uni02C9" unicode="&#x2c9;" horiz-adv-x="440" 
d="M299 584h-153q-21 0 -29.5 1t-20 5t-15.5 15t-4 30q0 30 15.5 38t47.5 8h155h22.5t17.5 -2.5t16.5 -7t8.5 -14t4 -24.5q0 -18 -4 -28.5t-14.5 -14.5t-19 -5t-27.5 -1z" />
    <glyph glyph-name="breve" unicode="&#x2d8;" horiz-adv-x="500" 
d="M412 727q19 0 19 -25q0 -39 -39 -83q-54 -60 -143 -60q-70 0 -123 44q-24 19 -41 46.5t-17 54.5q0 28 21 28q10 0 23 -15t26.5 -33.5t43.5 -33.5t71 -15q36 0 69.5 16.5t53.5 45.5q1 2 5 7.5t6.5 8.5t6.5 7t8.5 5.5t9.5 1.5z" />
    <glyph glyph-name="dotaccent" unicode="&#x2d9;" horiz-adv-x="300" 
d="M147 544q-36 0 -65 20.5t-29 55.5q0 37 29 60t68 23q40 0 68.5 -20.5t28.5 -59.5q0 -36 -31.5 -57.5t-68.5 -21.5z" />
    <glyph glyph-name="ring" unicode="&#x2da;" horiz-adv-x="360" 
d="M180 542q-44 0 -75.5 31t-31.5 74q0 45 31 77.5t75 32.5q45 0 77 -31t32 -76t-31.5 -76.5t-76.5 -31.5zM180 602q21 0 34 14t13 35q0 20 -14.5 32.5t-34.5 12.5q-18 0 -31 -14.5t-13 -32.5q0 -19 13.5 -33t32.5 -14z" />
    <glyph glyph-name="ogonek" unicode="&#x2db;" horiz-adv-x="340" 
d="M116 0h74q-51 -48 -51 -79q0 -15 12 -25.5t27 -10.5q17 0 37 10.5t27 10.5q17 0 17 -15q0 -24 -35 -37.5t-61 -13.5q-36 0 -63 19t-27 54q0 47 43 87z" />
    <glyph glyph-name="tilde" unicode="&#x2dc;" horiz-adv-x="540" 
d="M103 659q38 45 106 45q38 0 90 -27t74 -27q23 0 44.5 25t30.5 25q19 0 19 -21q0 -44 -30 -78q-38 -45 -106 -45q-38 0 -90 27t-74 27q-23 0 -44.5 -25t-30.5 -25t-14 10t-5 21q0 34 30 68z" />
    <glyph glyph-name="hungarumlaut" unicode="&#x2dd;" horiz-adv-x="600" 
d="M120 605l90 80q53 47 75 47q14 0 32 -23t18 -39q0 -21 -35 -40l-110 -60q-45 -25 -60 -25q-8 0 -19 9.5t-11 20.5q0 14 20 30zM360 605l90 80q53 47 75 47q14 0 32 -23t18 -39q0 -21 -35 -40l-110 -60q-45 -25 -60 -25q-8 0 -19 9.5t-11 20.5q0 14 20 30z" />
    <glyph glyph-name="uni03A9" unicode="&#x3a9;" horiz-adv-x="889" 
d="M848 196l-34 -196h-315l-11 28q0 1 24 47t31 60.5t26 59.5t26 72.5t14.5 67.5t7.5 76q0 150 -47 220t-129 70t-126 -68t-44 -225q0 -66 23 -143t44.5 -122t58.5 -114l-10 -29h-317l-30 196h41q19 -48 37.5 -62.5t59.5 -14.5h107q-41 27 -69.5 49.5t-63.5 59.5t-53.5 85
t-18.5 104q0 150 102.5 240.5t262.5 90.5q163 0 262.5 -88t99.5 -236q0 -50 -18 -95.5t-53.5 -84.5t-65.5 -65t-76 -60h122q37 0 54 14.5t36 62.5h42z" />
    <glyph glyph-name="uni03BC" unicode="&#x3bc;" horiz-adv-x="620" 
d="M61 100v235q0 30 -3.5 43t-18.5 25q-17 13 -17 26q0 14 11 21.5t43 17.5q62 19 105 19q23 0 33 -18.5t10 -68.5v-222q0 -24 1.5 -39t7.5 -34t21 -28t38 -9q45 0 73 35q18 22 18 78v154q0 30 -3.5 43t-18.5 25q-17 13 -17 26q0 14 11 21.5t43 17.5q62 19 105 19
q23 0 33 -18.5t10 -68.5v-263q0 -38 5 -52t22 -22q25 -13 25 -31q0 -32 -54 -32h-97q-36 0 -44 12t-8 50q-30 -35 -75.5 -56t-69.5 -21q-30 0 -50 20q0 -28 12 -67t12 -63q0 -33 -26.5 -51.5t-62.5 -18.5q-37 0 -61 21t-24 64q0 19 5.5 88t5.5 122z" />
    <glyph glyph-name="pi" unicode="&#x3c0;" horiz-adv-x="706" 
d="M642 531l36 -10q-4 -36 -19 -82t-28 -61q-27 -8 -76 -8q-7 -75 -5 -199q1 -91 47 -91q21 0 50 19l15 -34q-23 -33 -65 -56t-83 -23q-129 0 -129 149q0 80 11 238q-134 2 -140 2v-9q0 -112 -16.5 -197.5t-31 -116t-28.5 -46.5q-45 -17 -84 -20l-11 27q56 73 83.5 175.5
t27.5 188.5q-50 1 -80 -7.5t-70 -32.5l-21 37q42 56 62 73q57 51 154 50q15 0 140 -2t189 -2q28 0 43.5 8t28.5 30z" />
    <glyph glyph-name="uni2010" unicode="&#x2010;" horiz-adv-x="340" 
d="M245 226h-150q-18 0 -28.5 1.5t-21 7t-15.5 18.5t-5 34q0 39 17 49.5t53 10.5h150q24 0 37 -2.5t23 -16.5t10 -41q0 -21 -5 -34t-15.5 -18.5t-21 -7t-28.5 -1.5z" />
    <glyph glyph-name="endash" unicode="&#x2013;" horiz-adv-x="500" 
d="M425 226h-350q-18 0 -28.5 1.5t-21 7t-15.5 18.5t-5 34q0 39 17 49.5t53 10.5h350q24 0 37 -2.5t23 -16.5t10 -41q0 -21 -5 -34t-15.5 -18.5t-21 -7t-28.5 -1.5z" />
    <glyph glyph-name="emdash" unicode="&#x2014;" horiz-adv-x="1000" 
d="M925 226h-850q-18 0 -28.5 1.5t-21 7t-15.5 18.5t-5 34q0 39 17 49.5t53 10.5h850q24 0 37 -2.5t23 -16.5t10 -41q0 -21 -5 -34t-15.5 -18.5t-21 -7t-28.5 -1.5z" />
    <glyph glyph-name="quoteleft" unicode="&#x2018;" horiz-adv-x="320" 
d="M156 610q15 3 30 3q31 0 52 -19.5t21 -50.5q0 -37 -28.5 -58t-65.5 -21q-46 0 -74.5 29.5t-28.5 73.5q0 69 57 129.5t86 60.5q9 0 17.5 -6t8.5 -15q0 -5 -15.5 -20t-34.5 -43t-25 -63z" />
    <glyph glyph-name="quoteright" unicode="&#x2019;" horiz-adv-x="320" 
d="M164 611q-15 -3 -30 -3q-31 0 -52 19.5t-21 50.5q0 37 28.5 58t65.5 21q46 0 74.5 -29.5t28.5 -73.5q0 -69 -57 -129.5t-86 -60.5q-9 0 -17.5 6t-8.5 15q0 5 15.5 20t34.5 43t25 63z" />
    <glyph glyph-name="quotesinglbase" unicode="&#x201a;" horiz-adv-x="340" 
d="M174 0q-15 -3 -30 -3q-31 0 -52 19.5t-21 50.5q0 37 28.5 58t65.5 21q46 0 74.5 -29.5t28.5 -73.5q0 -69 -57 -129.5t-86 -60.5q-9 0 -17.5 6t-8.5 15q0 5 15.5 20t34.5 43t25 63z" />
    <glyph glyph-name="quotedblleft" unicode="&#x201c;" horiz-adv-x="540" 
d="M156 610q15 3 30 3q31 0 52 -19.5t21 -50.5q0 -37 -28.5 -58t-65.5 -21q-46 0 -74.5 29.5t-28.5 73.5q0 69 57 129.5t86 60.5q9 0 17.5 -6t8.5 -15q0 -5 -15.5 -20t-34.5 -43t-25 -63zM376 610q15 3 30 3q31 0 52 -19.5t21 -50.5q0 -37 -28.5 -58t-65.5 -21
q-46 0 -74.5 29.5t-28.5 73.5q0 69 57 129.5t86 60.5q9 0 17.5 -6t8.5 -15q0 -5 -15.5 -20t-34.5 -43t-25 -63z" />
    <glyph glyph-name="quotedblright" unicode="&#x201d;" horiz-adv-x="540" 
d="M164 611q-15 -3 -30 -3q-31 0 -52 19.5t-21 50.5q0 37 28.5 58t65.5 21q46 0 74.5 -29.5t28.5 -73.5q0 -69 -57 -129.5t-86 -60.5q-9 0 -17.5 6t-8.5 15q0 5 15.5 20t34.5 43t25 63zM384 611q-15 -3 -30 -3q-31 0 -52 19.5t-21 50.5q0 37 28.5 58t65.5 21
q46 0 74.5 -29.5t28.5 -73.5q0 -69 -57 -129.5t-86 -60.5q-9 0 -17.5 6t-8.5 15q0 5 15.5 20t34.5 43t25 63z" />
    <glyph glyph-name="quotedblbase" unicode="&#x201e;" horiz-adv-x="540" 
d="M164 0q-15 -3 -30 -3q-31 0 -52 19.5t-21 50.5q0 37 28.5 58t65.5 21q46 0 74.5 -29.5t28.5 -73.5q0 -69 -57 -129.5t-86 -60.5q-9 0 -17.5 6t-8.5 15q0 5 15.5 20t34.5 43t25 63zM384 0q-15 -3 -30 -3q-31 0 -52 19.5t-21 50.5q0 37 28.5 58t65.5 21q46 0 74.5 -29.5
t28.5 -73.5q0 -69 -57 -129.5t-86 -60.5q-9 0 -17.5 6t-8.5 15q0 5 15.5 20t34.5 43t25 63z" />
    <glyph glyph-name="dagger" unicode="&#x2020;" horiz-adv-x="520" 
d="M304 444l22 -133l-33 -444q-1 -12 -1.5 -17t-3 -14.5t-9 -13.5t-16.5 -4q-26 0 -30 32l-38 461l28 133l-107 -17q-45 -7 -68 9q-25 19 -25 52q0 27 19 44q22 21 66 14l115 -18l-18 129q-6 49 8 69q18 26 53 26q26 0 47 -21q18 -21 12 -67l-19 -136l107 18q44 8 65 -6
q29 -19 29 -55q0 -25 -20 -45q-22 -21 -73 -13z" />
    <glyph glyph-name="daggerdbl" unicode="&#x2021;" horiz-adv-x="520" 
d="M204 93l20 121q-126 -21 -134 -21q-38 0 -52.5 20.5t-14.5 42.5q0 9 2.5 18t9 20t21 18t34.5 7q5 0 136 -21l-19 83l19 85q-131 -21 -141 -21q-35 0 -48.5 21t-13.5 42t13.5 42t48.5 21q13 0 139 -21q-21 133 -21 140q0 32 21.5 47t40.5 15t40.5 -15t21.5 -47
q0 -7 -21 -140q126 21 139 21q35 0 48.5 -21t13.5 -42t-13.5 -42t-48.5 -21q-10 0 -141 21l19 -85l-19 -83q131 21 136 21q38 0 52.5 -20.5t14.5 -42.5q0 -9 -2.5 -18t-9 -20t-21 -18t-34.5 -7q-8 0 -134 21l20 -121l-32 -277q-4 -34 -29 -34t-29 34z" />
    <glyph glyph-name="bullet" unicode="&#x2022;" horiz-adv-x="280" 
d="M143 246q-57 0 -101.5 32.5t-44.5 87.5t44 88t101 33q54 0 97.5 -34.5t43.5 -87.5t-43 -86t-97 -33z" />
    <glyph glyph-name="ellipsis" unicode="&#x2026;" horiz-adv-x="1000" 
d="M169 -15q-37 0 -67 22t-30 58q0 37 29 59t67 22q37 0 65.5 -23t28.5 -59q0 -35 -28.5 -57t-64.5 -22zM501 -15q-37 0 -66.5 22t-29.5 58q0 37 29 59t67 22q37 0 65.5 -23t28.5 -59q0 -35 -29 -57t-65 -22zM835 -15q-38 0 -67.5 22t-29.5 58q0 37 29 59t67 22
q37 0 65.5 -23t28.5 -59q0 -35 -28.5 -57t-64.5 -22z" />
    <glyph glyph-name="perthousand" unicode="&#x2030;" horiz-adv-x="1400" 
d="M217 342q72 0 72 191q0 171 -71 171t-71 -176q0 -186 70 -186zM758 698l-485 -666q-2 -2 -5 -7q-15 -21 -23.5 -26t-34.5 -5q-39 0 -39 16q0 4 19 32l453 618q-62 -35 -128 -35q-73 0 -132 35q14 -21 26 -60.5t12 -75.5q0 -100 -54 -164t-152 -64q-94 0 -147 67.5
t-53 163.5q0 94 55 158.5t148 64.5q59 0 156 -35q103 -35 141 -35q59 0 125 30.5t90 30.5q43 0 43 -12q0 -11 -15 -31zM724 -15q-94 0 -147 67.5t-53 163.5q0 94 55 158.5t148 64.5q94 0 148.5 -65t54.5 -160q0 -100 -54 -164.5t-152 -64.5zM726 31q72 0 72 191
q0 172 -71 172t-71 -183q0 -180 70 -180zM1184 -15q-94 0 -147 67.5t-53 163.5q0 94 55 158.5t148 64.5q94 0 148.5 -65t54.5 -160q0 -100 -54 -164.5t-152 -64.5zM1184 31q72 0 72 191q0 172 -71 172t-71 -183q0 -180 70 -180z" />
    <glyph glyph-name="guilsinglleft" unicode="&#x2039;" horiz-adv-x="220" 
d="M127 265l57 -103q21 -38 21 -48q0 -12 -11 -15.5t-43 -3.5q-16 0 -26.5 4t-15 9t-10.5 16l-64 116q-14 25 -14 50t14 50l64 116q6 11 10.5 16t15 9t26.5 4q32 0 43 -3.5t11 -15.5q0 -10 -21 -48l-57 -103q-6 -12 -6 -25t6 -25z" />
    <glyph glyph-name="guilsinglright" unicode="&#x203a;" horiz-adv-x="220" 
d="M93 315l-57 103q-21 38 -21 48q0 12 11 15.5t43 3.5q16 0 26.5 -4t15 -9t10.5 -16l64 -116q14 -25 14 -50t-14 -50l-64 -116q-6 -11 -10.5 -16t-15 -9t-26.5 -4q-32 0 -43 3.5t-11 15.5q0 10 21 48l57 103q6 12 6 25t-6 25z" />
    <glyph glyph-name="fraction" unicode="&#x2044;" horiz-adv-x="160" 
d="M311 706l-394 -668q-11 -18 -15 -23.5t-13.5 -10t-26.5 -4.5q-33 0 -33 16q0 8 16 32l395 664q10 18 14.5 23.5t14.5 10t27 4.5q30 0 30 -13q0 -5 -15 -31z" />
    <glyph glyph-name="Euro" unicode="&#x20ac;" 
d="M666 142q0 -43 -56 -96q-64 -61 -165 -61q-129 0 -211.5 81.5t-101.5 214.5h-44q-20 0 -30.5 1.5t-20.5 8.5t-10 22q0 21 15.5 26.5t45.5 5.5h39v10q0 19 2 51h-46q-17 0 -27 1.5t-19.5 9t-9.5 22.5q0 20 16.5 25.5t50.5 5.5h44q27 131 111 205.5t197 74.5t179 -56
q21 -19 25 -34q7 -27 7 -110q0 -18 -10.5 -28.5t-29.5 -10.5q-17 0 -27 8.5t-13 16t-8 26.5q-31 119 -114 119q-64 0 -96 -53.5t-40 -157.5h164q37 0 37 -32q0 -21 -8.5 -26.5t-28.5 -5.5h-167v-31v-30h152q16 0 25.5 -1.5t18 -9t8.5 -21.5t-6 -21.5t-14 -9t-22 -1.5h-160
q2 -51 9.5 -89t22.5 -71t42.5 -50t66.5 -17q71 0 117 68l7 11t7.5 11.5l7 10t8 9.5t8 6.5t9 5t9.5 1.5q16 0 25 -10t9 -25z" />
    <glyph glyph-name="afii61289" unicode="&#x2113;" horiz-adv-x="542" 
d="M492 168l29 -29q-88 -153 -231 -153q-92 0 -139 45q-25 28 -36.5 63.5t-11.5 107.5v52l-68 -40l-17 40l85 55v145q0 112 13.5 170t49.5 102q61 76 146 76q66 0 99 -45t33 -112q0 -88 -44 -156.5t-140 -148.5v-79q0 -97 22.5 -139.5t76.5 -42.5q68 0 133 89zM260 516v-109
q91 101 91 236q0 114 -46 114q-29 0 -37 -48t-8 -193z" />
    <glyph glyph-name="trademark" unicode="&#x2122;" horiz-adv-x="840" 
d="M433 386l9 242v38q0 5 -19 14t-19 25q0 13 7 19t14.5 7t23.5 1h51q20 0 28 -2t14 -11l5 -17q38 -122 68 -197q10 21 65 187q8 30 20 35t69 5q22 0 31 -1t15.5 -5.5t6.5 -15.5q0 -18 -19 -26q-13 -6 -13 -32v-26l13 -274q1 -12 19 -20.5t18 -24.5q0 -13 -6 -19t-12 -7
t-17 -1h-99q-37 0 -37 26q0 18 29 28q7 2 10.5 6.5t4 8.5t0.5 15l-8 226l-31 -83.5t-34 -96.5q-16 -56 -35 -56q-20 0 -29 17q-26 53 -81 219l-5 -220q0 -18 3 -24.5t16 -10.5q30 -10 30 -29q0 -18 -15 -22t-65 -4q-40 0 -52 4t-12 23q0 14 23 27q10 6 12 14.5t3 37.5z
M85 732h258q20 0 28 -5t11 -21l6 -35t4 -24t1 -11q0 -23 -23 -23q-12 0 -20 18q-20 46 -74 46q-11 0 -13.5 -4t-2.5 -14v-288q0 -32 13 -36q1 0 3.5 -1t3.5 -1.5t3.5 -1.5t3.5 -2t3.5 -2t3.5 -2.5t2.5 -3.5t2 -4t1 -4.5t0.5 -5.5q0 -13 -6 -19t-12 -7t-18 -1h-101
q-11 0 -17 1t-12 7t-6 19q0 20 22 26q12 3 15 10t3 28v288q0 7 -0.5 10t-4 5.5t-11.5 2.5q-54 0 -74 -46q-8 -18 -25 -18q-18 0 -18 23q0 4 1 11t4 24l6 35q3 16 11 21t28 5z" />
    <glyph glyph-name="Omega" unicode="&#x2126;" horiz-adv-x="889" 
d="M848 196l-34 -196h-315l-11 28q0 1 24 47t31 60.5t26 59.5t26 72.5t14.5 67.5t7.5 76q0 150 -47 220t-129 70t-126 -68t-44 -225q0 -66 23 -143t44.5 -122t58.5 -114l-10 -29h-317l-30 196h41q19 -48 37.5 -62.5t59.5 -14.5h107q-41 27 -69.5 49.5t-63.5 59.5t-53.5 85
t-18.5 104q0 150 102.5 240.5t262.5 90.5q163 0 262.5 -88t99.5 -236q0 -50 -18 -95.5t-53.5 -84.5t-65.5 -65t-76 -60h122q37 0 54 14.5t36 62.5h42z" />
    <glyph glyph-name="estimated" unicode="&#x212e;" horiz-adv-x="921" 
d="M884 356h-687q-5 0 -5 -4v-208q0 -14 9 -24q108 -113 260 -113q162 0 273 127h61q-58 -69 -146.5 -108.5t-189.5 -39.5q-175 0 -299 111t-124 269q0 159 123.5 270.5t299.5 111.5t300.5 -111.5t124.5 -270.5v-10zM728 383v209q0 16 -10 25q-109 109 -257 109
q-150 0 -259 -112q-10 -10 -10 -26v-205q0 -6 5 -6h527q4 0 4 6z" />
    <glyph glyph-name="partialdiff" unicode="&#x2202;" horiz-adv-x="663" 
d="M316 469h1q41 0 79.5 -16.5t60.5 -46.5q12 63 13 119q4 102 -28 160q-35 66 -113 66t-179 -83q-19 0 -42 42.5t-12 67.5q86 43 178 43q174 0 269 -156q65 -107 65 -250q0 -155 -62 -264q-87 -164 -268 -164q-104 0 -167 60.5t-63 161.5q0 109 72 183q77 77 196 77z
M359 410h-1q-62 0 -101 -59q-48 -81 -48 -212q0 -107 76 -107q58 0 104 107q38 83 57 210q-13 24 -35.5 42.5t-51.5 18.5z" />
    <glyph glyph-name="uni2206" unicode="&#x2206;" horiz-adv-x="783" 
d="M742 0h-701v44l306 686l77 17l318 -703v-44zM537 75l-207 475l-202 -475h409z" />
    <glyph glyph-name="product" unicode="&#x220f;" horiz-adv-x="861" 
d="M829 753v-41q-74 -6 -90.5 -23t-16.5 -85v-538q0 -71 17 -89t90 -24v-41h-365v41q63 5 76 22t13 91v594q0 27 -7.5 33.5t-35.5 6.5h-162q-27 0 -33.5 -6t-6.5 -32v-596q0 -73 11.5 -90.5t68.5 -22.5v-41h-356v41q72 6 89 24.5t17 88.5v538q0 68 -17.5 85t-92.5 23v41h801
z" />
    <glyph glyph-name="summation" unicode="&#x2211;" horiz-adv-x="679" 
d="M653 159l-58 -256h-566v42l249 334l-242 431v43h557q1 -9 3 -40.5t6 -83.5t6 -82l-42 -11q-21 78 -47 123q-16 27 -38.5 36t-83.5 9h-160l181 -321l-254 -346h274q44 0 63 2t40 17t33.5 38.5t35.5 75.5z" />
    <glyph glyph-name="minus" unicode="&#x2212;" horiz-adv-x="660" 
d="M78 240v95h504v-95h-504z" />
    <glyph glyph-name="uni2215" unicode="&#x2215;" horiz-adv-x="160" 
d="M311 706l-394 -668q-11 -18 -15 -23.5t-13.5 -10t-26.5 -4.5q-33 0 -33 16q0 8 16 32l395 664q10 18 14.5 23.5t14.5 10t27 4.5q30 0 30 -13q0 -5 -15 -31z" />
    <glyph glyph-name="uni2219" unicode="&#x2219;" horiz-adv-x="340" 
d="M172 207q-37 0 -67 22t-30 58q0 37 29 58.5t67 21.5q36 0 65 -23t29 -58t-28.5 -57t-64.5 -22z" />
    <glyph glyph-name="radical" unicode="&#x221a;" horiz-adv-x="655" 
d="M649 932l-205 -1104l-39 -16l-247 577l-101 -46l-16 49l225 102l164 -406h3l154 856z" />
    <glyph glyph-name="infinity" unicode="&#x221e;" horiz-adv-x="857" 
d="M805 305v-1q0 -90 -54.5 -144t-127.5 -54q-108 0 -195 121q-48 -59 -94 -90t-106 -31q-72 0 -125.5 54t-53.5 138q0 86 54 140t135 54q59 0 105.5 -29t90.5 -87q1 1 12 14t14 16l14.5 15t16.5 16.5t17 14.5t20 14l21 10.5t24.5 9t25.5 4.5t29 2q75 0 126 -51.5t51 -135.5
zM238 196h2q38 0 70 26t68 72q-23 33 -32 44t-28.5 31.5t-38.5 27.5t-43 7q-42 0 -68.5 -29.5t-26.5 -77.5q0 -41 28.5 -71t68.5 -30zM619 404h-1q-9 0 -18 -2t-16.5 -4.5t-16.5 -8.5t-14.5 -9t-15 -12.5t-13 -12.5t-13 -14t-11 -13t-11.5 -14l-10 -13q47 -61 77.5 -83
t68.5 -22q39 0 63.5 32t24.5 69q0 46 -26 76.5t-68 30.5z" />
    <glyph glyph-name="integral" unicode="&#x222b;" horiz-adv-x="477" 
d="M187 -22l-24 422q-7 119 4.5 210.5t33.5 143.5t54 84.5t60.5 43t58.5 10.5q35 0 63.5 -18.5t28.5 -48.5q0 -35 -21 -54t-50 -19q-20 0 -31.5 19.5t-19.5 39t-17 19.5q-11 0 -17 -12t-9.5 -46.5t0.5 -98.5l22 -395q8 -134 -7.5 -236t-47.5 -160.5t-73 -87t-90 -28.5
q-37 0 -64 20.5t-27 49.5q-1 32 26 54.5t58 22.5q17 0 27.5 -21.5t17.5 -43t17 -21.5q35 0 27 151z" />
    <glyph glyph-name="approxequal" unicode="&#x2248;" horiz-adv-x="627" 
d="M526 497l62 -61q-33 -53 -76 -83t-87 -30q-55 0 -126 42q-58 35 -93 35q-23 0 -44.5 -12t-34 -25.5t-32.5 -38.5l-62 60q27 48 76 80.5t101 32.5q55 0 117 -37q37 -23 54.5 -31t39.5 -8q29 0 53.5 19t51.5 57zM526 284l62 -61q-71 -113 -164 -113q-54 0 -125 42
q-59 35 -93 35q-24 0 -45.5 -12.5t-33.5 -25.5t-32 -39l-62 61q27 48 76.5 80.5t100.5 32.5q55 0 116 -36q7 -4 22.5 -14t23.5 -14.5t21.5 -8.5t26.5 -4q30 0 53 18.5t53 58.5z" />
    <glyph glyph-name="notequal" unicode="&#x2260;" horiz-adv-x="627" 
d="M469 552l-40 -88h145v-97h-184l-61 -137h245v-96h-285l-55 -125l-77 34l40 91h-144v96h184l60 137h-244v97h284l54 121z" />
    <glyph glyph-name="lessequal" unicode="&#x2264;" horiz-adv-x="627" 
d="M572 122l-516 238v104l515 237v-109l-414 -179v-2l415 -180v-109zM575 -15h-521v99h521v-99z" />
    <glyph glyph-name="greaterequal" unicode="&#x2265;" horiz-adv-x="627" 
d="M58 701l515 -238v-104l-515 -237v108l415 181v2l-415 179v109zM570 -15h-516v99h516v-99z" />
    <glyph glyph-name="lozenge" unicode="&#x25ca;" 
d="M630 356l-231 -437h-119l-231 437l234 440h116zM518 356l-175 344h-5l-177 -343l178 -347h3z" />
    <glyph glyph-name="fi" unicode="&#xfb01;" horiz-adv-x="660" 
d="M253 404v-269q0 -37 5 -50.5t22 -21.5q25 -13 25 -31q0 -32 -54 -32h-159q-54 0 -54 32q0 18 25 31q17 8 22 21.5t5 50.5v269h-13q-20 0 -30 1.5t-18.5 10.5t-8.5 27q0 25 13 31.5t39 6.5h19v44q0 122 73 177t186 55q88 0 160 -29q40 -15 67.5 -44.5t27.5 -69.5
q0 -36 -31.5 -58t-70.5 -22q-36 0 -64.5 22.5t-28.5 56.5q0 7 2.5 16.5t2.5 13.5q0 20 -21.5 31t-48.5 11q-92 0 -92 -139v-65h225q13 0 48 5q21 3 36 3q14 0 23 -8.5t12.5 -26t4.5 -30t1 -33.5v-256q0 -40 2 -52t13 -20q25 -11 25 -31q0 -21 -12.5 -26.5t-34.5 -5.5h-149
q-14 0 -22.5 1.5t-16.5 9t-8 21.5q0 20 25 31q11 8 13 20t2 52v148q0 58 -8 82.5t-25.5 31.5t-61.5 7h-92z" />
    <glyph glyph-name="fl" unicode="&#xfb02;" 
d="M253 404v-269q0 -37 5 -50.5t22 -21.5q25 -13 25 -31q0 -32 -54 -32h-159q-54 0 -54 32q0 18 25 31q17 8 22 21.5t5 50.5v269h-13q-20 0 -30 1.5t-18.5 10.5t-8.5 27q0 25 13 31.5t39 6.5h19q-2 122 25 179q22 48 75.5 72.5t123.5 24.5q72 0 135 -27q90 27 115 27
q14 0 23 -8.5t12.5 -26t4.5 -30t1 -33.5v-524q0 -29 1 -39.5t6.5 -18.5t18.5 -14q25 -11 25 -31q0 -21 -14 -26.5t-44 -5.5h-149q-20 0 -30.5 1.5t-19 8.5t-8.5 22q0 20 25 31q18 8 22 20t4 52v409q0 83 -18 101q-29 30 -85 30q-53 0 -70 -27.5t-17 -72.5v-94h29
q26 0 39 -1.5t23.5 -10t10.5 -25.5q0 -18 -10.5 -27.5t-22.5 -11t-37 -1.5h-32z" />
    <glyph glyph-name="a.superior" horiz-adv-x="440" 
d="M371 612v-89q0 -20 2.5 -27.5t13.5 -12.5q17 -8 17 -21q0 -14 -10 -18t-32 -4h-62q-15 0 -21 1.5t-10 8t-4 20.5q-31 -38 -105 -38q-48 0 -79 24t-31 70q0 31 19.5 53.5t50 33.5t60 16t58.5 5h19q0 24 -14 39t-38 15q-22 0 -44.5 -18.5t-43.5 -18.5q-44 0 -44 31
q0 29 47 41t87 12q75 0 121 -28q43 -27 43 -95zM260 590h-10q-34 0 -59.5 -16t-25.5 -48q0 -17 10 -27.5t26 -10.5q26 0 45 24q14 18 14 78z" />
    <glyph glyph-name="o.superior" horiz-adv-x="440" 
d="M223 432q-80 0 -132.5 42.5t-52.5 106.5q0 70 57 112t129 42q73 0 129.5 -40.5t56.5 -110.5q0 -69 -58 -110.5t-129 -41.5zM223 482q70 0 70 108q0 38 -16 66.5t-52 28.5q-38 0 -54 -30t-16 -72q0 -101 68 -101z" />
    <glyph glyph-name="one.superior" horiz-adv-x="408" 
d="M153 395v223q0 26 -7.5 34t-38.5 8q-29 0 -39 3.5t-10 15.5q0 14 8.5 18.5t24.5 6.5q45 8 89 27t57 19q20 0 27 -10t7 -30v-312q0 -20 1.5 -28t10.5 -15t28 -8q1 0 7 -0.5t8 -1t7 -1.5t7 -3t5 -4.5t4 -6.5t1 -9q0 -21 -31 -21h-215q-11 0 -17 1t-11.5 6t-5.5 14
q0 4 1.5 7.5t3 6t4.5 4.5t5.5 3t7 2t6.5 1.5t6.5 1t5.5 0.5q30 2 36.5 11t6.5 37z" />
    <glyph glyph-name="two.superior" horiz-adv-x="408" 
d="M321 300h-262q-38 0 -38 23q0 22 26.5 57.5t57.5 63.5q88 81 120 120.5t32 79.5q0 26 -17 41t-46 15q-27 0 -46.5 -11.5t-19.5 -34.5q0 -9 7.5 -21.5t7.5 -20.5q0 -16 -18 -26.5t-36 -10.5q-26 0 -42.5 15t-16.5 40q0 56 56.5 88t125.5 32q77 0 122 -32.5t45 -84.5
q0 -44 -33 -84.5t-94.5 -91t-86.5 -77.5h93q64 0 78 19q18 23 33 23q7 0 12 -5t5 -12q0 -9 -2.5 -18t-7.5 -25t-9 -34q-3 -14 -9.5 -20t-13 -7t-23.5 -1z" />
    <glyph glyph-name="three.superior" horiz-adv-x="408" 
d="M268 540q49 -8 84 -39t35 -75q0 -53 -48.5 -94t-141.5 -41q-79 0 -127.5 27t-48.5 73q0 21 14 32.5t37 11.5q22 0 32.5 -7.5t12.5 -27.5q4 -34 18 -48.5t45 -14.5q42 0 62.5 23.5t20.5 60.5q0 51 -30 68t-78 17q-27 0 -36.5 4.5t-9.5 18.5q0 31 28 31q109 0 109 82
q0 24 -15 42.5t-44 18.5q-20 0 -34 -9.5t-14 -26.5q0 -6 3 -13t3 -14q0 -17 -16.5 -25.5t-38.5 -8.5q-19 0 -33 10.5t-14 35.5q0 45 49 71.5t115 26.5q62 0 110.5 -29t48.5 -83q0 -38 -27.5 -63t-70.5 -35z" />
    </font>
</defs>
</svg>
