<?xml version="1.0" standalone="no"?>
<!DOCTYPE svg PUBLIC "-//W3C//DTD SVG 1.1//EN" "http://www.w3.org/Graphics/SVG/1.1/DTD/svg11.dtd" >
<svg>
<metadata>
Created by FontForge 20090622 at Fri Jan 19 15:35:36 2018
 By deploy user
&#194;&#169; 1989, 1990, 2001, 2002 Adobe Systems Incorporated. All rights reserved.
</metadata>
<defs>
<font id="SouvenirStd-MediumItalic" horiz-adv-x="310" >
  <font-face 
    font-family="ITC Souvenir Std Medium"
    font-weight="500"
    font-style="italic"
    font-stretch="normal"
    units-per-em="1000"
    panose-1="2 8 7 3 5 5 10 9 2 4"
    ascent="762"
    descent="-238"
    x-height="470"
    cap-height="732"
    bbox="-167 -221 1124 959"
    underline-thickness="50"
    underline-position="-50"
    slope="-10"
    unicode-range="U+0020-U+FB02"
  />
<missing-glyph horiz-adv-x="568" 
d="M68 0v700h500v-700h-500zM318 395l170 255h-340zM348 350l170 -255v510zM148 50h340l-170 255zM118 605v-510l170 255z" />
    <glyph glyph-name="f_i" unicode="fi" horiz-adv-x="650" 
d="M114 470h44q26 153 90 218.5t190 65.5q71 0 125.5 -32.5t54.5 -91.5q0 -29 -18 -46.5t-48 -17.5q-32 0 -50 17t-18 41q0 33 -17 50.5t-45 17.5q-52 0 -88 -47.5t-50 -174.5h164q20 0 60 5q27 5 45 5q35 0 35 -43q0 -23 -28 -165.5t-28 -158.5q0 -13 9 -19t19 -7.5t19 -8
t9 -19.5q0 -20 -66.5 -44.5t-88.5 -24.5q-37 0 -37 46q0 28 25 155t25 157q0 29 -11 41.5t-43 12.5h-118l-15.5 -106.5t-21.5 -136t-27.5 -119t-41.5 -112.5q-29 -56 -74.5 -93t-102.5 -37q-34 0 -54.5 14.5t-20.5 35.5q0 23 15.5 39.5t37.5 16.5q24 0 37.5 -16t23.5 -16
q36 0 71 213q14 84 47 317h-46q-29 0 -29 26q0 23 9.5 32.5t31.5 9.5z" />
    <glyph glyph-name="f_l" unicode="fl" horiz-adv-x="650" 
d="M114 470h44q26 147 82 215.5t160 68.5q53 0 108 -22q32 12 46 16q21 6 39 6q29 0 29 -30q0 -11 -51 -287t-51 -309q0 -19 8 -28.5t17 -11t17 -6.5t8 -16q0 -23 -71.5 -49.5t-91.5 -26.5q-29 0 -29 38q0 17 52 290t52 302q0 68 -72 68q-56 0 -82.5 -43t-43.5 -175h72
q28 0 28 -30q0 -38 -49 -38h-61l-15.5 -106.5t-21.5 -136t-27.5 -119t-41.5 -112.5q-29 -56 -74.5 -93t-102.5 -37q-34 0 -54.5 14.5t-20.5 35.5q0 23 15.5 39.5t37.5 16.5q24 0 37.5 -16t23.5 -16q36 0 71 213q14 84 47 317h-46q-29 0 -29 26q0 23 9.5 32.5t31.5 9.5z" />
    <glyph glyph-name=".notdef" horiz-adv-x="568" 
d="M68 0v700h500v-700h-500zM318 395l170 255h-340zM348 350l170 -255v510zM148 50h340l-170 255zM118 605v-510l170 255z" />
    <glyph glyph-name=".null" horiz-adv-x="0" 
 />
    <glyph glyph-name="nonmarkingreturn" horiz-adv-x="333" 
 />
    <glyph glyph-name="space" unicode=" " horiz-adv-x="320" 
 />
    <glyph glyph-name="exclam" unicode="!" horiz-adv-x="340" 
d="M122 231l21 426q2 47 23 68t66 21q88 0 88 -47q0 -20 -18 -87l-108 -391q-9 -35 -39 -35q-36 0 -33 45zM56 38q0 33 29.5 58.5t63.5 25.5q25 0 42 -14.5t17 -37.5q0 -33 -29.5 -58.5t-63.5 -25.5q-25 0 -42 14.5t-17 37.5z" />
    <glyph glyph-name="quotedbl" unicode="&#x22;" horiz-adv-x="333" 
d="M106 461l-18 174q-4 42 -4 53q0 58 44 58t44 -58q0 -11 -4 -53l-18 -174q-3 -31 -22 -31t-22 31zM256 461l-18 174q-4 42 -4 53q0 58 44 58t44 -58q0 -11 -4 -53l-18 -174q-3 -31 -22 -31t-22 31z" />
    <glyph glyph-name="numbersign" unicode="#" horiz-adv-x="640" 
d="M557 294l-3 -68h-99l-31 -226h-82l31 226h-118l-31 -226h-82l31 226h-100l3 68h107l20 144h-100l3 68h107l31 226h82l-31 -226h118l31 226h82l-31 -226h92l-3 -68h-99l-20 -144h92zM403 438h-118l-20 -144h118z" />
    <glyph glyph-name="dollar" unicode="$" horiz-adv-x="640" 
d="M323 -14l-15 -96q-3 -21 -12.5 -29.5t-28.5 -8.5q-33 0 -33 22q0 4 3 21l7.5 43.5t7.5 47.5q-73 0 -138.5 40.5t-65.5 108.5q0 28 16 45t43 17q25 0 36.5 -14t12.5 -47q1 -45 36 -69.5t98 -24.5q78 0 124 39.5t46 104.5q0 42 -34.5 71t-83.5 48.5t-98 41.5t-83.5 61.5
t-34.5 95.5q0 95 77.5 161t174.5 67l14 88q4 26 38 26q36 0 36 -23q0 -10 -7.5 -43t-9.5 -48q83 -12 125 -46t42 -81q0 -31 -19 -50.5t-47 -19.5q-21 0 -33.5 11.5t-12.5 27.5q0 6 2 18.5t2 18.5q0 24 -27.5 44.5t-80.5 20.5q-62 0 -105 -37t-43 -88q0 -40 34.5 -69.5
t83.5 -50.5l98 -44t83.5 -63.5t34.5 -96.5q0 -103 -78.5 -170t-184.5 -71z" />
    <glyph glyph-name="percent" unicode="%" horiz-adv-x="760" 
d="M116 472q0 -68 46 -68q33 0 62.5 71t29.5 155q0 70 -44 70q-34 0 -64.5 -72.5t-29.5 -155.5zM660 689l-499 -667q-27 -36 -53 -36q-24 0 -24 19q0 8 9 21l524 700q15 20 37 20q26 0 26 -16t-20 -41zM520 100q0 -68 46 -68q33 0 62.5 71t29.5 155q0 70 -44 70
q-34 0 -64.5 -72.5t-29.5 -155.5zM30 506q0 100 53 170t129 70q60 0 94 -38.5t34 -109.5q0 -100 -53 -170t-129 -70q-60 0 -94 38.5t-34 109.5zM434 134q0 100 53 170t129 70q60 0 94 -38.5t34 -109.5q0 -100 -53 -170t-129 -70q-60 0 -94 38.5t-34 109.5z" />
    <glyph glyph-name="ampersand" unicode="&#x26;" horiz-adv-x="850" 
d="M619 421h157q38 0 38 -28q0 -14 -12.5 -22.5t-32 -16t-27.5 -15.5q-10 -9 -70.5 -78.5t-111.5 -122.5q74 -78 137 -78q16 0 36.5 8t27.5 8q20 0 20 -21q0 -24 -33 -40.5t-66 -22.5t-56 -6q-96 0 -168 72q-110 -72 -232 -72q-108 0 -164 51t-56 124q0 83 63 146t150 95
q-45 86 -45 143q0 88 73.5 144.5t181.5 56.5q83 0 132 -35t49 -93q0 -40 -21.5 -77.5t-56.5 -65.5t-71.5 -48t-73.5 -33q75 -123 136 -208q99 89 99 143q0 14 -7.5 22.5t-16.5 11.5t-16.5 9.5t-7.5 17.5q0 14 12.5 22.5t32.5 8.5zM316 584q0 -53 40 -128q146 77 146 161
q0 34 -22 54.5t-58 20.5q-46 0 -76 -31t-30 -77zM138 170q0 -52 36 -84t89 -32q68 0 146 52q-69 75 -155 240q-48 -30 -82 -77t-34 -99z" />
    <glyph glyph-name="quotesingle" unicode="'" horiz-adv-x="222" 
d="M122 461l-18 174q-4 42 -4 53q0 58 44 58t44 -58q0 -11 -4 -53l-18 -174q-3 -31 -22 -31t-22 31z" />
    <glyph glyph-name="parenleft" unicode="(" 
d="M26 163q0 180 98 360q51 94 106.5 158.5t96.5 64.5q29 0 29 -19q0 -4 -2 -9t-7 -13.5l-11 -18l-18 -28.5l-24 -39q-66 -110 -104 -236t-38 -249q0 -72 10 -140t20 -108t10 -43q0 -31 -48 -31q-22 0 -49.5 53t-48 137t-20.5 161z" />
    <glyph glyph-name="parenright" unicode=")" 
d="M298 395q0 -180 -98 -360q-51 -94 -106.5 -158.5t-96.5 -64.5q-29 0 -29 19q0 4 2 9t7 13.5l11 18l18 28.5l24 39q66 110 104 236t38 249q0 72 -10 140t-20 108t-10 43q0 31 48 31q22 0 49.5 -53t48 -137t20.5 -161z" />
    <glyph glyph-name="asterisk" unicode="*" horiz-adv-x="610" 
d="M282 646l65 -73l2 2q-2 17 -7.5 43.5l-9.5 46.5t-4 25q0 24 15.5 40t39.5 16q20 0 36.5 -15.5t16.5 -37.5q0 -13 -8.5 -29.5t-26.5 -45t-28 -47.5l2 -2q17 8 43.5 24t45.5 25.5t34 9.5q21 0 36.5 -15t15.5 -36q0 -24 -14.5 -40.5t-33.5 -16.5q-11 0 -61 11.5t-62 13.5
l-2 -2q17 -21 44.5 -42t41 -36.5t13.5 -35.5q0 -23 -17 -38t-40 -15q-24 0 -37 17.5t-15.5 38t-5 53.5t-5.5 49h-2q-13 -23 -28 -62t-28.5 -54.5t-38.5 -15.5q-22 0 -38.5 16.5t-16.5 38.5q0 25 17.5 39t58 29.5t58.5 25.5v2q-109 11 -133 23q-25 13 -25 42q0 24 16.5 39.5
t38.5 15.5q23 0 47 -27z" />
    <glyph glyph-name="plus" unicode="+" horiz-adv-x="600" 
d="M546 282v-94h-188v-188h-94v188h-188v94h188v188h94v-188h188z" />
    <glyph glyph-name="comma" unicode="," horiz-adv-x="320" 
d="M30 43q0 32 28 54.5t64 22.5q33 0 54.5 -19t21.5 -51q0 -44 -36 -96t-75 -83t-55 -31q-7 0 -12.5 5t-5.5 12t10.5 15t31.5 27t39 48q16 24 16 37q0 6 -19 6q-25 0 -43.5 12.5t-18.5 40.5z" />
    <glyph glyph-name="hyphen" unicode="-" horiz-adv-x="280" 
d="M221 186h-198q-23 0 -23 28q0 70 39 70h198q23 0 23 -28q0 -70 -39 -70z" />
    <glyph glyph-name="period" unicode="." horiz-adv-x="320" 
d="M35 45q0 34 28 58.5t62 24.5q29 0 48.5 -16.5t19.5 -42.5q0 -34 -28 -58.5t-62 -24.5q-29 0 -48.5 16.5t-19.5 42.5z" />
    <glyph glyph-name="slash" unicode="/" horiz-adv-x="320" 
d="M-78 42l418 686q7 12 18 15t39 3q35 0 35 -17q0 -16 -15 -41l-415 -682q-7 -12 -20.5 -16t-41.5 -4q-34 0 -34 17q0 13 16 39z" />
    <glyph glyph-name="zero" unicode="0" horiz-adv-x="640" 
d="M46 270q0 118 38 225t116.5 179t180.5 72q109 0 171 -75t62 -209q0 -118 -38 -225t-116.5 -179t-180.5 -72q-109 0 -171 75t-62 209zM184 190q0 -66 26 -103t70 -37q57 0 103 77.5t69.5 188.5t23.5 226q0 66 -26.5 103t-70.5 37q-57 0 -103 -77.5t-69 -188.5t-23 -226z
" />
    <glyph glyph-name="one" unicode="1" horiz-adv-x="640" 
d="M442 0h-328q-36 0 -36 30q0 18 19.5 25.5t44.5 8.5t50 12.5t34 35.5q10 27 45 237.5t35 231.5q0 20 -12.5 28.5t-43.5 8.5h-59q-29 0 -29 25q0 20 37 31t94.5 23.5t88.5 31.5q44 27 68 27q34 0 34 -30q0 -3 -51 -294t-51 -320q0 -24 18 -35.5t40 -12.5t40 -8.5t18 -25.5
q0 -30 -56 -30z" />
    <glyph glyph-name="two" unicode="2" horiz-adv-x="640" 
d="M188 108h181q51 0 82.5 16t49 31.5t35.5 15.5q20 0 20 -16q0 -4 -17 -48q-42 -107 -73 -107h-428q-34 0 -34 29q0 21 26 59t59 71q50 50 134 125.5l126.5 116t77.5 96t35 105.5q0 37 -24 58.5t-72 21.5q-57 0 -97.5 -37.5t-40.5 -75.5q0 -12 7 -28.5t7 -24.5
q0 -23 -20.5 -39.5t-49.5 -16.5q-32 0 -52 17.5t-20 48.5q0 88 91.5 154t211.5 66q93 0 153 -42t60 -118q0 -45 -22.5 -90t-63 -85.5t-74.5 -68.5t-80 -62q-12 -9 -18 -13q-110 -81 -170 -159z" />
    <glyph glyph-name="three" unicode="3" horiz-adv-x="640" 
d="M198 383q0 37 51 37q94 0 148.5 47.5t54.5 134.5q0 41 -24.5 60.5t-63.5 19.5q-47 0 -73.5 -24.5t-26.5 -62.5q0 -69 -68 -69q-29 0 -49.5 16t-20.5 40q0 65 73.5 114.5t183.5 49.5q107 0 165 -41t58 -117q0 -75 -61.5 -126t-140.5 -62v-2q76 -8 123 -50.5t47 -116.5
q0 -104 -94.5 -174.5t-232.5 -70.5q-111 0 -170 38.5t-59 105.5q0 35 20 56t52 21q54 0 54 -65q0 -42 24.5 -67t77.5 -25q69 0 115.5 52t46.5 135q0 119 -151 119q-37 0 -48 5.5t-11 21.5z" />
    <glyph glyph-name="four" unicode="4" horiz-adv-x="640" 
d="M453 0h-194q-35 0 -35 24q0 23 33 30q31 6 41 28t22 108h-257q-23 0 -35 8.5t-12 19.5q0 37 59 131.5t154.5 202.5t183.5 171q32 23 73 23q38 0 53 -9.5t15 -31.5q0 -9 -13 -85l-32.5 -188t-29.5 -178h96q25 0 25 -23q0 -41 -43 -41h-88q-15 -101 -15 -107q0 -12 7 -19
t16 -8.5t16 -7.5t7 -17q0 -31 -47 -31zM105 254h226q36 240 79 386l-2 2q-184 -159 -303 -388z" />
    <glyph glyph-name="five" unicode="5" horiz-adv-x="640" 
d="M252 629l-50 -209l2 -2q28 25 73.5 38.5t87.5 13.5q89 0 151 -55t62 -144q0 -123 -92.5 -204t-231.5 -81q-95 0 -160.5 36.5t-65.5 92.5q0 39 24 63t59 24q27 0 45 -14.5t18 -34.5q0 -11 -7 -26t-7 -25q0 -23 26 -37.5t65 -14.5q77 0 125 70.5t48 154.5q0 58 -33 92.5
t-85 34.5q-33 0 -61.5 -12t-45 -26.5t-32.5 -26.5t-26 -12q-11 0 -20 8t-9 19q0 10 19 86l23 95.5t17 75.5t12 55l9 40t6.5 24.5t6.5 14t8 3.5q1 0 50 -7q65 -7 126 -7q5 0 20 1t41 3t44 3q81 7 96 7q22 0 22 -19q0 -39 -64 -73t-169 -34q-39 0 -127 9z" />
    <glyph glyph-name="six" unicode="6" horiz-adv-x="640" 
d="M40 220q0 96 39.5 190t106.5 170q70 80 168 123t203 43q57 0 57 -30q0 -15 -11.5 -23t-46.5 -11q-126 -10 -200.5 -80.5t-127.5 -199.5l2 -1q58 69 157 69q88 0 145.5 -51.5t57.5 -135.5q0 -130 -93 -213.5t-221 -83.5q-110 0 -173 62.5t-63 171.5zM188 161q0 -55 26 -83
t70 -28q70 0 114 71.5t44 170.5q0 57 -25 85.5t-69 28.5q-71 0 -115.5 -72.5t-44.5 -172.5z" />
    <glyph glyph-name="seven" unicode="7" horiz-adv-x="640" 
d="M511 624h-263q-30 0 -47 -12t-21.5 -26t-15 -26t-27.5 -12q-25 0 -25 25q0 8 2.5 29t8.5 52.5t20.5 54.5t34.5 23h432q32 0 32 -16q0 -13 -23 -49q-63 -99 -271 -526q-14 -28 -29 -63l-20.5 -47t-16.5 -25.5t-23.5 -16.5t-34.5 -3h-15q-60 0 -79.5 5.5t-19.5 19.5
q0 3 1 6.5t3.5 9.5t5.5 11l9.5 15.5l12.5 19.5t17 27l21 33l72 111l74.5 116.5t78.5 116.5z" />
    <glyph glyph-name="eight" unicode="8" horiz-adv-x="640" 
d="M18 150q0 81 61 137.5t145 85.5q-104 56 -104 154q0 68 51 120t118 75.5t132 23.5q93 0 154 -38.5t61 -105.5q0 -123 -181 -195q61 -36 93 -73.5t32 -96.5q0 -80 -50.5 -139.5t-121.5 -85.5t-149 -26q-106 0 -173.5 44t-67.5 120zM274 566q0 -24 14 -45.5t25 -31
t42.5 -29.5t35.5 -23q58 31 92.5 68t34.5 91q0 38 -29.5 62t-79.5 24q-59 0 -97 -33.5t-38 -82.5zM144 165q0 -52 33.5 -83.5t89.5 -31.5q75 0 120 39.5t45 98.5q0 29 -17 54t-36 38t-52 32t-46 28q-3 -2 -22.5 -16l-25 -18t-22 -17.5t-22.5 -20.5t-17 -21t-15.5 -25
t-8.5 -26t-4 -31z" />
    <glyph glyph-name="nine" unicode="9" horiz-adv-x="640" 
d="M618 512q0 -96 -39.5 -190t-106.5 -170q-70 -80 -168 -123t-203 -43q-57 0 -57 30q0 15 11.5 23t46.5 11q87 7 151.5 46t103.5 95t75 143l-2 2q-63 -68 -159 -68q-87 0 -145 51.5t-58 129.5q0 130 93 213.5t221 83.5q110 0 173 -62.5t63 -171.5zM470 571q0 55 -26 83
t-70 28q-70 0 -114 -70.5t-44 -165.5q0 -57 25 -85.5t69 -28.5q70 0 115 71.5t45 167.5z" />
    <glyph glyph-name="colon" unicode=":" horiz-adv-x="320" 
d="M35 45q0 34 28 58.5t62 24.5q29 0 48.5 -16.5t19.5 -42.5q0 -34 -28 -58.5t-62 -24.5q-29 0 -48.5 16.5t-19.5 42.5zM76 327q0 34 28 58.5t62 24.5q29 0 48.5 -16.5t19.5 -42.5q0 -34 -28 -58.5t-62 -24.5q-29 0 -48.5 16.5t-19.5 42.5z" />
    <glyph glyph-name="semicolon" unicode=";" horiz-adv-x="320" 
d="M30 43q0 32 28 54.5t64 22.5q33 0 54.5 -19t21.5 -51q0 -44 -36 -96t-75 -83t-55 -31q-7 0 -12.5 5t-5.5 12t10.5 15t31.5 27t39 48q16 24 16 37q0 6 -19 6q-25 0 -43.5 12.5t-18.5 40.5zM76 327q0 34 28 58.5t62 24.5q29 0 48.5 -16.5t19.5 -42.5q0 -34 -28 -58.5
t-62 -24.5q-29 0 -48.5 16.5t-19.5 42.5z" />
    <glyph glyph-name="less" unicode="&#x3c;" horiz-adv-x="600" 
d="M546 74v-90l-470 209v85l470 208v-91l-355 -160z" />
    <glyph glyph-name="equal" unicode="=" horiz-adv-x="600" 
d="M546 364v-94h-470v94h470zM546 200v-94h-470v94h470z" />
    <glyph glyph-name="greater" unicode="&#x3e;" horiz-adv-x="600" 
d="M76 -16v90l355 161l-355 160v91l470 -208v-85z" />
    <glyph glyph-name="question" unicode="?" horiz-adv-x="470" 
d="M113 551q-26 0 -40.5 12.5t-14.5 32.5q0 48 42.5 84t93.5 51t96 15q97 0 157.5 -44t60.5 -118q0 -77 -56 -138.5t-136 -96.5q-72 -32 -83 -41q-13 -16 -21 -74q-4 -28 -13.5 -39t-31.5 -11q-37 0 -37 29q0 8 3.5 27.5l9 49.5t8.5 53q3 21 19 30.5t54 27t74 49.5
q31 27 49.5 67.5t18.5 81.5q0 43 -27 68t-63 25q-35 0 -60 -18.5t-26 -45.5q-3 -77 -77 -77zM78 38q0 33 29.5 58.5t63.5 25.5q25 0 42 -14.5t17 -37.5q0 -33 -29.5 -58.5t-63.5 -25.5q-25 0 -42 14.5t-17 37.5z" />
    <glyph glyph-name="at" unicode="@" horiz-adv-x="800" 
d="M530 438q0 62 -40 62q-43 0 -89 -57.5t-46 -128.5q0 -88 55 -88q47 0 83.5 75t36.5 137zM557 546h90l-64 -273q-3 -15 -3 -26q0 -29 39 -29q46 0 80 65.5t34 136.5q0 101 -81 182.5t-214 81.5q-54 0 -105 -21t-93 -60.5t-67.5 -105.5t-25.5 -147q0 -127 87.5 -214.5
t214.5 -87.5q66 0 113 13t105 40l13 -54q-111 -61 -230 -61q-102 0 -184.5 35.5t-130.5 91.5t-73 117.5t-25 119.5q0 173 117.5 284.5t283.5 111.5q154 0 258.5 -93t104.5 -232q0 -104 -55 -182.5t-150 -78.5q-50 0 -71 19t-24 43h-2q-11 -17 -22 -28.5t-38.5 -22.5
t-64.5 -11q-48 0 -79.5 36.5t-31.5 99.5q0 43 13.5 88.5t39 86t68.5 66t95 25.5q51 0 72 -36z" />
    <glyph glyph-name="A" unicode="A" horiz-adv-x="750" 
d="M486 244h-304q-67 -122 -67 -156q0 -16 11.5 -24.5t22.5 -15.5t11 -18q0 -30 -45 -30h-126q-29 0 -29 23q0 16 10.5 23.5l27.5 20t28 35.5q82 172 176 334t168 256q43 54 76 54q46 0 63 -40q36 -85 66.5 -203.5t56 -245.5t31.5 -151q6 -25 15 -38.5t15.5 -16t11.5 -8.5
t5 -17q0 -26 -42 -26h-183q-33 0 -33 25q0 14 9 21t19 9t19 12t9 29q0 41 -22 148zM217 312h257q-46 205 -75 292q-144 -214 -182 -292z" />
    <glyph glyph-name="B" unicode="B" horiz-adv-x="730" 
d="M158 732h336q215 0 215 -141q0 -67 -59.5 -120.5t-126.5 -73.5v-2q70 -2 121 -44.5t51 -117.5q0 -103 -87 -168t-184 -65h-383q-37 0 -37 25q0 12 10 20.5t22 13.5t24 19t15 37q13 84 35.5 213.5l38 216t15.5 97.5q0 19 -24 32t-24 28q0 30 42 30zM303 604l-38 -218
q48 8 93 22t92 37.5t76 61t29 83.5q0 42 -31 60t-100 18q-70 0 -91.5 -10t-29.5 -54zM223 109q0 -23 18.5 -34t64.5 -11q115 0 175 47.5t60 124.5q0 40 -34.5 74.5t-83.5 47.5q-76 -25 -169 -38q-3 -19 -11.5 -67.5t-14 -86t-5.5 -57.5z" />
    <glyph glyph-name="C" unicode="C" horiz-adv-x="750" 
d="M40 305q0 119 64 221t169 161t223 59q85 0 170.5 -36.5t85.5 -73.5q0 -148 -53 -148q-13 0 -22 14t-13 35t-15 46t-27 46t-50 35t-82 14q-60 0 -110.5 -26.5t-82.5 -67.5t-55 -92.5t-32.5 -101t-9.5 -93.5q0 -115 56.5 -176t151.5 -61q53 0 101 20.5t75.5 45l50 45
t29.5 20.5q14 0 25 -10t11 -23q0 -20 -24 -48.5t-63.5 -56.5t-101.5 -47.5t-128 -19.5q-151 0 -247 85.5t-96 233.5z" />
    <glyph glyph-name="D" unicode="D" horiz-adv-x="810" 
d="M159 732h332q135 0 223.5 -79.5t88.5 -220.5q0 -184 -126.5 -308t-348.5 -124h-285q-39 0 -39 25q0 13 9.5 21t21.5 12t25 20.5t18 44.5q21 115 53.5 311.5t32.5 210.5q0 17 -24 30t-24 28q0 29 43 29zM301 578l-48 -286q-27 -158 -27 -184q0 -23 17.5 -33.5t65.5 -10.5
q106 0 185 53.5t117 137.5t38 185q0 114 -61.5 171t-177.5 57q-60 0 -79.5 -16.5t-29.5 -73.5z" />
    <glyph glyph-name="E" unicode="E" horiz-adv-x="680" 
d="M160 732h481q41 0 41 -30q0 -110 -39 -110q-11 0 -17.5 4.5t-14.5 16t-13 17.5q-36 38 -143 38q-71 0 -98 -5.5t-38 -20.5t-18 -57l-27 -159h174q32 0 51 9.5t29.5 19t21.5 9.5q10 0 16 -8t6 -19q0 -8 -1.5 -22.5t-6 -36.5t-15 -37t-25.5 -15q-10 0 -18.5 9t-25.5 18
t-46 9h-171q-1 -3 -12.5 -68.5t-17.5 -108t-6 -70.5q0 -29 15 -40t57 -11q120 0 165.5 10t76.5 36l17 15l15.5 14t14 9t17.5 4q10 0 17.5 -6t7.5 -15q0 -19 -19 -75t-39 -56h-532q-36 0 -36 24q0 14 9.5 21t22 11.5t25.5 24t19 53.5l69 403q15 90 15 102q0 18 -12.5 27
t-25 16t-12.5 20q0 30 46 30z" />
    <glyph glyph-name="F" unicode="F" horiz-adv-x="610" 
d="M80 134l67 403q15 95 15 102q0 18 -12.5 27t-25 16t-12.5 20q0 30 46 30h468q20 0 28 -14t8 -62q0 -68 -35 -68q-9 0 -14.5 5t-13 16.5t-15.5 18.5q-40 40 -152 40q-85 0 -105 -10t-27 -59l-33 -191h98q51 0 83 5t41.5 11t19 11t19.5 5q26 0 26 -29q0 -33 -10 -69.5
t-35 -36.5q-13 0 -22 9.5t-30.5 19.5t-65.5 10h-134l-24 -149q-15 -94 -15 -100q0 -15 7.5 -25t16.5 -13t16.5 -9.5t7.5 -17.5q0 -30 -44 -30h-182q-36 0 -36 24q0 14 9.5 21t22 11.5t25.5 24t19 53.5z" />
    <glyph glyph-name="G" unicode="G" horiz-adv-x="790" 
d="M516 380h234q24 0 24 -19q0 -7 -9 -34.5t-18 -82t-9 -126.5q0 -23 -54.5 -54t-136.5 -54.5t-150 -23.5q-155 0 -256 84.5t-101 233.5q0 184 132 313t324 129q102 0 190 -37t88 -79t-13 -83t-35 -41q-14 0 -23.5 12.5t-15 32t-18 41.5t-29.5 41.5t-53 32t-85 12.5
q-89 0 -160 -59t-106.5 -143t-35.5 -171q0 -101 57.5 -173t155.5 -72q187 0 187 207q0 25 -13 35t-46 10h-54q-29 0 -29 24q0 44 58 44z" />
    <glyph glyph-name="H" unicode="H" horiz-adv-x="850" 
d="M612 364h-352l-27 -169q-15 -94 -15 -100q0 -15 7.5 -25t16.5 -13t16.5 -9.5t7.5 -17.5q0 -30 -44 -30h-182q-36 0 -36 24q0 14 9.5 21t22 11.5t25.5 24t19 53.5l67 403q15 81 15 102q0 18 -12.5 27t-25 16t-12.5 20q0 30 46 30h188q34 0 34 -23q0 -14 -9.5 -21.5
t-22.5 -12t-26 -24t-19 -52.5l-31 -167h352l17 105q1 8 5.5 30t7 40.5t2.5 31.5q0 18 -12.5 27t-25 16t-12.5 20q0 30 46 30h188q34 0 34 -23q0 -14 -9.5 -21.5t-22.5 -12t-26 -24t-19 -52.5l-70 -404q-15 -94 -15 -100q0 -15 7.5 -25t16.5 -13t16.5 -9.5t7.5 -17.5
q0 -30 -44 -30h-182q-36 0 -36 24q0 14 9.5 21t22 11.5t25.5 24t19 53.5z" />
    <glyph glyph-name="I" unicode="I" horiz-adv-x="350" 
d="M158 732h188q34 0 34 -23q0 -14 -9.5 -21.5t-22.5 -12t-26 -24t-19 -52.5l-70 -404q-15 -94 -15 -100q0 -15 7.5 -25t16.5 -13t16.5 -9.5t7.5 -17.5q0 -30 -44 -30h-182q-36 0 -36 24q0 14 9.5 21t22 11.5t25.5 24t19 53.5l67 403q15 81 15 102q0 18 -12.5 27t-25 16
t-12.5 20q0 30 46 30z" />
    <glyph glyph-name="J" unicode="J" horiz-adv-x="550" 
d="M357 732h188q35 0 35 -23q0 -14 -9.5 -22t-21.5 -12.5t-25 -22t-18 -47.5l-70 -426q-14 -85 -78.5 -139t-181.5 -54q-84 0 -141 35t-57 104q0 65 44.5 112t108.5 47q29 0 44 -12.5t15 -32.5q0 -27 -13 -37t-37 -14q-23 -3 -37.5 -20t-14.5 -42q0 -35 22 -53.5t56 -18.5
q28 0 49 10t34.5 25.5t24 46t17 60.5t14.5 80l25.5 148.5l24.5 141.5t9 73q0 22 -25 35t-25 28q0 30 43 30z" />
    <glyph glyph-name="K" unicode="K" horiz-adv-x="740" 
d="M158 732h181q35 0 35 -25q0 -14 -10 -22t-22.5 -13t-25 -22t-17.5 -45l-40 -241q55 31 189 144t134 144q0 12 -19 23t-19 26q0 31 48 31h140q42 0 42 -28q0 -15 -12.5 -25t-31.5 -18t-27 -15q-7 -6 -44.5 -42l-89.5 -83.5l-100 -88.5q128 -179 171 -324q6 -21 16 -33.5
t17.5 -15.5t13 -9.5t5.5 -17.5q0 -32 -44 -32h-169q-33 0 -33 25q0 17 22 30.5t22 28.5q0 35 -52.5 136t-81.5 131l-112 -76q-3 -22 -11 -66.5t-12.5 -74t-4.5 -43.5q0 -21 24 -33.5t24 -27.5q0 -30 -48 -30h-176q-36 0 -36 24q0 14 9.5 21t22 11.5t25.5 24t19 53.5l67 403
q15 81 15 102q0 18 -12.5 27t-25 16t-12.5 20q0 30 46 30z" />
    <glyph glyph-name="L" unicode="L" horiz-adv-x="650" 
d="M80 134l67 403q15 81 15 102q0 18 -12.5 27t-25 16t-12.5 20q0 30 46 30h196q32 0 32 -24q0 -18 -10.5 -26.5t-24 -11.5t-27 -17.5t-18.5 -42.5q-78 -459 -78 -501q0 -30 20.5 -37.5t100.5 -7.5q123 0 185 46q11 8 24 21t22 19t19 6q11 0 19 -7t8 -16q0 -14 -23 -73.5
t-43 -59.5h-520q-36 0 -36 24q0 14 9.5 21t22 11.5t25.5 24t19 53.5z" />
    <glyph glyph-name="M" unicode="M" horiz-adv-x="920" 
d="M749 732h170q29 0 29 -26q0 -16 -10.5 -24t-23 -10.5t-26 -14t-17.5 -33.5q-27 -135 -58 -320.5t-31 -204.5q0 -23 11.5 -33t23 -16t11.5 -18q0 -14 -10 -23t-29 -9h-192q-29 0 -29 24q0 14 9 22.5t20 12.5t23.5 21t17.5 46l95 502l-2 2l-287 -507q-10 -18 -19.5 -25
t-28.5 -7q-25 0 -34.5 12.5t-21.5 62.5l-110 458h-2l-63 -454q-7 -54 -7 -72q0 -22 11 -31.5t22 -16t11 -20.5q0 -30 -39 -30h-132q-27 0 -27 22q0 15 9.5 22.5t22 10.5t26 23t19.5 58q79 479 79 503q0 14 -8 22.5t-17.5 11.5t-17.5 10.5t-8 20.5q0 12 8 20t21 8h171
q21 0 30.5 -6t13.5 -25l102 -429l237 416q16 28 26.5 36t30.5 8z" />
    <glyph glyph-name="N" unicode="N" horiz-adv-x="790" 
d="M166 732h122q19 0 30 -11t35 -52l253 -447h2q8 61 24 160.5l26 165t10 87.5q0 23 -23 38.5t-23 28.5t10 21.5t24 8.5h130q26 0 26 -23q0 -11 -5.5 -17.5t-14.5 -11.5t-18.5 -12.5t-18.5 -25t-13 -44.5l-88 -546q-6 -34 -17 -45t-47 -11q-19 0 -31 8t-18 18.5t-20 41.5
q-39 85 -90.5 180l-114 202t-84.5 148h-2q-7 -62 -25.5 -182l-32.5 -211t-14 -108q0 -12 8.5 -20.5t19 -12t19 -12t8.5 -21.5q0 -11 -11.5 -19t-30.5 -8h-137q-30 0 -30 28q0 13 10.5 20t24 11t28 26t20.5 61q9 61 30 176t33 194t12 120q0 15 -9 24.5t-19 13t-19 11t-9 19.5
q0 28 60 28z" />
    <glyph glyph-name="O" unicode="O" horiz-adv-x="820" 
d="M40 306q0 184 125.5 312t304.5 128q148 0 243 -86t95 -234q0 -184 -125.5 -312t-304.5 -128q-148 0 -243 86t-95 234zM194 284q0 -102 45 -166t139 -64q69 0 124 38.5t87 99.5t48.5 127t16.5 129q0 102 -45 166t-139 64q-69 0 -124 -38.5t-87 -99.5t-48.5 -127
t-16.5 -129z" />
    <glyph glyph-name="P" unicode="P" horiz-adv-x="680" 
d="M153 732h323q106 0 171 -41t65 -129q0 -52 -31 -101.5t-88 -90t-147.5 -64.5t-199.5 -22l-10 -64t-11.5 -76.5t-4.5 -48.5q0 -24 23.5 -37.5t23.5 -27.5q0 -30 -41 -30h-183q-39 0 -39 24q0 14 9.5 21.5t21.5 12t25 22.5t18 49l43 254q40 237 40 254q0 15 -7.5 25
t-16.5 13t-16.5 9.5t-7.5 17.5q0 30 40 30zM294 583l-38 -235q121 0 211.5 59.5t90.5 145.5q0 60 -42 87.5t-111 27.5q-59 0 -81 -17t-30 -68z" />
    <glyph glyph-name="Q" unicode="Q" horiz-adv-x="830" 
d="M40 306q0 184 125.5 312t304.5 128q148 0 243 -86t95 -234q0 -155 -92 -273.5t-236 -153.5q48 -53 133 -53q10 0 28 2t27 2q19 0 32 -11t13 -30q0 -32 -29.5 -46.5t-65.5 -14.5q-72 0 -133 36t-93 103q-5 -1 -14 -1q-148 0 -243 86t-95 234zM194 284q0 -98 42 -161.5
t130 -67.5q-6 40 -6 64q0 83 46 83q26 0 26 -26q0 -8 -2 -24t-2 -24q0 -27 9 -65q71 19 122.5 86.5t73 145t21.5 153.5q0 102 -45 166t-139 64q-69 0 -124 -38.5t-87 -99.5t-48.5 -127t-16.5 -129z" />
    <glyph glyph-name="R" unicode="R" horiz-adv-x="740" 
d="M229 0h-194q-31 0 -31 24q0 14 10 22t22.5 12.5t25.5 22.5t18 48q7 44 29 172.5l37.5 224t15.5 112.5q0 18 -12 27.5t-23.5 16t-11.5 19.5q0 31 52 31h356q112 0 159.5 -35.5t47.5 -106.5q0 -78 -60.5 -136.5t-141.5 -82.5q45 -77 63 -123t36 -126q7 -31 17.5 -48t19 -20
t14.5 -8t6 -17q0 -29 -39 -29h-196q-31 0 -31 23q0 13 9 21t20 11t20 13.5t9 27.5q0 98 -89 238q-42 -15 -135 -24q-3 -21 -12 -72l-15.5 -91t-6.5 -56q0 -14 7.5 -23t16.5 -12t16.5 -10t7.5 -17q0 -29 -37 -29zM298 582l-34 -204q312 39 312 196q0 94 -152 94
q-67 0 -92.5 -17.5t-33.5 -68.5z" />
    <glyph glyph-name="S" unicode="S" horiz-adv-x="650" 
d="M4 162q0 37 20 59t49 22q32 0 45 -19.5t16.5 -47.5t12 -55.5t43.5 -47t99 -19.5q79 0 126 40.5t47 97.5q0 41 -38.5 68.5t-93 45.5t-109 39t-93 63.5t-38.5 105.5q0 71 45.5 125.5t110.5 80.5t135 26q91 0 169 -29.5t78 -60.5v-42q0 -92 -42 -92q-18 0 -26.5 16.5t-14 40
t-17.5 47t-46.5 40t-91.5 16.5q-61 0 -103.5 -34t-42.5 -79q0 -44 38.5 -74t93 -49t109 -40t93 -61t38.5 -99q0 -82 -50.5 -143t-123 -89t-152.5 -28q-41 0 -87 9.5t-92.5 29t-76.5 55.5t-30 82z" />
    <glyph glyph-name="T" unicode="T" horiz-adv-x="660" 
d="M104 732h572q21 0 26.5 -15.5t5.5 -84.5q0 -48 -36 -48q-11 0 -18 4.5t-17.5 18.5l-14.5 19q-38 42 -123 42q-24 0 -33 -7.5t-14 -29.5q-21 -97 -52.5 -300.5t-31.5 -235.5q0 -14 7.5 -23.5t16.5 -13.5t16.5 -11t7.5 -17q0 -30 -44 -30h-182q-40 0 -40 26q0 12 10.5 20
t23 13.5t25.5 22t17 42.5q5 32 29 172.5l39.5 238.5t15.5 114q0 19 -29 19q-91 0 -145 -46q-8 -7 -17 -16.5l-14.5 -15t-13 -10t-14.5 -4.5q-27 0 -27 26q0 19 21.5 74.5t32.5 55.5z" />
    <glyph glyph-name="U" unicode="U" horiz-adv-x="780" 
d="M152 732h170q44 0 44 -25q0 -15 -8 -23t-18 -11t-22 -13t-18 -28q-24 -68 -55 -219.5t-31 -211.5q0 -70 45.5 -108.5t121.5 -38.5q128 0 193 117q33 59 52.5 225.5t19.5 232.5q0 19 -8 31t-17 16t-17 10.5t-8 16.5q0 29 38 29h131q35 0 35 -25q0 -15 -9 -21.5t-21 -9
t-24 -22t-16 -56.5q-6 -48 -14.5 -126t-13.5 -118t-13.5 -89.5t-19 -80.5t-25.5 -51q-56 -76 -123.5 -111.5t-164.5 -35.5q-148 0 -219 58t-71 157q0 69 40 245t40 196t-20 32.5t-20 27.5q0 30 46 30z" />
    <glyph glyph-name="V" unicode="V" horiz-adv-x="710" 
d="M89 732h185q43 0 43 -24q0 -16 -11 -25t-23.5 -12t-23.5 -16t-11 -37q0 -105 35 -257t79 -239q112 173 185 321.5t73 185.5q0 15 -9 25t-19.5 13.5t-19.5 11t-9 19.5q0 15 12 24.5t31 9.5h130q38 0 38 -30q0 -12 -5.5 -18t-14 -10.5t-23 -22t-28.5 -47.5
q-179 -377 -288 -527q-43 -60 -62.5 -75.5t-44.5 -15.5q-22 0 -33.5 5.5t-21.5 23.5q-47 86 -87.5 247.5t-64.5 339.5q-4 30 -13 47t-17 21t-14.5 10.5t-6.5 17.5q0 34 39 34z" />
    <glyph glyph-name="W" unicode="W" horiz-adv-x="1000" 
d="M92 732h195q36 0 36 -27q0 -14 -11 -22t-24.5 -11.5t-24.5 -19t-11 -42.5q0 -115 6.5 -204t13.5 -136t23 -130q60 87 133.5 253.5t73.5 242.5q0 25 -20 37.5t-20 24.5q0 17 8 25.5t30 8.5h169q38 0 38 -26q0 -16 -11 -24t-24.5 -11t-24.5 -22.5t-11 -57.5q0 -23 4.5 -88
t22 -177t43.5 -184q66 99 138 271.5t72 225.5q0 15 -8 24.5t-18 12t-18 9t-8 17.5q0 30 46 30h121q31 0 31 -24q0 -11 -9.5 -18.5t-25 -21t-25.5 -33.5q-8 -17 -46.5 -118.5t-89 -217.5t-97.5 -196q-45 -76 -63.5 -96.5t-51.5 -20.5q-32 0 -44.5 13.5t-24.5 49.5
q-59 179 -73 374h-2q-7 -14 -54 -115.5t-90 -181.5t-77 -118q-12 -13 -21.5 -17.5t-29.5 -4.5q-30 0 -42 11t-23 50q-59 200 -63 521q-1 47 -8.5 72.5t-16 30t-15.5 11t-7 20.5q0 30 29 30z" />
    <glyph glyph-name="X" unicode="X" horiz-adv-x="740" 
d="M118 732h175q40 0 40 -27q0 -16 -21 -25t-21 -24q0 -32 43 -105t72 -104q164 170 164 205q0 16 -20.5 27t-20.5 25q0 28 40 28h142q43 0 43 -24q0 -17 -28 -30q-22 -11 -59 -49.5l-101 -110t-119 -126.5q54 -62 99 -138t69.5 -128t30.5 -59q6 -6 17 -10t17 -10.5t6 -22.5
q0 -13 -6.5 -18.5t-23.5 -5.5h-189q-45 0 -45 24q0 17 22 29.5t22 27.5q0 32 -47.5 105.5t-88.5 125.5l-61 -67t-75 -92.5t-42 -73.5q0 -13 18 -25t18 -26q0 -28 -44 -28h-149q-37 0 -37 25q0 5 2 9.5t4 7.5t7.5 7t8 5t10 5t9.5 5q32 17 71 60l100.5 115.5t116.5 127.5
q-59 79 -97 153l-55.5 109t-42.5 49q-18 10 -18 23q0 31 44 31z" />
    <glyph glyph-name="Y" unicode="Y" horiz-adv-x="740" 
d="M110 732h180q42 0 42 -25q0 -12 -9 -20t-19 -11.5t-19 -12.5t-9 -23q0 -32 49 -124t88 -154q80 79 154 169.5t74 118.5q0 16 -21.5 27.5t-21.5 25.5q0 29 45 29h123q36 0 36 -24q0 -3 -0.5 -6t-1.5 -5t-3 -5t-3.5 -4.5t-5 -4.5t-5.5 -4.5l-6.5 -5t-6.5 -5.5
q-12 -10 -52 -58l-115.5 -136l-152.5 -171q-5 -34 -14 -87t-13 -81t-4 -43t9 -24t20.5 -11.5t20.5 -9t9 -18.5q0 -13 -9 -21t-24 -8h-206q-53 0 -53 25q0 16 7.5 23.5t18.5 10.5t23 8t23 21.5t16 46.5l26 156q-62 90 -106 182l-65 139t-44 60q-8 4 -11 6.5l-7 6t-5.5 8
t-1.5 11.5q0 28 50 28z" />
    <glyph glyph-name="Z" unicode="Z" horiz-adv-x="600" 
d="M144 64h109q150 0 217 47q12 8 26 21t23 19t20 6q22 0 22 -21q0 -8 -4 -27.5t-11.5 -45t-22.5 -44.5t-34 -19h-465q-54 0 -54 34q0 32 55.5 106.5t128 153.5l168.5 188t153 186h-130q-57 0 -100 -13.5t-61.5 -30l-34.5 -30t-27 -13.5q-23 0 -23 23q0 32 16.5 80t37.5 48
h467q28 0 28 -25q0 -38 -53.5 -113.5t-124.5 -152.5l-168.5 -187.5t-157.5 -189.5z" />
    <glyph glyph-name="bracketleft" unicode="[" horiz-adv-x="280" 
d="M161 -168h-154q-27 0 -27 26q0 7 8 61l130 776q3 21 12 29t30 8h154q30 0 30 -23q0 -16 -18.5 -25t-41.5 -13.5t-45 -22t-27 -48.5l-38 -229l-48.5 -293t-19.5 -127q0 -26 15.5 -40t34.5 -17t34.5 -10t15.5 -21q0 -31 -45 -31z" />
    <glyph glyph-name="backslash" unicode="\" horiz-adv-x="280" 
d="M35 729l325 -699q10 -22 10 -31q0 -13 -35 -13q-37 0 -47 3t-17 18l-325 697q-11 22 -11 28q0 9 7.5 11.5t38.5 2.5q29 0 39 -3t15 -14z" />
    <glyph glyph-name="bracketright" unicode="]" horiz-adv-x="280" 
d="M135 732h154q27 0 27 -26q0 -7 -8 -61l-130 -776q-3 -21 -12 -29t-30 -8h-154q-30 0 -30 23q0 16 18.5 25t41.5 13.5t45 22t27 48.5l38 229l48.5 293t19.5 127q0 26 -15.5 40t-34.5 17t-34.5 10t-15.5 21q0 31 45 31z" />
    <glyph glyph-name="asciicircum" unicode="^" horiz-adv-x="600" 
d="M192 367h-94l180 365h72l180 -365h-95l-121 257z" />
    <glyph glyph-name="underscore" unicode="_" horiz-adv-x="500" 
d="M500 -125h-500v50h500v-50z" />
    <glyph glyph-name="grave" unicode="`" 
d="M116 696h79q22 0 29 -20l38 -104q10 -26 10 -31q0 -13 -24 -13q-15 0 -42 28l-92 95q-22 22 -22 30q0 15 24 15z" />
    <glyph glyph-name="a" unicode="a" horiz-adv-x="580" 
d="M32 179q0 115 84 208t198 93q79 0 116 -58q55 58 88 58q11 0 17.5 -8t6.5 -18q0 -3 -14.5 -67t-29 -143t-14.5 -118q0 -19 9.5 -28t20.5 -10t20.5 -7t9.5 -19q0 -18 -59.5 -45t-81.5 -27q-35 0 -35 47q0 1 6 79l-2 2q-27 -58 -70.5 -93t-102.5 -35q-79 0 -123 54.5
t-44 134.5zM164 172q0 -41 18.5 -74.5t56.5 -33.5q48 0 84.5 53t51.5 112.5t15 103.5q0 37 -18.5 60t-54.5 23q-46 0 -83 -46t-53.5 -100.5t-16.5 -97.5z" />
    <glyph glyph-name="b" unicode="b" horiz-adv-x="590" 
d="M560 286q0 -118 -87 -207t-204 -89q-83 0 -125 57q-17 -19 -42.5 -38t-43.5 -19q-12 0 -20 8.5t-8 19.5q0 7 6.5 40.5l15 76.5t11.5 61q10 60 30.5 173t31.5 178.5t11 79.5q0 18 -20 31t-20 26q0 22 66 46t87 24q29 0 29 -32q0 -18 -10.5 -76l-25.5 -136t-21 -113l2 -2
q61 85 159 85q82 0 130 -55t48 -139zM184 152q0 -44 21 -71t63 -27q47 0 84 42t53.5 94.5t16.5 97.5q0 49 -20 83.5t-65 34.5q-62 0 -107.5 -78.5t-45.5 -175.5z" />
    <glyph glyph-name="c" unicode="c" horiz-adv-x="500" 
d="M22 181q0 119 89.5 209t208.5 90q66 0 114 -29.5t48 -70.5q0 -23 -18 -39.5t-42 -16.5t-37 14.5t-17.5 31.5t-18.5 31.5t-39 14.5q-56 0 -103 -75.5t-47 -160.5q0 -53 26.5 -84.5t78.5 -31.5q38 0 73 18.5t58.5 37t32.5 18.5q10 0 17.5 -6.5t7.5 -16.5q0 -41 -77 -83
t-151 -42q-86 0 -145 53t-59 138z" />
    <glyph glyph-name="d" unicode="d" horiz-adv-x="630" 
d="M32 179q0 110 84 205.5t192 95.5q95 0 129 -75h2l17 104t12.5 76.5t3.5 31.5q0 18 -8 28t-17 13t-17 9t-8 15q0 28 66 50t98 22q28 0 28 -29q0 -19 -46 -277l-20 -108l-17 -91.5t-9 -59.5t-4 -55t10.5 -32.5t22.5 -11.5t22.5 -6.5t10.5 -19.5q0 -19 -65.5 -46.5
t-86.5 -27.5q-30 0 -30 49q0 5 1.5 19.5l4 39l4.5 44.5l-2 2q-29 -70 -79.5 -112t-121.5 -42q-76 0 -126.5 56t-50.5 133zM170 185q0 -46 22 -83.5t65 -37.5q37 0 68 28.5t48.5 70t27 83.5t9.5 74q0 96 -79 96q-48 0 -86.5 -41t-56.5 -93t-18 -97z" />
    <glyph glyph-name="e" unicode="e" horiz-adv-x="540" 
d="M22 186q0 80 48 149t122 107t153 38q84 0 130.5 -33t46.5 -79q0 -135 -336 -181q-5 0 -13.5 -1t-12.5 -2q-2 -59 31.5 -89.5t95.5 -30.5q40 0 80.5 18.5t68 37t37.5 18.5t17.5 -6.5t7.5 -16.5q0 -24 -41.5 -54t-102.5 -50.5t-112 -20.5q-95 0 -157.5 52t-62.5 144z
M336 416q-58 0 -111 -54.5t-63 -113.5q27 0 64.5 7.5t76.5 21t66 38t27 53.5q0 23 -16 35.5t-44 12.5z" />
    <glyph glyph-name="f" unicode="f" horiz-adv-x="390" 
d="M114 470h44q8 38 14 63t18 62.5t27.5 62t36.5 48.5t51 36t67 12q33 0 62.5 -16.5t29.5 -47.5q0 -21 -14.5 -35.5t-35.5 -14.5q-19 0 -34.5 20t-24.5 20q-13 0 -24.5 -19t-19.5 -49t-13 -57.5t-9 -54.5t-5 -30h72q28 0 28 -30q0 -38 -49 -38h-61l-15.5 -106.5t-21.5 -136
t-27.5 -119t-41.5 -112.5q-29 -56 -74.5 -93t-102.5 -37q-34 0 -54.5 14.5t-20.5 35.5q0 23 15.5 39.5t37.5 16.5q24 0 37.5 -16t23.5 -16q36 0 71 213q14 84 47 317h-46q-29 0 -29 26q0 23 9.5 32.5t31.5 9.5z" />
    <glyph glyph-name="g" unicode="g" horiz-adv-x="560" 
d="M459 470h72q30 0 30 -30q0 -22 -15.5 -33t-40.5 -11q-35 0 -45 4l-2 -2q46 -38 46 -116q0 -65 -40 -129.5t-100 -88.5v-2q42 -5 76 -32.5t34 -67.5q0 -75 -79 -119.5t-207 -44.5q-100 0 -157 23t-57 58q0 34 31.5 61t65.5 27q41 0 41 -18q0 -4 -6 -15.5t-6 -17.5
q0 -17 27.5 -30.5t77.5 -13.5q64 0 106.5 23.5t42.5 63.5q0 36 -31.5 52.5t-51.5 16.5q-2 0 -20.5 -4t-36.5 -4q-82 0 -135 48t-53 129q0 116 81.5 199.5t200.5 83.5q26 0 76 -5t75 -5zM294 426q-46 0 -80.5 -44t-48 -95t-13.5 -95q0 -47 20 -77.5t64 -30.5q45 0 79 44
t48.5 95.5t14.5 93.5t-22 75.5t-62 33.5z" />
    <glyph glyph-name="h" unicode="h" horiz-adv-x="630" 
d="M143 0h-80q-21 0 -21 18q0 9 54 288t54 319q0 14 -7 22.5t-16 10.5t-16 8t-7 17q0 22 70 46.5t94 24.5q10 0 17 -7.5t7 -20.5q0 -14 -65 -373l2 -2q72 129 187 129q58 0 98 -32.5t40 -89.5q0 -36 -18 -128.5t-18 -110.5q0 -16 8.5 -24t18.5 -9t18.5 -5.5t8.5 -14.5
q0 -25 -68.5 -50.5t-96.5 -25.5q-31 0 -31 50q0 42 23 154.5t23 143.5q0 33 -16.5 50.5t-40.5 17.5q-67 0 -114 -97.5t-72 -267.5q-4 -25 -11 -33t-25 -8z" />
    <glyph glyph-name="i" unicode="i" 
d="M56 402q0 24 69.5 51t87.5 27q35 0 35 -43q0 -23 -28 -165.5t-28 -158.5q0 -13 9 -19t19 -7.5t19 -8t9 -19.5q0 -20 -66.5 -44.5t-88.5 -24.5q-37 0 -37 46q0 28 25 155t25 157q0 14 -8 21t-17 8.5t-17 7t-8 17.5zM120 598q0 33 27 57.5t63 24.5q27 0 47.5 -16.5
t20.5 -45.5q0 -33 -27 -57.5t-63 -24.5q-27 0 -47.5 16.5t-20.5 45.5z" />
    <glyph glyph-name="j" unicode="j" horiz-adv-x="300" 
d="M130 338q0 18 -8.5 27t-18.5 9.5t-18.5 5.5t-8.5 16q0 24 68.5 54t96.5 30q12 0 21.5 -11t9.5 -28q0 -18 -9 -74.5l-25.5 -154l-23.5 -137.5q-46 -277 -223 -277q-39 0 -60 13.5t-21 37.5q0 21 17 37t39 16q21 0 34 -15q17 -15 23 -15q15 0 28.5 33.5t22 75.5t17.5 96
q2 14 3 20q36 213 36 241zM144 598q0 33 27 57.5t63 24.5q27 0 47.5 -16.5t20.5 -45.5q0 -33 -27 -57.5t-63 -24.5q-27 0 -47.5 16.5t-20.5 45.5z" />
    <glyph glyph-name="k" unicode="k" horiz-adv-x="580" 
d="M136 0h-70q-24 0 -24 17t53 304t53 305q0 15 -6.5 22.5t-14.5 9t-14.5 6t-6.5 13.5q0 20 72.5 48.5t88.5 28.5q23 0 23 -32q0 -25 -15 -95l-71 -359l2 -2q47 71 137.5 142.5t160.5 71.5q30 0 47 -15t17 -39q0 -23 -17.5 -39.5t-44.5 -16.5q-20 0 -41.5 12t-26.5 12
q-25 0 -84 -51q8 -19 30 -94t44.5 -121t50.5 -46h24q29 0 29 -26q0 -22 -54 -44t-79 -22q-18 0 -34 11.5t-29 32t-23.5 43t-20 52t-15 50l-12 46.5t-8.5 33q-70 -78 -89 -228q-2 -18 -9 -24t-23 -6z" />
    <glyph glyph-name="l" unicode="l" horiz-adv-x="330" 
d="M56 28q0 17 52 290t52 302q0 25 -23 35.5t-23 28.5t68 44t93 26q27 0 27 -30q0 -11 -52 -287t-52 -309q0 -19 8 -28.5t17 -11t17 -6.5t8 -16q0 -23 -72 -49.5t-93 -26.5q-27 0 -27 38z" />
    <glyph glyph-name="m" unicode="m" horiz-adv-x="930" 
d="M154 0h-80q-24 0 -24 21q0 7 27 142.5t27 182.5q0 15 -7.5 23.5t-16.5 10.5t-16.5 7t-7.5 13q0 23 57.5 51.5t85.5 28.5q15 0 24 -18.5t9 -47.5q0 -15 -2 -31t-5.5 -32.5t-4.5 -23.5h3q26 62 74.5 107.5t112.5 45.5q51 0 87.5 -31t36.5 -80q0 -17 -6 -39l2 -2
q24 58 76 105t112 47q54 0 93 -33.5t39 -86.5q0 -33 -21 -126t-21 -118q0 -13 8.5 -20.5t18.5 -9t18.5 -6.5t8.5 -15q0 -23 -70 -49t-98 -26t-28 40q0 38 26 169.5t26 141.5q0 27 -13.5 43t-33.5 16q-43 0 -78 -43t-56 -111t-32 -117t-17 -94q-3 -21 -12 -28t-30 -7h-66
q-24 0 -24 19q0 14 28 141t28 176q0 28 -14.5 46t-36.5 18q-27 0 -51 -17.5t-42 -50.5t-31 -64.5t-23.5 -77.5l-15.5 -69.5t-11 -59.5q-2 -12 -3 -17q-8 -44 -30 -44z" />
    <glyph glyph-name="n" unicode="n" horiz-adv-x="640" 
d="M143 0h-64q-29 0 -29 17q0 4 28 145t28 179q0 18 -8 27.5t-18 11.5t-18 8t-8 18q0 16 63.5 45t80.5 29q14 0 24 -15.5t10 -48.5q0 -30 -12 -86l2 -2q32 66 83 109t118 43q56 0 96.5 -33.5t40.5 -88.5q0 -36 -20 -129t-20 -109q0 -17 8.5 -25.5t18.5 -9t18.5 -5.5t8.5 -15
q0 -24 -65.5 -49.5t-95.5 -25.5q-35 0 -35 46q0 28 25 147.5t25 149.5q0 67 -58 67q-127 0 -185 -356q-1 -8 -2 -11q-4 -22 -11 -27.5t-29 -5.5z" />
    <glyph glyph-name="o" unicode="o" horiz-adv-x="600" 
d="M22 201q0 116 92.5 197.5t213.5 81.5q103 0 172.5 -57.5t69.5 -153.5q0 -116 -92.5 -197.5t-213.5 -81.5q-103 0 -172.5 57.5t-69.5 153.5zM160 178q0 -54 26.5 -89t78.5 -35q55 0 95 41.5t56 93.5t16 103q0 54 -26.5 89t-78.5 35q-55 0 -95 -41.5t-56 -93.5t-16 -103z
" />
    <glyph glyph-name="p" unicode="p" horiz-adv-x="620" 
d="M155 -194h-138q-45 0 -45 27q0 15 8.5 23t19.5 12.5t24 28t20 65.5q4 25 17 96t20 114t14 93t7 72q0 18 -8.5 27.5t-18 11.5t-18 8.5t-8.5 19.5q0 17 66.5 46.5t87.5 29.5q31 0 31 -50q0 -31 -14 -91l2 -2q36 69 79 106t111 37q83 0 130.5 -53t47.5 -137q0 -114 -87 -207
t-199 -93q-41 0 -65.5 12.5t-24.5 34.5q0 14 7 24t16 10q4 0 19 -3.5t26 -3.5q71 1 120.5 75.5t49.5 148.5q0 46 -21 78t-64 32q-111 0 -164 -250q-3 -14 -7 -37q-3 -13 -4 -19q-30 -150 -30 -195q0 -20 17.5 -34t17.5 -27q0 -30 -42 -30z" />
    <glyph glyph-name="q" unicode="q" horiz-adv-x="600" 
d="M461 -194h-149q-35 0 -35 28q0 17 10 25t23 12t28 27.5t22 66.5l26 150l-2 2q-24 -60 -69 -93.5t-108 -33.5q-75 0 -125 53t-50 129q0 120 85.5 214t208.5 94q94 0 134 -58q17 21 42.5 39.5t47.5 18.5q28 0 28 -22q0 -9 -9 -50.5l-21.5 -98.5t-18.5 -91l-27 -147.5
t-21.5 -118t-6.5 -55.5q0 -18 17 -30t17 -25q0 -36 -47 -36zM170 178q0 -54 22.5 -84t63.5 -30q49 0 88 49.5t55.5 107.5t16.5 105q0 41 -21 65.5t-62 24.5q-50 0 -89 -42.5t-56.5 -95.5t-17.5 -100z" />
    <glyph glyph-name="r" unicode="r" horiz-adv-x="430" 
d="M157 0h-76q-21 0 -21 22q0 11 24 137.5t24 168.5q0 22 -8 34.5t-18 15t-18 9t-8 17.5q0 23 59.5 49.5t79.5 26.5q39 0 39 -69q0 -44 -10 -92l2 -2q19 66 61.5 114.5t102.5 48.5q54 0 54 -60q0 -40 -15.5 -61t-39.5 -21q-19 0 -35.5 19t-29.5 19q-78 0 -138 -352
q-4 -24 -29 -24z" />
    <glyph glyph-name="s" unicode="s" horiz-adv-x="470" 
d="M5 107q0 21 16 36t36 15q23 0 35 -10.5t16.5 -26t10.5 -31t24 -26t49 -10.5q41 0 68.5 17t27.5 52q0 23 -23.5 39t-57 28t-67 26.5t-57 42.5t-23.5 67q0 72 64.5 113t141.5 41q74 0 123.5 -32t49.5 -71q0 -19 -14 -32t-34 -13t-31 9.5t-16 23.5t-11 28t-21.5 23.5
t-42.5 9.5q-30 0 -53.5 -19t-23.5 -48q0 -24 24 -41t58.5 -28.5t69 -26t58.5 -43t24 -68.5q0 -67 -64.5 -114.5t-156.5 -47.5q-76 0 -138 32.5t-62 84.5z" />
    <glyph glyph-name="t" unicode="t" horiz-adv-x="390" 
d="M263 470h57q50 0 50 -31q0 -37 -40 -37h-80l-18.5 -110l-20 -118t-7.5 -54q0 -28 22 -28q17 0 47.5 15.5t37.5 15.5q25 0 25 -35q0 -24 -103 -61t-136 -37q-15 0 -25 13t-10 31q0 11 12 79.5l28 158t22 130.5h-48q-24 0 -24 23q0 40 56 43q29 1 46.5 19t25.5 43
l15.5 49.5t22 41.5t38.5 17q32 0 32 -24q0 -12 -25 -144z" />
    <glyph glyph-name="u" unicode="u" horiz-adv-x="630" 
d="M468 470h82q16 0 16 -14t-26 -153t-26 -169q0 -18 9 -28t20 -12.5t20 -9t9 -17.5q0 -13 -65.5 -45t-81.5 -32q-37 0 -37 71q0 50 6 72l-2 2q-30 -63 -79 -104t-112 -41q-56 0 -96.5 33.5t-40.5 88.5q0 34 19 126t19 110q0 16 -8 24t-17 9.5t-17 6.5t-8 14q0 24 68 51
t92 27q32 0 32 -52q0 -25 -24 -147t-24 -152q0 -26 16 -42.5t41 -16.5q43 0 78.5 43.5t56 107.5t32 118.5t14.5 95.5q3 35 34 35z" />
    <glyph glyph-name="v" unicode="v" horiz-adv-x="530" 
d="M62 112q0 33 19 124t19 116q0 15 -7.5 22.5t-16.5 8.5t-16.5 6t-7.5 16q0 23 65.5 49t90.5 26q34 0 34 -40q0 -34 -24 -155t-24 -159q0 -28 17 -45t43 -17q48 0 88.5 41t60 94t19.5 100q0 33 -32 58.5t-32 56.5q0 27 19 46.5t43 19.5q35 0 55.5 -33.5t20.5 -92.5
q0 -83 -32 -164.5t-99.5 -140.5t-153.5 -59q-67 0 -108 33t-41 89z" />
    <glyph glyph-name="w" unicode="w" horiz-adv-x="780" 
d="M419 470h93q24 0 24 -19q0 -2 -11 -58t-22 -131t-11 -123q0 -34 15 -51.5t38 -17.5q39 0 71 44t46 94.5t14 87.5q0 31 -28 59.5t-28 64.5q0 25 18 42.5t39 17.5q30 0 48.5 -34t18.5 -101q0 -41 -15 -98t-43 -116t-77 -100t-107 -41q-56 0 -94 34t-38 89q0 17 6 51l-2 2
q-26 -77 -74 -126.5t-112 -49.5q-55 0 -90.5 33t-35.5 87q0 37 18 126.5t18 112.5q0 17 -7 26t-16 11t-16 7t-7 14q0 18 61 45.5t90 27.5q37 0 37 -47q0 -30 -23 -145t-23 -156q0 -31 13 -46.5t34 -15.5q33 0 61.5 34t46.5 86t29 100t16 89q5 40 9 60.5t7.5 25.5t8.5 5z" />
    <glyph glyph-name="x" unicode="x" horiz-adv-x="560" 
d="M-24 42q0 23 17 38.5t43 15.5q7 0 20.5 -2t16.5 -2q16 0 36.5 23.5t46.5 63t34 49.5q-45 84 -60.5 109.5t-28.5 37.5q-5 5 -20 6t-25 5.5t-10 20.5q0 17 55.5 45t85.5 28q17 0 27 -18q13 -24 42 -82.5t31 -61.5q21 32 38.5 54t45 50t58 43t61.5 15q28 0 46 -14.5
t18 -37.5q0 -20 -16 -34t-37 -14q-10 0 -27 7t-25 7q-45 0 -130 -132q59 -108 98 -155q21 -25 59 -25q19 0 25.5 -4.5t6.5 -15.5q0 -27 -53.5 -49.5t-90.5 -22.5q-12 0 -24.5 8.5t-26.5 28.5t-25.5 39l-31.5 52.5l-34 56.5q-69 -108 -112 -147q-42 -38 -77 -38
q-27 0 -42 14.5t-15 37.5z" />
    <glyph glyph-name="y" unicode="y" horiz-adv-x="530" 
d="M38 416q0 21 67 42.5t86 21.5q35 0 35 -38q0 -11 -8 -92.5t-8 -93.5q0 -96 21.5 -144t54.5 -48t68.5 51t55.5 108t20 85q0 27 -22 53.5t-22 49.5q0 32 18 50.5t43 18.5q27 0 45 -24t18 -74q0 -78 -40.5 -179.5t-92.5 -176.5q-23 -33 -54.5 -69t-71.5 -73.5t-84 -61.5
t-80 -24q-32 0 -51.5 14.5t-19.5 39.5q0 21 16 35.5t40 14.5q16 0 34 -9t27 -9q32 0 83 46.5t84 87.5l-2 2q-28 -30 -75 -30q-66 0 -102.5 59.5t-36.5 172.5q0 41 2 87t2 48q0 17 -8 25t-17 9t-17 6.5t-8 18.5z" />
    <glyph glyph-name="z" unicode="z" horiz-adv-x="480" 
d="M283 0h-256q-37 0 -37 29q0 26 47.5 86.5t137.5 158.5t125 140h-72q-47 0 -61.5 -8t-16.5 -31q-4 -59 -51 -59q-21 0 -35 15t-14 36q0 44 36 73.5t77 29.5h253q46 0 46 -32q0 -25 -56.5 -86.5l-138 -147.5t-121.5 -148h105q40 0 57 13t18 40q1 25 15.5 41t36.5 16
q19 0 33.5 -14t14.5 -32q0 -53 -43 -86.5t-100 -33.5z" />
    <glyph glyph-name="braceleft" unicode="{" horiz-adv-x="280" 
d="M229 615l-33 -197q-10 -62 -29.5 -93t-63.5 -45v-2q29 -10 40 -30.5t11 -56.5q0 -18 -5 -51l-33 -197q-1 -8 -1 -20q0 -16 13 -26.5t28.5 -15t28.5 -14.5t13 -25q0 -30 -99 -30q-55 0 -78.5 20t-23.5 59q0 15 3 30l40 235q4 20 4 42q0 32 -10.5 50.5t-37.5 30.5
q39 15 57.5 42t27.5 81l39 235q9 54 39.5 81.5t95.5 27.5q89 0 89 -25q0 -17 -16 -27t-36 -14.5t-39 -20.5t-24 -44z" />
    <glyph glyph-name="bar" unicode="|" horiz-adv-x="222" 
d="M80 0v754h94v-754h-94z" />
    <glyph glyph-name="braceright" unicode="}" horiz-adv-x="280" 
d="M69 -57l33 197q10 62 29.5 93t63.5 45v2q-29 10 -40 30.5t-11 56.5q0 18 5 51l33 197q1 8 1 20q0 16 -13 26.5t-28.5 15t-28.5 14.5t-13 25q0 30 99 30q55 0 78.5 -20t23.5 -59q0 -15 -3 -30l-40 -235q-4 -20 -4 -42q0 -32 10.5 -50.5t37.5 -30.5q-39 -15 -57.5 -42
t-27.5 -81l-39 -235q-9 -54 -39.5 -81.5t-95.5 -27.5q-89 0 -89 25q0 17 16 27t36 14.5t39 20.5t24 44z" />
    <glyph glyph-name="asciitilde" unicode="~" horiz-adv-x="600" 
d="M491 317l42 -74q-27 -40 -56.5 -63t-74.5 -23q-39 0 -111 32q-74 32 -102 32q-27 0 -47 -17.5t-41 -50.5l-42 74q27 40 56.5 63t74.5 23q39 0 111 -32q74 -32 102 -32q27 0 47 17.5t41 50.5z" />
    <glyph glyph-name="uni00A0" unicode="&#xa0;" horiz-adv-x="320" 
 />
    <glyph glyph-name="exclamdown" unicode="&#xa1;" horiz-adv-x="340" 
d="M227 313l-21 -426q-2 -47 -23 -68t-66 -21q-88 0 -88 47q0 20 18 87l108 391q9 35 39 35q36 0 33 -45zM293 506q0 -33 -29.5 -58.5t-63.5 -25.5q-25 0 -42 14.5t-17 37.5q0 33 29.5 58.5t63.5 25.5q25 0 42 -14.5t17 -37.5z" />
    <glyph glyph-name="cent" unicode="&#xa2;" horiz-adv-x="640" 
d="M361 608l14 81q4 25 13 34t26 9q30 0 30 -23q0 -2 -16 -101q66 -10 99 -35.5t33 -54.5q0 -24 -19 -39t-44 -15q-22 0 -35.5 12.5t-18.5 27.5t-20 27.5t-39 12.5q-63 0 -108.5 -71t-45.5 -157q0 -53 29 -88.5t81 -35.5q43 0 77.5 18t56 36t32.5 18q9 0 16 -6.5t7 -17.5
q0 -29 -64.5 -68t-116.5 -44q-4 -20 -7.5 -44t-5.5 -35.5t-6.5 -23t-12.5 -15.5t-22 -4q-29 0 -29 22q0 6 3 23l7 41.5t6 35.5q-81 8 -132 57.5t-51 129.5q0 108 78 193.5t185 99.5z" />
    <glyph glyph-name="sterling" unicode="&#xa3;" horiz-adv-x="640" 
d="M153 326h-54q-21 0 -19 23q1 33 39 33h33q-1 13 -2.5 40.5t-2.5 47.5t-1 32q0 116 66 180t188 64q69 0 124.5 -32.5t55.5 -95.5q0 -27 -14.5 -43.5t-40.5 -16.5q-53 0 -53 44q0 5 2 14t2 13q0 28 -24 45.5t-47 17.5q-58 0 -92.5 -40t-34.5 -113q0 -27 5 -157h168
q21 0 19 -23q-1 -33 -39 -33h-151q-1 -136 -134 -249l2 -2q95 41 140 41q27 0 82.5 -16t78.5 -16q22 0 36.5 13t24.5 26t22 13q22 0 22 -24q0 -9 -15.5 -37.5t-50.5 -58.5t-74 -30q-40 0 -108 19t-104 19q-48 0 -94 -19l-20.5 -9l-17.5 -7.5t-10 -2.5q-10 0 -21 19.5
t-11 26.5q0 8 14 22t33 35.5t38 51t31 78.5t9 107z" />
    <glyph glyph-name="currency" unicode="&#xa4;" horiz-adv-x="640" 
d="M64 153l57 58q-51 57 -51 155q0 97 51 154l-57 58l53 53l59 -59q59 51 152 51q95 0 152 -51l59 59l53 -53l-57 -58q51 -57 51 -154q0 -98 -51 -155l57 -58l-53 -53l-59 59q-59 -51 -152 -51q-91 0 -152 51l-59 -59zM162 366q0 -71 48.5 -120.5t117.5 -49.5t117.5 49.5
t48.5 120.5q0 70 -48.5 119.5t-117.5 49.5t-117.5 -49.5t-48.5 -119.5z" />
    <glyph glyph-name="yen" unicode="&#xa5;" horiz-adv-x="640" 
d="M560 258h-187q-19 -154 -19 -166q0 -15 8.5 -24t18 -11.5t18 -9t8.5 -18.5q0 -13 -8.5 -21t-21.5 -8h-183q-48 0 -48 25q0 19 10.5 27t23.5 10.5t26.5 20.5t18.5 54l15 121h-188q-21 0 -19 23q1 33 39 33h168l-43 80h-130q-21 0 -19 23q1 33 39 33h80q-15 25 -35 77.5
t-39 92.5t-37 52q-9 6 -12.5 8.5t-7 8.5t-3.5 14q0 29 46 29h160q38 0 38 -25q0 -12 -8 -20t-17 -11.5t-17 -12.5t-8 -23q0 -52 121 -278q74 84 139 172t65 116q0 16 -19.5 27.5t-19.5 25.5q0 29 41 29h109q32 0 32 -24q0 -3 -0.5 -5.5t-1.5 -5t-1.5 -4t-2.5 -4t-3 -4
t-4.5 -4.5t-4 -4t-5 -4.5t-5.5 -4.5q-6 -5 -82 -101t-90 -117h103q21 0 19 -23q-1 -33 -39 -33h-127l-62 -78h191q21 0 19 -23q-1 -32 -39 -35z" />
    <glyph glyph-name="brokenbar" unicode="&#xa6;" horiz-adv-x="222" 
d="M80 0v272h94v-272h-94zM80 482v272h94v-272h-94z" />
    <glyph glyph-name="section" unicode="&#xa7;" horiz-adv-x="620" 
d="M596 654v-62q0 -33 -8.5 -45.5t-26.5 -12.5q-13 0 -21.5 15.5t-16.5 38t-20.5 45t-40.5 38t-69 15.5q-57 0 -102 -32.5t-45 -71.5q0 -38 35 -63t84.5 -40l99 -31.5t84.5 -49.5t35 -83q0 -81 -94 -181q20 -29 29 -51.5t9 -56.5q0 -59 -47 -113t-114.5 -84.5t-130.5 -30.5
q-52 0 -109.5 14t-88.5 39q-24 19 -24 131q0 48 34 48q13 0 21 -17.5t16 -42t22 -49t45.5 -42t78.5 -17.5q61 0 111 38.5t50 89.5q0 33 -25.5 57t-64 36l-83.5 27t-83.5 30t-64 46.5t-25.5 75.5q0 93 108 170q-40 50 -40 103q0 59 45 109t107.5 76t120.5 26q91 0 177 -45
q19 -9 25.5 -19t6.5 -28zM166 309q0 -31 28 -51.5t64.5 -30t88 -25t83.5 -32.5q15 19 21 28t13.5 26.5t7.5 33.5q0 37 -40.5 58t-112 40t-107.5 40q-46 -46 -46 -87z" />
    <glyph glyph-name="dieresis" unicode="&#xa8;" 
d="M37 613q0 31 21.5 52t50.5 21q30 0 46 -15.5t16 -42.5q0 -31 -21 -52.5t-50 -21.5q-30 0 -46.5 16t-16.5 43zM261 613q0 31 21.5 52t50.5 21q30 0 46 -15.5t16 -42.5q0 -31 -21 -52.5t-50 -21.5q-30 0 -46.5 16t-16.5 43z" />
    <glyph glyph-name="copyright" unicode="&#xa9;" horiz-adv-x="800" 
d="M40 366q0 159 107.5 269.5t264.5 110.5t264.5 -110.5t107.5 -269.5t-107.5 -269.5t-264.5 -110.5t-264.5 110.5t-107.5 269.5zM704 366q0 132 -83.5 226t-208.5 94t-208.5 -94t-83.5 -226t83.5 -226t208.5 -94t208.5 94t83.5 226zM569 284h25l-17 -91q-2 -11 -52 -25
t-91 -14q-108 0 -171 56.5t-63 166.5q0 36 13.5 72.5t41 69.5t76 54t110.5 21q48 0 92 -15t44 -30v-80h-26q-21 91 -111 91q-64 0 -99 -49.5t-35 -128.5q0 -91 33.5 -142.5t104.5 -51.5q47 0 76 25t49 71z" />
    <glyph glyph-name="ordfeminine" unicode="&#xaa;" horiz-adv-x="420" 
d="M102 565q0 69 55 125t129 56q52 0 74 -35q1 1 7.5 8t10 10t10 8t13 7t13.5 2q20 0 20 -16q0 -3 -19 -84t-19 -112q0 -18 19 -23t19 -16q0 -10 -38.5 -26.5t-52.5 -16.5q-21 0 -21 28q0 16 4 48l-2 1q-39 -77 -113 -77q-51 0 -80 32.5t-29 80.5zM188 561q0 -25 12 -45
t37 -20q31 0 54.5 32t33 67.5t9.5 62.5q0 50 -47 50q-43 0 -71 -51.5t-28 -95.5z" />
    <glyph glyph-name="guillemotleft" unicode="&#xab;" horiz-adv-x="410" 
d="M202 236q0 6 3.5 13.5t12.5 18l16 18.5l21.5 23.5l21.5 23.5l17.5 19.5t15.5 17.5t12.5 14t12 11.5l9.5 7.5t9.5 5.5t9.5 1.5q9 0 16 -6t7 -15q0 -15 -43 -74.5t-43 -88.5q0 -24 15 -74.5t15 -64.5q0 -27 -24 -27q-6 0 -11 3.5t-11 12t-10 17t-12 23.5l-15 27
q-45 78 -45 93zM26 236q0 6 3.5 13.5t12.5 18l16 18.5l21.5 23.5l21.5 23.5l17.5 19.5t15.5 17.5t12.5 14t12 11.5l9.5 7.5t9.5 5.5t9.5 1.5q9 0 16 -6t7 -15q0 -15 -43 -74.5t-43 -88.5q0 -24 15 -74.5t15 -64.5q0 -27 -24 -27q-6 0 -11 3.5t-11 12t-10 17t-12 23.5l-15 27
q-45 78 -45 93z" />
    <glyph glyph-name="logicalnot" unicode="&#xac;" horiz-adv-x="600" 
d="M452 106v164h-376v94h470v-258h-94z" />
    <glyph glyph-name="uni00AD" unicode="&#xad;" horiz-adv-x="280" 
d="M221 186h-198q-23 0 -23 28q0 70 39 70h198q23 0 23 -28q0 -70 -39 -70z" />
    <glyph glyph-name="registered" unicode="&#xae;" horiz-adv-x="800" 
d="M234 554v22h203q53 0 89 -26.5t36 -76.5q0 -40 -22.5 -71.5t-56.5 -44.5l59 -85q43 -65 72 -90v-12h-84q-16 0 -32 22t-44 71.5t-49 80.5h-35v-117q0 -21 8 -26.5t42 -8.5v-22h-186v22q34 4 41 11t7 38v263q0 32 -7 39.5t-41 10.5zM370 544v-168h32q70 0 70 89
q0 79 -70 79h-32zM40 366q0 159 107.5 269.5t264.5 110.5t264.5 -110.5t107.5 -269.5t-107.5 -269.5t-264.5 -110.5t-264.5 110.5t-107.5 269.5zM704 366q0 132 -83.5 226t-208.5 94t-208.5 -94t-83.5 -226t83.5 -226t208.5 -94t208.5 94t83.5 226z" />
    <glyph glyph-name="macron" unicode="&#xaf;" 
d="M113 650h224q41 0 41 -23q0 -41 -53 -41h-225q-46 0 -46 24q0 40 59 40z" />
    <glyph glyph-name="degree" unicode="&#xb0;" horiz-adv-x="400" 
d="M152 603q0 -40 25 -66.5t64 -26.5t64 26.5t25 66.5t-25 66.5t-64 26.5t-64 -26.5t-25 -66.5zM98 603q0 60 41.5 101.5t101.5 41.5t101.5 -41.5t41.5 -101.5t-41.5 -101.5t-101.5 -41.5t-101.5 41.5t-41.5 101.5z" />
    <glyph glyph-name="plusminus" unicode="&#xb1;" horiz-adv-x="600" 
d="M263 345v125h94v-125h189v-94h-189v-125h-94v125h-187v94h187zM76 0v94h470v-94h-470z" />
    <glyph glyph-name="twosuperior" unicode="&#xb2;" horiz-adv-x="380" 
d="M121 362h117q33 0 53.5 10t32 19.5t23.5 9.5q13 0 13 -10q0 -5 -20 -48q-22 -45 -39 -45h-278q-22 0 -22 17q0 27 55 78q33 30 88 75.5t82 70t50 57.5t23 63q0 48 -63 48q-37 0 -63 -22.5t-26 -45.5q0 -7 4.5 -16.5t4.5 -14.5q0 -14 -13.5 -24t-32.5 -10
q-21 0 -33.5 10.5t-12.5 29.5q0 53 59 92.5t137 39.5q61 0 100 -25t39 -71q0 -27 -13.5 -53.5t-42 -52t-47 -40t-52.5 -37.5q-9 -6 -13 -9q-70 -47 -110 -96z" />
    <glyph glyph-name="threesuperior" unicode="&#xb3;" horiz-adv-x="380" 
d="M126 528q0 22 33 22q61 0 96.5 28.5t35.5 80.5q0 48 -57 48q-31 0 -48 -14.5t-17 -37.5q0 -41 -44 -41q-19 0 -32.5 9.5t-13.5 23.5q0 40 48 69.5t119 29.5q70 0 107.5 -24.5t37.5 -70.5q0 -45 -40 -75.5t-91 -37.5v-2q50 -4 80.5 -29.5t30.5 -69.5q0 -63 -61.5 -105
t-151.5 -42q-72 0 -110.5 23t-38.5 63q0 21 13 33.5t34 12.5q35 0 35 -39q0 -55 66 -55q45 0 75.5 31t30.5 81q0 72 -98 72q-24 0 -31.5 3t-7.5 13z" />
    <glyph glyph-name="acute" unicode="&#xb4;" 
d="M327 647l-146 -111q-11 -8 -35 -8q-17 0 -17 11q0 7 17 31l74 104q10 14 18.5 18t28.5 4h62q26 0 26 -15q0 -13 -28 -34z" />
    <glyph glyph-name="mu" unicode="&#xb5;" horiz-adv-x="630" 
d="M468 470h82q16 0 16 -14t-26 -153t-26 -169q0 -18 9 -28t20 -12.5t20 -9t9 -17.5q0 -13 -65.5 -45t-81.5 -32q-37 0 -37 71q0 50 6 72l-2 2q-30 -63 -79 -104t-112 -41q-25 0 -46 7q-6 -32 -19 -144q-4 -32 -19 -43.5t-51 -11.5q-62 0 -62 32q0 24 11 68q87 351 87 450
q0 16 -8 24t-17 9.5t-17 6.5t-8 14q0 24 68 51t92 27q32 0 32 -52q0 -25 -24 -147t-24 -152q0 -26 16 -42.5t41 -16.5q43 0 78.5 43.5t56 107.5t32 118.5t14.5 95.5q3 35 34 35z" />
    <glyph glyph-name="paragraph" unicode="&#xb6;" horiz-adv-x="600" 
d="M332 732h227q23 0 32 -7.5t9 -27.5q0 -5 -1.5 -15t-1.5 -15l-145 -829q-3 -19 -15 -25.5t-43 -6.5t-31 21q0 3 8 51l127 730q0 3 1 8.5t1 7.5q0 18 -22 18q-14 0 -20 -6.5t-10 -27.5l-133 -770q-4 -19 -15.5 -25.5t-42.5 -6.5q-32 0 -32 21q0 8 9 51l70 420
q-29 -21 -51.5 -29.5t-58.5 -8.5q-67 0 -105.5 55.5t-35.5 128.5q5 115 80.5 201.5t198.5 86.5z" />
    <glyph glyph-name="periodcentered" unicode="&#xb7;" horiz-adv-x="320" 
d="M81 235q0 29 23 52t52 23t52 -23t23 -52t-23 -52t-52 -23t-52 23t-23 52z" />
    <glyph glyph-name="cedilla" unicode="&#xb8;" 
d="M111 0l-13 -52q5 0 21 2t25 2q37 0 61 -17.5t24 -43.5q0 -38 -45.5 -65.5t-104.5 -27.5q-51 0 -95.5 14t-44.5 33q0 10 7 17t16 7q5 0 45 -15.5t70 -15.5q36 0 54 13t18 31q0 13 -12 21.5t-32 8.5q-12 0 -27 -4t-22 -4q-15 0 -15 14q0 2 2.5 12.5t8 30.5t9.5 39h50z" />
    <glyph glyph-name="onesuperior" unicode="&#xb9;" horiz-adv-x="380" 
d="M299 298h-213q-23 0 -23 18q0 13 20 16.5t44.5 9t31.5 23.5q7 16 29.5 142.5t22.5 139.5q0 22 -36 22h-39q-19 0 -19 15q0 12 24 18.5t61.5 14t57.5 18.5q29 17 45 17q22 0 22 -18q0 -2 -33.5 -176.5t-33.5 -192.5q0 -14 12 -21t26 -7.5t26 -5t12 -15.5q0 -18 -37 -18z
" />
    <glyph glyph-name="ordmasculine" unicode="&#xba;" horiz-adv-x="420" 
d="M90 579q0 69 60.5 118t138.5 49q67 0 112 -34.5t45 -92.5q0 -69 -60.5 -118t-138.5 -49q-67 0 -112 34.5t-45 92.5zM180 565q0 -33 17 -54t51 -21q52 0 80 46.5t28 96.5q0 33 -17 54t-51 21q-52 0 -80 -46.5t-28 -96.5z" />
    <glyph glyph-name="guillemotright" unicode="&#xbb;" horiz-adv-x="410" 
d="M200 234q0 -6 -3.5 -13.5t-12.5 -18l-16 -18.5l-21.5 -23.5l-21.5 -23.5l-17.5 -19.5t-15.5 -17.5t-12.5 -14t-12 -11.5l-9.5 -7.5t-9.5 -5.5t-9.5 -1.5q-9 0 -16 6t-7 15q0 15 43 74.5t43 88.5q0 24 -15 74.5t-15 64.5q0 27 24 27q6 0 11 -3.5t11 -12t10 -17t12 -23.5
l15 -27q45 -78 45 -93zM376 234q0 -6 -3.5 -13.5t-12.5 -18l-16 -18.5l-21.5 -23.5l-21.5 -23.5l-17.5 -19.5t-15.5 -17.5t-12.5 -14t-12 -11.5l-9.5 -7.5t-9.5 -5.5t-9.5 -1.5q-9 0 -16 6t-7 15q0 15 43 74.5t43 88.5q0 24 -15 74.5t-15 64.5q0 27 24 27q6 0 11 -3.5
t11 -12t10 -17t12 -23.5l15 -27q45 -78 45 -93z" />
    <glyph glyph-name="onequarter" unicode="&#xbc;" horiz-adv-x="960" 
d="M808 0h-126q-23 0 -23 14t22 18q20 4 26.5 17t13.5 65h-167q-30 0 -30 17q0 36 86 141.5t172 161.5q22 14 47 14q45 0 45 -25q0 -5 -8.5 -51l-21 -112.5t-19.5 -107.5h62q17 0 17 -13q0 -25 -28 -25h-58q0 -3 -4.5 -29.5t-4.5 -34.5q0 -11 15 -16.5t15 -14.5
q0 -19 -31 -19zM582 152h146q24 142 52 232l-1 -1l-2 2q-119 -97 -195 -233zM296 298h-213q-23 0 -23 18q0 13 20 16.5t44.5 9t31.5 23.5q7 16 29.5 142.5t22.5 139.5q0 22 -36 22h-39q-19 0 -19 15q0 12 24 18.5t61.5 14t57.5 18.5q29 17 45 17q22 0 22 -18
q0 -2 -33.5 -176.5t-33.5 -192.5q0 -14 12 -21t26 -7.5t26 -5t12 -15.5q0 -18 -37 -18zM252 8l421 722q6 11 12 13.5t26 2.5q24 0 30.5 -2t6.5 -9q0 -4 -7 -16l-420 -716q-7 -11 -14.5 -14t-27.5 -3q-22 0 -27 1.5t-5 7.5q0 3 5 13z" />
    <glyph glyph-name="onehalf" unicode="&#xbd;" horiz-adv-x="960" 
d="M295 298h-213q-23 0 -23 18q0 13 20 16.5t44.5 9t31.5 23.5q7 16 29.5 142.5t22.5 139.5q0 22 -36 22h-39q-19 0 -19 15q0 12 24 18.5t61.5 14t57.5 18.5q29 17 45 17q22 0 22 -18q0 -2 -33.5 -176.5t-33.5 -192.5q0 -14 12 -21t26 -7.5t26 -5t12 -15.5q0 -18 -37 -18z
M650 64h117q33 0 53.5 10t32 19.5t23.5 9.5q13 0 13 -10q0 -6 -20 -48q-22 -45 -39 -45h-278q-22 0 -22 17q0 27 55 78q33 30 88 75.5t82 70t50 57.5t23 63q0 48 -63 48q-37 0 -63 -22.5t-26 -45.5q0 -7 4.5 -16.5t4.5 -14.5q0 -14 -13.5 -24t-32.5 -10q-21 0 -33.5 10.5
t-12.5 29.5q0 53 59 92.5t137 39.5q61 0 100 -25t39 -71q0 -27 -13.5 -53.5t-42 -52t-47 -40t-52.5 -37.5q-9 -6 -13 -9q-70 -47 -110 -96zM233 8l421 722q7 11 12.5 13.5t25.5 2.5q24 0 30.5 -2t6.5 -9q0 -4 -7 -16l-420 -716q-6 -11 -13.5 -14t-28.5 -3q-22 0 -27 1.5
t-5 7.5q0 3 5 13z" />
    <glyph glyph-name="threequarters" unicode="&#xbe;" horiz-adv-x="960" 
d="M126 528q0 22 33 22q61 0 96.5 28.5t35.5 80.5q0 48 -57 48q-31 0 -48 -14.5t-17 -37.5q0 -41 -44 -41q-19 0 -32.5 9.5t-13.5 23.5q0 40 48 69.5t119 29.5q70 0 107.5 -24.5t37.5 -70.5q0 -45 -40 -75.5t-91 -37.5v-2q50 -4 80.5 -29.5t30.5 -69.5q0 -63 -61.5 -105
t-151.5 -42q-72 0 -110.5 23t-38.5 63q0 21 13 33.5t34 12.5q35 0 35 -39q0 -55 66 -55q45 0 75.5 31t30.5 81q0 72 -98 72q-24 0 -31.5 3t-7.5 13zM254 8l421 722q6 11 12 13.5t26 2.5q24 0 30.5 -2t6.5 -9q0 -4 -7 -16l-420 -716q-7 -11 -14.5 -14t-27.5 -3q-22 0 -27 1.5
t-5 7.5q0 3 5 13zM808 0h-126q-23 0 -23 14t22 18q20 4 26.5 17t13.5 65h-167q-30 0 -30 17q0 36 86 141.5t172 161.5q22 14 47 14q45 0 45 -25q0 -5 -8.5 -51l-21 -112.5t-19.5 -107.5h62q17 0 17 -13q0 -25 -28 -25h-58q0 -3 -4.5 -29.5t-4.5 -34.5q0 -11 15 -16.5
t15 -14.5q0 -19 -31 -19zM582 152h146q24 142 52 232l-1 -1l-2 2q-119 -97 -195 -233z" />
    <glyph glyph-name="questiondown" unicode="&#xbf;" horiz-adv-x="470" 
d="M371 -7q26 0 40.5 -12.5t14.5 -32.5q0 -48 -42.5 -84t-93.5 -51t-96 -15q-97 0 -157.5 44t-60.5 118q0 77 56 138.5t136 96.5q72 32 83 41q13 16 21 74q4 28 13.5 39t31.5 11q37 0 37 -29q0 -8 -3.5 -27.5l-9 -49.5t-8.5 -53q-3 -21 -19 -30.5t-54 -27t-74 -49.5
q-31 -27 -49.5 -67.5t-18.5 -81.5q0 -43 27 -68t63 -25q35 0 60 18.5t26 45.5q3 77 77 77zM406 506q0 -33 -29.5 -58.5t-63.5 -25.5q-25 0 -42 14.5t-17 37.5q0 33 29.5 58.5t63.5 25.5q25 0 42 -14.5t17 -37.5z" />
    <glyph glyph-name="Agrave" unicode="&#xc0;" horiz-adv-x="750" 
d="M486 244h-304q-67 -122 -67 -156q0 -16 11.5 -24.5t22.5 -15.5t11 -18q0 -30 -45 -30h-126q-29 0 -29 23q0 16 10.5 23.5l27.5 20t28 35.5q82 172 176 334t168 256q43 54 76 54q46 0 63 -40q36 -85 66.5 -203.5t56 -245.5t31.5 -151q6 -25 15 -38.5t15.5 -16t11.5 -8.5
t5 -17q0 -26 -42 -26h-183q-33 0 -33 25q0 14 9 21t19 9t19 12t9 29q0 41 -22 148zM217 312h257q-46 205 -75 292q-144 -214 -182 -292zM371 931h79q22 0 29 -20l38 -104q10 -26 10 -31q0 -13 -24 -13q-15 0 -42 28l-92 95q-22 22 -22 30q0 15 24 15z" />
    <glyph glyph-name="Aacute" unicode="&#xc1;" horiz-adv-x="750" 
d="M486 244h-304q-67 -122 -67 -156q0 -16 11.5 -24.5t22.5 -15.5t11 -18q0 -30 -45 -30h-126q-29 0 -29 23q0 16 10.5 23.5l27.5 20t28 35.5q82 172 176 334t168 256q43 54 76 54q46 0 63 -40q36 -85 66.5 -203.5t56 -245.5t31.5 -151q6 -25 15 -38.5t15.5 -16t11.5 -8.5
t5 -17q0 -26 -42 -26h-183q-33 0 -33 25q0 14 9 21t19 9t19 12t9 29q0 41 -22 148zM217 312h257q-46 205 -75 292q-144 -214 -182 -292zM588 882l-146 -111q-11 -8 -35 -8q-17 0 -17 11q0 7 17 31l74 104q10 14 18.5 18t28.5 4h62q26 0 26 -15q0 -13 -28 -34z" />
    <glyph glyph-name="Acircumflex" unicode="&#xc2;" horiz-adv-x="750" 
d="M486 244h-304q-67 -122 -67 -156q0 -16 11.5 -24.5t22.5 -15.5t11 -18q0 -30 -45 -30h-126q-29 0 -29 23q0 16 10.5 23.5l27.5 20t28 35.5q82 172 176 334t168 256q43 54 76 54q46 0 63 -40q36 -85 66.5 -203.5t56 -245.5t31.5 -151q6 -25 15 -38.5t15.5 -16t11.5 -8.5
t5 -17q0 -26 -42 -26h-183q-33 0 -33 25q0 14 9 21t19 9t19 12t9 29q0 41 -22 148zM217 312h257q-46 205 -75 292q-144 -214 -182 -292zM481 843l-123 -71q-18 -9 -26 -9t-13.5 5.5t-5.5 13.5q0 12 24 31l129 111q15 13 28 13q18 0 28 -17l75 -106q18 -25 18 -33
q0 -7 -6.5 -12.5t-14.5 -5.5t-35 21z" />
    <glyph glyph-name="Atilde" unicode="&#xc3;" horiz-adv-x="750" 
d="M486 244h-304q-67 -122 -67 -156q0 -16 11.5 -24.5t22.5 -15.5t11 -18q0 -30 -45 -30h-126q-29 0 -29 23q0 16 10.5 23.5l27.5 20t28 35.5q82 172 176 334t168 256q43 54 76 54q46 0 63 -40q36 -85 66.5 -203.5t56 -245.5t31.5 -151q6 -25 15 -38.5t15.5 -16t11.5 -8.5
t5 -17q0 -26 -42 -26h-183q-33 0 -33 25q0 14 9 21t19 9t19 12t9 29q0 41 -22 148zM217 312h257q-46 205 -75 292q-144 -214 -182 -292zM317 810q0 23 32.5 61t63.5 38q21 0 64.5 -16t59.5 -16q21 0 40.5 18t29.5 18q7 0 12.5 -5.5t5.5 -13.5q0 -21 -32.5 -59t-64.5 -38
q-21 0 -65 16t-60 16q-19 0 -40 -18t-29 -18q-7 0 -12 5t-5 12z" />
    <glyph glyph-name="Adieresis" unicode="&#xc4;" horiz-adv-x="750" 
d="M486 244h-304q-67 -122 -67 -156q0 -16 11.5 -24.5t22.5 -15.5t11 -18q0 -30 -45 -30h-126q-29 0 -29 23q0 16 10.5 23.5l27.5 20t28 35.5q82 172 176 334t168 256q43 54 76 54q46 0 63 -40q36 -85 66.5 -203.5t56 -245.5t31.5 -151q6 -25 15 -38.5t15.5 -16t11.5 -8.5
t5 -17q0 -26 -42 -26h-183q-33 0 -33 25q0 14 9 21t19 9t19 12t9 29q0 41 -22 148zM217 312h257q-46 205 -75 292q-144 -214 -182 -292zM298 848q0 30 21 51.5t51 21.5t46 -15.5t16 -42.5q0 -31 -21 -52.5t-50 -21.5q-30 0 -46.5 16t-16.5 43zM522 848q0 30 21 51.5t51 21.5
t46 -15.5t16 -42.5q0 -31 -21 -52.5t-50 -21.5q-30 0 -46.5 16t-16.5 43z" />
    <glyph glyph-name="Aring" unicode="&#xc5;" horiz-adv-x="750" 
d="M486 244h-304q-67 -122 -67 -156q0 -16 11.5 -24.5t22.5 -15.5t11 -18q0 -30 -45 -30h-126q-29 0 -29 23q0 16 10.5 23.5l27.5 20t28 35.5q82 172 176 334t168 256q43 54 76 54q46 0 63 -40q36 -85 66.5 -203.5t56 -245.5t31.5 -151q6 -25 15 -38.5t15.5 -16t11.5 -8.5
t5 -17q0 -26 -42 -26h-183q-33 0 -33 25q0 14 9 21t19 9t19 12t9 29q0 41 -22 148zM217 312h257q-46 205 -75 292q-144 -214 -182 -292zM363 859q0 42 29.5 71t70.5 29t70.5 -29t29.5 -71t-29.5 -71t-70.5 -29t-70.5 29t-29.5 71zM417 859q0 -20 13.5 -33t32.5 -13t32.5 13
t13.5 33t-13.5 33t-32.5 13t-32.5 -13t-13.5 -33z" />
    <glyph glyph-name="AE" unicode="&#xc6;" horiz-adv-x="980" 
d="M439 244h-243q-79 -144 -79 -162q0 -16 24.5 -29t24.5 -28q0 -25 -31 -25h-147q-28 0 -28 23q0 13 6.5 19t16 8.5t24.5 16.5t28 39q102 190 206.5 351.5t183.5 250.5q21 24 51 24h466q40 0 40 -30q0 -110 -37 -110q-12 0 -18 4t-13.5 17.5t-10.5 16.5q-26 38 -110 38
q-71 0 -98 -5.5t-38 -20.5t-18 -57l-27 -159h136q32 0 51 9.5t29.5 19t21.5 9.5q10 0 16 -8t6 -19q0 -28 -10.5 -69.5t-33.5 -41.5q-11 0 -21 9t-27 18t-46 9h-130q-1 -3 -12.5 -68.5t-17.5 -108t-6 -70.5q0 -29 15 -40t57 -11q70 0 107.5 5.5t51.5 13t40 29.5q7 5 16 14
t14.5 13.5t14 8.5t17.5 4q10 0 17.5 -6t7.5 -15q0 -19 -19 -75t-39 -56h-480q-36 0 -36 23q0 17 23.5 30t29.5 24q5 9 9.5 28.5t8 38t8.5 50.5zM233 312h219q48 299 48 327q0 17 -11 17q-41 0 -256 -344z" />
    <glyph glyph-name="Ccedilla" unicode="&#xc7;" horiz-adv-x="750" 
d="M329 -11l-10 -41q5 0 21 2t25 2q37 0 61 -17.5t24 -43.5q0 -38 -45.5 -65.5t-104.5 -27.5q-51 0 -95.5 14t-44.5 33q0 10 7 17t16 7q5 0 45 -15.5t70 -15.5q36 0 54 13t18 31q0 13 -12 21.5t-32 8.5q-12 0 -27 -4t-22 -4q-15 0 -15 14q0 2 2.5 12l7.5 29.5t9 37.5
q-110 27 -175.5 107t-65.5 201q0 119 64 221t169 161t223 59q85 0 170.5 -36.5t85.5 -73.5q0 -148 -53 -148q-13 0 -22 14t-13 35t-15 46t-27 46t-50 35t-82 14q-60 0 -110.5 -26.5t-82.5 -67.5t-55 -92.5t-32.5 -101t-9.5 -93.5q0 -115 56.5 -176t151.5 -61q53 0 101 20.5
t75.5 45l50 45t29.5 20.5q14 0 25 -10t11 -23q0 -20 -24 -48.5t-63.5 -56.5t-101.5 -47.5t-128 -19.5q-27 0 -54 3z" />
    <glyph glyph-name="Egrave" unicode="&#xc8;" horiz-adv-x="680" 
d="M160 732h481q41 0 41 -30q0 -110 -39 -110q-11 0 -17.5 4.5t-14.5 16t-13 17.5q-36 38 -143 38q-71 0 -98 -5.5t-38 -20.5t-18 -57l-27 -159h174q32 0 51 9.5t29.5 19t21.5 9.5q10 0 16 -8t6 -19q0 -8 -1.5 -22.5t-6 -36.5t-15 -37t-25.5 -15q-10 0 -18.5 9t-25.5 18
t-46 9h-171q-1 -3 -12.5 -68.5t-17.5 -108t-6 -70.5q0 -29 15 -40t57 -11q120 0 165.5 10t76.5 36l17 15l15.5 14t14 9t17.5 4q10 0 17.5 -6t7.5 -15q0 -19 -19 -75t-39 -56h-532q-36 0 -36 24q0 14 9.5 21t22 11.5t25.5 24t19 53.5l69 403q15 90 15 102q0 18 -12.5 27
t-25 16t-12.5 20q0 30 46 30zM332 931h79q22 0 29 -20l38 -104q10 -26 10 -31q0 -13 -24 -13q-15 0 -42 28l-92 95q-22 22 -22 30q0 15 24 15z" />
    <glyph glyph-name="Eacute" unicode="&#xc9;" horiz-adv-x="680" 
d="M160 732h481q41 0 41 -30q0 -110 -39 -110q-11 0 -17.5 4.5t-14.5 16t-13 17.5q-36 38 -143 38q-71 0 -98 -5.5t-38 -20.5t-18 -57l-27 -159h174q32 0 51 9.5t29.5 19t21.5 9.5q10 0 16 -8t6 -19q0 -8 -1.5 -22.5t-6 -36.5t-15 -37t-25.5 -15q-10 0 -18.5 9t-25.5 18
t-46 9h-171q-1 -3 -12.5 -68.5t-17.5 -108t-6 -70.5q0 -29 15 -40t57 -11q120 0 165.5 10t76.5 36l17 15l15.5 14t14 9t17.5 4q10 0 17.5 -6t7.5 -15q0 -19 -19 -75t-39 -56h-532q-36 0 -36 24q0 14 9.5 21t22 11.5t25.5 24t19 53.5l69 403q15 90 15 102q0 18 -12.5 27
t-25 16t-12.5 20q0 30 46 30zM558 882l-146 -111q-11 -8 -35 -8q-17 0 -17 11q0 7 17 31l74 104q10 14 18.5 18t28.5 4h62q26 0 26 -15q0 -13 -28 -34z" />
    <glyph glyph-name="Ecircumflex" unicode="&#xca;" horiz-adv-x="680" 
d="M160 732h481q41 0 41 -30q0 -110 -39 -110q-11 0 -17.5 4.5t-14.5 16t-13 17.5q-36 38 -143 38q-71 0 -98 -5.5t-38 -20.5t-18 -57l-27 -159h174q32 0 51 9.5t29.5 19t21.5 9.5q10 0 16 -8t6 -19q0 -8 -1.5 -22.5t-6 -36.5t-15 -37t-25.5 -15q-10 0 -18.5 9t-25.5 18
t-46 9h-171q-1 -3 -12.5 -68.5t-17.5 -108t-6 -70.5q0 -29 15 -40t57 -11q120 0 165.5 10t76.5 36l17 15l15.5 14t14 9t17.5 4q10 0 17.5 -6t7.5 -15q0 -19 -19 -75t-39 -56h-532q-36 0 -36 24q0 14 9.5 21t22 11.5t25.5 24t19 53.5l69 403q15 90 15 102q0 18 -12.5 27
t-25 16t-12.5 20q0 30 46 30zM451 843l-123 -71q-18 -9 -26 -9t-13.5 5.5t-5.5 13.5q0 12 24 31l129 111q15 13 28 13q18 0 28 -17l75 -106q18 -25 18 -33q0 -7 -6.5 -12.5t-14.5 -5.5t-35 21z" />
    <glyph glyph-name="Edieresis" unicode="&#xcb;" horiz-adv-x="680" 
d="M160 732h481q41 0 41 -30q0 -110 -39 -110q-11 0 -17.5 4.5t-14.5 16t-13 17.5q-36 38 -143 38q-71 0 -98 -5.5t-38 -20.5t-18 -57l-27 -159h174q32 0 51 9.5t29.5 19t21.5 9.5q10 0 16 -8t6 -19q0 -8 -1.5 -22.5t-6 -36.5t-15 -37t-25.5 -15q-10 0 -18.5 9t-25.5 18
t-46 9h-171q-1 -3 -12.5 -68.5t-17.5 -108t-6 -70.5q0 -29 15 -40t57 -11q120 0 165.5 10t76.5 36l17 15l15.5 14t14 9t17.5 4q10 0 17.5 -6t7.5 -15q0 -19 -19 -75t-39 -56h-532q-36 0 -36 24q0 14 9.5 21t22 11.5t25.5 24t19 53.5l69 403q15 90 15 102q0 18 -12.5 27
t-25 16t-12.5 20q0 30 46 30zM268 848q0 30 21 51.5t51 21.5t46 -15.5t16 -42.5q0 -31 -21 -52.5t-50 -21.5q-30 0 -46.5 16t-16.5 43zM492 848q0 30 21 51.5t51 21.5t46 -15.5t16 -42.5q0 -31 -21 -52.5t-50 -21.5q-30 0 -46.5 16t-16.5 43z" />
    <glyph glyph-name="Igrave" unicode="&#xcc;" horiz-adv-x="350" 
d="M158 732h188q34 0 34 -23q0 -14 -9.5 -21.5t-22.5 -12t-26 -24t-19 -52.5l-70 -404q-15 -94 -15 -100q0 -15 7.5 -25t16.5 -13t16.5 -9.5t7.5 -17.5q0 -30 -44 -30h-182q-36 0 -36 24q0 14 9.5 21t22 11.5t25.5 24t19 53.5l67 403q15 81 15 102q0 18 -12.5 27t-25 16
t-12.5 20q0 30 46 30zM172 931h79q22 0 29 -20l38 -104q10 -26 10 -31q0 -13 -24 -13q-15 0 -42 28l-92 95q-22 22 -22 30q0 15 24 15z" />
    <glyph glyph-name="Iacute" unicode="&#xcd;" horiz-adv-x="350" 
d="M158 732h188q34 0 34 -23q0 -14 -9.5 -21.5t-22.5 -12t-26 -24t-19 -52.5l-70 -404q-15 -94 -15 -100q0 -15 7.5 -25t16.5 -13t16.5 -9.5t7.5 -17.5q0 -30 -44 -30h-182q-36 0 -36 24q0 14 9.5 21t22 11.5t25.5 24t19 53.5l67 403q15 81 15 102q0 18 -12.5 27t-25 16
t-12.5 20q0 30 46 30zM388 882l-146 -111q-11 -8 -35 -8q-17 0 -17 11q0 7 17 31l74 104q10 14 18.5 18t28.5 4h62q26 0 26 -15q0 -13 -28 -34z" />
    <glyph glyph-name="Icircumflex" unicode="&#xce;" horiz-adv-x="350" 
d="M158 732h188q34 0 34 -23q0 -14 -9.5 -21.5t-22.5 -12t-26 -24t-19 -52.5l-70 -404q-15 -94 -15 -100q0 -15 7.5 -25t16.5 -13t16.5 -9.5t7.5 -17.5q0 -30 -44 -30h-182q-36 0 -36 24q0 14 9.5 21t22 11.5t25.5 24t19 53.5l67 403q15 81 15 102q0 18 -12.5 27t-25 16
t-12.5 20q0 30 46 30zM281 843l-123 -71q-18 -9 -26 -9t-13.5 5.5t-5.5 13.5q0 12 24 31l129 111q15 13 28 13q18 0 28 -17l75 -106q18 -25 18 -33q0 -7 -6.5 -12.5t-14.5 -5.5t-35 21z" />
    <glyph glyph-name="Idieresis" unicode="&#xcf;" horiz-adv-x="350" 
d="M158 732h188q34 0 34 -23q0 -14 -9.5 -21.5t-22.5 -12t-26 -24t-19 -52.5l-70 -404q-15 -94 -15 -100q0 -15 7.5 -25t16.5 -13t16.5 -9.5t7.5 -17.5q0 -30 -44 -30h-182q-36 0 -36 24q0 14 9.5 21t22 11.5t25.5 24t19 53.5l67 403q15 81 15 102q0 18 -12.5 27t-25 16
t-12.5 20q0 30 46 30zM98 848q0 30 21 51.5t51 21.5t46 -15.5t16 -42.5q0 -31 -21 -52.5t-50 -21.5q-30 0 -46.5 16t-16.5 43zM322 848q0 30 21 51.5t51 21.5t46 -15.5t16 -42.5q0 -31 -21 -52.5t-50 -21.5q-30 0 -46.5 16t-16.5 43z" />
    <glyph glyph-name="Eth" unicode="&#xd0;" horiz-adv-x="810" 
d="M96 432h35q33 203 33 213q0 17 -24 30t-24 28q0 29 43 29h332q135 0 223.5 -79.5t88.5 -220.5q0 -184 -126.5 -308t-348.5 -124h-285q-39 0 -39 25q0 13 9.5 21t21.5 12t25 20.5t18 44.5l42 241h-37q-26 0 -26 28q0 40 39 40zM277 432h183q36 0 36 -28q0 -40 -55 -40
h-176l-12 -72q-27 -158 -27 -184q0 -23 17.5 -33.5t65.5 -10.5q106 0 185 53.5t117 137.5t38 185q0 114 -61.5 171t-177.5 57q-60 0 -79.5 -16.5t-29.5 -73.5z" />
    <glyph glyph-name="Ntilde" unicode="&#xd1;" horiz-adv-x="790" 
d="M166 732h122q19 0 30 -11t35 -52l253 -447h2q8 61 24 160.5l26 165t10 87.5q0 23 -23 38.5t-23 28.5t10 21.5t24 8.5h130q26 0 26 -23q0 -11 -5.5 -17.5t-14.5 -11.5t-18.5 -12.5t-18.5 -25t-13 -44.5l-88 -546q-6 -34 -17 -45t-47 -11q-19 0 -31 8t-18 18.5t-20 41.5
q-39 85 -90.5 180l-114 202t-84.5 148h-2q-7 -62 -25.5 -182l-32.5 -211t-14 -108q0 -12 8.5 -20.5t19 -12t19 -12t8.5 -21.5q0 -11 -11.5 -19t-30.5 -8h-137q-30 0 -30 28q0 13 10.5 20t24 11t28 26t20.5 61q9 61 30 176t33 194t12 120q0 15 -9 24.5t-19 13t-19 11t-9 19.5
q0 28 60 28zM342 810q0 23 32.5 61t63.5 38q21 0 64.5 -16t59.5 -16q21 0 40.5 18t29.5 18q7 0 12.5 -5.5t5.5 -13.5q0 -21 -32.5 -59t-64.5 -38q-21 0 -65 16t-60 16q-19 0 -40 -18t-29 -18q-7 0 -12 5t-5 12z" />
    <glyph glyph-name="Ograve" unicode="&#xd2;" horiz-adv-x="820" 
d="M40 306q0 184 125.5 312t304.5 128q148 0 243 -86t95 -234q0 -184 -125.5 -312t-304.5 -128q-148 0 -243 86t-95 234zM194 284q0 -102 45 -166t139 -64q69 0 124 38.5t87 99.5t48.5 127t16.5 129q0 102 -45 166t-139 64q-69 0 -124 -38.5t-87 -99.5t-48.5 -127
t-16.5 -129zM407 931h79q22 0 29 -20l38 -104q10 -26 10 -31q0 -13 -24 -13q-15 0 -42 28l-92 95q-22 22 -22 30q0 15 24 15z" />
    <glyph glyph-name="Oacute" unicode="&#xd3;" horiz-adv-x="820" 
d="M40 306q0 184 125.5 312t304.5 128q148 0 243 -86t95 -234q0 -184 -125.5 -312t-304.5 -128q-148 0 -243 86t-95 234zM194 284q0 -102 45 -166t139 -64q69 0 124 38.5t87 99.5t48.5 127t16.5 129q0 102 -45 166t-139 64q-69 0 -124 -38.5t-87 -99.5t-48.5 -127
t-16.5 -129zM628 882l-146 -111q-11 -8 -35 -8q-17 0 -17 11q0 7 17 31l74 104q10 14 18.5 18t28.5 4h62q26 0 26 -15q0 -13 -28 -34z" />
    <glyph glyph-name="Ocircumflex" unicode="&#xd4;" horiz-adv-x="820" 
d="M40 306q0 184 125.5 312t304.5 128q148 0 243 -86t95 -234q0 -184 -125.5 -312t-304.5 -128q-148 0 -243 86t-95 234zM194 284q0 -102 45 -166t139 -64q69 0 124 38.5t87 99.5t48.5 127t16.5 129q0 102 -45 166t-139 64q-69 0 -124 -38.5t-87 -99.5t-48.5 -127
t-16.5 -129zM521 843l-123 -71q-18 -9 -26 -9t-13.5 5.5t-5.5 13.5q0 12 24 31l129 111q15 13 28 13q18 0 28 -17l75 -106q18 -25 18 -33q0 -7 -6.5 -12.5t-14.5 -5.5t-35 21z" />
    <glyph glyph-name="Otilde" unicode="&#xd5;" horiz-adv-x="820" 
d="M40 306q0 184 125.5 312t304.5 128q148 0 243 -86t95 -234q0 -184 -125.5 -312t-304.5 -128q-148 0 -243 86t-95 234zM194 284q0 -102 45 -166t139 -64q69 0 124 38.5t87 99.5t48.5 127t16.5 129q0 102 -45 166t-139 64q-69 0 -124 -38.5t-87 -99.5t-48.5 -127
t-16.5 -129zM357 810q0 23 32.5 61t63.5 38q21 0 64.5 -16t59.5 -16q21 0 40.5 18t29.5 18q7 0 12.5 -5.5t5.5 -13.5q0 -21 -32.5 -59t-64.5 -38q-21 0 -65 16t-60 16q-19 0 -40 -18t-29 -18q-7 0 -12 5t-5 12z" />
    <glyph glyph-name="Odieresis" unicode="&#xd6;" horiz-adv-x="820" 
d="M40 306q0 184 125.5 312t304.5 128q148 0 243 -86t95 -234q0 -184 -125.5 -312t-304.5 -128q-148 0 -243 86t-95 234zM194 284q0 -102 45 -166t139 -64q69 0 124 38.5t87 99.5t48.5 127t16.5 129q0 102 -45 166t-139 64q-69 0 -124 -38.5t-87 -99.5t-48.5 -127
t-16.5 -129zM338 848q0 30 21 51.5t51 21.5t46 -15.5t16 -42.5q0 -31 -21 -52.5t-50 -21.5q-30 0 -46.5 16t-16.5 43zM562 848q0 30 21 51.5t51 21.5t46 -15.5t16 -42.5q0 -31 -21 -52.5t-50 -21.5q-30 0 -46.5 16t-16.5 43z" />
    <glyph glyph-name="multiply" unicode="&#xd7;" horiz-adv-x="600" 
d="M244 235l-168 168l67 67l168 -168l168 168l67 -67l-168 -168l168 -168l-67 -67l-168 168l-168 -168l-67 67z" />
    <glyph glyph-name="Oslash" unicode="&#xd8;" horiz-adv-x="820" 
d="M209 181l399 433q-46 64 -138 64q-69 0 -124 -38.5t-87 -99.5t-48.5 -127t-16.5 -129q0 -61 15 -103zM639 550l-400 -431q45 -65 139 -65q69 0 124 38.5t87 99.5t48.5 127t16.5 129q0 60 -15 102zM752 672l-25 -27q81 -83 81 -219q0 -184 -125.5 -312t-304.5 -128
q-121 0 -207 59q-4 -5 -10.5 -12t-9.5 -10.5l-7.5 -8.5t-7 -7t-6.5 -5.5t-6.5 -4.5l-6 -2.5t-6.5 -2t-7 -0.5q-10 0 -19 9t-9 19q0 15 22 39l24 27q-82 84 -82 220q0 184 125.5 312t304.5 128q120 0 207 -58l34 37q21 21 38 21q10 0 19.5 -8.5t9.5 -18.5q0 -19 -26 -47z" />
    <glyph glyph-name="Ugrave" unicode="&#xd9;" horiz-adv-x="780" 
d="M152 732h170q44 0 44 -25q0 -15 -8 -23t-18 -11t-22 -13t-18 -28q-24 -68 -55 -219.5t-31 -211.5q0 -70 45.5 -108.5t121.5 -38.5q128 0 193 117q33 59 52.5 225.5t19.5 232.5q0 19 -8 31t-17 16t-17 10.5t-8 16.5q0 29 38 29h131q35 0 35 -25q0 -15 -9 -21.5t-21 -9
t-24 -22t-16 -56.5q-6 -48 -14.5 -126t-13.5 -118t-13.5 -89.5t-19 -80.5t-25.5 -51q-56 -76 -123.5 -111.5t-164.5 -35.5q-148 0 -219 58t-71 157q0 69 40 245t40 196t-20 32.5t-20 27.5q0 30 46 30zM400 931h79q22 0 29 -20l38 -104q10 -26 10 -31q0 -13 -24 -13
q-15 0 -42 28l-92 95q-22 22 -22 30q0 15 24 15z" />
    <glyph glyph-name="Uacute" unicode="&#xda;" horiz-adv-x="780" 
d="M152 732h170q44 0 44 -25q0 -15 -8 -23t-18 -11t-22 -13t-18 -28q-24 -68 -55 -219.5t-31 -211.5q0 -70 45.5 -108.5t121.5 -38.5q128 0 193 117q33 59 52.5 225.5t19.5 232.5q0 19 -8 31t-17 16t-17 10.5t-8 16.5q0 29 38 29h131q35 0 35 -25q0 -15 -9 -21.5t-21 -9
t-24 -22t-16 -56.5q-6 -48 -14.5 -126t-13.5 -118t-13.5 -89.5t-19 -80.5t-25.5 -51q-56 -76 -123.5 -111.5t-164.5 -35.5q-148 0 -219 58t-71 157q0 69 40 245t40 196t-20 32.5t-20 27.5q0 30 46 30zM631 882l-146 -111q-11 -8 -35 -8q-17 0 -17 11q0 7 17 31l74 104
q10 14 18.5 18t28.5 4h62q26 0 26 -15q0 -13 -28 -34z" />
    <glyph glyph-name="Ucircumflex" unicode="&#xdb;" horiz-adv-x="780" 
d="M152 732h170q44 0 44 -25q0 -15 -8 -23t-18 -11t-22 -13t-18 -28q-24 -68 -55 -219.5t-31 -211.5q0 -70 45.5 -108.5t121.5 -38.5q128 0 193 117q33 59 52.5 225.5t19.5 232.5q0 19 -8 31t-17 16t-17 10.5t-8 16.5q0 29 38 29h131q35 0 35 -25q0 -15 -9 -21.5t-21 -9
t-24 -22t-16 -56.5q-6 -48 -14.5 -126t-13.5 -118t-13.5 -89.5t-19 -80.5t-25.5 -51q-56 -76 -123.5 -111.5t-164.5 -35.5q-148 0 -219 58t-71 157q0 69 40 245t40 196t-20 32.5t-20 27.5q0 30 46 30zM509 843l-123 -71q-18 -9 -26 -9t-13.5 5.5t-5.5 13.5q0 12 24 31
l129 111q15 13 28 13q18 0 28 -17l75 -106q18 -25 18 -33q0 -7 -6.5 -12.5t-14.5 -5.5t-35 21z" />
    <glyph glyph-name="Udieresis" unicode="&#xdc;" horiz-adv-x="780" 
d="M152 732h170q44 0 44 -25q0 -15 -8 -23t-18 -11t-22 -13t-18 -28q-24 -68 -55 -219.5t-31 -211.5q0 -70 45.5 -108.5t121.5 -38.5q128 0 193 117q33 59 52.5 225.5t19.5 232.5q0 19 -8 31t-17 16t-17 10.5t-8 16.5q0 29 38 29h131q35 0 35 -25q0 -15 -9 -21.5t-21 -9
t-24 -22t-16 -56.5q-6 -48 -14.5 -126t-13.5 -118t-13.5 -89.5t-19 -80.5t-25.5 -51q-56 -76 -123.5 -111.5t-164.5 -35.5q-148 0 -219 58t-71 157q0 69 40 245t40 196t-20 32.5t-20 27.5q0 30 46 30zM331 848q0 30 21.5 51.5t50.5 21.5q30 0 46 -15.5t16 -42.5
q0 -31 -21 -52.5t-50 -21.5q-30 0 -46.5 16t-16.5 43zM555 848q0 30 21.5 51.5t50.5 21.5q30 0 46 -15.5t16 -42.5q0 -31 -21 -52.5t-50 -21.5q-30 0 -46.5 16t-16.5 43z" />
    <glyph glyph-name="Yacute" unicode="&#xdd;" horiz-adv-x="740" 
d="M110 732h180q42 0 42 -25q0 -12 -9 -20t-19 -11.5t-19 -12.5t-9 -23q0 -32 49 -124t88 -154q80 79 154 169.5t74 118.5q0 16 -21.5 27.5t-21.5 25.5q0 29 45 29h123q36 0 36 -24q0 -3 -0.5 -6t-1.5 -5t-3 -5t-3.5 -4.5t-5 -4.5t-5.5 -4.5l-6.5 -5t-6.5 -5.5
q-12 -10 -52 -58l-115.5 -136l-152.5 -171q-5 -34 -14 -87t-13 -81t-4 -43t9 -24t20.5 -11.5t20.5 -9t9 -18.5q0 -13 -9 -21t-24 -8h-206q-53 0 -53 25q0 16 7.5 23.5t18.5 10.5t23 8t23 21.5t16 46.5l26 156q-62 90 -106 182l-65 139t-44 60q-8 4 -11 6.5l-7 6t-5.5 8
t-1.5 11.5q0 28 50 28zM588 882l-146 -111q-11 -8 -35 -8q-17 0 -17 11q0 7 17 31l74 104q10 14 18.5 18t28.5 4h62q26 0 26 -15q0 -13 -28 -34z" />
    <glyph glyph-name="Thorn" unicode="&#xde;" horiz-adv-x="680" 
d="M272 461l-38 -235q121 0 211.5 59.5t90.5 145.5q0 60 -42 87.5t-111 27.5q-60 0 -81 -16t-30 -69zM158 732h188q34 0 34 -28q0 -12 -10 -19t-22.5 -11t-25.5 -20.5t-18 -43.5h150q106 0 171 -41t65 -129q0 -50 -29 -97.5t-84 -87.5t-145.5 -65.5t-204.5 -27.5
q-9 -47 -9 -67q0 -15 7.5 -25t16.5 -13t16.5 -9.5t7.5 -17.5q0 -30 -44 -30h-182q-36 0 -36 24q0 14 9.5 21t22 11.5t25.5 24t19 53.5l67 403q1 9 5.5 32t7 40t2.5 30q0 18 -12.5 27t-25 16t-12.5 20q0 30 46 30z" />
    <glyph glyph-name="germandbls" unicode="&#xdf;" horiz-adv-x="590" 
d="M160 0h-120q-38 0 -38 25q0 15 7.5 20.5t17.5 7t21 16t16 44.5l68 405q19 113 83 174.5t168 61.5q85 0 143 -38t58 -104q0 -34 -22 -68t-48 -56t-48 -44.5t-22 -36.5q0 -18 27 -65t54 -103.5t27 -98.5q0 -68 -48.5 -109t-118.5 -41q-58 0 -99.5 25t-41.5 51q0 14 8 21
t18 7q12 0 39.5 -20t51.5 -20t41.5 14.5t17.5 43.5q0 39 -47 126t-47 118q0 20 12 42.5t22.5 34.5l35.5 39q70 78 70 137q0 35 -22 58t-57 23q-47 0 -78 -38t-47 -131l-84 -503q-3 -18 -18 -18z" />
    <glyph glyph-name="agrave" unicode="&#xe0;" horiz-adv-x="580" 
d="M32 179q0 115 84 208t198 93q79 0 116 -58q55 58 88 58q11 0 17.5 -8t6.5 -18q0 -3 -14.5 -67t-29 -143t-14.5 -118q0 -19 9.5 -28t20.5 -10t20.5 -7t9.5 -19q0 -18 -59.5 -45t-81.5 -27q-35 0 -35 47q0 1 6 79l-2 2q-27 -58 -70.5 -93t-102.5 -35q-79 0 -123 54.5
t-44 134.5zM164 172q0 -41 18.5 -74.5t56.5 -33.5q48 0 84.5 53t51.5 112.5t15 103.5q0 37 -18.5 60t-54.5 23q-46 0 -83 -46t-53.5 -100.5t-16.5 -97.5zM260 696h79q22 0 29 -20l38 -104q10 -26 10 -31q0 -13 -24 -13q-15 0 -42 28l-92 95q-22 22 -22 30q0 15 24 15z" />
    <glyph glyph-name="aacute" unicode="&#xe1;" horiz-adv-x="580" 
d="M32 179q0 115 84 208t198 93q79 0 116 -58q55 58 88 58q11 0 17.5 -8t6.5 -18q0 -3 -14.5 -67t-29 -143t-14.5 -118q0 -19 9.5 -28t20.5 -10t20.5 -7t9.5 -19q0 -18 -59.5 -45t-81.5 -27q-35 0 -35 47q0 1 6 79l-2 2q-27 -58 -70.5 -93t-102.5 -35q-79 0 -123 54.5
t-44 134.5zM164 172q0 -41 18.5 -74.5t56.5 -33.5q48 0 84.5 53t51.5 112.5t15 103.5q0 37 -18.5 60t-54.5 23q-46 0 -83 -46t-53.5 -100.5t-16.5 -97.5zM471 647l-146 -111q-11 -8 -35 -8q-17 0 -17 11q0 7 17 31l74 104q10 14 18.5 18t28.5 4h62q26 0 26 -15
q0 -13 -28 -34z" />
    <glyph glyph-name="acircumflex" unicode="&#xe2;" horiz-adv-x="580" 
d="M32 179q0 115 84 208t198 93q79 0 116 -58q55 58 88 58q11 0 17.5 -8t6.5 -18q0 -3 -14.5 -67t-29 -143t-14.5 -118q0 -19 9.5 -28t20.5 -10t20.5 -7t9.5 -19q0 -18 -59.5 -45t-81.5 -27q-35 0 -35 47q0 1 6 79l-2 2q-27 -58 -70.5 -93t-102.5 -35q-79 0 -123 54.5
t-44 134.5zM164 172q0 -41 18.5 -74.5t56.5 -33.5q48 0 84.5 53t51.5 112.5t15 103.5q0 37 -18.5 60t-54.5 23q-46 0 -83 -46t-53.5 -100.5t-16.5 -97.5zM364 608l-123 -71q-18 -9 -26 -9q-7 0 -13 6t-6 13q0 12 24 31l129 111q15 13 28 13q18 0 28 -17l75 -106
q18 -25 18 -33q0 -7 -6.5 -12.5t-14.5 -5.5t-35 21z" />
    <glyph glyph-name="atilde" unicode="&#xe3;" horiz-adv-x="580" 
d="M32 179q0 115 84 208t198 93q79 0 116 -58q55 58 88 58q11 0 17.5 -8t6.5 -18q0 -3 -14.5 -67t-29 -143t-14.5 -118q0 -19 9.5 -28t20.5 -10t20.5 -7t9.5 -19q0 -18 -59.5 -45t-81.5 -27q-35 0 -35 47q0 1 6 79l-2 2q-27 -58 -70.5 -93t-102.5 -35q-79 0 -123 54.5
t-44 134.5zM164 172q0 -41 18.5 -74.5t56.5 -33.5q48 0 84.5 53t51.5 112.5t15 103.5q0 37 -18.5 60t-54.5 23q-46 0 -83 -46t-53.5 -100.5t-16.5 -97.5zM200 575q0 23 32.5 61t63.5 38q21 0 64.5 -16t59.5 -16q21 0 40.5 18t29.5 18q7 0 12.5 -5.5t5.5 -13.5
q0 -21 -32.5 -59t-64.5 -38q-21 0 -65 16t-60 16q-19 0 -40 -18t-29 -18q-7 0 -12 5t-5 12z" />
    <glyph glyph-name="adieresis" unicode="&#xe4;" horiz-adv-x="580" 
d="M32 179q0 115 84 208t198 93q79 0 116 -58q55 58 88 58q11 0 17.5 -8t6.5 -18q0 -3 -14.5 -67t-29 -143t-14.5 -118q0 -19 9.5 -28t20.5 -10t20.5 -7t9.5 -19q0 -18 -59.5 -45t-81.5 -27q-35 0 -35 47q0 1 6 79l-2 2q-27 -58 -70.5 -93t-102.5 -35q-79 0 -123 54.5
t-44 134.5zM164 172q0 -41 18.5 -74.5t56.5 -33.5q48 0 84.5 53t51.5 112.5t15 103.5q0 37 -18.5 60t-54.5 23q-46 0 -83 -46t-53.5 -100.5t-16.5 -97.5zM181 613q0 31 21.5 52t50.5 21q30 0 46 -15.5t16 -42.5q0 -31 -21 -52.5t-50 -21.5q-30 0 -46.5 16t-16.5 43zM405 613
q0 31 21.5 52t50.5 21q30 0 46 -15.5t16 -42.5q0 -31 -21 -52.5t-50 -21.5q-30 0 -46.5 16t-16.5 43z" />
    <glyph glyph-name="aring" unicode="&#xe5;" horiz-adv-x="580" 
d="M32 179q0 115 84 208t198 93q79 0 116 -58q55 58 88 58q11 0 17.5 -8t6.5 -18q0 -3 -14.5 -67t-29 -143t-14.5 -118q0 -19 9.5 -28t20.5 -10t20.5 -7t9.5 -19q0 -18 -59.5 -45t-81.5 -27q-35 0 -35 47q0 1 6 79l-2 2q-27 -58 -70.5 -93t-102.5 -35q-79 0 -123 54.5
t-44 134.5zM164 172q0 -41 18.5 -74.5t56.5 -33.5q48 0 84.5 53t51.5 112.5t15 103.5q0 37 -18.5 60t-54.5 23q-46 0 -83 -46t-53.5 -100.5t-16.5 -97.5zM246 624q0 42 29.5 71t70.5 29t70.5 -29t29.5 -71t-29.5 -71t-70.5 -29t-70.5 29t-29.5 71zM300 624q0 -20 13.5 -33
t32.5 -13t32.5 13t13.5 33t-13.5 33t-32.5 13t-32.5 -13t-13.5 -33z" />
    <glyph glyph-name="ae" unicode="&#xe6;" horiz-adv-x="860" 
d="M4 113q0 33 14.5 59.5t36 44t56.5 31t63.5 20.5t70 12.5t64.5 7t57 2.5q4 24 4 34q0 45 -27 68.5t-73 23.5q-35 0 -59 -17t-43.5 -34t-44.5 -17q-19 0 -34.5 10t-15.5 28q0 42 62 68t139 26q146 0 176 -88q39 45 96.5 67t118.5 21q84 0 130.5 -33t46.5 -79
q0 -135 -336 -181q-5 0 -13.5 -1t-12.5 -2q-2 -59 31.5 -89.5t95.5 -30.5q40 0 80.5 18.5t68 37t37.5 18.5t17.5 -6.5t7.5 -16.5q0 -24 -41.5 -54t-101.5 -50.5t-109 -20.5q-58 -1 -106 22.5t-70 73.5q-81 -96 -213 -96q-67 0 -120 30.5t-53 92.5zM136 122q0 -30 20.5 -49
t48.5 -19q69 0 106.5 53.5t48.5 128.5q-224 -18 -224 -114zM656 416q-58 0 -111 -54.5t-63 -113.5q27 0 64.5 7.5t76.5 21t66 38t27 53.5q0 23 -16 35.5t-44 12.5z" />
    <glyph glyph-name="ccedilla" unicode="&#xe7;" horiz-adv-x="500" 
d="M213 -10l-11 -42q5 0 21 2t25 2q37 0 61 -17.5t24 -43.5q0 -38 -45.5 -65.5t-104.5 -27.5q-51 0 -95.5 14t-44.5 33q0 10 7 17t16 7q5 0 45 -15.5t70 -15.5q36 0 54 13t18 31q0 13 -12 21.5t-32 8.5q-12 0 -27 -4t-22 -4q-15 0 -15 14q0 2 2.5 12t8 29.5t9.5 38.5
q-64 17 -103.5 65.5t-39.5 117.5q0 119 89.5 209t208.5 90q66 0 114 -29.5t48 -70.5q0 -23 -18 -39.5t-42 -16.5t-37 14.5t-17.5 31.5t-18.5 31.5t-39 14.5q-56 0 -103 -75.5t-47 -160.5q0 -53 26.5 -84.5t78.5 -31.5q38 0 73 18.5t58.5 37t32.5 18.5q10 0 17.5 -6.5
t7.5 -16.5q0 -41 -77 -83t-151 -42h-13z" />
    <glyph glyph-name="egrave" unicode="&#xe8;" horiz-adv-x="540" 
d="M22 186q0 80 48 149t122 107t153 38q84 0 130.5 -33t46.5 -79q0 -135 -336 -181q-5 0 -13.5 -1t-12.5 -2q-2 -59 31.5 -89.5t95.5 -30.5q40 0 80.5 18.5t68 37t37.5 18.5t17.5 -6.5t7.5 -16.5q0 -24 -41.5 -54t-102.5 -50.5t-112 -20.5q-95 0 -157.5 52t-62.5 144z
M336 416q-58 0 -111 -54.5t-63 -113.5q27 0 64.5 7.5t76.5 21t66 38t27 53.5q0 23 -16 35.5t-44 12.5zM250 696h79q22 0 29 -20l38 -104q10 -26 10 -31q0 -13 -24 -13q-15 0 -42 28l-92 95q-22 22 -22 30q0 15 24 15z" />
    <glyph glyph-name="eacute" unicode="&#xe9;" horiz-adv-x="540" 
d="M22 186q0 80 48 149t122 107t153 38q84 0 130.5 -33t46.5 -79q0 -135 -336 -181q-5 0 -13.5 -1t-12.5 -2q-2 -59 31.5 -89.5t95.5 -30.5q40 0 80.5 18.5t68 37t37.5 18.5t17.5 -6.5t7.5 -16.5q0 -24 -41.5 -54t-102.5 -50.5t-112 -20.5q-95 0 -157.5 52t-62.5 144z
M336 416q-58 0 -111 -54.5t-63 -113.5q27 0 64.5 7.5t76.5 21t66 38t27 53.5q0 23 -16 35.5t-44 12.5zM461 647l-146 -111q-11 -8 -35 -8q-17 0 -17 11q0 7 17 31l74 104q10 14 18.5 18t28.5 4h62q26 0 26 -15q0 -13 -28 -34z" />
    <glyph glyph-name="ecircumflex" unicode="&#xea;" horiz-adv-x="540" 
d="M22 186q0 80 48 149t122 107t153 38q84 0 130.5 -33t46.5 -79q0 -135 -336 -181q-5 0 -13.5 -1t-12.5 -2q-2 -59 31.5 -89.5t95.5 -30.5q40 0 80.5 18.5t68 37t37.5 18.5t17.5 -6.5t7.5 -16.5q0 -24 -41.5 -54t-102.5 -50.5t-112 -20.5q-95 0 -157.5 52t-62.5 144z
M336 416q-58 0 -111 -54.5t-63 -113.5q27 0 64.5 7.5t76.5 21t66 38t27 53.5q0 23 -16 35.5t-44 12.5zM354 608l-123 -71q-18 -9 -26 -9q-7 0 -13 6t-6 13q0 12 24 31l129 111q15 13 28 13q18 0 28 -17l75 -106q18 -25 18 -33q0 -7 -6.5 -12.5t-14.5 -5.5t-35 21z" />
    <glyph glyph-name="edieresis" unicode="&#xeb;" horiz-adv-x="540" 
d="M22 186q0 80 48 149t122 107t153 38q84 0 130.5 -33t46.5 -79q0 -135 -336 -181q-5 0 -13.5 -1t-12.5 -2q-2 -59 31.5 -89.5t95.5 -30.5q40 0 80.5 18.5t68 37t37.5 18.5t17.5 -6.5t7.5 -16.5q0 -24 -41.5 -54t-102.5 -50.5t-112 -20.5q-95 0 -157.5 52t-62.5 144z
M336 416q-58 0 -111 -54.5t-63 -113.5q27 0 64.5 7.5t76.5 21t66 38t27 53.5q0 23 -16 35.5t-44 12.5zM171 613q0 31 21.5 52t50.5 21q30 0 46 -15.5t16 -42.5q0 -31 -21 -52.5t-50 -21.5q-30 0 -46.5 16t-16.5 43zM395 613q0 31 21.5 52t50.5 21q30 0 46 -15.5t16 -42.5
q0 -31 -21 -52.5t-50 -21.5q-30 0 -46.5 16t-16.5 43z" />
    <glyph glyph-name="igrave" unicode="&#xec;" 
d="M56 402q0 24 69.5 51t87.5 27q35 0 35 -43q0 -23 -28 -165.5t-28 -158.5q0 -13 9 -19t19 -7.5t19 -8t9 -19.5q0 -20 -66.5 -44.5t-88.5 -24.5q-37 0 -37 46q0 28 25 155t25 157q0 14 -8 21t-17 8.5t-17 7t-8 17.5zM93 696h79q22 0 29 -20l38 -104q10 -26 10 -31
q0 -13 -24 -13q-15 0 -42 28l-92 95q-22 22 -22 30q0 15 24 15z" />
    <glyph glyph-name="iacute" unicode="&#xed;" 
d="M56 402q0 24 69.5 51t87.5 27q35 0 35 -43q0 -23 -28 -165.5t-28 -158.5q0 -13 9 -19t19 -7.5t19 -8t9 -19.5q0 -20 -66.5 -44.5t-88.5 -24.5q-37 0 -37 46q0 28 25 155t25 157q0 14 -8 21t-17 8.5t-17 7t-8 17.5zM304 647l-146 -111q-11 -8 -35 -8q-17 0 -17 11
q0 7 17 31l74 104q10 14 18.5 18t28.5 4h62q26 0 26 -15q0 -13 -28 -34z" />
    <glyph glyph-name="icircumflex" unicode="&#xee;" 
d="M56 402q0 24 69.5 51t87.5 27q35 0 35 -43q0 -23 -28 -165.5t-28 -158.5q0 -13 9 -19t19 -7.5t19 -8t9 -19.5q0 -20 -66.5 -44.5t-88.5 -24.5q-37 0 -37 46q0 28 25 155t25 157q0 14 -8 21t-17 8.5t-17 7t-8 17.5zM197 608l-123 -71q-18 -9 -26 -9t-13.5 6t-5.5 13
q0 12 24 31l129 111q15 13 28 13q18 0 28 -17l75 -106q18 -25 18 -33q0 -7 -6.5 -12.5t-14.5 -5.5t-35 21z" />
    <glyph glyph-name="idieresis" unicode="&#xef;" 
d="M56 402q0 24 69.5 51t87.5 27q35 0 35 -43q0 -23 -28 -165.5t-28 -158.5q0 -13 9 -19t19 -7.5t19 -8t9 -19.5q0 -20 -66.5 -44.5t-88.5 -24.5q-37 0 -37 46q0 28 25 155t25 157q0 14 -8 21t-17 8.5t-17 7t-8 17.5zM14 613q0 31 21 52t51 21t46 -15.5t16 -42.5
q0 -31 -21 -52.5t-50 -21.5q-30 0 -46.5 16t-16.5 43zM238 613q0 31 21 52t51 21t46 -15.5t16 -42.5q0 -31 -21 -52.5t-50 -21.5q-30 0 -46.5 16t-16.5 43z" />
    <glyph glyph-name="eth" unicode="&#xf0;" horiz-adv-x="600" 
d="M22 201q0 116 92.5 197.5t213.5 81.5q34 0 62 -6q-29 68 -82 118q-31 -15 -60.5 -31l-43 -23t-25 -12t-18.5 -5q-11 0 -19.5 8t-8.5 18q0 19 14.5 30.5t77.5 45.5l29 16q-54 40 -125 63q-17 6 -17 22q0 12 8 21t22 9q77 0 188 -74l54.5 28.5t63 32t32.5 11.5q12 0 21 -10
t9 -25q0 -7 -5.5 -14t-19 -16t-24.5 -15t-35 -18l-37 -19q80 -69 130.5 -160.5t50.5 -193.5q0 -126 -91 -208.5t-215 -82.5q-103 0 -172.5 57.5t-69.5 153.5zM160 178q0 -54 26.5 -89t78.5 -35q55 0 95 41.5t56 93.5t16 103q0 54 -26.5 89t-78.5 35q-55 0 -95 -41.5
t-56 -93.5t-16 -103z" />
    <glyph glyph-name="ntilde" unicode="&#xf1;" horiz-adv-x="640" 
d="M143 0h-64q-29 0 -29 17q0 4 28 145t28 179q0 18 -8 27.5t-18 11.5t-18 8t-8 18q0 16 63.5 45t80.5 29q14 0 24 -15.5t10 -48.5q0 -30 -12 -86l2 -2q32 66 83 109t118 43q56 0 96.5 -33.5t40.5 -88.5q0 -36 -20 -129t-20 -109q0 -17 8.5 -25.5t18.5 -9t18.5 -5.5t8.5 -15
q0 -24 -65.5 -49.5t-95.5 -25.5q-35 0 -35 46q0 28 25 147.5t25 149.5q0 67 -58 67q-127 0 -185 -356q-1 -8 -2 -11q-4 -22 -11 -27.5t-29 -5.5zM212 575q0 23 32.5 61t63.5 38q21 0 64.5 -16t59.5 -16q21 0 40.5 18t29.5 18q7 0 12.5 -5.5t5.5 -13.5q0 -21 -32.5 -59
t-64.5 -38q-21 0 -65 16t-60 16q-19 0 -40 -18t-29 -18q-7 0 -12 5t-5 12z" />
    <glyph glyph-name="ograve" unicode="&#xf2;" horiz-adv-x="600" 
d="M22 201q0 116 92.5 197.5t213.5 81.5q103 0 172.5 -57.5t69.5 -153.5q0 -116 -92.5 -197.5t-213.5 -81.5q-103 0 -172.5 57.5t-69.5 153.5zM160 178q0 -54 26.5 -89t78.5 -35q55 0 95 41.5t56 93.5t16 103q0 54 -26.5 89t-78.5 35q-55 0 -95 -41.5t-56 -93.5t-16 -103z
M261 696h79q22 0 29 -20l38 -104q10 -26 10 -31q0 -13 -24 -13q-15 0 -42 28l-92 95q-22 22 -22 30q0 15 24 15z" />
    <glyph glyph-name="oacute" unicode="&#xf3;" horiz-adv-x="600" 
d="M22 201q0 116 92.5 197.5t213.5 81.5q103 0 172.5 -57.5t69.5 -153.5q0 -116 -92.5 -197.5t-213.5 -81.5q-103 0 -172.5 57.5t-69.5 153.5zM160 178q0 -54 26.5 -89t78.5 -35q55 0 95 41.5t56 93.5t16 103q0 54 -26.5 89t-78.5 35q-55 0 -95 -41.5t-56 -93.5t-16 -103z
M472 647l-146 -111q-11 -8 -35 -8q-17 0 -17 11q0 7 17 31l74 104q10 14 18.5 18t28.5 4h62q26 0 26 -15q0 -13 -28 -34z" />
    <glyph glyph-name="ocircumflex" unicode="&#xf4;" horiz-adv-x="600" 
d="M22 201q0 116 92.5 197.5t213.5 81.5q103 0 172.5 -57.5t69.5 -153.5q0 -116 -92.5 -197.5t-213.5 -81.5q-103 0 -172.5 57.5t-69.5 153.5zM160 178q0 -54 26.5 -89t78.5 -35q55 0 95 41.5t56 93.5t16 103q0 54 -26.5 89t-78.5 35q-55 0 -95 -41.5t-56 -93.5t-16 -103z
M365 608l-123 -71q-18 -9 -26 -9t-13.5 6t-5.5 13q0 12 24 31l129 111q15 13 28 13q18 0 28 -17l75 -106q18 -25 18 -33q0 -7 -6.5 -12.5t-14.5 -5.5t-35 21z" />
    <glyph glyph-name="otilde" unicode="&#xf5;" horiz-adv-x="600" 
d="M22 201q0 116 92.5 197.5t213.5 81.5q103 0 172.5 -57.5t69.5 -153.5q0 -116 -92.5 -197.5t-213.5 -81.5q-103 0 -172.5 57.5t-69.5 153.5zM160 178q0 -54 26.5 -89t78.5 -35q55 0 95 41.5t56 93.5t16 103q0 54 -26.5 89t-78.5 35q-55 0 -95 -41.5t-56 -93.5t-16 -103z
M201 575q0 23 32.5 61t63.5 38q21 0 64.5 -16t59.5 -16q21 0 40.5 18t29.5 18q7 0 12.5 -5.5t5.5 -13.5q0 -21 -32.5 -59t-64.5 -38q-21 0 -65 16t-60 16q-19 0 -40 -18t-29 -18q-7 0 -12 5t-5 12z" />
    <glyph glyph-name="odieresis" unicode="&#xf6;" horiz-adv-x="600" 
d="M22 201q0 116 92.5 197.5t213.5 81.5q103 0 172.5 -57.5t69.5 -153.5q0 -116 -92.5 -197.5t-213.5 -81.5q-103 0 -172.5 57.5t-69.5 153.5zM160 178q0 -54 26.5 -89t78.5 -35q55 0 95 41.5t56 93.5t16 103q0 54 -26.5 89t-78.5 35q-55 0 -95 -41.5t-56 -93.5t-16 -103z
M182 613q0 31 21 52t51 21t46 -15.5t16 -42.5q0 -31 -21 -52.5t-50 -21.5q-30 0 -46.5 16t-16.5 43zM406 613q0 31 21 52t51 21t46 -15.5t16 -42.5q0 -31 -21 -52.5t-50 -21.5q-30 0 -46.5 16t-16.5 43z" />
    <glyph glyph-name="divide" unicode="&#xf7;" horiz-adv-x="600" 
d="M546 188h-470v94h470v-94zM244 38q0 28 19.5 47.5t47.5 19.5t47.5 -19.5t19.5 -47.5t-19.5 -47.5t-47.5 -19.5t-47.5 19.5t-19.5 47.5zM244 432q0 28 19.5 47.5t47.5 19.5t47.5 -19.5t19.5 -47.5t-19.5 -47.5t-47.5 -19.5t-47.5 19.5t-19.5 47.5z" />
    <glyph glyph-name="oslash" unicode="&#xf8;" horiz-adv-x="600" 
d="M166 133l236 253q-27 30 -75 30q-55 0 -95 -41.5t-56 -93.5t-16 -103q0 -24 6 -45zM426 339l-236 -253q27 -32 75 -32q55 0 95 41.5t56 93.5t16 103q0 26 -6 47zM570 269q0 -116 -92.5 -197.5t-213.5 -81.5q-77 0 -137 34q-5 -5 -21 -22.5t-26.5 -25.5t-21.5 -8
q-26 0 -26 25q0 13 51 62q-61 59 -61 146q0 116 92.5 197.5t213.5 81.5q78 0 137 -34q9 8 26.5 25.5t26 24t14.5 6.5q12 0 20 -7.5t8 -20.5q0 -14 -52 -59q62 -57 62 -146z" />
    <glyph glyph-name="ugrave" unicode="&#xf9;" horiz-adv-x="630" 
d="M468 470h82q16 0 16 -14t-26 -153t-26 -169q0 -18 9 -28t20 -12.5t20 -9t9 -17.5q0 -13 -65.5 -45t-81.5 -32q-37 0 -37 71q0 50 6 72l-2 2q-30 -63 -79 -104t-112 -41q-56 0 -96.5 33.5t-40.5 88.5q0 34 19 126t19 110q0 16 -8 24t-17 9.5t-17 6.5t-8 14q0 24 68 51
t92 27q32 0 32 -52q0 -25 -24 -147t-24 -152q0 -26 16 -42.5t41 -16.5q43 0 78.5 43.5t56 107.5t32 118.5t14.5 95.5q3 35 34 35zM276 696h79q22 0 29 -20l38 -104q10 -26 10 -31q0 -13 -24 -13q-15 0 -42 28l-92 95q-22 22 -22 30q0 15 24 15z" />
    <glyph glyph-name="uacute" unicode="&#xfa;" horiz-adv-x="630" 
d="M468 470h82q16 0 16 -14t-26 -153t-26 -169q0 -18 9 -28t20 -12.5t20 -9t9 -17.5q0 -13 -65.5 -45t-81.5 -32q-37 0 -37 71q0 50 6 72l-2 2q-30 -63 -79 -104t-112 -41q-56 0 -96.5 33.5t-40.5 88.5q0 34 19 126t19 110q0 16 -8 24t-17 9.5t-17 6.5t-8 14q0 24 68 51
t92 27q32 0 32 -52q0 -25 -24 -147t-24 -152q0 -26 16 -42.5t41 -16.5q43 0 78.5 43.5t56 107.5t32 118.5t14.5 95.5q3 35 34 35zM492 647l-146 -111q-11 -8 -35 -8q-17 0 -17 11q0 7 17 31l74 104q10 14 18.5 18t28.5 4h62q26 0 26 -15q0 -13 -28 -34z" />
    <glyph glyph-name="ucircumflex" unicode="&#xfb;" horiz-adv-x="630" 
d="M468 470h82q16 0 16 -14t-26 -153t-26 -169q0 -18 9 -28t20 -12.5t20 -9t9 -17.5q0 -13 -65.5 -45t-81.5 -32q-37 0 -37 71q0 50 6 72l-2 2q-30 -63 -79 -104t-112 -41q-56 0 -96.5 33.5t-40.5 88.5q0 34 19 126t19 110q0 16 -8 24t-17 9.5t-17 6.5t-8 14q0 24 68 51
t92 27q32 0 32 -52q0 -25 -24 -147t-24 -152q0 -26 16 -42.5t41 -16.5q43 0 78.5 43.5t56 107.5t32 118.5t14.5 95.5q3 35 34 35zM371 608l-123 -71q-18 -9 -26 -9t-13.5 6t-5.5 13q0 12 24 31l129 111q15 13 28 13q18 0 28 -17l75 -106q18 -25 18 -33q0 -7 -6.5 -12.5
t-14.5 -5.5t-35 21z" />
    <glyph glyph-name="udieresis" unicode="&#xfc;" horiz-adv-x="630" 
d="M468 470h82q16 0 16 -14t-26 -153t-26 -169q0 -18 9 -28t20 -12.5t20 -9t9 -17.5q0 -13 -65.5 -45t-81.5 -32q-37 0 -37 71q0 50 6 72l-2 2q-30 -63 -79 -104t-112 -41q-56 0 -96.5 33.5t-40.5 88.5q0 34 19 126t19 110q0 16 -8 24t-17 9.5t-17 6.5t-8 14q0 24 68 51
t92 27q32 0 32 -52q0 -25 -24 -147t-24 -152q0 -26 16 -42.5t41 -16.5q43 0 78.5 43.5t56 107.5t32 118.5t14.5 95.5q3 35 34 35zM188 613q0 31 21 52t51 21t46 -15.5t16 -42.5q0 -31 -21 -52.5t-50 -21.5q-30 0 -46.5 16t-16.5 43zM412 613q0 31 21 52t51 21t46 -15.5
t16 -42.5q0 -31 -21 -52.5t-50 -21.5q-30 0 -46.5 16t-16.5 43z" />
    <glyph glyph-name="yacute" unicode="&#xfd;" horiz-adv-x="530" 
d="M38 416q0 21 67 42.5t86 21.5q35 0 35 -38q0 -11 -8 -92.5t-8 -93.5q0 -96 21.5 -144t54.5 -48t68.5 51t55.5 108t20 85q0 27 -22 53.5t-22 49.5q0 32 18 50.5t43 18.5q27 0 45 -24t18 -74q0 -78 -40.5 -179.5t-92.5 -176.5q-23 -33 -54.5 -69t-71.5 -73.5t-84 -61.5
t-80 -24q-32 0 -51.5 14.5t-19.5 39.5q0 21 16 35.5t40 14.5q16 0 34 -9t27 -9q32 0 83 46.5t84 87.5l-2 2q-28 -30 -75 -30q-66 0 -102.5 59.5t-36.5 172.5q0 41 2 87t2 48q0 17 -8 25t-17 9t-17 6.5t-8 18.5zM447 647l-146 -111q-11 -8 -35 -8q-17 0 -17 11q0 7 17 31
l74 104q10 14 18.5 18t28.5 4h62q26 0 26 -15q0 -13 -28 -34z" />
    <glyph glyph-name="thorn" unicode="&#xfe;" horiz-adv-x="620" 
d="M155 -194h-138q-45 0 -45 27q0 13 5 17t13 6.5t17 9t19.5 31t17.5 65.5q112 642 112 658q0 12 -7.5 20t-16.5 11t-16.5 9t-7.5 15q0 24 66.5 51.5t96.5 27.5q27 0 27 -30q0 -25 -22.5 -147t-48.5 -226h3q66 129 182 129q83 0 130.5 -53t47.5 -137q0 -114 -87 -207
t-199 -93q-41 0 -65.5 12.5t-24.5 34.5q0 14 7 24t16 10q4 0 19 -3.5t26 -3.5q71 1 120.5 75.5t49.5 148.5q0 46 -21 78t-64 32q-111 0 -164 -250q-3 -14 -7 -37q-3 -13 -4 -19q-30 -150 -30 -195q0 -20 17.5 -34t17.5 -27q0 -30 -42 -30z" />
    <glyph glyph-name="ydieresis" unicode="&#xff;" horiz-adv-x="530" 
d="M38 416q0 21 67 42.5t86 21.5q35 0 35 -38q0 -11 -8 -92.5t-8 -93.5q0 -96 21.5 -144t54.5 -48t68.5 51t55.5 108t20 85q0 27 -22 53.5t-22 49.5q0 32 18 50.5t43 18.5q27 0 45 -24t18 -74q0 -78 -40.5 -179.5t-92.5 -176.5q-23 -33 -54.5 -69t-71.5 -73.5t-84 -61.5
t-80 -24q-32 0 -51.5 14.5t-19.5 39.5q0 21 16 35.5t40 14.5q16 0 34 -9t27 -9q32 0 83 46.5t84 87.5l-2 2q-28 -30 -75 -30q-66 0 -102.5 59.5t-36.5 172.5q0 41 2 87t2 48q0 17 -8 25t-17 9t-17 6.5t-8 18.5zM147 613q0 31 21.5 52t50.5 21q30 0 46 -15.5t16 -42.5
q0 -31 -21 -52.5t-50 -21.5q-30 0 -46.5 16t-16.5 43zM371 613q0 31 21.5 52t50.5 21q30 0 46 -15.5t16 -42.5q0 -31 -21 -52.5t-50 -21.5q-30 0 -46.5 16t-16.5 43z" />
    <glyph glyph-name="dotlessi" unicode="&#x131;" 
d="M56 402q0 24 69.5 51t87.5 27q35 0 35 -43q0 -23 -28 -165.5t-28 -158.5q0 -13 9 -19t19 -7.5t19 -8t9 -19.5q0 -20 -66.5 -44.5t-88.5 -24.5q-37 0 -37 46q0 28 25 155t25 157q0 14 -8 21t-17 8.5t-17 7t-8 17.5z" />
    <glyph glyph-name="Lslash" unicode="&#x141;" horiz-adv-x="650" 
d="M281 462l113 70q17 10 32 10q10 0 19 -10.5t9 -24.5q0 -13 -23 -27l-164 -102q-39 -222 -39 -269q0 -30 20.5 -37.5t100.5 -7.5q123 0 185 46q11 8 24 21t22 19t19 6q11 0 19 -7t8 -16q0 -14 -23 -73.5t-43 -59.5h-520q-36 0 -36 24q0 14 9.5 21t22 11.5t25.5 24t19 53.5
l24 144l-29 -18q-29 -19 -43 -19q-13 0 -21.5 12t-8.5 25q0 6 4 11.5t8 8.5t13.5 8t13.5 8l77 47l29 176q15 81 15 102q0 18 -12.5 27t-25 16t-12.5 20q0 30 46 30h196q32 0 32 -24q0 -18 -10.5 -26.5t-24 -11.5t-27 -17.5t-18.5 -42.5q-2 -15 -10.5 -64z" />
    <glyph glyph-name="lslash" unicode="&#x142;" horiz-adv-x="330" 
d="M261 495l58 35q22 12 32 12q11 0 17 -9t6 -17q0 -13 -28 -29l-98 -59q-50 -272 -50 -300q0 -19 8 -28.5t17 -11t17 -6.5t8 -16q0 -23 -72 -49.5t-93 -26.5q-27 0 -27 38q0 12 58 319l-55 -33q-14 -8 -24 -8t-16.5 7t-6.5 17q0 3 0.5 5.5t1.5 4t2.5 4t2.5 3.5t4 3t3.5 2.5
t4.5 3.5l4 2l91 55q34 186 34 207q0 25 -23 35.5t-23 28.5t68 44t93 26q27 0 27 -30q0 -19 -41 -229z" />
    <glyph glyph-name="OE" unicode="&#x152;" horiz-adv-x="1050" 
d="M615 732h397q40 0 40 -30q0 -11 -1 -24.5t-4 -35t-11 -36t-20 -14.5q-9 0 -16 3.5t-10 8l-8.5 13l-8.5 13.5q-26 38 -110 38q-71 0 -98 -5.5t-38 -20.5t-18 -57l-27 -159h136q32 0 51 9.5t29.5 19t21.5 9.5q10 0 16 -8t6 -19q0 -30 -10 -70.5t-34 -40.5q-11 0 -21 9
t-27 18t-46 9h-130q-1 -3 -12.5 -68.5t-17.5 -108t-6 -70.5q0 -29 15 -40t57 -11q91 0 131 10t73 36l17 15l15.5 14t14 9t17.5 4q10 0 17.5 -6t7.5 -15q0 -15 -21 -73t-37 -58h-452q-21 0 -21 13q0 7 2 15l-2 2q-48 -44 -141 -44q-135 0 -213 92.5t-78 229.5q0 108 49.5 208
t141 165t200.5 65q42 0 85 -12.5t69 -36.5q7 35 30 35zM198 264q0 -95 50.5 -152.5t129.5 -57.5q57 0 83 28t36 93l13 76.5l22.5 133t20 132.5t9.5 99q0 62 -99 62q-82 0 -144 -62t-91.5 -155t-29.5 -197z" />
    <glyph glyph-name="oe" unicode="&#x153;" horiz-adv-x="940" 
d="M22 201q0 116 92.5 197.5t213.5 81.5q129 0 192 -90q87 90 225 90q84 0 130.5 -33t46.5 -79q0 -29 -16.5 -54t-39 -42t-61.5 -32t-66.5 -23t-73.5 -16t-63.5 -10.5t-53.5 -6.5q-2 -56 42 -88t97 -32q40 0 80.5 18.5t68 37t37.5 18.5t17.5 -6.5t7.5 -16.5q0 -24 -41.5 -54
t-102.5 -50.5t-112 -20.5q-120 0 -174 82q-79 -82 -204 -82q-103 0 -172.5 57.5t-69.5 153.5zM160 178q0 -54 26.5 -89t78.5 -35q55 0 95 41.5t56 93.5t16 103q0 54 -26.5 89t-78.5 35q-55 0 -95 -41.5t-56 -93.5t-16 -103zM736 416q-66 0 -120.5 -54t-65.5 -114
q28 0 66.5 7.5t80 21t70.5 38t29 53.5q0 23 -16 35.5t-44 12.5z" />
    <glyph glyph-name="Scaron" unicode="&#x160;" horiz-adv-x="650" 
d="M4 162q0 37 20 59t49 22q32 0 45 -19.5t16.5 -47.5t12 -55.5t43.5 -47t99 -19.5q79 0 126 40.5t47 97.5q0 41 -38.5 68.5t-93 45.5t-109 39t-93 63.5t-38.5 105.5q0 71 45.5 125.5t110.5 80.5t135 26q91 0 169 -29.5t78 -60.5v-42q0 -92 -42 -92q-18 0 -26.5 16.5t-14 40
t-17.5 47t-46.5 40t-91.5 16.5q-61 0 -103.5 -34t-42.5 -79q0 -44 38.5 -74t93 -49t109 -40t93 -61t38.5 -99q0 -82 -50.5 -143t-123 -89t-152.5 -28q-41 0 -87 9.5t-92.5 29t-76.5 55.5t-30 82zM425 857l106 61q35 19 42 19t13 -5.5t6 -13.5q0 -12 -24 -33l-117 -99
q-28 -23 -40 -23q-17 0 -29 18l-74 105q-18 27 -18 33q0 8 6.5 13t14.5 5t36 -21z" />
    <glyph glyph-name="scaron" unicode="&#x161;" horiz-adv-x="470" 
d="M5 107q0 21 16 36t36 15q23 0 35 -10.5t16.5 -26t10.5 -31t24 -26t49 -10.5q41 0 68.5 17t27.5 52q0 23 -23.5 39t-57 28t-67 26.5t-57 42.5t-23.5 67q0 72 64.5 113t141.5 41q74 0 123.5 -32t49.5 -71q0 -19 -14 -32t-34 -13t-31 9.5t-16 23.5t-11 28t-21.5 23.5
t-42.5 9.5q-30 0 -53.5 -19t-23.5 -48q0 -24 24 -41t58.5 -28.5t69 -26t58.5 -43t24 -68.5q0 -67 -64.5 -114.5t-156.5 -47.5q-76 0 -138 32.5t-62 84.5zM289 622l106 61q35 19 42 19t13 -6t6 -13q0 -12 -24 -33l-117 -99q-28 -23 -40 -23q-17 0 -29 18l-74 105
q-18 27 -18 33q0 8 6.5 13t14.5 5t36 -21z" />
    <glyph glyph-name="Ydieresis" unicode="&#x178;" horiz-adv-x="740" 
d="M110 732h180q42 0 42 -25q0 -12 -9 -20t-19 -11.5t-19 -12.5t-9 -23q0 -32 49 -124t88 -154q80 79 154 169.5t74 118.5q0 16 -21.5 27.5t-21.5 25.5q0 29 45 29h123q36 0 36 -24q0 -3 -0.5 -6t-1.5 -5t-3 -5t-3.5 -4.5t-5 -4.5t-5.5 -4.5l-6.5 -5t-6.5 -5.5
q-12 -10 -52 -58l-115.5 -136l-152.5 -171q-5 -34 -14 -87t-13 -81t-4 -43t9 -24t20.5 -11.5t20.5 -9t9 -18.5q0 -13 -9 -21t-24 -8h-206q-53 0 -53 25q0 16 7.5 23.5t18.5 10.5t23 8t23 21.5t16 46.5l26 156q-62 90 -106 182l-65 139t-44 60q-8 4 -11 6.5l-7 6t-5.5 8
t-1.5 11.5q0 28 50 28zM293 848q0 30 21.5 51.5t50.5 21.5q30 0 46 -15.5t16 -42.5q0 -31 -21 -52.5t-50 -21.5q-30 0 -46.5 16t-16.5 43zM517 848q0 30 21.5 51.5t50.5 21.5q30 0 46 -15.5t16 -42.5q0 -31 -21 -52.5t-50 -21.5q-30 0 -46.5 16t-16.5 43z" />
    <glyph glyph-name="Zcaron" unicode="&#x17d;" horiz-adv-x="600" 
d="M144 64h109q150 0 217 47q12 8 26 21t23 19t20 6q22 0 22 -21q0 -8 -4 -27.5t-11.5 -45t-22.5 -44.5t-34 -19h-465q-54 0 -54 34q0 32 55.5 106.5t128 153.5l168.5 188t153 186h-130q-57 0 -100 -13.5t-61.5 -30l-34.5 -30t-27 -13.5q-23 0 -23 23q0 32 16.5 80t37.5 48
h467q28 0 28 -25q0 -38 -53.5 -113.5t-124.5 -152.5l-168.5 -187.5t-157.5 -189.5zM400 857l106 61q35 19 42 19q8 0 13.5 -5.5t5.5 -13.5q0 -12 -24 -33l-117 -99q-28 -23 -40 -23q-17 0 -29 18l-74 105q-18 27 -18 33q0 8 6.5 13t14.5 5t36 -21z" />
    <glyph glyph-name="zcaron" unicode="&#x17e;" horiz-adv-x="480" 
d="M283 0h-256q-37 0 -37 29q0 26 47.5 86.5t137.5 158.5t125 140h-72q-47 0 -61.5 -8t-16.5 -31q-4 -59 -51 -59q-21 0 -35 15t-14 36q0 44 36 73.5t77 29.5h253q46 0 46 -32q0 -25 -56.5 -86.5l-138 -147.5t-121.5 -148h105q40 0 57 13t18 40q1 25 15.5 41t36.5 16
q19 0 33.5 -14t14.5 -32q0 -53 -43 -86.5t-100 -33.5zM294 622l106 61q35 19 42 19q8 0 13.5 -6t5.5 -13q0 -12 -24 -33l-117 -99q-28 -23 -40 -23q-17 0 -29 18l-74 105q-18 27 -18 33q0 8 6.5 13t14.5 5t36 -21z" />
    <glyph glyph-name="florin" unicode="&#x192;" horiz-adv-x="640" 
d="M196 448h85q14 53 29 94t38.5 85.5t51 73.5t66.5 48t85 19q71 0 109 -27.5t38 -64.5q0 -61 -66 -61q-27 0 -39.5 13.5t-14 29t-10 29t-28.5 13.5q-48 0 -90 -109q-11 -28 -47 -143h94q21 0 19 -23q-1 -33 -39 -33h-86q-88 -320 -176.5 -458.5t-204.5 -135.5
q-71 0 -115.5 35t-44.5 73q0 26 14 41.5t38 15.5q26 0 41 -15t20.5 -33.5t19.5 -33.5t38 -15q37 0 66.5 35.5t60.5 129.5l116 361h-88q-21 0 -19 23q1 33 39 33z" />
    <glyph glyph-name="circumflex" unicode="&#x2c6;" 
d="M220 608l-123 -71q-18 -9 -26 -9q-7 0 -13 6t-6 13q0 12 24 31l129 111q15 13 28 13q18 0 28 -17l75 -106q18 -25 18 -33q0 -7 -6.5 -12.5t-14.5 -5.5t-35 21z" />
    <glyph glyph-name="caron" unicode="&#x2c7;" 
d="M209 622l106 61q35 19 42 19t13 -6t6 -13q0 -12 -24 -33l-117 -99q-28 -23 -40 -23q-17 0 -29 18l-74 105q-18 27 -18 33q0 8 6.5 13t14.5 5t36 -21z" />
    <glyph glyph-name="uni02C9" unicode="&#x2c9;" 
d="M113 650h224q41 0 41 -23q0 -41 -53 -41h-225q-46 0 -46 24q0 40 59 40z" />
    <glyph glyph-name="breve" unicode="&#x2d8;" 
d="M73 705q0 11 9 19t19 8q8 0 17 -11.5t17 -25.5t31 -25.5t56 -11.5q38 0 65 18.5t42 37t25 18.5q12 0 18.5 -7t6.5 -17q0 -35 -49.5 -79.5t-113.5 -44.5q-72 0 -107.5 38t-35.5 83z" />
    <glyph glyph-name="dotaccent" unicode="&#x2d9;" 
d="M149 613q0 31 21.5 52t50.5 21q30 0 46 -15.5t16 -42.5q0 -31 -21 -52.5t-50 -21.5q-30 0 -46.5 16t-16.5 43z" />
    <glyph glyph-name="ring" unicode="&#x2da;" 
d="M102 624q0 42 29.5 71t70.5 29t70.5 -29t29.5 -71t-29.5 -71t-70.5 -29t-70.5 29t-29.5 71zM156 624q0 -20 13.5 -33t32.5 -13t32.5 13t13.5 33t-13.5 33t-32.5 13t-32.5 -13t-13.5 -33z" />
    <glyph glyph-name="ogonek" unicode="&#x2db;" 
d="M70 0h45q-55 -42 -55 -88t39 -46q17 0 37 12t27 12q12 0 12 -14q0 -16 -32 -33t-64 -17q-43 0 -71 20.5t-28 49.5q0 16 7.5 31t25 30t26.5 22t31 21z" />
    <glyph glyph-name="tilde" unicode="&#x2dc;" 
d="M56 575q0 23 32.5 61t63.5 38q21 0 64.5 -16t59.5 -16q21 0 40.5 18t29.5 18q7 0 12.5 -5.5t5.5 -13.5q0 -21 -32.5 -59t-64.5 -38q-21 0 -65 16t-60 16q-19 0 -40 -18t-29 -18q-7 0 -12 5t-5 12z" />
    <glyph glyph-name="hungarumlaut" unicode="&#x2dd;" 
d="M125 696h74q24 0 24 -15q0 -12 -23 -30l-138 -113q-11 -10 -25 -10q-22 0 -22 13q0 9 14 31l67 112q7 12 29 12zM308 696h73q24 0 24 -15q0 -12 -23 -30l-138 -113q-11 -10 -25 -10q-22 0 -22 13q0 9 14 31l67 112q8 12 30 12z" />
    <glyph glyph-name="uni03A9" unicode="&#x3a9;" horiz-adv-x="837" 
d="M774 171l-61 -171h-281l-4 24q2 3 40 55.5t53 76l43.5 71.5t44.5 91t23 86q27 156 -16 228.5t-130 72.5q-195 0 -249 -306q-9 -34 -6 -80t6.5 -76.5t16 -72t21.5 -67t23 -61.5q5 -12 7 -18l-13 -24h-281l3 171l32 1q10 -50 24.5 -65t51.5 -15h112l-23 20.5t-24 23
t-24.5 27t-22.5 30t-20 34t-15 38t-10 43t-3 47.5t5 53q27 151 139.5 243t259.5 92q150 0 227.5 -88.5t50.5 -238.5q-9 -52 -34.5 -100t-66 -90t-73 -69.5t-81.5 -64.5h122q36 0 54 14t45 66z" />
    <glyph glyph-name="uni03BC" unicode="&#x3bc;" horiz-adv-x="630" 
d="M468 470h82q16 0 16 -14t-26 -153t-26 -169q0 -18 9 -28t20 -12.5t20 -9t9 -17.5q0 -13 -65.5 -45t-81.5 -32q-37 0 -37 71q0 50 6 72l-2 2q-30 -63 -79 -104t-112 -41q-25 0 -46 7q-6 -32 -19 -144q-4 -32 -19 -43.5t-51 -11.5q-62 0 -62 32q0 24 11 68q87 351 87 450
q0 16 -8 24t-17 9.5t-17 6.5t-8 14q0 24 68 51t92 27q32 0 32 -52q0 -25 -24 -147t-24 -152q0 -26 16 -42.5t41 -16.5q43 0 78.5 43.5t56 107.5t32 118.5t14.5 95.5q3 35 34 35z" />
    <glyph glyph-name="pi" unicode="&#x3c0;" horiz-adv-x="651" 
d="M628 515l28 -10q-10 -32 -28.5 -66t-33.5 -49q-23 -6 -76 -6q-15 -57 -45 -228q-16 -94 31 -94q24 0 57 27l9 -27q-26 -34 -65 -54.5t-74 -20.5q-109 0 -84 141q18 104 57 258q-128 2 -160 2l-2 -15q-15 -85 -36.5 -156.5t-42 -113.5t-35 -65t-24.5 -32q-45 -17 -76 -19
l-4 21q66 70 110 178t62 204q-48 1 -78.5 -9.5t-73.5 -36.5l-12 29q50 52 75 69q59 40 140 39q40 0 146 -2q27 0 81 -0.5t80 -0.5q27 0 42 7.5t32 29.5z" />
    <glyph glyph-name="uni2010" unicode="&#x2010;" horiz-adv-x="280" 
d="M221 186h-198q-23 0 -23 28q0 70 39 70h198q23 0 23 -28q0 -70 -39 -70z" />
    <glyph glyph-name="endash" unicode="&#x2013;" horiz-adv-x="500" 
d="M481 188h-478q-23 0 -23 26q0 68 39 68h478q23 0 23 -26q0 -68 -39 -68z" />
    <glyph glyph-name="emdash" unicode="&#x2014;" horiz-adv-x="1000" 
d="M981 188h-978q-23 0 -23 26q0 68 39 68h978q23 0 23 -26q0 -68 -39 -68z" />
    <glyph glyph-name="quoteleft" unicode="&#x2018;" 
d="M244 543q0 -32 -28 -54.5t-64 -22.5q-33 0 -54.5 19t-21.5 51q0 44 36 96t75 83t55 31q7 0 12.5 -5t5.5 -12t-10.5 -15t-31.5 -27t-39 -48q-16 -24 -16 -37q0 -6 19 -6q25 0 43.5 -12.5t18.5 -40.5z" />
    <glyph glyph-name="quoteright" unicode="&#x2019;" 
d="M142 669q0 32 28 54.5t64 22.5q33 0 54.5 -19t21.5 -51q0 -44 -36 -96t-75 -83t-55 -31q-7 0 -12.5 5t-5.5 12t10.5 15t31.5 27t39 48q16 24 16 37q0 6 -19 6q-25 0 -43.5 12.5t-18.5 40.5z" />
    <glyph glyph-name="quotesinglbase" unicode="&#x201a;" 
d="M42 43q0 32 28 54.5t64 22.5q33 0 54.5 -19t21.5 -51q0 -44 -36 -96t-75 -83t-55 -31q-7 0 -12.5 5t-5.5 12t10.5 15t31.5 27t39 48q16 24 16 37q0 6 -19 6q-25 0 -43.5 12.5t-18.5 40.5z" />
    <glyph glyph-name="quotedblleft" unicode="&#x201c;" horiz-adv-x="510" 
d="M250 543q0 -32 -28 -54.5t-64 -22.5q-33 0 -54.5 19t-21.5 51q0 44 36 96t75 83t55 31q7 0 12.5 -5t5.5 -12t-10.5 -15t-31.5 -27t-39 -48q-16 -24 -16 -37q0 -6 19 -6q25 0 43.5 -12.5t18.5 -40.5zM468 543q0 -32 -28 -54.5t-64 -22.5q-33 0 -54.5 19t-21.5 51
q0 44 36 96t75 83t55 31q7 0 12.5 -5t5.5 -12t-10.5 -15t-31.5 -27t-39 -48q-16 -24 -16 -37q0 -6 19 -6q25 0 43.5 -12.5t18.5 -40.5z" />
    <glyph glyph-name="quotedblright" unicode="&#x201d;" horiz-adv-x="510" 
d="M118 669q0 32 28 54.5t64 22.5q33 0 54.5 -19t21.5 -51q0 -44 -36 -96t-75 -83t-55 -31q-7 0 -12.5 5t-5.5 12t10.5 15t31.5 27t39 48q16 24 16 37q0 6 -19 6q-25 0 -43.5 12.5t-18.5 40.5zM336 671q0 32 28 54.5t64 22.5q33 0 54.5 -19t21.5 -51q0 -44 -36 -96t-75 -83
t-55 -31q-7 0 -12.5 5t-5.5 12t10.5 15t31.5 27t39 48q16 24 16 37q0 6 -19 6q-25 0 -43.5 12.5t-18.5 40.5z" />
    <glyph glyph-name="quotedblbase" unicode="&#x201e;" horiz-adv-x="510" 
d="M18 43q0 32 28 54.5t64 22.5q33 0 54.5 -19t21.5 -51q0 -44 -36 -96t-75 -83t-55 -31q-7 0 -12.5 5t-5.5 12t10.5 15t31.5 27t39 48q16 24 16 37q0 6 -19 6q-25 0 -43.5 12.5t-18.5 40.5zM236 43q0 32 28 54.5t64 22.5q33 0 54.5 -19t21.5 -51q0 -44 -36 -96t-75 -83
t-55 -31q-7 0 -12.5 5t-5.5 12t10.5 15t31.5 27t39 48q16 24 16 37q0 6 -19 6q-25 0 -43.5 12.5t-18.5 40.5z" />
    <glyph glyph-name="dagger" unicode="&#x2020;" horiz-adv-x="610" 
d="M365 422l-41 -476q-8 -96 -76 -96q-29 0 -47.5 17.5t-18.5 46.5q0 41 126 508q-4 -1 -39 -11t-49 -13t-40 -7.5t-45 -4.5q-27 0 -44 15t-17 42q0 30 19 46.5t54 16.5q52 0 170 -30q0 19 -3.5 79t-3.5 93q0 98 72 98q27 0 43.5 -15.5t16.5 -44.5q0 -24 -11 -60.5t-33 -90
t-24 -59.5q129 30 164 30q68 0 68 -56q0 -64 -70 -64q-20 0 -51.5 6.5t-69 16.5t-50.5 13z" />
    <glyph glyph-name="daggerdbl" unicode="&#x2021;" horiz-adv-x="610" 
d="M345 346q0 -68 -51 -172q123 30 165 30q29 0 46 -14.5t17 -41.5q0 -28 -18 -46t-46 -18q-24 0 -95 17.5t-78 18.5q1 -28 4 -80.5t3 -71.5q0 -64 -18.5 -91t-54.5 -27q-27 0 -43 17t-16 45q0 19 11 52.5t32.5 86t27.5 69.5q-16 -3 -53 -13t-68 -16.5t-52 -6.5
q-29 0 -45.5 15t-16.5 42q0 31 15.5 47t52.5 16q58 0 176 -30q-8 45 -8 80q0 62 49 174q-110 -36 -165 -36q-32 0 -49 15.5t-17 40.5q0 29 17.5 46.5t46.5 17.5q28 0 56.5 -4.5t66.5 -13.5t54 -12q-9 144 -9 149q0 115 73 115q27 0 43 -17t16 -47q0 -16 -4.5 -36t-14.5 -46
l-16 -41.5t-19 -44t-15 -32.5q15 3 50.5 11t65 13.5t48.5 5.5q32 0 49.5 -16.5t17.5 -44.5q0 -26 -16.5 -42.5t-46.5 -16.5q-27 0 -56.5 6t-65 16t-55.5 14q9 -65 9 -82z" />
    <glyph glyph-name="bullet" unicode="&#x2022;" horiz-adv-x="500" 
d="M84 366q0 76 53.5 129.5t129.5 53.5t129.5 -53.5t53.5 -129.5t-53.5 -129.5t-129.5 -53.5t-129.5 53.5t-53.5 129.5z" />
    <glyph glyph-name="ellipsis" unicode="&#x2026;" horiz-adv-x="1000" 
d="M54 45q0 34 28 58.5t62 24.5q29 0 48.5 -16.5t19.5 -42.5q0 -34 -28 -58.5t-62 -24.5q-29 0 -48.5 16.5t-19.5 42.5zM387 45q0 34 28 58.5t62 24.5q29 0 48.5 -16.5t19.5 -42.5q0 -34 -28 -58.5t-62 -24.5q-29 0 -48.5 16.5t-19.5 42.5zM720 45q0 34 28 58.5t62 24.5
q29 0 48.5 -16.5t19.5 -42.5q0 -34 -28 -58.5t-62 -24.5q-29 0 -48.5 16.5t-19.5 42.5z" />
    <glyph glyph-name="perthousand" unicode="&#x2030;" horiz-adv-x="1140" 
d="M116 472q0 -68 46 -68q33 0 62.5 71t29.5 155q0 70 -44 70q-34 0 -64.5 -72.5t-29.5 -155.5zM660 689l-499 -667q-27 -36 -53 -36q-24 0 -24 19q0 8 9 21l524 700q15 20 37 20q26 0 26 -16t-20 -41zM520 100q0 -68 46 -68q33 0 62.5 71t29.5 155q0 70 -44 70
q-34 0 -64.5 -72.5t-29.5 -155.5zM30 506q0 100 53 170t129 70q60 0 94 -38.5t34 -109.5q0 -100 -53 -170t-129 -70q-60 0 -94 38.5t-34 109.5zM434 134q0 100 53 170t129 70q60 0 94 -38.5t34 -109.5q0 -100 -53 -170t-129 -70q-60 0 -94 38.5t-34 109.5zM814 140
q0 100 53 170t129 70q60 0 94 -38.5t34 -109.5q0 -100 -53 -170t-129 -70q-60 0 -94 38.5t-34 109.5zM900 106q0 -68 46 -68q33 0 62.5 71t29.5 155q0 70 -44 70q-34 0 -64.5 -72.5t-29.5 -155.5z" />
    <glyph glyph-name="guilsinglleft" unicode="&#x2039;" horiz-adv-x="240" 
d="M26 236q0 6 3.5 13.5t12.5 18l16 18.5l21.5 23.5l21.5 23.5l17.5 19.5t15.5 17.5t12.5 14t12 11.5l9.5 7.5t9.5 5.5t9.5 1.5q9 0 16 -6t7 -15q0 -15 -43 -74.5t-43 -88.5q0 -24 15 -74.5t15 -64.5q0 -27 -24 -27q-6 0 -11 3.5t-11 12t-10 17t-12 23.5l-15 27
q-45 78 -45 93z" />
    <glyph glyph-name="guilsinglright" unicode="&#x203a;" horiz-adv-x="240" 
d="M200 234q0 -6 -3.5 -13.5t-12.5 -18l-16 -18.5l-21.5 -23.5l-21.5 -23.5l-17.5 -19.5t-15.5 -17.5t-12.5 -14t-12 -11.5l-9.5 -7.5t-9.5 -5.5t-9.5 -1.5q-9 0 -16 6t-7 15q0 15 43 74.5t43 88.5q0 24 -15 74.5t-15 64.5q0 27 24 27q6 0 11 -3.5t11 -12t10 -17t12 -23.5
l15 -27q45 -78 45 -93z" />
    <glyph glyph-name="fraction" unicode="&#x2044;" horiz-adv-x="167" 
d="M-162 8l421 722q6 11 12 13.5t26 2.5q24 0 30.5 -2t6.5 -9q0 -4 -7 -16l-420 -716q-7 -11 -14.5 -14t-27.5 -3q-22 0 -27 1.5t-5 7.5q0 3 5 13z" />
    <glyph glyph-name="Euro" unicode="&#x20ac;" horiz-adv-x="640" 
d="M455 323q0 -33 -39 -33h-162q0 -4 -0.5 -11t-0.5 -11q0 -218 140 -218q79 0 135 74q26 33 39 33q26 0 26 -30q0 -18 -26.5 -50.5t-71.5 -58.5q-56 -32 -132 -32q-127 0 -186.5 81.5t-59.5 211.5v11h-73q-19 0 -19 23q0 33 39 33h56q5 42 13 76h-69q-19 0 -19 23
q0 33 39 33h64q19 55 53 108q48 73 118.5 116.5t154.5 43.5q71 0 127.5 -25.5t56.5 -65.5q0 -56 -8 -100q-5 -25 -14 -34t-24 -9q-17 0 -22.5 11.5t-8.5 38.5q-1 5 -1 7l-4.5 31.5t-8.5 29t-17.5 27.5t-30.5 17t-47 8q-103 0 -168 -155q-11 -25 -18 -49h178q19 0 19 -23
q0 -15 -13 -24t-26 -9h-174q-6 -26 -12 -76h178q19 0 19 -23z" />
    <glyph glyph-name="afii61289" unicode="&#x2113;" horiz-adv-x="484" 
d="M411 144l20 -23q-97 -133 -224 -133q-82 0 -114 43q-17 25 -20.5 56t7.5 104l13 72l-75 -44l-9 31l91 59l25 141q22 123 44 179.5t65 97.5q58 61 125 61q55 0 76 -42t10 -105q-16 -88 -70.5 -160t-153.5 -150l-15 -87q-17 -104 -1.5 -143.5t66.5 -39.5q67 0 140 83z
M253 512l-22 -124q119 113 142 250q20 112 -28 112q-30 0 -48.5 -50t-43.5 -188z" />
    <glyph glyph-name="trademark" unicode="&#x2122;" horiz-adv-x="990" 
d="M28 732h370v-92h-28q-7 31 -19 45q-15 17 -45 17h-47v-330q0 -18 8.5 -24t42.5 -8v-30h-193v30q33 2 41.5 8t8.5 24v330h-47q-29 0 -43 -15.5t-21 -46.5h-28v92zM706 308l-146 308h-2v-206q0 -40 9 -54t41 -16v-30h-138v30q32 2 41 16t9 54v232q0 21 -21.5 41t-48.5 19
v30h143l147 -306l157 306h121v-30q-29 -1 -40.5 -12t-11.5 -35v-283q0 -19 8 -24.5t40 -7.5v-30h-190v30q32 2 40 7.5t8 24.5v244h-2l-152 -308h-12z" />
    <glyph glyph-name="Omega" unicode="&#x2126;" horiz-adv-x="837" 
d="M774 171l-61 -171h-281l-4 24q2 3 40 55.5t53 76l43.5 71.5t44.5 91t23 86q27 156 -16 228.5t-130 72.5q-195 0 -249 -306q-9 -34 -6 -80t6.5 -76.5t16 -72t21.5 -67t23 -61.5q5 -12 7 -18l-13 -24h-281l3 171l32 1q10 -50 24.5 -65t51.5 -15h112l-23 20.5t-24 23
t-24.5 27t-22.5 30t-20 34t-15 38t-10 43t-3 47.5t5 53q27 151 139.5 243t259.5 92q150 0 227.5 -88.5t50.5 -238.5q-9 -52 -34.5 -100t-66 -90t-73 -69.5t-81.5 -64.5h122q36 0 54 14t45 66z" />
    <glyph glyph-name="estimated" unicode="&#x212e;" horiz-adv-x="991" 
d="M955 355h-682q-6 0 -6 -5v-206q0 -14 9 -24q109 -112 258 -112q80 0 150.5 33.5t121.5 92.5h60q-57 -68 -145 -107.5t-188 -39.5q-174 0 -297.5 110.5t-123.5 267.5t123.5 268t297.5 111q175 0 298.5 -110.5t123.5 -268.5v-10zM800 382v207q0 15 -10 25
q-110 108 -256 108q-148 0 -257 -111q-10 -10 -10 -26v-203q0 -7 6 -7h523q4 0 4 7z" />
    <glyph glyph-name="partialdiff" unicode="&#x2202;" horiz-adv-x="613" 
d="M326 464h1q41 0 78 -18.5t55 -52.5q21 65 31 115q20 98 1 165q-11 37 -42.5 62t-75.5 25q-76 0 -174 -71q-16 -1 -27.5 31t1.5 54q86 44 171 44q157 0 217 -153q41 -104 14 -248q-26 -157 -102 -266q-111 -163 -271 -163q-96 0 -144 59t-30 158q18 104 99 180
q87 79 198 79zM349 414h-1q-70 0 -123 -60q-63 -78 -85 -205q-10 -55 9 -89t63 -34q67 0 138 110q51 80 92 207q-8 26 -33 48.5t-60 22.5z" />
    <glyph glyph-name="uni2206" unicode="&#x2206;" horiz-adv-x="730" 
d="M636 0h-651l6 34l414 694l59 15l177 -709zM494 60l-125 523l-304 -523h429z" />
    <glyph glyph-name="product" unicode="&#x220f;" horiz-adv-x="869" 
d="M839 740v-33q-72 -5 -87.5 -19t-15.5 -69v-578q0 -61 16 -76.5t86 -20.5v-34h-315v34q46 3 62 9.5t22 23.5t6 63v620q0 25 -7.5 31.5t-33.5 6.5h-201q-25 0 -31.5 -6t-6.5 -28v-624q0 -62 11.5 -76.5t70.5 -19.5v-34h-307v34q69 5 85 20.5t16 75.5v579q0 55 -16.5 69
t-88.5 19v33h735z" />
    <glyph glyph-name="summation" unicode="&#x2211;" horiz-adv-x="711" 
d="M685 129l-52 -225h-527v32l246 352l-240 419v33h521q0 -8 2.5 -38t5.5 -74l5 -75l-34 -8q-17 77 -40 116q-13 23 -35 31t-82 8h-192l195 -333l-249 -361h280q76 0 100 19t61 113z" />
    <glyph glyph-name="minus" unicode="&#x2212;" horiz-adv-x="600" 
d="M546 282v-94h-470v94h470z" />
    <glyph glyph-name="uni2215" unicode="&#x2215;" horiz-adv-x="167" 
d="M-162 8l421 722q6 11 12 13.5t26 2.5q24 0 30.5 -2t6.5 -9q0 -4 -7 -16l-420 -716q-7 -11 -14.5 -14t-27.5 -3q-22 0 -27 1.5t-5 7.5q0 3 5 13z" />
    <glyph glyph-name="uni2219" unicode="&#x2219;" horiz-adv-x="320" 
d="M81 235q0 29 23 52t52 23t52 -23t23 -52t-23 -52t-52 -23t-52 23t-23 52z" />
    <glyph glyph-name="radical" unicode="&#x221a;" horiz-adv-x="697" 
d="M685 934l-191 -1098l-28 -13l-241 581l-97 -46l-15 40l192 89l176 -443h3l151 901z" />
    <glyph glyph-name="infinity" unicode="&#x221e;" horiz-adv-x="862" 
d="M811 303v-1q0 -82 -51 -132.5t-120 -50.5q-98 0 -193 123q-50 -60 -94.5 -91.5t-103.5 -31.5q-69 0 -118.5 50.5t-49.5 127.5q0 80 50.5 130.5t126.5 50.5q56 0 101.5 -31t92.5 -89q55 63 85 85q50 36 109 35q71 0 118 -48.5t47 -126.5zM257 190h2q28 0 58.5 19
t45.5 34.5t45 50.5q-30 40 -45.5 58.5t-45.5 37.5t-63 19q-45 0 -72.5 -32t-27.5 -81q0 -44 29.5 -75t73.5 -31zM639 409h-2q-16 0 -32 -6t-27 -12.5t-27.5 -22l-22.5 -21.5t-22.5 -25.5t-17.5 -20.5q51 -63 83.5 -87t70.5 -24q43 0 69 33.5t26 73.5q0 50 -27 81t-71 31z
" />
    <glyph glyph-name="integral" unicode="&#x222b;" horiz-adv-x="510" 
d="M256 0l-22 428q-6 111 3 195.5t26.5 134.5t44.5 81.5t53 42.5t56 11q27 0 51 -15.5t25 -41.5q0 -27 -17 -42t-40 -15q-14 0 -23 9.5t-13.5 21t-10.5 21t-14 9.5q-45 0 -37 -170l21 -400q7 -136 -5.5 -235t-41 -153t-63 -78.5t-77.5 -24.5q-32 0 -54 17.5t-22 41.5
q-1 25 20 43t47 18q11 0 19.5 -10.5t12.5 -23t10 -23t14 -10.5q47 0 37 168z" />
    <glyph glyph-name="approxequal" unicode="&#x2248;" horiz-adv-x="632" 
d="M542 474l48 -45q-61 -107 -149 -107q-31 0 -57 9.5t-66 33.5q-60 35 -94 35q-33 0 -56.5 -19.5t-49.5 -57.5l-49 45q25 47 68.5 76.5t91.5 29.5q49 0 116 -39q4 -2 15.5 -9l15 -9t12.5 -6.5t13.5 -6l12 -4t14 -3t13.5 -0.5q29 0 52.5 19t48.5 58zM542 278l48 -45
q-62 -107 -149 -107q-31 0 -56.5 9.5t-66.5 32.5q-58 36 -94 36q-34 0 -57 -20t-49 -57l-49 44q25 48 68.5 77.5t91.5 29.5q11 0 21 -1t20 -4l17 -5t17 -7t14.5 -7t14.5 -8t12 -7l15.5 -9.5t15.5 -9l14.5 -7t16 -7t15.5 -4t18 -1.5q30 0 52.5 18.5t49.5 58.5z" />
    <glyph glyph-name="notequal" unicode="&#x2260;" horiz-adv-x="648" 
d="M487 540l-43 -95h152v-75h-182l-65 -146h247v-74h-278l-55 -124l-60 26l44 98h-149v74h180l64 146h-244v75h274l55 121z" />
    <glyph glyph-name="lessequal" unicode="&#x2264;" horiz-adv-x="665" 
d="M611 109l-491 236v81l491 236v-86l-413 -189v-2l413 -190v-86zM614 -7h-498v76h498v-76z" />
    <glyph glyph-name="greaterequal" unicode="&#x2265;" horiz-adv-x="665" 
d="M121 662l491 -236v-81l-491 -236v86l413 190v2l-413 189v86zM612 -7h-496v76h496v-76z" />
    <glyph glyph-name="lozenge" unicode="&#x25ca;" horiz-adv-x="712" 
d="M661 353l-222 -431h-90l-221 431l223 435h89zM574 353l-177 356h-4l-178 -355l179 -356h3z" />
    <glyph glyph-name="fi" unicode="&#xfb01;" horiz-adv-x="650" 
d="M114 470h44q26 153 90 218.5t190 65.5q71 0 125.5 -32.5t54.5 -91.5q0 -29 -18 -46.5t-48 -17.5q-32 0 -50 17t-18 41q0 33 -17 50.5t-45 17.5q-52 0 -88 -47.5t-50 -174.5h164q20 0 60 5q27 5 45 5q35 0 35 -43q0 -23 -28 -165.5t-28 -158.5q0 -13 9 -19t19 -7.5t19 -8
t9 -19.5q0 -20 -66.5 -44.5t-88.5 -24.5q-37 0 -37 46q0 28 25 155t25 157q0 29 -11 41.5t-43 12.5h-118l-15.5 -106.5t-21.5 -136t-27.5 -119t-41.5 -112.5q-29 -56 -74.5 -93t-102.5 -37q-34 0 -54.5 14.5t-20.5 35.5q0 23 15.5 39.5t37.5 16.5q24 0 37.5 -16t23.5 -16
q36 0 71 213q14 84 47 317h-46q-29 0 -29 26q0 23 9.5 32.5t31.5 9.5z" />
    <glyph glyph-name="fl" unicode="&#xfb02;" horiz-adv-x="650" 
d="M114 470h44q26 147 82 215.5t160 68.5q53 0 108 -22q32 12 46 16q21 6 39 6q29 0 29 -30q0 -11 -51 -287t-51 -309q0 -19 8 -28.5t17 -11t17 -6.5t8 -16q0 -23 -71.5 -49.5t-91.5 -26.5q-29 0 -29 38q0 17 52 290t52 302q0 68 -72 68q-56 0 -82.5 -43t-43.5 -175h72
q28 0 28 -30q0 -38 -49 -38h-61l-15.5 -106.5t-21.5 -136t-27.5 -119t-41.5 -112.5q-29 -56 -74.5 -93t-102.5 -37q-34 0 -54.5 14.5t-20.5 35.5q0 23 15.5 39.5t37.5 16.5q24 0 37.5 -16t23.5 -16q36 0 71 213q14 84 47 317h-46q-29 0 -29 26q0 23 9.5 32.5t31.5 9.5z" />
    <glyph glyph-name="a.superior" horiz-adv-x="420" 
d="M102 565q0 69 55 125t129 56q52 0 74 -35q1 1 7.5 8t10 10t10 8t13 7t13.5 2q20 0 20 -16q0 -3 -19 -84t-19 -112q0 -18 19 -23t19 -16q0 -10 -38.5 -26.5t-52.5 -16.5q-21 0 -21 28q0 16 4 48l-2 1q-39 -77 -113 -77q-51 0 -80 32.5t-29 80.5zM188 561q0 -25 12 -45
t37 -20q31 0 54.5 32t33 67.5t9.5 62.5q0 50 -47 50q-43 0 -71 -51.5t-28 -95.5z" />
    <glyph glyph-name="o.superior" horiz-adv-x="420" 
d="M90 579q0 69 60.5 118t138.5 49q67 0 112 -34.5t45 -92.5q0 -69 -60.5 -118t-138.5 -49q-67 0 -112 34.5t-45 92.5zM180 565q0 -33 17 -54t51 -21q52 0 80 46.5t28 96.5q0 33 -17 54t-51 21q-52 0 -80 -46.5t-28 -96.5z" />
    <glyph glyph-name="one.superior" horiz-adv-x="380" 
d="M299 298h-213q-23 0 -23 18q0 13 20 16.5t44.5 9t31.5 23.5q7 16 29.5 142.5t22.5 139.5q0 22 -36 22h-39q-19 0 -19 15q0 12 24 18.5t61.5 14t57.5 18.5q29 17 45 17q22 0 22 -18q0 -2 -33.5 -176.5t-33.5 -192.5q0 -14 12 -21t26 -7.5t26 -5t12 -15.5q0 -18 -37 -18z
" />
    <glyph glyph-name="two.superior" horiz-adv-x="380" 
d="M121 362h117q33 0 53.5 10t32 19.5t23.5 9.5q13 0 13 -10q0 -5 -20 -48q-22 -45 -39 -45h-278q-22 0 -22 17q0 27 55 78q33 30 88 75.5t82 70t50 57.5t23 63q0 48 -63 48q-37 0 -63 -22.5t-26 -45.5q0 -7 4.5 -16.5t4.5 -14.5q0 -14 -13.5 -24t-32.5 -10
q-21 0 -33.5 10.5t-12.5 29.5q0 53 59 92.5t137 39.5q61 0 100 -25t39 -71q0 -27 -13.5 -53.5t-42 -52t-47 -40t-52.5 -37.5q-9 -6 -13 -9q-70 -47 -110 -96z" />
    <glyph glyph-name="three.superior" horiz-adv-x="380" 
d="M126 528q0 22 33 22q61 0 96.5 28.5t35.5 80.5q0 48 -57 48q-31 0 -48 -14.5t-17 -37.5q0 -41 -44 -41q-19 0 -32.5 9.5t-13.5 23.5q0 40 48 69.5t119 29.5q70 0 107.5 -24.5t37.5 -70.5q0 -45 -40 -75.5t-91 -37.5v-2q50 -4 80.5 -29.5t30.5 -69.5q0 -63 -61.5 -105
t-151.5 -42q-72 0 -110.5 23t-38.5 63q0 21 13 33.5t34 12.5q35 0 35 -39q0 -55 66 -55q45 0 75.5 31t30.5 81q0 72 -98 72q-24 0 -31.5 3t-7.5 13z" />
    </font>
</defs>
</svg>
