<?xml version="1.0" standalone="no"?>
<!DOCTYPE svg PUBLIC "-//W3C//DTD SVG 1.1//EN" "http://www.w3.org/Graphics/SVG/1.1/DTD/svg11.dtd" >
<svg>
<metadata>
Created by FontForge 20090622 at Fri Jan 19 15:35:05 2018
 By deploy user
&#194;&#169; 1985, 1987, 1994, 2001, 2002 Adobe Systems Incorporated. All rights reserved.
</metadata>
<defs>
<font id="SouvenirStd-LightItalic" horiz-adv-x="300" >
  <font-face 
    font-family="ITC Souvenir Std Light"
    font-weight="300"
    font-style="italic"
    font-stretch="normal"
    units-per-em="1000"
    panose-1="2 8 5 3 4 5 10 9 3 4"
    ascent="762"
    descent="-238"
    x-height="467"
    cap-height="732"
    bbox="-201 -250 1242 960"
    underline-thickness="50"
    underline-position="-50"
    slope="-10"
    unicode-range="U+0020-U+FB02"
  />
<missing-glyph horiz-adv-x="577" 
d="M77 0v700h500v-700h-500zM327 395l170 255h-340zM357 350l170 -255v510zM157 50h340l-170 255zM127 605v-510l170 255z" />
    <glyph glyph-name="f_i" unicode="fi" horiz-adv-x="640" 
d="M166 415h-50q-13 0 -18.5 3t-5.5 15q0 23 9.5 28.5t36.5 5.5h36q27 158 83.5 224t167.5 66q47 0 93.5 -31t46.5 -88q0 -43 -40 -43q-42 0 -60 58q-16 57 -72 57q-66 0 -94 -55t-47 -188h178q13 0 58 6q7 1 16.5 2t11.5 1q27 0 27 -31q0 -8 -26 -168q-29 -175 -29 -183
q0 -15 7 -20t23 -6q26 -2 26 -19q0 -14 -23 -27q-14 -8 -41.5 -19t-38.5 -11q-33 0 -33 51q0 20 25 166q22 126 22 155q0 24 -10.5 35.5t-23 13.5t-38.5 2h-140l-43 -270q-54 -338 -205 -338q-39 0 -39 34q0 18 13.5 30.5t31.5 12.5q11 0 22 -5t16 -5q21 0 40 54
q20 60 43 207z" />
    <glyph glyph-name="f_l" unicode="fl" horiz-adv-x="620" 
d="M584 676l-85 -493q-10 -60 -10 -86q0 -14 5.5 -21.5t12 -8.5t12 -5t5.5 -11q0 -18 -42 -38.5t-62 -20.5q-17 0 -17 26q0 12 4 36l88 525q7 46 7 61q0 31 -35.5 50.5t-71.5 19.5q-28 0 -48 -8.5t-39 -33.5t-32.5 -74.5t-24.5 -126.5h49q21 0 29 -1t13.5 -5.5t5.5 -15.5
q0 -14 -9.5 -21t-18.5 -8t-26 -1h-51l-45 -289q-14 -89 -38 -154t-46 -95.5t-50 -47.5t-41.5 -19.5t-29.5 -2.5t-27 10t-11 25q0 18 13.5 30.5t31.5 12.5q7 0 20 -6t20 -6q43 0 84 275l44 267h-49q-15 0 -20.5 4.5t-5.5 15.5q0 19 9.5 25.5t27.5 6.5h47q22 143 70.5 216.5
t137.5 73.5q68 0 117 -26q23 13 33 17q22 9 34 9q9 0 16.5 -6.5t7.5 -16.5q0 -7 -9 -58z" />
    <glyph glyph-name=".notdef" horiz-adv-x="577" 
d="M77 0v700h500v-700h-500zM327 395l170 255h-340zM357 350l170 -255v510zM157 50h340l-170 255zM127 605v-510l170 255z" />
    <glyph glyph-name=".null" horiz-adv-x="0" 
 />
    <glyph glyph-name="nonmarkingreturn" horiz-adv-x="333" 
 />
    <glyph glyph-name="space" unicode=" " 
 />
    <glyph glyph-name="exclam" unicode="!" 
d="M249 623l-85 -390q0 -1 -1 -5.5t-1.5 -7l-1.5 -7.5t-2.5 -8t-3 -7.5t-3.5 -7l-4.5 -5.5t-5.5 -4t-7 -1q-22 0 -22 22l3 33l16 160l22 266q2 18 3 28t5.5 25t11 23t18.5 14t28 6q21 0 34.5 -11t13.5 -32q0 -15 -18 -91zM102 -8q-20 0 -32.5 13.5t-12.5 33.5q0 27 17.5 46
t44.5 19q19 0 30.5 -14t11.5 -33q0 -27 -17 -46t-42 -19z" />
    <glyph glyph-name="quotedbl" unicode="&#x22;" horiz-adv-x="360" 
d="M160 746q37 0 37 -37q0 -3 -1 -8t-5 -17.5l-9.5 -29t-15.5 -51l-22 -74.5q-12 -45 -29 -45q-21 0 -21 30q0 7 1 19t5 53l9 96q2 21 4.5 32t14 21.5t32.5 10.5zM365 746q37 0 37 -37q0 -3 -1 -8t-5 -17.5l-9.5 -29t-15.5 -51l-22 -74.5q-12 -45 -29 -45q-21 0 -21 30
q0 7 1 19t5 53l9 96q2 21 4.5 32t14 21.5t32.5 10.5z" />
    <glyph glyph-name="numbersign" unicode="#" horiz-adv-x="600" 
d="M389 262l-61 -122q-14 -26 -35 -26q-9 0 -16.5 6.5t-7.5 15.5q0 10 6 21l52 105h-146l-53 -107l-4 -8t-4.5 -8.5l-4.5 -7.5t-5.5 -7l-6.5 -5t-8.5 -4t-9.5 -1q-10 0 -18 6.5t-8 15.5q0 10 7 24l51 102h-71q-30 0 -30 23q0 15 11 23.5t27 8.5h91l80 159h-71q-31 0 -31 24
q0 16 11.5 24t27.5 8h91l60 120q14 28 36 28q10 0 18 -6.5t8 -16.5q0 -7 -6 -23l-52 -102h146l61 122q14 26 35 26q9 0 16.5 -6.5t7.5 -15.5q0 -7 -13 -36l-45 -90h68q31 0 31 -23q0 -15 -11 -23.5t-27 -8.5h-89l-80 -159h69q30 0 30 -24q0 -16 -11 -24t-27 -8h-89zM435 477
h-146l-80 -159h146z" />
    <glyph glyph-name="dollar" unicode="$" horiz-adv-x="600" 
d="M303 441l43 259q-58 -6 -101.5 -43t-43.5 -93q0 -41 26.5 -69t75.5 -54zM342 324l-48 -292q76 7 113.5 55t37.5 106q0 46 -27 76t-76 55zM404 697l-47 -283q39 -19 62 -33t50.5 -37t41 -53.5t13.5 -67.5q0 -98 -66.5 -164.5t-170.5 -71.5l-16 -93q-4 -24 -11.5 -29.5
t-25.5 -5.5q-24 0 -24 18q0 7 10 67l7 43q-83 8 -131.5 46.5t-48.5 98.5q0 53 40 53q16 0 24 -11.5t8 -27.5v-18q0 -44 33.5 -67.5t82.5 -28.5l53 318q-40 19 -62 31t-50 34t-40.5 50t-12.5 64q0 89 65.5 150.5t165.5 68.5l12 72q5 28 12 33q6 4 19 4q30 0 30 -15
q0 -6 -10 -64l-5 -30q62 -6 103 -36.5t41 -88.5q0 -25 -11.5 -43.5t-35.5 -18.5q-15 0 -24.5 10t-9.5 25q0 7 3 20.5t3 20.5q0 18 -20.5 35.5t-56.5 24.5z" />
    <glyph glyph-name="percent" unicode="%" horiz-adv-x="900" 
d="M258 436q52 0 90.5 48.5t38.5 123.5q0 92 -83 92q-53 0 -89 -44t-36 -124q0 -37 18 -66.5t61 -29.5zM171 24l512 668q-63 -22 -137 -22q-66 0 -112 15q26 -29 26 -85q0 -78 -65.5 -145t-146.5 -67q-65 0 -103.5 45t-38.5 101q0 95 67 154.5t142 59.5q25 0 63 -8
q4 -1 34.5 -7.5t45 -9t42 -5.5t52.5 -3q86 0 165 27q27 8 41 8q17 0 17 -10q0 -8 -12 -23l-535 -697q-1 -2 -6 -8t-6 -7.5t-5 -6t-6.5 -6l-6.5 -4t-8 -3t-9 -0.5q-24 0 -24 9q0 8 14 30zM610 -16q-65 0 -103.5 44.5t-38.5 99.5q0 96 67 156t142 60q65 0 105 -45.5t40 -102.5
q0 -89 -68 -150.5t-144 -61.5zM620 32q52 0 90.5 48.5t38.5 123.5q0 92 -83 92q-53 0 -89 -44t-36 -124q0 -37 18 -66.5t61 -29.5z" />
    <glyph glyph-name="ampersand" unicode="&#x26;" horiz-adv-x="820" 
d="M577 416h155q35 0 35 -26q0 -18 -26 -29q-45 -20 -61 -34q-16 -15 -40 -47q-76 -102 -133 -151q74 -85 143 -85q22 0 41.5 7.5t24.5 7.5q19 0 19 -19q0 -26 -41 -40.5t-72 -14.5q-52 0 -101 23t-80 64q-108 -87 -232 -87q-82 0 -138 41t-56 120q0 159 208 257
q-46 88 -46 152q0 86 64.5 139t152.5 53q64 0 112.5 -31.5t48.5 -92.5q0 -76 -67 -136t-155 -97q90 -163 146 -223q108 108 108 162q0 15 -7.5 23t-17 10.5t-17 8.5t-7.5 17q0 28 39 28zM310 434q177 87 177 185q0 39 -29.5 61t-70.5 22q-55 0 -88.5 -36t-33.5 -91
q0 -53 45 -141zM249 358q-57 -25 -101 -80.5t-44 -115.5q0 -57 34.5 -90t91.5 -33q81 0 176 70q-105 139 -157 249z" />
    <glyph glyph-name="quotesingle" unicode="'" horiz-adv-x="160" 
d="M160 746q37 0 37 -37q0 -3 -1 -8t-5 -17.5l-9.5 -29t-15.5 -51l-22 -74.5q-12 -45 -29 -45q-21 0 -21 30q0 7 1 19t5 53l9 96q2 21 4.5 32t14 21.5t32.5 10.5z" />
    <glyph glyph-name="parenleft" unicode="(" horiz-adv-x="260" 
d="M21 145q0 141 49 285q37 111 133 259q2 2 10 14.5t13.5 19l14 16t17 14t17.5 4.5q25 0 25 -11q0 -5 -4 -11q-89 -129 -145 -291q-55 -156 -55 -305q0 -145 34 -255q0 -1 2.5 -11.5t2.5 -13.5t-0.5 -5.5t-2 -4.5t-3 -3t-4 -2t-4 -1.5t-5 -0.5h-5h-5.5h-5q-12 0 -19 9
q-16 20 -31 83q-30 102 -30 211z" />
    <glyph glyph-name="parenright" unicode=")" horiz-adv-x="260" 
d="M158 60l-91 -165q-21 -36 -39 -49q-6 -4 -18 -4q-29 0 -29 10q0 2 15 32q165 261 165 542q0 145 -50 309q0 1 -0.5 3.5t-0.5 3.5q0 15 23 15q16 0 22.5 -3.5t14.5 -17.5q21 -38 45 -147q22 -91 22 -164q0 -188 -79 -365z" />
    <glyph glyph-name="asterisk" unicode="*" horiz-adv-x="540" 
d="M229 549q-1 -1 -9 -9.5t-10.5 -11.5t-10 -9.5t-12.5 -9t-12 -5t-14 -2.5q-14 0 -21.5 10.5t-5.5 24.5q6 33 73 39q62 7 64 20q2 9 -17 13.5t-42.5 5.5t-41.5 10.5t-15 28.5q2 14 13.5 24.5t25.5 10.5q15 0 28 -13t20.5 -28t17 -28t18.5 -13q4 0 6 7q3 16 -7 53t-8 47
q2 15 14 25.5t27 10.5q16 0 23.5 -11.5t4.5 -27.5q-2 -14 -24 -49.5t-24 -48.5q0 -8 3 -8q11 0 50 43.5t63 43.5q14 0 22.5 -9.5t5.5 -23.5q-4 -25 -37.5 -35t-65.5 -14t-34 -14q-1 -8 11.5 -11.5t30.5 -6t36 -6t29 -13.5t8 -27q-2 -14 -13.5 -23.5t-25.5 -9.5q-24 0 -48 44
q-2 3 -5 9t-5 9l-5 7.5t-5 7l-4.5 5.5t-5 4t-5.5 1t-6 -8q-2 -13 7.5 -48.5t6.5 -49.5q-2 -16 -13.5 -27.5t-27.5 -11.5q-15 0 -23 10.5t-5 25.5q2 11 23.5 48t24.5 52q3 8 -2 8q-10 0 -46 -36z" />
    <glyph glyph-name="plus" unicode="+" horiz-adv-x="660" 
d="M73 292h229v229h63v-229h229v-63h-229v-229h-63v229h-229v63z" />
    <glyph glyph-name="comma" unicode="," 
d="M99 -8h-10q-18 0 -30.5 12t-12.5 30q0 26 19 44t45 18q25 0 40.5 -16t15.5 -40q0 -61 -57 -135q-15 -20 -43.5 -45t-43.5 -25q-11 0 -11 12q0 5 11 14q39 23 66 66q22 33 22 51q0 13 -11 14z" />
    <glyph glyph-name="hyphen" unicode="-" horiz-adv-x="260" 
d="M47 314h164q20 0 20 -12q0 -29 -10 -39q-8 -6 -42 -6h-144q-17 0 -17 11q0 12 6 32q3 10 7 12t16 2z" />
    <glyph glyph-name="period" unicode="." 
d="M97 -8q-20 0 -32 13.5t-12 33.5q0 27 17.5 45.5t44.5 18.5q18 0 30 -14t12 -33q0 -26 -17 -45t-43 -19z" />
    <glyph glyph-name="slash" unicode="/" horiz-adv-x="220" 
d="M323 710l-401 -781q-1 -2 -3.5 -7.5t-4 -8.5t-4.5 -8t-6.5 -7.5t-8 -4.5t-9.5 -2q-23 0 -23 10q0 1 5 14l413 806q1 2 5.5 12t7 13t9 7t14.5 4q22 0 22 -11q0 -8 -16 -36z" />
    <glyph glyph-name="zero" unicode="0" horiz-adv-x="600" 
d="M266 -15q-107 0 -164 86q-45 69 -45 193q0 161 71 299q96 184 245 184q56 0 98 -22.5t65.5 -61.5t34.5 -84.5t11 -98.5q0 -58 -10 -122t-34.5 -131.5t-59.5 -120.5t-90.5 -87t-121.5 -34zM273 36q114 0 175 194q40 123 40 277q0 32 -5 61.5t-17 60t-36.5 49t-58.5 18.5
q-128 0 -184 -207q-39 -142 -39 -269q0 -184 125 -184z" />
    <glyph glyph-name="one" unicode="1" horiz-adv-x="600" 
d="M406 0h-310q-21 0 -21 19q0 16 15.5 21.5t47.5 7.5q42 3 62.5 13t33.5 43q7 17 31 161q51 305 51 332q0 24 -14.5 31t-40.5 7q-12 0 -36 -1t-36 -1q-32 0 -32 22q0 17 46 24q77 12 106 22t67 34q34 22 44 22q19 0 19 -21q0 -7 -4.5 -27t-18 -89.5t-30.5 -169.5
l-18 -104.5l-14 -81.5l-10 -58t-7 -43.5l-4 -28.5t-2.5 -22t-0.5 -17q0 -26 17.5 -34t48.5 -9q59 -2 59 -26q0 -26 -49 -26z" />
    <glyph glyph-name="two" unicode="2" horiz-adv-x="600" 
d="M430 0h-379q-37 0 -37 21q0 30 81.5 120.5t211.5 201.5q34 29 58.5 52.5t57 60t50.5 73.5t18 71q0 47 -32 72.5t-80 25.5q-74 0 -124 -44.5t-50 -81.5q0 -18 9 -34t9 -24q0 -19 -15 -32t-35 -13q-26 0 -40.5 16.5t-14.5 43.5q0 80 81.5 149t196.5 69q91 0 141 -46
t50 -108q0 -42 -19.5 -83.5t-56.5 -79t-66.5 -62t-71.5 -55.5q-113 -82 -163.5 -129t-87.5 -109h188q67 0 94 10t66 42q23 19 32 19q22 0 22 -13q0 -6 -2.5 -11.5t-10.5 -19.5l-15 -27q-28 -54 -37 -64.5t-29 -10.5z" />
    <glyph glyph-name="three" unicode="3" horiz-adv-x="600" 
d="M375 397q76 -7 121.5 -50t45.5 -118q0 -94 -83 -169t-220 -75q-51 0 -96 12t-79.5 46.5t-34.5 85.5q0 28 12 48.5t38 20.5q16 0 28 -9t12 -25q0 -7 -2.5 -22t-2.5 -23q0 -41 45 -63.5t90 -22.5q83 0 137.5 56.5t54.5 139.5q0 15 -2.5 30t-12.5 34.5t-26.5 34t-47 24.5
t-70.5 10q-4 0 -16.5 -1t-17.5 -1q-30 0 -30 25q0 18 9.5 23t39.5 7q118 11 166 62t48 113q0 51 -29.5 79.5t-81.5 28.5q-59 0 -94 -29t-35 -58q0 -5 1.5 -14t1.5 -13q0 -21 -14.5 -33.5t-36.5 -12.5t-37.5 16t-15.5 39q0 57 70 105.5t170 48.5q83 0 141 -38.5t58 -116.5
q0 -74 -62 -126.5t-142 -68.5z" />
    <glyph glyph-name="four" unicode="4" horiz-adv-x="600" 
d="M334 195h-246q-24 0 -34 0.5t-21.5 3t-15 7.5t-3.5 15q0 46 102 199q76 111 179 209q128 128 175 128q16 0 26.5 -6.5t10.5 -18.5q0 -20 -14 -106l-63 -376h106q14 0 19 -3.5t5 -15.5q0 -36 -49 -36h-90q-18 -109 -18 -121q0 -11 8 -17t17 -8.5t17 -8.5t8 -16
q0 -24 -38 -24h-154q-26 0 -26 16q0 19 31 27t37 16q2 2 3 4.5t2.5 5.5t2.5 7l2 8t2.5 11t3 12.5t3 16.5t3 19.5t4.5 23.5t5 28zM342 250l74 417q-198 -157 -330 -417h256z" />
    <glyph glyph-name="five" unicode="5" horiz-adv-x="600" 
d="M239 658l-58 -253q30 29 77 45t92 16q86 0 138 -56.5t52 -143.5q0 -113 -82.5 -197t-214.5 -84q-33 0 -66.5 7t-67 21t-54.5 41t-21 62q0 30 18 52t47 22q20 0 33 -12.5t13 -31.5q0 -13 -8.5 -27.5t-8.5 -24.5q0 -20 21.5 -34.5t45 -20t42.5 -5.5q93 0 151 73t58 168
q0 64 -34 99.5t-97 35.5q-83 0 -148 -68q-17 -17 -26 -17q-11 0 -19.5 6.5t-8.5 16.5t9.5 49l10.5 43l62 280q3 16 8 21.5t17 5.5q4 0 17 -3.5t44 -7.5t79 -4q46 0 111 9q72 8 73 8q13 0 13 -14q0 -36 -72.5 -61.5t-159.5 -25.5q-46 0 -86 10z" />
    <glyph glyph-name="six" unicode="6" horiz-adv-x="600" 
d="M165 376q73 87 183 87q88 0 144.5 -51.5t56.5 -139.5q0 -119 -85.5 -203t-203.5 -84q-106 0 -160 64t-54 171q0 95 39 193.5t102 174.5q68 78 153 119q104 50 198 50q27 0 27 -23q0 -5 -2 -9.5t-6.5 -7.5t-8.5 -5t-11 -3l-10.5 -1.5l-11 -1.5t-8.5 -1q-252 -40 -342 -329
zM264 33q86 0 141 72.5t55 161.5q0 66 -31.5 104.5t-95.5 38.5q-88 0 -141 -68.5t-53 -158.5q0 -66 31 -108t94 -42z" />
    <glyph glyph-name="seven" unicode="7" horiz-adv-x="600" 
d="M522 653h-224q-72 0 -93 -10t-35 -50q-3 -10 -5 -14t-7.5 -8.5t-13.5 -4.5q-22 0 -22 20q0 1 19 94q4 21 7.5 29.5t13 15.5t27.5 7h391q29 0 29 -13q0 -9 -23 -51l-206 -376.5t-128 -263.5q-8 -18 -14.5 -27.5t-20.5 -18t-34 -8.5q-29 0 -38.5 5.5t-9.5 21.5t40 89
l62 109l75 124l64.5 102.5l78 121.5z" />
    <glyph glyph-name="eight" unicode="8" horiz-adv-x="600" 
d="M407 393q35 -20 53 -32.5t39.5 -33t31 -46.5t9.5 -60q0 -47 -25.5 -94.5t-64.5 -79.5q-81 -62 -202 -62q-52 0 -100 15.5t-84 53t-36 91.5q0 145 223 239q-104 58 -104 157q0 41 23.5 81t58.5 66q76 59 185 59q49 0 91.5 -13.5t73.5 -48t31 -83.5q0 -39 -18 -73
t-51 -59.5t-63.5 -42.5t-70.5 -34zM355 419q70 24 123 72t53 112q0 49 -38 73t-92 24q-66 0 -116.5 -35.5t-50.5 -98.5q0 -49 26 -76q29 -29 95 -71zM299 354q-39 -17 -68.5 -33.5t-60.5 -41.5t-48 -57.5t-17 -70.5q0 -58 43 -88t104 -30q83 0 143 44t60 124
q0 32 -17.5 57.5t-35 37.5t-54.5 31t-49 27z" />
    <glyph glyph-name="nine" unicode="9" horiz-adv-x="600" 
d="M470 361q-72 -85 -184 -85q-88 0 -144.5 50.5t-56.5 137.5q0 117 86 200t204 83q106 0 160 -63t54 -170q0 -94 -39 -190.5t-103 -171.5q-64 -76 -152 -117q-106 -50 -198 -50q-28 0 -28 23q0 5 2 9.5t7 7.5t9 5t11 3l10.5 1.5l11 1.5t8.5 1q251 38 342 324zM371 698
q-86 0 -141 -71.5t-55 -159.5q0 -64 32 -102.5t95 -38.5q88 0 141 67.5t53 157.5q0 65 -31 106t-94 41z" />
    <glyph glyph-name="colon" unicode=":" 
d="M100 -8q-20 0 -32.5 13.5t-12.5 33.5q0 27 17.5 45.5t44.5 18.5q19 0 30.5 -14t11.5 -33q0 -26 -16.5 -45t-42.5 -19zM144 284q-21 0 -33 13.5t-12 34.5q0 27 17.5 45t44.5 18q19 0 30.5 -14t11.5 -33q0 -26 -16.5 -45t-42.5 -19z" />
    <glyph glyph-name="semicolon" unicode=";" 
d="M135 281q-21 0 -33 13.5t-12 34.5q0 27 17.5 45t44.5 18q19 0 30.5 -14t11.5 -33q0 -26 -16.5 -45t-42.5 -19zM99 -8h-9q-19 0 -31.5 11.5t-12.5 30.5q0 26 19 44.5t45 18.5q25 0 40.5 -16.5t15.5 -40.5q0 -61 -57 -135q-16 -20 -43.5 -45t-42.5 -25q-12 0 -12 12
q0 5 11 14q41 24 67 66q22 38 22 51t-12 14z" />
    <glyph glyph-name="less" unicode="&#x3c;" horiz-adv-x="660" 
d="M610 44v-65l-554 254v58l554 255v-65l-482 -220z" />
    <glyph glyph-name="equal" unicode="=" horiz-adv-x="660" 
d="M73 369h520v-63h-520v63zM73 216h520v-63h-520v63z" />
    <glyph glyph-name="greater" unicode="&#x3e;" horiz-adv-x="660" 
d="M56 44l482 217l-482 220v65l554 -255v-58l-554 -254v65z" />
    <glyph glyph-name="question" unicode="?" horiz-adv-x="420" 
d="M121 237l14 80q1 5 2 13.5t1.5 12t3 9t7 8.5t12.5 6q85 32 147 83q34 29 55.5 72.5t21.5 87.5q0 48 -34.5 76.5t-82.5 28.5t-82 -25q-26 -17 -27 -52q0 -32 -10 -44q-14 -18 -42 -18q-38 0 -38 37q0 51 58 97q63 48 147 48q80 0 135 -41t55 -119q0 -91 -79 -167
q-26 -25 -57 -45t-53 -31t-66 -31q-17 -7 -21 -13t-9 -26l-8 -40q0 -2 -1.5 -13.5t-3 -18t-4.5 -15.5t-8.5 -13.5t-13.5 -4.5q-22 0 -22 23q0 5 3 35zM117 -8q-20 0 -32 13t-12 34q0 27 17.5 45.5t44.5 18.5q18 0 30 -13.5t12 -32.5q0 -27 -17 -46t-43 -19z" />
    <glyph glyph-name="at" unicode="@" horiz-adv-x="820" 
d="M639 574l-118 -304q-20 -60 -20 -66q0 -26 36 -26q72 0 142 87q61 75 61 168q0 55 -24 109t-64 93q-86 82 -221 82q-149 0 -252 -104t-103 -253q0 -141 102 -242t243 -101q97 0 177.5 49t125.5 136h36q-48 -103 -137.5 -160t-202.5 -57q-155 0 -266 110.5t-111 265.5
q0 162 112.5 274t274.5 112q137 0 239.5 -89t102.5 -224q0 -106 -71 -191q-37 -43 -86 -71t-101 -28q-37 0 -54 20t-12 57q-67 -71 -143 -71q-56 0 -87.5 37.5t-31.5 93.5q0 69 30.5 139t90 119.5t130.5 49.5q74 0 105 -61l18 46h79zM322 184q26 0 46 9.5t37 32t25 35.5
t24 44q59 116 59 178q0 30 -14.5 50.5t-43.5 20.5q-53 0 -100 -56t-71 -124.5t-24 -119.5q0 -31 16 -50.5t46 -19.5z" />
    <glyph glyph-name="A" unicode="A" horiz-adv-x="740" 
d="M516 253h-338q-22 -36 -48 -93t-26 -81q0 -13 6.5 -21.5t15 -11t15 -7.5t6.5 -14q0 -25 -39 -25h-92q-24 0 -33 2.5t-9 14.5q0 15 16 26q6 4 10 7t7.5 5t6 5.5t4.5 5t4 6.5t3.5 7t4.5 9.5t5 11.5q172 372 391 638q9 9 16 9q8 0 23 -30q105 -221 178 -650q2 -12 20 -22
q19 -11 19 -22q0 -23 -35 -23h-140q-25 0 -25 19q0 15 24 25l17.5 7.5t10 7t8 12t1.5 18.5q0 49 -27 164zM206 305h298q-42 205 -95 318q-96 -116 -203 -318z" />
    <glyph glyph-name="B" unicode="B" horiz-adv-x="680" 
d="M84 128l68 402q18 104 18 122q0 16 -5.5 22t-21.5 11q-1 1 -4.5 2t-5 1.5t-4.5 2t-4.5 2.5t-3.5 2.5t-3 3.5t-1.5 4.5t-0.5 5.5q0 16 10.5 19.5t36.5 3.5h305q82 0 135 -33.5t53 -103.5q0 -77 -64 -131.5t-146 -73.5q80 -6 138 -50.5t58 -120.5q0 -36 -16.5 -73
t-49.5 -70.5t-90.5 -54.5t-130.5 -21h-328q-25 0 -25 18t26 25q22 5 34 19.5t14.5 25.5t7.5 40zM229 477l-18 -103q191 28 271 84t80 137q0 52 -41 69.5t-123 17.5q-90 0 -109 -7q-17 -7 -24 -24q-15 -36 -36 -174zM203 323l-18 -106q-17 -102 -17 -128q0 -24 23 -33
q21 -9 83 -9q136 0 203 46.5t67 125.5q0 58 -46.5 95.5t-108.5 48.5q-104 -31 -186 -40z" />
    <glyph glyph-name="C" unicode="C" horiz-adv-x="720" 
d="M708 591q0 -1 -0.5 -8t-1 -10.5l-1.5 -11t-2.5 -11.5t-3 -10.5t-4 -10.5t-6 -7.5t-8 -5.5t-9.5 -2q-21 0 -25 33q-10 67 -60 108.5t-126 41.5t-138 -33.5t-101 -90t-59.5 -127.5t-20.5 -149q0 -127 58 -192t158 -65q67 0 138.5 36t112.5 89q16 21 27 21q10 0 19.5 -9
t9.5 -19q0 -23 -34 -56.5t-64 -52.5q-100 -64 -220 -64q-139 0 -222 88.5t-83 227.5q0 50 12.5 105.5t44 117.5t79 110.5t125.5 80.5t174 32q98 0 188 -52q2 -1 8.5 -5t9.5 -5.5t9 -5.5t9.5 -7.5t7 -8t5 -9.5t1.5 -10q0 -16 -7 -53z" />
    <glyph glyph-name="D" unicode="D" horiz-adv-x="760" 
d="M84 129l73 434q13 81 13 92q0 10 -3.5 16t-8.5 8.5t-15 6.5l-13.5 4.5t-9.5 7t-5 12.5q0 11 5.5 15.5t14 5.5t30.5 1h248q78 0 139.5 -22t96 -54t57 -74.5t30 -78.5t7.5 -71q0 -26 -4 -57.5t-17 -74.5t-33.5 -83t-57 -80t-83 -70t-116 -48.5t-152.5 -18.5h-254
q-25 0 -25 18q0 19 26 25q22 5 34 20t14.5 25t8.5 41zM249 583l-71 -425q-7 -42 -7 -60q0 -28 17 -38q22 -14 86 -14q167 0 269.5 111t102.5 277q0 132 -68 192t-203 60q-71 0 -96 -17q-18 -14 -30 -86z" />
    <glyph glyph-name="E" unicode="E" horiz-adv-x="660" 
d="M219 420h204q37 0 68 21q18 11 25 11q15 0 15 -17q0 -10 -6 -43t-12 -43.5t-19 -10.5q-10 0 -26 14q-19 16 -44 16h-213l-23 -133q-17 -109 -17 -145q0 -26 20 -34q17 -8 85 -8q93 0 148 9t74 19.5t50 35.5q22 20 33 20q15 0 15 -11q0 -15 -31 -98q-5 -14 -11.5 -18.5
t-20.5 -4.5h-507q-25 0 -25 19q0 8 4 13t8.5 6.5l13.5 4.5q31 9 43 35q11 26 32 151l50 303q18 101 18 117q0 17 -6 24.5t-21 12.5q-1 1 -5.5 2t-6 2t-5 2.5t-5 3t-3 4t-2.5 5t-1 6.5q0 10 6.5 14.5t15 5.5t28.5 1h452q16 0 22 -6.5t6 -25.5q0 -53 -5.5 -71.5t-19.5 -18.5
q-10 0 -21 17q-24 33 -74 45q-37 9 -120 9q-113 0 -134 -23q-6 -7 -11.5 -20.5t-7.5 -23.5t-5 -29.5t-4 -22.5z" />
    <glyph glyph-name="F" unicode="F" horiz-adv-x="580" 
d="M84 128l73 436q13 75 13 93q0 14 -6.5 19.5t-21.5 11.5q-1 0 -4.5 1.5t-5 2l-4.5 1.5t-4 2t-3.5 3t-3 4t-1.5 4.5t-1 5.5q0 20 27 20h455q22 0 26.5 -8.5t4.5 -52.5q0 -60 -24 -60q-13 0 -24 19q-31 53 -202 53q-94 0 -109 -21q-16 -22 -29 -122l-23 -137h141q54 0 95 13
t46 13q18 0 18 -21q0 -42 -13 -77q-6 -16 -24 -16q-7 0 -16 9t-31 18t-59 9h-166l-25 -150q-18 -112 -18 -121q0 -15 6 -21.5t21 -13.5l4 -1q5 -2 6 -2.5l5 -2.5t5 -3l3.5 -3.5t3 -5t0.5 -5.5q0 -10 -8 -15.5t-16 -6t-25 -0.5h-145q-24 0 -24 19q0 17 26 24q13 3 23 10.5
t14.5 11.5t9.5 19.5t5.5 18.5t4.5 25z" />
    <glyph glyph-name="G" unicode="G" horiz-adv-x="760" 
d="M516 369h194q30 0 30 -14q0 -1 -8 -29.5t-17.5 -85.5t-13.5 -125q-1 -13 -5.5 -19.5t-18.5 -17.5q-53 -40 -138.5 -66.5t-154.5 -26.5q-149 0 -246.5 85.5t-97.5 232.5q0 73 27 148t79 142.5t140 110.5t196 43q101 0 180 -36q17 -8 27 -14t23 -16t19 -22.5t6 -28.5
q0 -5 -6 -47q0 -2 -1.5 -13t-2.5 -16.5t-4 -13.5t-8.5 -12t-13.5 -4q-21 0 -27 36q-16 68 -73 99.5t-133 31.5q-69 0 -126.5 -29t-93.5 -72.5t-60.5 -97.5t-35 -101t-10.5 -86q0 -77 26 -132.5t67.5 -82.5t81 -39t79.5 -12q107 0 168 54q59 54 59 173q0 27 -15.5 37
t-63.5 10h-31q-23 0 -30 4t-7 15q0 37 40 37z" />
    <glyph glyph-name="H" unicode="H" horiz-adv-x="820" 
d="M647 372h-437l-27 -167q-18 -106 -18 -127q0 -15 5.5 -21t21.5 -12l4 -1q5 -2 6 -2.5l5 -2.5t5 -3l3.5 -3.5t3 -5t0.5 -5.5q0 -11 -6.5 -15.5t-15 -5.5t-28.5 -1h-124q-26 0 -34.5 2.5t-8.5 15.5q0 8 4 13t8.5 7t12.5 5q32 7 44 35q10 24 31 151l53 311q15 89 15 113
q0 15 -6 21t-22 11q-1 1 -6 2.5t-6.5 2.5t-5 3t-5 4t-3 5.5t-1.5 7.5q0 8 3 12.5t11 6.5t14.5 2.5t21.5 0.5h124q43 0 43 -20q0 -19 -25 -24q-16 -4 -26.5 -11.5t-16.5 -21t-8.5 -23t-5.5 -30.5l-31 -178h437l24 151q10 61 10 77q0 15 -6 21.5t-20 11.5q-1 1 -4.5 2t-5 1.5
t-4.5 2t-4.5 2.5t-3.5 2.5t-3 3.5t-1.5 4.5t-0.5 5.5q0 23 26 23h168q23 0 23 -20q0 -18 -25 -24q-32 -9 -44 -36q-8 -18 -31 -150l-52 -308q-15 -93 -15 -109q0 -30 26 -40q1 0 7 -2.5t8 -3.5t5.5 -4t5 -6t1.5 -8q0 -10 -7.5 -15t-16 -5.5t-25.5 -0.5h-145q-23 0 -23 18
q0 8 4 13t8.5 7t12.5 5q32 8 44 35q9 20 31 151z" />
    <glyph glyph-name="I" unicode="I" 
d="M102 229l50 302q18 109 18 118q0 16 -6 23.5t-21 13.5q-2 1 -5.5 2t-5.5 2t-5.5 2.5t-5 3t-3 3.5t-2.5 5t-1 6q0 22 27 22h168q23 0 23 -19q0 -18 -26 -24q-32 -9 -43 -35q-12 -28 -32 -151l-50 -303q-17 -99 -17 -115q0 -29 26 -40l12 -4q16 -7 16 -20q0 -21 -26 -21
h-168q-23 0 -23 18q0 8 4 13t8.5 7t12.5 5q33 9 44 35q9 21 31 151z" />
    <glyph glyph-name="J" unicode="J" horiz-adv-x="500" 
d="M292 209l54 322q18 104 18 118q0 28 -27 37q-1 1 -4.5 2t-5 1.5t-4.5 2t-4.5 2.5t-3.5 2.5t-3 3.5t-1.5 4.5t-0.5 5.5q0 22 26 22h168q23 0 23 -19q0 -18 -26 -24q-31 -8 -43 -35q-9 -20 -31 -151l-54 -319q-17 -100 -75.5 -149.5t-146.5 -49.5q-70 0 -118 33.5
t-48 101.5q0 59 34 102t91 43q21 0 35.5 -11t14.5 -30q0 -16 -11.5 -30t-30.5 -14q-4 0 -12 2.5t-12 2.5q-22 0 -33 -20.5t-11 -44.5q0 -40 26 -60.5t67 -20.5q55 0 94 35.5t55 134.5z" />
    <glyph glyph-name="K" unicode="K" horiz-adv-x="700" 
d="M102 229l50 302q18 108 18 120q0 16 -6 23t-21 12q-27 9 -27 24t10 18t38 3h125h16.5t13 -1.5t11.5 -5.5t3 -11q0 -18 -26 -24q-32 -8 -44 -35q-9 -23 -31 -151l-27 -168q195 150 290 245q55 55 55 79q0 14 -21 24t-21 22q0 27 40 27h149q30 0 30 -22q0 -13 -7.5 -19
t-23.5 -12q-25 -10 -54 -39q-131 -127 -239 -216q123 -150 182 -329q8 -23 18.5 -35.5t18.5 -14.5t13.5 -7t5.5 -15q0 -23 -25 -23h-141q-22 0 -22 17q0 15 23 26t23 28q0 31 -39 114t-117 190q-50 -43 -152 -119q-27 -147 -27 -176q0 -16 6 -22.5t21 -12.5q1 0 5 -1.5
t5.5 -2t5 -2t5 -3l3.5 -3.5t3 -5t1 -6q0 -22 -27 -22h-167q-23 0 -23 18q0 8 4 13t8.5 7t12.5 5q32 8 44 34q9 19 31 152z" />
    <glyph glyph-name="L" unicode="L" horiz-adv-x="640" 
d="M102 229l50 303q17 105 17 120q0 16 -5.5 22.5t-20.5 12.5q-2 1 -6.5 2.5t-6.5 2.5t-5.5 2.5t-5 3.5t-3 5.5t-1.5 7.5q0 10 6.5 14.5t14.5 5.5t27 1h136q16 0 23 -0.5t13.5 -4.5t6.5 -13q0 -13 -7.5 -17.5t-22.5 -7.5q-21 -4 -31.5 -10.5t-18.5 -24.5q-8 -19 -31 -151
l-41 -247q-18 -108 -18 -152q0 -25 5.5 -35.5t27.5 -13.5q34 -6 102 -6q84 0 141 12.5t108 53.5q14 11 20 11t11 -4.5t5 -10.5q0 -10 -13 -46.5t-20 -48.5q-7 -11 -15 -13.5t-25 -2.5h-492q-20 0 -20 18q0 11 6 15.5t19 9.5q18 8 26.5 16.5t14.5 26.5q12 40 29 143z" />
    <glyph glyph-name="M" unicode="M" horiz-adv-x="880" 
d="M92 142l75 464q5 35 5 43q0 16 -7 23.5t-24 12.5q-1 0 -6 1.5t-6 2t-5 2t-5 3t-3.5 3.5t-3 5t-0.5 7q0 23 33 23h127q15 0 19.5 -8.5t7.5 -27.5l55 -220q30 -122 67 -223l8 -23q17 25 286 476q9 15 15.5 20.5t19.5 5.5h136q25 0 25 -14q0 -23 -27 -28q-42 -9 -52 -31
q-4 -10 -10 -38t-13 -66.5t-8 -43.5q-66 -368 -66 -424q0 -18 8 -27.5t17.5 -11.5t17.5 -7t8 -15q0 -26 -27 -26h-163q-23 0 -23 18q0 7 3.5 12t6.5 6t12 5q34 13 40 27q4 8 20 93l92 494l-286 -480q-56 -87 -67 -87q-9 0 -16 14q-78 242 -150 538l-62 -415
q-14 -91 -14 -138q0 -20 8 -30t17 -11.5t17 -6.5t8 -17q0 -22 -29 -22h-145q-22 0 -22 16q0 7 2.5 12t11 9.5t10 5.5t13.5 5q13 5 21.5 11.5t13.5 18t6.5 17t4 24t3.5 23.5z" />
    <glyph glyph-name="N" unicode="N" horiz-adv-x="780" 
d="M616 179l56 353q15 93 15 114q0 29 -31 44q-1 1 -5 3t-5.5 2.5t-4 3t-3.5 4t-2 4.5t-1 7q0 18 28 18h127q24 0 24 -13q0 -17 -26 -28q-15 -6 -25 -19t-16.5 -35.5t-8 -31.5t-5.5 -35l-82 -528q0 -1 -1.5 -9.5t-2 -12t-2.5 -10t-5 -9.5t-7.5 -6t-10.5 -3q-12 0 -20 20
q-138 330 -363 630l-64 -442q-12 -85 -12 -111q0 -20 10.5 -31t23 -13t23 -7.5t10.5 -15.5q0 -22 -31 -22h-163q-21 0 -21 13q0 22 32 30q18 5 27.5 13t19.5 36.5t19 84.5l45 275q21 128 21 185q0 7 -1 13t-1.5 10t-4 7.5t-5 5.5t-7 4.5t-7.5 3.5t-10 4t-11 4q-21 8 -21 22
q0 21 39 21h110q16 0 40 -33q162 -203 316 -520z" />
    <glyph glyph-name="O" unicode="O" horiz-adv-x="780" 
d="M359 -15q-147 0 -232.5 85t-85.5 233q0 52 14.5 110t47.5 118t79 108t117 78t155 30q144 0 227 -86.5t83 -230.5q0 -120 -48.5 -220.5t-142 -162.5t-214.5 -62zM355 37q78 0 139.5 36t98 95t55 129t18.5 145q0 112 -55.5 182t-164.5 70q-76 0 -137 -38.5t-97.5 -100
t-55.5 -132.5t-19 -142q0 -107 56.5 -175.5t161.5 -68.5z" />
    <glyph glyph-name="P" unicode="P" horiz-adv-x="640" 
d="M102 230l50 301q17 105 17 116q0 18 -5.5 26.5t-20.5 13.5l-13.5 4.5t-9.5 7t-5 12.5q0 10 6.5 14.5t15.5 5.5t30 1h254q247 0 247 -163q0 -120 -129.5 -202.5t-343.5 -82.5q-30 -166 -30 -199q0 -18 5 -25.5t21 -14.5l11 -4q16 -6 16 -20q0 -21 -26 -21h-167
q-23 0 -23 18q0 8 4 13t8.5 7t12.5 5q31 7 44 35q9 19 31 152zM243 564l-39 -228q169 0 269.5 65.5t100.5 156.5q0 63 -49.5 95t-140.5 32q-79 0 -106 -21q-14 -11 -20 -29.5t-15 -70.5z" />
    <glyph glyph-name="Q" unicode="Q" horiz-adv-x="780" 
d="M437 -11q58 -61 149 -61q9 0 27.5 2t27.5 2q27 0 27 -27q0 -51 -78 -51q-69 0 -125.5 35t-87.5 96q-159 2 -246.5 85.5t-87.5 229.5q0 61 15.5 122.5t49 120t81 104t116 73t148.5 27.5q148 0 232 -86.5t84 -235.5q0 -100 -39 -193.5t-116.5 -161t-176.5 -81.5zM357 35
q-8 33 -8 75q0 22 6.5 42.5t20.5 20.5q13 0 16 -6.5t3 -23.5q0 -57 14 -104q107 10 183.5 120.5t76.5 274.5q0 132 -60 196t-155 64q-76 0 -138 -38t-98.5 -99.5t-56 -132.5t-19.5 -143q0 -108 54.5 -173.5t160.5 -72.5z" />
    <glyph glyph-name="R" unicode="R" horiz-adv-x="700" 
d="M102 229l50 302q17 106 17 120q0 16 -5.5 23t-20.5 12q-1 1 -4.5 2t-5 1.5t-4.5 2t-4.5 2.5t-3.5 3t-3 4t-1.5 4.5t-0.5 5.5q0 21 26 21h313q118 0 170 -28.5t52 -100.5q0 -84 -65 -145.5t-154 -86.5q71 -105 108 -261q9 -41 21 -54q7 -7 19 -13q20 -9 20 -23
q0 -20 -19 -20h-172q-15 0 -15 17q0 11 9.5 17.5t21 9.5t21 12.5t9.5 25.5q0 39 -25.5 112.5t-79.5 151.5q-77 -22 -175 -32l-19 -114q-17 -98 -17 -121q0 -16 5.5 -22t20.5 -12l12 -4q16 -5 16 -20q0 -21 -26 -21h-168q-23 0 -23 18q0 12 6 16.5t19 8.5q31 9 44 35
q9 18 31 151zM242 564l-32 -193q45 5 85.5 11.5t96 22t95 37t67.5 58t28 82.5q0 108 -182 108q-101 0 -128 -22q-7 -6 -12.5 -20.5t-8 -28t-5.5 -32t-4 -23.5z" />
    <glyph glyph-name="S" unicode="S" horiz-adv-x="620" 
d="M532 574q-3 39 -21.5 65.5t-46 38t-49.5 15.5t-44 4q-79 0 -123.5 -41.5t-44.5 -93.5q0 -39 27.5 -69.5t68.5 -48l89.5 -38.5t89.5 -41t68.5 -56.5t27.5 -83.5q0 -75 -44 -131.5t-108.5 -82.5t-137.5 -26q-58 0 -116 16t-105 57.5t-47 101.5q0 38 19 62.5t55 24.5
q19 0 32.5 -11t13.5 -29q0 -10 -11 -31.5t-11 -36.5q0 -37 50 -68t125 -31q76 0 135.5 41.5t59.5 115.5q0 40 -28 69.5t-69.5 45.5l-90 36t-90 40.5t-69.5 58.5t-28 90q0 98 77.5 154t178.5 56q96 0 181 -40q31 -15 38 -23t7 -28q0 -16 -4 -56t-7 -49q-6 -14 -20 -14
q-25 0 -28 37z" />
    <glyph glyph-name="T" unicode="T" horiz-adv-x="660" 
d="M273 229l60 362q11 64 11 78q0 4 -1 7t-4 4.5t-5.5 2.5t-7 1.5t-7 0.5h-7.5h-6q-73 0 -114 -17.5t-86 -59.5q-11 -11 -20 -11q-16 0 -16 16q0 13 27 89q1 2 2 6.5t1.5 6t2 5t2.5 4.5t3 3.5t4 3t5 1t7 0.5h543q10 0 14.5 -2.5t8.5 -20.5t4 -54v-6.5v-8v-8t-1 -8.5t-2 -7.5
t-3 -7.5t-4.5 -5.5t-6 -4t-7.5 -1.5q-10 0 -23 13.5t-27 30t-51 30t-90 13.5q-28 0 -35.5 -8.5t-14.5 -47.5l-74 -429q-16 -96 -16 -120q0 -16 5 -22t21 -13l11 -4q16 -6 16 -20q0 -21 -26 -21h-170q-23 0 -23 20q0 16 26 23q32 8 43 34q10 24 31 152z" />
    <glyph glyph-name="U" unicode="U" horiz-adv-x="760" 
d="M139 732h149q31 0 31 -20q0 -19 -27 -29q-1 0 -8 -2.5t-8.5 -3t-7 -3.5t-8 -5.5t-6.5 -7.5t-7 -11q-25 -47 -64.5 -211t-39.5 -231q0 -78 60 -124.5t145 -46.5q64 0 125 25t94 73q28 40 47 118t26.5 164t10 136t2.5 81q0 38 -27 49q-1 0 -5.5 2t-5.5 2.5l-5 2.5t-5.5 3.5
t-3.5 4t-3 5.5t-1 6q0 23 30 23h139q26 0 26 -20q0 -16 -24 -25q-37 -14 -41 -36l-12 -87l-7 -99q0 -2 -5 -49.5t-6.5 -60.5t-7.5 -54.5t-11.5 -62.5t-14 -49.5t-19.5 -48.5q-40 -77 -122.5 -116t-178.5 -39q-45 0 -85.5 7t-78.5 23t-65.5 40t-44 61.5t-16.5 83.5
q0 59 47 251t47 198q0 18 -11 25.5t-22 13t-11 18.5q0 26 36 26z" />
    <glyph glyph-name="V" unicode="V" horiz-adv-x="700" 
d="M604 732h128q24 0 24 -22q0 -11 -23 -28.5t-29 -31.5q-165 -404 -342 -618q-1 -1 -9.5 -12t-13.5 -16.5t-13.5 -12t-15.5 -6.5q-5 0 -9.5 3t-8.5 8.5t-6.5 10.5l-6 12l-4.5 9q-117 214 -157 634q-1 13 -14 21q-17 16 -18 24q0 25 32 25h140q27 0 27 -18q0 -17 -25 -25
q-27 -10 -36 -24t-9 -56q0 -76 41 -257.5t84 -256.5q97 122 189.5 314t92.5 236q0 22 -26 35q-2 1 -6.5 3t-6.5 3t-5 3t-4 4t-2 5.5t-1 7.5q0 26 33 26z" />
    <glyph glyph-name="W" unicode="W" horiz-adv-x="980" 
d="M117 732h137q27 0 27 -22q0 -17 -26 -25q-9 -3 -14 -5t-12.5 -7.5t-11 -16t-3.5 -26.5q0 -293 51 -519q60 81 155 288.5t95 254.5q0 12 -6.5 19.5t-13.5 9.5t-13.5 7t-6.5 15q0 27 32 27h125q29 0 29 -23q0 -13 -11 -20t-23.5 -11t-23.5 -22.5t-11 -51.5q0 -221 83 -494
q81 115 157 304t76 238q0 14 -8 21.5t-17 9.5t-17 8t-8 16q0 25 31 25h119q24 0 24 -20q0 -10 -30 -33q-14 -11 -19 -19.5t-11 -29.5q-34 -118 -111 -292t-153 -286l-10.5 -15.5l-10 -15t-8.5 -12t-8.5 -10.5t-7.5 -7.5t-8 -5t-8 -1.5q-23 0 -48 86q-73 228 -81 415
q-72 -182 -146 -308q-78 -128 -101.5 -160.5t-36.5 -32.5q-6 0 -11 3t-8.5 9.5t-5 11l-4.5 13.5t-3 10q-68 208 -77 581q-1 33 -5 44.5t-16 22.5q-17 15 -17 25q0 27 30 27z" />
    <glyph glyph-name="X" unicode="X" horiz-adv-x="740" 
d="M124 732h152q24 0 24 -20q0 -14 -24 -21t-24 -23q0 -40 48.5 -124t84.5 -118q200 182 200 237q0 17 -23.5 26t-23.5 24q0 19 29 19h156q30 0 30 -17q0 -9 -5.5 -13.5t-17.5 -9.5q-36 -14 -80 -67q-114 -137 -227 -241q66 -75 101 -129.5t82 -151.5q8 -18 13 -26.5
t15.5 -18.5t24.5 -16q20 -8 20 -20q0 -22 -34 -22h-146q-26 0 -26 19q0 15 24 25t24 29q0 33 -62 128t-98 126q-123 -127 -166 -181t-43 -81q0 -12 18 -21.5t18 -20.5q0 -23 -37 -23h-146q-27 0 -27 20q0 16 29 27q41 16 107 92q142 162 210 230q-58 74 -89 126t-70 135
q-21 43 -42 55l-8 4t-9 5t-6 6t-3 9q0 23 27 23z" />
    <glyph glyph-name="Y" unicode="Y" horiz-adv-x="740" 
d="M635 732h135q25 0 25 -18q0 -4 -1.5 -8t-4.5 -7.5l-5 -6t-7 -6.5t-6 -5q-16 -7 -31.5 -24.5t-47.5 -64.5q-55 -80 -264 -291q-34 -188 -34 -223q0 -15 5.5 -21t20.5 -12l12 -4q16 -7 16 -20q0 -21 -27 -21h-174q-23 0 -23 18t26 24q31 8 43 35q11 26 43 215
q-52 67 -106.5 162.5t-85.5 175.5q-1 3 -3.5 8.5t-3.5 7.5t-3.5 6.5t-3.5 6l-3.5 5t-4 5t-4.5 4t-5.5 4t-6.5 3t-8 3.5q-19 8 -19 24q0 25 31 25h143q29 0 29 -19q0 -12 -8.5 -19t-19 -9.5t-19 -10t-8.5 -19.5q0 -31 47 -119t120 -191q122 117 190.5 201.5t68.5 109.5
q0 12 -6 18t-19 11q-19 8 -21 16q-1 3 -1 7q0 24 29 24z" />
    <glyph glyph-name="Z" unicode="Z" horiz-adv-x="580" 
d="M447 0h-402q-27 0 -38 1t-19.5 6.5t-8.5 18.5q0 35 70 121.5t225 254.5q212 229 212 264q0 8 -2.5 11.5t-18 5.5t-49.5 2q-53 0 -81.5 -1.5t-66.5 -6.5t-63.5 -18t-42.5 -35q-18 -24 -33 -24q-14 0 -14 15q0 9 21 87q6 20 14 25t30 5h392q12 0 18 -0.5t11.5 -5.5t5.5 -14
q0 -32 -61 -119t-164 -197q-277 -295 -277 -331q0 -14 35 -14h74q98 0 166 15.5t113 64.5q8 10 19 10q13 0 13 -11q0 -13 -15 -62t-22 -60q-6 -8 -41 -8z" />
    <glyph glyph-name="bracketleft" unicode="[" horiz-adv-x="220" 
d="M-21 -55l126 769q5 31 10.5 37t28.5 6h74q49 0 49 -19q0 -4 -1 -7t-2.5 -5t-4.5 -4t-5 -3.5t-7 -3t-7 -2t-7.5 -2t-7.5 -1.5q-4 -1 -11 -3t-9.5 -2.5t-8 -2t-7.5 -3t-6.5 -3.5t-6 -4.5t-4 -6t-4 -7.5t-3 -9.5t-2.5 -11.5l-107 -661q-6 -38 -6 -68q0 -12 18 -21
q2 -1 18 -4t28.5 -9t12.5 -14q0 -18 -12 -23t-44 -5h-63q-40 0 -40 15q0 13 11 78z" />
    <glyph glyph-name="backslash" unicode="\" horiz-adv-x="600" 
d="M391 0l-308 757h71l306 -757h-69z" />
    <glyph glyph-name="bracketright" unicode="]" horiz-adv-x="220" 
d="M249 664l-126 -769q-5 -31 -10.5 -37t-28.5 -6h-74q-49 0 -49 19q0 4 1 7t2.5 5t4.5 4t5 3.5t7 3t7 2t7.5 2t7.5 1.5q4 1 11 3t9.5 2.5t8 2t7.5 3t6.5 3.5t6 4.5t4 6t4 7.5t3 9.5t2.5 11.5l107 661q6 38 6 68q0 16 -19 21q-7 2 -19 5t-17 4.5t-11 4t-8.5 6t-2.5 7.5
q0 14 7 20t16 7t33 1h63q40 0 40 -15q0 -13 -11 -78z" />
    <glyph glyph-name="asciicircum" unicode="^" horiz-adv-x="660" 
d="M114 178h-63l252 554h58l255 -554h-64l-221 480z" />
    <glyph glyph-name="underscore" unicode="_" horiz-adv-x="500" 
d="M0 -78h500v-49h-500v49z" />
    <glyph glyph-name="grave" unicode="`" horiz-adv-x="280" 
d="M138 641l110 -55q27 -15 27 -24t-6.5 -18t-15.5 -9q-5 0 -52 14l-113 37q-38 13 -38 30q0 13 10.5 28.5t24.5 15.5t53 -19z" />
    <glyph glyph-name="a" unicode="a" horiz-adv-x="520" 
d="M458 438l-31 -164q-21 -135 -21 -167q0 -18 8 -26.5t17 -9t17 -4.5t8 -14q0 -16 -40 -38.5t-58 -22.5q-15 0 -19.5 22.5t-4.5 75.5q-61 -101 -158 -101q-76 0 -118.5 55t-42.5 134q0 70 32.5 138t93 114t131.5 46q74 0 111 -55q37 48 63 48q14 0 14 -16q0 -7 -2 -15z
M191 49q43 0 77 29.5t53 74t29 89.5t10 84q0 43 -25.5 69.5t-67.5 26.5q-54 0 -95 -41t-59.5 -94.5t-18.5 -105.5q0 -53 24 -92.5t73 -39.5z" />
    <glyph glyph-name="b" unicode="b" horiz-adv-x="540" 
d="M60 103l71 420q0 2 8 50.5t8 65.5q0 14 -6.5 21.5t-15 9t-15 6t-6.5 11.5q0 21 44 45.5t68 24.5q9 0 15 -6t6 -15t-7 -48l-20 -111t-22 -128q-5 -29 -13 -64q63 91 162 91q83 0 128 -53.5t45 -137.5q0 -114 -80 -205t-191 -91q-82 0 -117 55q-41 -52 -61 -52
q-16 0 -16 18q0 10 2.5 25.5t6.5 36zM317 416q-56 0 -98 -47t-59 -105.5t-17 -113.5q0 -49 27 -79.5t76 -30.5q81 0 131 72.5t50 158.5q0 62 -26 103.5t-84 41.5z" />
    <glyph glyph-name="c" unicode="c" horiz-adv-x="460" 
d="M345 40q-75 -51 -147 -51q-81 0 -131.5 51.5t-50.5 132.5q0 114 82 208.5t195 94.5q27 0 56.5 -8.5t54 -29t24.5 -48.5q0 -20 -13 -33.5t-32 -13.5q-17 0 -27.5 12.5t-15.5 28t-19.5 28t-38.5 12.5q-76 0 -129 -77.5t-53 -172.5q0 -60 30.5 -95t88.5 -35q42 0 77.5 20
t56.5 40t29 20q18 0 18 -19q0 -14 -19.5 -34t-35.5 -31z" />
    <glyph glyph-name="d" unicode="d" horiz-adv-x="580" 
d="M420 410l21 113q17 105 17 116q0 14 -8 21.5t-17 9t-17 6t-8 11.5q0 21 47.5 45.5t71.5 24.5q9 0 15 -6t6 -15t-7 -48l-20 -111t-22 -128q-49 -298 -49 -334q0 -21 9 -31t20 -11t20 -5.5t9 -15.5q0 -14 -45.5 -37t-64.5 -23q-21 0 -21 31q0 42 3 87q-27 -47 -72.5 -84
t-108.5 -37q-81 0 -131 56t-50 139q0 108 84.5 200t191.5 92q97 0 126 -66zM297 423q-86 0 -139.5 -72.5t-53.5 -161.5q0 -66 30 -104.5t81 -38.5q50 0 92.5 41.5t65.5 103.5t23 127q0 48 -26 76.5t-73 28.5z" />
    <glyph glyph-name="e" unicode="e" horiz-adv-x="500" 
d="M99 191q-6 -71 32.5 -106t110.5 -35q37 0 71.5 12t54 27t37 27t24.5 12q18 0 18 -16q0 -24 -57 -63q-87 -60 -182 -60q-86 0 -139.5 52.5t-53.5 138.5q0 115 93.5 205.5t208.5 90.5q79 0 115 -30.5t36 -70.5q0 -67 -91 -121.5t-278 -62.5zM102 237q30 0 75 8t94.5 22.5
t83 41.5t32.5 60q-1 30 -24.5 46t-52.5 16q-70 0 -131.5 -60t-76.5 -134z" />
    <glyph glyph-name="f" unicode="f" horiz-adv-x="360" 
d="M166 415h-50q-13 0 -18.5 3t-5.5 15q0 23 9.5 28.5t36.5 5.5h36q14 89 37.5 151t50.5 90t48.5 38.5t42.5 10.5q22 0 39.5 -11t17.5 -32q0 -16 -9.5 -28t-25.5 -12q-13 0 -23.5 8t-15.5 8q-53 0 -87 -223h79q20 0 20 -19q0 -15 -8 -22.5t-17 -9t-25 -1.5h-55l-43 -270
q-54 -338 -205 -338q-39 0 -39 34q0 18 13.5 30.5t31.5 12.5q11 0 22 -5t16 -5q21 0 40 54q20 60 43 207z" />
    <glyph glyph-name="g" unicode="g" horiz-adv-x="520" 
d="M462 410h-52q48 -38 48 -130q0 -60 -35.5 -123.5t-87.5 -91.5q40 -11 68 -41t28 -69q0 -68 -70.5 -113.5t-183.5 -45.5q-21 0 -49 3t-62.5 10t-57.5 23t-23 38t22.5 50.5t42.5 28.5q13 0 13 -11q0 -4 -4 -14.5t-4 -16.5q0 -28 44 -40.5t84 -12.5q80 0 126 27.5t46 69.5
q0 37 -28.5 57t-69.5 24q-30 -9 -61 -9q-71 0 -118 49.5t-47 122.5q0 109 71.5 195t178.5 86q22 0 64 -4q35 -5 134 -5q35 0 35 -22q0 -35 -52 -35zM215 75q55 0 94 38.5t55 89t16 104.5q0 53 -28.5 89.5t-80.5 36.5q-51 0 -89.5 -40t-54.5 -91t-16 -101q0 -54 26 -90
t78 -36z" />
    <glyph glyph-name="h" unicode="h" horiz-adv-x="580" 
d="M70 135l67 390q15 93 15 114q0 14 -6.5 21.5t-15 9t-15 6t-6.5 11.5q0 21 46 45.5t70 24.5q9 0 15 -6t6 -15t-7 -49l-25 -139l-34 -188q34 55 77.5 85.5t109.5 30.5q60 0 97 -33.5t37 -93.5q0 -34 -15 -119q-22 -126 -22 -140q0 -21 21.5 -26.5t21.5 -13.5q0 -18 -43 -38
t-63 -20q-22 0 -22 45q0 16 23 156q21 124 21 144q0 88 -79 88q-50 0 -93.5 -46.5t-66.5 -107.5q-7 -18 -12.5 -35.5t-10.5 -37.5l-8.5 -33t-7.5 -37t-5.5 -34l-6 -38.5t-5.5 -36.5q-3 -13 -11 -16t-29 -3h-17t-11 1.5t-8 4t-2 7.5t20 122z" />
    <glyph glyph-name="i" unicode="i" horiz-adv-x="280" 
d="M90 210q24 131 24 157q0 14 -8 21t-17.5 7.5t-17.5 5t-8 14.5q0 16 24 27q68 34 86 34q30 0 30 -31q0 -8 -29 -167q-30 -168 -30 -186q0 -10 4.5 -15.5t10.5 -7.5t17 -3q25 -2 25 -19q0 -18 -41 -36.5t-63 -18.5q-31 0 -31 40q0 47 24 178zM166 541q-20 0 -32.5 14
t-12.5 35q0 27 17.5 46t43.5 19q18 0 29.5 -14.5t11.5 -33.5q0 -25 -16.5 -45.5t-40.5 -20.5z" />
    <glyph glyph-name="j" unicode="j" horiz-adv-x="260" 
d="M90 -28q22 108 37 200.5t20 136t5 58.5q0 14 -8 21t-17.5 7.5t-17.5 5t-8 14.5q0 16 24 27q68 34 86 34q30 0 30 -31q0 -2 -61 -397q-17 -113 -76.5 -183t-110.5 -70q-18 0 -30 9.5t-12 26.5q0 18 15 30.5t33 12.5q7 0 19.5 -4.5t17.5 -4.5q18 0 30.5 25t23.5 82z
M206 541q-20 0 -32.5 14t-12.5 35q0 27 17.5 46t43.5 19q18 0 29.5 -14.5t11.5 -33.5q0 -25 -16.5 -45.5t-40.5 -20.5z" />
    <glyph glyph-name="k" unicode="k" horiz-adv-x="560" 
d="M152 226q61 112 158.5 181t151.5 69q23 0 38.5 -11.5t15.5 -33.5q0 -17 -10.5 -27.5t-26.5 -10.5q-14 0 -30.5 6t-28.5 6q-49 0 -119 -70q37 -135 73 -205.5t64 -70.5q5 0 14.5 1.5t13.5 1.5q22 0 22 -17q0 -18 -34 -35.5t-54 -17.5q-82 0 -159 290q-58 -77 -76 -114.5
t-29 -117.5q-5 -35 -10.5 -42.5t-28.5 -7.5q-20 0 -26.5 1t-10 5t-3.5 14q0 7 79 469q22 139 22 164q0 10 -7.5 15.5t-16.5 6.5t-16.5 6.5t-7.5 16.5q0 15 46 37t69 22q9 0 15 -6t6 -15q0 -12 -3 -32.5t-11 -62l-17.5 -89.5l-27 -139.5z" />
    <glyph glyph-name="l" unicode="l" 
d="M90 131l66 392q0 2 8 50.5t8 65.5q0 14 -6.5 21.5t-15 9t-15 6t-6.5 11.5q0 21 44 45.5t68 24.5q9 0 15 -6t6 -15t-7 -48l-20 -111t-22 -128l-48 -287q-8 -42 -8 -66q0 -14 5.5 -21.5t12 -9t12 -5t5.5 -11.5q0 -17 -42 -37t-61 -20q-17 0 -17 25q0 12 18 114z" />
    <glyph glyph-name="m" unicode="m" horiz-adv-x="880" 
d="M175 400v-60q29 56 75.5 96t111.5 40q49 0 83 -32t34 -81v-23q28 54 76.5 95t107.5 41q57 0 93 -35.5t36 -92.5q0 -20 -23 -139q-22 -111 -22 -121q0 -20 21.5 -25t21.5 -15q0 -17 -45 -36.5t-64 -19.5q-23 0 -23 36q0 12 32 167q25 122 25 152q0 33 -17 55t-49 22
q-51 0 -92 -45.5t-65 -114.5t-36.5 -129t-17.5 -110q-3 -24 -22 -25h-24q-38 0 -38 12q0 13 30 151q26 121 26 181q0 33 -18.5 56.5t-50.5 23.5q-76 0 -140 -123q-29 -56 -38.5 -88.5t-21.5 -119.5l-8 -60q-3 -24 -10 -28.5t-34 -4.5q-15 0 -21.5 0.5t-11.5 4.5t-5 13
q0 2 0.5 7t3 17.5l6 29.5t9.5 51.5l13 74.5q22 126 22 165q0 15 -6.5 23.5t-15 10t-15 5t-6.5 10.5q0 15 35.5 39.5t51.5 24.5q26 0 26 -76z" />
    <glyph glyph-name="n" unicode="n" horiz-adv-x="600" 
d="M184 419v-59q29 47 81 81.5t108 34.5q57 0 96 -34.5t39 -90.5q0 -34 -13 -103q-26 -139 -26 -158q0 -13 6.5 -19.5t15 -7t15 -4t6.5 -10.5q0 -19 -41.5 -38t-62.5 -19q-26 0 -26 39q0 15 3 33t11 59t14 75q22 126 22 145q0 37 -21.5 59.5t-58.5 22.5q-45 0 -91.5 -46
t-66.5 -99q-17 -46 -24 -68.5t-15.5 -63t-14.5 -94.5q-4 -39 -10.5 -46.5t-31.5 -7.5q-28 0 -35.5 1.5t-7.5 9.5q0 2 1.5 8t4.5 19.5t6 29.5q47 246 47 281q0 22 -4.5 31.5t-22.5 17.5q-2 1 -6 2.5t-6 2.5t-5 3t-4.5 4.5t-1.5 5.5q0 12 39 36t51 24q30 0 30 -57z" />
    <glyph glyph-name="o" unicode="o" horiz-adv-x="560" 
d="M229 -11q-88 0 -149.5 57.5t-61.5 144.5q0 113 85.5 199t197.5 86q95 0 156 -56.5t61 -150.5q0 -113 -87.5 -196.5t-201.5 -83.5zM238 38q85 0 139.5 76t54.5 165q0 62 -33.5 105.5t-94.5 43.5q-92 0 -145.5 -75t-53.5 -171q0 -65 34.5 -104.5t98.5 -39.5z" />
    <glyph glyph-name="p" unicode="p" horiz-adv-x="580" 
d="M83 164q25 167 25 192q0 17 -9 25.5t-19 9.5t-19 6t-9 15t23 23q7 4 17.5 9.5l15.5 8l12.5 6.5t11 5.5t8.5 4t8 3.5t7 2t6.5 1.5t5.5 0.5q13 0 16.5 -20.5t3.5 -80.5q19 39 62.5 70t109.5 31q84 0 132 -55t48 -140q0 -67 -36 -134.5t-98.5 -112.5t-130.5 -45
q-41 0 -73.5 14t-32.5 31q0 29 20 29q5 0 29.5 -11.5t52.5 -11.5q57 0 99.5 39t61.5 92t19 108q0 60 -29 99t-86 39q-46 0 -83 -33.5t-53 -70.5q-16 -34 -23.5 -66t-26.5 -142q-32 -184 -32 -220q0 -14 6.5 -22t14 -10t14 -7.5t6.5 -16.5q0 -22 -28 -22h-122q-32 0 -32 20
q0 11 7 16.5t21 10.5q25 9 31 34q18 75 48 276z" />
    <glyph glyph-name="q" unicode="q" horiz-adv-x="560" 
d="M349 -51l21 141q-67 -101 -177 -101q-78 0 -126.5 52t-48.5 131q0 118 83.5 211t199.5 93q85 0 127 -55q15 23 34 35t31 12q16 0 16 -14q0 -9 -3.5 -22.5t-11.5 -49.5t-16 -84q-67 -398 -67 -415q0 -20 17.5 -27.5t17.5 -20.5q0 -28 -33 -28h-117q-28 0 -28 20
q0 16 27 27t32 20q16 29 22 75zM216 47q57 0 101 48.5t63.5 109t19.5 115.5q0 46 -27.5 74.5t-73.5 28.5q-85 0 -139.5 -74.5t-54.5 -162.5q0 -59 27.5 -99t83.5 -40z" />
    <glyph glyph-name="r" unicode="r" horiz-adv-x="400" 
d="M192 399v-49q29 63 74 94.5t83 31.5q48 0 48 -52t-33 -52q-10 0 -28 11.5t-30 11.5q-105 0 -163 -369q-2 -11 -4.5 -15.5t-11.5 -7.5t-28 -3q-21 0 -27.5 3t-6.5 18q0 20 26 144q25 120 25 178q0 21 -8.5 33t-18 15.5t-18 9.5t-8.5 15q0 14 37.5 37t52.5 23q39 0 39 -77z
" />
    <glyph glyph-name="s" unicode="s" horiz-adv-x="420" 
d="M97 100q15 -62 85 -62q41 0 71 23.5t30 63.5q0 23 -23 40.5t-56 30t-65.5 28t-55.5 44t-23 68.5q0 63 53 101.5t118 38.5q63 0 104.5 -31t41.5 -66q0 -17 -10.5 -28t-26.5 -11q-28 0 -37 32q-9 30 -25.5 43t-51.5 13q-33 0 -59.5 -21t-26.5 -53q0 -26 23 -45t56 -31.5
t66.5 -27t56.5 -42t23 -67.5q0 -67 -57 -109.5t-127 -42.5q-33 0 -72 12t-70.5 39t-31.5 62q0 18 11 30t29 12q39 0 50 -44z" />
    <glyph glyph-name="t" unicode="t" horiz-adv-x="360" 
d="M86 138l46 277h-34q-37 0 -37 19q0 33 38 33q24 0 36 4q11 8 18.5 25.5t31.5 88.5q12 37 18 45.5t20 8.5q17 0 17 -20q0 -6 -2 -17l-8.5 -49t-13.5 -86h60q29 0 39.5 -4t10.5 -21q0 -27 -46 -27h-72l-38 -225q-12 -72 -12 -87q0 -27 17 -27q19 0 58.5 22t46.5 22
q17 0 17 -23q0 -12 -13 -22q-31 -20 -97.5 -51.5t-88.5 -31.5q-13 0 -20.5 10.5t-7.5 24.5q0 16 16 111z" />
    <glyph glyph-name="u" unicode="u" horiz-adv-x="580" 
d="M385 75v45q-74 -131 -185 -131q-55 0 -93.5 34.5t-38.5 88.5q0 41 20 156q16 94 16 106q0 13 -7 19.5t-15.5 7t-15.5 4.5t-7 13q0 17 44 37.5t63 20.5q23 0 23 -37q0 -25 -22 -151q-23 -133 -23 -165q0 -33 20 -56t53 -23q47 0 85 36.5t61 94.5t36 111.5t19 103.5
q7 64 9 68q5 9 41 9q37 0 37 -11q0 -6 -1.5 -15.5t-8.5 -48l-16 -92.5q-25 -152 -25 -182q0 -19 8 -29.5t17 -13t17 -6.5t8 -12q0 -14 -36.5 -39.5t-52.5 -25.5q-30 0 -30 83z" />
    <glyph glyph-name="v" unicode="v" horiz-adv-x="480" 
d="M88 271q17 97 17 108t-7 16.5t-16 6.5t-16 4.5t-7 11.5q0 18 44.5 38t67.5 20q24 0 24 -34q0 -19 -30 -173q-21 -110 -21 -152q0 -33 19 -55.5t51 -22.5q47 0 88 44t63 105.5t22 119.5q0 27 -8 44.5t-17.5 24t-17.5 18.5t-8 29q0 21 14.5 36.5t35.5 15.5q26 0 41.5 -25
t19 -49.5t3.5 -51.5q0 -144 -76 -252.5t-178 -108.5q-56 0 -94 32.5t-38 87.5q0 24 24 162z" />
    <glyph glyph-name="w" unicode="w" horiz-adv-x="720" 
d="M408 467h26q28 0 28 -17q0 -2 -20 -126.5t-20 -188.5q0 -35 14.5 -63t46.5 -28q54 0 95.5 88t41.5 175q0 37 -21 62.5t-21 48.5q0 21 12 39.5t32 18.5q30 0 42 -40.5t12 -79.5q0 -47 -12.5 -107t-36.5 -119.5t-66.5 -100t-94.5 -40.5q-53 0 -81 41.5t-28 104.5
q-9 -21 -23 -42t-35.5 -46.5t-51.5 -41.5t-63 -16q-53 0 -85.5 38t-32.5 92q0 26 16 130.5t16 122.5q0 14 -5 21t-19 13q-1 0 -5.5 1.5t-5.5 2.5t-2.5 3t-1.5 6q0 17 39 37t60 20q29 0 29 -40q0 -33 -21 -134q-23 -117 -23 -182q0 -32 14 -54.5t44 -22.5q36 0 66.5 34
t50.5 76q45 92 65 279q2 22 6.5 28.5t18.5 6.5z" />
    <glyph glyph-name="x" unicode="x" horiz-adv-x="540" 
d="M120 375q-19 26 -41 26q-27 0 -27 17q0 16 40 37t58 21q4 0 7.5 -1t5.5 -2.5t4.5 -5t3 -5.5t2.5 -7t3 -7q6 -16 18 -39l29 -55.5l27 -52.5q66 94 111 134.5t93 40.5q24 0 43.5 -12t19.5 -35q0 -15 -11 -24t-26 -9q-10 0 -25 6.5t-24 6.5q-27 0 -61 -32.5t-95 -120.5
q50 -91 79 -134.5t42 -52.5t31 -9q5 0 14.5 1t14.5 1q21 0 21 -18q0 -4 -1.5 -7t-3 -5.5t-5.5 -5.5l-6 -4.5t-6.5 -4t-5.5 -3.5q-42 -25 -65 -25q-29 0 -54 32t-104 168q-75 -120 -116.5 -160t-71.5 -40q-21 0 -34 12.5t-13 33.5q0 17 11 29t28 12q7 0 19 -2.5t17 -2.5
q16 0 39 28.5t94 134.5l-35.5 64l-27.5 51t-16 26z" />
    <glyph glyph-name="y" unicode="y" horiz-adv-x="500" 
d="M274 14q-32 -22 -56 -22q-134 0 -134 284q0 27 3.5 62.5t3.5 49.5q0 13 -20.5 19.5t-20.5 15.5q0 16 45.5 34.5t67.5 18.5t22 -24q0 -3 -5.5 -32.5t-11 -74.5t-5.5 -84q0 -28 3.5 -58.5t12 -68.5t28.5 -62.5t48 -24.5q49 0 99 106q19 37 36 89.5t17 86.5q0 25 -18 49
t-18 42q0 21 13.5 38.5t34.5 17.5q29 0 40.5 -27t11.5 -59q0 -78 -37 -177.5t-87 -177.5q-48 -75 -131.5 -151.5t-147.5 -76.5q-22 0 -37 11.5t-15 32.5q0 19 14 30.5t33 11.5q11 0 25.5 -5.5t23.5 -5.5q31 0 82.5 46.5t79.5 85.5z" />
    <glyph glyph-name="z" unicode="z" horiz-adv-x="460" 
d="M325 421h-127q-22 0 -42 -8t-20 -27q0 -4 1 -11.5t1 -11.5q0 -16 -11 -26.5t-27 -10.5q-21 0 -33.5 15.5t-12.5 36.5q0 38 33.5 63.5t106.5 25.5h158q46 0 61 -4t15 -21q0 -40 -145 -178l-73 -70.5t-60.5 -66t-60.5 -81.5h36q185 0 185 46q0 4 -2.5 15t-2.5 15
q0 16 14.5 27t31.5 11q18 0 30 -13t12 -31q0 -50 -43 -83t-125 -33h-205q-26 0 -26 23q0 58 153 208q103 100 131.5 130t46.5 60z" />
    <glyph glyph-name="braceleft" unicode="{" 
d="M176 188l-32 -196q-8 -49 4.5 -75.5t54.5 -41.5q-74 -2 -105 27q-34 27 -20 110l32 194q5 21 4 40t-12 37q-18 28 -54 36q27 3 56 24q15 11 24.5 27t12 26.5t6.5 35.5l29 172q15 88 51.5 122.5t121.5 30.5q-46 -12 -68 -40t-30 -76l-30 -182q-10 -61 -33.5 -94.5
t-78.5 -45.5q50 -12 63.5 -43t3.5 -88z" />
    <glyph glyph-name="bar" unicode="|" horiz-adv-x="660" 
d="M299 -250v1000h63v-1000h-63z" />
    <glyph glyph-name="braceright" unicode="}" 
d="M151 459l30 182q8 48 -5.5 75.5t-54.5 40.5q86 4 112 -30.5t11 -122.5l-29 -172q-7 -25 -5 -49.5t20 -39.5q19 -21 48 -24q-40 -8 -66 -36q-13 -12 -20 -26t-9 -22t-5 -29l-32 -194q-14 -83 -56 -110q-43 -29 -115 -27q48 15 69 41t30 76l32 195q10 58 33.5 89t77.5 43
q-52 12 -64 45t-2 95z" />
    <glyph glyph-name="asciitilde" unicode="~" horiz-adv-x="660" 
d="M565 333l48 -30q-25 -34 -40.5 -52.5t-45 -35.5t-63.5 -17q-36 0 -101 25l-55 20q-71 27 -95 27q-26 0 -48 -13t-34 -28t-29 -41l-47 31q35 54 70.5 82.5t88.5 28.5q38 0 131 -35q88 -36 117 -36q24 0 44.5 12t31.5 25t27 37z" />
    <glyph glyph-name="uni00A0" unicode="&#xa0;" 
 />
    <glyph glyph-name="exclamdown" unicode="&#xa1;" 
d="M165 -108q-2 -22 -4 -34.5t-8.5 -29t-20 -24.5t-33.5 -8q-21 0 -34.5 11.5t-13.5 32.5q0 22 103 475q9 43 18 49q5 4 12 4q22 0 22 -22l-3 -33q-8 -61 -14.5 -134.5t-13.5 -161zM217 553q20 0 32 -13.5t12 -33.5q0 -27 -17.5 -45t-44.5 -18q-18 0 -30 13.5t-12 32.5
q0 26 17 45t43 19z" />
    <glyph glyph-name="cent" unicode="&#xa2;" horiz-adv-x="600" 
d="M343 135l-12 -73q-1 -3 -1.5 -9.5t-1 -9t-2 -7.5t-3.5 -6.5t-5 -4t-7.5 -3.5t-10.5 -1q-24 0 -24 15q0 9 2 19l14 80q-82 2 -136.5 54t-54.5 134q0 111 81 200t191 96l12 75q0 2 1.5 14t3 15.5t5 11t9.5 10t15 2.5t13 -0.5t7.5 -4t3.5 -11.5q0 -1 -0.5 -3.5t-0.5 -4.5
l-3 -17l-15 -87q42 -8 78 -30.5t36 -57.5q0 -19 -15 -31.5t-35 -12.5q-16 0 -23.5 6.5t-15.5 22.5q-23 47 -78 47q-78 0 -131 -79t-53 -162q0 -61 33.5 -96.5t94.5 -35.5q39 0 71.5 12.5t50 28l32.5 28t23 12.5t13.5 -6t5.5 -14q0 -31 -65 -71.5t-103 -44.5z" />
    <glyph glyph-name="sterling" unicode="&#xa3;" horiz-adv-x="600" 
d="M229 366h147q1 0 6.5 0.5t10 0.5t9 -1t7.5 -3.5t3 -6.5q0 -20 -9 -29q-3 -3 -30 -3h-144q6 -159 -126 -272l7 3q90 31 121 31q32 0 125 -24q38 -9 53 -9q21 0 35 13.5t23 26.5t18 13q16 0 16 -16q0 -20 -37 -60q-22 -24 -40.5 -34.5t-44.5 -10.5q-29 0 -100 19.5
t-111 19.5q-43 0 -91 -27q-24 -12 -27 -12q-8 0 -15 10t-7 19t18 27q57 50 79 110q24 67 24 150v23h-21q-3 0 -9.5 -0.5t-10.5 -0.5t-9 1t-7.5 4t-2.5 9q0 7 0.5 12t2.5 8.5t3 5.5t6 2.5t7 0.5h9.5h10.5h20l-4 117q-4 115 43 181q28 40 76.5 61.5t100.5 21.5q62 0 112.5 -31
t50.5 -89q0 -20 -10 -34t-29 -14q-35 0 -35 37v24q0 31 -26.5 47.5t-58.5 16.5q-72 0 -112 -51q-31 -40 -31 -128v-54z" />
    <glyph glyph-name="currency" unicode="&#xa4;" horiz-adv-x="600" 
d="M301 517q-62 0 -105 -44.5t-43 -105.5q0 -62 43 -107t105 -45t104 45t42 107q0 61 -42 105.5t-104 44.5zM28 144l98 96q-41 54 -41 127t41 125l-98 98q-9 9 0 26t24 23.5t26 -1.5l96 -96q56 39 127 39q76 0 125 -39l98 96q15 15 39 -9t9 -39l-96 -98q39 -53 39 -125
q0 -71 -39 -127l96 -96q8 -11 1.5 -26t-23.5 -24t-26 0l-98 98q-52 -41 -125 -41q-72 0 -127 41l-96 -98q-15 -15 -40 10t-10 40z" />
    <glyph glyph-name="yen" unicode="&#xa5;" horiz-adv-x="600" 
d="M104 377h99q-93 161 -134 250q-10 22 -20 34.5t-14 14.5t-15 7q-18 8 -18 25q0 24 32 24h140q32 0 32 -18q0 -17 -28 -29t-28 -30q0 -29 49 -121t116 -188q135 138 188 200q40 47 56.5 71t16.5 40q0 18 -23.5 28t-23.5 24q0 23 36 23h133q20 0 20 -17q0 -15 -26 -36
t-73 -81q-74 -94 -196 -221h102q25 0 25 -14q0 -19 -10.5 -26.5t-39.5 -7.5h-124l-24 -27l-7 -40h151q29 0 29 -15q0 -20 -11 -26t-34 -6h-143q-19 -115 -19 -141q0 -20 26.5 -29t26.5 -24q0 -21 -30 -21h-173q-20 0 -20 17q0 13 6.5 17.5t21.5 8.5q25 7 35.5 23.5
t18.5 63.5l15 85h-152q-21 0 -28.5 3.5t-7.5 14.5q0 18 9.5 24t28.5 5h159l4 30l-24 37h-138q-14 0 -19 4.5t-5 16.5q0 29 32 27z" />
    <glyph glyph-name="brokenbar" unicode="&#xa6;" horiz-adv-x="660" 
d="M299 -135v284h63v-284h-63zM299 365v284h63v-284h-63z" />
    <glyph glyph-name="section" unicode="&#xa7;" horiz-adv-x="560" 
d="M249 116l-77 23q-64 19 -91 41q-19 17 -31.5 44t-12.5 53q0 89 113 172q-33 47 -33 92q0 82 77 145q73 61 170 61q75 0 146 -41q8 -5 13 -9.5l8 -7t4 -9t1.5 -9.5t0 -13.5t-0.5 -15.5v-45q0 -15 -0.5 -21.5t-7 -14.5t-18.5 -8t-16 18q-36 127 -137 127
q-57 0 -110.5 -34.5t-53.5 -88.5q0 -67 116 -103l60 -19q36 -11 56 -19.5t44.5 -24t36 -39.5t11.5 -57q0 -76 -102 -180q31 -52 31 -92q0 -43 -23.5 -86.5t-59.5 -76.5q-80 -71 -188 -71q-67 0 -125 32q-29 17 -33 32q-10 38 -10 108q0 15 0.5 22t6.5 15.5t19 8.5
q16 0 23 -41q22 -124 130 -124q62 0 110 33q68 49 68 111q0 77 -115 112zM225 216l67 -20q60 -17 90 -37q3 5 14 19.5t16 22t12 20.5t10 25t3 25q0 40 -22.5 61t-66.5 34l-98 29q-45 13 -68 28q-62 -54 -62 -111q0 -40 28.5 -61.5t76.5 -34.5z" />
    <glyph glyph-name="dieresis" unicode="&#xa8;" horiz-adv-x="360" 
d="M133 561q-20 0 -31 14t-11 34q0 24 14.5 44t37.5 20q41 0 41 -44q0 -26 -13.5 -47t-37.5 -21zM329 561q-21 0 -31.5 15t-10.5 37q0 24 17 42t41 18q16 0 26 -13.5t10 -30.5q0 -25 -14 -46.5t-38 -21.5z" />
    <glyph glyph-name="copyright" unicode="&#xa9;" horiz-adv-x="820" 
d="M28 367q0 157 112 268.5t270 111.5t270 -111.5t112 -268.5q0 -159 -112 -270.5t-270 -111.5t-270 111.5t-112 270.5zM75 367q0 -140 98 -238t237 -98t236.5 98t97.5 238q0 138 -97.5 236t-236.5 98t-237 -98t-98 -236zM442 606q65 0 134 -36q14 -9 17.5 -16t3.5 -23v-5
q1 -77 -29 -77q-10 0 -16 5t-8 10.5t-4 15.5q-7 36 -34.5 53.5t-66.5 17.5q-41 0 -73 -22t-50 -57.5t-27.5 -74t-9.5 -76.5q0 -143 119 -143q33 0 59 13t38.5 29t26 29t24.5 13q10 0 18 -8t8 -19q0 -28 -46 -63q-60 -51 -132 -51q-90 0 -144.5 57t-54.5 147q0 111 69.5 196
t177.5 85z" />
    <glyph glyph-name="ordfeminine" unicode="&#xaa;" horiz-adv-x="400" 
d="M276 500q-24 -27 -46 -40t-52 -13q-50 0 -80 34t-30 85q0 70 48.5 125.5t117.5 55.5q40 0 78 -32q31 33 45 33q16 0 16 -15q0 -2 -1 -6.5t-2.5 -13t-2.5 -17.5q-27 -162 -27 -176q0 -11 17.5 -13.5t17.5 -15.5q0 -10 -30 -26q-36 -18 -46 -18q-23 0 -23 53zM191 497
q41 0 72 49.5t31 93.5q0 28 -17.5 45t-45.5 17q-46 0 -73 -42.5t-27 -90.5q0 -30 15.5 -51t44.5 -21z" />
    <glyph glyph-name="guillemotleft" unicode="&#xab;" horiz-adv-x="360" 
d="M181 384l-75 -88q-27 -31 -11 -62l45 -88q12 -24 12 -38q0 -8 -32 -8q-23 0 -33 22l-56 108q-6 12 -6 30q0 17 19 40l92 108q19 22 40 22q31 0 31 -8q0 -5 -3.5 -11t-12.5 -16t-10 -11zM336 384l-75 -88q-27 -31 -11 -62l45 -88q12 -24 12 -38q0 -8 -32 -8q-23 0 -33 22
l-56 108q-6 12 -6 30q0 17 19 40l92 108q19 22 40 22q31 0 31 -8q0 -5 -3.5 -11t-12.5 -16t-10 -11z" />
    <glyph glyph-name="logicalnot" unicode="&#xac;" horiz-adv-x="660" 
d="M529 53v253h-455v63h517v-316h-62z" />
    <glyph glyph-name="uni00AD" unicode="&#xad;" horiz-adv-x="260" 
d="M47 314h164q20 0 20 -12q0 -29 -10 -39q-8 -6 -42 -6h-144q-17 0 -17 11q0 12 6 32q3 10 7 12t16 2z" />
    <glyph glyph-name="registered" unicode="&#xae;" horiz-adv-x="820" 
d="M28 367q0 157 112 268.5t270 111.5t270 -111.5t112 -268.5q0 -159 -112 -270.5t-270 -111.5t-270 111.5t-112 270.5zM75 367q0 -140 98 -238t237 -98t236.5 98t97.5 238q0 138 -97.5 236t-236.5 98t-237 -98t-98 -236zM319 330l-19 -115q0 -2 -0.5 -8t-0.5 -9q0 -4 9 -8
q24 -7 24 -26q0 -24 -29 -24h-94q-26 0 -26 21t24 30q10 4 12 7q3 4 5.5 12t4 18t2.5 13l8 50l35 207q0 4 3 22.5t3 24.5t-11 8q-23 10 -23 27q0 24 28 24h180q52 0 80 -9q74 -25 74 -96q0 -89 -114 -132q58 -88 73 -162q3 -12 19 -19t16 -24q0 -5 -1.5 -9t-5 -6.5t-6.5 -4
t-8.5 -2t-8.5 -0.5h-9h-8h-53h-6h-7h-7t-7 1t-6 2t-6 3t-4 4.5t-3 6t-1 7.5q0 17 17.5 22t17.5 15q0 23 -23 71.5t-42 73.5q-2 0 -22.5 -3.5t-26.5 -5.5t-57 -7zM348 506l-20 -119l13 1q25 3 50.5 8t61 16.5t57.5 32t22 46.5q0 14 -5 24t-16.5 16.5t-23 10t-30 5t-31 2
t-34.5 0.5q-26 -1 -32.5 -8t-11.5 -35z" />
    <glyph glyph-name="macron" unicode="&#xaf;" 
d="M284 587h-174q-1 0 -8 -0.5t-10 0t-8 1.5t-7 4t-2 8l3 15l3 9q4 8 36 8h175q1 0 7.5 0.5t10 0t8 -1.5t7 -4t2.5 -8t-4 -15l-2 -9q-5 -8 -37 -8z" />
    <glyph glyph-name="degree" unicode="&#xb0;" horiz-adv-x="400" 
d="M412 597q0 -62 -44 -106t-106 -44t-106 44t-44 106q-1 62 43.5 106t106.5 44t106 -44.5t44 -105.5zM159 597q0 -43 30 -73t73 -30q42 0 72.5 30t30.5 73q0 42 -30.5 72.5t-73.5 30.5q-42 0 -72.5 -30.5t-29.5 -72.5z" />
    <glyph glyph-name="plusminus" unicode="&#xb1;" horiz-adv-x="660" 
d="M82 352h229v169h63v-169h229v-63h-229v-169h-63v169h-229v63zM82 63h521v-63h-521v63z" />
    <glyph glyph-name="twosuperior" unicode="&#xb2;" horiz-adv-x="360" 
d="M322 299h-242q-10 0 -14.5 0.5t-9 6t-4.5 15.5q0 20 47 75t128 119q2 2 17.5 13.5t20.5 15.5t19 16t20 18.5l16 18t14.5 20.5t8.5 20t4 22q0 49 -73 49q-38 0 -60.5 -22t-22.5 -44q0 -5 6 -16.5t6 -17.5q0 -18 -14.5 -28t-33.5 -10q-36 0 -36 46q0 48 53 89.5t128 41.5
q60 0 92 -27.5t32 -64.5q0 -78 -139 -168q-73 -49 -104.5 -76t-48.5 -57h112q45 0 62.5 7.5t41.5 33.5q15 11 21 11q14 0 14 -12q0 -5 -1.5 -10t-4 -9.5t-10 -19t-14.5 -29.5q-9 -20 -14 -23.5t-17 -3.5z" />
    <glyph glyph-name="threesuperior" unicode="&#xb3;" horiz-adv-x="360" 
d="M197 510h-22q-19 0 -19 20q0 11 7 16.5t25 6.5q77 6 108 34.5t31 65.5q0 24 -19.5 39.5t-49.5 15.5t-43.5 -11t-13.5 -25q0 -5 1 -16t1 -16q0 -11 -13.5 -19.5t-35.5 -8.5q-15 0 -24.5 11t-9.5 32q0 34 45.5 63t110.5 29q54 0 91.5 -23t37.5 -70q0 -44 -39.5 -76
t-90.5 -43q47 -2 76.5 -28t29.5 -71q0 -56 -54 -101t-143 -45q-53 0 -94.5 20.5t-41.5 65.5q0 62 42 62q15 0 25.5 -6.5t10.5 -17.5q0 -9 -4 -23.5t-4 -18.5q0 -20 24 -31.5t56 -11.5q41 0 72 30t31 77q0 12 -3.5 22.5t-13 23.5t-32 20.5t-55.5 7.5z" />
    <glyph glyph-name="acute" unicode="&#xb4;" horiz-adv-x="280" 
d="M137 586l110 55q39 19 53 19t24.5 -15.5t10.5 -28.5q0 -17 -38 -30l-113 -37q-47 -14 -52 -14q-9 0 -15.5 9t-6.5 18t27 24z" />
    <glyph glyph-name="mu" unicode="&#xb5;" horiz-adv-x="580" 
d="M385 75v45q-74 -131 -185 -131q-59 0 -95 46v-165q0 -30 -14 -46.5t-37 -16.5q-44 0 -44 47q0 11 5.5 36t26 125.5t46.5 252.5q16 94 16 106q0 13 -7 19.5t-15.5 7t-15.5 4.5t-7 13q0 17 44 37.5t63 20.5q23 0 23 -37q0 -25 -22 -151q-23 -133 -23 -165q0 -33 20 -56
t53 -23q47 0 85 36.5t61 94.5t36 111.5t19 103.5q7 64 9 68q5 9 41 9q37 0 37 -11q0 -6 -1.5 -15.5t-8.5 -48l-16 -92.5q-25 -152 -25 -182q0 -19 8 -29.5t17 -13t17 -6.5t8 -12q0 -14 -36.5 -39.5t-52.5 -25.5q-30 0 -30 83z" />
    <glyph glyph-name="paragraph" unicode="&#xb6;" horiz-adv-x="680" 
d="M610 664l-124 -748q-1 -6 -4 -25.5t-6.5 -36t-6.5 -24.5q-10 -23 -37 -23q-13 0 -22.5 6.5t-9.5 18.5q0 6 2 18t2 15l134 808h-65l-132 -794q0 -3 -1.5 -10.5t-2 -11t-2 -10.5t-3 -10.5l-4 -9.5t-5.5 -8.5t-7.5 -5.5t-9.5 -4.5t-12 -1.5q-30 0 -30 30q0 13 9 67l57 345
q-54 5 -104 19.5t-98 40.5t-77 70.5t-29 101.5q0 124 98 196q46 34 97.5 44.5t124.5 10.5h349q14 0 23 -8.5t9 -23.5q0 -21 -16 -32.5t-38 -11.5q-6 0 -59 8zM402 678h-37q-51 0 -93.5 -9.5t-78.5 -31t-56.5 -61t-20.5 -93.5q0 -41 20.5 -75.5t54.5 -56.5t71.5 -35t76.5 -17
z" />
    <glyph glyph-name="periodcentered" unicode="&#xb7;" 
d="M130 187q-20 0 -32 13.5t-12 33.5q0 27 17.5 45.5t44.5 18.5q19 0 30.5 -14t11.5 -33q0 -26 -17 -45t-43 -19z" />
    <glyph glyph-name="cedilla" unicode="&#xb8;" horiz-adv-x="380" 
d="M177 -6l-8 -35q12 2 27 2q34 0 61.5 -14t27.5 -44q0 -26 -27 -43.5t-56.5 -24t-55.5 -6.5q-29 0 -71 11t-42 31q0 7 5.5 12t12.5 5q3 0 33.5 -14.5t61.5 -14.5q24 0 44.5 8.5t20.5 29.5q0 32 -43 32q-6 0 -16 -2t-16 -2q-15 0 -15 12q0 7 14 57h42z" />
    <glyph glyph-name="onesuperior" unicode="&#xb9;" horiz-adv-x="360" 
d="M311 303h-206q-14 0 -19 3t-5 13q0 20 41 23q27 1 40.5 7t21.5 26q7 17 20 87q34 181 34 194q0 17 -36 17h-47q-21 0 -21 18q0 10 9.5 14t35.5 7q35 4 53.5 8.5t26.5 8t28 15.5q21 13 28 13q17 0 17 -13q0 -4 -3 -16t-11.5 -53.5t-19.5 -101.5q-36 -183 -36 -203
q0 -11 7.5 -17t14.5 -7t21 -2q38 -2 38 -21q0 -20 -32 -20z" />
    <glyph glyph-name="ordmasculine" unicode="&#xba;" horiz-adv-x="400" 
d="M198 448q-62 0 -100.5 35t-38.5 96q0 69 49 119t130 50q62 0 103.5 -35.5t41.5 -96.5q0 -36 -17.5 -73t-61.5 -66t-106 -29zM201 494q53 0 83.5 37.5t30.5 91.5q0 35 -21.5 58t-56.5 23q-50 0 -80.5 -37t-30.5 -91q0 -37 19 -59.5t56 -22.5z" />
    <glyph glyph-name="guillemotright" unicode="&#xbb;" horiz-adv-x="360" 
d="M0 146l75 88q27 31 11 62l-45 88q-12 24 -12 38q0 8 32 8q23 0 33 -22l56 -108q6 -12 6 -30q0 -17 -19 -40l-92 -108q-19 -22 -40 -22q-31 0 -31 8q0 5 3.5 11t12.5 16t10 11zM160 146l75 88q27 31 11 62l-45 88q-12 24 -12 38q0 8 32 8q23 0 33 -22l56 -108q6 -12 6 -30
q0 -17 -19 -40l-92 -108q-19 -22 -40 -22q-31 0 -31 8q0 5 3.5 11t12.5 16t10 11z" />
    <glyph glyph-name="onequarter" unicode="&#xbc;" horiz-adv-x="900" 
d="M738 117h-160q-63 0 -63 16q0 28 67 119q51 69 116 125q25 24 68 55.5t62 31.5q18 0 28 -9.5t10 -20.5q0 -4 -9 -58l-39 -216h69q13 0 13 -21q0 -22 -32 -22h-58q-2 -14 -5.5 -28.5t-5 -22.5t-1.5 -12q0 -8 24 -16.5t24 -23.5q0 -14 -40 -14h-115q-32 0 -32 10
q0 18 28.5 25t30.5 10q6 8 20 72zM238 68l477 652q13 18 17.5 23.5t11 9.5t14.5 4q35 0 35 -10q0 -6 -28 -45l-495 -676q-11 -16 -19 -21t-26 -5q-26 0 -26 11q0 4 39 57zM746 160l46 240q-131 -95 -207 -240h161zM311 303h-206q-14 0 -19 3t-5 13q0 20 41 23q27 1 40.5 7
t21.5 26q7 17 20 87q34 181 34 194q0 17 -36 17h-47q-21 0 -21 18q0 10 9.5 14t35.5 7q35 4 53.5 8.5t26.5 8t28 15.5q21 13 28 13q17 0 17 -13q0 -4 -3 -16t-11.5 -53.5t-19.5 -101.5q-36 -183 -36 -203q0 -11 7.5 -17t14.5 -7t21 -2q38 -2 38 -21q0 -20 -32 -20z" />
    <glyph glyph-name="onehalf" unicode="&#xbd;" horiz-adv-x="900" 
d="M311 303h-206q-14 0 -19 3t-5 13q0 20 41 23q27 1 40.5 7t21.5 26q7 17 20 87q34 181 34 194q0 17 -36 17h-47q-21 0 -21 18q0 10 9.5 14t35.5 7q35 4 53.5 8.5t26.5 8t28 15.5q21 13 28 13q17 0 17 -13q0 -4 -3 -16t-11.5 -53.5t-19.5 -101.5q-36 -183 -36 -203
q0 -11 7.5 -17t14.5 -7t21 -2q38 -2 38 -21q0 -20 -32 -20zM238 68l477 652q13 18 17.5 23.5t11 9.5t14.5 4q35 0 35 -10q0 -6 -28 -45l-495 -676q-11 -16 -19 -21t-26 -5q-26 0 -26 11q0 4 39 57zM827 0h-242q-10 0 -14.5 0.5t-9 6t-4.5 15.5q0 20 47 75t128 119
q2 2 17.5 13.5t20.5 15.5t19 16t20 18.5l16 18t14.5 20.5t8.5 20t4 22q0 49 -73 49q-38 0 -60.5 -22t-22.5 -44q0 -5 6 -16.5t6 -17.5q0 -18 -14.5 -28t-33.5 -10q-36 0 -36 46q0 48 53 89.5t128 41.5q60 0 92 -27.5t32 -64.5q0 -78 -139 -168q-73 -49 -104.5 -76t-48.5 -57
h112q45 0 62.5 7.5t41.5 33.5q15 11 21 11q14 0 14 -12q0 -5 -1.5 -10t-4 -9.5t-10 -19t-14.5 -29.5q-9 -20 -13.5 -23.5t-17.5 -3.5z" />
    <glyph glyph-name="threequarters" unicode="&#xbe;" horiz-adv-x="900" 
d="M738 117h-160q-63 0 -63 16q0 28 67 119q51 69 116 125q25 24 68 55.5t62 31.5q18 0 28 -9.5t10 -20.5q0 -4 -9 -58l-39 -216h69q13 0 13 -21q0 -22 -32 -22h-58q-2 -14 -5.5 -28.5t-5 -22.5t-1.5 -12q0 -8 24 -16.5t24 -23.5q0 -14 -40 -14h-115q-32 0 -32 10
q0 18 28.5 25t30.5 10q6 8 20 72zM238 68l477 652q13 18 17.5 23.5t11 9.5t14.5 4q35 0 35 -10q0 -6 -28 -45l-495 -676q-11 -16 -19 -21t-26 -5q-26 0 -26 11q0 4 39 57zM746 160l46 240q-131 -95 -207 -240h161zM197 510h-22q-19 0 -19 20q0 11 7 16.5t25 6.5
q77 6 108 34.5t31 65.5q0 24 -19.5 39.5t-49.5 15.5t-43.5 -11t-13.5 -25q0 -5 1 -16t1 -16q0 -11 -13.5 -19.5t-35.5 -8.5q-15 0 -24.5 11t-9.5 32q0 34 45.5 63t110.5 29q54 0 91.5 -23t37.5 -70q0 -44 -39.5 -76t-90.5 -43q47 -2 76.5 -28t29.5 -71q0 -56 -54 -101
t-143 -45q-53 0 -94.5 20.5t-41.5 65.5q0 62 42 62q15 0 25.5 -6.5t10.5 -17.5q0 -9 -4 -23.5t-4 -18.5q0 -20 24 -31.5t56 -11.5q41 0 72 30t31 77q0 12 -3.5 22.5t-13 23.5t-32 20.5t-55.5 7.5z" />
    <glyph glyph-name="questiondown" unicode="&#xbf;" horiz-adv-x="420" 
d="M336 311l-14 -80q-1 -5 -2 -13.5t-1.5 -12t-3 -9t-7 -8.5t-12.5 -6q-33 -12 -77 -36t-70 -45q-34 -29 -55.5 -72t-21.5 -87q0 -48 34.5 -76t82.5 -28q47 0 82 24q26 18 27 52q0 33 10 44q15 18 42 18q38 0 38 -37q0 -25 -17.5 -52t-40.5 -44q-64 -47 -147 -47
q-80 0 -135 41t-55 118q0 88 79 164q27 25 57 45t53.5 31.5t65.5 29.5l7 3.5t5.5 3.5t4 2.5t3.5 3.5t2.5 3.5t2 4t1.5 5t1.5 6.5t2.5 7l8 40q0 2 1.5 13t3 18t4.5 16t8.5 13.5t13.5 4.5q22 0 22 -24q0 -7 -3 -34zM340 553q20 0 32 -13t12 -34q0 -27 -17.5 -45t-44.5 -18
q-19 0 -30.5 14t-11.5 33q0 26 17 44.5t43 18.5z" />
    <glyph glyph-name="Agrave" unicode="&#xc0;" horiz-adv-x="740" 
d="M516 253h-338q-22 -36 -48 -93t-26 -81q0 -13 6.5 -21.5t15 -11t15 -7.5t6.5 -14q0 -25 -39 -25h-92q-24 0 -33 2.5t-9 14.5q0 15 16 26q6 4 10 7t7.5 5t6 5.5t4.5 5t4 6.5t3.5 7t4.5 9.5t5 11.5q172 372 391 638q9 9 16 9q8 0 23 -30q105 -221 178 -650q2 -12 20 -22
q19 -11 19 -22q0 -23 -35 -23h-140q-25 0 -25 19q0 15 24 25l17.5 7.5t10 7t8 12t1.5 18.5q0 49 -27 164zM206 305h298q-42 205 -95 318q-96 -116 -203 -318zM388 891l110 -55q27 -15 27 -24t-6.5 -18t-15.5 -9q-5 0 -52 14l-113 37q-38 13 -38 30q0 13 10.5 28.5t24.5 15.5
t53 -19z" />
    <glyph glyph-name="Aacute" unicode="&#xc1;" horiz-adv-x="740" 
d="M516 253h-338q-22 -36 -48 -93t-26 -81q0 -13 6.5 -21.5t15 -11t15 -7.5t6.5 -14q0 -25 -39 -25h-92q-24 0 -33 2.5t-9 14.5q0 15 16 26q6 4 10 7t7.5 5t6 5.5t4.5 5t4 6.5t3.5 7t4.5 9.5t5 11.5q172 372 391 638q9 9 16 9q8 0 23 -30q105 -221 178 -650q2 -12 20 -22
q19 -11 19 -22q0 -23 -35 -23h-140q-25 0 -25 19q0 15 24 25l17.5 7.5t10 7t8 12t1.5 18.5q0 49 -27 164zM206 305h298q-42 205 -95 318q-96 -116 -203 -318zM387 836l110 55q39 19 53 19t24.5 -15.5t10.5 -28.5q0 -17 -38 -30l-113 -37q-47 -14 -52 -14q-9 0 -15.5 9
t-6.5 18t27 24z" />
    <glyph glyph-name="Acircumflex" unicode="&#xc2;" horiz-adv-x="740" 
d="M516 253h-338q-22 -36 -48 -93t-26 -81q0 -13 6.5 -21.5t15 -11t15 -7.5t6.5 -14q0 -25 -39 -25h-92q-24 0 -33 2.5t-9 14.5q0 15 16 26q6 4 10 7t7.5 5t6 5.5t4.5 5t4 6.5t3.5 7t4.5 9.5t5 11.5q172 372 391 638q9 9 16 9q8 0 23 -30q105 -221 178 -650q2 -12 20 -22
q19 -11 19 -22q0 -23 -35 -23h-140q-25 0 -25 19q0 15 24 25l17.5 7.5t10 7t8 12t1.5 18.5q0 49 -27 164zM206 305h298q-42 205 -95 318q-96 -116 -203 -318zM304 802l126 114q16 9 37 9q22 0 33 -9l86 -114q21 -23 19 -32q-2 -10 -30 -10q-13 0 -19 0.5t-12.5 4t-12.5 10.5
l-60 74q-9 11 -16 11t-18 -11l-86 -74q-18 -15 -50 -15h-12.5t-7.5 1t-5.5 3t-0.5 6q1 7 29 32z" />
    <glyph glyph-name="Atilde" unicode="&#xc3;" horiz-adv-x="740" 
d="M516 253h-338q-22 -36 -48 -93t-26 -81q0 -13 6.5 -21.5t15 -11t15 -7.5t6.5 -14q0 -25 -39 -25h-92q-24 0 -33 2.5t-9 14.5q0 15 16 26q6 4 10 7t7.5 5t6 5.5t4.5 5t4 6.5t3.5 7t4.5 9.5t5 11.5q172 372 391 638q9 9 16 9q8 0 23 -30q105 -221 178 -650q2 -12 20 -22
q19 -11 19 -22q0 -23 -35 -23h-140q-25 0 -25 19q0 15 24 25l17.5 7.5t10 7t8 12t1.5 18.5q0 49 -27 164zM206 305h298q-42 205 -95 318q-96 -116 -203 -318zM515 881q17 0 35 17t25 17q5 0 9 -5t4 -10q0 -11 -25 -40q-40 -45 -68 -45q-23 0 -69 16t-62 16q-17 0 -35 -17
t-25 -17q-9 0 -9 11q0 9 12 27.5t22 28.5q29 31 58 31q20 0 67 -15t61 -15z" />
    <glyph glyph-name="Adieresis" unicode="&#xc4;" horiz-adv-x="740" 
d="M516 253h-338q-22 -36 -48 -93t-26 -81q0 -13 6.5 -21.5t15 -11t15 -7.5t6.5 -14q0 -25 -39 -25h-92q-24 0 -33 2.5t-9 14.5q0 15 16 26q6 4 10 7t7.5 5t6 5.5t4.5 5t4 6.5t3.5 7t4.5 9.5t5 11.5q172 372 391 638q9 9 16 9q8 0 23 -30q105 -221 178 -650q2 -12 20 -22
q19 -11 19 -22q0 -23 -35 -23h-140q-25 0 -25 19q0 15 24 25l17.5 7.5t10 7t8 12t1.5 18.5q0 49 -27 164zM206 305h298q-42 205 -95 318q-96 -116 -203 -318zM343 801q-20 0 -31 14t-11 34q0 24 14.5 44t37.5 20q41 0 41 -44q0 -26 -13.5 -47t-37.5 -21zM539 801
q-21 0 -31.5 15t-10.5 37q0 24 17 42t41 18q16 0 26 -13.5t10 -30.5q0 -25 -14 -46.5t-38 -21.5z" />
    <glyph glyph-name="Aring" unicode="&#xc5;" horiz-adv-x="740" 
d="M516 253h-338q-22 -36 -48 -93t-26 -81q0 -13 6.5 -21.5t15 -11t15 -7.5t6.5 -14q0 -25 -39 -25h-92q-24 0 -33 2.5t-9 14.5q0 15 16 26q6 4 10 7t7.5 5t6 5.5t4.5 5t4 6.5t3.5 7t4.5 9.5t5 11.5q172 372 391 638q9 9 16 9q8 0 23 -30q105 -221 178 -650q2 -12 20 -22
q19 -11 19 -22q0 -23 -35 -23h-140q-25 0 -25 19q0 15 24 25l17.5 7.5t10 7t8 12t1.5 18.5q0 49 -27 164zM206 305h298q-42 205 -95 318q-96 -116 -203 -318zM443 774q-37 0 -64 27t-27 64q0 40 27.5 67.5t68.5 27.5q37 0 63 -28.5t26 -65.5q0 -39 -27.5 -65.5t-66.5 -26.5z
M443 819q19 0 34 13t15 32q0 20 -12.5 35t-32.5 15q-21 0 -35.5 -14t-14.5 -35q0 -19 13.5 -32.5t32.5 -13.5z" />
    <glyph glyph-name="AE" unicode="&#xc6;" horiz-adv-x="960" 
d="M476 367h-213q-68 -102 -114 -190t-46 -108q0 -18 25.5 -26.5t25.5 -23.5q0 -19 -16 -19h-152q-16 0 -16 15q0 17 19 24q22 8 31 18t21 34q70 143 167.5 291.5t192.5 245.5q28 28 28 44q0 8 -6.5 11.5t-14 5t-14 7t-6.5 16.5q0 20 22 20h512q20 0 20 -19q0 -9 -1 -19
t-2 -24t-2 -25q0 -1 -0.5 -6t-0.5 -6.5t-1 -5.5t-2 -6t-3 -4.5t-4.5 -3.5t-6.5 -1q-13 0 -26 20q-13 18 -21 25t-29 13q-37 11 -108 11q-99 0 -117 -25q-11 -16 -17 -49l-31 -188h168q29 3 50 20q15 13 26 13q16 0 16 -18q0 -4 -9 -49q0 -1 -1 -5.5t-1.5 -6.5t-1.5 -6.5
t-2 -7l-2.5 -6t-3.5 -5.5l-4 -4t-5 -3t-7 -1q-10 0 -29 15q-15 12 -50 12h-152q-15 -82 -26 -166t-11 -101q0 -13 1 -20t6.5 -16t19.5 -13t37 -4q111 0 154 10q24 6 44.5 16t29.5 16.5t36 28.5q14 12 24 12q16 0 16 -12q0 -4 -10 -34l-24 -70q-5 -14 -41 -14h-420
q-34 0 -34 16q0 15 15 22q31 10 39 23q2 3 4 7q8 16 37 195q10 64 17 104zM298 419h186q30 185 30 228q0 12 -7 12t-34.5 -26.5t-76 -84.5t-98.5 -129z" />
    <glyph glyph-name="Ccedilla" unicode="&#xc7;" horiz-adv-x="720" 
d="M330 -15l-6 -26q12 2 27 2q34 0 61.5 -14t27.5 -44q0 -26 -27 -43.5t-56.5 -24t-55.5 -6.5q-29 0 -71 11t-42 31q0 7 5.5 12t12.5 5q3 0 33.5 -14.5t61.5 -14.5q24 0 44.5 8.5t20.5 29.5q0 32 -43 32q-6 0 -16 -2t-16 -2q-15 0 -15 12q0 6 13 53q-111 16 -179 100
t-68 211q0 50 12.5 105.5t44 117.5t79 110.5t125.5 80.5t174 32q98 0 188 -52q2 -1 8.5 -5t9.5 -5.5t9 -5.5t9.5 -7.5t7 -8t5 -9.5t1.5 -10q0 -16 -7 -53q0 -1 -0.5 -8t-1 -10.5l-1.5 -11t-2.5 -11.5t-3 -10.5t-4 -10.5t-6 -7.5t-8 -5.5t-9.5 -2q-21 0 -25 33
q-10 67 -60 108.5t-126 41.5t-138 -33.5t-101 -90t-59.5 -127.5t-20.5 -149q0 -127 58 -192t158 -65q67 0 138.5 36t112.5 89q16 21 27 21q10 0 19.5 -9t9.5 -19q0 -23 -34 -56.5t-64 -52.5q-52 -33 -106.5 -48.5t-130.5 -15.5z" />
    <glyph glyph-name="Egrave" unicode="&#xc8;" horiz-adv-x="660" 
d="M219 420h204q37 0 68 21q18 11 25 11q15 0 15 -17q0 -10 -6 -43t-12 -43.5t-19 -10.5q-10 0 -26 14q-19 16 -44 16h-213l-23 -133q-17 -109 -17 -145q0 -26 20 -34q17 -8 85 -8q93 0 148 9t74 19.5t50 35.5q22 20 33 20q15 0 15 -11q0 -15 -31 -98q-5 -14 -11.5 -18.5
t-20.5 -4.5h-507q-25 0 -25 19q0 8 4 13t8.5 6.5l13.5 4.5q31 9 43 35q11 26 32 151l50 303q18 101 18 117q0 17 -6 24.5t-21 12.5q-1 1 -5.5 2t-6 2t-5 2.5t-5 3t-3 4t-2.5 5t-1 6.5q0 10 6.5 14.5t15 5.5t28.5 1h452q16 0 22 -6.5t6 -25.5q0 -53 -5.5 -71.5t-19.5 -18.5
q-10 0 -21 17q-24 33 -74 45q-37 9 -120 9q-113 0 -134 -23q-6 -7 -11.5 -20.5t-7.5 -23.5t-5 -29.5t-4 -22.5zM348 891l110 -55q27 -15 27 -24t-6.5 -18t-15.5 -9q-5 0 -52 14l-113 37q-38 13 -38 30q0 13 10.5 28.5t24.5 15.5t53 -19z" />
    <glyph glyph-name="Eacute" unicode="&#xc9;" horiz-adv-x="660" 
d="M219 420h204q37 0 68 21q18 11 25 11q15 0 15 -17q0 -10 -6 -43t-12 -43.5t-19 -10.5q-10 0 -26 14q-19 16 -44 16h-213l-23 -133q-17 -109 -17 -145q0 -26 20 -34q17 -8 85 -8q93 0 148 9t74 19.5t50 35.5q22 20 33 20q15 0 15 -11q0 -15 -31 -98q-5 -14 -11.5 -18.5
t-20.5 -4.5h-507q-25 0 -25 19q0 8 4 13t8.5 6.5l13.5 4.5q31 9 43 35q11 26 32 151l50 303q18 101 18 117q0 17 -6 24.5t-21 12.5q-1 1 -5.5 2t-6 2t-5 2.5t-5 3t-3 4t-2.5 5t-1 6.5q0 10 6.5 14.5t15 5.5t28.5 1h452q16 0 22 -6.5t6 -25.5q0 -53 -5.5 -71.5t-19.5 -18.5
q-10 0 -21 17q-24 33 -74 45q-37 9 -120 9q-113 0 -134 -23q-6 -7 -11.5 -20.5t-7.5 -23.5t-5 -29.5t-4 -22.5zM357 836l110 55q39 19 53 19t24.5 -15.5t10.5 -28.5q0 -17 -38 -30l-113 -37q-47 -14 -52 -14q-9 0 -15.5 9t-6.5 18t27 24z" />
    <glyph glyph-name="Ecircumflex" unicode="&#xca;" horiz-adv-x="660" 
d="M219 420h204q37 0 68 21q18 11 25 11q15 0 15 -17q0 -10 -6 -43t-12 -43.5t-19 -10.5q-10 0 -26 14q-19 16 -44 16h-213l-23 -133q-17 -109 -17 -145q0 -26 20 -34q17 -8 85 -8q93 0 148 9t74 19.5t50 35.5q22 20 33 20q15 0 15 -11q0 -15 -31 -98q-5 -14 -11.5 -18.5
t-20.5 -4.5h-507q-25 0 -25 19q0 8 4 13t8.5 6.5l13.5 4.5q31 9 43 35q11 26 32 151l50 303q18 101 18 117q0 17 -6 24.5t-21 12.5q-1 1 -5.5 2t-6 2t-5 2.5t-5 3t-3 4t-2.5 5t-1 6.5q0 10 6.5 14.5t15 5.5t28.5 1h452q16 0 22 -6.5t6 -25.5q0 -53 -5.5 -71.5t-19.5 -18.5
q-10 0 -21 17q-24 33 -74 45q-37 9 -120 9q-113 0 -134 -23q-6 -7 -11.5 -20.5t-7.5 -23.5t-5 -29.5t-4 -22.5zM274 817l126 114q16 9 37 9q22 0 33 -9l86 -114q21 -23 19 -32q-2 -10 -30 -10q-13 0 -19 0.5t-12.5 4t-12.5 10.5l-60 74q-9 11 -16 11t-18 -11l-86 -74
q-18 -15 -50 -15h-12.5t-7.5 1t-5.5 3t-0.5 6q1 7 29 32z" />
    <glyph glyph-name="Edieresis" unicode="&#xcb;" horiz-adv-x="660" 
d="M219 420h204q37 0 68 21q18 11 25 11q15 0 15 -17q0 -10 -6 -43t-12 -43.5t-19 -10.5q-10 0 -26 14q-19 16 -44 16h-213l-23 -133q-17 -109 -17 -145q0 -26 20 -34q17 -8 85 -8q93 0 148 9t74 19.5t50 35.5q22 20 33 20q15 0 15 -11q0 -15 -31 -98q-5 -14 -11.5 -18.5
t-20.5 -4.5h-507q-25 0 -25 19q0 8 4 13t8.5 6.5l13.5 4.5q31 9 43 35q11 26 32 151l50 303q18 101 18 117q0 17 -6 24.5t-21 12.5q-1 1 -5.5 2t-6 2t-5 2.5t-5 3t-3 4t-2.5 5t-1 6.5q0 10 6.5 14.5t15 5.5t28.5 1h452q16 0 22 -6.5t6 -25.5q0 -53 -5.5 -71.5t-19.5 -18.5
q-10 0 -21 17q-24 33 -74 45q-37 9 -120 9q-113 0 -134 -23q-6 -7 -11.5 -20.5t-7.5 -23.5t-5 -29.5t-4 -22.5zM313 811q-20 0 -31 14t-11 34q0 24 14.5 44t37.5 20q41 0 41 -44q0 -26 -13.5 -47t-37.5 -21zM509 811q-21 0 -31.5 15t-10.5 37q0 24 17 42t41 18
q16 0 26 -13.5t10 -30.5q0 -25 -14 -46.5t-38 -21.5z" />
    <glyph glyph-name="Igrave" unicode="&#xcc;" 
d="M102 229l50 302q18 109 18 118q0 16 -6 23.5t-21 13.5q-2 1 -5.5 2t-5.5 2t-5.5 2.5t-5 3t-3 3.5t-2.5 5t-1 6q0 22 27 22h168q23 0 23 -19q0 -18 -26 -24q-32 -9 -43 -35q-12 -28 -32 -151l-50 -303q-17 -99 -17 -115q0 -29 26 -40l12 -4q16 -7 16 -20q0 -21 -26 -21
h-168q-23 0 -23 18q0 8 4 13t8.5 7t12.5 5q33 9 44 35q9 21 31 151zM168 891l110 -55q27 -15 27 -24t-6.5 -18t-15.5 -9q-5 0 -52 14l-113 37q-38 13 -38 30q0 13 10.5 28.5t24.5 15.5t53 -19z" />
    <glyph glyph-name="Iacute" unicode="&#xcd;" 
d="M102 229l50 302q18 109 18 118q0 16 -6 23.5t-21 13.5q-2 1 -5.5 2t-5.5 2t-5.5 2.5t-5 3t-3 3.5t-2.5 5t-1 6q0 22 27 22h168q23 0 23 -19q0 -18 -26 -24q-32 -9 -43 -35q-12 -28 -32 -151l-50 -303q-17 -99 -17 -115q0 -29 26 -40l12 -4q16 -7 16 -20q0 -21 -26 -21
h-168q-23 0 -23 18q0 8 4 13t8.5 7t12.5 5q33 9 44 35q9 21 31 151zM177 836l110 55q39 19 53 19t24.5 -15.5t10.5 -28.5q0 -17 -38 -30l-113 -37q-47 -14 -52 -14q-9 0 -15.5 9t-6.5 18t27 24z" />
    <glyph glyph-name="Icircumflex" unicode="&#xce;" 
d="M102 229l50 302q18 109 18 118q0 16 -6 23.5t-21 13.5q-2 1 -5.5 2t-5.5 2t-5.5 2.5t-5 3t-3 3.5t-2.5 5t-1 6q0 22 27 22h168q23 0 23 -19q0 -18 -26 -24q-32 -9 -43 -35q-12 -28 -32 -151l-50 -303q-17 -99 -17 -115q0 -29 26 -40l12 -4q16 -7 16 -20q0 -21 -26 -21
h-168q-23 0 -23 18q0 8 4 13t8.5 7t12.5 5q33 9 44 35q9 21 31 151zM94 817l126 114q16 9 37 9q22 0 33 -9l86 -114q21 -23 19 -32q-2 -10 -30 -10q-13 0 -19 0.5t-12.5 4t-12.5 10.5l-60 74q-9 11 -16 11t-18 -11l-86 -74q-18 -15 -50 -15h-12.5t-7.5 1t-5.5 3t-0.5 6
q1 7 29 32z" />
    <glyph glyph-name="Idieresis" unicode="&#xcf;" 
d="M102 229l50 302q18 109 18 118q0 16 -6 23.5t-21 13.5q-2 1 -5.5 2t-5.5 2t-5.5 2.5t-5 3t-3 3.5t-2.5 5t-1 6q0 22 27 22h168q23 0 23 -19q0 -18 -26 -24q-32 -9 -43 -35q-12 -28 -32 -151l-50 -303q-17 -99 -17 -115q0 -29 26 -40l12 -4q16 -7 16 -20q0 -21 -26 -21
h-168q-23 0 -23 18q0 8 4 13t8.5 7t12.5 5q33 9 44 35q9 21 31 151zM133 811q-20 0 -31 14t-11 34q0 24 14.5 44t37.5 20q41 0 41 -44q0 -26 -13.5 -47t-37.5 -21zM329 811q-21 0 -31.5 15t-10.5 37q0 24 17 42t41 18q16 0 26 -13.5t10 -30.5q0 -25 -14 -46.5t-38 -21.5z
" />
    <glyph glyph-name="Eth" unicode="&#xd0;" horiz-adv-x="760" 
d="M133 421l24 142q13 81 13 92q0 10 -3.5 16t-8.5 8.5t-15 6.5l-13.5 4.5t-9.5 7t-5 12.5q0 11 5.5 15.5t14 5.5t30.5 1h248q78 0 139.5 -22t96 -54t57 -74.5t30 -78.5t7.5 -71q0 -26 -4 -57.5t-17 -74.5t-33.5 -83t-57 -80t-83 -70t-116 -48.5t-152.5 -18.5h-254
q-25 0 -25 18q0 19 26 25q22 5 34 20t14.5 25t8.5 41l40 238h-99q-35 0 -35 16q0 11 10 24.5t25 13.5h108zM213 367l-35 -209q-7 -42 -7 -60q0 -28 17 -38q22 -14 86 -14q167 0 269.5 111t102.5 277q0 132 -68 192t-203 60q-71 0 -96 -17q-18 -14 -30 -86l-27 -162h183
q35 0 35 -16q0 -11 -10 -24.5t-25 -13.5h-192z" />
    <glyph glyph-name="Ntilde" unicode="&#xd1;" horiz-adv-x="780" 
d="M616 179l56 353q15 93 15 114q0 29 -31 44q-1 1 -5 3t-5.5 2.5t-4 3t-3.5 4t-2 4.5t-1 7q0 18 28 18h127q24 0 24 -13q0 -17 -26 -28q-15 -6 -25 -19t-16.5 -35.5t-8 -31.5t-5.5 -35l-82 -528q0 -1 -1.5 -9.5t-2 -12t-2.5 -10t-5 -9.5t-7.5 -6t-10.5 -3q-12 0 -20 20
q-138 330 -363 630l-64 -442q-12 -85 -12 -111q0 -20 10.5 -31t23 -13t23 -7.5t10.5 -15.5q0 -22 -31 -22h-163q-21 0 -21 13q0 22 32 30q18 5 27.5 13t19.5 36.5t19 84.5l45 275q21 128 21 185q0 7 -1 13t-1.5 10t-4 7.5t-5 5.5t-7 4.5t-7.5 3.5t-10 4t-11 4q-21 8 -21 22
q0 21 39 21h110q16 0 40 -33q162 -203 316 -520zM545 881q17 0 35 17t25 17q5 0 9 -5t4 -10q0 -11 -25 -40q-40 -45 -68 -45q-23 0 -69 16t-62 16q-17 0 -35 -17t-25 -17q-9 0 -9 11q0 9 12 27.5t22 28.5q29 31 58 31q20 0 67 -15t61 -15z" />
    <glyph glyph-name="Ograve" unicode="&#xd2;" horiz-adv-x="780" 
d="M359 -15q-147 0 -232.5 85t-85.5 233q0 52 14.5 110t47.5 118t79 108t117 78t155 30q144 0 227 -86.5t83 -230.5q0 -120 -48.5 -220.5t-142 -162.5t-214.5 -62zM355 37q78 0 139.5 36t98 95t55 129t18.5 145q0 112 -55.5 182t-164.5 70q-76 0 -137 -38.5t-97.5 -100
t-55.5 -132.5t-19 -142q0 -107 56.5 -175.5t161.5 -68.5zM398 891l110 -55q27 -15 27 -24t-6.5 -18t-15.5 -9q-5 0 -52 14l-113 37q-38 13 -38 30q0 13 10.5 28.5t24.5 15.5t53 -19z" />
    <glyph glyph-name="Oacute" unicode="&#xd3;" horiz-adv-x="780" 
d="M359 -15q-147 0 -232.5 85t-85.5 233q0 52 14.5 110t47.5 118t79 108t117 78t155 30q144 0 227 -86.5t83 -230.5q0 -120 -48.5 -220.5t-142 -162.5t-214.5 -62zM355 37q78 0 139.5 36t98 95t55 129t18.5 145q0 112 -55.5 182t-164.5 70q-76 0 -137 -38.5t-97.5 -100
t-55.5 -132.5t-19 -142q0 -107 56.5 -175.5t161.5 -68.5zM417 836l110 55q39 19 53 19t24.5 -15.5t10.5 -28.5q0 -17 -38 -30l-113 -37q-47 -14 -52 -14q-9 0 -15.5 9t-6.5 18t27 24z" />
    <glyph glyph-name="Ocircumflex" unicode="&#xd4;" horiz-adv-x="780" 
d="M359 -15q-147 0 -232.5 85t-85.5 233q0 52 14.5 110t47.5 118t79 108t117 78t155 30q144 0 227 -86.5t83 -230.5q0 -120 -48.5 -220.5t-142 -162.5t-214.5 -62zM355 37q78 0 139.5 36t98 95t55 129t18.5 145q0 112 -55.5 182t-164.5 70q-76 0 -137 -38.5t-97.5 -100
t-55.5 -132.5t-19 -142q0 -107 56.5 -175.5t161.5 -68.5zM324 817l126 114q16 9 37 9q22 0 33 -9l86 -114q21 -23 19 -32q-2 -10 -30 -10q-13 0 -19 0.5t-12.5 4t-12.5 10.5l-60 74q-9 11 -16 11t-18 -11l-86 -74q-18 -15 -50 -15h-12.5t-7.5 1t-5.5 3t-0.5 6q1 7 29 32z
" />
    <glyph glyph-name="Otilde" unicode="&#xd5;" horiz-adv-x="780" 
d="M359 -15q-147 0 -232.5 85t-85.5 233q0 52 14.5 110t47.5 118t79 108t117 78t155 30q144 0 227 -86.5t83 -230.5q0 -120 -48.5 -220.5t-142 -162.5t-214.5 -62zM355 37q78 0 139.5 36t98 95t55 129t18.5 145q0 112 -55.5 182t-164.5 70q-76 0 -137 -38.5t-97.5 -100
t-55.5 -132.5t-19 -142q0 -107 56.5 -175.5t161.5 -68.5zM535 881q17 0 35 17t25 17q5 0 9 -5t4 -10q0 -11 -25 -40q-40 -45 -68 -45q-23 0 -69 16t-62 16q-17 0 -35 -17t-25 -17q-9 0 -9 11q0 9 12 27.5t22 28.5q29 31 58 31q20 0 67 -15t61 -15z" />
    <glyph glyph-name="Odieresis" unicode="&#xd6;" horiz-adv-x="780" 
d="M359 -15q-147 0 -232.5 85t-85.5 233q0 52 14.5 110t47.5 118t79 108t117 78t155 30q144 0 227 -86.5t83 -230.5q0 -120 -48.5 -220.5t-142 -162.5t-214.5 -62zM355 37q78 0 139.5 36t98 95t55 129t18.5 145q0 112 -55.5 182t-164.5 70q-76 0 -137 -38.5t-97.5 -100
t-55.5 -132.5t-19 -142q0 -107 56.5 -175.5t161.5 -68.5zM363 811q-20 0 -31 14t-11 34q0 24 14.5 44t37.5 20q41 0 41 -44q0 -26 -13.5 -47t-37.5 -21zM559 811q-21 0 -31.5 15t-10.5 37q0 24 17 42t41 18q16 0 26 -13.5t10 -30.5q0 -25 -14 -46.5t-38 -21.5z" />
    <glyph glyph-name="multiply" unicode="&#xd7;" horiz-adv-x="660" 
d="M70 32l215 215l-215 216l44 45l216 -216l216 216l44 -45l-215 -216l215 -215l-44 -45l-216 216l-216 -216z" />
    <glyph glyph-name="Oslash" unicode="&#xd8;" horiz-adv-x="780" 
d="M632 591l-435 -488q55 -66 158 -66q78 0 139.5 36t98 95t55 129t18.5 145q0 88 -34 149zM171 138l435 490q-56 66 -160 66q-76 0 -137 -38.5t-97.5 -100t-55.5 -132.5t-19 -142q0 -85 34 -143zM150 50l-20 -22q-28 -33 -37 -33q-7 0 -15 7.5t-8 15.5q0 5 5.5 12.5
t14.5 17.5l9 9l20 22q-78 84 -78 224q0 52 14.5 110t47.5 118t79 108t117 78t155 30q121 0 201 -63l12 13q35 40 45 40q8 0 15.5 -7.5t7.5 -15.5q0 -4 -4 -10.5t-8 -11.5t-10 -11l-7 -7l-19 -21q77 -83 77 -223q0 -120 -48.5 -220.5t-142 -162.5t-214.5 -62q-127 0 -209 65z
" />
    <glyph glyph-name="Ugrave" unicode="&#xd9;" horiz-adv-x="760" 
d="M139 732h149q31 0 31 -20q0 -19 -27 -29q-1 0 -8 -2.5t-8.5 -3t-7 -3.5t-8 -5.5t-6.5 -7.5t-7 -11q-25 -47 -64.5 -211t-39.5 -231q0 -78 60 -124.5t145 -46.5q64 0 125 25t94 73q28 40 47 118t26.5 164t10 136t2.5 81q0 38 -27 49q-1 0 -5.5 2t-5.5 2.5l-5 2.5t-5.5 3.5
t-3.5 4t-3 5.5t-1 6q0 23 30 23h139q26 0 26 -20q0 -16 -24 -25q-37 -14 -41 -36l-12 -87l-7 -99q0 -2 -5 -49.5t-6.5 -60.5t-7.5 -54.5t-11.5 -62.5t-14 -49.5t-19.5 -48.5q-40 -77 -122.5 -116t-178.5 -39q-45 0 -85.5 7t-78.5 23t-65.5 40t-44 61.5t-16.5 83.5
q0 59 47 251t47 198q0 18 -11 25.5t-22 13t-11 18.5q0 26 36 26zM388 891l110 -55q27 -15 27 -24t-6.5 -18t-15.5 -9q-5 0 -52 14l-113 37q-38 13 -38 30q0 13 10.5 28.5t24.5 15.5t53 -19z" />
    <glyph glyph-name="Uacute" unicode="&#xda;" horiz-adv-x="760" 
d="M139 732h149q31 0 31 -20q0 -19 -27 -29q-1 0 -8 -2.5t-8.5 -3t-7 -3.5t-8 -5.5t-6.5 -7.5t-7 -11q-25 -47 -64.5 -211t-39.5 -231q0 -78 60 -124.5t145 -46.5q64 0 125 25t94 73q28 40 47 118t26.5 164t10 136t2.5 81q0 38 -27 49q-1 0 -5.5 2t-5.5 2.5l-5 2.5t-5.5 3.5
t-3.5 4t-3 5.5t-1 6q0 23 30 23h139q26 0 26 -20q0 -16 -24 -25q-37 -14 -41 -36l-12 -87l-7 -99q0 -2 -5 -49.5t-6.5 -60.5t-7.5 -54.5t-11.5 -62.5t-14 -49.5t-19.5 -48.5q-40 -77 -122.5 -116t-178.5 -39q-45 0 -85.5 7t-78.5 23t-65.5 40t-44 61.5t-16.5 83.5
q0 59 47 251t47 198q0 18 -11 25.5t-22 13t-11 18.5q0 26 36 26zM417 836l110 55q39 19 53 19t24.5 -15.5t10.5 -28.5q0 -17 -38 -30l-113 -37q-47 -14 -52 -14q-9 0 -15.5 9t-6.5 18t27 24z" />
    <glyph glyph-name="Ucircumflex" unicode="&#xdb;" horiz-adv-x="760" 
d="M139 732h149q31 0 31 -20q0 -19 -27 -29q-1 0 -8 -2.5t-8.5 -3t-7 -3.5t-8 -5.5t-6.5 -7.5t-7 -11q-25 -47 -64.5 -211t-39.5 -231q0 -78 60 -124.5t145 -46.5q64 0 125 25t94 73q28 40 47 118t26.5 164t10 136t2.5 81q0 38 -27 49q-1 0 -5.5 2t-5.5 2.5l-5 2.5t-5.5 3.5
t-3.5 4t-3 5.5t-1 6q0 23 30 23h139q26 0 26 -20q0 -16 -24 -25q-37 -14 -41 -36l-12 -87l-7 -99q0 -2 -5 -49.5t-6.5 -60.5t-7.5 -54.5t-11.5 -62.5t-14 -49.5t-19.5 -48.5q-40 -77 -122.5 -116t-178.5 -39q-45 0 -85.5 7t-78.5 23t-65.5 40t-44 61.5t-16.5 83.5
q0 59 47 251t47 198q0 18 -11 25.5t-22 13t-11 18.5q0 26 36 26zM314 817l126 114q16 9 37 9q22 0 33 -9l86 -114q21 -23 19 -32q-2 -10 -30 -10q-13 0 -19 0.5t-12.5 4t-12.5 10.5l-60 74q-9 11 -16 11t-18 -11l-86 -74q-18 -15 -50 -15h-12.5t-7.5 1t-5.5 3t-0.5 6
q1 7 29 32z" />
    <glyph glyph-name="Udieresis" unicode="&#xdc;" horiz-adv-x="760" 
d="M139 732h149q31 0 31 -20q0 -19 -27 -29q-1 0 -8 -2.5t-8.5 -3t-7 -3.5t-8 -5.5t-6.5 -7.5t-7 -11q-25 -47 -64.5 -211t-39.5 -231q0 -78 60 -124.5t145 -46.5q64 0 125 25t94 73q28 40 47 118t26.5 164t10 136t2.5 81q0 38 -27 49q-1 0 -5.5 2t-5.5 2.5l-5 2.5t-5.5 3.5
t-3.5 4t-3 5.5t-1 6q0 23 30 23h139q26 0 26 -20q0 -16 -24 -25q-37 -14 -41 -36l-12 -87l-7 -99q0 -2 -5 -49.5t-6.5 -60.5t-7.5 -54.5t-11.5 -62.5t-14 -49.5t-19.5 -48.5q-40 -77 -122.5 -116t-178.5 -39q-45 0 -85.5 7t-78.5 23t-65.5 40t-44 61.5t-16.5 83.5
q0 59 47 251t47 198q0 18 -11 25.5t-22 13t-11 18.5q0 26 36 26zM373 806q-20 0 -31 14t-11 34q0 24 14.5 44t37.5 20q41 0 41 -44q0 -26 -13.5 -47t-37.5 -21zM569 806q-21 0 -31.5 15t-10.5 37q0 24 17 42t41 18q16 0 26 -13.5t10 -30.5q0 -25 -14 -46.5t-38 -21.5z" />
    <glyph glyph-name="Yacute" unicode="&#xdd;" horiz-adv-x="740" 
d="M635 732h135q25 0 25 -18q0 -4 -1.5 -8t-4.5 -7.5l-5 -6t-7 -6.5t-6 -5q-16 -7 -31.5 -24.5t-47.5 -64.5q-55 -80 -264 -291q-34 -188 -34 -223q0 -15 5.5 -21t20.5 -12l12 -4q16 -7 16 -20q0 -21 -27 -21h-174q-23 0 -23 18t26 24q31 8 43 35q11 26 43 215
q-52 67 -106.5 162.5t-85.5 175.5q-1 3 -3.5 8.5t-3.5 7.5t-3.5 6.5t-3.5 6l-3.5 5t-4 5t-4.5 4t-5.5 4t-6.5 3t-8 3.5q-19 8 -19 24q0 25 31 25h143q29 0 29 -19q0 -12 -8.5 -19t-19 -9.5t-19 -10t-8.5 -19.5q0 -31 47 -119t120 -191q122 117 190.5 201.5t68.5 109.5
q0 12 -6 18t-19 11q-19 8 -21 16q-1 3 -1 7q0 24 29 24zM422 826l110 55q39 19 53 19t24.5 -15.5t10.5 -28.5q0 -17 -38 -30l-113 -37q-47 -14 -52 -14q-9 0 -15.5 9t-6.5 18t27 24z" />
    <glyph glyph-name="Thorn" unicode="&#xde;" horiz-adv-x="640" 
d="M249 597h149q247 0 247 -163q0 -33 -13.5 -68.5t-47.5 -75t-85.5 -70.5t-136 -51t-189.5 -20q-8 -48 -8 -64q0 -29 26 -40l12 -4q16 -7 16 -20q0 -21 -26 -21h-168q-23 0 -23 18q0 8 4 13t8.5 7t12.5 5q33 9 44 35q10 24 31 151l50 302q18 113 18 118q0 16 -6 23.5
t-21 13.5q-2 1 -5.5 2t-5.5 2t-5.5 2.5t-5 3t-3 3.5t-2.5 5t-1 6q0 22 27 22h168q23 0 23 -19q0 -18 -26 -24q-25 -5 -36.5 -23.5t-21.5 -68.5zM220 450l-39 -249q84 0 151 15.5t107 39t66 54t36 58.5t10 55q0 127 -191 127q-47 0 -70 -4t-40 -17q-13 -10 -18.5 -26
t-11.5 -53z" />
    <glyph glyph-name="germandbls" unicode="&#xdf;" horiz-adv-x="540" 
d="M34 86l67 407q20 122 87.5 188t159.5 66q48 0 83 -16t52 -42.5t24.5 -52t7.5 -51.5q0 -61 -45.5 -111t-114.5 -74q61 -8 98 -54t37 -116q0 -108 -61.5 -174.5t-146.5 -66.5q-66 0 -99 32.5t-33 84.5q0 47 21.5 78t52.5 31q13 0 22 -9t9 -20q0 -27 -22.5 -52t-22.5 -34
q0 -65 76 -65q53 0 89.5 53.5t36.5 141.5q0 67 -36.5 105t-85.5 38q-12 0 -31.5 -3t-27.5 -3q-33 0 -33 29q0 34 38 34q7 0 24.5 -2t25.5 -2q62 0 106.5 45t44.5 114q0 52 -24.5 84t-76.5 32q-60 0 -101 -59.5t-59 -164.5l-74 -431q-5 -27 -10.5 -36.5t-19.5 -9.5h-77
q-19 0 -19 18q0 12 7.5 17t17 6t19.5 12t14 33z" />
    <glyph glyph-name="agrave" unicode="&#xe0;" horiz-adv-x="520" 
d="M458 438l-31 -164q-21 -135 -21 -167q0 -18 8 -26.5t17 -9t17 -4.5t8 -14q0 -16 -40 -38.5t-58 -22.5q-15 0 -19.5 22.5t-4.5 75.5q-61 -101 -158 -101q-76 0 -118.5 55t-42.5 134q0 70 32.5 138t93 114t131.5 46q74 0 111 -55q37 48 63 48q14 0 14 -16q0 -7 -2 -15z
M191 49q43 0 77 29.5t53 74t29 89.5t10 84q0 43 -25.5 69.5t-67.5 26.5q-54 0 -95 -41t-59.5 -94.5t-18.5 -105.5q0 -53 24 -92.5t73 -39.5zM238 641l110 -55q27 -15 27 -24t-6.5 -18t-15.5 -9q-5 0 -52 14l-113 37q-38 13 -38 30q0 13 10.5 28.5t24.5 15.5t53 -19z" />
    <glyph glyph-name="aacute" unicode="&#xe1;" horiz-adv-x="520" 
d="M458 438l-31 -164q-21 -135 -21 -167q0 -18 8 -26.5t17 -9t17 -4.5t8 -14q0 -16 -40 -38.5t-58 -22.5q-15 0 -19.5 22.5t-4.5 75.5q-61 -101 -158 -101q-76 0 -118.5 55t-42.5 134q0 70 32.5 138t93 114t131.5 46q74 0 111 -55q37 48 63 48q14 0 14 -16q0 -7 -2 -15z
M191 49q43 0 77 29.5t53 74t29 89.5t10 84q0 43 -25.5 69.5t-67.5 26.5q-54 0 -95 -41t-59.5 -94.5t-18.5 -105.5q0 -53 24 -92.5t73 -39.5zM257 586l110 55q39 19 53 19t24.5 -15.5t10.5 -28.5q0 -17 -38 -30l-113 -37q-47 -14 -52 -14q-9 0 -15.5 9t-6.5 18t27 24z" />
    <glyph glyph-name="acircumflex" unicode="&#xe2;" horiz-adv-x="520" 
d="M458 438l-31 -164q-21 -135 -21 -167q0 -18 8 -26.5t17 -9t17 -4.5t8 -14q0 -16 -40 -38.5t-58 -22.5q-15 0 -19.5 22.5t-4.5 75.5q-61 -101 -158 -101q-76 0 -118.5 55t-42.5 134q0 70 32.5 138t93 114t131.5 46q74 0 111 -55q37 48 63 48q14 0 14 -16q0 -7 -2 -15z
M191 49q43 0 77 29.5t53 74t29 89.5t10 84q0 43 -25.5 69.5t-67.5 26.5q-54 0 -95 -41t-59.5 -94.5t-18.5 -105.5q0 -53 24 -92.5t73 -39.5zM159 567l126 114q16 9 37 9q22 0 33 -9l86 -114q21 -23 19 -32q-2 -10 -30 -10q-13 0 -19 0.5t-12.5 4t-12.5 10.5l-60 74
q-9 11 -16 11t-18 -11l-86 -74q-18 -15 -50 -15h-12t-8 1t-5.5 3t-0.5 6q1 7 29 32z" />
    <glyph glyph-name="atilde" unicode="&#xe3;" horiz-adv-x="520" 
d="M458 438l-31 -164q-21 -135 -21 -167q0 -18 8 -26.5t17 -9t17 -4.5t8 -14q0 -16 -40 -38.5t-58 -22.5q-15 0 -19.5 22.5t-4.5 75.5q-61 -101 -158 -101q-76 0 -118.5 55t-42.5 134q0 70 32.5 138t93 114t131.5 46q74 0 111 -55q37 48 63 48q14 0 14 -16q0 -7 -2 -15z
M191 49q43 0 77 29.5t53 74t29 89.5t10 84q0 43 -25.5 69.5t-67.5 26.5q-54 0 -95 -41t-59.5 -94.5t-18.5 -105.5q0 -53 24 -92.5t73 -39.5zM375 631q17 0 35 17t25 17q5 0 9 -5t4 -10q0 -11 -25 -40q-40 -45 -68 -45q-23 0 -69 16t-62 16q-17 0 -35 -17t-25 -17q-9 0 -9 11
q0 9 12 27.5t22 28.5q29 31 58 31q20 0 67 -15t61 -15z" />
    <glyph glyph-name="adieresis" unicode="&#xe4;" horiz-adv-x="520" 
d="M458 438l-31 -164q-21 -135 -21 -167q0 -18 8 -26.5t17 -9t17 -4.5t8 -14q0 -16 -40 -38.5t-58 -22.5q-15 0 -19.5 22.5t-4.5 75.5q-61 -101 -158 -101q-76 0 -118.5 55t-42.5 134q0 70 32.5 138t93 114t131.5 46q74 0 111 -55q37 48 63 48q14 0 14 -16q0 -7 -2 -15z
M191 49q43 0 77 29.5t53 74t29 89.5t10 84q0 43 -25.5 69.5t-67.5 26.5q-54 0 -95 -41t-59.5 -94.5t-18.5 -105.5q0 -53 24 -92.5t73 -39.5zM203 561q-20 0 -31 14t-11 34q0 24 14.5 44t37.5 20q41 0 41 -44q0 -26 -13.5 -47t-37.5 -21zM399 561q-21 0 -31.5 15t-10.5 37
q0 24 17 42t41 18q16 0 26 -13.5t10 -30.5q0 -25 -14 -46.5t-38 -21.5z" />
    <glyph glyph-name="aring" unicode="&#xe5;" horiz-adv-x="520" 
d="M458 438l-31 -164q-21 -135 -21 -167q0 -18 8 -26.5t17 -9t17 -4.5t8 -14q0 -16 -40 -38.5t-58 -22.5q-15 0 -19.5 22.5t-4.5 75.5q-61 -101 -158 -101q-76 0 -118.5 55t-42.5 134q0 70 32.5 138t93 114t131.5 46q74 0 111 -55q37 48 63 48q14 0 14 -16q0 -7 -2 -15z
M191 49q43 0 77 29.5t53 74t29 89.5t10 84q0 43 -25.5 69.5t-67.5 26.5q-54 0 -95 -41t-59.5 -94.5t-18.5 -105.5q0 -53 24 -92.5t73 -39.5zM298 524q-37 0 -64 27t-27 64q0 40 27.5 67.5t68.5 27.5q37 0 63 -28.5t26 -65.5q0 -39 -27.5 -65.5t-66.5 -26.5zM298 569
q19 0 34 13t15 32q0 20 -12.5 35t-32.5 15q-21 0 -35.5 -14t-14.5 -35q0 -19 13.5 -32.5t32.5 -13.5z" />
    <glyph glyph-name="ae" unicode="&#xe6;" horiz-adv-x="820" 
d="M420 215q-3 -23 -3 -49q0 -58 38 -87t98 -29q51 0 93 18.5t67 37t33 18.5q16 0 16 -19t-56 -55q-91 -61 -176 -61q-61 0 -111 29t-64 82q-30 -52 -83 -81.5t-116 -29.5q-61 0 -104 32.5t-43 90.5q0 46 27 81t67.5 52.5t78 26t68.5 8.5q72 0 105 -5q5 25 5 51q0 48 -35 75
t-85 27q-61 0 -95 -36q-2 -2 -5.5 -6.5t-5.5 -6.5t-5.5 -5t-6.5 -4.5t-7 -2.5t-9 -1q-15 0 -25 8.5t-10 23.5q0 31 46 54q47 24 127 24q58 0 107.5 -24.5t68.5 -76.5q39 46 99 73.5t112 27.5q62 0 109.5 -27.5t47.5 -84.5q0 -51 -47 -88t-107.5 -52t-123.5 -15
q-16 0 -46.5 3t-43.5 3zM345 225q-25 5 -80 5q-66 0 -120 -30.5t-54 -79.5q0 -34 24 -55t60 -21q63 0 110 43t60 138zM430 265q38 -5 75 -5q39 0 83.5 11t81.5 37t37 60q0 29 -24 43.5t-55 14.5q-71 0 -131.5 -53.5t-66.5 -107.5z" />
    <glyph glyph-name="ccedilla" unicode="&#xe7;" horiz-adv-x="460" 
d="M205 -11l-6 -30q12 2 27 2q34 0 61.5 -14t27.5 -44q0 -26 -27 -43.5t-56.5 -24t-55.5 -6.5q-29 0 -71 11t-42 31q0 7 5.5 12t12.5 5q3 0 33.5 -14.5t61.5 -14.5q24 0 44.5 8.5t20.5 29.5q0 32 -43 32q-6 0 -16 -2t-16 -2q-15 0 -15 12q0 7 14 55q-67 13 -108 59t-41 122
q0 114 82 208.5t195 94.5q27 0 56.5 -8.5t54 -29t24.5 -48.5q0 -20 -13 -33.5t-32 -13.5q-17 0 -27.5 12.5t-15.5 28t-19.5 28t-38.5 12.5q-76 0 -129 -77.5t-53 -172.5q0 -60 30.5 -95t88.5 -35q42 0 77.5 20t56.5 40t29 20q18 0 18 -19q0 -8 -14 -25t-37.5 -36.5
t-62.5 -35.5t-81 -19z" />
    <glyph glyph-name="egrave" unicode="&#xe8;" horiz-adv-x="500" 
d="M99 191q-6 -71 32.5 -106t110.5 -35q37 0 71.5 12t54 27t37 27t24.5 12q18 0 18 -16q0 -24 -57 -63q-87 -60 -182 -60q-86 0 -139.5 52.5t-53.5 138.5q0 115 93.5 205.5t208.5 90.5q79 0 115 -30.5t36 -70.5q0 -67 -91 -121.5t-278 -62.5zM102 237q30 0 75 8t94.5 22.5
t83 41.5t32.5 60q-1 30 -24.5 46t-52.5 16q-70 0 -131.5 -60t-76.5 -134zM228 641l110 -55q27 -15 27 -24t-6.5 -18t-15.5 -9q-5 0 -52 14l-113 37q-38 13 -38 30q0 13 10.5 28.5t24.5 15.5t53 -19z" />
    <glyph glyph-name="eacute" unicode="&#xe9;" horiz-adv-x="500" 
d="M99 191q-6 -71 32.5 -106t110.5 -35q37 0 71.5 12t54 27t37 27t24.5 12q18 0 18 -16q0 -24 -57 -63q-87 -60 -182 -60q-86 0 -139.5 52.5t-53.5 138.5q0 115 93.5 205.5t208.5 90.5q79 0 115 -30.5t36 -70.5q0 -67 -91 -121.5t-278 -62.5zM102 237q30 0 75 8t94.5 22.5
t83 41.5t32.5 60q-1 30 -24.5 46t-52.5 16q-70 0 -131.5 -60t-76.5 -134zM247 586l110 55q39 19 53 19t24.5 -15.5t10.5 -28.5q0 -17 -38 -30l-113 -37q-47 -14 -52 -14q-9 0 -15.5 9t-6.5 18t27 24z" />
    <glyph glyph-name="ecircumflex" unicode="&#xea;" horiz-adv-x="500" 
d="M99 191q-6 -71 32.5 -106t110.5 -35q37 0 71.5 12t54 27t37 27t24.5 12q18 0 18 -16q0 -24 -57 -63q-87 -60 -182 -60q-86 0 -139.5 52.5t-53.5 138.5q0 115 93.5 205.5t208.5 90.5q79 0 115 -30.5t36 -70.5q0 -67 -91 -121.5t-278 -62.5zM102 237q30 0 75 8t94.5 22.5
t83 41.5t32.5 60q-1 30 -24.5 46t-52.5 16q-70 0 -131.5 -60t-76.5 -134zM164 567l126 114q16 9 37 9q22 0 33 -9l86 -114q21 -23 19 -32q-2 -10 -30 -10q-13 0 -19 0.5t-12.5 4t-12.5 10.5l-60 74q-9 11 -16 11t-18 -11l-86 -74q-18 -15 -50 -15h-12.5t-7.5 1t-5.5 3
t-0.5 6q1 7 29 32z" />
    <glyph glyph-name="edieresis" unicode="&#xeb;" horiz-adv-x="500" 
d="M99 191q-6 -71 32.5 -106t110.5 -35q37 0 71.5 12t54 27t37 27t24.5 12q18 0 18 -16q0 -24 -57 -63q-87 -60 -182 -60q-86 0 -139.5 52.5t-53.5 138.5q0 115 93.5 205.5t208.5 90.5q79 0 115 -30.5t36 -70.5q0 -67 -91 -121.5t-278 -62.5zM102 237q30 0 75 8t94.5 22.5
t83 41.5t32.5 60q-1 30 -24.5 46t-52.5 16q-70 0 -131.5 -60t-76.5 -134zM198 561q-20 0 -31 14t-11 34q0 24 14.5 44t37.5 20q41 0 41 -44q0 -26 -13.5 -47t-37.5 -21zM394 561q-21 0 -31.5 15t-10.5 37q0 24 17 42t41 18q16 0 26 -13.5t10 -30.5q0 -25 -14 -46.5
t-38 -21.5z" />
    <glyph glyph-name="igrave" unicode="&#xec;" horiz-adv-x="280" 
d="M90 210q24 131 24 157q0 14 -8 21t-17.5 7.5t-17.5 5t-8 14.5q0 16 24 27q68 34 86 34q30 0 30 -31q0 -8 -29 -167q-30 -168 -30 -186q0 -10 4.5 -15.5t10.5 -7.5t17 -3q25 -2 25 -19q0 -18 -41 -36.5t-63 -18.5q-31 0 -31 40q0 47 24 178zM108 641l110 -55
q27 -15 27 -24t-6.5 -18t-15.5 -9q-5 0 -52 14l-113 37q-38 13 -38 30q0 13 10.5 28.5t24.5 15.5t53 -19z" />
    <glyph glyph-name="iacute" unicode="&#xed;" horiz-adv-x="280" 
d="M90 210q24 131 24 157q0 14 -8 21t-17.5 7.5t-17.5 5t-8 14.5q0 16 24 27q68 34 86 34q30 0 30 -31q0 -8 -29 -167q-30 -168 -30 -186q0 -10 4.5 -15.5t10.5 -7.5t17 -3q25 -2 25 -19q0 -18 -41 -36.5t-63 -18.5q-31 0 -31 40q0 47 24 178zM137 586l110 55q39 19 53 19
t24.5 -15.5t10.5 -28.5q0 -17 -38 -30l-113 -37q-47 -14 -52 -14q-9 0 -15.5 9t-6.5 18t27 24z" />
    <glyph glyph-name="icircumflex" unicode="&#xee;" horiz-adv-x="280" 
d="M90 210q24 131 24 157q0 14 -8 21t-17.5 7.5t-17.5 5t-8 14.5q0 16 24 27q68 34 86 34q30 0 30 -31q0 -8 -29 -167q-30 -168 -30 -186q0 -10 4.5 -15.5t10.5 -7.5t17 -3q25 -2 25 -19q0 -18 -41 -36.5t-63 -18.5q-31 0 -31 40q0 47 24 178zM34 567l126 114q16 9 37 9
q22 0 33 -9l86 -114q21 -23 19 -32q-2 -10 -30 -10q-13 0 -19 0.5t-12.5 4t-12.5 10.5l-60 74q-9 11 -16 11t-18 -11l-86 -74q-18 -15 -50 -15h-12.5t-7.5 1t-5.5 3t-0.5 6q1 7 29 32z" />
    <glyph glyph-name="idieresis" unicode="&#xef;" horiz-adv-x="280" 
d="M90 210q24 131 24 157q0 14 -8 21t-17.5 7.5t-17.5 5t-8 14.5q0 16 24 27q68 34 86 34q30 0 30 -31q0 -8 -29 -167q-30 -168 -30 -186q0 -10 4.5 -15.5t10.5 -7.5t17 -3q25 -2 25 -19q0 -18 -41 -36.5t-63 -18.5q-31 0 -31 40q0 47 24 178zM83 561q-20 0 -31 14t-11 34
q0 24 14.5 44t37.5 20q41 0 41 -44q0 -26 -13.5 -47t-37.5 -21zM279 561q-21 0 -31.5 15t-10.5 37q0 24 17 42t41 18q16 0 26 -13.5t10 -30.5q0 -25 -14 -46.5t-38 -21.5z" />
    <glyph glyph-name="eth" unicode="&#xf0;" horiz-adv-x="560" 
d="M304 428q-92 0 -146 -75t-54 -171q0 -65 35 -105t99 -40q85 0 139.5 76.5t54.5 165.5q0 62 -33.5 105.5t-94.5 43.5zM332 613l-168 -65q-48 -19 -58 -1l-6 13q-5 12 0.5 18.5t20.5 12.5l161 63q-67 44 -154 49q-50 4 -56 14q-2 3 -2 7q0 23 45 23q61 0 126.5 -17.5
t108.5 -49.5l173 67q32 12 40 -2l7 -13q6 -11 -5 -21.5t-40 -21.5l-127 -50q120 -116 120 -299q0 -86 -26 -155.5t-68.5 -111t-92.5 -63t-102 -21.5q-88 0 -149.5 57.5t-61.5 144.5q0 112 83 198.5t189 86.5q90 0 140 -56q-21 124 -98 193z" />
    <glyph glyph-name="ntilde" unicode="&#xf1;" horiz-adv-x="600" 
d="M184 419v-59q29 47 81 81.5t108 34.5q57 0 96 -34.5t39 -90.5q0 -34 -13 -103q-26 -139 -26 -158q0 -13 6.5 -19.5t15 -7t15 -4t6.5 -10.5q0 -19 -41.5 -38t-62.5 -19q-26 0 -26 39q0 15 3 33t11 59t14 75q22 126 22 145q0 37 -21.5 59.5t-58.5 22.5q-45 0 -91.5 -46
t-66.5 -99q-17 -46 -24 -68.5t-15.5 -63t-14.5 -94.5q-4 -39 -10.5 -46.5t-31.5 -7.5q-28 0 -35.5 1.5t-7.5 9.5q0 2 1.5 8t4.5 19.5t6 29.5q47 246 47 281q0 22 -4.5 31.5t-22.5 17.5q-2 1 -6 2.5t-6 2.5t-5 3t-4.5 4.5t-1.5 5.5q0 12 39 36t51 24q30 0 30 -57zM425 631
q17 0 35 17t25 17q5 0 9 -5t4 -10q0 -11 -25 -40q-40 -45 -68 -45q-23 0 -69 16t-62 16q-17 0 -35 -17t-25 -17q-9 0 -9 11q0 9 12 27.5t22 28.5q29 31 58 31q20 0 67 -15t61 -15z" />
    <glyph glyph-name="ograve" unicode="&#xf2;" horiz-adv-x="560" 
d="M229 -11q-88 0 -149.5 57.5t-61.5 144.5q0 113 85.5 199t197.5 86q95 0 156 -56.5t61 -150.5q0 -113 -87.5 -196.5t-201.5 -83.5zM238 38q85 0 139.5 76t54.5 165q0 62 -33.5 105.5t-94.5 43.5q-92 0 -145.5 -75t-53.5 -171q0 -65 34.5 -104.5t98.5 -39.5zM258 641
l110 -55q27 -15 27 -24t-6.5 -18t-15.5 -9q-5 0 -52 14l-113 37q-38 13 -38 30q0 13 10.5 28.5t24.5 15.5t53 -19z" />
    <glyph glyph-name="oacute" unicode="&#xf3;" horiz-adv-x="560" 
d="M229 -11q-88 0 -149.5 57.5t-61.5 144.5q0 113 85.5 199t197.5 86q95 0 156 -56.5t61 -150.5q0 -113 -87.5 -196.5t-201.5 -83.5zM238 38q85 0 139.5 76t54.5 165q0 62 -33.5 105.5t-94.5 43.5q-92 0 -145.5 -75t-53.5 -171q0 -65 34.5 -104.5t98.5 -39.5zM277 586
l110 55q39 19 53 19t24.5 -15.5t10.5 -28.5q0 -17 -38 -30l-113 -37q-47 -14 -52 -14q-9 0 -15.5 9t-6.5 18t27 24z" />
    <glyph glyph-name="ocircumflex" unicode="&#xf4;" horiz-adv-x="560" 
d="M229 -11q-88 0 -149.5 57.5t-61.5 144.5q0 113 85.5 199t197.5 86q95 0 156 -56.5t61 -150.5q0 -113 -87.5 -196.5t-201.5 -83.5zM238 38q85 0 139.5 76t54.5 165q0 62 -33.5 105.5t-94.5 43.5q-92 0 -145.5 -75t-53.5 -171q0 -65 34.5 -104.5t98.5 -39.5zM179 567
l126 114q16 9 37 9q22 0 33 -9l86 -114q21 -23 19 -32q-2 -10 -30 -10q-13 0 -19 0.5t-12.5 4t-12.5 10.5l-60 74q-9 11 -16 11t-18 -11l-86 -74q-18 -15 -50 -15h-12t-8 1t-5.5 3t-0.5 6q1 7 29 32z" />
    <glyph glyph-name="otilde" unicode="&#xf5;" horiz-adv-x="560" 
d="M229 -11q-88 0 -149.5 57.5t-61.5 144.5q0 113 85.5 199t197.5 86q95 0 156 -56.5t61 -150.5q0 -113 -87.5 -196.5t-201.5 -83.5zM238 38q85 0 139.5 76t54.5 165q0 62 -33.5 105.5t-94.5 43.5q-92 0 -145.5 -75t-53.5 -171q0 -65 34.5 -104.5t98.5 -39.5zM405 631
q17 0 35 17t25 17q5 0 9 -5t4 -10q0 -11 -25 -40q-40 -45 -68 -45q-23 0 -69 16t-62 16q-17 0 -35 -17t-25 -17q-9 0 -9 11q0 9 12 27.5t22 28.5q29 31 58 31q20 0 67 -15t61 -15z" />
    <glyph glyph-name="odieresis" unicode="&#xf6;" horiz-adv-x="560" 
d="M229 -11q-88 0 -149.5 57.5t-61.5 144.5q0 113 85.5 199t197.5 86q95 0 156 -56.5t61 -150.5q0 -113 -87.5 -196.5t-201.5 -83.5zM238 38q85 0 139.5 76t54.5 165q0 62 -33.5 105.5t-94.5 43.5q-92 0 -145.5 -75t-53.5 -171q0 -65 34.5 -104.5t98.5 -39.5zM233 561
q-20 0 -31 14t-11 34q0 24 14.5 44t37.5 20q41 0 41 -44q0 -26 -13.5 -47t-37.5 -21zM429 561q-21 0 -31.5 15t-10.5 37q0 24 17 42t41 18q16 0 26 -13.5t10 -30.5q0 -25 -14 -46.5t-38 -21.5z" />
    <glyph glyph-name="divide" unicode="&#xf7;" horiz-adv-x="660" 
d="M70 219v63h520v-63h-520zM331 360q-23 0 -38 16t-15 39q0 22 15.5 37t37.5 15q23 0 38.5 -16t15.5 -39q0 -21 -16.5 -36.5t-37.5 -15.5zM331 34q-23 0 -38 16t-15 39q0 22 15.5 37t37.5 15q23 0 38.5 -16t15.5 -39q0 -21 -16.5 -36.5t-37.5 -15.5z" />
    <glyph glyph-name="oslash" unicode="&#xf8;" horiz-adv-x="560" 
d="M423 444l17 18q26 34 39 34q9 0 15.5 -5.5t6.5 -14.5t-28 -37l-17 -19q62 -60 62 -145q0 -114 -82 -198q-39 -40 -94.5 -64t-110.5 -24q-62 0 -122 33l-17 -20q-2 -2 -7.5 -10t-9 -11.5t-10 -7.5t-12.5 -4q-8 0 -14.5 6t-6.5 13q0 4 3.5 10.5t8 11l10 10.5t6.5 7l17 21
q-28 24 -43.5 63.5t-15.5 79.5q0 52 23.5 105t61.5 92q83 88 202 88q62 0 118 -32zM124 98l257 303q-32 26 -76 26q-94 0 -147.5 -75.5t-53.5 -173.5q0 -46 20 -80zM410 369l-260 -304q40 -29 87 -29q87 0 141 77t54 168q0 46 -22 88z" />
    <glyph glyph-name="ugrave" unicode="&#xf9;" horiz-adv-x="580" 
d="M385 75v45q-74 -131 -185 -131q-55 0 -93.5 34.5t-38.5 88.5q0 41 20 156q16 94 16 106q0 13 -7 19.5t-15.5 7t-15.5 4.5t-7 13q0 17 44 37.5t63 20.5q23 0 23 -37q0 -25 -22 -151q-23 -133 -23 -165q0 -33 20 -56t53 -23q47 0 85 36.5t61 94.5t36 111.5t19 103.5
q7 64 9 68q5 9 41 9q37 0 37 -11q0 -6 -1.5 -15.5t-8.5 -48l-16 -92.5q-25 -152 -25 -182q0 -19 8 -29.5t17 -13t17 -6.5t8 -12q0 -14 -36.5 -39.5t-52.5 -25.5q-30 0 -30 83zM248 641l110 -55q27 -15 27 -24t-6.5 -18t-15.5 -9q-5 0 -52 14l-113 37q-38 13 -38 30
q0 13 10.5 28.5t24.5 15.5t53 -19z" />
    <glyph glyph-name="uacute" unicode="&#xfa;" horiz-adv-x="580" 
d="M385 75v45q-74 -131 -185 -131q-55 0 -93.5 34.5t-38.5 88.5q0 41 20 156q16 94 16 106q0 13 -7 19.5t-15.5 7t-15.5 4.5t-7 13q0 17 44 37.5t63 20.5q23 0 23 -37q0 -25 -22 -151q-23 -133 -23 -165q0 -33 20 -56t53 -23q47 0 85 36.5t61 94.5t36 111.5t19 103.5
q7 64 9 68q5 9 41 9q37 0 37 -11q0 -6 -1.5 -15.5t-8.5 -48l-16 -92.5q-25 -152 -25 -182q0 -19 8 -29.5t17 -13t17 -6.5t8 -12q0 -14 -36.5 -39.5t-52.5 -25.5q-30 0 -30 83zM287 586l110 55q39 19 53 19t24.5 -15.5t10.5 -28.5q0 -17 -38 -30l-113 -37q-47 -14 -52 -14
q-9 0 -15.5 9t-6.5 18t27 24z" />
    <glyph glyph-name="ucircumflex" unicode="&#xfb;" horiz-adv-x="580" 
d="M385 75v45q-74 -131 -185 -131q-55 0 -93.5 34.5t-38.5 88.5q0 41 20 156q16 94 16 106q0 13 -7 19.5t-15.5 7t-15.5 4.5t-7 13q0 17 44 37.5t63 20.5q23 0 23 -37q0 -25 -22 -151q-23 -133 -23 -165q0 -33 20 -56t53 -23q47 0 85 36.5t61 94.5t36 111.5t19 103.5
q7 64 9 68q5 9 41 9q37 0 37 -11q0 -6 -1.5 -15.5t-8.5 -48l-16 -92.5q-25 -152 -25 -182q0 -19 8 -29.5t17 -13t17 -6.5t8 -12q0 -14 -36.5 -39.5t-52.5 -25.5q-30 0 -30 83zM184 567l126 114q16 9 37 9q22 0 33 -9l86 -114q21 -23 19 -32q-2 -10 -30 -10q-13 0 -19 0.5
t-12.5 4t-12.5 10.5l-60 74q-9 11 -16 11t-18 -11l-86 -74q-18 -15 -50 -15h-12.5t-7.5 1t-5.5 3t-0.5 6q1 7 29 32z" />
    <glyph glyph-name="udieresis" unicode="&#xfc;" horiz-adv-x="580" 
d="M385 75v45q-74 -131 -185 -131q-55 0 -93.5 34.5t-38.5 88.5q0 41 20 156q16 94 16 106q0 13 -7 19.5t-15.5 7t-15.5 4.5t-7 13q0 17 44 37.5t63 20.5q23 0 23 -37q0 -25 -22 -151q-23 -133 -23 -165q0 -33 20 -56t53 -23q47 0 85 36.5t61 94.5t36 111.5t19 103.5
q7 64 9 68q5 9 41 9q37 0 37 -11q0 -6 -1.5 -15.5t-8.5 -48l-16 -92.5q-25 -152 -25 -182q0 -19 8 -29.5t17 -13t17 -6.5t8 -12q0 -14 -36.5 -39.5t-52.5 -25.5q-30 0 -30 83zM228 561q-20 0 -31 14t-11 34q0 24 14.5 44t37.5 20q41 0 41 -44q0 -26 -13.5 -47t-37.5 -21z
M424 561q-21 0 -31.5 15t-10.5 37q0 24 17 42t41 18q16 0 26 -13.5t10 -30.5q0 -25 -14 -46.5t-38 -21.5z" />
    <glyph glyph-name="yacute" unicode="&#xfd;" horiz-adv-x="500" 
d="M274 14q-32 -22 -56 -22q-134 0 -134 284q0 27 3.5 62.5t3.5 49.5q0 13 -20.5 19.5t-20.5 15.5q0 16 45.5 34.5t67.5 18.5t22 -24q0 -3 -5.5 -32.5t-11 -74.5t-5.5 -84q0 -28 3.5 -58.5t12 -68.5t28.5 -62.5t48 -24.5q49 0 99 106q19 37 36 89.5t17 86.5q0 25 -18 49
t-18 42q0 21 13.5 38.5t34.5 17.5q29 0 40.5 -27t11.5 -59q0 -78 -37 -177.5t-87 -177.5q-48 -75 -131.5 -151.5t-147.5 -76.5q-22 0 -37 11.5t-15 32.5q0 19 14 30.5t33 11.5q11 0 25.5 -5.5t23.5 -5.5q31 0 82.5 46.5t79.5 85.5zM257 586l110 55q39 19 53 19t24.5 -15.5
t10.5 -28.5q0 -17 -38 -30l-113 -37q-47 -14 -52 -14q-9 0 -15.5 9t-6.5 18t27 24z" />
    <glyph glyph-name="thorn" unicode="&#xfe;" horiz-adv-x="580" 
d="M83 164q64 423 64 475q0 14 -6.5 21.5t-15 9t-15 6t-6.5 11.5q0 21 44 45.5t68 24.5q9 0 15 -6t6 -15q0 -10 -4.5 -36t-17.5 -112.5t-28 -212.5q24 48 70 74.5t102 26.5q84 0 132 -55t48 -140q0 -67 -36 -134.5t-98.5 -112.5t-130.5 -45q-41 0 -73.5 14t-32.5 31
q0 29 20 29q5 0 29.5 -11.5t52.5 -11.5q57 0 99.5 39t61.5 92t19 108q0 60 -29 99t-86 39q-46 0 -83 -33.5t-53 -70.5q-16 -34 -23.5 -66t-26.5 -142q-32 -184 -32 -220q0 -14 6.5 -22t14 -10t14 -7.5t6.5 -16.5q0 -22 -28 -22h-122q-32 0 -32 20q0 11 7 16.5t21 10.5
q25 9 31 34q18 75 48 276z" />
    <glyph glyph-name="ydieresis" unicode="&#xff;" horiz-adv-x="500" 
d="M274 14q-32 -22 -56 -22q-134 0 -134 284q0 27 3.5 62.5t3.5 49.5q0 13 -20.5 19.5t-20.5 15.5q0 16 45.5 34.5t67.5 18.5t22 -24q0 -3 -5.5 -32.5t-11 -74.5t-5.5 -84q0 -28 3.5 -58.5t12 -68.5t28.5 -62.5t48 -24.5q49 0 99 106q19 37 36 89.5t17 86.5q0 25 -18 49
t-18 42q0 21 13.5 38.5t34.5 17.5q29 0 40.5 -27t11.5 -59q0 -78 -37 -177.5t-87 -177.5q-48 -75 -131.5 -151.5t-147.5 -76.5q-22 0 -37 11.5t-15 32.5q0 19 14 30.5t33 11.5q11 0 25.5 -5.5t23.5 -5.5q31 0 82.5 46.5t79.5 85.5zM203 561q-20 0 -31 14t-11 34
q0 24 14.5 44t37.5 20q41 0 41 -44q0 -26 -13.5 -47t-37.5 -21zM399 561q-21 0 -31.5 15t-10.5 37q0 24 17 42t41 18q16 0 26 -13.5t10 -30.5q0 -25 -14 -46.5t-38 -21.5z" />
    <glyph glyph-name="dotlessi" unicode="&#x131;" horiz-adv-x="280" 
d="M90 210q24 131 24 157q0 14 -8 21t-17.5 7.5t-17.5 5t-8 14.5q0 16 24 27q68 34 86 34q30 0 30 -31q0 -8 -29 -167q-30 -168 -30 -186q0 -10 4.5 -15.5t10.5 -7.5t17 -3q25 -2 25 -19q0 -18 -41 -36.5t-63 -18.5q-31 0 -31 40q0 47 24 178z" />
    <glyph glyph-name="Lslash" unicode="&#x141;" horiz-adv-x="660" 
d="M122 229l14 89l-46 -24q-40 -22 -49 -22q-7 0 -12.5 7t-5.5 15q0 11 6.5 19t26.5 19l90 48l26 152q17 105 17 120q0 16 -5.5 22.5t-20.5 12.5q-2 1 -6.5 2.5t-6.5 2.5t-5.5 2.5t-5 3.5t-3 5.5t-1.5 7.5q0 10 6.5 14.5t14.5 5.5t27 1h136q16 0 23 -0.5t13.5 -4.5t6.5 -13
q0 -13 -7.5 -17.5t-22.5 -7.5q-21 -4 -31.5 -10.5t-18.5 -24.5q-16 -36 -41 -219l181 96q19 10 32 10q20 0 20 -21q0 -15 -30 -35l-213 -112l-21 -117q-18 -108 -18 -152q0 -25 5.5 -35.5t27.5 -13.5q34 -6 102 -6q79 0 135 13t107 53q14 11 20 11t11 -4.5t5 -10.5
q0 -10 -13 -46.5t-20 -48.5q-7 -11 -14.5 -13.5t-25.5 -2.5h-485q-20 0 -20 18q0 11 6 15.5t19 9.5q18 8 26.5 16.5t14.5 26.5q12 40 29 143z" />
    <glyph glyph-name="lslash" unicode="&#x142;" horiz-adv-x="340" 
d="M90 131l42 246l-34 -24q-5 -3 -14 -10t-12.5 -9.5t-9 -5t-10.5 -2.5q-15 0 -15 17q0 10 7.5 18t29.5 23l66 46l16 93q0 2 8 50.5t8 65.5q0 14 -6.5 21.5t-15 9t-15 6t-6.5 11.5q0 21 44 45.5t68 24.5q9 0 15 -6t6 -15q0 -3 -43 -251l45 32q41 29 51 29q16 0 16 -19
q0 -11 -39 -38l-82 -57l-45 -270q-8 -42 -8 -66q0 -14 5.5 -21.5t12 -9t12 -5t5.5 -11.5q0 -17 -42 -37t-61 -20q-17 0 -17 25q0 12 18 114z" />
    <glyph glyph-name="OE" unicode="&#x152;" horiz-adv-x="1000" 
d="M607 420h156q37 0 68 21q18 11 25 11q15 0 15 -17q0 -10 -6 -43t-12 -43.5t-19 -10.5q-10 0 -26 14q-19 16 -44 16h-165l-23 -133q-17 -109 -17 -145q0 -26 20 -34t89 -8q52 0 87 3.5t60.5 14.5t37 19t35.5 27q22 20 33 20q15 0 15 -11q0 -15 -31 -98q-5 -14 -11.5 -18.5
t-20.5 -4.5h-398q-21 0 -15 35q-32 -29 -67.5 -39.5t-92.5 -10.5q-114 0 -187.5 81.5t-73.5 218.5q0 199 108.5 330.5t275.5 131.5q100 0 147 -47q1 22 8.5 27t32.5 5h346q16 0 22 -6.5t6 -25.5q0 -53 -5.5 -71.5t-19.5 -18.5q-10 0 -21 17q-24 33 -74 45q-37 9 -87 9
q-98 0 -119 -23q-6 -7 -11.5 -20.5t-7.5 -23.5t-5 -29.5t-4 -22.5zM480 170l60 355q7 44 9 87q2 35 -26 58.5t-88 23.5q-75 0 -134 -36.5t-94.5 -97t-53.5 -131t-18 -144.5q0 -115 55.5 -181t134.5 -66q82 0 122 45q24 27 33 87z" />
    <glyph glyph-name="oe" unicode="&#x153;" horiz-adv-x="920" 
d="M495 191q6 -70 50.5 -105.5t108.5 -35.5q37 0 71.5 12t54 27t37 27t24.5 12q18 0 18 -16q0 -24 -57 -63q-87 -60 -182 -60q-56 0 -106.5 28.5t-67.5 79.5q-30 -51 -93.5 -79.5t-119.5 -28.5q-93 0 -153.5 56t-60.5 148q0 113 86.5 198t199.5 85q62 0 115 -29t76 -87
q102 116 233 116q79 0 115 -30.5t36 -70.5q0 -68 -94 -122t-291 -62zM500 244l15 2q282 25 282 124q0 28 -23 44t-52 16q-74 0 -138.5 -56t-83.5 -130zM238 38q85 0 139.5 76t54.5 165q0 62 -33.5 105.5t-94.5 43.5q-92 0 -145.5 -75t-53.5 -171q0 -65 34.5 -104.5
t98.5 -39.5z" />
    <glyph glyph-name="Scaron" unicode="&#x160;" horiz-adv-x="620" 
d="M532 574q-3 39 -21.5 65.5t-46 38t-49.5 15.5t-44 4q-79 0 -123.5 -41.5t-44.5 -93.5q0 -39 27.5 -69.5t68.5 -48l89.5 -38.5t89.5 -41t68.5 -56.5t27.5 -83.5q0 -75 -44 -131.5t-108.5 -82.5t-137.5 -26q-58 0 -116 16t-105 57.5t-47 101.5q0 38 19 62.5t55 24.5
q19 0 32.5 -11t13.5 -29q0 -10 -11 -31.5t-11 -36.5q0 -37 50 -68t125 -31q76 0 135.5 41.5t59.5 115.5q0 40 -28 69.5t-69.5 45.5l-90 36t-90 40.5t-69.5 58.5t-28 90q0 98 77.5 154t178.5 56q96 0 181 -40q31 -15 38 -23t7 -28q0 -16 -4 -56t-7 -49q-6 -14 -20 -14
q-25 0 -28 37zM548 898l-126 -114q-16 -9 -37 -9q-22 0 -33 9l-86 114q-21 23 -19 32q2 10 30 10q13 0 19 -0.5t12.5 -4t12.5 -10.5l60 -74q9 -11 16 -11t18 11l86 74q18 15 50 15h12.5t7.5 -1t5.5 -3t0.5 -6q-1 -7 -29 -32z" />
    <glyph glyph-name="scaron" unicode="&#x161;" horiz-adv-x="420" 
d="M97 100q15 -62 85 -62q41 0 71 23.5t30 63.5q0 23 -23 40.5t-56 30t-65.5 28t-55.5 44t-23 68.5q0 63 53 101.5t118 38.5q63 0 104.5 -31t41.5 -66q0 -17 -10.5 -28t-26.5 -11q-28 0 -37 32q-9 30 -25.5 43t-51.5 13q-33 0 -59.5 -21t-26.5 -53q0 -26 23 -45t56 -31.5
t66.5 -27t56.5 -42t23 -67.5q0 -67 -57 -109.5t-127 -42.5q-33 0 -72 12t-70.5 39t-31.5 62q0 18 11 30t29 12q39 0 50 -44zM403 648l-126 -114q-16 -9 -37 -9q-22 0 -33 9l-86 114q-21 23 -19 32q2 10 30 10q13 0 19 -0.5t12.5 -4t12.5 -10.5l60 -74q9 -11 16 -11t18 11
l86 74q18 15 50 15h12t8 -1t5.5 -3t0.5 -6q-1 -7 -29 -32z" />
    <glyph glyph-name="Ydieresis" unicode="&#x178;" horiz-adv-x="740" 
d="M635 732h135q25 0 25 -18q0 -4 -1.5 -8t-4.5 -7.5l-5 -6t-7 -6.5t-6 -5q-16 -7 -31.5 -24.5t-47.5 -64.5q-55 -80 -264 -291q-34 -188 -34 -223q0 -15 5.5 -21t20.5 -12l12 -4q16 -7 16 -20q0 -21 -27 -21h-174q-23 0 -23 18t26 24q31 8 43 35q11 26 43 215
q-52 67 -106.5 162.5t-85.5 175.5q-1 3 -3.5 8.5t-3.5 7.5t-3.5 6.5t-3.5 6l-3.5 5t-4 5t-4.5 4t-5.5 4t-6.5 3t-8 3.5q-19 8 -19 24q0 25 31 25h143q29 0 29 -19q0 -12 -8.5 -19t-19 -9.5t-19 -10t-8.5 -19.5q0 -31 47 -119t120 -191q122 117 190.5 201.5t68.5 109.5
q0 12 -6 18t-19 11q-19 8 -21 16q-1 3 -1 7q0 24 29 24zM363 801q-20 0 -31 14t-11 34q0 24 14.5 44t37.5 20q41 0 41 -44q0 -26 -13.5 -47t-37.5 -21zM559 801q-21 0 -31.5 15t-10.5 37q0 24 17 42t41 18q16 0 26 -13.5t10 -30.5q0 -25 -14 -46.5t-38 -21.5z" />
    <glyph glyph-name="Zcaron" unicode="&#x17d;" horiz-adv-x="580" 
d="M447 0h-402q-27 0 -38 1t-19.5 6.5t-8.5 18.5q0 35 70 121.5t225 254.5q212 229 212 264q0 8 -2.5 11.5t-18 5.5t-49.5 2q-53 0 -81.5 -1.5t-66.5 -6.5t-63.5 -18t-42.5 -35q-18 -24 -33 -24q-14 0 -14 15q0 9 21 87q6 20 14 25t30 5h392q12 0 18 -0.5t11.5 -5.5t5.5 -14
q0 -32 -61 -119t-164 -197q-277 -295 -277 -331q0 -14 35 -14h74q98 0 166 15.5t113 64.5q8 10 19 10q13 0 13 -11q0 -13 -15 -62t-22 -60q-6 -8 -41 -8zM508 898l-126 -114q-16 -9 -37 -9q-22 0 -33 9l-86 114q-21 23 -19 32q2 10 30 10q13 0 19 -0.5t12.5 -4t12.5 -10.5
l60 -74q9 -11 16 -11t18 11l86 74q18 15 50 15h12.5t7.5 -1t5.5 -3t0.5 -6q-1 -7 -29 -32z" />
    <glyph glyph-name="zcaron" unicode="&#x17e;" horiz-adv-x="460" 
d="M325 421h-127q-22 0 -42 -8t-20 -27q0 -4 1 -11.5t1 -11.5q0 -16 -11 -26.5t-27 -10.5q-21 0 -33.5 15.5t-12.5 36.5q0 38 33.5 63.5t106.5 25.5h158q46 0 61 -4t15 -21q0 -40 -145 -178l-73 -70.5t-60.5 -66t-60.5 -81.5h36q185 0 185 46q0 4 -2.5 15t-2.5 15
q0 16 14.5 27t31.5 11q18 0 30 -13t12 -31q0 -50 -43 -83t-125 -33h-205q-26 0 -26 23q0 58 153 208q103 100 131.5 130t46.5 60zM418 648l-126 -114q-16 -9 -37 -9q-22 0 -33 9l-86 114q-21 23 -19 32q2 10 30 10q13 0 19 -0.5t12.5 -4t12.5 -10.5l60 -74q9 -11 16 -11
t18 11l86 74q18 15 50 15h12.5t7.5 -1t5.5 -3t0.5 -6q-1 -7 -29 -32z" />
    <glyph glyph-name="florin" unicode="&#x192;" horiz-adv-x="600" 
d="M402 416l-85 -259q-16 -50 -31 -88.5t-42.5 -91t-57 -87t-72.5 -59t-92 -24.5q-30 0 -53 15t-23 43q0 21 15 37t36 16q14 0 22.5 -9.5t11.5 -21.5t10.5 -21.5t21.5 -9.5q35 0 82 68q42 60 84 186l99 306h-57h-6.5h-7.5t-6.5 0.5t-7 1t-5.5 2.5t-4.5 4t-3 5.5t-1.5 8.5
q0 14 13 23q8 6 39 6h63l27 73q45 130 104 190q66 64 137 64q23 0 41.5 -13t18.5 -35q0 -18 -13.5 -32.5t-31.5 -14.5q-15 0 -30 21q-11 18 -29 18q-61 0 -129 -208l-4 -12l-16 -51h55h3q38 0 38 -20q0 -31 -55 -31h-58z" />
    <glyph glyph-name="circumflex" unicode="&#x2c6;" horiz-adv-x="340" 
d="M84 567l126 114q16 9 37 9q22 0 33 -9l86 -114q21 -23 19 -32q-2 -10 -30 -10q-13 0 -19 0.5t-12.5 4t-12.5 10.5l-60 74q-9 11 -16 11t-18 -11l-86 -74q-18 -15 -50 -15h-12.5t-7.5 1t-5.5 3t-0.5 6q1 7 29 32z" />
    <glyph glyph-name="caron" unicode="&#x2c7;" horiz-adv-x="340" 
d="M368 648l-126 -114q-16 -9 -37 -9q-22 0 -33 9l-86 114q-21 23 -19 32q2 10 30 10q13 0 19 -0.5t12.5 -4t12.5 -10.5l60 -74q9 -11 16 -11t18 11l86 74q18 15 50 15h12.5t7.5 -1t5.5 -3t0.5 -6q-1 -7 -29 -32z" />
    <glyph glyph-name="uni02C9" unicode="&#x2c9;" 
d="M284 587h-174q-1 0 -8 -0.5t-10 0t-8 1.5t-7 4t-2 8l3 15l3 9q4 8 36 8h175q1 0 7.5 0.5t10 0t8 -1.5t7 -4t2.5 -8t-4 -15l-2 -9q-5 -8 -37 -8z" />
    <glyph glyph-name="breve" unicode="&#x2d8;" horiz-adv-x="360" 
d="M100 662q0 12 7 20.5t19 8.5q7 0 14 -11.5t14 -25t29.5 -25t56.5 -11.5q30 0 52.5 11.5t33 25.5t21 25.5t18.5 11.5q23 0 23 -21t-27 -53q-50 -62 -132 -62q-48 0 -88.5 29.5t-40.5 76.5z" />
    <glyph glyph-name="dotaccent" unicode="&#x2d9;" horiz-adv-x="160" 
d="M133 561q-20 0 -31 14t-11 34q0 24 14.5 44t37.5 20q41 0 41 -44q0 -26 -13.5 -47t-37.5 -21z" />
    <glyph glyph-name="ring" unicode="&#x2da;" horiz-adv-x="260" 
d="M183 524q-37 0 -64 27t-27 64q0 40 27.5 67.5t68.5 27.5q37 0 63 -28.5t26 -65.5q0 -39 -27.5 -65.5t-66.5 -26.5zM183 569q19 0 34 13t15 32q0 20 -12.5 35t-32.5 15q-21 0 -35.5 -14t-14.5 -35q0 -19 13.5 -32.5t32.5 -13.5z" />
    <glyph glyph-name="ogonek" unicode="&#x2db;" horiz-adv-x="220" 
d="M27 0h54q-60 -38 -60 -75q0 -17 9 -28t25 -11q15 0 36 11t25 11q8 0 8 -8q0 -10 -10 -18q-26 -28 -73 -28q-28 0 -46.5 17t-18.5 44q0 50 51 85z" />
    <glyph glyph-name="tilde" unicode="&#x2dc;" horiz-adv-x="360" 
d="M305 631q17 0 35 17t25 17q5 0 9 -5t4 -10q0 -11 -25 -40q-40 -45 -68 -45q-23 0 -69 16t-62 16q-17 0 -35 -17t-25 -17q-9 0 -9 11q0 9 12 27.5t22 28.5q29 31 58 31q20 0 67 -15t61 -15z" />
    <glyph glyph-name="hungarumlaut" unicode="&#x2dd;" horiz-adv-x="480" 
d="M137 582l72 68q33 31 51 37q12 3 25.5 -10t17.5 -27q3 -16 -28 -36l-90 -58q-35 -20 -38 -21q-7 -2 -16 5.5t-11 15.5q-3 9 17 26zM320 580l72 68q34 32 50 36q12 3 25.5 -9.5t17.5 -26.5q2 -7 -7 -17.5t-21 -18.5l-90 -58q-32 -20 -38 -21q-7 -2 -16 5.5t-11 15.5
q-2 6 18 26z" />
    <glyph glyph-name="uni03A9" unicode="&#x3a9;" horiz-adv-x="785" 
d="M727 146l-52 -146h-249l-4 20l42 54t55 74t45.5 72t46.5 92.5t25 90.5q27 160 -23 236t-142 76q-96 0 -170 -77.5t-103 -240.5q-4 -23 -5 -46.5t-1.5 -42t3.5 -43.5t6 -39t10 -40t10.5 -35t13.5 -36.5t13 -32l14.5 -33t12.5 -29.5l-12 -20h-248l1 146l25 1
q7 -52 20.5 -67t47.5 -15h116l-26 28.5t-28 34.5t-27 41t-23 47.5t-16 55t-6 62.5t6 70q27 154 133 247.5t241 93.5q138 0 208 -89t43 -242q-10 -55 -35.5 -107t-63.5 -97.5t-70 -77t-74 -67.5h119q35 0 52 14t44 68z" />
    <glyph glyph-name="uni03BC" unicode="&#x3bc;" horiz-adv-x="580" 
d="M385 75v45q-74 -131 -185 -131q-59 0 -95 46v-165q0 -30 -14 -46.5t-37 -16.5q-44 0 -44 47q0 11 5.5 36t26 125.5t46.5 252.5q16 94 16 106q0 13 -7 19.5t-15.5 7t-15.5 4.5t-7 13q0 17 44 37.5t63 20.5q23 0 23 -37q0 -25 -22 -151q-23 -133 -23 -165q0 -33 20 -56
t53 -23q47 0 85 36.5t61 94.5t36 111.5t19 103.5q7 64 9 68q5 9 41 9q37 0 37 -11q0 -6 -1.5 -15.5t-8.5 -48l-16 -92.5q-25 -152 -25 -182q0 -19 8 -29.5t17 -13t17 -6.5t8 -12q0 -14 -36.5 -39.5t-52.5 -25.5q-30 0 -30 83z" />
    <glyph glyph-name="pi" unicode="&#x3c0;" horiz-adv-x="601" 
d="M589 505l22 -10q-19 -51 -53 -89q-23 -4 -75 -4q-10 -38 -51 -260q-16 -98 32 -98q25 0 61 34l10 -20q-51 -71 -119 -71q-44 0 -62.5 29.5t-5.5 105.5q22 117 62 283q-130 2 -177 2l-4 -22q-19 -111 -50.5 -201.5t-52.5 -128t-34 -49.5q-38 -16 -64 -19l-3 17
q65 65 108 180.5t63 223.5q-34 0 -62.5 -7.5t-42.5 -16t-43 -27.5l-11 22l13 12.5t15 14l15.5 13.5t18.5 14.5l19.5 12t24 11l26 8t30.5 6t33 1.5q37 0 133 -2q98 -2 153 -2q25 0 39 7t32 30z" />
    <glyph glyph-name="uni2010" unicode="&#x2010;" horiz-adv-x="260" 
d="M47 314h164q20 0 20 -12q0 -29 -10 -39q-8 -6 -42 -6h-144q-17 0 -17 11q0 12 6 32q3 10 7 12t16 2z" />
    <glyph glyph-name="endash" unicode="&#x2013;" horiz-adv-x="500" 
d="M474 257h-444q-25 0 -25 11q0 6 8 25l3 11q8 10 29 10h472q10 0 15 -0.5t9 -3.5t4 -10t-4 -20t-9 -17q-9 -6 -58 -6z" />
    <glyph glyph-name="emdash" unicode="&#x2014;" horiz-adv-x="1000" 
d="M48 314h969q10 0 15 -0.5t9 -3.5t4 -10t-4 -20t-9 -17q-9 -6 -58 -6h-942q-27 0 -27 11q0 9 7 25l5 11q7 10 31 10z" />
    <glyph glyph-name="quoteleft" unicode="&#x2018;" 
d="M198 620h10q19 0 31 -12.5t12 -30.5q0 -26 -19 -44.5t-45 -18.5q-25 0 -40.5 16t-15.5 41q0 60 57 134q17 21 44.5 46t42.5 25q11 0 11 -12q0 -7 -11 -14q-41 -26 -66 -66q-22 -33 -22 -52q0 -12 11 -12z" />
    <glyph glyph-name="quoteright" unicode="&#x2019;" 
d="M208 639h-10q-19 0 -31 12.5t-12 31.5q0 26 19 44.5t45 18.5q24 0 39.5 -16.5t15.5 -41.5q0 -63 -57 -134q-16 -20 -43.5 -45t-42.5 -25q-12 0 -12 12q0 7 12 13q40 26 66 66q22 33 22 52q0 12 -11 12z" />
    <glyph glyph-name="quotesinglbase" unicode="&#x201a;" 
d="M147 -9l-10 -1q-19 0 -31 12.5t-12 31.5q0 26 19 44.5t45 18.5q24 0 39.5 -16.5t15.5 -40.5q0 -64 -57 -135q-16 -20 -43.5 -45t-42.5 -25q-11 0 -11 12q0 7 11 14q40 25 66 66q22 33 22 51q0 13 -11 13z" />
    <glyph glyph-name="quotedblleft" unicode="&#x201c;" horiz-adv-x="460" 
d="M198 620h10q19 0 31 -12.5t12 -30.5q0 -26 -19 -44.5t-45 -18.5q-25 0 -40.5 16t-15.5 41q0 60 57 134q17 21 44.5 46t42.5 25q11 0 11 -12q0 -7 -11 -14q-41 -26 -66 -66q-22 -33 -22 -52q0 -12 11 -12zM367 621h9q19 0 31 -12.5t12 -31.5q0 -26 -19 -44.5t-45 -18.5
q-24 0 -39.5 16.5t-15.5 41.5q0 63 57 134q16 20 43.5 45t42.5 25q12 0 12 -12q0 -7 -12 -13q-40 -26 -66 -66q-22 -33 -22 -52q0 -12 12 -12z" />
    <glyph glyph-name="quotedblright" unicode="&#x201d;" horiz-adv-x="460" 
d="M208 639h-10q-19 0 -31 12.5t-12 31.5q0 26 19 44.5t45 18.5q24 0 39.5 -16.5t15.5 -41.5q0 -63 -57 -134q-16 -20 -43.5 -45t-42.5 -25q-12 0 -12 12q0 7 12 13q40 26 66 66q22 33 22 52q0 12 -11 12zM376 639l-10 -1q-18 0 -30.5 12.5t-12.5 31.5q0 26 19 44.5t45 18.5
q25 0 40.5 -16.5t15.5 -40.5q0 -61 -57 -135q-15 -20 -43.5 -45t-43.5 -25q-11 0 -11 12q0 5 11 14q38 23 67 66q21 36 21 51q0 13 -11 13z" />
    <glyph glyph-name="quotedblbase" unicode="&#x201e;" horiz-adv-x="460" 
d="M99 -9l-10 -1q-18 0 -30.5 12.5t-12.5 31.5q0 26 19 44.5t45 18.5q25 0 40.5 -16.5t15.5 -40.5q0 -61 -57 -135q-15 -20 -43.5 -45t-43.5 -25q-11 0 -11 12q0 5 11 14q39 23 66 66q22 33 22 51q0 13 -11 13zM268 -10h-10q-19 0 -31 12.5t-12 30.5q0 26 19 45t45 19
q24 0 39.5 -16.5t15.5 -41.5q0 -63 -57 -134q-16 -20 -43.5 -45.5t-42.5 -25.5q-11 0 -11 12q0 8 11 14q40 26 66 66q22 33 22 52q0 12 -11 12z" />
    <glyph glyph-name="dagger" unicode="&#x2020;" horiz-adv-x="520" 
d="M280 466l-65 -487q0 -2 -1.5 -14t-2 -15.5t-3 -13t-4.5 -13.5t-6 -10.5t-9.5 -9t-13 -5t-16.5 -2.5q-20 0 -32.5 13t-12.5 33q0 9 4 31l101 493l-116 -18q-28 -4 -41 -4q-19 0 -30.5 11t-11.5 30q0 45 57 45h22l129 -11l11 172q2 22 13.5 39t32.5 17q44 0 44 -48
q0 -18 -7 -41l-34 -139l152 12q20 0 32.5 -13t12.5 -33q0 -19 -14 -29t-34 -10l-25 2z" />
    <glyph glyph-name="daggerdbl" unicode="&#x2021;" horiz-adv-x="580" 
d="M319 521l129 9q16 1 32 1t28 -9.5t12 -29.5q0 -19 -13.5 -29t-33.5 -10l-26 2l-137 12q-8 -140 -43 -271l120 7q13 2 26 1t24 -4.5t18 -13.5t7 -26q0 -19 -12 -31t-32 -12l-28 2l-133 21l-12 -168q-2 -22 -4.5 -33.5t-13.5 -24.5t-30 -13q-20 0 -32 12.5t-12 32.5
q0 11 6 39l36 155l-153 -17q-19 0 -30.5 11t-11.5 30q0 46 72 41l134 -9q12 135 47 271l-128 -12q-68 -5 -68 39q0 21 12 33t32 12l32 -3l124 -10l10 146q1 22 4 35.5t15 26.5t32 13q19 0 30.5 -12.5t11.5 -31.5q0 -17 -8 -51z" />
    <glyph glyph-name="bullet" unicode="&#x2022;" horiz-adv-x="460" 
d="M218 170q-62 0 -100 41.5t-38 104.5q0 82 55 138.5t136 56.5q58 0 94 -43t36 -101q0 -81 -51.5 -139t-131.5 -58z" />
    <glyph glyph-name="ellipsis" unicode="&#x2026;" horiz-adv-x="1000" 
d="M167 -8q-20 0 -32 13.5t-12 33.5q0 27 17.5 45.5t44.5 18.5q18 0 30 -14t12 -33q0 -26 -17 -45t-43 -19zM500 -8q-20 0 -32.5 13.5t-12.5 33.5q0 27 17.5 45.5t44.5 18.5q19 0 30.5 -14t11.5 -33q0 -26 -16.5 -45t-42.5 -19zM833 -8q-20 0 -32 13.5t-12 33.5
q0 27 17.5 45.5t44.5 18.5q18 0 30 -14t12 -33q0 -26 -17 -45t-43 -19z" />
    <glyph glyph-name="perthousand" unicode="&#x2030;" horiz-adv-x="1300" 
d="M258 436q52 0 90.5 48.5t38.5 123.5q0 92 -83 92q-53 0 -89 -44t-36 -124q0 -37 18 -66.5t61 -29.5zM171 24l512 668q-63 -22 -137 -22q-66 0 -112 15q26 -29 26 -85q0 -78 -65.5 -145t-146.5 -67q-65 0 -103.5 45t-38.5 101q0 95 67 154.5t142 59.5q25 0 63 -8
q4 -1 34.5 -7.5t45 -9t42 -5.5t52.5 -3q86 0 165 27q27 8 41 8q17 0 17 -10q0 -8 -12 -23l-535 -697q-1 -2 -6 -8t-6 -7.5t-5 -6t-6.5 -6l-6.5 -4t-8 -3t-9 -0.5q-24 0 -24 9q0 8 14 30zM610 -16q-65 0 -103.5 44.5t-38.5 99.5q0 96 67 156t142 60q65 0 105 -45.5t40 -102.5
q0 -89 -68 -150.5t-144 -61.5zM620 32q52 0 90.5 48.5t38.5 123.5q0 92 -83 92q-53 0 -89 -44t-36 -124q0 -37 18 -66.5t61 -29.5zM1030 -16q-65 0 -103.5 44.5t-38.5 99.5q0 96 67 156t142 60q65 0 105 -45.5t40 -102.5q0 -89 -68 -150.5t-144 -61.5zM1040 32
q52 0 90.5 48.5t38.5 123.5q0 92 -83 92q-53 0 -89 -44t-36 -124q0 -36 18 -66t61 -30z" />
    <glyph glyph-name="guilsinglleft" unicode="&#x2039;" horiz-adv-x="200" 
d="M181 384l-75 -88q-27 -31 -11 -62l45 -88q12 -24 12 -38q0 -8 -32 -8q-23 0 -33 22l-56 108q-6 12 -6 30q0 17 19 40l92 108q19 22 40 22q31 0 31 -8q0 -5 -3.5 -11t-12.5 -16t-10 -11z" />
    <glyph glyph-name="guilsinglright" unicode="&#x203a;" horiz-adv-x="200" 
d="M0 146l75 88q27 31 11 62l-45 88q-12 24 -12 38q0 8 32 8q23 0 33 -22l56 -108q6 -12 6 -30q0 -17 -19 -40l-92 -108q-19 -22 -40 -22q-31 0 -31 8q0 5 3.5 11t12.5 16t10 11z" />
    <glyph glyph-name="fraction" unicode="&#x2044;" horiz-adv-x="160" 
d="M-162 68l477 652q13 18 17.5 23.5t11 9.5t14.5 4q35 0 35 -10q0 -6 -28 -45l-495 -676q-11 -16 -19 -21t-26 -5q-26 0 -26 11q0 4 39 57z" />
    <glyph glyph-name="Euro" unicode="&#x20ac;" horiz-adv-x="600" 
d="M466 325q0 -20 -11 -26t-34 -6h-210v-16q0 -241 141 -241q101 0 168 109q13 21 25 21q17 0 21 -7t4 -21q0 -18 -21 -46.5t-41 -45.5q-71 -61 -170 -61q-104 0 -163 84q-56 81 -56 224h-60q-21 0 -28.5 3.5t-7.5 14.5q0 18 9 23.5t29 5.5h60q4 46 9 67h-68q-14 0 -19 4.5
t-5 16.5q0 27 32 27h72q38 127 117.5 209.5t199.5 82.5q86 0 139 -42q1 -1 6 -5t7.5 -5.5t6.5 -5.5t6.5 -7.5t5 -8t3.5 -10t1 -11.5q0 -2 -6 -50q0 -1 -2.5 -19.5t-4.5 -28.5q-7 -29 -24 -29q-23 0 -27 33q-6 69 -35.5 103.5t-89.5 34.5q-54 0 -100.5 -44t-70.5 -94.5
t-38 -102.5h230q25 0 25 -14q0 -19 -10.5 -26.5t-39.5 -7.5h-216q-10 -55 -11 -67h223q29 0 29 -15z" />
    <glyph glyph-name="afii61289" unicode="&#x2113;" horiz-adv-x="430" 
d="M367 119l16 -17q-81 -115 -192 -115q-71 0 -97 42q-29 46 -9 154l16 91l-74 -50l-9 23l89 64l23 134q24 137 45 194t62 96q47 47 95 47q45 0 61.5 -40t6.5 -100q-15 -88 -70 -164.5t-143 -153.5l-18 -101q-18 -102 -0.5 -142t66.5 -40q66 0 132 78zM219 510l-24 -140
q58 57 100.5 129.5t54.5 141.5q9 47 0.5 78t-33.5 31q-31 0 -53 -54.5t-45 -185.5z" />
    <glyph glyph-name="trademark" unicode="&#x2122;" horiz-adv-x="820" 
d="M282 693l-44 -279q-7 -56 -7 -61q0 -6 5.5 -9t11.5 -4t11.5 -6.5t5.5 -15.5q0 -11 -6.5 -16.5t-12.5 -6.5t-18 -1h-88q-25 0 -25 21q0 23 24 29q17 6 20 13q1 2 2 6l13 78l40 252h-13q-27 0 -36 -0.5t-24 -4.5t-25 -14t-23 -28q-12 -16 -23 -16q-20 0 -20 24q0 3 11 43
q1 3 3.5 12l4 14t5.5 11.5t9.5 9.5t12.5 3h296q30 0 37 -7q8 -9 8 -61l1 -10q0 -10 -0.5 -13.5t-2.5 -10.5t-6.5 -10t-11.5 -3q-15 0 -23 20q-13 27 -27 33q-18 8 -65 8h-20zM429 403l45 240l5 31q0 2 1 7t1 8q0 6 -13 13t-13 21q0 24 27 24h76q5 0 8 -0.5t5.5 -2.5t4 -3
t2 -5t1 -5.5t1 -7.5t0.5 -8q13 -121 48 -219q1 1 25.5 43.5l54 96.5t39.5 78q3 7 5.5 12t4.5 8.5t5.5 6t4.5 4t5.5 2t5 0.5h7h7.5h42q11 0 17.5 -1t12 -6.5t5.5 -15.5q0 -17 -20 -27q-12 -5 -14 -10q-3 -7 -7 -39l-7 -48l-31 -249q0 -7 7 -11q15 -8 15 -22q0 -9 -3 -14.5
t-11 -7.5t-11 -2h-14h-52q-42 0 -42 22q0 19 25 27q6 2 9.5 4t5.5 5.5t2.5 5.5t1.5 9t2 11l36 252l-85 -149l-28 -43q-24 -32 -37 -35q-8 0 -15 6t-12 16.5t-8 19t-6.5 21t-4.5 14.5l-39 165l-47 -266l-2 -22q0 -11 19 -17t19 -23q0 -23 -23 -23h-77q-25 0 -25 23
q0 15 18 25q5 3 8 8t5.5 13t3.5 13t2.5 15t1.5 12z" />
    <glyph glyph-name="Omega" unicode="&#x2126;" horiz-adv-x="785" 
d="M727 146l-52 -146h-249l-4 20l42 54t55 74t45.5 72t46.5 92.5t25 90.5q27 160 -23 236t-142 76q-96 0 -170 -77.5t-103 -240.5q-4 -23 -5 -46.5t-1.5 -42t3.5 -43.5t6 -39t10 -40t10.5 -35t13.5 -36.5t13 -32l14.5 -33t12.5 -29.5l-12 -20h-248l1 146l25 1
q7 -52 20.5 -67t47.5 -15h116l-26 28.5t-28 34.5t-27 41t-23 47.5t-16 55t-6 62.5t6 70q27 154 133 247.5t241 93.5q138 0 208 -89t43 -242q-10 -55 -35.5 -107t-63.5 -97.5t-70 -77t-74 -67.5h119q35 0 52 14t44 68z" />
    <glyph glyph-name="estimated" unicode="&#x212e;" horiz-adv-x="1002" 
d="M966 355h-684q-6 0 -6 -5v-207q0 -12 9 -23q110 -113 259 -113q80 0 150.5 33.5t121.5 92.5h61q-57 -68 -145.5 -107.5t-188.5 -39.5q-175 0 -298.5 111t-123.5 268t123.5 268.5t298.5 111.5t299 -111t124 -269v-10zM811 382v208q0 13 -10 25q-111 108 -257 108
q-148 0 -258 -112q-10 -10 -10 -25v-204q0 -7 6 -7h524q5 0 5 7z" />
    <glyph glyph-name="partialdiff" unicode="&#x2202;" horiz-adv-x="563" 
d="M315 459h1q40 0 78 -20.5t57 -58.5q19 68 28 112q18 91 1 171q-10 43 -44.5 76.5t-82.5 33.5q-72 0 -156 -59q-13 -2 -21 20.5t2 39.5q77 45 158 45q139 0 190 -151q35 -98 9 -246q-29 -162 -98 -271q-105 -164 -244 -164q-88 0 -131 58t-25 158q18 101 93 176
q37 35 86.5 57.5t98.5 22.5zM329 419h-1q-75 0 -134 -63q-60 -72 -82 -192q-11 -61 12 -103t74 -42q77 0 148 111q48 74 90 206q-7 28 -36.5 55.5t-70.5 27.5z" />
    <glyph glyph-name="uni2206" unicode="&#x2206;" horiz-adv-x="675" 
d="M591 0h-599l4 23l402 711l39 11l158 -722zM498 46l-123 578l-322 -578h445z" />
    <glyph glyph-name="product" unicode="&#x220f;" horiz-adv-x="808" 
d="M779 736v-26q-68 -5 -82.5 -15.5t-14.5 -52.5v-629q0 -49 15 -62t80 -18v-25h-266v25q64 5 77.5 16.5t13.5 63.5v656q0 22 -6.5 28t-30.5 6h-239q-23 0 -29 -5.5t-6 -24.5v-660q0 -50 11.5 -62t71.5 -18v-25h-257v25q64 5 78.5 17.5t14.5 62.5v629q0 42 -14.5 52.5
t-82.5 15.5v26h666z" />
    <glyph glyph-name="summation" unicode="&#x2211;" horiz-adv-x="673" 
d="M648 98l-46 -193h-488v23l243 376l-237 408v24h482q0 -8 2.5 -35l6 -66t5.5 -68l-27 -5q-13 76 -35 109q-10 19 -31.5 26t-79.5 7h-219l205 -349l-241 -379h285q31 0 47 2t31.5 7.5t25.5 21.5t20 37.5t24 61.5z" />
    <glyph glyph-name="minus" unicode="&#x2212;" horiz-adv-x="660" 
d="M73 229v63h521v-63h-521z" />
    <glyph glyph-name="uni2215" unicode="&#x2215;" horiz-adv-x="160" 
d="M-162 68l477 652q13 18 17.5 23.5t11 9.5t14.5 4q35 0 35 -10q0 -6 -28 -45l-495 -676q-11 -16 -19 -21t-26 -5q-26 0 -26 11q0 4 39 57z" />
    <glyph glyph-name="uni2219" unicode="&#x2219;" 
d="M130 187q-20 0 -32 13.5t-12 33.5q0 27 17.5 45.5t44.5 18.5q19 0 30.5 -14t11.5 -33q0 -26 -17 -45t-43 -19z" />
    <glyph glyph-name="radical" unicode="&#x221a;" horiz-adv-x="670" 
d="M651 947l-175 -1099l-20 -12l-234 588l-93 -46l-11 33l158 76l187 -482h2l147 952z" />
    <glyph glyph-name="infinity" unicode="&#x221e;" horiz-adv-x="840" 
d="M788 305v-1q0 -74 -47.5 -120.5t-111.5 -46.5q-47 0 -90.5 29t-99.5 94q-51 -60 -94.5 -91.5t-100.5 -31.5q-64 0 -110 47t-46 116q0 72 46 119t117 47q53 0 98 -32t94 -90l32.5 36t31.5 30.5t39 30.5t40 16.5t50 8.5q67 0 109.5 -45t42.5 -116zM251 189h1q13 0 26 3
t27 11.5l23 14t23.5 19.5l19.5 19l21 22t18 20q-26 32 -36.5 44t-34 34.5t-46 31t-48.5 8.5q-47 0 -75 -34t-27 -83q0 -46 30.5 -78t77.5 -32zM630 416h-1q-24 0 -50.5 -14.5t-39.5 -26t-40.5 -41t-28.5 -31.5q57 -64 90.5 -89t71.5 -25q46 0 73.5 34t27.5 77
q0 53 -28.5 84.5t-74.5 31.5z" />
    <glyph glyph-name="integral" unicode="&#x222b;" horiz-adv-x="476" 
d="M257 22l-20 440q-21 438 155 438q22 0 41 -12t20 -34q0 -19 -12.5 -30t-30.5 -11q-17 0 -29.5 22.5t-24.5 22.5q-14 0 -25 -13.5t-19 -57t-5 -113.5l20 -412q6 -140 -4 -236.5t-34 -145t-52.5 -68t-65.5 -19.5q-27 0 -44 14t-17 33q-1 19 14 32t35 13q12 0 20 -11.5
t15 -23.5t17 -12q25 0 38 50.5t8 133.5z" />
    <glyph glyph-name="approxequal" unicode="&#x2248;" horiz-adv-x="614" 
d="M533 453l35 -30q-52 -99 -135 -99q-30 0 -54.5 9.5t-65.5 32.5q-57 35 -96 35q-53 0 -102 -76l-36 29q24 46 62 73t83 27q12 0 24.5 -2.5t21 -5t20.5 -8t17 -8t17.5 -10t14.5 -8.5q5 -3 17 -9.5l16.5 -9t14.5 -7t16 -6t14.5 -3t17.5 -1.5q29 0 52 19t46 58zM533 276
l35 -31q-52 -99 -135 -99q-20 0 -41 6t-35 13l-44 23q-61 36 -95 36q-33 0 -56.5 -20.5t-46.5 -57.5l-36 30q24 46 62 73t83 27q18 0 36.5 -5t28 -9t28.5 -15t22 -12q3 -2 13.5 -8l14 -8t12 -6.5t13.5 -6l13 -4t15 -3.5t15 -1q30 0 52 19t46 59z" />
    <glyph glyph-name="notequal" unicode="&#x2260;" horiz-adv-x="630" 
d="M465 527l-46 -100h159v-54h-181l-68 -150h249v-53h-271l-55 -122l-43 19l46 103h-153v53h176l67 150h-243v54h265l54 119z" />
    <glyph glyph-name="lessequal" unicode="&#x2264;" horiz-adv-x="645" 
d="M590 105l-467 234v57l467 232v-64l-409 -195v-2l409 -198v-64zM593 8h-475v55h475v-55z" />
    <glyph glyph-name="greaterequal" unicode="&#x2265;" horiz-adv-x="645" 
d="M124 628l467 -233v-57l-467 -233v64l409 197v2l-409 196v64zM592 8h-474v55h474v-55z" />
    <glyph glyph-name="lozenge" unicode="&#x25ca;" horiz-adv-x="678" 
d="M626 355l-213 -429h-62l-213 429l214 432h62zM565 355l-180 371h-4l-181 -370l182 -372h3z" />
    <glyph glyph-name="fi" unicode="&#xfb01;" horiz-adv-x="640" 
d="M166 415h-50q-13 0 -18.5 3t-5.5 15q0 23 9.5 28.5t36.5 5.5h36q27 158 83.5 224t167.5 66q47 0 93.5 -31t46.5 -88q0 -43 -40 -43q-42 0 -60 58q-16 57 -72 57q-66 0 -94 -55t-47 -188h178q13 0 58 6q7 1 16.5 2t11.5 1q27 0 27 -31q0 -8 -26 -168q-29 -175 -29 -183
q0 -15 7 -20t23 -6q26 -2 26 -19q0 -14 -23 -27q-14 -8 -41.5 -19t-38.5 -11q-33 0 -33 51q0 20 25 166q22 126 22 155q0 24 -10.5 35.5t-23 13.5t-38.5 2h-140l-43 -270q-54 -338 -205 -338q-39 0 -39 34q0 18 13.5 30.5t31.5 12.5q11 0 22 -5t16 -5q21 0 40 54
q20 60 43 207z" />
    <glyph glyph-name="fl" unicode="&#xfb02;" horiz-adv-x="620" 
d="M584 676l-85 -493q-10 -60 -10 -86q0 -14 5.5 -21.5t12 -8.5t12 -5t5.5 -11q0 -18 -42 -38.5t-62 -20.5q-17 0 -17 26q0 12 4 36l88 525q7 46 7 61q0 31 -35.5 50.5t-71.5 19.5q-28 0 -48 -8.5t-39 -33.5t-32.5 -74.5t-24.5 -126.5h49q21 0 29 -1t13.5 -5.5t5.5 -15.5
q0 -14 -9.5 -21t-18.5 -8t-26 -1h-51l-45 -289q-14 -89 -38 -154t-46 -95.5t-50 -47.5t-41.5 -19.5t-29.5 -2.5t-27 10t-11 25q0 18 13.5 30.5t31.5 12.5q7 0 20 -6t20 -6q43 0 84 275l44 267h-49q-15 0 -20.5 4.5t-5.5 15.5q0 19 9.5 25.5t27.5 6.5h47q22 143 70.5 216.5
t137.5 73.5q68 0 117 -26q23 13 33 17q22 9 34 9q9 0 16.5 -6.5t7.5 -16.5q0 -7 -9 -58z" />
    <glyph glyph-name="a.superior" horiz-adv-x="400" 
d="M276 500q-24 -27 -46 -40t-52 -13q-50 0 -80 34t-30 85q0 70 48.5 125.5t117.5 55.5q40 0 78 -32q31 33 45 33q16 0 16 -15q0 -2 -1 -6.5t-2.5 -13t-2.5 -17.5q-27 -162 -27 -176q0 -11 17.5 -13.5t17.5 -15.5q0 -10 -30 -26q-36 -18 -46 -18q-23 0 -23 53zM191 497
q41 0 72 49.5t31 93.5q0 28 -17.5 45t-45.5 17q-46 0 -73 -42.5t-27 -90.5q0 -30 15.5 -51t44.5 -21z" />
    <glyph glyph-name="o.superior" horiz-adv-x="400" 
d="M198 448q-62 0 -100.5 35t-38.5 96q0 69 49 119t130 50q62 0 103.5 -35.5t41.5 -96.5q0 -36 -17.5 -73t-61.5 -66t-106 -29zM201 494q53 0 83.5 37.5t30.5 91.5q0 35 -21.5 58t-56.5 23q-50 0 -80.5 -37t-30.5 -91q0 -37 19 -59.5t56 -22.5z" />
    <glyph glyph-name="one.superior" horiz-adv-x="360" 
d="M311 303h-206q-14 0 -19 3t-5 13q0 20 41 23q27 1 40.5 7t21.5 26q7 17 20 87q34 181 34 194q0 17 -36 17h-47q-21 0 -21 18q0 10 9.5 14t35.5 7q35 4 53.5 8.5t26.5 8t28 15.5q21 13 28 13q17 0 17 -13q0 -4 -3 -16t-11.5 -53.5t-19.5 -101.5q-36 -183 -36 -203
q0 -11 7.5 -17t14.5 -7t21 -2q38 -2 38 -21q0 -20 -32 -20z" />
    <glyph glyph-name="two.superior" horiz-adv-x="360" 
d="M322 299h-242q-10 0 -14.5 0.5t-9 6t-4.5 15.5q0 20 47 75t128 119q2 2 17.5 13.5t20.5 15.5t19 16t20 18.5l16 18t14.5 20.5t8.5 20t4 22q0 49 -73 49q-38 0 -60.5 -22t-22.5 -44q0 -5 6 -16.5t6 -17.5q0 -18 -14.5 -28t-33.5 -10q-36 0 -36 46q0 48 53 89.5t128 41.5
q60 0 92 -27.5t32 -64.5q0 -78 -139 -168q-73 -49 -104.5 -76t-48.5 -57h112q45 0 62.5 7.5t41.5 33.5q15 11 21 11q14 0 14 -12q0 -5 -1.5 -10t-4 -9.5t-10 -19t-14.5 -29.5q-9 -20 -14 -23.5t-17 -3.5z" />
    <glyph glyph-name="three.superior" horiz-adv-x="360" 
d="M197 510h-22q-19 0 -19 20q0 11 7 16.5t25 6.5q77 6 108 34.5t31 65.5q0 24 -19.5 39.5t-49.5 15.5t-43.5 -11t-13.5 -25q0 -5 1 -16t1 -16q0 -11 -13.5 -19.5t-35.5 -8.5q-15 0 -24.5 11t-9.5 32q0 34 45.5 63t110.5 29q54 0 91.5 -23t37.5 -70q0 -44 -39.5 -76
t-90.5 -43q47 -2 76.5 -28t29.5 -71q0 -56 -54 -101t-143 -45q-53 0 -94.5 20.5t-41.5 65.5q0 62 42 62q15 0 25.5 -6.5t10.5 -17.5q0 -9 -4 -23.5t-4 -18.5q0 -20 24 -31.5t56 -11.5q41 0 72 30t31 77q0 12 -3.5 22.5t-13 23.5t-32 20.5t-55.5 7.5z" />
    </font>
</defs>
</svg>
