<?xml version="1.0" standalone="no"?>
<!DOCTYPE svg PUBLIC "-//W3C//DTD SVG 1.1//EN" "http://www.w3.org/Graphics/SVG/1.1/DTD/svg11.dtd" >
<svg>
<metadata>
Created by FontForge 20090622 at Fri Jan 19 15:35:22 2018
 By deploy user
&#194;&#169; 1989, 1990, 2001, 2002 Adobe Systems Incorporated. All rights reserved.
</metadata>
<defs>
<font id="SouvenirStd-Medium" horiz-adv-x="640" >
  <font-face 
    font-family="ITC Souvenir Std Medium"
    font-weight="500"
    font-stretch="normal"
    units-per-em="1000"
    panose-1="2 8 7 3 5 5 10 2 2 4"
    ascent="762"
    descent="-238"
    x-height="478"
    cap-height="732"
    bbox="-167 -225 1018 966"
    underline-thickness="50"
    underline-position="-50"
    unicode-range="U+0020-U+FB02"
  />
<missing-glyph horiz-adv-x="500" 
d="M0 0v700h500v-700h-500zM250 395l170 255h-340zM280 350l170 -255v510zM80 50h340l-170 255zM50 605v-510l170 255z" />
    <glyph glyph-name="f_i" unicode="fi" horiz-adv-x="590" 
d="M92 100v314h-34q-38 0 -38 32t38 32h35v44q0 127 62 187.5t173 60.5q94 0 150 -40.5t56 -111.5q0 -29 -21 -46.5t-55 -17.5q-33 0 -55.5 19t-22.5 45q0 7 3 19.5t3 18.5q0 17 -20.5 28.5t-51.5 11.5q-49 0 -71.5 -25t-22.5 -81v-112h271q19 0 27.5 -11t8.5 -37v-331
q0 -22 7.5 -33.5t16 -13.5t16 -8t7.5 -18q0 -26 -37 -26h-150q-37 0 -37 26q0 12 7.5 18t16 8t16 13.5t7.5 33.5v249q0 39 -11.5 52.5t-41.5 13.5h-122v-314q0 -22 7.5 -33.5t16 -13.5t16 -8t7.5 -18q0 -27 -37 -27h-150q-37 0 -37 27q0 12 7.5 18t16 8t16 13.5t7.5 33.5z
" />
    <glyph glyph-name="f_l" unicode="fl" horiz-adv-x="610" 
d="M92 100v314h-34q-38 0 -38 32t38 32h35v36q0 139 47 197.5t154 58.5q80 0 132 -28q26 10 43 15q23 5 40 5q22 0 29 -15t7 -51v-596q0 -22 7.5 -33.5t16 -13.5t16 -8t7.5 -18q0 -27 -37 -27h-150q-37 0 -37 27q0 12 7.5 18t16 8t16 13.5t7.5 33.5v508q0 37 -30 62.5
t-77 25.5q-43 0 -65.5 -26t-22.5 -89v-103h67q38 0 38 -32t-38 -32h-65v-314q0 -22 7.5 -33.5t16 -13.5t16 -8t7.5 -18q0 -27 -37 -27h-150q-37 0 -37 27q0 12 7.5 18t16 8t16 13.5t7.5 33.5z" />
    <glyph glyph-name=".notdef" horiz-adv-x="500" 
d="M0 0v700h500v-700h-500zM250 395l170 255h-340zM280 350l170 -255v510zM80 50h340l-170 255zM50 605v-510l170 255z" />
    <glyph glyph-name=".null" horiz-adv-x="0" 
 />
    <glyph glyph-name="nonmarkingreturn" horiz-adv-x="333" 
 />
    <glyph glyph-name="space" unicode=" " horiz-adv-x="320" 
 />
    <glyph glyph-name="exclam" unicode="!" horiz-adv-x="330" 
d="M130 249l-45 402q-5 37 -5 43q0 33 27 48.5t58 15.5t58 -15.5t27 -48.5q0 -6 -5 -43l-45 -402q-4 -34 -10.5 -45.5t-24.5 -11.5t-24.5 11.5t-10.5 45.5zM165 -10q-32 0 -56 19.5t-24 50.5q0 30 24 50t56 20t56 -20t24 -50q0 -31 -24 -50.5t-56 -19.5z" />
    <glyph glyph-name="quotedbl" unicode="&#x22;" horiz-adv-x="333" 
d="M63 463l-18 204q0 3 -0.5 11t-0.5 13q0 57 41 57t41 -57q0 -5 -0.5 -13t-0.5 -11l-18 -204q-3 -31 -22 -31t-22 31zM226 463l-18 204q0 3 -0.5 11t-0.5 13q0 57 41 57t41 -57q0 -5 -0.5 -13t-0.5 -11l-18 -204q-3 -31 -22 -31t-22 31z" />
    <glyph glyph-name="numbersign" unicode="#" 
d="M361 328l14 96h-87l-14 -96h87zM461 424l-14 -96h113v-72h-123l-36 -256h-86l36 256h-87l-36 -256h-86l36 256h-124v72h134l14 96h-124v72h134l34 236h86l-34 -236h87l34 236h86l-34 -236h115v-72h-125z" />
    <glyph glyph-name="dollar" unicode="$" 
d="M351 685v-246l48 -19.5t43.5 -20t43.5 -24t34 -28t30 -36.5t16.5 -43t7.5 -54q0 -51 -23 -93.5t-58 -67.5t-72.5 -38.5t-69.5 -12.5v-75q0 -21 -6 -28.5t-22 -7.5t-22 7.5t-6 28.5v73q-84 0 -156 52t-72 116q0 19 13.5 28.5t33.5 9.5q19 0 28.5 -8.5t16.5 -27.5
q23 -66 46 -86.5t90 -25.5v276q-45 15 -77.5 31t-65 40.5t-50 60.5t-17.5 81q0 81 63.5 135.5t146.5 57.5v70q0 21 6 28.5t22 7.5t22 -7.5t6 -28.5v-70q66 -4 124.5 -39.5t58.5 -94.5q0 -21 -14 -35.5t-35 -14.5q-26 0 -35.5 11t-10 28.5t-3 35t-23 33t-62.5 21.5zM295 462
v220q-44 -2 -75 -30.5t-31 -72.5q0 -45 28 -71t78 -46zM351 309v-251q50 3 83.5 36t33.5 84q0 50 -30.5 78t-86.5 53z" />
    <glyph glyph-name="percent" unicode="%" horiz-adv-x="880" 
d="M242 706q-30 0 -44.5 -29.5t-14.5 -103.5t14.5 -103.5t44.5 -29.5t44.5 29.5t14.5 103.5t-14.5 103.5t-44.5 29.5zM242 748q81 0 129.5 -49t47.5 -126q1 -77 -47.5 -126t-129.5 -49t-129.5 49t-47.5 126q-1 77 47.5 126t129.5 49zM667 712l-391 -698q-13 -22 -20 -26
q-9 -4 -29 -4q-27 0 -27 9q0 1 13 27l391 698q13 22 20 26q9 4 29 4q27 0 27 -9q0 -1 -13 -27zM637 300q-30 0 -44.5 -29.5t-14.5 -103.5t14.5 -103.5t44.5 -29.5t44.5 29.5t14.5 103.5t-14.5 103.5t-44.5 29.5zM637 342q81 0 129.5 -49t47.5 -126q1 -77 -47.5 -126
t-129.5 -49t-129.5 49t-47.5 126q-1 77 47.5 126t129.5 49z" />
    <glyph glyph-name="ampersand" unicode="&#x26;" horiz-adv-x="820" 
d="M356 404l177 -214q73 86 73 137q0 15 -10 25t-21.5 13t-21.5 10.5t-10 18.5q0 28 42 28h153q42 0 42 -28q0 -14 -7 -20t-17 -7.5t-25.5 -12t-28.5 -32.5q-57 -89 -124 -180q70 -72 155 -72q13 0 33.5 4.5t29.5 4.5t16 -7t7 -16q0 -30 -50 -49t-98 -19q-55 0 -99.5 18.5
t-92.5 57.5q-102 -80 -220 -80q-95 0 -168 52t-73 143q0 134 171 219q-68 89 -68 164q0 89 66.5 137.5t159.5 48.5q79 0 137.5 -38.5t58.5 -112.5q0 -108 -187 -193zM427 110l-196 234q-89 -57 -89 -138q0 -66 41 -106t108 -40q63 0 136 50zM245 603q0 -57 68 -143
q122 64 122 132q0 96 -99 96q-35 0 -63 -23.5t-28 -61.5z" />
    <glyph glyph-name="quotesingle" unicode="'" horiz-adv-x="222" 
d="M89 463l-18 204q0 3 -0.5 11t-0.5 13q0 57 41 57t41 -57q0 -5 -0.5 -13t-0.5 -11l-18 -204q-3 -31 -22 -31t-22 31z" />
    <glyph glyph-name="parenleft" unicode="(" horiz-adv-x="290" 
d="M240 -192q-25 0 -59.5 42t-66 107t-53 153.5t-21.5 171.5q0 85 23.5 173.5t57 150.5t68 102t57.5 40q35 0 35 -22q0 -10 -17.5 -50.5l-38 -91t-38 -132.5t-17.5 -164q0 -93 17 -179.5t37 -136.5l37 -90t17 -51q0 -23 -38 -23z" />
    <glyph glyph-name="parenright" unicode=")" horiz-adv-x="290" 
d="M50 -192q-38 0 -38 23q0 11 17 51l37 90t37 136.5t17 179.5q0 82 -17.5 164t-38 132.5l-38 91t-17.5 50.5q0 22 35 22q23 0 57.5 -40t68 -102t57 -150.5t23.5 -173.5q0 -83 -21.5 -171.5t-53 -153.5t-66 -107t-59.5 -42z" />
    <glyph glyph-name="asterisk" unicode="*" horiz-adv-x="380" 
d="M228 453q0 -17 -10.5 -28t-27.5 -11t-27.5 11t-10.5 28q0 12 17 52t17 52q0 9 -5 9q-2 0 -4.5 -0.5t-5 -2t-4.5 -3t-5 -4.5l-5 -5t-5.5 -6t-5.5 -6.5t-6 -7t-6 -6.5q-37 -43 -59 -43q-15 0 -26 10.5t-11 25.5q0 22 21 33t46 12t46 5t21 14t-21 14t-46 5t-46 12t-21 33
q0 15 11 25.5t26 10.5q22 0 59 -43q4 -4 10.5 -12l10 -12.5t8.5 -9.5t9 -7t7 -2q5 0 5 9q0 12 -17 52t-17 52q0 17 11 28t31 11q17 0 27.5 -11t10.5 -28q0 -12 -17 -52t-17 -52q0 -9 5 -9q11 0 39 36q40 50 65 50q15 0 26 -10.5t11 -25.5q0 -22 -21 -33t-46 -12t-46 -5
t-21 -14t21 -14t46 -5t46 -12t21 -33q0 -15 -11 -25.5t-26 -10.5q-18 0 -39 21.5t-39 42.5t-28 20q-5 0 -5 -9q0 -12 17 -52t17 -52z" />
    <glyph glyph-name="plus" unicode="+" horiz-adv-x="600" 
d="M539 284v-90h-194v-194h-90v194h-194v90h194v194h90v-194h194z" />
    <glyph glyph-name="comma" unicode="," horiz-adv-x="320" 
d="M244 29q0 -65 -48.5 -123.5t-74.5 -58.5q-7 0 -14 5.5t-7 12.5q0 5 17 21.5t35 46t21 67.5q-10 -2 -14 -3q-3 0 -8 -0.5t-7 -0.5q-29 0 -48.5 18.5t-19.5 48.5t24.5 48.5t56.5 18.5q42 0 64.5 -29t22.5 -72z" />
    <glyph glyph-name="hyphen" unicode="-" horiz-adv-x="320" 
d="M271 191h-222q-29 0 -29 48t29 48h222q29 0 29 -48t-29 -48z" />
    <glyph glyph-name="period" unicode="." horiz-adv-x="320" 
d="M160 -10q-32 0 -56 19.5t-24 50.5q0 30 24 50t56 20t56 -20t24 -50q0 -31 -24 -50.5t-56 -19.5z" />
    <glyph glyph-name="slash" unicode="/" horiz-adv-x="490" 
d="M61 -16h-57q-20 0 -20 13q0 6 11 24l397 687q11 22 19 31t19 9h56q20 0 20 -13q0 -7 -10 -24l-397 -687q-11 -22 -19 -31t-19 -9z" />
    <glyph glyph-name="zero" unicode="0" 
d="M37 366q0 159 77 270.5t206 111.5t206 -111.5t77 -270.5t-77 -270.5t-206 -111.5t-206 111.5t-77 270.5zM191 366q0 -156 33.5 -239t95.5 -83t95.5 83t33.5 239t-33.5 239t-95.5 83t-95.5 -83t-33.5 -239z" />
    <glyph glyph-name="one" unicode="1" 
d="M391 701v-551q0 -50 13.5 -66.5t51.5 -19.5q61 -4 61 -34t-48 -30h-310q-51 0 -51 30q0 27 65 33q45 4 57.5 20t12.5 66v398q0 49 -13.5 62.5t-65.5 12.5h-33q-44 0 -44 28q0 24 52 32q52 7 96 26t71.5 34.5t43.5 15.5q25 0 33 -15t8 -42z" />
    <glyph glyph-name="two" unicode="2" 
d="M222 104h203q36 0 63 17t45 33.5t33 16.5q8 0 15 -7.5t7 -16.5q0 -6 -4 -16t-11.5 -33t-14.5 -54q-5 -25 -16 -34.5t-34 -9.5h-413q-25 0 -34 7t-9 25q0 39 38.5 93t93.5 109l110 111.5t93.5 117t38.5 109.5q0 52 -32 84t-81 32q-44 0 -85 -31t-41 -76q0 -18 13 -38
t13 -34q0 -23 -20 -34.5t-44 -11.5q-37 0 -58.5 24t-21.5 62q0 81 76.5 140t190.5 59q118 0 181 -55t63 -136q0 -50 -25.5 -98t-68 -90t-88 -81t-96 -88.5t-80.5 -95.5z" />
    <glyph glyph-name="three" unicode="3" 
d="M294 688q-35 0 -61 -18t-26 -50q0 -8 3.5 -25.5t2.5 -27.5q-1 -19 -19.5 -28.5t-39.5 -9.5q-32 0 -52.5 14.5t-20.5 45.5q0 66 70 112.5t172 46.5q95 0 165 -48.5t70 -136.5q0 -64 -43 -105t-113 -57v-2q75 -13 129.5 -64.5t54.5 -123.5q0 -110 -83.5 -168.5
t-201.5 -58.5q-37 0 -78.5 8.5t-82 25.5t-67 49t-26.5 73q0 31 18 47.5t49 16.5q30 0 43.5 -11t15.5 -40q9 -109 115 -109q71 0 107.5 44.5t36.5 117.5q0 86 -50.5 120t-145.5 34q-49 0 -49 30q0 17 12 22.5t48 7.5q82 4 119.5 38t37.5 110q0 53 -29 86.5t-81 33.5z" />
    <glyph glyph-name="four" unicode="4" 
d="M485 192v-95q0 -22 10 -32t22.5 -11t22.5 -7t10 -21q0 -14 -10 -20t-37 -6h-184q-27 0 -37 6t-10 20q0 15 10 21t22.5 7t22.5 11t10 32v95h-252q-29 0 -41.5 7.5t-12.5 26.5q0 83 110.5 262t207.5 248q27 22 70 22q37 0 51.5 -18.5t14.5 -56.5v-423h76q47 0 47 -34
q0 -20 -10.5 -27t-31.5 -7h-81zM337 260v376h-2q-158 -194 -220 -376h222z" />
    <glyph glyph-name="five" unicode="5" 
d="M193 633l-14 -208q67 34 152 34q108 0 182.5 -57t74.5 -163q0 -124 -84 -189.5t-226 -65.5q-101 0 -164 45.5t-63 102.5q0 28 17 45t45 17q26 0 45 -12t19 -36q0 -5 -1 -15t-1 -14q0 -37 29.5 -55t70.5 -18q79 0 119 50.5t40 131.5q0 74 -37 123.5t-108 49.5
q-32 0 -59.5 -10.5t-42.5 -23t-31 -23t-27 -10.5q-15 0 -22 8t-7 19v23l26 366q19 -1 53 -4.5t40 -4.5q56 -7 111 -7q40 0 105 9t79 9q25 0 25 -24q0 -94 -269 -94q-21 0 -47 0.5t-30 0.5z" />
    <glyph glyph-name="six" unicode="6" 
d="M206 395q88 60 161 60q107 0 169.5 -62.5t62.5 -156.5q0 -113 -78.5 -182.5t-192.5 -69.5q-140 0 -213.5 85t-73.5 227q0 194 127 323t317 129q59 0 59 -28q0 -26 -57 -32q-118 -11 -194 -92t-87 -201zM334 391q-66 0 -99.5 -44.5t-33.5 -118.5q0 -44 9.5 -82.5t38.5 -70
t74 -31.5t74 31.5t38.5 70t9.5 82.5q0 63 -26.5 113t-84.5 50z" />
    <glyph glyph-name="seven" unicode="7" 
d="M280 -16h-74q-19 0 -31.5 8.5t-12.5 20.5q0 8 12 38q22 54 69.5 152l113.5 230l97 195h-254q-29 0 -45 -8t-20.5 -20t-7 -23.5t-10 -19.5t-23.5 -8q-25 0 -25 33q0 71 4 102.5t12 39.5t26 8h420q40 0 40 -18q0 -12 -17.5 -56l-41 -100t-32.5 -84l-129 -410
q-16 -52 -30 -66t-41 -14z" />
    <glyph glyph-name="eight" unicode="8" 
d="M67 543q0 81 70.5 143t200.5 62q114 0 178.5 -50t64.5 -110q0 -102 -146 -171q167 -77 167 -211q0 -100 -84 -161t-213 -61q-64 0 -122.5 18.5t-102 64t-43.5 111.5q0 64 49 112.5t118 74.5q-137 69 -137 178zM393 267l-128 64q-108 -60 -108 -147q0 -64 44.5 -102
t106.5 -38q57 0 105.5 32t48.5 88q0 62 -69 103zM371 445q31 24 45 36.5t29.5 38.5t15.5 55q0 51 -38 82t-91 31q-49 0 -87 -30.5t-38 -77.5q0 -21 10.5 -39.5t23.5 -30.5t37.5 -25t38.5 -19t41 -16q9 -3 13 -5z" />
    <glyph glyph-name="nine" unicode="9" 
d="M434 337q-88 -60 -161 -60q-107 0 -169.5 62.5t-62.5 156.5q0 113 78.5 182.5t192.5 69.5q140 0 213.5 -85t73.5 -227q0 -192 -126 -322t-307 -130q-40 0 -55 5.5t-15 22.5q0 15 12.5 22t44.5 10q118 11 194 92t87 201zM306 341q66 0 99.5 44.5t33.5 118.5
q0 44 -9.5 82.5t-38.5 70t-74 31.5t-74 -31.5t-38.5 -70t-9.5 -82.5q0 -63 26.5 -113t84.5 -50z" />
    <glyph glyph-name="colon" unicode=":" horiz-adv-x="320" 
d="M160 -10q-32 0 -56 19.5t-24 50.5q0 30 24 50t56 20t56 -20t24 -50q0 -31 -24 -50.5t-56 -19.5zM160 289q-32 0 -56 19.5t-24 50.5q0 30 24 50t56 20t56 -20t24 -50q0 -31 -24 -50.5t-56 -19.5z" />
    <glyph glyph-name="semicolon" unicode=";" horiz-adv-x="320" 
d="M244 29q0 -65 -48.5 -123.5t-74.5 -58.5q-7 0 -14 5.5t-7 12.5q0 5 17 21.5t35 46t21 67.5q-10 -2 -14 -3q-3 0 -8 -0.5t-7 -0.5q-29 0 -48.5 18.5t-19.5 48.5t23.5 48.5t57.5 18.5q42 0 64.5 -29t22.5 -72zM160 289q-32 0 -56 19.5t-24 50.5q0 30 24 50t56 20t56 -20
t24 -50q0 -31 -24 -50.5t-56 -19.5z" />
    <glyph glyph-name="less" unicode="&#x3c;" horiz-adv-x="600" 
d="M539 78v-86l-478 209v77l478 208v-87l-359 -160z" />
    <glyph glyph-name="equal" unicode="=" horiz-adv-x="600" 
d="M539 364v-90h-478v90h478zM539 204v-90h-478v90h478z" />
    <glyph glyph-name="greater" unicode="&#x3e;" horiz-adv-x="600" 
d="M61 -8v86l359 161l-359 160v87l478 -208v-77z" />
    <glyph glyph-name="question" unicode="?" horiz-adv-x="500" 
d="M164 248v109q0 14 17 26t42 24.5t49.5 30.5t41.5 54t17 86q0 54 -26.5 90t-78.5 36q-33 0 -57 -17t-24 -51q0 -5 2 -15t2 -17q0 -13 -16.5 -27.5t-46.5 -14.5q-26 0 -42.5 14.5t-16.5 39.5q0 66 65.5 104t152.5 38q105 0 166.5 -55t61.5 -132q0 -47 -12.5 -84.5t-33 -61
t-45 -41.5t-49.5 -29l-45.5 -20.5t-33 -20t-12.5 -22.5q0 -62 -7 -80t-31 -18t-32 13t-8 41zM209 -10q-32 0 -56 19.5t-24 50.5q0 30 24 50t56 20t56 -20t24 -50q0 -31 -24 -50.5t-56 -19.5z" />
    <glyph glyph-name="at" unicode="@" horiz-adv-x="800" 
d="M511 438q0 62 -40 62q-43 0 -89 -57.5t-46 -128.5q0 -88 55 -88q47 0 83.5 75t36.5 137zM532 526l6 20h90l-64 -273q-3 -15 -3 -26q0 -29 39 -29q46 0 80 65.5t34 136.5q0 101 -81 182.5t-214 81.5q-54 0 -105 -21t-93 -60.5t-67.5 -105.5t-25.5 -147q0 -127 87.5 -214.5
t214.5 -87.5q66 0 113 13t105 40l13 -56q-111 -61 -230 -61q-102 0 -184.5 35.5t-130.5 91t-73 117.5t-25 122q0 173 117.5 285.5t283.5 112.5q153 0 258 -94t105 -233q0 -104 -55 -182.5t-150 -78.5q-50 0 -71 19t-24 43h-2q-50 -62 -125 -62q-48 0 -79.5 36.5t-31.5 99.5
q0 43 13.5 88.5t39 86t68.5 66t95 25.5q51 0 72 -36z" />
    <glyph glyph-name="A" unicode="A" horiz-adv-x="730" 
d="M480 246h-294q-12 -29 -28 -86.5t-16 -73.5q0 -9 8 -15t17.5 -9t17.5 -11.5t8 -22.5q0 -28 -33 -28h-136q-27 0 -27 28q0 15 7.5 23.5t17 11t20.5 11.5t16 26q55 184 126 354t124 258q12 21 24.5 28.5t37.5 7.5q27 0 36.5 -4t15.5 -14q54 -95 100.5 -206t101 -265.5
t59.5 -166.5q6 -15 28.5 -26t22.5 -36q0 -30 -34 -30h-188q-29 0 -29 28q0 14 7 23t16 12t16 8t7 13q0 9 -5 26t-19 59.5zM210 318h243l-123 300z" />
    <glyph glyph-name="B" unicode="B" horiz-adv-x="710" 
d="M80 100v532q0 18 -9 27.5t-19 11.5t-19 9.5t-9 21.5q0 30 46 30h350q115 0 171.5 -42.5t56.5 -113.5q0 -142 -176 -186v-2q94 -2 157.5 -50.5t63.5 -125.5q0 -107 -76.5 -159.5t-196.5 -52.5h-350q-46 0 -46 30q0 14 9 21.5t19 9.5t19 11.5t9 27.5zM228 589v-199l45 10.5
t47 13t51 18t44 23.5t39 31t24 39.5t10 50.5q0 88 -154 88q-70 0 -88 -13t-18 -62zM228 328v-185q0 -46 16.5 -60.5t77.5 -14.5q102 0 156.5 35t54.5 103t-48 109t-95 45z" />
    <glyph glyph-name="C" unicode="C" horiz-adv-x="740" 
d="M32 348q0 169 121 284.5t289 115.5q87 0 168.5 -35.5t85.5 -60.5q10 -60 10 -109q0 -33 -30 -33q-5 0 -8.5 1.5t-7 4.5t-5.5 5.5t-4.5 8t-4 8.5t-4 10l-3.5 10q-21 50 -71 86t-129 36q-121 0 -184 -87t-63 -225q0 -131 64 -218.5t188 -87.5q51 0 95 19t67.5 41.5
l44.5 41.5t33 19q13 0 22 -8t9 -17q0 -52 -91 -113t-212 -61q-158 0 -269 102.5t-111 261.5z" />
    <glyph glyph-name="D" unicode="D" horiz-adv-x="780" 
d="M80 100v532q0 18 -9 27.5t-19 11.5t-19 9.5t-9 21.5q0 30 46 30h206q244 0 360.5 -96.5t116.5 -268.5q0 -170 -106 -268.5t-299 -98.5h-278q-46 0 -46 30q0 14 9 21.5t19 9.5t19 11.5t9 27.5zM228 572v-412q0 -62 13.5 -77t68.5 -15q134 0 208.5 82t74.5 216
q0 137 -74 217.5t-209 80.5q-55 0 -68.5 -15t-13.5 -77z" />
    <glyph glyph-name="E" unicode="E" horiz-adv-x="630" 
d="M549 0h-479q-46 0 -46 30q0 14 9 21.5t19 9.5t19 11.5t9 27.5v532q0 18 -9 27.5t-19 11.5t-19 9.5t-9 21.5q0 30 46 30h459q36 0 47.5 -19t11.5 -86q0 -29 -17 -29q-10 0 -17 5.5t-21 17.5t-31 22q-23 14 -56.5 17.5t-100.5 3.5q-81 0 -99 -10.5t-18 -59.5v-164h174
q33 0 55 17t32 17q16 0 21.5 -15t5.5 -49q0 -46 -4 -60t-22 -14q-10 0 -17.5 5.5t-13 12.5t-20.5 12.5t-38 5.5h-173v-179q0 -79 10.5 -97t53.5 -18q114 0 175.5 10t78.5 36q25 37 47 37q29 0 29 -32q0 -67 -16.5 -93t-56.5 -26z" />
    <glyph glyph-name="F" unicode="F" horiz-adv-x="590" 
d="M238 0h-168q-46 0 -46 30q0 14 9 21.5t19 9.5t19 11.5t9 27.5v532q0 18 -9 27.5t-19 11.5t-19 9.5t-9 21.5q0 30 46 30h478q17 0 28.5 -39.5t11.5 -65.5q0 -45 -30 -45q-9 0 -15 5t-14.5 17.5t-9.5 14.5q-17 22 -47.5 32.5t-52 11.5t-74.5 1q-81 0 -99 -13t-18 -72v-169
h174q33 0 55 17t32 17q28 0 28 -57q0 -50 -4.5 -65.5t-22.5 -15.5q-9 0 -17.5 9t-25 18t-46.5 9h-173v-242q0 -18 9 -27.5t19 -11.5t19 -9.5t9 -21.5q0 -30 -46 -30z" />
    <glyph glyph-name="G" unicode="G" horiz-adv-x="770" 
d="M495 378h189q32 0 47 -6t15 -25q0 -3 -5.5 -61t-5.5 -64q0 -32 6.5 -72t6.5 -45q0 -13 -26 -33t-67.5 -40t-102.5 -34t-123 -14q-167 0 -282 102t-115 272q0 171 121.5 280.5t287.5 109.5q36 0 81 -7t88 -20t72 -35.5t29 -49.5v-83q0 -33 -30 -33q-19 0 -32 30
q-29 67 -77 98.5t-124 31.5q-81 0 -141 -50t-87.5 -122t-27.5 -150t27 -146.5t85 -114t136 -45.5q157 0 157 148v60q0 29 -16.5 39.5t-57.5 10.5q-46 0 -63.5 8t-17.5 28q0 32 53 32z" />
    <glyph glyph-name="H" unicode="H" horiz-adv-x="810" 
d="M727 632v-532q0 -18 8.5 -27.5t19.5 -11.5t19.5 -9.5t8.5 -21.5q0 -30 -46 -30h-168q-46 0 -46 30q0 14 8.5 21.5t19.5 9.5t19.5 11.5t8.5 27.5v264h-348v-264q0 -18 8.5 -27.5t19.5 -11.5t19.5 -9.5t8.5 -21.5q0 -30 -46 -30h-168q-46 0 -46 30q0 14 8.5 21.5t19.5 9.5
t19.5 11.5t8.5 27.5v532q0 18 -8.5 27.5t-19.5 11.5t-19.5 9.5t-8.5 21.5q0 30 46 30h168q46 0 46 -30q0 -14 -8.5 -21.5t-19.5 -9.5t-19.5 -11.5t-8.5 -27.5v-200h348v200q0 18 -8.5 27.5t-19.5 11.5t-19.5 9.5t-8.5 21.5q0 30 46 30h168q46 0 46 -30q0 -14 -8.5 -21.5
t-19.5 -9.5t-19.5 -11.5t-8.5 -27.5z" />
    <glyph glyph-name="I" unicode="I" horiz-adv-x="310" 
d="M229 632v-532q0 -18 8.5 -27.5t19.5 -11.5t19.5 -9.5t8.5 -21.5q0 -30 -46 -30h-168q-46 0 -46 30q0 14 8.5 21.5t19.5 9.5t19.5 11.5t8.5 27.5v532q0 18 -8.5 27.5t-19.5 11.5t-19.5 9.5t-8.5 21.5q0 30 46 30h168q46 0 46 -30q0 -14 -8.5 -21.5t-19.5 -9.5t-19.5 -11.5
t-8.5 -27.5z" />
    <glyph glyph-name="J" unicode="J" horiz-adv-x="520" 
d="M296 732h168q46 0 46 -30q0 -14 -9 -21.5t-19 -9.5t-19 -11.5t-9 -27.5v-418q0 -124 -59.5 -176t-181.5 -52q-99 0 -155.5 47t-56.5 122q0 54 37 91.5t91 37.5q70 0 70 -52q0 -18 -14.5 -28t-32.5 -13t-32.5 -17t-14.5 -40q0 -36 28 -58t69 -22q50 0 77 31.5t27 108.5
v434q0 18 -10.5 27.5t-23.5 12t-23.5 10.5t-10.5 24q0 15 12 22.5t46 7.5z" />
    <glyph glyph-name="K" unicode="K" horiz-adv-x="740" 
d="M80 100v532q0 18 -9 27.5t-19 11.5t-19 9.5t-9 21.5q0 30 46 30h168q46 0 46 -30q0 -14 -9 -21.5t-19 -9.5t-19 -11.5t-9 -27.5v-284q76 63 175 165.5t99 132.5q0 12 -8 19.5t-17 10.5t-17 9.5t-8 16.5q0 30 40 30h169q36 0 36 -30q0 -16 -12 -24t-33 -19t-34 -26
q-32 -37 -96.5 -103t-86.5 -91q147 -155 239 -332q12 -23 24.5 -36t20.5 -16t13.5 -8.5t5.5 -16.5q0 -30 -40 -30h-186q-42 0 -42 30q0 16 22 27t22 21q0 27 -75.5 134t-108.5 128l-102 -84v-156q0 -18 9 -27.5t19 -11.5t19 -9.5t9 -21.5q0 -30 -46 -30h-168q-46 0 -46 30
q0 14 9 21.5t19 9.5t19 11.5t9 27.5z" />
    <glyph glyph-name="L" unicode="L" horiz-adv-x="600" 
d="M80 100v532q0 18 -9 27.5t-19 11.5t-19 9.5t-9 21.5q0 30 46 30h168q46 0 46 -30q0 -14 -9 -21.5t-19 -9.5t-19 -11.5t-9 -27.5v-516q0 -21 6.5 -30t31.5 -13.5t80 -4.5q59 0 100.5 9.5t60.5 23.5t31 28t22.5 23.5t23.5 9.5q22 0 22 -39q0 -42 -21 -82.5t-59 -40.5h-456
q-46 0 -46 30q0 14 9 21.5t19 9.5t19 11.5t9 27.5z" />
    <glyph glyph-name="M" unicode="M" horiz-adv-x="890" 
d="M64 732h196q16 0 26.5 -15t23.5 -49q83 -190 148 -380l167 403q12 29 20.5 35t37.5 6h152q35 0 35 -33q0 -15 -10.5 -22t-23.5 -8t-23.5 -12t-10.5 -33v-524q0 -18 9 -27.5t19 -11.5t19 -9.5t9 -21.5q0 -30 -46 -30h-162q-46 0 -46 30q0 14 9 21.5t19 9.5t19 11.5t9 27.5
v484h-2l-50.5 -128.5l-38.5 -92.5l-47 -106l-52 -117q-12 -27 -21.5 -38.5t-22.5 -11.5q-11 0 -25.5 16t-26.5 44q-138 300 -180 434h-2l-10 -478q0 -19 11.5 -29.5t25.5 -13t25.5 -11t11.5 -24.5q0 -28 -48 -28h-154q-34 0 -34 31q0 13 10 20t22 9.5t23 15.5t13 36
q22 270 22 520q0 17 -12 25t-27 9t-27 9t-12 25q0 15 9 23.5t23 8.5z" />
    <glyph glyph-name="N" unicode="N" horiz-adv-x="750" 
d="M198 0h-124q-28 0 -39 7.5t-11 22.5q0 14 12 21.5t27 9.5t27 11.5t12 27.5v532q0 18 -12 27.5t-27 11.5t-27 9.5t-12 21.5q0 30 34 30h148q31 0 74 -49q58 -65 298 -415l1 -1l1 -1v-1l1 -1l1 -1v-1l1 -1l1 -1v-1l1 -1l1 -1v-1l1 -1l1 -1v-1l1 -1l1 -1v-1l1 -1l1 -1l1 -1
v-1l1 -1l1 -1v-1l1 -1h2v390q0 18 -9.5 27.5t-20.5 11.5t-20.5 9.5t-9.5 21.5q0 30 46 30h102q46 0 46 -30q0 -14 -9.5 -21.5t-20.5 -9.5t-20.5 -11.5t-9.5 -27.5v-578q0 -40 -7 -52t-38 -12q-18 0 -27 3t-17 15l-404 570h-3v-478q0 -18 10.5 -27.5t23.5 -11.5t23.5 -9.5
t10.5 -21.5q0 -30 -46 -30z" />
    <glyph glyph-name="O" unicode="O" horiz-adv-x="830" 
d="M798 366q0 -164 -106.5 -273t-276.5 -109t-276.5 109t-106.5 273t106.5 273t276.5 109t276.5 -109t106.5 -273zM638 366q0 137 -60 225.5t-163 88.5t-163 -88.5t-60 -225.5t60 -225.5t163 -88.5t163 88.5t60 225.5z" />
    <glyph glyph-name="P" unicode="P" horiz-adv-x="650" 
d="M228 282v-182q0 -18 10.5 -27.5t22.5 -11.5t22.5 -9.5t10.5 -21.5q0 -30 -46 -30h-178q-46 0 -46 30q0 14 9 21.5t19 9.5t19 11.5t9 27.5v532q0 18 -9 27.5t-19 11.5t-19 9.5t-9 21.5q0 30 46 30h278q146 0 222.5 -53t76.5 -139t-60.5 -146t-152.5 -86t-206 -26zM228 600
v-254q110 0 184.5 51.5t74.5 132.5q0 65 -41.5 99.5t-122.5 34.5q-54 0 -74.5 -12.5t-20.5 -51.5z" />
    <glyph glyph-name="Q" unicode="Q" horiz-adv-x="830" 
d="M798 366q0 -131 -70 -229.5t-189 -134.5q58 -46 124 -46q13 0 41 3.5t41 3.5q19 0 31.5 -13.5t12.5 -32.5q0 -31 -30.5 -43t-67.5 -12q-70 0 -133.5 34t-105.5 91q-10 -2 -18 -2q-6 -1 -19 -1q-170 0 -276.5 109t-106.5 273t106.5 273t276.5 109t276.5 -109t106.5 -273z
M638 366q0 137 -60 225.5t-163 88.5t-163 -88.5t-60 -225.5t60 -225.5t162 -88.5q-24 51 -24 102q0 54 33 54q20 0 27 -11.5t6.5 -29t5.5 -47t22 -55.5q73 28 113.5 109t40.5 192z" />
    <glyph glyph-name="R" unicode="R" horiz-adv-x="710" 
d="M238 0h-168q-46 0 -46 30q0 14 9 21.5t19 9.5t19 11.5t9 27.5v532q0 18 -9 27.5t-19 11.5t-19 9.5t-9 21.5q0 30 46 30h334q251 0 251 -182q0 -58 -45.5 -102t-109.5 -66v-2q74 -101 148 -275q7 -17 20 -28t23.5 -15t18.5 -13t8 -23q0 -26 -28 -26h-224q-24 0 -24 28
q0 19 23 28t23 28q0 54 -130 256l-130 -24v-216q0 -18 9 -27.5t19 -11.5t19 -9.5t9 -21.5q0 -30 -46 -30zM228 600v-216q32 4 53.5 7.5t57 11.5t59 19t48 27t37 40t12.5 53q0 62 -40.5 92t-131.5 30q-95 0 -95 -64z" />
    <glyph glyph-name="S" unicode="S" 
d="M50 520q0 104 79.5 166t188.5 62q68 0 126.5 -15t86 -31.5t31.5 -27.5q6 -20 6 -88q0 -34 -28 -34q-17 0 -27 13t-19 32t-24.5 38t-53.5 32t-96 13t-92 -33t-34 -79q0 -39 23.5 -63.5t61.5 -36.5t84 -20.5t92 -21t84 -32.5t61.5 -60t23.5 -99q0 -108 -85.5 -179.5
t-221.5 -71.5q-120 0 -207.5 55.5t-87.5 123.5q0 18 11.5 32t29.5 14q19 0 33 -11.5t22.5 -29t23 -38t33 -38t54 -29t83.5 -11.5q79 0 126.5 37.5t47.5 96.5q0 37 -24 62t-62.5 37.5t-85 23t-93 24t-85 33.5t-62.5 59t-24 95z" />
    <glyph glyph-name="T" unicode="T" horiz-adv-x="660" 
d="M404 631v-531q0 -18 9.5 -27.5t21.5 -11.5t21.5 -9.5t9.5 -21.5q0 -30 -46 -30h-180q-46 0 -46 30q0 14 9.5 21.5t21.5 9.5t21.5 11.5t9.5 27.5v531q0 19 -10 26t-38 7q-41 0 -72.5 -13t-46 -29t-31 -29t-30.5 -13q-25 0 -25 30q0 26 18 95q4 16 12 21.5t25 5.5h544
q17 0 25 -5.5t12 -21.5q18 -69 18 -95q0 -30 -25 -30q-14 0 -30.5 13t-31 29t-46 29t-72.5 13q-28 0 -38 -7t-10 -26z" />
    <glyph glyph-name="U" unicode="U" horiz-adv-x="760" 
d="M70 732h180q18 0 28.5 -8.5t10.5 -21.5q0 -23 -27 -33t-30 -21q-5 -21 -15.5 -148t-10.5 -206q0 -129 50.5 -185.5t153.5 -56.5q198 0 198 224q0 71 -6.5 195.5t-13.5 157.5q-3 15 -15 25.5t-23.5 15t-21 12.5t-9.5 20q0 30 27 30h152q33 0 33 -28q0 -13 -13.5 -19.5
t-27.5 -18t-14 -36.5q0 -6 5 -61t10 -129.5t5 -129.5q0 -326 -325 -326q-145 0 -230 76.5t-85 207.5q0 46 11.5 185.5t14.5 185.5q1 14 -7.5 23t-18.5 12t-18.5 10t-8.5 18q0 30 41 30z" />
    <glyph glyph-name="V" unicode="V" horiz-adv-x="720" 
d="M553 732h130q44 0 44 -28q0 -15 -6 -22.5t-14 -10.5t-19 -17t-18 -39q0 -2 -10.5 -40l-21.5 -77t-32 -101.5t-43 -119.5t-53.5 -123t-65.5 -120q-31 -50 -83 -50q-30 0 -47 8t-32 30q-70 102 -138 284t-92 296q-6 28 -16.5 44.5t-20 21t-16.5 13.5t-7 23q0 28 44 28h182
q42 0 42 -28q0 -13 -8 -21t-18 -11.5t-18 -16t-8 -33.5q0 -62 72.5 -250.5t117.5 -259.5q72 126 127 279t55 236q0 22 -10.5 32t-23.5 11t-23.5 9.5t-10.5 27.5q0 11 11.5 18t29.5 7z" />
    <glyph glyph-name="W" unicode="W" horiz-adv-x="970" 
d="M479 404h-2q-27 -123 -47 -185.5t-56 -140.5q-29 -61 -45 -77.5t-55 -16.5q-22 0 -36 7.5t-28 32.5q-49 88 -95.5 268.5t-74.5 345.5q-2 14 -23.5 30t-21.5 36q0 14 8 21t29 7h186q32 0 32 -28q0 -14 -7.5 -22t-17 -11t-17 -12t-7.5 -25q0 -133 113 -512h2
q47 121 82.5 256t35.5 198q0 41 -9 64t-20 27.5t-20 13t-9 25.5q0 14 8.5 20t31.5 6h168q22 0 30 -7.5t8 -21.5q0 -13 -8 -20.5t-18 -10.5t-18 -13.5t-8 -29.5q0 -75 68.5 -283t71.5 -224h2q49 120 91 271.5t42 227.5q0 21 -11.5 33t-26 15.5t-26 11t-11.5 21.5q0 30 30 30
h138q37 0 37 -27q0 -19 -20.5 -33.5t-25.5 -32.5q-9 -35 -37.5 -168.5t-58.5 -232.5t-77 -200q-24 -54 -78 -54t-78 52q-86 186 -121 368z" />
    <glyph glyph-name="X" unicode="X" horiz-adv-x="730" 
d="M36 732h216q36 0 36 -30q0 -17 -20 -26.5t-20 -15.5q0 -10 20 -39t61 -82.5t58 -77.5q133 153 133 188q0 12 -8 19t-18 9t-18 8t-8 17q0 17 5.5 23.5t20.5 6.5h160q20 0 27 -6.5t7 -25.5q0 -14 -25.5 -30.5t-28.5 -19.5l-200 -248q140 -163 222 -296q11 -18 42 -37.5
t31 -40.5q0 -28 -31 -28h-214q-19 0 -26.5 6.5t-7.5 23.5q0 18 20 27t20 21q0 23 -63 104t-101 122q-54 -64 -98 -131t-44 -93q0 -7 7.5 -12t16.5 -7.5t16.5 -10.5t7.5 -22q0 -28 -36 -28h-164q-30 0 -30 28q0 12 7.5 19t18.5 11.5t30.5 20t38.5 41.5l179 247
q-107 130 -202 275q-10 15 -39 27t-29 33q0 30 30 30z" />
    <glyph glyph-name="Y" unicode="Y" horiz-adv-x="720" 
d="M459 0h-168q-46 0 -46 30q0 14 8.5 21.5t19.5 9.5t19.5 11.5t8.5 27.5v188q-48 50 -96 117.5t-77.5 116l-74.5 126.5q-4 8 -32 22t-28 35q0 27 26 27h222q32 0 32 -30q0 -20 -23 -30t-23 -16q0 -21 53 -107.5t125 -182.5q167 232 167 276q0 12 -9 20t-19.5 11t-19.5 10.5
t-9 20.5q0 28 36 28h150q25 0 25 -27q0 -13 -8.5 -19.5l-24 -18.5t-27.5 -34q-22 -41 -53.5 -90l-52 -79l-61 -86.5t-50.5 -71.5v-206q0 -18 8.5 -27.5t19.5 -11.5t19.5 -9.5t8.5 -21.5q0 -30 -46 -30z" />
    <glyph glyph-name="Z" unicode="Z" horiz-adv-x="600" 
d="M212 68h129q52 0 89 9t55.5 22t31 26.5t23.5 22.5t25 9q25 0 25 -27q0 -40 -11 -85t-33 -45h-466q-32 0 -47 12.5t-13 37.5q-1 39 95.5 178.5l193 271.5t96.5 152q0 12 -22 12q-134 2 -184 -7.5t-79 -44.5q-23 -29 -41 -29q-13 0 -21 8t-8 21q0 47 14 83.5t40 36.5h427
q18 0 33 -10t15 -24q0 -40 -60.5 -139.5t-132.5 -196l-132.5 -182t-60.5 -101.5q0 -11 19 -11z" />
    <glyph glyph-name="bracketleft" unicode="[" horiz-adv-x="280" 
d="M68 -142v842q0 19 6 25.5t23 6.5h121q50 0 50 -30q0 -20 -33 -31q-31 -11 -41 -22t-10 -31v-680q0 -20 10 -31t41 -22q33 -11 33 -31q0 -30 -50 -30h-121q-17 0 -23 6.5t-6 27.5z" />
    <glyph glyph-name="backslash" unicode="\" horiz-adv-x="278" 
d="M-59 748h59q15 0 25 -21l326 -722q3 -7 3 -13q1 -5 -3.5 -6.5t-13.5 -1.5h-59q-15 0 -25 21l-326 722q-3 8 -3 13q-1 5 3.5 6.5t13.5 1.5z" />
    <glyph glyph-name="bracketright" unicode="]" horiz-adv-x="280" 
d="M212 698v-842q0 -19 -6 -25.5t-23 -6.5h-121q-50 0 -50 30q0 20 33 31q31 11 41 22t10 31v680q0 20 -10 31t-41 22q-33 11 -33 31q0 30 50 30h121q17 0 23 -6.5t6 -27.5z" />
    <glyph glyph-name="asciicircum" unicode="^" horiz-adv-x="600" 
d="M178 367h-94l180 365h72l180 -365h-95l-121 257z" />
    <glyph glyph-name="underscore" unicode="_" horiz-adv-x="500" 
d="M500 -125h-500v50h500v-50z" />
    <glyph glyph-name="grave" unicode="`" horiz-adv-x="259" 
d="M133 554l-120 95l-8 5.5t-7.5 6t-6.5 6t-6 7t-3.5 8t-1.5 9.5q0 27 29 27h56q20 0 31 -8t26 -34l52 -91q15 -24 15 -33q0 -18 -19 -18q-10 0 -37 20z" />
    <glyph glyph-name="a" unicode="a" horiz-adv-x="550" 
d="M484 0h-78q-29 0 -37.5 13t-6.5 41h-4q-20 -31 -63 -47.5t-95 -16.5q-82 0 -129 43t-47 105q0 64 53.5 108.5t125 62t149.5 17.5q0 45 -26 73.5t-74 28.5q-41 0 -80.5 -29t-69.5 -29q-19 0 -31.5 10.5t-12.5 29.5q0 34 58 56t129 22q106 0 171.5 -42.5t65.5 -133.5v-215
q0 -17 8 -27.5t17 -13.5t17 -9.5t8 -15.5q0 -17 -9.5 -24t-38.5 -7zM352 156v116q-83 0 -136.5 -41t-53.5 -92q0 -36 26 -64.5t64 -28.5q45 0 71.5 34.5t28.5 75.5z" />
    <glyph glyph-name="b" unicode="b" horiz-adv-x="580" 
d="M64 186v446q0 17 -8 27t-18 14t-18 10.5t-8 16.5q0 18 24 24q4 1 30.5 11t53 18.5t38.5 8.5q22 0 29 -15t7 -51v-269q64 61 148 61q101 0 157.5 -65.5t56.5 -168.5q0 -119 -77.5 -191.5t-200.5 -72.5q-102 0 -158 49t-56 147zM194 290v-75q0 -165 101 -165q57 0 90 44.5
t33 133.5q0 92 -31.5 144t-80.5 52q-42 0 -77 -32.5t-35 -101.5z" />
    <glyph glyph-name="c" unicode="c" horiz-adv-x="500" 
d="M24 232q0 111 74 183.5t186 72.5q71 0 128 -31.5t57 -72.5q0 -21 -17 -34.5t-46 -13.5q-19 0 -33 15.5t-22 33.5t-26 33.5t-45 15.5q-52 0 -85 -56t-33 -147q0 -76 40.5 -122.5t98.5 -46.5q32 0 59.5 12t42 26.5t29.5 26.5t25 12q11 0 18 -7t7 -17q0 -37 -63.5 -81
t-146.5 -44q-107 0 -177.5 67.5t-70.5 174.5z" />
    <glyph glyph-name="d" unicode="d" horiz-adv-x="580" 
d="M520 0h-74q-7 0 -12.5 1t-9.5 1.5t-7.5 3.5t-6 4t-4 6t-2.5 6t-2 8t-1.5 8.5t-1 10.5t-0.5 10q-57 -69 -161 -69q-107 0 -160.5 67.5t-53.5 170.5q0 109 68.5 184.5t176.5 75.5q62 0 121 -40v184q0 21 -14 31.5t-28 18.5t-14 22q0 19 24 28q18 7 63 18.5t63 11.5
q21 0 28.5 -7t7.5 -29v-629q0 -17 7.5 -28t16.5 -15t16.5 -10t7.5 -13q0 -17 -9.5 -24t-38.5 -7zM390 152v176q0 45 -30 70.5t-75 25.5q-55 0 -89 -46t-34 -137t34 -137t89 -46q41 0 73 28.5t32 65.5z" />
    <glyph glyph-name="e" unicode="e" horiz-adv-x="530" 
d="M24 227q1 119 74.5 190t210.5 71q46 0 88 -13t73.5 -46t31.5 -80t-35.5 -81t-94 -50.5t-104.5 -23.5t-98 -10q9 -55 48 -88.5t92 -33.5q78 4 140 60l6 6t7 6.5t6.5 4t8.5 3.5t9 1q23 0 23 -23q0 -41 -72.5 -85.5t-158.5 -44.5q-106 0 -180 66t-75 171zM300 434
q-68 0 -104 -57.5t-34 -138.5q29 3 56 8.5t66.5 18t63.5 38t24 60.5q0 34 -19 52.5t-53 18.5z" />
    <glyph glyph-name="f" unicode="f" horiz-adv-x="330" 
d="M222 414v-314q0 -22 7.5 -33.5t16 -13.5t16 -8t7.5 -18q0 -27 -37 -27h-150q-37 0 -37 27q0 12 7.5 18t16 8t16 13.5t7.5 33.5v314h-34q-38 0 -38 32t38 32h35q0 43 2 76t11.5 76t26.5 71.5t50.5 48.5t79.5 20q32 0 60 -16.5t28 -45.5q0 -22 -13.5 -37t-34.5 -15
q-15 0 -31 14t-25 14q-27 0 -27 -103v-103h67q38 0 38 -32t-38 -32h-65z" />
    <glyph glyph-name="g" unicode="g" horiz-adv-x="560" 
d="M496 412h-40q62 -64 62 -154q0 -59 -25 -107.5t-72 -75.5q47 -14 79 -44.5t32 -70.5q0 -72 -69 -114t-198 -42q-113 0 -171 23.5t-58 64.5q0 35 33.5 57.5t67.5 22.5q33 0 33 -18q0 -4 -5 -14.5t-5 -17.5q0 -44 109 -44q71 0 104 21.5t33 54.5q0 53 -71 85
q-31 -11 -67 -11q-108 0 -176 59.5t-68 160.5q0 116 70 178t189 62q34 0 102 -5t102 -5q38 0 50 -8t12 -24q0 -18 -11.5 -25t-41.5 -9zM380 260q0 80 -30.5 124t-78.5 44t-78.5 -44t-30.5 -124t30.5 -124t78.5 -44t78.5 44t30.5 124z" />
    <glyph glyph-name="h" unicode="h" horiz-adv-x="590" 
d="M199 696v-262q69 54 155 54q93 0 137 -47.5t44 -148.5v-192q0 -22 7.5 -33.5t16 -13.5t16 -8t7.5 -18q0 -27 -37 -27h-150q-37 0 -37 27q0 12 7.5 18t16 8t16 13.5t7.5 33.5v184q0 32 -2.5 51.5t-12 39.5t-31 29.5t-56.5 9.5q-47 0 -75.5 -33t-28.5 -75v-206
q0 -22 7.5 -33.5t16 -13.5t16 -8t7.5 -18q0 -27 -37 -27h-150q-37 0 -37 27q0 12 7.5 18t16 8t16 13.5t7.5 33.5v532q0 17 -8.5 27t-18.5 14t-18.5 10.5t-8.5 16.5q0 5 3 9t5.5 6t9 5t8.5 4q20 11 61.5 24.5t60.5 13.5q22 0 29 -15t7 -51z" />
    <glyph glyph-name="i" unicode="i" horiz-adv-x="270" 
d="M217 0h-150q-37 0 -37 26q0 12 7.5 18t16 8t16 13.5t7.5 33.5v259q0 17 -8.5 27t-18.5 14t-18.5 10.5t-8.5 16.5q0 18 26 24q4 1 30.5 11t53 18.5t38.5 8.5q22 0 29 -16t7 -60v-313q0 -22 7.5 -33.5t16 -13.5t16 -8t7.5 -18q0 -26 -37 -26zM131 674q36 0 57.5 -19
t21.5 -51q0 -33 -22.5 -51.5t-60.5 -18.5q-35 0 -57 19t-22 51t22.5 51t60.5 19z" />
    <glyph glyph-name="j" unicode="j" horiz-adv-x="270" 
d="M219 412v-363q0 -114 -41.5 -179.5t-125.5 -65.5q-33 0 -62.5 14t-29.5 43q0 21 15 34t36 13q19 0 38.5 -13t21.5 -13q11 0 14.5 24t3.5 83v369q0 17 -8.5 27t-18.5 14t-18.5 10.5t-8.5 16.5q0 18 26 24q4 1 30.5 11t53 18.5t38.5 8.5q22 0 29 -16t7 -60zM143 674
q36 0 57.5 -19t21.5 -51q0 -33 -22.5 -51.5t-60.5 -18.5q-35 0 -57 19t-22 51t22.5 51t60.5 19z" />
    <glyph glyph-name="k" unicode="k" horiz-adv-x="560" 
d="M209 0h-150q-37 0 -37 27q0 12 7.5 18t16 8t16 13.5t7.5 33.5v532q0 17 -8.5 27t-18.5 14t-18.5 10.5t-8.5 16.5q0 5 3 9t5.5 6t9 5t8.5 4q20 11 61.5 24.5t60.5 13.5q22 0 29 -15t7 -51v-438q36 18 99.5 72.5t63.5 78.5q0 9 -12.5 14t-25 11t-12.5 20q0 24 26 24h142
q38 0 38 -24q0 -12 -7.5 -18.5t-25.5 -16.5t-33 -24q-90 -88 -104 -107q95 -95 164 -214q7 -12 29.5 -23.5t22.5 -26.5q0 -24 -31 -24h-171q-16 0 -24 8t-8 20t14 19.5t14 12.5q0 12 -34.5 64t-67.5 94l-57 -40v-78q0 -22 7.5 -33.5t16 -13.5t16 -8t7.5 -18q0 -27 -37 -27z
" />
    <glyph glyph-name="l" unicode="l" horiz-adv-x="270" 
d="M215 0h-150q-37 0 -37 27q0 12 7.5 18t16 8t16 13.5t7.5 33.5v532q0 18 -8.5 28t-18.5 12.5t-18.5 10.5t-8.5 23q0 14 57.5 35t90.5 21q19 0 27.5 -14t8.5 -52v-596q0 -22 7.5 -33.5t16 -13.5t16 -8t7.5 -18q0 -27 -37 -27z" />
    <glyph glyph-name="m" unicode="m" horiz-adv-x="880" 
d="M839 0h-150q-37 0 -37 27q0 12 7.5 18t16 8t16 13.5t7.5 33.5v224q0 90 -78 90q-45 0 -74.5 -27t-29.5 -59v-228q0 -22 7.5 -33.5t16 -13.5t16 -8t7.5 -18q0 -27 -37 -27h-150q-37 0 -37 27q0 12 7.5 18t16 8t16 13.5t7.5 33.5v224q0 90 -78 90q-45 0 -74.5 -27
t-29.5 -59v-228q0 -22 7.5 -33.5t16 -13.5t16 -8t7.5 -18q0 -27 -37 -27h-150q-37 0 -37 27q0 12 7.5 18t16 8t16 13.5t7.5 33.5v244q0 26 -8.5 39.5t-18 15.5t-18 9t-8.5 22q0 25 51.5 41.5t78.5 16.5q22 0 28 -16t8 -64h2q26 39 69 59.5t91 20.5q100 0 138 -80
q59 80 174 80q68 0 117.5 -39.5t49.5 -119.5v-229q0 -22 7.5 -33.5t16 -13.5t16 -8t7.5 -18q0 -27 -37 -27z" />
    <glyph glyph-name="n" unicode="n" horiz-adv-x="590" 
d="M404 100v184q0 32 -2.5 51.5t-11.5 39.5t-29 29.5t-52 9.5q-47 0 -75.5 -33t-28.5 -75v-206q0 -22 7.5 -33.5t16 -13.5t16 -8t7.5 -18q0 -27 -37 -27h-150q-37 0 -37 27q0 12 7.5 18t16 8t16 13.5t7.5 33.5v244q0 26 -8.5 39.5t-18 15.5t-18 9t-8.5 22q0 25 51.5 41.5
t78.5 16.5q22 0 28 -16t8 -64q69 80 165 80q93 0 137 -47.5t44 -148.5v-192q0 -22 7.5 -33.5t16 -13.5t16 -8t7.5 -18q0 -27 -37 -27h-150q-37 0 -37 27q0 12 7.5 18t16 8t16 13.5t7.5 33.5z" />
    <glyph glyph-name="o" unicode="o" horiz-adv-x="590" 
d="M566 239q0 -109 -78.5 -179t-192.5 -70t-192.5 70t-78.5 179t78.5 179t192.5 70t192.5 -70t78.5 -179zM162 239q0 -91 37 -140t96 -49t96 49t37 140t-37 140t-96 49t-96 -49t-37 -140z" />
    <glyph glyph-name="p" unicode="p" horiz-adv-x="610" 
d="M211 277v-365q0 -22 9 -33.5t19.5 -13t19.5 -8t9 -19.5q0 -26 -47 -26h-150q-37 0 -37 27q0 12 7.5 18t16 8t16 13.5t7.5 33.5v432q0 26 -9 39.5t-20.5 15.5t-20.5 9t-9 22q0 25 54 41.5t82 16.5q24 0 31.5 -15t12.5 -61q52 76 162 76q100 0 161 -72t61 -174
q0 -107 -67 -179.5t-173 -72.5q-41 0 -75 10.5t-34 35.5q0 26 25 26q2 0 24.5 -2t37.5 -2q63 0 93.5 56t30.5 125q0 70 -30 127.5t-94 57.5q-55 0 -84 -43t-29 -104z" />
    <glyph glyph-name="q" unicode="q" horiz-adv-x="570" 
d="M530 -188h-150q-19 0 -32.5 6.5t-13.5 15.5q0 14 9 21t19 9t19 14t9 34v132h-2q-49 -54 -144 -54q-96 0 -158 70.5t-62 167.5q0 107 71 183.5t173 76.5q74 0 162 -46q15 19 37.5 32t34.5 13t15 -9t3 -39v-527q0 -22 7.5 -33.5t16 -13.5t16 -8t7.5 -18q0 -27 -37 -27z
M390 154v174q0 45 -29 70.5t-72 25.5q-45 0 -75 -34t-41 -74.5t-11 -82.5q0 -87 35 -131t88 -44q42 0 73.5 26.5t31.5 69.5z" />
    <glyph glyph-name="r" unicode="r" horiz-adv-x="400" 
d="M230 0h-150q-37 0 -37 27q0 12 7.5 18t16 8t16 13.5t7.5 33.5v202q0 39 -10.5 60t-23 24.5t-23 10t-10.5 20.5q0 10 6 18t11.5 11.5t21 10.5t19.5 9q46 22 69 22q43 0 54 -117h2q20 47 55.5 82t77.5 35q30 0 48.5 -20t18.5 -50q0 -23 -11.5 -39.5t-35.5 -16.5q-7 0 -28 8
t-32 8q-31 0 -55 -44t-24 -100v-134q0 -22 7.5 -33.5t16 -13.5t16 -8t7.5 -18q0 -27 -37 -27z" />
    <glyph glyph-name="s" unicode="s" horiz-adv-x="450" 
d="M41 328q0 78 62 119t144 41q74 0 120 -23.5t46 -49.5q0 -45 -4 -56.5t-18 -11.5t-27 12.5t-23.5 28t-35 28t-58.5 12.5q-44 0 -62 -20.5t-18 -45.5t27.5 -40t67.5 -23.5t79.5 -20t67 -40.5t27.5 -76q0 -79 -60 -125.5t-159 -46.5q-77 0 -135 38.5t-58 68.5q0 19 11 35
t29 16q16 0 30.5 -15.5t25.5 -33.5t35.5 -33.5t58.5 -15.5q39 0 65.5 20t26.5 51q0 29 -27.5 45t-66 24t-77.5 19t-66.5 40.5t-27.5 78.5z" />
    <glyph glyph-name="t" unicode="t" horiz-adv-x="340" 
d="M212 478h82q38 0 38 -32t-38 -32h-82v-290q0 -35 14 -47.5t53 -12.5q34 0 46 -6t12 -23q0 -35 -35 -35h-142q-48 0 -63 12.5t-15 52.5v349h-41q-22 0 -30 6.5t-8 25.5q0 17 13 23.5t43 8.5q39 4 61.5 32t28 59.5t14 57t23.5 25.5t20.5 -8.5t5.5 -31.5v-134z" />
    <glyph glyph-name="u" unicode="u" horiz-adv-x="570" 
d="M528 0h-76q-35 0 -45 12.5t-15 50.5q-70 -73 -166 -73q-83 0 -123.5 46t-40.5 119v205q0 24 -7 36.5t-16 15t-16 8.5t-7 18q0 20 55.5 35t79.5 15q20 0 30.5 -15.5t10.5 -58.5v-237q0 -66 17.5 -89.5t62.5 -23.5q44 0 78 26t34 66v204q0 24 -7 36.5t-16 15t-16 8.5t-7 18
q0 20 55.5 35t79.5 15q20 0 30.5 -15.5t10.5 -58.5v-317q0 -19 8 -30.5t17.5 -15t17.5 -9.5t8 -15q0 -27 -37 -27z" />
    <glyph glyph-name="v" unicode="v" horiz-adv-x="500" 
d="M378 478h110q22 0 22 -23q0 -13 -13 -30t-21 -47q-57 -211 -156 -370q-7 -12 -18.5 -15t-42.5 -3q-50 0 -79 46q-52 82 -82 163t-60 203q-3 11 -21.5 25t-18.5 31q0 20 34 20h166q30 0 30 -22q0 -16 -25 -28.5t-25 -29.5q0 -53 38.5 -151t75.5 -161q41 66 72.5 154.5
t31.5 142.5q0 25 -25 41t-25 32q0 22 32 22z" />
    <glyph glyph-name="w" unicode="w" horiz-adv-x="760" 
d="M26 478h152q14 0 23 -6.5t9 -17.5q0 -10 -10 -16t-20 -15t-10 -25q0 -34 31.5 -145t58.5 -165q76 134 76 290q0 22 -7 34.5t-16 15.5t-16 9.5t-7 18.5q0 22 30 22h157q23 0 23 -24q0 -11 -18 -22.5t-18 -29.5q0 -93 86 -314q41 54 69.5 145t28.5 151q0 26 -26 43t-26 29
q0 22 30 22h119q27 0 27 -22q0 -9 -19 -27.5t-25 -50.5q-10 -55 -60 -191t-80 -175q-17 -22 -70 -22q-45 0 -70.5 41.5t-68.5 168.5h-2q-45 -120 -75.5 -165t-74.5 -45q-26 0 -42 6t-29 28q-75 126 -122 369q-3 16 -9.5 26t-12 13t-10 8t-4.5 13q0 25 28 25z" />
    <glyph glyph-name="x" unicode="x" horiz-adv-x="530" 
d="M363 478h108q24 0 24 -23q0 -10 -3.5 -15t-9 -7.5t-18.5 -13t-27 -27.5l-110 -134q117 -136 134 -160q11 -15 24.5 -25.5t22 -15t15 -12.5t6.5 -21q0 -10 -7.5 -17t-20.5 -7h-174q-32 0 -32 24q0 12 15 24.5t15 18.5q0 12 -37 54t-62 67q-76 -78 -76 -111q0 -18 26.5 -28
t26.5 -27q0 -22 -28 -22h-140q-20 0 -27 4.5t-7 19.5q0 11 7.5 15.5t29 21.5t46.5 49l103 122q-82 103 -120 156q-9 12 -26 22t-26.5 19.5t-9.5 24.5q0 24 25 24h162q38 0 38 -26q0 -9 -15.5 -18.5t-15.5 -11.5q0 -10 34 -50.5t59 -67.5q65 80 65 102q0 9 -19 21.5t-19 28.5
q0 22 44 22z" />
    <glyph glyph-name="y" unicode="y" horiz-adv-x="510" 
d="M29 478h147q31 0 31 -26q0 -10 -8.5 -16.5t-17.5 -19t-9 -38.5q0 -48 13.5 -115t42.5 -125t64 -58q29 0 53 64.5t34.5 131.5t10.5 104q0 20 -14 33t-28 22.5t-14 22.5q0 20 22 20h130q28 0 28 -21q0 -12 -10.5 -20t-23 -25t-16.5 -48q-13 -103 -42.5 -201t-73 -179
t-104 -130.5t-127.5 -49.5q-31 0 -60 13.5t-29 38.5q0 48 60 48q15 0 39.5 -8t33.5 -8q28 0 70.5 42t62.5 91q-27 -9 -38 -9q-33 0 -62 13.5t-49 32.5t-37 51t-27.5 58.5t-20 67t-13.5 63t-9.5 59.5t-7.5 46q-3 17 -17.5 27.5t-14.5 22.5q0 25 31 25z" />
    <glyph glyph-name="z" unicode="z" horiz-adv-x="460" 
d="M177 60h113q28 0 49 8.5t31.5 21t19 25t16.5 21t18 8.5q20 0 20 -26q0 -49 -18.5 -83.5t-51.5 -34.5h-289q-36 0 -51 9t-15 30q0 26 47 83l240 296h-110q-38 0 -63.5 -10.5t-34.5 -23t-19 -23t-21 -10.5q-18 0 -18 39q0 34 15 61t41 27h287q61 0 61 -46q0 -6 -2 -13.5
t-5 -13t-8.5 -14l-8.5 -13t-10 -13.5t-9 -12z" />
    <glyph glyph-name="braceleft" unicode="{" horiz-adv-x="290" 
d="M198 138v-186q0 -50 5 -65t23 -15q40 0 40 -31q0 -18 -7 -25.5t-29 -7.5h-76q-43 0 -57.5 18.5t-14.5 68.5v259q0 55 -15.5 82.5t-60.5 41.5q45 14 60.5 41.5t15.5 82.5v259q0 50 14.5 68.5t57.5 18.5h76q22 0 29 -7.5t7 -25.5q0 -31 -40 -31q-18 0 -23 -15t-5 -65v-186
q0 -63 -16 -94.5t-65 -44.5v-2q49 -13 65 -44.5t16 -94.5z" />
    <glyph glyph-name="bar" unicode="|" horiz-adv-x="222" 
d="M66 0v762h90v-762h-90z" />
    <glyph glyph-name="braceright" unicode="}" horiz-adv-x="290" 
d="M92 -48v186q0 63 16 94.5t65 44.5v2q-49 13 -65 44.5t-16 94.5v186q0 50 -5 65t-23 15q-40 0 -40 31q0 18 7 25.5t29 7.5h76q43 0 57.5 -18.5t14.5 -68.5v-259q0 -55 15.5 -82.5t60.5 -41.5q-45 -14 -60.5 -41.5t-15.5 -82.5v-259q0 -50 -14.5 -68.5t-57.5 -18.5h-76
q-22 0 -29 7.5t-7 25.5q0 31 40 31q18 0 23 15t5 65z" />
    <glyph glyph-name="asciitilde" unicode="~" horiz-adv-x="600" 
d="M495 321l42 -74q-27 -40 -56.5 -63t-74.5 -23q-39 0 -111 32q-74 32 -102 32q-27 0 -47 -17.5t-41 -50.5l-42 74q27 40 56.5 63t74.5 23q39 0 111 -32q74 -32 102 -32q27 0 47 17.5t41 50.5z" />
    <glyph glyph-name="uni00A0" unicode="&#xa0;" horiz-adv-x="320" 
 />
    <glyph glyph-name="exclamdown" unicode="&#xa1;" horiz-adv-x="330" 
d="M200 313l45 -402q5 -38 5 -43q0 -33 -27 -48.5t-58 -15.5t-58 15.5t-27 48.5q0 5 5 43l45 402q4 34 10.5 45.5t24.5 11.5t24.5 -11.5t10.5 -45.5zM165 572q32 0 56 -19.5t24 -50.5q0 -30 -24 -50t-56 -20t-56 20t-24 50q0 31 24 50.5t56 19.5z" />
    <glyph glyph-name="cent" unicode="&#xa2;" 
d="M320 227v336q-39 -12 -63.5 -61t-24.5 -123q0 -118 88 -152zM376 563v-346q36 2 65 20.5t46.5 35.5t28.5 17q10 0 17.5 -7t7.5 -17q0 -31 -48.5 -70t-116.5 -49v-91q0 -21 -6 -28.5t-22 -7.5t-22 7.5t-6 28.5v90q-97 5 -159.5 69.5t-62.5 164.5q0 101 62.5 169.5
t159.5 77.5v105q0 21 6 28.5t22 7.5t22 -7.5t6 -28.5v-105q55 -5 104.5 -30.5t49.5 -67.5q0 -21 -14.5 -34.5t-34.5 -13.5q-28 0 -56 37t-49 45z" />
    <glyph glyph-name="sterling" unicode="&#xa3;" 
d="M293 404h137q38 0 38 -35q0 -18 -8.5 -26.5t-29.5 -8.5h-117q5 -50 5 -55q0 -95 -68 -156l2 -3q26 10 69 10q18 0 74 -17t78 -17q28 0 57 22.5t36 22.5q30 0 30 -35q0 -39 -44.5 -80.5t-102.5 -41.5q-34 0 -108.5 24t-112.5 24q-33 0 -78 -23.5t-54 -23.5
q-12 0 -20.5 8.5t-8.5 21.5q0 14 20.5 33t45 39t45 59.5t20.5 88.5q0 33 -15 99h-85q-21 0 -29.5 8.5t-8.5 26.5q0 35 38 35h61q-27 59 -27 120q0 100 70.5 162t169.5 62q82 0 141 -46t59 -128q0 -31 -16 -48.5t-45 -17.5q-18 0 -34.5 10.5t-16.5 28.5q0 7 4 21.5t4 21.5
q0 42 -30 69t-71 27q-50 0 -80.5 -37.5t-30.5 -89.5q0 -33 37 -155z" />
    <glyph glyph-name="currency" unicode="&#xa4;" 
d="M56 153l57 58q-51 57 -51 155q0 97 51 154l-57 58l53 53l59 -59q59 51 152 51q95 0 152 -51l59 59l53 -53l-57 -58q51 -57 51 -154q0 -98 -51 -155l57 -58l-53 -53l-59 59q-59 -51 -152 -51q-91 0 -152 51l-59 -59zM154 366q0 -71 48.5 -120.5t117.5 -49.5t117.5 49.5
t48.5 120.5q0 70 -48.5 119.5t-117.5 49.5t-117.5 -49.5t-48.5 -119.5z" />
    <glyph glyph-name="yen" unicode="&#xa5;" 
d="M390 311h161q36 0 36 -35t-36 -35h-168v-141q0 -19 7 -29t15.5 -12t15.5 -8.5t7 -20.5q0 -30 -38 -30h-136q-37 0 -37 30q0 14 7 21t16 9t16 12t7 28v141h-173q-36 0 -36 35t36 35h164l-38 71h-126q-36 0 -36 35t36 35h88l-106 196q-4 7 -27.5 21.5t-23.5 35.5
q0 27 34 27h159q32 0 32 -27q0 -18 -18.5 -29.5t-18.5 -22.5q0 -47 145 -288l31.5 54l30.5 51.5l26 45l23.5 42.5t17 34t12 30t3.5 21q0 18 -20.5 31.5t-20.5 31.5q0 26 36 26h97q29 0 29 -27q0 -13 -6 -20t-19.5 -19.5t-24.5 -32.5l-101 -181h83q36 0 36 -35t-36 -35h-122z
" />
    <glyph glyph-name="brokenbar" unicode="&#xa6;" horiz-adv-x="222" 
d="M66 0v286h90v-286h-90zM66 476v286h90v-286h-90z" />
    <glyph glyph-name="section" unicode="&#xa7;" horiz-adv-x="560" 
d="M261 -146q52 0 95 33.5t43 84.5q0 40 -28 67t-69.5 40l-90.5 29.5t-90.5 34t-69.5 54.5t-28 90q0 80 91 152q-28 31 -41 57t-13 62q0 87 69 138.5t158 51.5q59 0 121.5 -19.5t72.5 -37.5q6 -10 15.5 -54.5t9.5 -58.5q0 -13 -8 -22t-21 -9q-15 0 -31 22t-30.5 48.5
t-47 48.5t-77.5 22t-83 -25.5t-38 -69.5q0 -31 20 -52.5t52.5 -34.5t72 -24.5t78.5 -25t71.5 -32t52.5 -51.5t20 -77q0 -78 -76 -161q28 -32 42 -60t14 -65q0 -99 -78 -159.5t-180 -60.5q-41 0 -80.5 10.5t-53 17.5l-39.5 21q-16 9 -30.5 69.5t-14.5 85.5q0 13 7.5 22.5
t21.5 9.5q17 0 33.5 -27t30 -59t46.5 -59t81 -27zM166 405q-37 -39 -37 -78q0 -46 44.5 -70t121.5 -43.5t114 -42.5q32 51 32 79q0 29 -14.5 48t-43.5 31.5t-60 21.5l-76.5 23t-80.5 31z" />
    <glyph glyph-name="dieresis" unicode="&#xa8;" horiz-adv-x="259" 
d="M102 613q0 -32 -22.5 -49t-54.5 -17t-54.5 17t-22.5 49t22.5 49t54.5 17t54.5 -17t22.5 -49zM311 613q0 -32 -22.5 -49t-54.5 -17t-54.5 17t-22.5 49t22.5 49t54.5 17t54.5 -17t22.5 -49z" />
    <glyph glyph-name="copyright" unicode="&#xa9;" horiz-adv-x="800" 
d="M28 366q0 160 107.5 271t264.5 111t264.5 -111t107.5 -271t-107.5 -271t-264.5 -111t-264.5 111t-107.5 271zM692 366q0 132 -83.5 226t-208.5 94t-208.5 -94t-83.5 -226t83.5 -226t208.5 -94t208.5 94t83.5 226zM557 284h25l-17 -91q-2 -11 -52 -25t-91 -14
q-108 0 -171 56.5t-63 166.5q0 36 13.5 72.5t41 69.5t76 54t110.5 21q48 0 92 -15t44 -30v-80h-26q-21 91 -111 91q-64 0 -99 -49.5t-35 -128.5q0 -91 33.5 -142.5t104.5 -51.5q47 0 76 25t49 71z" />
    <glyph glyph-name="ordfeminine" unicode="&#xaa;" horiz-adv-x="330" 
d="M299 455h-50q-19 0 -24.5 7.5t-4.5 24.5h-3q-27 -37 -102 -37q-47 0 -81 23.5t-34 64.5q0 34 26 58.5t64 35.5t68.5 15t51.5 4q2 26 -15 43.5t-46 17.5q-27 0 -52.5 -17.5t-45.5 -17.5q-29 0 -29 24q0 25 43 36t79 11q69 0 112 -26t43 -80v-129q0 -17 16 -24.5t16 -14.5
q0 -11 -6.5 -15t-25.5 -4zM212 549v69q-41 -1 -81.5 -21.5t-40.5 -58.5q0 -21 17 -38t42 -17q29 0 46 20.5t17 45.5z" />
    <glyph glyph-name="guillemotleft" unicode="&#xab;" horiz-adv-x="360" 
d="M125 97l-78 101q-23 30 -23 42q0 10 23 40l78 101q15 20 21.5 25.5t15.5 5.5q18 0 18 -19q0 -8 -12 -36l-48 -104q-5 -10 -5 -14t5 -14l48 -104q12 -28 12 -36q0 -19 -18 -19q-9 0 -15.5 5.5t-21.5 25.5zM281 97l-78 101q-23 30 -23 42q0 10 23 40l78 101
q15 20 21.5 25.5t15.5 5.5q18 0 18 -19q0 -8 -12 -36l-48 -104q-5 -10 -5 -14t5 -14l48 -104q12 -28 12 -36q0 -19 -18 -19q-9 0 -15.5 5.5t-21.5 25.5z" />
    <glyph glyph-name="logicalnot" unicode="&#xac;" horiz-adv-x="600" 
d="M449 114v160h-388v90h478v-250h-90z" />
    <glyph glyph-name="uni00AD" unicode="&#xad;" horiz-adv-x="320" 
d="M271 191h-222q-29 0 -29 48t29 48h222q29 0 29 -48t-29 -48z" />
    <glyph glyph-name="registered" unicode="&#xae;" horiz-adv-x="800" 
d="M222 554v22h203q53 0 89 -26.5t36 -76.5q0 -40 -22.5 -71.5t-56.5 -44.5l59 -85q43 -65 72 -90v-12h-84q-16 0 -32 22t-44 71.5t-49 80.5h-35v-117q0 -21 8 -26.5t42 -8.5v-22h-186v22q34 4 41 11t7 38v263q0 32 -7 39.5t-41 10.5zM358 544v-168h32q70 0 70 89
q0 79 -70 79h-32zM28 366q0 160 107.5 271t264.5 111t264.5 -111t107.5 -271t-107.5 -271t-264.5 -111t-264.5 111t-107.5 271zM692 366q0 132 -83.5 226t-208.5 94t-208.5 -94t-83.5 -226t83.5 -226t208.5 -94t208.5 94t83.5 226z" />
    <glyph glyph-name="macron" unicode="&#xaf;" horiz-adv-x="259" 
d="M236 576h-213q-20 0 -29.5 8t-9.5 29t9.5 29t29.5 8h213q20 0 29.5 -8t9.5 -29t-9.5 -29t-29.5 -8z" />
    <glyph glyph-name="degree" unicode="&#xb0;" horiz-adv-x="400" 
d="M200 698q-38 0 -63.5 -26t-25.5 -67t25.5 -67t63.5 -26q39 0 64 26.5t25 66.5t-25 66.5t-64 26.5zM57 605q0 60 41.5 101.5t101.5 41.5t101.5 -41.5t41.5 -101.5t-41.5 -101.5t-101.5 -41.5t-101.5 41.5t-41.5 101.5z" />
    <glyph glyph-name="plusminus" unicode="&#xb1;" horiz-adv-x="600" 
d="M254 345v133h90v-133h195v-90h-195v-133h-90v133h-193v90h193zM61 0v90h478v-90h-478z" />
    <glyph glyph-name="twosuperior" unicode="&#xb2;" horiz-adv-x="384" 
d="M131 362h132q31 0 57 19.5t34 19.5q5 0 10 -5t5 -10q0 -3 -2.5 -9l-8 -20t-9.5 -33q-5 -26 -32 -26h-269q-16 0 -22 4t-6 15q0 29 38 72.5t83.5 82t83.5 86.5t38 84q0 30 -20.5 49t-52.5 19q-28 0 -55.5 -18.5t-27.5 -43.5q0 -11 9 -23t9 -20q0 -14 -13 -21t-29 -7
q-24 0 -38 14.5t-14 37.5q0 48 50 83.5t124 35.5q76 0 117 -33t41 -82q0 -37 -26.5 -74t-61 -63t-78 -64t-66.5 -70z" />
    <glyph glyph-name="threesuperior" unicode="&#xb3;" horiz-adv-x="384" 
d="M362 423q0 -66 -54.5 -101t-131.5 -35q-24 0 -51 5t-53.5 15.5t-43.5 29.5t-17 44q0 38 43 38q19 0 27.5 -6.5t9.5 -23.5q8 -66 76 -66q47 0 71 27t24 70q0 53 -33 73t-96 20q-31 0 -31 19q0 5 2 8.5t4.5 5t7.5 3t8 1.5t9.5 0.5t7.5 0.5q55 5 79 24t24 65q0 32 -19.5 52
t-53.5 20q-22 0 -39 -10.5t-17 -30.5q0 -5 2 -15.5t1 -16.5q0 -11 -12 -16.5t-26 -5.5q-47 0 -47 36q0 39 45.5 67t111.5 28q60 0 105 -29t45 -82q0 -39 -28 -63.5t-71 -34.5v-2q49 -7 85 -38.5t36 -75.5z" />
    <glyph glyph-name="acute" unicode="&#xb4;" horiz-adv-x="259" 
d="M246 649l-120 -95q-28 -20 -37 -20q-19 0 -19 18q0 9 15 33l52 91q15 26 26 34t31 8h56q29 0 29 -27q0 -6 -1.5 -11t-6 -9.5t-7.5 -7t-9.5 -7.5t-8.5 -7z" />
    <glyph glyph-name="mu" unicode="&#xb5;" horiz-adv-x="570" 
d="M384 156v204q0 24 -7 36.5t-16 15t-16 8.5t-7 18q0 20 55.5 35t79.5 15q20 0 30.5 -15.5t10.5 -58.5v-317q0 -19 8 -30.5t17.5 -15t17.5 -9.5t8 -15q0 -27 -37 -27h-76q-35 0 -45 12.5t-15 50.5q-70 -73 -166 -73q-19 0 -34 3v-126q0 -36 -14.5 -49.5t-50.5 -13.5
t-50.5 13.5t-14.5 49.5v493q0 24 -7 36.5t-16 15t-16 8.5t-7 18q0 20 55.5 35t79.5 15q20 0 30.5 -15.5t10.5 -58.5v-237q0 -66 17.5 -89.5t62.5 -23.5q44 0 78 26t34 66z" />
    <glyph glyph-name="paragraph" unicode="&#xb6;" horiz-adv-x="600" 
d="M257 732h214q30 0 38.5 -12.5t8.5 -52.5v-805q0 -50 -46 -50t-46 50v746q0 20 -5 27t-19 7t-19 -7t-5 -27v-746q0 -50 -46 -50t-46 50v404q-33 -34 -76 -34q-70 0 -115 68t-45 165q0 121 59 194t148 73z" />
    <glyph glyph-name="periodcentered" unicode="&#xb7;" horiz-adv-x="320" 
d="M89 239q0 29 21 50t50 21t50 -21t21 -50t-21 -50t-50 -21t-50 21t-21 50z" />
    <glyph glyph-name="cedilla" unicode="&#xb8;" horiz-adv-x="259" 
d="M170 0l-24 -56h16q41 0 66.5 -20t25.5 -59q0 -85 -119 -85q-45 0 -69 16t-24 34q0 9 5.5 15.5t14.5 6.5q16 0 35.5 -10t31.5 -10q16 0 30.5 10t14.5 26q0 28 -35 28q-16 0 -31.5 -2.5t-17.5 -2.5q-11 0 -11 11q0 10 5 23l34 75h52z" />
    <glyph glyph-name="onesuperior" unicode="&#xb9;" horiz-adv-x="384" 
d="M244 719v-331q0 -30 8.5 -40t33.5 -12q40 -1 40 -20q0 -18 -31 -18h-202q-33 0 -33 18q0 16 42 20q29 2 37.5 11.5t8.5 39.5v239q0 30 -9 38t-42 7h-22q-28 0 -28 17q0 15 33 19q44 6 86 26t52 20q16 0 21 -8.5t5 -25.5z" />
    <glyph glyph-name="ordmasculine" unicode="&#xba;" horiz-adv-x="354" 
d="M0 598q0 66 51 108t126 42q74 0 125.5 -42t51.5 -108q0 -65 -51.5 -106.5t-125.5 -41.5q-75 0 -126 41.5t-51 106.5zM90 598q0 -46 20 -79t67 -33t67 33t20 79t-20 80t-67 34t-67 -34t-20 -80z" />
    <glyph glyph-name="guillemotright" unicode="&#xbb;" horiz-adv-x="360" 
d="M313 198l-78 -101q-15 -20 -21.5 -25.5t-15.5 -5.5q-18 0 -18 19q0 8 12 36l48 104q5 10 5 14t-5 14l-48 104q-12 28 -12 36q0 19 18 19q9 0 15.5 -5.5t21.5 -25.5l78 -101q23 -30 23 -40q0 -12 -23 -42zM157 198l-78 -101q-15 -20 -21.5 -25.5t-15.5 -5.5q-18 0 -18 19
q0 8 12 36l48 104q5 10 5 14t-5 14l-48 104q-12 28 -12 36q0 19 18 19q9 0 15.5 -5.5t21.5 -25.5l78 -101q23 -30 23 -40q0 -12 -23 -42z" />
    <glyph glyph-name="onequarter" unicode="&#xbc;" horiz-adv-x="960" 
d="M824 115v-57q0 -25 26 -28q16 -1 16 -14q0 -16 -31 -16h-119q-31 0 -31 16q0 13 16 14q27 3 27 28v57h-164q-22 0 -28.5 5t-6.5 16q0 49 71 156.5t134 149.5q19 12 47 12t35.5 -9.5t7.5 -36.5v-253h49q11 0 16.5 -0.5t10 -5t4.5 -13.5q0 -21 -28 -21h-52zM728 155v227
q-103 -113 -145 -227h145zM245 2l435 740q4 6 33 6q28 0 29 -8q0 -6 -4 -10l-436 -742q-3 -4 -32 -4q-28 0 -29 8q0 6 4 10zM244 719v-331q0 -30 8.5 -40t33.5 -12q40 -1 40 -20q0 -18 -31 -18h-202q-33 0 -33 18q0 16 42 20q29 2 37.5 11.5t8.5 39.5v239q0 30 -9 38t-42 7
h-22q-28 0 -28 17q0 15 33 19q44 6 86 26t52 20q16 0 21 -8.5t5 -25.5z" />
    <glyph glyph-name="onehalf" unicode="&#xbd;" horiz-adv-x="960" 
d="M663 64h132q31 0 57 19.5t34 19.5q5 0 10 -5t5 -10q0 -3 -2.5 -9l-8 -20t-9.5 -33q-5 -26 -32 -26h-269q-16 0 -22 4t-6 15q0 29 38 72.5t83.5 82t83.5 86.5t38 84q0 30 -20.5 49t-52.5 19q-28 0 -55.5 -18.5t-27.5 -43.5q0 -11 9 -23t9 -20q0 -14 -13 -21t-29 -7
q-24 0 -38 14.5t-14 37.5q0 48 50 83.5t124 35.5q76 0 117 -33t41 -82q0 -37 -26.5 -74t-61 -63t-78 -64t-66.5 -70zM244 719v-331q0 -29 6.5 -39.5t35.5 -12.5q32 -2 37 -10q3 -4 3 -10q0 -18 -31 -18h-202q-33 0 -33 18q0 17 43 20q31 2 38 11.5t7 39.5v239q0 30 -9 38
t-42 7h-22q-28 0 -28 17q0 3 1 6t3.5 4.5t4 3t6 2.5t6 1t6.5 1l6 1q44 6 86 26t52 20q16 0 21 -8.5t5 -25.5zM219 2l435 740q4 6 33 6q28 0 29 -8q0 -6 -4 -10l-436 -742q-3 -4 -32 -4q-28 0 -29 8q0 6 4 10z" />
    <glyph glyph-name="threequarters" unicode="&#xbe;" horiz-adv-x="960" 
d="M824 115v-57q0 -25 26 -28q16 -1 16 -14q0 -16 -31 -16h-119q-31 0 -31 16q0 13 16 14q27 3 27 28v57h-164q-22 0 -28.5 5t-6.5 16q0 49 71 156.5t134 149.5q19 12 47 12t35.5 -9.5t7.5 -36.5v-253h49q11 0 16.5 -0.5t10 -5t4.5 -13.5q0 -21 -28 -21h-52zM728 155v227
q-103 -113 -145 -227h145zM362 423q0 -66 -54.5 -101t-131.5 -35q-24 0 -51 5t-53.5 15.5t-43.5 29.5t-17 44q0 38 43 38q19 0 27.5 -6.5t9.5 -23.5q8 -66 76 -66q47 0 71 27t24 70q0 53 -33 73t-96 20q-31 0 -31 19q0 5 2 8.5t4.5 5t7.5 3t8 1.5t9.5 0.5t7.5 0.5
q55 5 79 24t24 65q0 32 -19.5 52t-53.5 20q-22 0 -39 -10.5t-17 -30.5q0 -5 2 -15.5t1 -16.5q0 -11 -12 -16.5t-26 -5.5q-47 0 -47 36q0 39 45.5 67t111.5 28q60 0 105 -29t45 -82q0 -39 -28 -63.5t-71 -34.5v-2q49 -7 85 -38.5t36 -75.5zM245 2l435 740q4 6 33 6
q28 0 29 -8q0 -6 -4 -10l-436 -742q-3 -4 -32 -4q-28 0 -29 8q0 6 4 10z" />
    <glyph glyph-name="questiondown" unicode="&#xbf;" horiz-adv-x="500" 
d="M336 314v-109q0 -14 -17 -26t-41.5 -24.5t-49.5 -30.5t-42 -54t-17 -86q0 -54 26.5 -90t78.5 -36q33 0 57 17t24 51q0 5 -2 15t-2 17q0 13 16.5 27.5t46.5 14.5q26 0 42.5 -14.5t16.5 -39.5q0 -66 -65.5 -104t-152.5 -38q-105 0 -166.5 55t-61.5 132q0 47 12.5 84.5
t33 61t45 41.5t49.5 29l45.5 20.5t33 20t12.5 22.5q0 62 7 80t31 18t32 -13t8 -41zM291 572q32 0 56 -19.5t24 -50.5q0 -30 -24 -50t-56 -20t-56 20t-24 50q0 31 24 50.5t56 19.5z" />
    <glyph glyph-name="Agrave" unicode="&#xc0;" horiz-adv-x="730" 
d="M480 246h-294q-12 -29 -28 -86.5t-16 -73.5q0 -9 8 -15t17.5 -9t17.5 -11.5t8 -22.5q0 -28 -33 -28h-136q-27 0 -27 28q0 15 7.5 23.5t17 11t20.5 11.5t16 26q55 184 126 354t124 258q12 21 24.5 28.5t37.5 7.5q27 0 36.5 -4t15.5 -14q54 -95 100.5 -206t101 -265.5
t59.5 -166.5q6 -15 28.5 -26t22.5 -36q0 -30 -34 -30h-188q-29 0 -29 28q0 14 7 23t16 12t16 8t7 13q0 9 -5 26t-19 59.5zM210 318h243l-123 300zM360 791l-120 95l-8 5.5t-7.5 6t-6.5 6t-6 7t-3.5 8t-1.5 9.5q0 27 29 27h56q20 0 31 -8t26 -34l52 -91q15 -24 15 -33
q0 -18 -19 -18q-10 0 -37 20z" />
    <glyph glyph-name="Aacute" unicode="&#xc1;" horiz-adv-x="730" 
d="M480 246h-294q-12 -29 -28 -86.5t-16 -73.5q0 -9 8 -15t17.5 -9t17.5 -11.5t8 -22.5q0 -28 -33 -28h-136q-27 0 -27 28q0 15 7.5 23.5t17 11t20.5 11.5t16 26q55 184 126 354t124 258q12 21 24.5 28.5t37.5 7.5q27 0 36.5 -4t15.5 -14q54 -95 100.5 -206t101 -265.5
t59.5 -166.5q6 -15 28.5 -26t22.5 -36q0 -30 -34 -30h-188q-29 0 -29 28q0 14 7 23t16 12t16 8t7 13q0 9 -5 26t-19 59.5zM210 318h243l-123 300zM473 886l-120 -95q-27 -20 -37 -20q-19 0 -19 18q0 9 15 33l52 91q15 26 26 34t31 8h56q29 0 29 -27q0 -6 -1.5 -11t-6 -9.5
t-7.5 -7t-9.5 -7.5t-8.5 -7z" />
    <glyph glyph-name="Acircumflex" unicode="&#xc2;" horiz-adv-x="730" 
d="M480 246h-294q-12 -29 -28 -86.5t-16 -73.5q0 -9 8 -15t17.5 -9t17.5 -11.5t8 -22.5q0 -28 -33 -28h-136q-27 0 -27 28q0 15 7.5 23.5t17 11t20.5 11.5t16 26q55 184 126 354t124 258q12 21 24.5 28.5t37.5 7.5q27 0 36.5 -4t15.5 -14q54 -95 100.5 -206t101 -265.5
t59.5 -166.5q6 -15 28.5 -26t22.5 -36q0 -30 -34 -30h-188q-29 0 -29 28q0 14 7 23t16 12t16 8t7 13q0 9 -5 26t-19 59.5zM210 318h243l-123 300zM356 861l-119 -75q-30 -15 -36 -15q-7 0 -12.5 5.5t-5.5 11.5q0 11 21 34l94 97q37 40 57 40q6 0 12.5 -2.5t13.5 -8t11 -9
l12 -11t9 -8.5l94 -96q22 -24 22 -36q0 -6 -5.5 -11.5t-12.5 -5.5q-9 0 -36 15z" />
    <glyph glyph-name="Atilde" unicode="&#xc3;" horiz-adv-x="730" 
d="M480 246h-294q-12 -29 -28 -86.5t-16 -73.5q0 -9 8 -15t17.5 -9t17.5 -11.5t8 -22.5q0 -28 -33 -28h-136q-27 0 -27 28q0 15 7.5 23.5t17 11t20.5 11.5t16 26q55 184 126 354t124 258q12 21 24.5 28.5t37.5 7.5q27 0 36.5 -4t15.5 -14q54 -95 100.5 -206t101 -265.5
t59.5 -166.5q6 -15 28.5 -26t22.5 -36q0 -30 -34 -30h-188q-29 0 -29 28q0 14 7 23t16 12t16 8t7 13q0 9 -5 26t-19 59.5zM210 318h243l-123 300zM260 840q-16 0 -27.5 -13t-20 -26.5t-17.5 -13.5q-16 0 -16 20q0 41 40 74t82 33q35 0 82 -27t66 -27q22 0 42 22t26 22
q17 0 17 -20q0 -33 -38.5 -65.5t-87.5 -32.5q-34 0 -81 27t-67 27z" />
    <glyph glyph-name="Adieresis" unicode="&#xc4;" horiz-adv-x="730" 
d="M480 246h-294q-12 -29 -28 -86.5t-16 -73.5q0 -9 8 -15t17.5 -9t17.5 -11.5t8 -22.5q0 -28 -33 -28h-136q-27 0 -27 28q0 15 7.5 23.5t17 11t20.5 11.5t16 26q55 184 126 354t124 258q12 21 24.5 28.5t37.5 7.5q27 0 36.5 -4t15.5 -14q54 -95 100.5 -206t101 -265.5
t59.5 -166.5q6 -15 28.5 -26t22.5 -36q0 -30 -34 -30h-188q-29 0 -29 28q0 14 7 23t16 12t16 8t7 13q0 9 -5 26t-19 59.5zM210 318h243l-123 300zM329 850q0 -32 -22.5 -49t-54.5 -17t-54.5 17t-22.5 49t22.5 49t54.5 17t54.5 -17t22.5 -49zM538 850q0 -32 -22.5 -49
t-54.5 -17t-54.5 17t-22.5 49t22.5 49t54.5 17t54.5 -17t22.5 -49z" />
    <glyph glyph-name="Aring" unicode="&#xc5;" horiz-adv-x="730" 
d="M480 246h-294q-12 -29 -28 -86.5t-16 -73.5q0 -9 8 -15t17.5 -9t17.5 -11.5t8 -22.5q0 -28 -33 -28h-136q-27 0 -27 28q0 15 7.5 23.5t17 11t20.5 11.5t16 26q55 184 126 354t124 258q12 21 24.5 28.5t37.5 7.5q27 0 36.5 -4t15.5 -14q54 -95 100.5 -206t101 -265.5
t59.5 -166.5q6 -15 28.5 -26t22.5 -36q0 -30 -34 -30h-188q-29 0 -29 28q0 14 7 23t16 12t16 8t7 13q0 9 -5 26t-19 59.5zM210 318h243l-123 300zM357 758q-43 0 -73.5 30.5t-30.5 73.5t31 73.5t73 30.5t73 -30.5t31 -73.5t-30.5 -73.5t-73.5 -30.5zM357 802q25 0 42.5 17.5
t17.5 42.5t-17.5 42.5t-42.5 17.5t-42.5 -17.5t-17.5 -42.5t17.5 -42.5t42.5 -17.5z" />
    <glyph glyph-name="AE" unicode="&#xc6;" horiz-adv-x="980" 
d="M448 100v146q-222 0 -264 -5q-5 -16 -19 -49t-23 -59.5t-9 -42.5q0 -18 19.5 -34t19.5 -33q0 -23 -35 -23h-127q-24 0 -24 28q0 16 23 34t32 40q150 379 326 589q22 26 34 33.5t31 7.5h447q36 0 47.5 -19t11.5 -86q0 -29 -17 -29q-10 0 -17 5.5t-21 17.5t-31 22
q-36 21 -147 21q-81 0 -100 -11t-19 -59v-164h166q33 0 55 17t32 17q16 0 21.5 -15t5.5 -49q0 -46 -4 -60t-22 -14q-10 0 -17.5 5.5t-13 12.5t-20.5 12.5t-38 5.5h-165v-179q0 -79 11.5 -97t54.5 -18q213 0 244 46q25 37 47 37q29 0 29 -32q0 -67 -16.5 -93t-56.5 -26h-461
q-46 0 -46 30q0 14 9 21.5t19 9.5t19 11.5t9 27.5zM216 314h232v286q0 58 -8 58q-4 0 -6 -1.5t-6.5 -7t-7.5 -8.5q-37 -38 -98 -132t-106 -195z" />
    <glyph glyph-name="Ccedilla" unicode="&#xc7;" horiz-adv-x="740" 
d="M451 -14l-18 -42h16q41 0 66.5 -20t25.5 -59q0 -85 -119 -85q-45 0 -69 16t-24 34q0 9 5.5 15.5t14.5 6.5q16 0 35.5 -10t31.5 -10q16 0 30.5 10t14.5 26q0 28 -35 28q-16 0 -31.5 -2.5t-17.5 -2.5q-11 0 -11 11q0 10 5 23l27 59q-154 5 -260 107t-106 257
q0 169 121 284.5t289 115.5q87 0 168.5 -35.5t85.5 -60.5q10 -60 10 -109q0 -33 -30 -33q-6 0 -11 2.5t-9 8.5t-6 10t-5.5 13.5t-5.5 13.5q-20 50 -70.5 86t-129.5 36q-121 0 -184 -87t-63 -225q0 -131 64 -218.5t188 -87.5q51 0 95 19t67.5 41.5l44.5 41.5t33 19
q13 0 22 -8t9 -17q0 -47 -78 -104.5t-186 -67.5z" />
    <glyph glyph-name="Egrave" unicode="&#xc8;" horiz-adv-x="630" 
d="M549 0h-479q-46 0 -46 30q0 14 9 21.5t19 9.5t19 11.5t9 27.5v532q0 18 -9 27.5t-19 11.5t-19 9.5t-9 21.5q0 30 46 30h459q36 0 47.5 -19t11.5 -86q0 -29 -17 -29q-10 0 -17 5.5t-21 17.5t-31 22q-23 14 -56.5 17.5t-100.5 3.5q-81 0 -99 -10.5t-18 -59.5v-164h174
q33 0 55 17t32 17q16 0 21.5 -15t5.5 -49q0 -46 -4 -60t-22 -14q-10 0 -17.5 5.5t-13 12.5t-20.5 12.5t-38 5.5h-173v-179q0 -79 10.5 -97t53.5 -18q114 0 175.5 10t78.5 36q25 37 47 37q29 0 29 -32q0 -67 -16.5 -93t-56.5 -26zM315 791l-120 95l-8 5.5t-7.5 6t-6.5 6t-6 7
t-3.5 8t-1.5 9.5q0 27 29 27h56q20 0 31 -8t26 -34l52 -91q15 -24 15 -33q0 -18 -19 -18q-10 0 -37 20z" />
    <glyph glyph-name="Eacute" unicode="&#xc9;" horiz-adv-x="630" 
d="M549 0h-479q-46 0 -46 30q0 14 9 21.5t19 9.5t19 11.5t9 27.5v532q0 18 -9 27.5t-19 11.5t-19 9.5t-9 21.5q0 30 46 30h459q36 0 47.5 -19t11.5 -86q0 -29 -17 -29q-10 0 -17 5.5t-21 17.5t-31 22q-23 14 -56.5 17.5t-100.5 3.5q-81 0 -99 -10.5t-18 -59.5v-164h174
q33 0 55 17t32 17q16 0 21.5 -15t5.5 -49q0 -46 -4 -60t-22 -14q-10 0 -17.5 5.5t-13 12.5t-20.5 12.5t-38 5.5h-173v-179q0 -79 10.5 -97t53.5 -18q114 0 175.5 10t78.5 36q25 37 47 37q29 0 29 -32q0 -67 -16.5 -93t-56.5 -26zM432 886l-120 -95q-27 -20 -37 -20
q-19 0 -19 18q0 9 15 33l52 91q15 26 26 34t31 8h56q29 0 29 -27q0 -6 -1.5 -11t-6 -9.5t-7.5 -7t-9.5 -7.5t-8.5 -7z" />
    <glyph glyph-name="Ecircumflex" unicode="&#xca;" horiz-adv-x="630" 
d="M549 0h-479q-46 0 -46 30q0 14 9 21.5t19 9.5t19 11.5t9 27.5v532q0 18 -9 27.5t-19 11.5t-19 9.5t-9 21.5q0 30 46 30h459q36 0 47.5 -19t11.5 -86q0 -29 -17 -29q-10 0 -17 5.5t-21 17.5t-31 22q-23 14 -56.5 17.5t-100.5 3.5q-81 0 -99 -10.5t-18 -59.5v-164h174
q33 0 55 17t32 17q16 0 21.5 -15t5.5 -49q0 -46 -4 -60t-22 -14q-10 0 -17.5 5.5t-13 12.5t-20.5 12.5t-38 5.5h-173v-179q0 -79 10.5 -97t53.5 -18q114 0 175.5 10t78.5 36q25 37 47 37q29 0 29 -32q0 -67 -16.5 -93t-56.5 -26zM315 861l-119 -75q-30 -15 -36 -15t-12 5.5
t-6 11.5q0 11 21 34l94 97q37 40 57 40q6 0 12.5 -2.5t13.5 -8t11 -9l12 -11t9 -8.5l94 -96q22 -24 22 -36q0 -6 -6 -11.5t-12 -5.5q-9 0 -36 15z" />
    <glyph glyph-name="Edieresis" unicode="&#xcb;" horiz-adv-x="630" 
d="M549 0h-479q-46 0 -46 30q0 14 9 21.5t19 9.5t19 11.5t9 27.5v532q0 18 -9 27.5t-19 11.5t-19 9.5t-9 21.5q0 30 46 30h459q36 0 47.5 -19t11.5 -86q0 -29 -17 -29q-10 0 -17 5.5t-21 17.5t-31 22q-23 14 -56.5 17.5t-100.5 3.5q-81 0 -99 -10.5t-18 -59.5v-164h174
q33 0 55 17t32 17q16 0 21.5 -15t5.5 -49q0 -46 -4 -60t-22 -14q-10 0 -17.5 5.5t-13 12.5t-20.5 12.5t-38 5.5h-173v-179q0 -79 10.5 -97t53.5 -18q114 0 175.5 10t78.5 36q25 37 47 37q29 0 29 -32q0 -67 -16.5 -93t-56.5 -26zM288 850q0 -32 -22.5 -49t-54.5 -17
t-54.5 17t-22.5 49t22.5 49t54.5 17t54.5 -17t22.5 -49zM497 850q0 -32 -22.5 -49t-54.5 -17t-54.5 17t-22.5 49t22.5 49t54.5 17t54.5 -17t22.5 -49z" />
    <glyph glyph-name="Igrave" unicode="&#xcc;" horiz-adv-x="310" 
d="M229 632v-532q0 -18 8.5 -27.5t19.5 -11.5t19.5 -9.5t8.5 -21.5q0 -30 -46 -30h-168q-46 0 -46 30q0 14 8.5 21.5t19.5 9.5t19.5 11.5t8.5 27.5v532q0 18 -8.5 27.5t-19.5 11.5t-19.5 9.5t-8.5 21.5q0 30 46 30h168q46 0 46 -30q0 -14 -8.5 -21.5t-19.5 -9.5t-19.5 -11.5
t-8.5 -27.5zM150 791l-120 95l-8 5.5t-7.5 6t-6.5 6t-6 7t-3.5 8t-1.5 9.5q0 27 29 27h56q20 0 31 -8t26 -34l52 -91q15 -24 15 -33q0 -18 -19 -18q-9 0 -37 20z" />
    <glyph glyph-name="Iacute" unicode="&#xcd;" horiz-adv-x="310" 
d="M229 632v-532q0 -18 8.5 -27.5t19.5 -11.5t19.5 -9.5t8.5 -21.5q0 -30 -46 -30h-168q-46 0 -46 30q0 14 8.5 21.5t19.5 9.5t19.5 11.5t8.5 27.5v532q0 18 -8.5 27.5t-19.5 11.5t-19.5 9.5t-8.5 21.5q0 30 46 30h168q46 0 46 -30q0 -14 -8.5 -21.5t-19.5 -9.5t-19.5 -11.5
t-8.5 -27.5zM263 886l-120 -95q-27 -20 -37 -20q-19 0 -19 18q0 9 15 33l52 91q15 26 26 34t31 8h56q29 0 29 -27q0 -6 -1.5 -11t-6 -9.5t-7.5 -7t-9.5 -7.5t-8.5 -7z" />
    <glyph glyph-name="Icircumflex" unicode="&#xce;" horiz-adv-x="310" 
d="M229 632v-532q0 -18 8.5 -27.5t19.5 -11.5t19.5 -9.5t8.5 -21.5q0 -30 -46 -30h-168q-46 0 -46 30q0 14 8.5 21.5t19.5 9.5t19.5 11.5t8.5 27.5v532q0 18 -8.5 27.5t-19.5 11.5t-19.5 9.5t-8.5 21.5q0 30 46 30h168q46 0 46 -30q0 -14 -8.5 -21.5t-19.5 -9.5t-19.5 -11.5
t-8.5 -27.5zM146 861l-119 -75q-30 -15 -36 -15q-7 0 -12.5 5.5t-5.5 11.5q0 11 21 34l94 97q37 40 57 40q6 0 12.5 -2.5t13.5 -8t11 -9l12 -11t9 -8.5l94 -96q22 -24 22 -36q0 -6 -5.5 -11.5t-12.5 -5.5q-9 0 -36 15z" />
    <glyph glyph-name="Idieresis" unicode="&#xcf;" horiz-adv-x="310" 
d="M229 632v-532q0 -18 8.5 -27.5t19.5 -11.5t19.5 -9.5t8.5 -21.5q0 -30 -46 -30h-168q-46 0 -46 30q0 14 8.5 21.5t19.5 9.5t19.5 11.5t8.5 27.5v532q0 18 -8.5 27.5t-19.5 11.5t-19.5 9.5t-8.5 21.5q0 30 46 30h168q46 0 46 -30q0 -14 -8.5 -21.5t-19.5 -9.5t-19.5 -11.5
t-8.5 -27.5zM119 850q0 -32 -22.5 -49t-54.5 -17t-54.5 17t-22.5 49t22.5 49t54.5 17t54.5 -17t22.5 -49zM328 850q0 -32 -22.5 -49t-54.5 -17t-54.5 17t-22.5 49t22.5 49t54.5 17t54.5 -17t22.5 -49z" />
    <glyph glyph-name="Eth" unicode="&#xd0;" horiz-adv-x="780" 
d="M30 432h50v200q0 18 -9 27.5t-19 11.5t-19 9.5t-9 21.5q0 30 46 30h206q244 0 360.5 -96.5t116.5 -268.5q0 -170 -106 -268.5t-299 -98.5h-278q-46 0 -46 30q0 14 9 21.5t19 9.5t19 11.5t9 27.5v264h-50q-28 0 -28 34t28 34zM228 432h178q28 0 28 -34t-28 -34h-178v-204
q0 -62 13.5 -77t68.5 -15q134 0 208.5 82t74.5 216q0 137 -74 217.5t-209 80.5q-55 0 -68.5 -15t-13.5 -77v-140z" />
    <glyph glyph-name="Ntilde" unicode="&#xd1;" horiz-adv-x="750" 
d="M198 0h-124q-28 0 -39 7.5t-11 22.5q0 14 12 21.5t27 9.5t27 11.5t12 27.5v532q0 18 -12 27.5t-27 11.5t-27 9.5t-12 21.5q0 30 34 30h148q31 0 74 -49q58 -65 298 -415l1 -1l1 -1v-1l1 -1l1 -1v-1l1 -1l1 -1v-1l1 -1l1 -1v-1l1 -1l1 -1v-1l1 -1l1 -1v-1l1 -1l1 -1l1 -1
v-1l1 -1l1 -1v-1l1 -1h2v390q0 18 -9.5 27.5t-20.5 11.5t-20.5 9.5t-9.5 21.5q0 30 46 30h102q46 0 46 -30q0 -14 -9.5 -21.5t-20.5 -9.5t-20.5 -11.5t-9.5 -27.5v-578q0 -40 -7 -52t-38 -12q-18 0 -27 3t-17 15l-404 570h-3v-478q0 -18 10.5 -27.5t23.5 -11.5t23.5 -9.5
t10.5 -21.5q0 -30 -46 -30zM279 840q-16 0 -27.5 -13t-20 -26.5t-17.5 -13.5q-16 0 -16 20q0 41 40 74t82 33q34 0 81 -27t67 -27q22 0 42 22t26 22q17 0 17 -20q0 -33 -38.5 -65.5t-87.5 -32.5q-35 0 -82 27t-66 27z" />
    <glyph glyph-name="Ograve" unicode="&#xd2;" horiz-adv-x="830" 
d="M798 366q0 -164 -106.5 -273t-276.5 -109t-276.5 109t-106.5 273t106.5 273t276.5 109t276.5 -109t106.5 -273zM638 366q0 137 -60 225.5t-163 88.5t-163 -88.5t-60 -225.5t60 -225.5t163 -88.5t163 88.5t60 225.5zM419 791l-120 95l-8 5.5t-7.5 6t-6.5 6t-6 7t-3.5 8
t-1.5 9.5q0 27 29 27h56q20 0 31 -8t26 -34l52 -91q15 -24 15 -33q0 -18 -19 -18q-9 0 -37 20z" />
    <glyph glyph-name="Oacute" unicode="&#xd3;" horiz-adv-x="830" 
d="M798 366q0 -164 -106.5 -273t-276.5 -109t-276.5 109t-106.5 273t106.5 273t276.5 109t276.5 -109t106.5 -273zM638 366q0 137 -60 225.5t-163 88.5t-163 -88.5t-60 -225.5t60 -225.5t163 -88.5t163 88.5t60 225.5zM532 886l-120 -95q-28 -20 -37 -20q-19 0 -19 18
q0 9 15 33l52 91q15 26 26 34t31 8h56q29 0 29 -27q0 -6 -1.5 -11t-6 -9.5t-7.5 -7t-9.5 -7.5t-8.5 -7z" />
    <glyph glyph-name="Ocircumflex" unicode="&#xd4;" horiz-adv-x="830" 
d="M798 366q0 -164 -106.5 -273t-276.5 -109t-276.5 109t-106.5 273t106.5 273t276.5 109t276.5 -109t106.5 -273zM638 366q0 137 -60 225.5t-163 88.5t-163 -88.5t-60 -225.5t60 -225.5t163 -88.5t163 88.5t60 225.5zM415 861l-119 -75q-30 -15 -36 -15t-12 5.5t-6 11.5
q0 11 21 34l94 97q37 40 57 40q6 0 12.5 -2.5t13.5 -8t11 -9l12 -11t9 -8.5l94 -96q22 -24 22 -36q0 -6 -6 -11.5t-12 -5.5q-9 0 -36 15z" />
    <glyph glyph-name="Otilde" unicode="&#xd5;" horiz-adv-x="830" 
d="M798 366q0 -164 -106.5 -273t-276.5 -109t-276.5 109t-106.5 273t106.5 273t276.5 109t276.5 -109t106.5 -273zM638 366q0 137 -60 225.5t-163 88.5t-163 -88.5t-60 -225.5t60 -225.5t163 -88.5t163 88.5t60 225.5zM319 840q-16 0 -27.5 -13t-20 -26.5t-17.5 -13.5
q-16 0 -16 20q0 41 40 74t82 33q34 0 81 -27t67 -27q22 0 42 22t26 22q17 0 17 -20q0 -33 -38.5 -65.5t-87.5 -32.5q-35 0 -82 27t-66 27z" />
    <glyph glyph-name="Odieresis" unicode="&#xd6;" horiz-adv-x="830" 
d="M798 366q0 -164 -106.5 -273t-276.5 -109t-276.5 109t-106.5 273t106.5 273t276.5 109t276.5 -109t106.5 -273zM638 366q0 137 -60 225.5t-163 88.5t-163 -88.5t-60 -225.5t60 -225.5t163 -88.5t163 88.5t60 225.5zM388 850q0 -32 -22.5 -49t-54.5 -17t-54.5 17t-22.5 49
t22.5 49t54.5 17t54.5 -17t22.5 -49zM597 850q0 -32 -22.5 -49t-54.5 -17t-54.5 17t-22.5 49t22.5 49t54.5 17t54.5 -17t22.5 -49z" />
    <glyph glyph-name="multiply" unicode="&#xd7;" horiz-adv-x="600" 
d="M366 239l173 -173l-67 -66l-172 173l-172 -173l-67 66l173 173l-173 173l67 66l172 -173l172 173l67 -66z" />
    <glyph glyph-name="Oslash" unicode="&#xd8;" horiz-adv-x="830" 
d="M593 564l-298 -469q51 -43 120 -43q103 0 163 88.5t60 225.5q0 118 -45 198zM240 162l300 471q-50 47 -125 47q-103 0 -163 -88.5t-60 -225.5q0 -123 48 -204zM247 20l-69 -109q-16 -25 -51 -25q-15 0 -24 8.5t-9 17.5q0 21 11 38l71 111q-69 51 -106.5 130.5
t-37.5 174.5q0 164 106.5 273t276.5 109q96 0 174 -38l55 86q10 17 21.5 25.5t35.5 8.5q17 0 27 -7.5t10 -19.5t-6 -20l-73 -115q66 -52 102.5 -130.5t36.5 -171.5q0 -164 -106.5 -273t-276.5 -109q-95 0 -168 36z" />
    <glyph glyph-name="Ugrave" unicode="&#xd9;" horiz-adv-x="760" 
d="M70 732h180q18 0 28.5 -8.5t10.5 -21.5q0 -23 -27 -33t-30 -21q-5 -21 -15.5 -148t-10.5 -206q0 -129 50.5 -185.5t153.5 -56.5q198 0 198 224q0 71 -6.5 195.5t-13.5 157.5q-3 15 -15 25.5t-23.5 15t-21 12.5t-9.5 20q0 30 27 30h152q33 0 33 -28q0 -13 -13.5 -19.5
t-27.5 -18t-14 -36.5q0 -6 5 -61t10 -129.5t5 -129.5q0 -326 -325 -326q-145 0 -230 76.5t-85 207.5q0 46 11.5 185.5t14.5 185.5q1 14 -7.5 23t-18.5 12t-18.5 10t-8.5 18q0 30 41 30zM384 791l-120 95l-8 5.5t-7.5 6t-6.5 6t-6 7t-3.5 8t-1.5 9.5q0 27 29 27h56
q20 0 31 -8t26 -34l52 -91q15 -24 15 -33q0 -18 -19 -18q-9 0 -37 20z" />
    <glyph glyph-name="Uacute" unicode="&#xda;" horiz-adv-x="760" 
d="M70 732h180q18 0 28.5 -8.5t10.5 -21.5q0 -23 -27 -33t-30 -21q-5 -21 -15.5 -148t-10.5 -206q0 -129 50.5 -185.5t153.5 -56.5q198 0 198 224q0 71 -6.5 195.5t-13.5 157.5q-3 15 -15 25.5t-23.5 15t-21 12.5t-9.5 20q0 30 27 30h152q33 0 33 -28q0 -13 -13.5 -19.5
t-27.5 -18t-14 -36.5q0 -6 5 -61t10 -129.5t5 -129.5q0 -326 -325 -326q-145 0 -230 76.5t-85 207.5q0 46 11.5 185.5t14.5 185.5q1 14 -7.5 23t-18.5 12t-18.5 10t-8.5 18q0 30 41 30zM497 886l-120 -95q-27 -20 -37 -20q-19 0 -19 18q0 9 15 33l52 91q15 26 26 34t31 8h56
q29 0 29 -27q0 -6 -1.5 -11t-6 -9.5t-7.5 -7t-9.5 -7.5t-8.5 -7z" />
    <glyph glyph-name="Ucircumflex" unicode="&#xdb;" horiz-adv-x="760" 
d="M70 732h180q18 0 28.5 -8.5t10.5 -21.5q0 -23 -27 -33t-30 -21q-5 -21 -15.5 -148t-10.5 -206q0 -129 50.5 -185.5t153.5 -56.5q198 0 198 224q0 71 -6.5 195.5t-13.5 157.5q-3 15 -15 25.5t-23.5 15t-21 12.5t-9.5 20q0 30 27 30h152q33 0 33 -28q0 -13 -13.5 -19.5
t-27.5 -18t-14 -36.5q0 -6 5 -61t10 -129.5t5 -129.5q0 -326 -325 -326q-145 0 -230 76.5t-85 207.5q0 46 11.5 185.5t14.5 185.5q1 14 -7.5 23t-18.5 12t-18.5 10t-8.5 18q0 30 41 30zM380 861l-119 -75q-30 -15 -36 -15q-7 0 -12.5 5.5t-5.5 11.5q0 11 21 34l94 97
q37 40 57 40q6 0 12.5 -2.5t13.5 -8t11 -9l12 -11t9 -8.5l94 -96q22 -24 22 -36q0 -6 -5.5 -11.5t-12.5 -5.5q-9 0 -36 15z" />
    <glyph glyph-name="Udieresis" unicode="&#xdc;" horiz-adv-x="760" 
d="M70 732h180q18 0 28.5 -8.5t10.5 -21.5q0 -23 -27 -33t-30 -21q-5 -21 -15.5 -148t-10.5 -206q0 -129 50.5 -185.5t153.5 -56.5q198 0 198 224q0 71 -6.5 195.5t-13.5 157.5q-3 15 -15 25.5t-23.5 15t-21 12.5t-9.5 20q0 30 27 30h152q33 0 33 -28q0 -13 -13.5 -19.5
t-27.5 -18t-14 -36.5q0 -6 5 -61t10 -129.5t5 -129.5q0 -326 -325 -326q-145 0 -230 76.5t-85 207.5q0 46 11.5 185.5t14.5 185.5q1 14 -7.5 23t-18.5 12t-18.5 10t-8.5 18q0 30 41 30zM353 850q0 -32 -22.5 -49t-54.5 -17t-54.5 17t-22.5 49t22.5 49t54.5 17t54.5 -17
t22.5 -49zM562 850q0 -32 -22.5 -49t-54.5 -17t-54.5 17t-22.5 49t22.5 49t54.5 17t54.5 -17t22.5 -49z" />
    <glyph glyph-name="Yacute" unicode="&#xdd;" horiz-adv-x="720" 
d="M459 0h-168q-46 0 -46 30q0 14 8.5 21.5t19.5 9.5t19.5 11.5t8.5 27.5v188q-48 50 -96 117.5t-77.5 116l-74.5 126.5q-4 8 -32 22t-28 35q0 27 26 27h222q32 0 32 -30q0 -20 -23 -30t-23 -16q0 -21 53 -107.5t125 -182.5q167 232 167 276q0 12 -9 20t-19.5 11t-19.5 10.5
t-9 20.5q0 28 36 28h150q25 0 25 -27q0 -13 -8.5 -19.5l-24 -18.5t-27.5 -34q-22 -41 -53.5 -90l-52 -79l-61 -86.5t-50.5 -71.5v-206q0 -18 8.5 -27.5t19.5 -11.5t19.5 -9.5t8.5 -21.5q0 -30 -46 -30zM477 886l-120 -95q-28 -20 -37 -20q-19 0 -19 18q0 9 15 33l52 91
q15 26 26 34t31 8h56q29 0 29 -27q0 -6 -1.5 -11t-6 -9.5t-7.5 -7t-9.5 -7.5t-8.5 -7z" />
    <glyph glyph-name="Thorn" unicode="&#xde;" horiz-adv-x="650" 
d="M229 472v-254q109 0 183.5 51.5t74.5 132.5q0 65 -41.5 99.5t-122.5 34.5q-54 0 -74 -12.5t-20 -51.5zM229 604h91q170 0 248.5 -52t78.5 -140q0 -123 -115 -189t-303 -68v-55q0 -18 8.5 -27.5t19.5 -11.5t19.5 -9.5t8.5 -21.5q0 -30 -46 -30h-168q-47 0 -47 30
q0 14 9 21.5t19.5 9.5t19.5 11.5t9 27.5v532q0 18 -9 27.5t-19.5 11.5t-19.5 9.5t-9 21.5q0 30 47 30h168q46 0 46 -30q0 -14 -8.5 -21.5t-19.5 -9.5t-19.5 -11.5t-8.5 -27.5v-28z" />
    <glyph glyph-name="germandbls" unicode="&#xdf;" horiz-adv-x="667" 
d="M195 484v-380q0 -34 10.5 -47t10.5 -26q0 -19 -14 -25.5t-48 -5.5h-123q-17 2 -23.5 9t-6.5 24q0 16 10 25t22 12t22 11t10 23v376q0 127 72.5 197.5t193.5 70.5q60 0 114 -20.5t92.5 -68.5t38.5 -115q0 -35 -11 -60t-28 -39.5t-44.5 -22.5t-54 -10.5t-62.5 -2.5v-2
q250 -8 250 -211q0 -102 -66.5 -157t-158.5 -55q-77 0 -126 32t-49 108q0 45 21 80t60 35q36 0 36 -29q0 -14 -21.5 -33.5t-21.5 -48.5q0 -37 24.5 -54.5t60.5 -17.5q58 0 84.5 42.5t26.5 105.5q0 94 -47.5 127.5t-134.5 33.5q-45 0 -59.5 9t-14.5 30q0 27 16.5 36t65.5 9
q69 0 98.5 23t29.5 81q0 55 -30.5 87t-87.5 32q-69 0 -103 -41t-34 -147z" />
    <glyph glyph-name="agrave" unicode="&#xe0;" horiz-adv-x="550" 
d="M484 0h-78q-29 0 -37.5 13t-6.5 41h-4q-20 -31 -63 -47.5t-95 -16.5q-82 0 -129 43t-47 105q0 64 53.5 108.5t125 62t149.5 17.5q0 45 -26 73.5t-74 28.5q-41 0 -80.5 -29t-69.5 -29q-19 0 -31.5 10.5t-12.5 29.5q0 34 58 56t129 22q106 0 171.5 -42.5t65.5 -133.5v-215
q0 -17 8 -27.5t17 -13.5t17 -9.5t8 -15.5q0 -17 -9.5 -24t-38.5 -7zM352 156v116q-83 0 -136.5 -41t-53.5 -92q0 -36 26 -64.5t64 -28.5q45 0 71.5 34.5t28.5 75.5zM266 554l-120 95l-8 5.5t-7.5 6t-6.5 6t-6 7t-3.5 8t-1.5 9.5q0 27 29 27h56q20 0 31 -8t26 -34l52 -91
q15 -24 15 -33q0 -18 -19 -18q-9 0 -37 20z" />
    <glyph glyph-name="aacute" unicode="&#xe1;" horiz-adv-x="550" 
d="M484 0h-78q-29 0 -37.5 13t-6.5 41h-4q-20 -31 -63 -47.5t-95 -16.5q-82 0 -129 43t-47 105q0 64 53.5 108.5t125 62t149.5 17.5q0 45 -26 73.5t-74 28.5q-41 0 -80.5 -29t-69.5 -29q-19 0 -31.5 10.5t-12.5 29.5q0 34 58 56t129 22q106 0 171.5 -42.5t65.5 -133.5v-215
q0 -17 8 -27.5t17 -13.5t17 -9.5t8 -15.5q0 -17 -9.5 -24t-38.5 -7zM352 156v116q-83 0 -136.5 -41t-53.5 -92q0 -36 26 -64.5t64 -28.5q45 0 71.5 34.5t28.5 75.5zM377 649l-120 -95q-27 -20 -37 -20q-19 0 -19 18q0 9 15 33l52 91q15 26 26 34t31 8h56q29 0 29 -27
q0 -6 -1.5 -11t-6 -9.5t-7.5 -7t-9.5 -7.5t-8.5 -7z" />
    <glyph glyph-name="acircumflex" unicode="&#xe2;" horiz-adv-x="550" 
d="M484 0h-78q-29 0 -37.5 13t-6.5 41h-4q-20 -31 -63 -47.5t-95 -16.5q-82 0 -129 43t-47 105q0 64 53.5 108.5t125 62t149.5 17.5q0 45 -26 73.5t-74 28.5q-41 0 -80.5 -29t-69.5 -29q-19 0 -31.5 10.5t-12.5 29.5q0 34 58 56t129 22q106 0 171.5 -42.5t65.5 -133.5v-215
q0 -17 8 -27.5t17 -13.5t17 -9.5t8 -15.5q0 -17 -9.5 -24t-38.5 -7zM352 156v116q-83 0 -136.5 -41t-53.5 -92q0 -36 26 -64.5t64 -28.5q45 0 71.5 34.5t28.5 75.5zM266 624l-119 -75q-30 -15 -36 -15q-7 0 -12.5 6t-5.5 11q0 11 21 34l94 97q37 40 57 40q6 0 12.5 -2.5
t13.5 -8t11 -9l12 -11t9 -8.5l94 -96q22 -24 22 -36q0 -5 -5.5 -11t-12.5 -6q-9 0 -36 15z" />
    <glyph glyph-name="atilde" unicode="&#xe3;" horiz-adv-x="550" 
d="M484 0h-78q-29 0 -37.5 13t-6.5 41h-4q-20 -31 -63 -47.5t-95 -16.5q-82 0 -129 43t-47 105q0 64 53.5 108.5t125 62t149.5 17.5q0 45 -26 73.5t-74 28.5q-41 0 -80.5 -29t-69.5 -29q-19 0 -31.5 10.5t-12.5 29.5q0 34 58 56t129 22q106 0 171.5 -42.5t65.5 -133.5v-215
q0 -17 8 -27.5t17 -13.5t17 -9.5t8 -15.5q0 -17 -9.5 -24t-38.5 -7zM352 156v116q-83 0 -136.5 -41t-53.5 -92q0 -36 26 -64.5t64 -28.5q45 0 71.5 34.5t28.5 75.5zM170 603q-16 0 -27.5 -13.5t-20 -26.5t-17.5 -13q-16 0 -16 20q0 41 40 74t82 33q34 0 81.5 -27t66.5 -27
q22 0 42 22t26 22q17 0 17 -20q0 -33 -38.5 -65.5t-87.5 -32.5q-34 0 -81.5 27t-66.5 27z" />
    <glyph glyph-name="adieresis" unicode="&#xe4;" horiz-adv-x="550" 
d="M484 0h-78q-29 0 -37.5 13t-6.5 41h-4q-20 -31 -63 -47.5t-95 -16.5q-82 0 -129 43t-47 105q0 64 53.5 108.5t125 62t149.5 17.5q0 45 -26 73.5t-74 28.5q-41 0 -80.5 -29t-69.5 -29q-19 0 -31.5 10.5t-12.5 29.5q0 34 58 56t129 22q106 0 171.5 -42.5t65.5 -133.5v-215
q0 -17 8 -27.5t17 -13.5t17 -9.5t8 -15.5q0 -17 -9.5 -24t-38.5 -7zM352 156v116q-83 0 -136.5 -41t-53.5 -92q0 -36 26 -64.5t64 -28.5q45 0 71.5 34.5t28.5 75.5zM239 613q0 -32 -22.5 -49t-54.5 -17t-54.5 17t-22.5 49t22.5 49t54.5 17t54.5 -17t22.5 -49zM448 613
q0 -32 -22.5 -49t-54.5 -17t-54.5 17t-22.5 49t22.5 49t54.5 17t54.5 -17t22.5 -49z" />
    <glyph glyph-name="aring" unicode="&#xe5;" horiz-adv-x="550" 
d="M484 0h-78q-29 0 -37.5 13t-6.5 41h-4q-20 -31 -63 -47.5t-95 -16.5q-82 0 -129 43t-47 105q0 64 53.5 108.5t125 62t149.5 17.5q0 45 -26 73.5t-74 28.5q-41 0 -80.5 -29t-69.5 -29q-19 0 -31.5 10.5t-12.5 29.5q0 34 58 56t129 22q106 0 171.5 -42.5t65.5 -133.5v-215
q0 -17 8 -27.5t17 -13.5t17 -9.5t8 -15.5q0 -17 -9.5 -24t-38.5 -7zM352 156v116q-83 0 -136.5 -41t-53.5 -92q0 -36 26 -64.5t64 -28.5q45 0 71.5 34.5t28.5 75.5zM267 521q-43 0 -73.5 30.5t-30.5 73.5t31 73.5t73 30.5t73 -30.5t31 -73.5t-30.5 -73.5t-73.5 -30.5z
M267 565q25 0 42.5 17.5t17.5 42.5t-17.5 42.5t-42.5 17.5t-42.5 -17.5t-17.5 -42.5t17.5 -42.5t42.5 -17.5z" />
    <glyph glyph-name="ae" unicode="&#xe6;" horiz-adv-x="820" 
d="M464 266q20 -2 52 -2q51 0 101 23.5t50 66.5q0 36 -22.5 58t-56.5 22q-54 0 -89 -48t-35 -120zM24 138q0 71 73 115t184 44q9 0 27 -2.5t28 -2.5q0 63 -23.5 99.5t-71.5 36.5q-33 0 -55.5 -16t-41.5 -32t-44 -16q-18 0 -33 12t-15 26q0 11 10 24.5t30 28t60.5 24
t92.5 9.5q48 0 104.5 -18.5t74.5 -39.5q31 26 78.5 42t89.5 16q79 0 142 -36.5t63 -109.5q0 -70 -63.5 -105t-168.5 -35q-76 0 -103 6q2 -71 39 -108.5t92 -37.5q83 4 145 60l6.5 6.5t6.5 6t6 4t8 3.5t9 1q10 0 18 -6.5t8 -16.5q0 -40 -71 -85t-148 -45q-134 0 -195 74
q-62 -74 -186 -74q-81 0 -128.5 37.5t-47.5 110.5zM336 170v62q-24 3 -30 3q-59 0 -101.5 -30t-42.5 -77q0 -30 18.5 -54t51.5 -24q39 0 64 23t32.5 48t7.5 49z" />
    <glyph glyph-name="ccedilla" unicode="&#xe7;" horiz-adv-x="500" 
d="M311 -7l-21 -49h16q41 0 66.5 -20t25.5 -59q0 -85 -119 -85q-45 0 -69 16t-24 34q0 9 5.5 15.5t14.5 6.5q16 0 35.5 -10t31.5 -10q16 0 30.5 10t14.5 26q0 28 -35 28q-16 0 -31.5 -2.5t-17.5 -2.5q-11 0 -11 11q0 10 5 23l30 65q-102 5 -168 72t-66 170q0 111 74 183.5
t186 72.5q71 0 128 -31.5t57 -72.5q0 -21 -17 -34.5t-46 -13.5q-19 0 -33 15.5t-22 33.5t-26 33.5t-45 15.5q-52 0 -85 -56t-33 -147q0 -76 40.5 -122.5t98.5 -46.5q32 0 59.5 12t42 26.5t29.5 26.5t25 12q11 0 18 -7t7 -17q0 -32 -50.5 -72t-120.5 -50z" />
    <glyph glyph-name="egrave" unicode="&#xe8;" horiz-adv-x="530" 
d="M24 227q1 119 74.5 190t210.5 71q46 0 88 -13t73.5 -46t31.5 -80t-35.5 -81t-94 -50.5t-104.5 -23.5t-98 -10q9 -55 48 -88.5t92 -33.5q78 4 140 60l6 6t7 6.5t6.5 4t8.5 3.5t9 1q23 0 23 -23q0 -41 -72.5 -85.5t-158.5 -44.5q-106 0 -180 66t-75 171zM300 434
q-68 0 -104 -57.5t-34 -138.5q29 3 56 8.5t66.5 18t63.5 38t24 60.5q0 34 -19 52.5t-53 18.5zM292 554l-120 95l-8 5.5t-7.5 6t-6.5 6t-6 7t-3.5 8t-1.5 9.5q0 27 29 27h56q20 0 31 -8t26 -34l52 -91q15 -24 15 -33q0 -18 -19 -18q-9 0 -37 20z" />
    <glyph glyph-name="eacute" unicode="&#xe9;" horiz-adv-x="530" 
d="M24 227q1 119 74.5 190t210.5 71q46 0 88 -13t73.5 -46t31.5 -80t-35.5 -81t-94 -50.5t-104.5 -23.5t-98 -10q9 -55 48 -88.5t92 -33.5q78 4 140 60l6 6t7 6.5t6.5 4t8.5 3.5t9 1q23 0 23 -23q0 -41 -72.5 -85.5t-158.5 -44.5q-106 0 -180 66t-75 171zM300 434
q-68 0 -104 -57.5t-34 -138.5q29 3 56 8.5t66.5 18t63.5 38t24 60.5q0 34 -19 52.5t-53 18.5zM405 649l-120 -95q-27 -20 -37 -20q-19 0 -19 18q0 9 15 33l52 91q15 26 26 34t31 8h56q29 0 29 -27q0 -6 -1.5 -11t-6 -9.5t-7.5 -7t-9.5 -7.5t-8.5 -7z" />
    <glyph glyph-name="ecircumflex" unicode="&#xea;" horiz-adv-x="530" 
d="M24 227q1 119 74.5 190t210.5 71q46 0 88 -13t73.5 -46t31.5 -80t-35.5 -81t-94 -50.5t-104.5 -23.5t-98 -10q9 -55 48 -88.5t92 -33.5q78 4 140 60l6 6t7 6.5t6.5 4t8.5 3.5t9 1q23 0 23 -23q0 -41 -72.5 -85.5t-158.5 -44.5q-106 0 -180 66t-75 171zM300 434
q-68 0 -104 -57.5t-34 -138.5q29 3 56 8.5t66.5 18t63.5 38t24 60.5q0 34 -19 52.5t-53 18.5zM288 624l-119 -75q-30 -15 -36 -15q-7 0 -12.5 6t-5.5 11q0 11 21 34l94 97q37 40 57 40q6 0 12.5 -2.5t13.5 -8t11 -9l12 -11t9 -8.5l94 -96q22 -24 22 -36q0 -5 -5.5 -11
t-12.5 -6q-9 0 -36 15z" />
    <glyph glyph-name="edieresis" unicode="&#xeb;" horiz-adv-x="530" 
d="M24 227q1 119 74.5 190t210.5 71q46 0 88 -13t73.5 -46t31.5 -80t-35.5 -81t-94 -50.5t-104.5 -23.5t-98 -10q9 -55 48 -88.5t92 -33.5q78 4 140 60l6 6t7 6.5t6.5 4t8.5 3.5t9 1q23 0 23 -23q0 -41 -72.5 -85.5t-158.5 -44.5q-106 0 -180 66t-75 171zM300 434
q-68 0 -104 -57.5t-34 -138.5q29 3 56 8.5t66.5 18t63.5 38t24 60.5q0 34 -19 52.5t-53 18.5zM256 613q0 -32 -22.5 -49t-54.5 -17t-54.5 17t-22.5 49t22.5 49t54.5 17t54.5 -17t22.5 -49zM465 613q0 -32 -22.5 -49t-54.5 -17t-54.5 17t-22.5 49t22.5 49t54.5 17t54.5 -17
t22.5 -49z" />
    <glyph glyph-name="igrave" unicode="&#xec;" horiz-adv-x="270" 
d="M217 0h-150q-37 0 -37 26q0 12 7.5 18t16 8t16 13.5t7.5 33.5v259q0 17 -8.5 27t-18.5 14t-18.5 10.5t-8.5 16.5q0 18 26 24q4 1 30.5 11t53 18.5t38.5 8.5q22 0 29 -16t7 -60v-313q0 -22 7.5 -33.5t16 -13.5t16 -8t7.5 -18q0 -26 -37 -26zM139 554l-120 95l-8 5.5
t-7.5 6t-6.5 6t-6 7t-3.5 8t-1.5 9.5q0 27 29 27h56q20 0 31 -8t26 -34l52 -91q15 -24 15 -33q0 -18 -19 -18q-10 0 -37 20z" />
    <glyph glyph-name="iacute" unicode="&#xed;" horiz-adv-x="270" 
d="M217 0h-150q-37 0 -37 26q0 12 7.5 18t16 8t16 13.5t7.5 33.5v259q0 17 -8.5 27t-18.5 14t-18.5 10.5t-8.5 16.5q0 18 26 24q4 1 30.5 11t53 18.5t38.5 8.5q22 0 29 -16t7 -60v-313q0 -22 7.5 -33.5t16 -13.5t16 -8t7.5 -18q0 -26 -37 -26zM252 649l-120 -95
q-28 -20 -37 -20q-19 0 -19 18q0 9 15 33l52 91q15 26 26 34t31 8h56q29 0 29 -27q0 -6 -1.5 -11t-6 -9.5t-7.5 -7t-9.5 -7.5t-8.5 -7z" />
    <glyph glyph-name="icircumflex" unicode="&#xee;" horiz-adv-x="270" 
d="M217 0h-150q-37 0 -37 26q0 12 7.5 18t16 8t16 13.5t7.5 33.5v259q0 17 -8.5 27t-18.5 14t-18.5 10.5t-8.5 16.5q0 18 26 24q4 1 30.5 11t53 18.5t38.5 8.5q22 0 29 -16t7 -60v-313q0 -22 7.5 -33.5t16 -13.5t16 -8t7.5 -18q0 -26 -37 -26zM135 624l-119 -75
q-30 -15 -36 -15t-12 6t-6 11q0 11 21 34l94 97q37 40 57 40q6 0 12.5 -2.5t13.5 -8t11 -9l12 -11t9 -8.5l94 -96q22 -24 22 -36q0 -5 -6 -11t-12 -6q-9 0 -36 15z" />
    <glyph glyph-name="idieresis" unicode="&#xef;" horiz-adv-x="270" 
d="M217 0h-150q-37 0 -37 26q0 12 7.5 18t16 8t16 13.5t7.5 33.5v259q0 17 -8.5 27t-18.5 14t-18.5 10.5t-8.5 16.5q0 18 26 24q4 1 30.5 11t53 18.5t38.5 8.5q22 0 29 -16t7 -60v-313q0 -22 7.5 -33.5t16 -13.5t16 -8t7.5 -18q0 -26 -37 -26zM108 613q0 -32 -22.5 -49
t-54.5 -17t-54.5 17t-22.5 49t22.5 49t54.5 17t54.5 -17t22.5 -49zM317 613q0 -32 -22.5 -49t-54.5 -17t-54.5 17t-22.5 49t22.5 49t54.5 17t54.5 -17t22.5 -49z" />
    <glyph glyph-name="eth" unicode="&#xf0;" horiz-adv-x="590" 
d="M164 595l98 56q-49 44 -109 73q-6 2 -6 16q0 9 7 15.5t17 6.5q9 0 14 -3q66 -23 138 -73l98 55q9 5 21 5q9 0 16.5 -7t8.5 -16q2 -14 -13 -22l-87 -51q97 -88 148 -181.5t51 -210.5q0 -122 -78 -195t-193 -73q-114 0 -192.5 70t-78.5 179t78.5 179t192.5 70q46 0 90 -14
q-32 82 -85 139l-103 -59q-9 -5 -16 -5t-15.5 9.5t-8.5 20.5t7 16zM295 50q58 0 95.5 49.5t37.5 139.5t-37.5 139.5t-95.5 49.5t-95.5 -49.5t-37.5 -139.5t37.5 -139.5t95.5 -49.5z" />
    <glyph glyph-name="ntilde" unicode="&#xf1;" horiz-adv-x="590" 
d="M404 100v184q0 32 -2.5 51.5t-11.5 39.5t-29 29.5t-52 9.5q-47 0 -75.5 -33t-28.5 -75v-206q0 -22 7.5 -33.5t16 -13.5t16 -8t7.5 -18q0 -27 -37 -27h-150q-37 0 -37 27q0 12 7.5 18t16 8t16 13.5t7.5 33.5v244q0 26 -8.5 39.5t-18 15.5t-18 9t-8.5 22q0 25 51.5 41.5
t78.5 16.5q22 0 28 -16t8 -64q69 80 165 80q93 0 137 -47.5t44 -148.5v-192q0 -22 7.5 -33.5t16 -13.5t16 -8t7.5 -18q0 -27 -37 -27h-150q-37 0 -37 27q0 12 7.5 18t16 8t16 13.5t7.5 33.5zM199 603q-16 0 -27.5 -13.5t-20 -26.5t-17.5 -13q-16 0 -16 20q0 41 40 74t82 33
q34 0 81 -27t67 -27q22 0 42 22t26 22q17 0 17 -20q0 -33 -38.5 -65.5t-87.5 -32.5q-35 0 -82 27t-66 27z" />
    <glyph glyph-name="ograve" unicode="&#xf2;" horiz-adv-x="590" 
d="M566 239q0 -109 -78.5 -179t-192.5 -70t-192.5 70t-78.5 179t78.5 179t192.5 70t192.5 -70t78.5 -179zM162 239q0 -91 37 -140t96 -49t96 49t37 140t-37 140t-96 49t-96 -49t-37 -140zM299 554l-120 95l-8 5.5t-7.5 6t-6.5 6t-6 7t-3.5 8t-1.5 9.5q0 27 29 27h56
q20 0 31 -8t26 -34l52 -91q15 -24 15 -33q0 -18 -19 -18q-10 0 -37 20z" />
    <glyph glyph-name="oacute" unicode="&#xf3;" horiz-adv-x="590" 
d="M566 239q0 -109 -78.5 -179t-192.5 -70t-192.5 70t-78.5 179t78.5 179t192.5 70t192.5 -70t78.5 -179zM162 239q0 -91 37 -140t96 -49t96 49t37 140t-37 140t-96 49t-96 -49t-37 -140zM412 649l-120 -95q-28 -20 -37 -20q-19 0 -19 18q0 9 15 33l52 91q15 26 26 34t31 8
h56q29 0 29 -27q0 -6 -1.5 -11t-6 -9.5t-7.5 -7t-9.5 -7.5t-8.5 -7z" />
    <glyph glyph-name="ocircumflex" unicode="&#xf4;" horiz-adv-x="590" 
d="M566 239q0 -109 -78.5 -179t-192.5 -70t-192.5 70t-78.5 179t78.5 179t192.5 70t192.5 -70t78.5 -179zM162 239q0 -91 37 -140t96 -49t96 49t37 140t-37 140t-96 49t-96 -49t-37 -140zM295 624l-119 -75q-30 -15 -36 -15t-12 6t-6 11q0 11 21 34l94 97q37 40 57 40
q6 0 12.5 -2.5t13.5 -8t11 -9l12 -11t9 -8.5l94 -96q22 -24 22 -36q0 -5 -6 -11t-12 -6q-9 0 -36 15z" />
    <glyph glyph-name="otilde" unicode="&#xf5;" horiz-adv-x="590" 
d="M566 239q0 -109 -78.5 -179t-192.5 -70t-192.5 70t-78.5 179t78.5 179t192.5 70t192.5 -70t78.5 -179zM162 239q0 -91 37 -140t96 -49t96 49t37 140t-37 140t-96 49t-96 -49t-37 -140zM199 603q-16 0 -27.5 -13.5t-20 -26.5t-17.5 -13q-16 0 -16 20q0 41 40 74t82 33
q34 0 81 -27t67 -27q22 0 42 22t26 22q17 0 17 -20q0 -33 -38.5 -65.5t-87.5 -32.5q-35 0 -82 27t-66 27z" />
    <glyph glyph-name="odieresis" unicode="&#xf6;" horiz-adv-x="590" 
d="M566 239q0 -109 -78.5 -179t-192.5 -70t-192.5 70t-78.5 179t78.5 179t192.5 70t192.5 -70t78.5 -179zM162 239q0 -91 37 -140t96 -49t96 49t37 140t-37 140t-96 49t-96 -49t-37 -140zM268 613q0 -32 -22.5 -49t-54.5 -17t-54.5 17t-22.5 49t22.5 49t54.5 17t54.5 -17
t22.5 -49zM477 613q0 -32 -22.5 -49t-54.5 -17t-54.5 17t-22.5 49t22.5 49t54.5 17t54.5 -17t22.5 -49z" />
    <glyph glyph-name="divide" unicode="&#xf7;" horiz-adv-x="600" 
d="M539 194h-478v90h478v-90zM233 42q0 28 19.5 47.5t47.5 19.5t47.5 -19.5t19.5 -47.5t-19.5 -47.5t-47.5 -19.5t-47.5 19.5t-19.5 47.5zM233 436q0 28 19.5 47.5t47.5 19.5t47.5 -19.5t19.5 -47.5t-19.5 -47.5t-47.5 -19.5t-47.5 19.5t-19.5 47.5z" />
    <glyph glyph-name="oslash" unicode="&#xf8;" horiz-adv-x="590" 
d="M190 115l163 298q-27 15 -58 15q-59 0 -96 -49t-37 -140q0 -76 28 -124zM402 361l-160 -298q23 -13 53 -13q59 0 96 49t37 140q0 73 -26 122zM209 3l-36 -66q-13 -25 -44 -25q-15 0 -22.5 7t-7.5 16q0 11 4 20l41 75q-55 32 -87.5 86.5t-32.5 122.5q0 109 78.5 179
t192.5 70q49 0 91 -14l32 59q8 17 17 24t26 7q32 0 32 -27q0 -9 -5 -17l-40 -74q55 -32 86.5 -86t31.5 -121q0 -109 -78.5 -179t-192.5 -70q-48 0 -86 13z" />
    <glyph glyph-name="ugrave" unicode="&#xf9;" horiz-adv-x="570" 
d="M528 0h-76q-35 0 -45 12.5t-15 50.5q-70 -73 -166 -73q-83 0 -123.5 46t-40.5 119v205q0 24 -7 36.5t-16 15t-16 8.5t-7 18q0 20 55.5 35t79.5 15q20 0 30.5 -15.5t10.5 -58.5v-237q0 -66 17.5 -89.5t62.5 -23.5q44 0 78 26t34 66v204q0 24 -7 36.5t-16 15t-16 8.5t-7 18
q0 20 55.5 35t79.5 15q20 0 30.5 -15.5t10.5 -58.5v-317q0 -19 8 -30.5t17.5 -15t17.5 -9.5t8 -15q0 -27 -37 -27zM254 554l-120 95l-8 5.5t-7.5 6t-6.5 6t-6 7t-3.5 8t-1.5 9.5q0 27 29 27h56q20 0 31 -8t26 -34l52 -91q15 -24 15 -33q0 -18 -19 -18q-9 0 -37 20z" />
    <glyph glyph-name="uacute" unicode="&#xfa;" horiz-adv-x="570" 
d="M528 0h-76q-35 0 -45 12.5t-15 50.5q-70 -73 -166 -73q-83 0 -123.5 46t-40.5 119v205q0 24 -7 36.5t-16 15t-16 8.5t-7 18q0 20 55.5 35t79.5 15q20 0 30.5 -15.5t10.5 -58.5v-237q0 -66 17.5 -89.5t62.5 -23.5q44 0 78 26t34 66v204q0 24 -7 36.5t-16 15t-16 8.5t-7 18
q0 20 55.5 35t79.5 15q20 0 30.5 -15.5t10.5 -58.5v-317q0 -19 8 -30.5t17.5 -15t17.5 -9.5t8 -15q0 -27 -37 -27zM367 649l-120 -95q-28 -20 -37 -20q-19 0 -19 18q0 9 15 33l52 91q15 26 26 34t31 8h56q29 0 29 -27q0 -6 -1.5 -11t-6 -9.5t-7.5 -7t-9.5 -7.5t-8.5 -7z" />
    <glyph glyph-name="ucircumflex" unicode="&#xfb;" horiz-adv-x="570" 
d="M528 0h-76q-35 0 -45 12.5t-15 50.5q-70 -73 -166 -73q-83 0 -123.5 46t-40.5 119v205q0 24 -7 36.5t-16 15t-16 8.5t-7 18q0 20 55.5 35t79.5 15q20 0 30.5 -15.5t10.5 -58.5v-237q0 -66 17.5 -89.5t62.5 -23.5q44 0 78 26t34 66v204q0 24 -7 36.5t-16 15t-16 8.5t-7 18
q0 20 55.5 35t79.5 15q20 0 30.5 -15.5t10.5 -58.5v-317q0 -19 8 -30.5t17.5 -15t17.5 -9.5t8 -15q0 -27 -37 -27zM255 624l-119 -75q-30 -15 -36 -15t-12 6t-6 11q0 11 21 34l94 97q37 40 57 40q6 0 12.5 -2.5t13.5 -8t11 -9l12 -11t9 -8.5l94 -96q22 -24 22 -36
q0 -5 -6 -11t-12 -6q-9 0 -36 15z" />
    <glyph glyph-name="udieresis" unicode="&#xfc;" horiz-adv-x="570" 
d="M528 0h-76q-35 0 -45 12.5t-15 50.5q-70 -73 -166 -73q-83 0 -123.5 46t-40.5 119v205q0 24 -7 36.5t-16 15t-16 8.5t-7 18q0 20 55.5 35t79.5 15q20 0 30.5 -15.5t10.5 -58.5v-237q0 -66 17.5 -89.5t62.5 -23.5q44 0 78 26t34 66v204q0 24 -7 36.5t-16 15t-16 8.5t-7 18
q0 20 55.5 35t79.5 15q20 0 30.5 -15.5t10.5 -58.5v-317q0 -19 8 -30.5t17.5 -15t17.5 -9.5t8 -15q0 -27 -37 -27zM223 613q0 -32 -22.5 -49t-54.5 -17t-54.5 17t-22.5 49t22.5 49t54.5 17t54.5 -17t22.5 -49zM432 613q0 -32 -22.5 -49t-54.5 -17t-54.5 17t-22.5 49t22.5 49
t54.5 17t54.5 -17t22.5 -49z" />
    <glyph glyph-name="yacute" unicode="&#xfd;" horiz-adv-x="510" 
d="M29 478h147q31 0 31 -26q0 -10 -8.5 -16.5t-17.5 -19t-9 -38.5q0 -48 13.5 -115t42.5 -125t64 -58q29 0 53 64.5t34.5 131.5t10.5 104q0 20 -14 33t-28 22.5t-14 22.5q0 20 22 20h130q28 0 28 -21q0 -12 -10.5 -20t-23 -25t-16.5 -48q-13 -103 -42.5 -201t-73 -179
t-104 -130.5t-127.5 -49.5q-31 0 -60 13.5t-29 38.5q0 48 60 48q15 0 39.5 -8t33.5 -8q28 0 70.5 42t62.5 91q-27 -9 -38 -9q-33 0 -62 13.5t-49 32.5t-37 51t-27.5 58.5t-20 67t-13.5 63t-9.5 59.5t-7.5 46q-3 17 -17.5 27.5t-14.5 22.5q0 25 31 25zM372 649l-120 -95
q-28 -20 -37 -20q-19 0 -19 18q0 9 15 33l52 91q15 26 26 34t31 8h56q29 0 29 -27q0 -6 -1.5 -11t-6 -9.5t-7.5 -7t-9.5 -7.5t-8.5 -7z" />
    <glyph glyph-name="thorn" unicode="&#xfe;" horiz-adv-x="610" 
d="M211 277v-365q0 -22 9 -33.5t19.5 -13t19.5 -8t9 -19.5q0 -26 -47 -26h-150q-37 0 -37 27q0 12 7.5 18t16 8t16 13.5t7.5 33.5v706q0 26 -9 39.5t-20.5 15.5t-20.5 9t-9 22q0 17 61.5 37.5t86.5 20.5q22 0 31.5 -13t9.5 -44v-281q69 64 153 64q100 0 161 -72t61 -174
q0 -107 -67 -179.5t-173 -72.5q-41 0 -75 10.5t-34 35.5q0 26 25 26q2 0 24.5 -2t37.5 -2q63 0 93.5 56t30.5 125q0 70 -30 127.5t-94 57.5q-55 0 -84 -43t-29 -104z" />
    <glyph glyph-name="ydieresis" unicode="&#xff;" horiz-adv-x="510" 
d="M29 478h147q31 0 31 -26q0 -10 -8.5 -16.5t-17.5 -19t-9 -38.5q0 -48 13.5 -115t42.5 -125t64 -58q29 0 53 64.5t34.5 131.5t10.5 104q0 20 -14 33t-28 22.5t-14 22.5q0 20 22 20h130q28 0 28 -21q0 -12 -10.5 -20t-23 -25t-16.5 -48q-13 -103 -42.5 -201t-73 -179
t-104 -130.5t-127.5 -49.5q-31 0 -60 13.5t-29 38.5q0 48 60 48q15 0 39.5 -8t33.5 -8q28 0 70.5 42t62.5 91q-27 -9 -38 -9q-33 0 -62 13.5t-49 32.5t-37 51t-27.5 58.5t-20 67t-13.5 63t-9.5 59.5t-7.5 46q-3 17 -17.5 27.5t-14.5 22.5q0 25 31 25zM228 613
q0 -32 -22.5 -49t-54.5 -17t-54.5 17t-22.5 49t22.5 49t54.5 17t54.5 -17t22.5 -49zM437 613q0 -32 -22.5 -49t-54.5 -17t-54.5 17t-22.5 49t22.5 49t54.5 17t54.5 -17t22.5 -49z" />
    <glyph glyph-name="dotlessi" unicode="&#x131;" horiz-adv-x="270" 
d="M217 0h-150q-37 0 -37 26q0 12 7.5 18t16 8t16 13.5t7.5 33.5v259q0 17 -8.5 27t-18.5 14t-18.5 10.5t-8.5 16.5q0 18 26 24q4 1 30.5 11t53 18.5t38.5 8.5q22 0 29 -16t7 -60v-313q0 -22 7.5 -33.5t16 -13.5t16 -8t7.5 -18q0 -26 -37 -26z" />
    <glyph glyph-name="Lslash" unicode="&#x141;" horiz-adv-x="600" 
d="M228 457l98 71q19 15 36 15q13 0 23 -12t10 -25q0 -21 -17 -34l-150 -108v-248q0 -21 6.5 -30t31.5 -13.5t80 -4.5q59 0 100.5 9.5t60.5 23.5t31 28t22.5 23.5t23.5 9.5q22 0 22 -39q0 -42 -21 -82.5t-59 -40.5h-456q-46 0 -46 30q0 14 9 21.5t19 9.5t19 11.5t9 27.5v156
l-24 -17q-12 -9 -27 -9q-14 0 -24.5 11t-10.5 28q0 16 15 28l71 52v283q0 18 -9 27.5t-19 11.5t-19 9.5t-9 21.5q0 30 46 30h168q46 0 46 -30q0 -14 -9 -21.5t-19 -9.5t-19 -11.5t-9 -27.5v-175z" />
    <glyph glyph-name="lslash" unicode="&#x142;" horiz-adv-x="270" 
d="M205 400v-300q0 -22 7.5 -33.5t16 -13.5t16 -8t7.5 -18q0 -27 -37 -27h-150q-37 0 -37 27q0 12 7.5 18t16 8t16 13.5t7.5 33.5v216l-53 -34q-6 -3 -13 -3q-9 0 -16 11t-7 17q0 14 9 19l80 51v255q0 18 -8.5 28t-18.5 12.5t-18.5 10.5t-8.5 23q0 14 57.5 35t90.5 21
q19 0 27.5 -14t8.5 -52v-235l49 31q6 4 14 4q10 0 17 -9.5t7 -20.5q0 -10 -7 -14z" />
    <glyph glyph-name="OE" unicode="&#x152;" horiz-adv-x="1000" 
d="M555 732h344q36 0 47.5 -19t11.5 -86q0 -29 -17 -29q-10 0 -17 5.5t-21 17.5t-31 22q-23 14 -56.5 17.5t-100.5 3.5q-37 0 -47 -11.5t-10 -58.5v-164h126q33 0 55 17t32 17q16 0 21.5 -15t5.5 -49q0 -46 -4 -60t-22 -14q-10 0 -17.5 5.5t-13 12.5t-20.5 12.5t-38 5.5
h-125v-179q0 -79 10.5 -97t53.5 -18q163 0 194 46q25 37 47 37q29 0 29 -32q0 -67 -16.5 -93t-56.5 -26h-367q-37 0 -37 41v32h-2q-24 -43 -71.5 -66t-101.5 -23q-62 0 -119.5 24t-104.5 69.5t-75 119.5t-28 165t28 166t75 122t104.5 72.5t119.5 25.5q111 0 175 -88h2v36
q0 22 7.5 29t30.5 7zM155 338q0 -135 49 -210.5t136 -75.5q178 0 178 321q0 307 -176 307q-94 0 -140.5 -81.5t-46.5 -260.5z" />
    <glyph glyph-name="oe" unicode="&#x153;" horiz-adv-x="890" 
d="M162 239q0 -91 33.5 -140t86.5 -49t86.5 49t33.5 140t-33.5 140t-86.5 49t-86.5 -49t-33.5 -140zM287 488q125 0 185 -84q60 84 196 84q45 0 87 -13t73.5 -46t31.5 -80q-1 -146 -320 -165q2 -55 39 -88.5t90 -33.5q78 4 140 60l6 6t7 6.5t6.5 4t8.5 3.5t9 1q24 0 24 -23
q0 -41 -72.5 -85.5t-159.5 -44.5q-114 0 -168 69q-58 -69 -183 -69q-109 0 -186 70t-77 179t77 179t186 70zM659 434q-56 0 -87.5 -58t-31.5 -138q190 28 190 125q0 33 -19 52t-52 19z" />
    <glyph glyph-name="Scaron" unicode="&#x160;" 
d="M50 520q0 104 79.5 166t188.5 62q68 0 126.5 -15t86 -31.5t31.5 -27.5q6 -20 6 -88q0 -34 -28 -34q-17 0 -27 13t-19 32t-24.5 38t-53.5 32t-96 13t-92 -33t-34 -79q0 -39 23.5 -63.5t61.5 -36.5t84 -20.5t92 -21t84 -32.5t61.5 -60t23.5 -99q0 -108 -85.5 -179.5
t-221.5 -71.5q-120 0 -207.5 55.5t-87.5 123.5q0 18 11.5 32t29.5 14q19 0 33 -11.5t22.5 -29t23 -38t33 -38t54 -29t83.5 -11.5q79 0 126.5 37.5t47.5 96.5q0 37 -24 62t-62.5 37.5t-85 23t-93 24t-85 33.5t-62.5 59t-24 95zM321 869l119 75q30 15 36 15t12 -5.5t6 -11.5
q0 -11 -21 -34l-94 -97q-37 -40 -57 -40q-6 0 -12.5 2.5t-13.5 8t-11 9l-12 11t-9 8.5l-94 96q-22 24 -22 36q0 6 6 11.5t12 5.5q9 0 36 -15z" />
    <glyph glyph-name="scaron" unicode="&#x161;" horiz-adv-x="450" 
d="M41 328q0 78 62 119t144 41q74 0 120 -23.5t46 -49.5q0 -45 -4 -56.5t-18 -11.5t-27 12.5t-23.5 28t-35 28t-58.5 12.5q-44 0 -62 -20.5t-18 -45.5t27.5 -40t67.5 -23.5t79.5 -20t67 -40.5t27.5 -76q0 -79 -60 -125.5t-159 -46.5q-77 0 -135 38.5t-58 68.5q0 19 11 35
t29 16q16 0 30.5 -15.5t25.5 -33.5t35.5 -33.5t58.5 -15.5q39 0 65.5 20t26.5 51q0 29 -27.5 45t-66 24t-77.5 19t-66.5 40.5t-27.5 78.5zM226 632l119 75q30 15 36 15q7 0 12.5 -6t5.5 -11q0 -11 -21 -34l-94 -97q-37 -40 -57 -40q-6 0 -12.5 2.5t-13.5 8t-11 9l-12 11
t-9 8.5l-94 96q-22 24 -22 36q0 5 5.5 11t12.5 6q9 0 36 -15z" />
    <glyph glyph-name="Ydieresis" unicode="&#x178;" horiz-adv-x="720" 
d="M459 0h-168q-46 0 -46 30q0 14 8.5 21.5t19.5 9.5t19.5 11.5t8.5 27.5v188q-48 50 -96 117.5t-77.5 116l-74.5 126.5q-4 8 -32 22t-28 35q0 27 26 27h222q32 0 32 -30q0 -20 -23 -30t-23 -16q0 -21 53 -107.5t125 -182.5q167 232 167 276q0 12 -9 20t-19.5 11t-19.5 10.5
t-9 20.5q0 28 36 28h150q25 0 25 -27q0 -13 -8.5 -19.5l-24 -18.5t-27.5 -34q-22 -41 -53.5 -90l-52 -79l-61 -86.5t-50.5 -71.5v-206q0 -18 8.5 -27.5t19.5 -11.5t19.5 -9.5t8.5 -21.5q0 -30 -46 -30zM333 850q0 -32 -22.5 -49t-54.5 -17t-54.5 17t-22.5 49t22.5 49
t54.5 17t54.5 -17t22.5 -49zM542 850q0 -32 -22.5 -49t-54.5 -17t-54.5 17t-22.5 49t22.5 49t54.5 17t54.5 -17t22.5 -49z" />
    <glyph glyph-name="Zcaron" unicode="&#x17d;" horiz-adv-x="600" 
d="M212 68h129q52 0 89 9t55.5 22t31 26.5t23.5 22.5t25 9q25 0 25 -27q0 -40 -11 -85t-33 -45h-466q-32 0 -47 12.5t-13 37.5q-1 39 95.5 178.5l193 271.5t96.5 152q0 12 -22 12q-134 2 -184 -7.5t-79 -44.5q-23 -29 -41 -29q-13 0 -21 8t-8 21q0 47 14 83.5t40 36.5h427
q18 0 33 -10t15 -24q0 -40 -60.5 -139.5t-132.5 -196l-132.5 -182t-60.5 -101.5q0 -11 19 -11zM301 869l119 75q30 15 36 15t12 -5.5t6 -11.5q0 -11 -21 -34l-94 -97q-37 -40 -57 -40q-6 0 -12.5 2.5t-13.5 8t-11 9l-12 11t-9 8.5l-94 96q-22 24 -22 36q0 6 6 11.5t12 5.5
q9 0 36 -15z" />
    <glyph glyph-name="zcaron" unicode="&#x17e;" horiz-adv-x="460" 
d="M177 60h113q28 0 49 8.5t31.5 21t19 25t16.5 21t18 8.5q20 0 20 -26q0 -49 -18.5 -83.5t-51.5 -34.5h-289q-36 0 -51 9t-15 30q0 26 47 83l240 296h-110q-38 0 -63.5 -10.5t-34.5 -23t-19 -23t-21 -10.5q-18 0 -18 39q0 34 15 61t41 27h287q61 0 61 -46q0 -6 -2 -13.5
t-5 -13t-8.5 -14l-8.5 -13t-10 -13.5t-9 -12zM231 632l119 75q30 15 36 15t12 -6t6 -11q0 -11 -21 -34l-94 -97q-37 -40 -57 -40q-6 0 -12.5 2.5t-13.5 8t-11 9l-12 11t-9 8.5l-94 96q-22 24 -22 36q0 5 6 11t12 6q9 0 36 -15z" />
    <glyph glyph-name="florin" unicode="&#x192;" 
d="M469 407h-86l-38 -250q-26 -171 -99.5 -262t-190.5 -91q-62 0 -100.5 31t-38.5 61q0 46 40 46q16 0 30 -13t23 -29t26.5 -29t40.5 -13q60 0 91 61t55 226l38 262h-70q-46 0 -46 35t46 35h82q16 135 83 223t177 88q45 0 70.5 -22t25.5 -51q0 -46 -38 -46q-24 0 -42 28.5
t-42 28.5t-41.5 -17t-37.5 -74.5t-35 -157.5h77q46 0 46 -35t-46 -35z" />
    <glyph glyph-name="circumflex" unicode="&#x2c6;" horiz-adv-x="259" 
d="M129 624l-119 -75q-30 -15 -36 -15t-12 6t-6 11q0 11 21 34l94 97q37 40 57 40q6 0 12.5 -2.5t13.5 -8t11 -9l12 -11t9 -8.5l94 -96q22 -24 22 -36q0 -5 -6 -11t-12 -6q-9 0 -36 15z" />
    <glyph glyph-name="caron" unicode="&#x2c7;" horiz-adv-x="259" 
d="M130 632l119 75q30 15 36 15q7 0 12.5 -6t5.5 -11q0 -11 -21 -34l-94 -97q-37 -40 -57 -40q-6 0 -12.5 2.5t-13.5 8t-11 9l-12 11t-9 8.5l-94 96q-22 24 -22 36q0 5 5.5 11t12.5 6q9 0 36 -15z" />
    <glyph glyph-name="uni02C9" unicode="&#x2c9;" horiz-adv-x="259" 
d="M236 576h-213q-20 0 -29.5 8t-9.5 29t9.5 29t29.5 8h213q20 0 29.5 -8t9.5 -29t-9.5 -29t-29.5 -8z" />
    <glyph glyph-name="breve" unicode="&#x2d8;" horiz-adv-x="259" 
d="M-23 679q0 27 18 27q9 0 19.5 -15t21 -33t35.5 -33t58 -15t58 15t35.5 33t21 33t19.5 15q18 0 18 -27q0 -57 -45.5 -101t-106.5 -44t-106.5 44t-45.5 101z" />
    <glyph glyph-name="dotaccent" unicode="&#x2d9;" horiz-adv-x="259" 
d="M206 613q0 -32 -22.5 -49t-54.5 -17t-54.5 17t-22.5 49t22.5 49t54.5 17t54.5 -17t22.5 -49z" />
    <glyph glyph-name="ring" unicode="&#x2da;" horiz-adv-x="259" 
d="M130 521q-43 0 -73.5 30.5t-30.5 73.5t31 73.5t73 30.5t73 -30.5t31 -73.5t-30.5 -73.5t-73.5 -30.5zM130 565q25 0 42.5 17.5t17.5 42.5t-17.5 42.5t-42.5 17.5t-42.5 -17.5t-17.5 -42.5t17.5 -42.5t42.5 -17.5z" />
    <glyph glyph-name="ogonek" unicode="&#x2db;" horiz-adv-x="259" 
d="M130 0h55q-78 -48 -78 -103q0 -26 16 -42.5t42 -16.5q20 0 43.5 21.5t29.5 21.5q10 0 17.5 -7t7.5 -16q0 -25 -36 -48.5t-85 -23.5q-54 0 -84.5 27.5t-30.5 75.5q0 79 103 111z" />
    <glyph glyph-name="tilde" unicode="&#x2dc;" horiz-adv-x="259" 
d="M33 603q-16 0 -27.5 -13.5t-20 -26.5t-17.5 -13q-16 0 -16 20q0 41 40 74t82 33q34 0 81 -27t67 -27q22 0 42 22t26 22q17 0 17 -20q0 -33 -38.5 -65.5t-87.5 -32.5q-35 0 -82 27t-66 27z" />
    <glyph glyph-name="hungarumlaut" unicode="&#x2dd;" horiz-adv-x="259" 
d="M178 649l-116 -95q-27 -20 -37 -20q-19 0 -19 18q0 9 15 33l48 91q15 26 26 34t31 8h56q29 0 29 -27q0 -6 -1.5 -11t-6 -9.5t-7.5 -7t-9.5 -7.5t-8.5 -7zM350 649l-120 -95q-28 -20 -37 -20q-19 0 -19 18q0 9 15 33l52 91q15 26 26 34t31 8h56q29 0 29 -27q0 -6 -1.5 -11
t-6 -9.5t-7.5 -7t-9.5 -7.5t-8.5 -7z" />
    <glyph glyph-name="uni03A9" unicode="&#x3a9;" horiz-adv-x="837" 
d="M799 178l-31 -178h-286l-10 25q0 1 29.5 57.5t38.5 78l29 71.5t27.5 92t7.5 84q-1 155 -53 226.5t-135 71.5q-183 0 -183 -302q0 -50 10.5 -100t35.5 -108.5t37.5 -83.5l44.5 -87l-9 -25h-286l-28 178l35 1q18 -49 35.5 -63.5t54.5 -14.5h109q-31 22 -51 38.5t-50 47.5
t-48 61t-31.5 73.5t-13.5 90.5q0 151 96.5 243t245.5 92q151 0 244 -88.5t93 -238.5q0 -52 -17 -99t-50.5 -88.5t-61 -68.5t-71.5 -63h120q36 0 51.5 14t33.5 64z" />
    <glyph glyph-name="uni03BC" unicode="&#x3bc;" horiz-adv-x="570" 
d="M384 156v204q0 24 -7 36.5t-16 15t-16 8.5t-7 18q0 20 55.5 35t79.5 15q20 0 30.5 -15.5t10.5 -58.5v-317q0 -19 8 -30.5t17.5 -15t17.5 -9.5t8 -15q0 -27 -37 -27h-76q-35 0 -45 12.5t-15 50.5q-70 -73 -166 -73q-19 0 -34 3v-126q0 -36 -14.5 -49.5t-50.5 -13.5
t-50.5 13.5t-14.5 49.5v493q0 24 -7 36.5t-16 15t-16 8.5t-7 18q0 20 55.5 35t79.5 15q20 0 30.5 -15.5t10.5 -58.5v-237q0 -66 17.5 -89.5t62.5 -23.5q44 0 78 26t34 66z" />
    <glyph glyph-name="pi" unicode="&#x3c0;" horiz-adv-x="658" 
d="M598 518l31 -9q-4 -33 -17.5 -71t-25.5 -52q-21 -7 -73 -7q-5 -57 -5 -218q1 -94 46 -94q21 0 51 25l14 -29q-21 -34 -57.5 -55.5t-73.5 -21.5q-113 0 -113 145q0 79 11 251q-34 0 -83.5 1t-67.5 1v-13q0 -112 -16 -198.5t-30 -118.5t-27 -48q-39 -16 -76 -20l-8 24
q55 71 80 176.5t25 199.5q-48 1 -76.5 -9t-67.5 -35l-18 32q2 2 11 14l12 16t13 15t15.5 15t16.5 13t19.5 13l22 10t26.5 8.5t30 4.5t35 2q41 0 147 -2q27 0 81 -0.5t80 -0.5q27 0 41 7.5t27 28.5z" />
    <glyph glyph-name="uni2010" unicode="&#x2010;" horiz-adv-x="320" 
d="M271 191h-222q-29 0 -29 48t29 48h222q29 0 29 -48t-29 -48z" />
    <glyph glyph-name="endash" unicode="&#x2013;" horiz-adv-x="500" 
d="M489 191h-478q-29 0 -29 48t29 48h478q29 0 29 -48t-29 -48z" />
    <glyph glyph-name="emdash" unicode="&#x2014;" horiz-adv-x="1000" 
d="M989 191h-978q-29 0 -29 48t29 48h978q29 0 29 -48t-29 -48z" />
    <glyph glyph-name="quoteleft" unicode="&#x2018;" horiz-adv-x="300" 
d="M228 554q0 -27 -22 -43.5t-52 -16.5q-37 0 -57.5 26t-20.5 65q0 59 43.5 111t67.5 52q6 0 12.5 -5t6.5 -11q0 -5 -15.5 -19.5t-32 -41t-18.5 -60.5q1 0 11 1.5t15 1.5q27 0 44.5 -16.5t17.5 -43.5z" />
    <glyph glyph-name="quoteright" unicode="&#x2019;" horiz-adv-x="300" 
d="M224 657q0 -59 -43.5 -111t-67.5 -52q-6 0 -12.5 5t-6.5 11q0 5 15.5 19.5t32 41t18.5 60.5q-1 0 -11 -1.5t-15 -1.5q-27 0 -44.5 16.5t-17.5 43.5t22 43.5t52 16.5q37 0 57.5 -26t20.5 -65z" />
    <glyph glyph-name="quotesinglbase" unicode="&#x201a;" horiz-adv-x="300" 
d="M224 28q0 -59 -43.5 -111t-67.5 -52q-6 0 -12.5 5t-6.5 11q0 5 15.5 19.5t32 41t18.5 60.5q-1 0 -11 -1.5t-15 -1.5q-27 0 -44.5 16.5t-17.5 43.5t22 43.5t52 16.5q37 0 57.5 -26t20.5 -65z" />
    <glyph glyph-name="quotedblleft" unicode="&#x201c;" horiz-adv-x="500" 
d="M228 554q0 -27 -22 -43.5t-52 -16.5q-37 0 -57.5 26t-20.5 65q0 59 43.5 111t67.5 52q6 0 12.5 -5t6.5 -11q0 -5 -15.5 -19.5t-32 -41t-18.5 -60.5q1 0 11 1.5t15 1.5q27 0 44.5 -16.5t17.5 -43.5zM436 554q0 -27 -22 -43.5t-52 -16.5q-37 0 -57.5 26t-20.5 65
q0 59 43.5 111t67.5 52q6 0 12.5 -5t6.5 -11q0 -5 -15.5 -19.5t-32 -41t-18.5 -60.5q1 0 11 1.5t15 1.5q27 0 44.5 -16.5t17.5 -43.5z" />
    <glyph glyph-name="quotedblright" unicode="&#x201d;" horiz-adv-x="500" 
d="M272 688q0 27 22 43.5t52 16.5q37 0 57.5 -26t20.5 -65q0 -59 -43.5 -111t-67.5 -52q-6 0 -12.5 5t-6.5 11q0 5 15.5 19.5t32 41t18.5 60.5q-1 0 -11 -1.5t-15 -1.5q-27 0 -44.5 16.5t-17.5 43.5zM64 688q0 27 22 43.5t52 16.5q37 0 57.5 -26t20.5 -65q0 -59 -43.5 -111
t-67.5 -52q-6 0 -12.5 5t-6.5 11q0 5 15.5 19.5t32 41t18.5 60.5q-1 0 -11 -1.5t-15 -1.5q-27 0 -44.5 16.5t-17.5 43.5z" />
    <glyph glyph-name="quotedblbase" unicode="&#x201e;" horiz-adv-x="500" 
d="M272 59q0 27 22 43.5t52 16.5q37 0 57.5 -26t20.5 -65q0 -59 -43.5 -111t-67.5 -52q-6 0 -12.5 5t-6.5 11q0 5 15.5 19.5t32 41t18.5 60.5q-1 0 -11 -1.5t-15 -1.5q-27 0 -44.5 16.5t-17.5 43.5zM64 59q0 27 22 43.5t52 16.5q37 0 57.5 -26t20.5 -65q0 -59 -43.5 -111
t-67.5 -52q-6 0 -12.5 5t-6.5 11q0 5 15.5 19.5t32 41t18.5 60.5q-1 0 -11 -1.5t-15 -1.5q-27 0 -44.5 16.5t-17.5 43.5z" />
    <glyph glyph-name="dagger" unicode="&#x2020;" horiz-adv-x="510" 
d="M196 316l25 135l-111 -19q-15 -3 -30 -3q-21 0 -39 16t-18 41t18 41t39 16q15 0 30 -3l111 -19l-18 141q0 2 -1.5 12.5t-1.5 15.5q0 24 16 41t39 17t39 -17t16 -41q0 -4 -0.5 -8.5t-1.5 -10t-1 -9.5l-18 -141l111 19q15 3 30 3q21 0 39 -16t18 -41t-18 -41t-39 -16
q-15 0 -30 3l-111 19l25 -135l-35 -455q-4 -25 -24 -25t-24 25z" />
    <glyph glyph-name="daggerdbl" unicode="&#x2021;" horiz-adv-x="510" 
d="M196 292l25 159l-111 -19q-15 -3 -30 -3q-21 0 -39 16t-18 41t18 41t39 16q15 0 30 -3l111 -19l-18 141q0 2 -1.5 12.5t-1.5 15.5q0 24 16 41t39 17t39 -17t16 -41q0 -4 -0.5 -8.5t-1.5 -10t-1 -9.5l-18 -141l111 19q15 3 30 3q21 0 39 -16t18 -41t-18 -41t-39 -16
q-15 0 -30 3l-111 19l25 -159l-25 -159l111 19q15 3 30 3q21 0 39 -16t18 -41t-18 -41t-39 -16q-15 0 -30 3l-111 19l18 -141q0 -2 1.5 -12.5t1.5 -15.5q0 -24 -16 -41t-39 -17t-39 17t-16 41q0 4 0.5 8.5t1.5 10t1 9.5l18 141l-111 -19q-15 -3 -30 -3q-21 0 -39 16t-18 41
t18 41t39 16q15 0 30 -3l111 -19z" />
    <glyph glyph-name="bullet" unicode="&#x2022;" horiz-adv-x="500" 
d="M67 366q0 76 53.5 129.5t129.5 53.5t129.5 -53.5t53.5 -129.5t-53.5 -129.5t-129.5 -53.5t-129.5 53.5t-53.5 129.5z" />
    <glyph glyph-name="ellipsis" unicode="&#x2026;" horiz-adv-x="1000" 
d="M167 -10q-32 0 -56 19.5t-24 50.5q0 30 24 50t56 20t56 -20t24 -50q0 -31 -24 -50.5t-56 -19.5zM500 -10q-32 0 -56 19.5t-24 50.5q0 30 24 50t56 20t56 -20t24 -50q0 -31 -24 -50.5t-56 -19.5zM833 -10q-32 0 -56 19.5t-24 50.5q0 30 24 50t56 20t56 -20t24 -50
q0 -31 -24 -50.5t-56 -19.5z" />
    <glyph glyph-name="perthousand" unicode="&#x2030;" horiz-adv-x="1000" 
d="M162 710q-28 0 -39.5 -27t-11.5 -99t11.5 -99t39.5 -27t39.5 27t11.5 99t-11.5 99t-39.5 27zM545 712l-391 -698q-13 -22 -20 -26q-9 -4 -29 -4q-27 0 -27 9q0 1 13 27l391 698q13 22 20 26q9 4 29 4q27 0 27 -9q0 -1 -13 -27zM162 748q66 0 110.5 -41.5t44.5 -122.5
t-44.5 -122.5t-110.5 -41.5t-110.5 41.5t-44.5 122.5t44.5 122.5t110.5 41.5zM474 320q66 0 110.5 -41.5t44.5 -122.5t-44.5 -122.5t-110.5 -41.5t-110.5 41.5t-44.5 122.5t44.5 122.5t110.5 41.5zM474 282q-28 0 -39.5 -27t-11.5 -99t11.5 -99t39.5 -27t39.5 27t11.5 99
t-11.5 99t-39.5 27zM838 320q66 0 110.5 -41.5t44.5 -122.5t-44.5 -122.5t-110.5 -41.5t-110.5 41.5t-44.5 122.5t44.5 122.5t110.5 41.5zM838 282q-28 0 -39.5 -27t-11.5 -99t11.5 -99t39.5 -27t39.5 27t11.5 99t-11.5 99t-39.5 27z" />
    <glyph glyph-name="guilsinglleft" unicode="&#x2039;" horiz-adv-x="210" 
d="M125 97l-78 101q-23 30 -23 42q0 10 23 40l78 101q15 20 21.5 25.5t15.5 5.5q18 0 18 -19q0 -8 -12 -36l-48 -104q-5 -10 -5 -14t5 -14l48 -104q12 -28 12 -36q0 -19 -18 -19q-9 0 -15.5 5.5t-21.5 25.5z" />
    <glyph glyph-name="guilsinglright" unicode="&#x203a;" horiz-adv-x="210" 
d="M163 198l-78 -101q-15 -20 -21.5 -25.5t-15.5 -5.5q-18 0 -18 19q0 8 12 36l48 104q5 10 5 14t-5 14l-48 104q-12 28 -12 36q0 19 18 19q9 0 15.5 -5.5t21.5 -25.5l78 -101q23 -30 23 -40q0 -12 -23 -42z" />
    <glyph glyph-name="fraction" unicode="&#x2044;" horiz-adv-x="167" 
d="M-163 2l435 740q4 6 33 6q28 0 29 -8q0 -6 -4 -10l-436 -742q-3 -4 -32 -4q-28 0 -29 8q0 6 4 10z" />
    <glyph glyph-name="Euro" unicode="&#x20ac;" 
d="M484 312q0 -35 -36 -35h-176q20 -233 158 -233q47 0 79 23q29 20 53 53l5.5 8.5t6 8.5l6 7.5t7 7t8 4t9.5 1.5q12 0 19 -7.5t7 -17.5q0 -20 -18 -49t-47 -53q-55 -46 -138 -46q-125 0 -207.5 78t-100.5 215h-52q-36 0 -36 35t36 35h47v1q0 23 4 67h-51q-36 0 -36 35
t36 35h62q29 123 106.5 193t188.5 70q91 0 158 -45q28 -19 30 -36q8 -48 8 -109q0 -33 -28 -33q-7 0 -12 2.5t-9 8.5t-5.5 10l-5 14l-4.5 13q-22 56 -52.5 85.5t-78.5 29.5q-121 0 -149 -203h172q36 0 36 -35t-36 -35h-178q-2 -34 -2 -47q0 -14 1 -21h179q36 0 36 -35z" />
    <glyph glyph-name="afii61289" unicode="&#x2113;" horiz-adv-x="494" 
d="M450 149l25 -24q-76 -139 -207 -139q-85 0 -125 43q-22 25 -32 59.5t-10 102.5v69l-66 -43l-15 34l80 57v144q0 118 12.5 174.5t47.5 99.5q52 66 123 66q56 0 86 -43t30 -107q0 -88 -42 -158.5t-128 -149.5v-86q0 -100 22.5 -141.5t73.5 -41.5q64 0 125 84zM229 513v-120
q94 110 94 246q0 50 -11.5 81.5t-35.5 31.5q-29 0 -38 -49t-9 -190z" />
    <glyph glyph-name="trademark" unicode="&#x2122;" horiz-adv-x="990" 
d="M12 732h370v-92h-28q-7 31 -21 46.5t-43 15.5h-46v-330q0 -19 8 -24.5t42 -7.5v-30h-194v30q34 2 42 7.5t8 24.5v330h-46q-29 0 -43 -15.5t-21 -46.5h-28v92zM666 308l-146 308h-2v-206q0 -40 9 -54t41 -16v-30h-138v30q32 2 41 16t9 54v232q0 20 -21 40t-49 20v30h143
l147 -306l157 306h121v-30q-29 0 -40.5 -11.5t-11.5 -35.5v-283q0 -19 8 -24.5t40 -7.5v-30h-190v30q32 2 40 7.5t8 24.5v244h-2l-152 -308h-12z" />
    <glyph glyph-name="Omega" unicode="&#x2126;" horiz-adv-x="837" 
d="M799 178l-31 -178h-286l-10 25q0 1 29.5 57.5t38.5 78l29 71.5t27.5 92t7.5 84q-1 155 -53 226.5t-135 71.5q-183 0 -183 -302q0 -50 10.5 -100t35.5 -108.5t37.5 -83.5l44.5 -87l-9 -25h-286l-28 178l35 1q18 -49 35.5 -63.5t54.5 -14.5h109q-31 22 -51 38.5t-50 47.5
t-48 61t-31.5 73.5t-13.5 90.5q0 151 96.5 243t245.5 92q151 0 244 -88.5t93 -238.5q0 -52 -17 -99t-50.5 -88.5t-61 -68.5t-71.5 -63h120q36 0 51.5 14t33.5 64z" />
    <glyph glyph-name="estimated" unicode="&#x212e;" horiz-adv-x="920" 
d="M883 355h-686q-6 0 -6 -5v-207q0 -11 9 -24q110 -113 260 -113q80 0 150.5 33.5t122.5 92.5h61q-58 -68 -146.5 -107.5t-188.5 -39.5q-175 0 -299 111t-124 269t123.5 269.5t299.5 111.5t300 -111.5t124 -269.5v-10zM727 382v209q0 15 -10 24q-109 109 -257 109
q-149 0 -258 -112q-11 -11 -11 -26v-204q0 -7 6 -7h526q4 0 4 7z" />
    <glyph glyph-name="partialdiff" unicode="&#x2202;" horiz-adv-x="621" 
d="M301 464h1q40 0 78.5 -17.5t62.5 -50.5q9 63 12 117q4 97 -28 164q-17 35 -51 57.5t-76 22.5q-76 0 -164 -73q-17 -1 -35 34t-9 57q75 44 165 44q160 0 248 -154q60 -106 60 -251q0 -158 -57 -265q-83 -163 -246 -163q-98 0 -156.5 58.5t-58.5 158.5q0 107 68 182
q74 79 186 79zM335 412h-1q-67 0 -107 -60q-48 -79 -48 -211q-1 -53 22 -84t64 -31q62 0 113 110q36 79 55 209q-12 25 -38.5 46t-59.5 21z" />
    <glyph glyph-name="uni2206" unicode="&#x2206;" horiz-adv-x="736" 
d="M696 0h-657v37l293 695l61 15l303 -710v-37zM529 65l-210 507l-206 -507h416z" />
    <glyph glyph-name="product" unicode="&#x220f;" horiz-adv-x="805" 
d="M773 745v-35q-71 -5 -87 -20.5t-16 -74.5v-566q0 -64 16 -80.5t86 -22.5v-36h-326v36q62 5 75 20t13 83v613q0 25 -7.5 31.5t-33.5 6.5h-185q-25 0 -31.5 -6t-6.5 -29v-616q0 -66 11.5 -82t68.5 -21v-36h-318v36q69 5 85 21.5t16 81.5v566q0 60 -16.5 75t-88.5 20v35h745
z" />
    <glyph glyph-name="summation" unicode="&#x2211;" 
d="M614 136l-53 -233h-532v35l245 346l-239 425v36h525q2 -38 14 -192l-36 -8q-19 78 -42 117q-13 24 -35.5 32t-82.5 8h-178l189 -330l-248 -357h273q42 0 61 2t38.5 16.5t31 38t32.5 74.5z" />
    <glyph glyph-name="minus" unicode="&#x2212;" horiz-adv-x="600" 
d="M539 284v-90h-478v90h478z" />
    <glyph glyph-name="uni2215" unicode="&#x2215;" horiz-adv-x="167" 
d="M-163 2l435 740q4 6 33 6q28 0 29 -8q0 -6 -4 -10l-436 -742q-3 -4 -32 -4q-28 0 -29 8q0 6 4 10z" />
    <glyph glyph-name="uni2219" unicode="&#x2219;" horiz-adv-x="320" 
d="M89 239q0 29 21 50t50 21t50 -21t21 -50t-21 -50t-50 -21t-50 21t-21 50z" />
    <glyph glyph-name="radical" unicode="&#x221a;" horiz-adv-x="626" 
d="M615 934l-194 -1103l-32 -14l-239 581l-98 -45l-14 43l200 91l170 -431h2l151 890z" />
    <glyph glyph-name="infinity" unicode="&#x221e;" horiz-adv-x="835" 
d="M784 305v-2q0 -84 -52 -135t-122 -51q-100 0 -192 121q-48 -59 -93 -90t-104 -31q-70 0 -120.5 51t-50.5 130q0 81 51.5 133t128.5 52q102 0 193 -118q53 60 80 80q52 39 113 38q72 -1 120 -50t48 -128zM230 193h1q21 0 41 8t40.5 26.5t31 30t32.5 37.5q-29 40 -44 58
t-44.5 36.5t-61.5 18.5q-44 0 -70.5 -31t-26.5 -80q0 -43 29 -73.5t72 -30.5zM608 408h-1q-15 0 -31 -6t-27 -12.5t-26 -20.5t-22 -21.5t-21.5 -25t-17.5 -20.5q49 -62 80.5 -85.5t70.5 -23.5q41 0 66.5 33t25.5 72q0 48 -27 79t-70 31z" />
    <glyph glyph-name="integral" unicode="&#x222b;" horiz-adv-x="444" 
d="M180 -6l-23 426q-6 113 3.5 200t28.5 137.5t47 82.5t55 43t57 11t55 -16t26 -44q0 -30 -18.5 -46.5t-43.5 -16.5q-18 0 -28.5 16.5t-17.5 33.5t-17 17q-40 0 -32 -165l21 -399q7 -135 -6.5 -235t-42.5 -155.5t-65.5 -82t-81.5 -26.5q-33 0 -56.5 18t-24.5 44
q-1 27 22 46.5t50 19.5q20 0 34 -36t24 -36q42 0 34 163z" />
    <glyph glyph-name="approxequal" unicode="&#x2248;" horiz-adv-x="603" 
d="M509 482l52 -49q-63 -110 -151 -110q-31 0 -56.5 9.5t-65.5 32.5q-57 36 -93 36q-32 0 -55.5 -19.5t-49.5 -57.5l-52 49q25 47 69 77.5t94 30.5q49 0 114 -38q54 -33 76 -36q9 -2 18 -2q29 0 51.5 19t48.5 58zM509 281l52 -49q-63 -109 -152 -109q-51 0 -121 42
q-59 35 -93 35q-23 0 -43.5 -12.5t-32 -26t-29.5 -38.5l-52 49q25 47 69.5 78t93.5 31q48 0 114 -38l18 -11t19 -11l16.5 -8t20 -7t19.5 -2q30 0 51.5 18t49.5 59z" />
    <glyph glyph-name="notequal" unicode="&#x2260;" horiz-adv-x="603" 
d="M444 544l-41 -93h147v-81h-180l-63 -143h243v-81h-276l-54 -123l-65 28l43 95h-146v81h178l63 143h-241v81h273l54 120z" />
    <glyph glyph-name="lessequal" unicode="&#x2264;" horiz-adv-x="603" 
d="M548 111l-491 237v88l491 236v-94l-408 -185v-2l408 -186v-94zM551 -11h-498v83h498v-83z" />
    <glyph glyph-name="greaterequal" unicode="&#x2265;" horiz-adv-x="603" 
d="M58 672l491 -237v-87l-491 -237v94l407 186v2l-407 185v94zM548 -11h-494v83h494v-83z" />
    <glyph glyph-name="lozenge" unicode="&#x25ca;" horiz-adv-x="641" 
d="M590 355l-221 -433h-99l-219 433l222 437h97zM496 355l-173 353h-4l-175 -352l175 -354h4z" />
    <glyph glyph-name="fi" unicode="&#xfb01;" horiz-adv-x="590" 
d="M92 100v314h-34q-38 0 -38 32t38 32h35v44q0 127 62 187.5t173 60.5q94 0 150 -40.5t56 -111.5q0 -29 -21 -46.5t-55 -17.5q-33 0 -55.5 19t-22.5 45q0 7 3 19.5t3 18.5q0 17 -20.5 28.5t-51.5 11.5q-49 0 -71.5 -25t-22.5 -81v-112h271q19 0 27.5 -11t8.5 -37v-331
q0 -22 7.5 -33.5t16 -13.5t16 -8t7.5 -18q0 -26 -37 -26h-150q-37 0 -37 26q0 12 7.5 18t16 8t16 13.5t7.5 33.5v249q0 39 -11.5 52.5t-41.5 13.5h-122v-314q0 -22 7.5 -33.5t16 -13.5t16 -8t7.5 -18q0 -27 -37 -27h-150q-37 0 -37 27q0 12 7.5 18t16 8t16 13.5t7.5 33.5z
" />
    <glyph glyph-name="fl" unicode="&#xfb02;" horiz-adv-x="610" 
d="M92 100v314h-34q-38 0 -38 32t38 32h35v36q0 139 47 197.5t154 58.5q80 0 132 -28q26 10 43 15q23 5 40 5q22 0 29 -15t7 -51v-596q0 -22 7.5 -33.5t16 -13.5t16 -8t7.5 -18q0 -27 -37 -27h-150q-37 0 -37 27q0 12 7.5 18t16 8t16 13.5t7.5 33.5v508q0 37 -30 62.5
t-77 25.5q-43 0 -65.5 -26t-22.5 -89v-103h67q38 0 38 -32t-38 -32h-65v-314q0 -22 7.5 -33.5t16 -13.5t16 -8t7.5 -18q0 -27 -37 -27h-150q-37 0 -37 27q0 12 7.5 18t16 8t16 13.5t7.5 33.5z" />
    <glyph glyph-name="a.superior" horiz-adv-x="330" 
d="M299 455h-50q-19 0 -24.5 7.5t-4.5 24.5h-3q-27 -37 -102 -37q-47 0 -81 23.5t-34 64.5q0 34 26 58.5t64 35.5t68.5 15t51.5 4q2 26 -15 43.5t-46 17.5q-27 0 -52.5 -17.5t-45.5 -17.5q-29 0 -29 24q0 25 43 36t79 11q69 0 112 -26t43 -80v-129q0 -17 16 -24.5t16 -14.5
q0 -11 -6.5 -15t-25.5 -4zM212 549v69q-41 -1 -81.5 -21.5t-40.5 -58.5q0 -21 17 -38t42 -17q29 0 46 20.5t17 45.5z" />
    <glyph glyph-name="o.superior" horiz-adv-x="354" 
d="M0 598q0 66 51 108t126 42q74 0 125.5 -42t51.5 -108q0 -65 -51.5 -106.5t-125.5 -41.5q-75 0 -126 41.5t-51 106.5zM90 598q0 -46 20 -79t67 -33t67 33t20 79t-20 80t-67 34t-67 -34t-20 -80z" />
    <glyph glyph-name="one.superior" horiz-adv-x="384" 
d="M244 719v-331q0 -30 8.5 -40t33.5 -12q40 -1 40 -20q0 -18 -31 -18h-202q-33 0 -33 18q0 16 42 20q29 2 37.5 11.5t8.5 39.5v239q0 30 -9 38t-42 7h-22q-28 0 -28 17q0 15 33 19q44 6 86 26t52 20q16 0 21 -8.5t5 -25.5z" />
    <glyph glyph-name="two.superior" horiz-adv-x="384" 
d="M131 362h132q31 0 57 19.5t34 19.5q5 0 10 -5t5 -10q0 -3 -2.5 -9l-8 -20t-9.5 -33q-5 -26 -32 -26h-269q-16 0 -22 4t-6 15q0 29 38 72.5t83.5 82t83.5 86.5t38 84q0 30 -20.5 49t-52.5 19q-28 0 -55.5 -18.5t-27.5 -43.5q0 -11 9 -23t9 -20q0 -14 -13 -21t-29 -7
q-24 0 -38 14.5t-14 37.5q0 48 50 83.5t124 35.5q76 0 117 -33t41 -82q0 -37 -26.5 -74t-61 -63t-78 -64t-66.5 -70z" />
    <glyph glyph-name="three.superior" horiz-adv-x="384" 
d="M362 423q0 -66 -54.5 -101t-131.5 -35q-24 0 -51 5t-53.5 15.5t-43.5 29.5t-17 44q0 38 43 38q19 0 27.5 -6.5t9.5 -23.5q8 -66 76 -66q47 0 71 27t24 70q0 53 -33 73t-96 20q-31 0 -31 19q0 5 2 8.5t4.5 5t7.5 3t8 1.5t9.5 0.5t7.5 0.5q55 5 79 24t24 65q0 32 -19.5 52
t-53.5 20q-22 0 -39 -10.5t-17 -30.5q0 -5 2 -15.5t1 -16.5q0 -11 -12 -16.5t-26 -5.5q-47 0 -47 36q0 39 45.5 67t111.5 28q60 0 105 -29t45 -82q0 -39 -28 -63.5t-71 -34.5v-2q49 -7 85 -38.5t36 -75.5z" />
    </font>
</defs>
</svg>
