<?xml version="1.0" encoding="UTF-8" standalone="no"?><!DOCTYPE svg PUBLIC "-//W3C//DTD SVG 1.1//EN" "http://www.w3.org/Graphics/SVG/1.1/DTD/svg11.dtd"><svg width="100%" height="100%" viewBox="0 0 250 250" version="1.1" xmlns="http://www.w3.org/2000/svg" xmlns:xlink="http://www.w3.org/1999/xlink" xml:space="preserve" xmlns:serif="http://www.serif.com/" style="fill-rule:evenodd;clip-rule:evenodd;stroke-linejoin:round;stroke-miterlimit:2;"><rect x="0" y="2" width="250" height="250" style="fill:#fff;"/><g><g><rect x="10.452" y="172.832" width="224.425" height="1.944" style="fill:#b61f38;"/><path d="M10.452,218.754l44.482,0c0.254,0.594 0.609,1.141 1.048,1.617l-3.945,1.514l-41.585,0l0,-3.131Z" style="fill:#b61f38;fill-rule:nonzero;"/><path d="M10.452,228.925l41.133,0l-0.102,3.438l-41.031,0l0,-3.438Z" style="fill:#b61f38;fill-rule:nonzero;"/><path d="M198.633,240.098l36.223,0l0,3.786l-36.264,0l0.041,-3.786Z" style="fill:#b61f38;fill-rule:nonzero;"/><path d="M10.452,240.098l23.423,0l-2.815,3.786l-20.608,0l0,-3.786Z" style="fill:#b61f38;fill-rule:nonzero;"/><rect x="10.452" y="179.094" width="224.425" height="2.087" style="fill:#b61f38;"/><rect x="10.452" y="185.807" width="224.425" height="2.251" style="fill:#b61f38;"/><path d="M108.847,193.071l126.009,0l0,2.436l-124.119,0l-1.89,-2.436Z" style="fill:#b61f38;fill-rule:nonzero;"/><path d="M10.452,193.071l98.066,0l-1.931,2.436l-96.135,0l0,-2.436Z" style="fill:#b61f38;fill-rule:nonzero;"/><path d="M114.97,200.93l119.886,0l0,2.619l-117.832,0l-2.054,-2.619Z" style="fill:#b61f38;fill-rule:nonzero;"/><path d="M63.564,200.889l38.708,0l-2.054,2.64l-35.463,0c-0.019,-1.005 -0.449,-1.96 -1.191,-2.64Z" style="fill:#b61f38;fill-rule:nonzero;"/><path d="M10.452,200.889l48.735,0c-0.843,0.63 -1.375,1.592 -1.458,2.64l-47.256,0l-0.021,-2.64Z" style="fill:#b61f38;fill-rule:nonzero;"/><path d="M189.347,209.463l45.509,0l0,2.865l-44.996,0l-0.513,-2.865Z" style="fill:#b61f38;fill-rule:nonzero;"/><path d="M120.723,209.463l68.439,0l-0.617,2.865l-67.843,0l0.021,-2.865Z" style="fill:#b61f38;fill-rule:nonzero;"/><path d="M63.605,209.443l33.079,0l0,2.865l-31.847,0c-0.381,-0.281 -0.787,-0.528 -1.212,-0.737l-0.02,-2.128Z" style="fill:#b61f38;fill-rule:nonzero;"/><path d="M10.452,209.443l48.304,0l0,2.046c-0.566,0.21 -1.088,0.523 -1.541,0.921l-46.763,0l0,-2.967Z" style="fill:#b61f38;fill-rule:nonzero;"/><path d="M191.853,218.754l42.942,0l0,3.131l-40.887,0c-0.591,-1.006 -1.586,-1.713 -2.733,-1.944l1.254,-0.921l-0.576,-0.266Z" style="fill:#b61f38;fill-rule:nonzero;"/><path d="M150.597,218.754l34.928,0l0.863,0.941c-1.272,0.355 -2.387,1.127 -3.164,2.19l-29.997,0l-2.63,-3.131Z" style="fill:#b61f38;fill-rule:nonzero;"/><path d="M120.661,218.754l28.313,0l-2.959,3.131l-25.374,0l0.02,-3.131Z" style="fill:#b61f38;fill-rule:nonzero;"/><path d="M67.282,218.754l29.155,0l0,0.88l-4.828,2.251l-20.813,0l-3.986,-1.78c0.205,-0.433 0.363,-0.886 0.472,-1.351Z" style="fill:#b61f38;fill-rule:nonzero;"/><path d="M193.97,228.925l40.886,0l0,3.438l-39.798,0l0,-0.451l1.5,-0.695l-2.588,-2.292Z" style="fill:#b61f38;fill-rule:nonzero;"/><path d="M156.884,228.925l26.093,0l-1.972,1.8l0.863,0.778l-0.041,0.86l-24.984,0l0.041,-3.438Z" style="fill:#b61f38;fill-rule:nonzero;"/><path d="M135.865,228.904l6.164,0l0,2.456l-6.164,-2.456Z" style="fill:#b61f38;fill-rule:nonzero;"/><path d="M71.268,228.925l5.24,0l-5.24,2.455l0,-2.455Z" style="fill:#b61f38;fill-rule:nonzero;"/><path d="M165.698,240.098l11.3,0l-0.041,3.786l-1.643,0l-9.616,-3.786Z" style="fill:#b61f38;fill-rule:nonzero;"/><path d="M34.82,240.098l16.457,0l-0.041,2.087l-3.637,1.699l-9.923,0l-2.856,-3.786Z" style="fill:#b61f38;fill-rule:nonzero;"/></g><path d="M44.086,70.02c4.931,2.415 5.979,11.112 5.609,13.568c-2.069,0.379 -3.585,2.192 -3.585,4.287c0,2.28 1.795,4.194 4.078,4.349l-0.103,13.383l5.219,0l-0.246,-26.276l1.232,3.009l4.829,-28.446l5.28,28.507l1.068,-3.008l0.267,12.647c3.718,-7.352 10.475,-12.736 18.492,-14.735l0,-0.9c0.67,-0.547 1.025,-1.392 0.945,-2.251l0,-9.946c-4.787,-4.665 1.808,-10.805 3.986,-11.378l1.808,-13.035l1.685,13.179c2.198,0.573 9.061,5.77 4.561,11.378l0.185,9.884c-0.033,0.884 0.366,1.731 1.068,2.271l0,0.839c7.86,2.161 14.438,7.551 18.081,14.816l0,-26.889c0.187,-0.171 0.295,-0.413 0.295,-0.666c0,-0.253 -0.108,-0.494 -0.295,-0.665c-0.415,-0.618 -0.415,-1.428 0,-2.046l-0.658,-2.62c0.918,0 1.172,-0.832 0.761,-2.496c-0.466,-0.273 -0.404,-0.662 0.185,-1.167c0.513,-0.511 1.006,-0.45 1.438,0.164c0,0 1.685,3.602 1.356,4.502l0,2.497c0.411,1.132 1.027,1.132 1.849,0l-0.247,-1.842c-0.274,-1.009 -0.15,-1.623 0.37,-1.842c0.411,-1.446 0.315,-2.387 -0.287,-2.824c-1.356,-0.757 -1.398,-2.046 0.369,-1.842c0.592,-0.433 0.955,-1.111 0.987,-1.841l-0.226,-1.003c0.349,-0.532 0.185,-0.982 -0.452,-1.33c-1.233,-0.86 -1.178,-1.358 0.164,-1.494c0.716,-0.31 1.127,-1.077 0.986,-1.842l0,-1.657c-1.418,-0.839 -1.048,-1.474 0.206,-1.842c0.931,-0.45 1.13,-0.839 0.595,-1.167l-0.267,-1.146c-1.958,-0.382 -2.643,-1.214 -2.054,-2.496c-0.165,-1.051 0.575,-1.603 2.219,-1.658c1.369,-0.245 1.486,-0.969 0.349,-2.169c-1.137,-0.887 -1.02,-1.569 0.349,-2.047c1.37,-0.477 1.48,-1.643 0.329,-3.499c-1.151,-1.078 -1.027,-1.692 0.37,-1.842c0.791,-0.36 1.27,-1.183 1.192,-2.046l0.349,-2.66c-0.473,-0.737 -3.144,0 -3.123,-1.167c-0.37,-0.75 0.507,-1.303 2.63,-1.658c0.643,0.205 1.034,-0.518 1.171,-2.169l0,-1.33l-0.637,-0.675l-1.438,0c-0.103,-0.471 0.513,-0.696 1.828,-0.676c0.129,-0.335 0.04,-0.718 -0.226,-0.961c-0.602,-0.601 -0.753,-1.058 -0.452,-1.371c0.5,-0.865 0.546,-1.92 0.124,-2.824c-0.959,-2.074 -0.857,-3.438 0.308,-4.093c-0.802,-1.515 -0.35,-2.374 0.822,-2.763l0.534,0c1.178,0.382 1.411,1.323 0.698,2.824c1.192,0.587 1.363,1.951 0.514,4.093c-0.369,0.931 -0.262,1.985 0.288,2.824c0.315,0.3 0.191,0.757 -0.37,1.371c-0.262,0.247 -0.337,0.636 -0.185,0.962c1.335,0 1.952,0.205 1.87,0.675l-1.439,0l-0.595,0.676l0,1.33c0.219,1.65 0.65,2.374 1.294,2.169c2.137,0.368 3.041,0.921 2.712,1.657c0,1.065 -2.609,0.43 -3.061,1.167l0.472,2.66c-0.065,0.883 0.451,1.713 1.274,2.047c1.37,0.136 1.52,0.75 0.452,1.841c-0.849,2.047 -0.685,3.213 0.493,3.5c1.37,0.45 1.521,1.132 0.452,2.046c-1.109,1.201 -0.952,1.924 0.473,2.169c1.643,0 2.41,0.553 2.301,1.658c0.603,1.282 -0.082,2.115 -2.055,2.497l-0.205,1.146c-0.521,0.327 -0.308,0.716 0.637,1.166c1.253,0.389 1.664,1.003 0.287,1.842l0,1.658c-0.091,0.779 0.345,1.531 1.069,1.841c1.37,0.15 1.452,0.648 0.246,1.494c-0.616,0.348 -0.739,0.798 -0.369,1.33l-0.185,1.003c0.068,0.74 0.459,1.414 1.068,1.842c1.746,-0.307 1.788,1.084 0.452,1.842c-0.575,0.436 -0.616,1.378 -0.123,2.824c0.52,0.218 0.671,0.832 0.452,1.841l-0.165,1.822c0.877,1.132 1.493,1.132 1.85,0l0,-2.497c-0.391,-0.9 1.109,-4.502 1.109,-4.502c0.124,-0.31 0.428,-0.515 0.763,-0.515c0.269,0 0.522,0.131 0.675,0.351c0.617,0.512 0.699,0.901 0.247,1.167c-0.329,1.637 0,2.476 0.883,2.496l-0.349,2.661c0.415,0.618 0.415,1.428 0,2.046c-0.188,0.171 -0.295,0.412 -0.295,0.665c0,0.253 0.107,0.495 0.295,0.665l0,26.829l10.109,0l0.164,-8.8l-2.055,-1.78l0,-9.864l-2.999,-1.596l5.26,-2.046l4.807,-7.245l3.781,-26.173l-2.897,-0.942l3.883,-2.394l2.733,-18.254l2.938,18.254l4.006,2.312l-3,0.717l3.123,21.221l2.487,-10.007l2.239,12.053l2.753,2.047l-2.198,0.43l0.144,7.96l4.458,2.231l-2.959,1.801l0.247,9.372l-2.404,2.047l0.37,21.958l9.492,0l0,-41.706l2.178,3.417l5.835,-32.17l6.39,32.109l2.055,-3.418l-0.144,28.711l7.15,-3.785l6.513,3.622l-0.144,-28.098l2.178,3.418l5.465,-32.17l6.739,32.231l2.055,-3.417l0,105.268l-224.486,0l-0.514,-90.043l1.233,3.008l5.444,-27.892l5.281,27.729l1.233,-2.824l0.184,26.235l5.445,0l0,-13.445c2.274,-0.167 4.056,-2.077 4.056,-4.347c0,-2.202 -1.675,-4.076 -3.871,-4.33c-0.534,-1.678 0.74,-11.194 5.219,-13.547c2.897,-6.14 1.664,-8.882 2.424,-17.681c0.329,-1.126 1.048,-1.269 1.788,-1.904l0.575,-11.848l0.678,11.869c0.76,0.634 1.5,0.778 1.89,1.903c0.514,5.096 -0.637,12.913 2.507,17.64Z" style="fill:#b61f38;fill-rule:nonzero;"/></g></svg>
