<?xml version="1.0" encoding="UTF-8" standalone="no"?><!DOCTYPE svg PUBLIC "-//W3C//DTD SVG 1.1//EN" "http://www.w3.org/Graphics/SVG/1.1/DTD/svg11.dtd"><svg width="100%" height="100%" viewBox="0 0 250 250" version="1.1" xmlns="http://www.w3.org/2000/svg" xmlns:xlink="http://www.w3.org/1999/xlink" xml:space="preserve" xmlns:serif="http://www.serif.com/" style="fill-rule:evenodd;clip-rule:evenodd;stroke-linejoin:round;stroke-miterlimit:2;"><path d="M37.025,138.824c5.501,2.699 6.67,12.419 6.257,15.163c-2.308,0.423 -4,2.45 -4,4.792c0,2.547 2.003,4.687 4.55,4.86l-0.115,14.958l5.822,0l-0.275,-29.367l1.375,3.362l5.387,-31.791l5.89,31.86l1.192,-3.362l0.298,14.134c4.147,-8.216 11.685,-14.233 20.628,-16.467l0,-1.006c0.748,-0.611 1.144,-1.556 1.055,-2.516l0,-11.116c-5.341,-5.214 2.017,-12.075 4.446,-12.716l2.017,-14.569l1.88,14.729c2.452,0.641 10.107,6.45 5.088,12.717l0.206,11.046c-0.036,0.988 0.408,1.935 1.192,2.539l0,0.938c8.768,2.414 16.106,8.439 20.17,16.558l0,-30.052c0.209,-0.191 0.329,-0.461 0.329,-0.744c0,-0.282 -0.12,-0.552 -0.329,-0.743c-0.463,-0.691 -0.463,-1.596 0,-2.287l-0.734,-2.927c1.024,0 1.307,-0.931 0.848,-2.791c-0.519,-0.305 -0.45,-0.739 0.207,-1.303c0.573,-0.572 1.123,-0.504 1.604,0.183c0,0 1.88,4.025 1.513,5.031l0,2.79c0.458,1.266 1.146,1.266 2.063,0l-0.275,-2.058c-0.306,-1.128 -0.168,-1.814 0.412,-2.058c0.459,-1.617 0.352,-2.669 -0.321,-3.157c-1.512,-0.846 -1.558,-2.287 0.413,-2.058c0.66,-0.484 1.065,-1.242 1.1,-2.058l-0.252,-1.121c0.39,-0.595 0.206,-1.098 -0.504,-1.487c-1.375,-0.96 -1.314,-1.517 0.183,-1.669c0.799,-0.346 1.257,-1.204 1.1,-2.059l0,-1.852c-1.581,-0.938 -1.169,-1.647 0.229,-2.059c1.04,-0.503 1.261,-0.937 0.665,-1.303l-0.298,-1.281c-2.185,-0.427 -2.949,-1.357 -2.292,-2.79c-0.183,-1.174 0.642,-1.792 2.476,-1.853c1.528,-0.274 1.657,-1.082 0.389,-2.424c-1.268,-0.991 -1.138,-1.754 0.39,-2.287c1.528,-0.534 1.65,-1.838 0.367,-3.911c-1.284,-1.205 -1.146,-1.891 0.412,-2.059c0.883,-0.402 1.417,-1.322 1.33,-2.287l0.389,-2.973c-0.527,-0.823 -3.507,0 -3.484,-1.304c-0.412,-0.838 0.566,-1.456 2.934,-1.852c0.718,0.229 1.154,-0.58 1.307,-2.424l0,-1.487l-0.711,-0.755l-1.604,0c-0.115,-0.526 0.573,-0.777 2.039,-0.755c0.145,-0.375 0.044,-0.802 -0.252,-1.075c-0.672,-0.67 -0.84,-1.181 -0.504,-1.532c0.557,-0.966 0.608,-2.145 0.138,-3.156c-1.07,-2.318 -0.955,-3.842 0.343,-4.574c-0.893,-1.693 -0.389,-2.653 0.917,-3.088l0.596,0c1.314,0.427 1.574,1.479 0.779,3.156c1.33,0.656 1.521,2.181 0.573,4.575c-0.411,1.04 -0.292,2.219 0.321,3.156c0.352,0.335 0.214,0.846 -0.412,1.532c-0.292,0.276 -0.376,0.711 -0.207,1.075c1.49,0 2.178,0.229 2.086,0.755l-1.604,0l-0.665,0.755l0,1.486c0.245,1.845 0.726,2.653 1.444,2.424c2.384,0.412 3.392,1.03 3.026,1.853c0,1.189 -2.911,0.48 -3.416,1.304l0.528,2.973c-0.074,0.986 0.503,1.914 1.421,2.287c1.528,0.152 1.696,0.839 0.504,2.058c-0.947,2.288 -0.764,3.591 0.55,3.911c1.528,0.504 1.696,1.266 0.504,2.287c-1.237,1.342 -1.062,2.15 0.527,2.425c1.834,0 2.69,0.617 2.568,1.852c0.672,1.434 -0.092,2.364 -2.293,2.791l-0.229,1.28c-0.58,0.366 -0.344,0.801 0.711,1.304c1.398,0.435 1.856,1.121 0.321,2.058l0,1.853c-0.102,0.871 0.384,1.711 1.192,2.058c1.528,0.168 1.619,0.725 0.275,1.67c-0.688,0.389 -0.826,0.892 -0.413,1.487l-0.206,1.12c0.076,0.827 0.512,1.58 1.192,2.059c1.948,-0.343 1.994,1.212 0.504,2.058c-0.642,0.488 -0.688,1.54 -0.138,3.156c0.581,0.244 0.749,0.93 0.505,2.059l-0.184,2.035c0.978,1.266 1.666,1.266 2.063,0l0,-2.79c-0.435,-1.006 1.238,-5.032 1.238,-5.032c0.138,-0.347 0.477,-0.575 0.851,-0.575c0.3,0 0.582,0.146 0.753,0.392c0.688,0.572 0.779,1.007 0.275,1.304c-0.367,1.83 0,2.767 0.986,2.79l-0.39,2.973c0.463,0.691 0.463,1.597 0,2.288c-0.209,0.19 -0.329,0.46 -0.329,0.743c0,0.283 0.12,0.553 0.329,0.743l0,29.984l11.277,0l0.183,-9.834l-2.292,-1.99l0,-11.024l-3.346,-1.784l5.867,-2.287l5.364,-8.096l4.217,-29.253l-3.232,-1.052l4.332,-2.675l3.049,-20.401l3.277,20.401l4.47,2.584l-3.347,0.8l3.484,23.718l2.774,-11.184l2.498,13.471l3.071,2.287l-2.452,0.48l0.16,8.897l4.974,2.493l-3.301,2.013l0.275,10.475l-2.681,2.287l0.412,24.54l10.59,0l0,-46.611l2.429,3.82l6.509,-35.954l7.129,35.885l2.292,-3.819l-0.161,32.088l7.976,-4.232l7.266,4.049l-0.16,-31.402l2.429,3.819l6.097,-35.953l7.518,36.022l2.292,-3.82l0,117.649l-250.427,0l-0.573,-100.633l1.375,3.362l6.074,-31.173l5.891,30.99l1.375,-3.156l0.206,29.321l6.074,0l0,-15.026c2.537,-0.186 4.524,-2.321 4.524,-4.859c0,-2.46 -1.868,-4.554 -4.318,-4.839c-0.596,-1.875 0.825,-12.51 5.822,-15.14c3.232,-6.862 1.857,-9.926 2.705,-19.761c0.366,-1.258 1.169,-1.418 1.994,-2.127l0.641,-13.242l0.757,13.265c0.848,0.709 1.673,0.869 2.108,2.127c0.573,5.695 -0.71,14.432 2.797,19.715Z" style="fill:#b61f38;fill-rule:nonzero;"/></svg>
