<svg width="692" height="140" viewBox="0 0 692 140" fill="none" xmlns="http://www.w3.org/2000/svg">
<path fill-rule="evenodd" clip-rule="evenodd" d="M284.715 1.0436C292.819 1.27345 295.03 1.75405 300.881 4.61676C304.604 6.43469 308.714 9.13023 312.354 13.2885L304.531 23.3184L298.44 19.087C292.933 15.2527 291.64 14.8243 284.882 14.5004C278.29 14.1974 276.736 14.5109 271.677 17.1646C267.412 19.4005 265.127 21.5005 262.77 25.3453C261.028 28.1975 259.297 32.6379 258.922 35.2289C258.557 37.82 258.776 42.2812 259.412 45.1544C260.058 48.0275 262.03 52.2589 263.792 54.5574C265.628 56.9604 269.435 59.9694 272.731 61.6306C276.183 63.365 280.115 64.5038 282.629 64.4933C284.923 64.4829 288.438 64.0127 290.451 63.459C292.464 62.9053 296.448 61.0038 299.316 59.2381C304.344 56.1455 304.604 56.0933 306.471 57.9008C307.535 58.9351 309.413 61.15 312.875 65.8411L309.746 68.359C308.025 69.7382 303.916 72.2561 300.62 73.9486C297.324 75.6412 292.162 77.4173 289.147 77.8979C286.133 78.3785 280.856 78.4099 277.414 77.9606C273.972 77.5114 268.924 76.174 266.202 74.9934C263.479 73.8128 259.068 70.8456 256.408 68.4008C253.748 65.956 250.536 62.3097 249.264 60.3038C248.002 58.2978 246.135 54.0664 245.113 50.9007C243.778 46.7738 243.371 42.9499 243.673 37.3185C243.965 31.8334 244.883 27.7587 246.729 23.7363C248.189 20.5811 251.224 15.9318 253.488 13.4243C255.751 10.9168 259.714 7.63619 262.29 6.15259C264.877 4.669 268.861 2.85108 271.156 2.10928C273.607 1.32569 279.187 0.886881 284.715 1.0436V1.0436ZM358.767 1.06449C366.829 1.30479 369.144 1.82719 375.194 4.71079C379.063 6.54961 384.226 10.081 386.666 12.5571C389.107 15.0228 392.152 19.2542 393.446 21.9602C394.739 24.6557 396.314 29.3364 396.961 32.3558C397.607 35.3961 397.826 40.4006 397.451 43.5872C397.075 46.7425 395.375 52.2694 393.675 55.8634C391.975 59.4575 388.585 64.4098 386.145 66.8755C383.704 69.3411 379.126 72.6322 375.976 74.1785C372.826 75.7248 367.423 77.386 363.981 77.877C360.54 78.3681 354.668 78.3681 350.944 77.877C347.221 77.386 341.578 75.7248 338.428 74.1785C335.279 72.6322 330.7 69.3411 328.259 66.8755C325.819 64.4098 322.304 59.2172 320.447 55.341C317.454 49.0932 317.068 47.2753 317.068 39.4081C317.068 31.6976 317.485 29.6289 320.239 23.7363C321.98 19.996 325.381 14.9497 327.79 12.5049C330.199 10.0601 334.163 7.05111 336.603 5.80781C339.044 4.55407 342.913 2.91376 345.208 2.16152C347.773 1.30479 352.999 0.886881 358.767 1.06449ZM337.782 23.2139C336.488 24.9378 334.694 28.114 333.797 30.2662C332.901 32.4185 332.16 36.6498 332.16 39.6693C332.15 43.6081 332.963 46.7634 335.028 50.8589C336.77 54.3171 339.555 57.7545 342.079 59.5829C344.373 61.2441 347.429 63.062 348.858 63.6366C350.297 64.2008 354.052 64.671 357.202 64.6814C360.352 64.7023 364.576 64.0232 366.589 63.1874C368.602 62.3515 371.846 60.3038 373.806 58.6321C375.767 56.9709 378.468 53.2515 379.793 50.3783C381.399 46.9096 382.213 43.2215 382.213 39.4081C382.213 35.5946 381.399 31.9065 379.793 28.4378C378.468 25.5647 375.767 21.8453 373.806 20.184C371.846 18.5124 368.717 16.5169 366.85 15.7437C364.983 14.9706 360.759 14.3228 357.463 14.3228C352.957 14.3124 350.058 15.0228 345.802 17.196C342.684 18.784 339.075 21.49 337.782 23.2139V23.2139ZM523.037 1.08539C531.704 1.35703 535.271 1.95256 540.121 3.95855C543.5 5.35856 546.702 7.20783 547.244 8.06455C547.922 9.15112 547.401 11.4705 545.534 15.6392C542.937 21.4587 542.78 21.605 540.507 20.1214C539.213 19.2855 535.344 17.6243 531.902 16.4437C528.46 15.2631 523.057 14.3019 519.908 14.3124C516.539 14.3124 513.201 14.9706 511.824 15.89C510.135 17.0288 509.478 18.4915 509.478 21.1244C509.478 24.0393 510.166 25.2826 512.867 27.2677C514.734 28.6363 520.241 31.0289 525.123 32.5961C530.004 34.1633 535.636 36.2737 537.638 37.2872C539.641 38.3111 542.812 40.8499 544.678 42.929C546.545 45.0186 548.371 48.0171 548.736 49.5947C549.101 51.1723 549.215 54.8395 548.996 57.7545C548.736 61.15 547.63 64.4933 545.888 67.1575C544.24 69.6546 540.955 72.4859 537.544 74.3561C532.872 76.9158 530.379 77.5218 523.037 77.8875C516.664 78.2009 512.409 77.8248 507.913 76.5397C504.471 75.5472 499.382 73.4994 496.597 71.9635C493.812 70.4382 490.881 68.4844 490.068 67.6172C488.806 66.259 488.962 65.2351 491.215 60.0426C492.654 56.741 494.073 54.0351 494.354 54.0351C494.636 54.0351 496.868 55.4664 499.309 57.2112C501.749 58.9664 506.203 61.3172 509.217 62.4351C512.44 63.6366 517.3 64.4829 521.034 64.4829C526.697 64.4829 527.688 64.1486 530.421 61.3485C532.09 59.6246 533.466 57.2739 533.466 56.1246C533.466 54.9754 532.142 52.7395 530.515 51.1619C528.69 49.3858 524.424 47.3171 519.303 45.7395C514.766 44.3395 508.696 42.1663 505.827 40.9126C502.959 39.6588 499.35 37.2767 497.807 35.626C496.274 33.9752 494.511 31.3214 493.896 29.7438C493.291 28.1662 492.8 24.8751 492.811 22.4303C492.821 19.9855 493.697 16.1094 494.761 13.8109C495.825 11.5123 497.807 8.58694 499.173 7.30186C500.539 6.02722 504.002 4.02123 506.87 2.85108C511.22 1.08539 513.9 0.79285 523.037 1.08539V1.08539ZM409.351 1.79584L424.475 1.85853L462.616 53.5127L462.543 1.79584H477.145V77.0203H462.543L425.518 27.5602L424.996 77.0203H409.351V1.79584ZM561.627 1.79584H576.229L576.239 26.6095C576.26 49.3126 576.437 51.7783 578.346 55.6022C579.493 57.9008 581.6 60.6067 583.019 61.6097C584.447 62.6127 587.848 63.8456 590.57 64.3471C593.386 64.8695 597.433 64.8695 599.957 64.3471C602.627 63.8038 605.63 62.1948 607.518 60.3038C609.239 58.5799 611.117 55.4037 611.68 53.2515C612.253 51.0992 612.723 38.6349 612.733 1.79584H627.335L627.345 27.1319C627.356 46.0947 626.98 53.7843 625.854 57.6918C624.863 61.1396 622.642 64.8068 619.325 68.474C615.643 72.5486 612.764 74.6069 608.561 76.1427C604.817 77.5114 600.113 78.2636 595.002 78.3054C590.1 78.3367 585.042 77.6576 581.444 76.4666C577.678 75.2233 573.986 72.9247 570.691 69.7904C567.405 66.6456 564.985 63.1247 563.65 59.5202C561.846 54.6306 561.627 51.2037 561.627 27.9154V1.79584ZM644.023 1.79584H658.625V63.4381L691.479 63.9605L692 77.0203H644.023V1.79584ZM433.736 91.8876C436.677 92.3577 440.484 93.6324 442.205 94.7189C443.926 95.816 446.367 97.8011 447.618 99.1384C448.88 100.476 450.935 103.924 452.197 106.797C453.928 110.756 454.346 113.285 453.939 117.244C453.647 120.118 452.479 124.349 451.342 126.648C450.205 128.946 447.681 132.195 445.741 133.857C443.791 135.528 440.568 137.576 438.555 138.422C436.542 139.269 432.088 139.948 428.646 139.927C425.205 139.916 420.751 139.206 418.738 138.36C416.725 137.503 413.502 135.466 411.552 133.815C409.612 132.174 407.151 129.061 406.076 126.909C405.012 124.756 403.855 120.995 403.511 118.55C403.156 116.106 403.375 112.23 403.98 109.931C404.585 107.632 406.16 104.132 407.474 102.147C408.798 100.162 411.75 97.216 414.045 95.5861C416.402 93.904 420.428 92.2846 423.306 91.8353C426.112 91.407 430.805 91.4279 433.736 91.8876V91.8876ZM414.305 109.231C413.304 111.624 412.491 114.643 412.491 115.939C412.501 117.234 413.554 120.348 414.837 122.865C416.12 125.373 418.582 128.298 420.303 129.364C422.222 130.545 425.455 131.297 428.646 131.318C432.067 131.328 435.03 130.628 437.251 129.26C439.327 127.974 441.496 125.248 442.852 122.207C444.531 118.446 444.886 116.231 444.333 113.065C443.937 110.767 442.706 107.591 441.6 106.013C440.505 104.435 438.19 102.429 436.469 101.573C434.748 100.706 431.108 100.006 428.386 100.006C424.923 99.9951 422.326 100.726 419.781 102.429C417.633 103.871 415.38 106.671 414.305 109.231V109.231ZM486.344 91.9085C489.025 92.3786 493.218 93.9145 495.658 95.3354C498.099 96.7563 500.07 98.2712 500.049 98.6996C500.028 99.1279 498.975 100.81 495.397 105.376L491.226 102.659C488.107 100.632 485.739 99.9533 481.839 99.9847C478.397 100.006 475.56 100.737 473.495 102.126C471.774 103.286 469.552 105.512 468.551 107.079C467.445 108.813 466.726 111.979 466.726 115.155C466.726 118.55 467.456 121.57 468.801 123.774C469.949 125.645 472.41 128.142 474.277 129.322C476.811 130.931 479.012 131.38 483.038 131.151C486.668 130.931 489.546 130.012 495.397 125.801L497.702 128.842C499.882 131.704 499.914 131.976 498.224 133.763C497.244 134.797 494.334 136.636 491.747 137.837C488.754 139.227 484.978 140.01 481.317 140C477.375 139.989 473.954 139.185 470.366 137.419C467.498 136.009 463.712 133.01 461.949 130.754C460.186 128.486 458.194 124.192 457.516 121.162C456.651 117.297 456.588 114.204 457.318 110.715C457.881 107.988 459.759 103.756 461.49 101.312C463.211 98.8667 466.622 95.8473 469.062 94.5831C471.503 93.3294 475.289 92.0234 477.479 91.6891C479.669 91.3443 483.653 91.4488 486.344 91.9085V91.9085ZM632.112 91.8667C634.646 92.3159 638.015 93.3921 639.59 94.2383C641.165 95.0846 643.397 96.4951 644.544 97.3623C646.609 98.9294 646.609 98.9712 644.023 101.823C642.594 103.412 641.415 104.843 641.415 105.021C641.415 105.188 639.538 104.112 637.243 102.628C634.146 100.632 631.726 99.9533 627.856 99.9742C624.529 100.006 621.421 100.768 619.252 102.095C617.166 103.38 615.017 106.097 613.661 109.147C612.055 112.773 611.659 115.092 612.191 117.767C612.598 119.783 613.703 122.761 614.652 124.401C615.601 126.031 618.146 128.267 620.295 129.364C622.443 130.451 625.969 131.339 628.117 131.339C630.38 131.328 633.895 130.231 640.894 126.125L643.407 128.998C645.389 131.255 645.671 132.185 644.711 133.303C644.044 134.097 641.155 135.915 638.286 137.346C634.615 139.185 631.382 139.958 627.335 139.948C624.185 139.937 619.951 139.248 617.948 138.412C615.946 137.576 612.712 135.528 610.762 133.857C608.822 132.195 606.361 129.061 605.286 126.909C604.222 124.756 603.065 120.995 602.721 118.55C602.366 116.106 602.585 112.23 603.19 109.931C603.795 107.632 605.37 104.132 606.684 102.147C608.008 100.162 610.96 97.216 613.255 95.5861C615.581 93.9354 619.659 92.2742 622.464 91.8353C625.228 91.3965 629.577 91.4174 632.112 91.8667V91.8667ZM245.811 91.4383L259.527 91.8353C271.031 92.1697 273.92 92.5876 277.414 94.4578C279.708 95.6801 282.848 98.0205 284.402 99.6503C285.945 101.28 287.937 104.383 288.834 106.535C289.721 108.688 290.451 112.804 290.451 115.677C290.451 118.55 289.721 122.667 288.834 124.819C287.937 126.971 285.945 130.074 284.402 131.704C282.848 133.334 279.708 135.674 277.414 136.897C273.868 138.788 271.166 139.164 245.603 139.707L245.811 91.4383ZM254.99 131.349C266.671 131.339 270.29 130.722 272.647 129.51C274.608 128.507 277.195 126.365 278.384 124.736C279.99 122.552 280.543 120.212 280.543 115.677C280.543 111.133 279.99 108.803 278.384 106.609C277.195 104.989 274.608 102.837 272.647 101.834C270.29 100.632 266.671 100.006 262.03 100.006H254.99V131.349ZM298.795 91.6473H333.213V100.006H308.182V111.498H331.127V119.856H308.182V131.349H334.256V139.707H298.795V91.6473ZM343.643 91.6473H354.073L369.395 122.468L385.363 91.6473H395.792V139.707H387.449L387.365 105.752L380.106 120.118C373.212 133.763 372.69 134.483 369.718 134.483C366.756 134.483 366.213 133.742 352.509 107.047L351.987 139.707H343.643V91.6473ZM507.392 91.6473L520.168 91.6368C531.38 91.6264 533.508 91.9189 537.576 93.9876C540.121 95.2831 543.072 97.519 544.136 98.9608C545.2 100.392 546.326 103.683 546.66 106.274C547.046 109.356 546.671 112.501 545.575 115.416C544.616 117.924 542.655 120.619 541.028 121.622C539.453 122.604 538.045 123.545 537.899 123.712C537.753 123.889 539.985 127.557 548.068 139.707L537.2 139.185L529.294 125.08H516.779V139.707H507.392V91.6473ZM516.779 117.767C525.269 117.756 529.493 117.286 531.641 116.712C533.79 116.137 536.022 114.737 536.595 113.588C537.169 112.438 537.628 109.962 537.617 108.103C537.617 106.232 537.263 104.185 536.835 103.558C536.418 102.921 535.02 101.865 533.727 101.207C532.434 100.538 528.095 100.006 524.08 100.006H516.779V117.767ZM571.535 91.6995L580.922 91.5637L591.07 114.852C596.661 127.661 601.239 138.485 601.239 138.924C601.25 139.352 599.091 139.582 596.431 139.446C591.759 139.185 591.55 139.039 587.952 129.782L564.756 129.26L562.409 134.515C560.115 139.655 559.958 139.78 555.63 139.739C551.896 139.707 551.281 139.415 551.75 137.879C552.063 136.866 556.631 126.073 561.919 113.88L571.535 91.6995ZM568.177 121.674C568.302 121.821 571.984 121.821 576.364 121.674L584.322 121.413C579.191 107.235 577.209 103.129 576.625 103.129C576.031 103.129 573.84 107.235 571.744 112.271C569.647 117.297 568.041 121.528 568.177 121.674V121.674ZM657.06 91.6891L663.318 102.628C666.76 108.635 669.889 113.212 670.275 112.783C670.661 112.355 673.539 107.538 676.679 102.085C682.321 92.2324 682.405 92.1592 686.67 91.898C689.027 91.7518 690.967 91.9816 690.988 92.4204C690.999 92.8488 687.244 100.131 682.644 108.615C674.29 123.994 674.269 124.036 674.269 139.697L665.404 139.175L664.882 130.816C664.382 122.74 664.09 121.956 656.299 107.831C651.866 99.7862 648.236 92.8488 648.216 92.4204C648.205 91.9816 650.187 91.6473 657.06 91.6891Z" fill="#36424A" fill-opacity="0.94"/>
<path d="M19.7966 4.12572C22.6648 2.67347 26.1797 1.09584 27.619 0.62569C29.0479 0.155537 34.9199 -0.105659 40.6563 0.0406108C49.2088 0.260015 52.1187 0.782408 56.8226 2.93466C59.9724 4.37646 64.6762 7.46903 67.2524 9.79889C69.8286 12.1392 73.4477 16.8198 75.273 20.2049C77.1086 23.5796 79.3823 29.6393 80.3314 33.6618C81.6769 39.3349 81.9481 44.1409 81.5413 55.0798C81.1658 65.1829 80.3836 71.4098 78.7565 77.0203C77.5154 81.3353 74.741 88.6174 72.5925 93.2145C70.4544 97.8115 66.6266 104.623 64.1026 108.364C61.5786 112.104 56.6557 117.976 53.1826 121.424C49.699 124.871 43.3472 129.876 39.0605 132.54C34.7739 135.204 29.4338 138.025 27.1914 138.809C24.6048 139.707 22.9673 139.843 22.717 139.185C22.498 138.61 18.6076 132.268 14.0811 125.08C6.06053 112.365 5.89365 111.979 7.92747 110.453C9.08518 109.586 12.8086 106.65 16.2088 103.923C19.6193 101.197 24.5422 96.2548 27.1705 92.9533C29.7884 89.6517 33.3033 84.595 34.9825 81.7218C36.6617 78.8487 38.0384 76.2681 38.0593 75.9755C38.0697 75.683 35.3788 74.8158 32.0726 74.0322C28.7663 73.2486 23.7078 71.5143 20.8396 70.1665C17.9714 68.8292 13.5804 65.9351 11.0773 63.7515C8.3238 61.3485 5.23657 57.1172 3.2549 53.0112C0.355403 47.0245 -0.0200714 45.2171 0.000788242 37.3394C0.0216479 30.0677 0.501421 27.3931 2.6604 22.6915C4.11015 19.5363 7.38512 14.6571 9.94043 11.8571C12.4957 9.0571 16.9284 5.57797 19.7966 4.12572Z" fill="#00A8E1" fill-opacity="0.98"/>
<path d="M124.095 4.12572C126.963 2.67347 130.478 1.09584 131.917 0.62569C133.346 0.155537 139.218 -0.105659 144.955 0.0406108C153.507 0.260015 156.417 0.782408 161.121 2.93466C164.281 4.37646 168.975 7.46903 171.551 9.79889C174.127 12.1392 177.746 16.8198 179.571 20.2049C181.407 23.5796 183.681 29.6393 184.63 33.6618C185.975 39.3349 186.246 44.1409 185.84 55.0798C185.464 65.1829 184.682 71.4098 183.055 77.0203C181.814 81.3353 178.914 88.8577 176.62 93.7368C174.325 98.6264 170.258 105.679 167.567 109.409C164.886 113.149 160.224 118.665 157.21 121.685C154.196 124.704 148.563 129.239 144.694 131.767C140.825 134.295 135.641 137.231 133.179 138.297C129.508 139.885 128.486 139.989 127.443 138.861C126.755 138.098 122.583 131.757 118.181 124.756C110.401 112.376 110.234 111.979 112.247 110.453C113.384 109.597 117.107 106.65 120.507 103.923C123.918 101.197 128.841 96.2548 131.469 92.9533C134.087 89.6517 137.602 84.595 139.281 81.7218C140.96 78.8487 142.337 76.2681 142.358 75.9755C142.368 75.683 139.677 74.8158 136.371 74.0322C133.065 73.2486 128.006 71.5143 125.138 70.1665C122.27 68.8292 117.879 65.9351 115.376 63.7515C112.622 61.3485 109.535 57.1172 107.553 53.0112C104.654 47.0245 104.278 45.2171 104.299 37.3394C104.32 30.0677 104.8 27.3931 106.959 22.6915C108.409 19.5363 111.684 14.6571 114.239 11.8571C116.794 9.0571 121.227 5.57797 124.095 4.12572Z" fill="#00A8E1" fill-opacity="0.98"/>
</svg>
