<?xml version="1.0" encoding="UTF-8" standalone="no"?>
<svg width="168px" height="168px" viewBox="0 0 168 168" version="1.1" xmlns="http://www.w3.org/2000/svg" xmlns:xlink="http://www.w3.org/1999/xlink" xmlns:sketch="http://www.bohemiancoding.com/sketch/ns">
    <!-- Generator: Sketch 3.3 (11970) - http://www.bohemiancoding.com/sketch -->
    <title>Imported Layers</title>
    <desc>Created with Sketch.</desc>
    <defs></defs>
    <g id="Page-1" stroke="none" stroke-width="1" fill="none" fill-rule="evenodd" sketch:type="MSPage">
        <path d="M83.7019521,31 C66.7919521,31 53.3089521,44.238 53.0049521,61.138 C52.8259521,71.087 57.5089521,80.548 65.5349521,86.446 C68.2559521,88.446 69.8799521,91.664 69.8799521,95.053 L69.8799521,99.237 C69.8799521,100.61 70.3489521,101.873 71.1279521,102.886 C69.9239521,103.842 69.1349521,105.301 69.1349521,106.954 C69.1349521,108.255 69.6139521,109.446 70.4039521,110.361 C69.6139521,111.275 69.1349521,112.466 69.1349521,113.766 C69.1349521,115.067 69.6129521,116.257 70.4029521,117.172 C69.6129521,118.087 69.1349521,119.277 69.1349521,120.577 C69.1349521,123.319 71.2679521,125.549 73.9589521,125.755 L74.7749521,131.146 L92.6299521,131.146 L93.4459521,125.755 C96.1359521,125.55 98.2699521,123.32 98.2699521,120.577 C98.2699521,119.277 97.7919521,118.087 97.0019521,117.172 C97.7919521,116.257 98.2699521,115.067 98.2699521,113.766 C98.2699521,112.466 97.7909521,111.275 97.0009521,110.361 C97.7909521,109.446 98.2699521,108.255 98.2699521,106.954 C98.2699521,105.301 97.4809521,103.842 96.2769521,102.885 C97.0559521,101.873 97.5249521,100.61 97.5249521,99.237 L97.5249521,95.055 C97.5249521,91.683 99.1889521,88.435 101.976952,86.367 C109.758952,80.595 114.404952,71.375 114.404952,61.702 C114.404952,44.773 100.631952,31 83.7019521,31 L83.7019521,31 Z M83.7019521,60.623 C85.9319521,60.623 87.6609521,58.153 87.6609521,56.027 C87.6609521,53.889 86.8459521,51.938 85.5089521,50.468 C86.2729521,50.123 87.1209521,49.93 88.0119521,49.93 C91.5449521,49.93 94.1089521,52.494 94.1089521,56.027 C94.1089521,60.621 91.0709521,65.06 87.5539521,70.201 C86.2759521,72.07 84.9499521,74.007 83.7019521,76.054 C82.4539521,74.007 81.1289521,72.07 79.8499521,70.201 C76.3339521,65.06 73.2969521,60.621 73.2969521,56.027 C73.2969521,52.494 75.8599521,49.93 79.3929521,49.93 C80.2839521,49.93 81.1309521,50.123 81.8949521,50.468 C80.5579521,51.937 79.7419521,53.889 79.7419521,56.027 C79.7419521,58.153 81.4719521,60.623 83.7019521,60.623 L83.7019521,60.623 Z M81.9149521,56.027 C81.9149521,54.346 82.5989521,52.823 83.7019521,51.719 C84.8049521,52.823 85.4879521,54.346 85.4879521,56.027 C85.4879521,57.063 84.6049521,58.45 83.7019521,58.45 C82.7979521,58.45 81.9149521,57.063 81.9149521,56.027 L81.9149521,56.027 Z M87.4779521,93.923 L79.9259521,93.923 C80.1219521,88.864 81.6459521,84.451 83.7019521,80.476 C85.7579521,84.451 87.2819521,88.864 87.4779521,93.923 L87.4779521,93.923 Z M77.5859521,96.095 L89.8179521,96.095 L89.8179521,101.737 L77.5859521,101.737 L77.5859521,96.095 Z M77.4899521,127.989 L77.1579521,125.795 L90.2459521,125.795 L89.9139521,127.989 L77.4899521,127.989 L77.4899521,127.989 Z M93.0519521,122.173 L74.3529521,122.173 C73.4729521,122.173 72.7569521,121.457 72.7569521,120.577 C72.7569521,119.698 73.4729521,118.984 74.3529521,118.984 L93.0519521,118.984 C93.9319521,118.984 94.6479521,119.698 94.6479521,120.577 C94.6479521,121.457 93.9319521,122.173 93.0519521,122.173 L93.0519521,122.173 Z M93.0519521,115.361 L74.3529521,115.361 C73.4729521,115.361 72.7569521,114.646 72.7569521,113.766 C72.7569521,112.887 73.4729521,112.172 74.3529521,112.172 L93.0519521,112.172 C93.9319521,112.172 94.6479521,112.887 94.6479521,113.766 C94.6479521,114.646 93.9319521,115.361 93.0519521,115.361 L93.0519521,115.361 Z M93.0519521,108.549 L74.3529521,108.549 C73.4729521,108.549 72.7569521,107.834 72.7569521,106.954 C72.7569521,106.075 73.4729521,105.36 74.3529521,105.36 L93.0519521,105.36 C93.9319521,105.36 94.6479521,106.075 94.6479521,106.954 C94.6479521,107.834 93.9319521,108.549 93.0519521,108.549 L93.0519521,108.549 Z M99.9639521,83.653 C96.3199521,86.355 94.1459521,90.618 94.1459521,95.055 L94.1459521,99.237 C94.1459521,100.421 93.3519521,101.413 92.2719521,101.737 L91.9909521,101.737 L91.9909521,93.923 L89.6479521,93.923 C89.4329521,87.865 87.4789521,82.746 84.9559521,78.201 C86.3489521,75.812 87.8809521,73.572 89.3479521,71.428 C92.9129521,66.216 96.2809521,61.293 96.2809521,56.027 C96.2809521,51.313 92.7259521,47.757 88.0119521,47.757 C86.4339521,47.757 84.9579521,48.202 83.7019521,48.971 C82.4459521,48.202 80.9709521,47.757 79.3929521,47.757 C74.6789521,47.757 71.1239521,51.313 71.1239521,56.027 C71.1239521,61.293 74.4909521,66.216 78.0569521,71.428 C79.5239521,73.572 81.0559521,75.812 82.4489521,78.201 C79.9249521,82.746 77.9709521,87.865 77.7559521,93.923 L75.4129521,93.923 L75.4129521,101.737 L75.1329521,101.737 C74.0529521,101.413 73.2589521,100.421 73.2589521,99.237 L73.2589521,95.053 C73.2589521,90.593 71.1189521,86.358 67.5359521,83.724 C60.3929521,78.474 56.2239521,70.053 56.3839521,61.198 C56.6529521,46.159 68.6529521,34.379 83.7019521,34.379 C98.7689521,34.379 111.025952,46.636 111.025952,61.702 C111.025952,70.438 106.993952,78.439 99.9639521,83.653 L99.9639521,83.653 Z" id="Imported-Layers" fill="#D82331" sketch:type="MSShapeGroup"></path>
    </g>
</svg>