<?xml version="1.0" encoding="UTF-8" standalone="no"?>
<svg width="168px" height="168px" viewBox="0 0 168 168" version="1.1" xmlns="http://www.w3.org/2000/svg" xmlns:xlink="http://www.w3.org/1999/xlink" xmlns:sketch="http://www.bohemiancoding.com/sketch/ns">
    <!-- Generator: Sketch 3.3 (11970) - http://www.bohemiancoding.com/sketch -->
    <title>Imported Layers</title>
    <desc>Created with Sketch.</desc>
    <defs></defs>
    <g id="Page-1" stroke="none" stroke-width="1" fill="none" fill-rule="evenodd" sketch:type="MSPage">
        <g id="Imported-Layers" sketch:type="MSLayerGroup" transform="translate(21.000000, 35.000000)" fill="#0072AD">
            <path d="M125.511254,31.9 C125.511254,21.994 121.075254,13.682 112.682254,7.864 C105.367254,2.793 95.5322542,0 84.9902542,0 C69.8922542,0 56.6642542,5.559 49.3292542,14.922 C46.1232542,14.367 42.8152542,14.086 39.4782542,14.086 C31.0882542,14.086 23.1392542,15.861 17.0972542,19.086 C7.8942542,24 -2.0127458,34.63 0.355254197,48.423 C2.8542542,62.974 16.6182542,71.008 28.3212542,73.706 C26.9222542,82.031 20.5142542,87.966 14.3362542,92.71 L9.9652542,96.064 L15.4712542,95.883 C30.3132542,95.4 43.9332542,86.192 47.7262542,74.266 C57.0442542,72.708 65.7892542,68.271 71.5262542,62.197 C72.4532542,62.441 73.3832542,62.655 74.3022542,62.835 C76.0072542,63.167 77.7572542,63.416 79.5172542,63.577 C84.0742542,73.088 95.3592542,80.942 104.710254,80.944 L104.711254,80.944 C106.881254,80.944 108.879254,80.519 110.645254,79.679 L113.825254,78.169 L110.717254,76.516 C104.688254,73.309 100.529254,68.546 98.0472542,61.993 C111.620254,58.224 125.511254,47.525 125.511254,31.9 L125.511254,31.9 Z M50.8742542,18.833 C51.6552542,19.002 52.4082542,19.199 53.1562542,19.4 L48.0952542,24.461 C48.7872542,22.478 49.7142542,20.592 50.8742542,18.833 L50.8742542,18.833 Z M63.3282542,55.228 L75.3252542,43.23 C75.3412542,43.597 75.3752542,43.956 75.3752542,44.328 C75.3752542,45.44 75.2792542,46.527 75.1162542,47.6 L66.1382542,56.578 C65.1822542,56.162 64.2452542,55.71 63.3282542,55.228 L63.3282542,55.228 Z M58.8732542,52.518 L74.2782542,37.11 C74.6222542,38.202 74.8802542,39.331 75.0592542,40.49 L61.3992542,54.151 C60.5312542,53.636 59.6882542,53.09 58.8732542,52.518 L58.8732542,52.518 Z M57.1562542,51.228 C56.3802542,50.612 55.6342542,49.969 54.9252542,49.298 L72.0372542,32.188 C72.5732542,33.069 73.0492542,33.981 73.4602542,34.924 L57.1562542,51.228 L57.1562542,51.228 Z M53.4302542,47.789 C52.7552542,47.06 52.1222542,46.305 51.5342542,45.524 L68.9312542,28.127 C69.6212542,28.849 70.2402542,29.612 70.8242542,30.395 L53.4302542,47.789 L53.4302542,47.789 Z M50.3032542,43.751 C49.7532542,42.88 49.2602542,41.984 48.8282542,41.064 L65.0732542,24.819 C65.8912542,25.402 66.6672542,26.015 67.3942542,26.659 L50.3032542,43.751 L50.3032542,43.751 Z M47.9552542,38.931 C47.5822542,37.863 47.2832542,36.768 47.0832542,35.645 L60.5722542,22.155 C61.5072542,22.615 62.4142542,23.097 63.2682542,23.619 L47.9552542,38.931 L47.9552542,38.931 Z M46.7852542,32.937 C46.7202542,31.494 46.8112542,30.013 47.0602542,28.502 L55.4682542,20.094 C56.5162542,20.437 57.5352542,20.805 58.5092542,21.211 L46.7852542,32.937 L46.7852542,32.937 Z M46.0932542,70.934 L44.9262542,71.099 L44.6282542,72.239 C42.1542542,81.68 32.5512542,89.38 21.1652542,91.669 C26.6082542,86.773 31.3162542,80.681 32.0492542,72.467 L32.1922542,70.873 L30.6172542,70.571 C18.8492542,68.317 6.0072542,60.409 3.8462542,47.824 C1.7972542,35.891 10.6022542,26.569 18.7652542,22.211 C24.3032542,19.255 31.6592542,17.627 39.4782542,17.627 C42.0582542,17.627 44.6192542,17.807 47.1212542,18.161 C45.7972542,20.414 44.7862542,22.829 44.1082542,25.37 C41.8682542,33.744 43.8012542,41.878 49.6972542,48.896 C54.0712542,54.102 60.5272542,58.422 67.7072542,61.006 C62.2772542,66.113 54.4022542,69.759 46.0932542,70.934 L46.0932542,70.934 Z M70.3492542,58.166 C69.6532542,57.943 68.9642542,57.699 68.2792542,57.442 L74.1012542,51.621 C73.2622542,53.92 72.0102542,56.107 70.3492542,58.166 L70.3492542,58.166 Z M95.3432542,59.025 L93.4702542,59.457 L94.0532542,61.289 C96.2602542,68.225 99.9882542,73.525 105.393254,77.383 C105.169254,77.396 104.941254,77.401 104.711254,77.401 L104.710254,77.401 C96.5962542,77.4 85.9302542,69.681 82.3312542,61.204 L81.9072542,60.207 L80.8262542,60.13 C78.8532542,59.989 76.8862542,59.73 74.9802542,59.358 C74.6692542,59.296 74.3592542,59.232 74.0452542,59.164 C77.2802542,54.696 78.9172542,49.717 78.9172542,44.328 C78.9172542,30.313 69.3872542,19.787 53.2592542,15.752 C60.0892542,8.164 71.9502542,3.543 84.9902542,3.543 C102.801254,3.543 121.969254,12.417 121.969254,31.9 C121.969254,46.322 108.167254,56.071 95.3432542,59.025 L95.3432542,59.025 Z" sketch:type="MSShapeGroup"></path>
        </g>
    </g>
</svg>