<?xml version="1.0" encoding="UTF-8" standalone="no"?>
<svg width="168px" height="168px" viewBox="0 0 168 168" version="1.1" xmlns="http://www.w3.org/2000/svg" xmlns:xlink="http://www.w3.org/1999/xlink" xmlns:sketch="http://www.bohemiancoding.com/sketch/ns">
    <!-- Generator: Sketch 3.3 (11970) - http://www.bohemiancoding.com/sketch -->
    <title>Imported Layers</title>
    <desc>Created with Sketch.</desc>
    <defs></defs>
    <g id="Page-1" stroke="none" stroke-width="1" fill="none" fill-rule="evenodd" sketch:type="MSPage">
        <g id="Imported-Layers" sketch:type="MSLayerGroup" transform="translate(37.000000, 42.000000)" fill="#1A1918">
            <path d="M70.681,36.003 C77.815,27.909 85.818,20.678 93.588,13.215 C99.095,7.925 93.841,0.263 87.899,0.263 C86.178,0.263 84.4,0.905 82.808,2.434 C74.512,10.403 66.045,18.153 58.482,26.843 C53.751,32.279 49.383,38.056 45.382,44.048 C43.843,46.353 42.394,48.715 41,51.11 C39.493,49.112 37.986,47.114 36.477,45.117 C34.017,41.862 31.556,38.607 29.065,35.376 C26.79,32.427 24.331,28.542 20.343,28.541 C19.637,28.541 18.884,28.663 18.075,28.932 C11.554,31.107 11.587,39.022 15.427,42.454 C15.563,42.637 15.695,42.821 15.825,42.986 C15.988,43.192 16.148,43.4 16.309,43.607 C16.537,43.904 17.337,44.94 17.53,45.193 C20.072,48.515 22.591,51.855 25.111,55.193 C27.547,58.42 29.98,61.651 32.42,64.875 C33.806,66.708 35.126,68.921 36.762,70.516 C38.257,71.974 40.162,72.636 42.049,72.636 C45.223,72.636 48.349,70.765 49.401,67.659 C55.161,56.222 62.205,45.618 70.681,36.003" id="Fill-1" sketch:type="MSShapeGroup"></path>
            <path d="M72.969,38.019 C72.778,38.235 72.596,38.461 72.407,38.679 C72.938,41.118 73.218,43.614 73.218,46.138 C73.218,65.368 57.572,81.013 38.342,81.013 C19.111,81.013 3.467,65.368 3.467,46.138 C3.467,26.907 19.111,11.262 38.342,11.262 C46.666,11.262 54.644,14.215 60.95,19.591 C61.736,18.759 62.528,17.935 63.325,17.117 C56.375,11.128 47.552,7.836 38.342,7.836 C17.222,7.836 0.039,25.018 0.039,46.138 C0.039,67.258 17.222,84.44 38.342,84.44 C59.462,84.44 76.645,67.258 76.645,46.138 C76.645,42.551 76.129,39.013 75.153,35.599 C74.415,36.399 73.685,37.206 72.969,38.019" id="Fill-2" sketch:type="MSShapeGroup"></path>
        </g>
    </g>
</svg>