<?xml version="1.0" encoding="UTF-8" standalone="no"?>
<svg width="168px" height="168px" viewBox="0 0 168 168" version="1.1" xmlns="http://www.w3.org/2000/svg" xmlns:xlink="http://www.w3.org/1999/xlink" xmlns:sketch="http://www.bohemiancoding.com/sketch/ns">
    <!-- Generator: Sketch 3.3 (11970) - http://www.bohemiancoding.com/sketch -->
    <title>Imported Layers</title>
    <desc>Created with Sketch.</desc>
    <defs></defs>
    <g id="Page-1" stroke="none" stroke-width="1" fill="none" fill-rule="evenodd" sketch:type="MSPage">
        <path d="M114.216871,68.813 C112.382871,68.813 110.689871,69.427 109.329871,70.457 C108.210871,67.324 105.214871,65.077 101.701871,65.077 C99.7538708,65.077 97.9638708,65.769 96.5658708,66.919 C95.2908708,64.115 92.4638708,62.16 89.1888708,62.16 C87.5608708,62.16 86.0428708,62.643 84.7718708,63.473 L84.7718708,42.097 C84.7718708,37.633 81.1388708,34 76.6728708,34 C72.2078708,34 68.5758708,37.633 68.5758708,42.097 L68.5758708,81.363 C64.9708708,78.804 60.0988708,77.516 56.2828708,77.737 C48.0188708,78.215 44.6738708,84.626 45.0248708,90.771 L45.0978708,92.05 L46.3228708,92.425 C47.6398708,92.827 49.0678708,93.076 50.5788708,93.339 C55.1588708,94.136 59.8958708,94.959 62.5868708,100.123 C67.0048708,108.604 71.8968708,114.061 78.7838708,118.136 L76.4248708,133.597 L80.0638708,134.152 L82.8048708,116.177 L81.6838708,115.556 C74.7898708,111.74 70.2028708,106.776 65.8508708,98.423 C62.3178708,91.645 56.1588708,90.574 51.2088708,89.714 C50.3328708,89.561 49.4888708,89.414 48.7088708,89.243 C48.8808708,86.665 50.0628708,81.782 56.4948708,81.411 C60.4368708,81.191 66.0408708,83.101 68.5758708,86.347 L68.5758708,93.395 L72.2558708,93.395 L72.2558708,42.097 C72.2558708,39.661 74.2388708,37.68 76.6728708,37.68 C79.1098708,37.68 81.0918708,39.661 81.0918708,42.097 L81.0918708,75.383 L84.7718708,75.383 L84.7718708,70.258 C84.7718708,67.821 86.7528708,65.84 89.1888708,65.84 C91.6238708,65.84 93.6058708,67.821 93.6058708,70.258 L93.6058708,78.301 L97.2848708,78.301 L97.2848708,73.174 C97.2848708,70.738 99.2668708,68.756 101.701871,68.756 C104.137871,68.756 106.118871,70.738 106.118871,73.174 L106.118871,82.036 L109.798871,82.036 L109.798871,76.91 C109.798871,74.474 111.780871,72.493 114.216871,72.493 C116.652871,72.493 118.633871,74.474 118.633871,76.91 L118.633871,86.225 C118.633871,86.681 118.617871,87.153 118.602871,87.622 C118.249871,90.912 117.125871,95.05 113.627871,96.519 C109.960871,98.059 108.856871,101.293 108.000871,104.449 C107.395871,106.681 107.858871,109.064 107.547871,111.355 C107.395871,112.469 107.043871,113.639 106.458871,114.536 C105.913871,114.892 105.352871,115.23 104.764871,115.532 L103.475871,116.194 L107.807871,134.029 L111.383871,133.159 L107.723871,118.095 C118.462871,111.655 122.313871,97.074 122.313871,86.225 L122.313871,76.91 C122.313871,72.446 118.681871,68.813 114.216871,68.813" id="Imported-Layers" fill="#00A14C" sketch:type="MSShapeGroup"></path>
    </g>
</svg>