<svg xmlns="http://www.w3.org/2000/svg" width="202" height="53" viewBox="0 0 202 53" xmlns:xlink="http://www.w3.org/1999/xlink">
  <defs>
    <polygon id="a" points="61.792 41.799 0 41.799 0 .202 61.792 .202 61.792 41.799"/>
    <polygon id="c" points="0 53.237 201.937 53.237 201.937 0 0 0"/>
  </defs>
  <g fill="none" fill-rule="evenodd">
    <g transform="translate(0 11.437)">
      <mask id="b" fill="white">
        <use xlink:href="#a"/>
      </mask>
      <path fill="#E2001A" d="M15.5690656,2.34827245 C16.2622161,2.34490154 16.905711,2.69008205 17.4765806,3.37302709 C17.6904033,3.63258665 17.9778649,4.29260954 18.3109284,5.23915922 C18.5669753,5.31668999 18.8267378,5.39961422 19.0817712,5.48523517 C24.9313264,7.46934892 26.1585271,7.27080271 27.0060488,6.58246423 L27.8832963,3.60932741 C27.8782294,3.62281103 29.0963097,1.84836747 30.5339552,1.83926603 C31.2352127,1.83926603 31.8841124,2.26130314 32.4627512,3.09964682 C32.5228783,3.18189686 32.5857077,3.29954139 32.6596843,3.45898512 C35.1502294,2.88121228 37.8515572,3.1178497 41.2595472,4.13788507 C41.6696274,4.25991177 42.1351057,4.34755526 42.6553064,4.39677045 L43.0704535,2.58052769 C43.1255137,2.51614344 44.7945472,0.149095058 47.0442462,1.67510303 C47.4269652,1.93398842 47.933992,2.7861528 48.5224268,4.06136556 C53.2714535,3.30931701 58.3545572,1.66060815 59.5087946,0.572817617 C60.0509518,0.0587548465 60.9045538,0.0813398994 61.4193498,0.623718259 C61.935497,1.16407408 61.9118515,2.02095772 61.3700321,2.52996414 C59.8094301,4.00641984 54.663497,5.76266052 49.6080923,6.62426343 C53.3356341,16.0799846 58.9747445,35.8803342 60.0009585,39.5172019 L47.4776341,22.2126692 C47.4593933,22.189747 45.5150589,19.2257117 42.6509151,20.5953097 C41.277788,21.2516246 39.963099,22.8585343 38.9601926,24.3572379 C41.0950421,32.0779551 43.0474836,39.4184344 43.6001124,41.4992931 C41.8199452,38.9444854 33.4997746,27.0158695 32.7502127,26.0133628 C32.3036508,25.4173871 31.3632361,24.711857 30.1910957,24.6892719 C29.2010254,24.670732 28.2700689,25.167266 27.4992261,26.1232542 C25.7795237,28.2533281 18.3984167,39.1582007 16.6135204,41.7993035 L21.4952997,25.2535612 C19.6208883,23.3736083 17.4124,21.3466841 16.5182629,21.2556697 C15.6653365,21.1693746 15.1312863,21.1646553 14.063186,22.062664 C12.1387813,23.678338 4.37360401,37.8418629 2.55290167,41.1925409 L11.9742763,7.35237857 C6.33955719,7.9898164 2.53060736,11.7999485 2.32016254,12.0136638 C1.79996187,12.5466036 0.94298194,12.555368 0.40859398,12.0362489 C-0.124442809,11.5184781 -0.138292308,10.6666508 0.381232776,10.133711 C0.637617391,9.86437579 5.53662408,4.92971028 12.7454569,4.57475415 L12.9677244,3.77349041 C12.9643465,3.7913562 14.1547278,2.3533288 15.5690656,2.34827245 M19.3057278,8.40410043 C20.3873398,12.1144538 21.6645338,17.1724944 22.6633866,21.2927496 L26.0615806,9.77470976 C24.6347445,9.86976924 22.6133933,9.47807026 19.3057278,8.40410043 M38.4808649,22.6171776 L42.0486308,7.03787328 C41.4777612,6.96910685 40.9538448,6.86494593 40.484313,6.7230309 C37.7015773,5.89513702 35.5559184,5.65378034 33.608206,6.02255717 C34.821895,9.68706627 36.6827946,16.1571783 38.4808649,22.6171776" mask="url(#b)"/>
    </g>
    <path fill="#E2001A" d="M26.3454278 8.34143534C26.3454278 6.08259296 28.1563341 4.2525295 30.3790097 4.2525295 32.5996585 4.2525295 34.4112405 6.08259296 34.4112405 8.34143534 34.4112405 10.5948843 32.5996585 12.4293299 30.3790097 12.4293299 28.1563341 12.4293299 26.3454278 10.5948843 26.3454278 8.34143534M38.9098953 8.0181657C38.9098953 5.75932332 40.7160726 3.92487768 42.9377348 3.92487768 45.1648017 3.92487768 46.9713167 5.75932332 46.9713167 8.0181657 46.9713167 10.2702663 45.1648017 12.1053861 42.9377348 12.1053861 40.7160726 12.1053861 38.9098953 10.2702663 38.9098953 8.0181657M13.2612324 8.71392017C13.2612324 6.39204189 15.1126739 4.51141488 17.402908 4.51141488 19.688413 4.51141488 21.5412057 6.39204189 21.5412057 8.71392017 21.5412057 11.0317534 19.688413 12.9117062 17.402908 12.9117062 15.1126739 12.9117062 13.2612324 11.0317534 13.2612324 8.71392017"/>
    <path fill="#1A171B" d="M74.4952355 16.3083296L75.5852923 16.3083296C76.4304495 16.3083296 77.0087505 16.1118059 77.3228977 15.716736 77.6427873 15.3247 77.8032388 14.56355 77.8032388 13.4400279 77.8032388 12.4843768 77.6387338 11.8000834 77.3147906 11.3911928 76.9908475 10.9863473 76.4527438 10.7810593 75.7004796 10.7810593L74.4952355 10.7810593 74.4952355 16.3083296zM68.6737171 6.00954548L76.7307472 6.00954548C79.3270214 6.00954548 81.1429946 6.61057756 82.1820448 7.81264172 83.2173793 9.01875096 83.7389311 11.149499 83.7389311 14.2048859 83.7389311 16.6767693 83.2173793 18.4161555 82.1732622 19.417988 81.1284696 20.4238656 79.290202 20.9251189 76.6537304 20.9251189L74.6911552 20.9251189 74.6911552 33.1712739 68.6737171 33.1712739 68.6737171 6.00954548zM108.105772.0827219698L110.69698.0827219698 110.69698 1.25242546C110.69698 2.12515235 110.522679 2.78146724 110.171036 3.21429124 109.821083 3.64711524 109.29514 3.86083052 108.593883 3.86083052L108.224675 3.86083052C108.118946 3.86083052 108.032133 3.86083052 107.958832 3.8510549 107.891612 3.847684 107.822026 3.83318911 107.759197 3.82509894L104.487337 3.26418061C104.459976 3.26418061 104.409983 3.25979844 104.341749 3.24564065 104.269461 3.23215703 104.222508 3.22372977 104.196498 3.22372977 103.894849 3.22372977 103.656705 3.31474417 103.474297 3.4880086 103.292565 3.66565521 103.200685 3.89217992 103.200685 4.17938089L100.614207 4.17938089 100.614207 2.99147453C100.614207 2.13459088 100.792224 1.48939997 101.148257 1.05522761 101.503615.619032703 102.028545.401272343 102.717304.401272343 102.872689.401272343 103.017602.410036692 103.155421.41846395 103.286822.436329738 103.429371.455543888 103.57023.482174025L106.823849.997248067C106.850873.997248067 106.896475 1.00601242 106.9691 1.01949603 107.042063 1.02927165 107.088341 1.03769891 107.11604 1.03769891 107.411608 1.03769891 107.652792.95140378 107.836552.782858609 108.01896.614987619 108.105772.382732374 108.105772.0827219698L108.105772.0827219698zM98.1422405 6.00944436L103.730344 6.00944436C104.300538 6.92970099 104.87107 7.99052429 105.441264 9.19191427 106.011796 10.3980235 106.566789 11.7234627 107.110635 13.1753108L107.110635 6.00944436 113.088214 6.00944436 113.088214 33.1715099 107.110635 33.1715099 107.110635 27.8539098C107.110635 25.5502344 106.864722 23.3331912 106.371883 21.2122188 105.880057 19.0888867 105.144682 17.0687043 104.159341 15.1523457L104.159341 33.1715099 98.1422405 33.1715099 98.1422405 6.00944436zM114.204179 33.1714088L114.204179 27.8450443C114.204179 22.7367772 114.588587 18.4395496 115.354363 14.9563951 116.121828 11.4769486 117.329775 8.49471032 118.976852 6.00934323L124.378494 6.00934323C126.019828 8.51796955 127.22541 11.5136914 127.996591 14.997183 128.768109 18.4752812 129.151166 22.7600365 129.151166 27.8450443L129.151166 33.1714088 123.133728 33.1714088 123.133728 28.6783316 120.186149 28.6783316 120.186149 33.1714088 114.204179 33.1714088zM120.186149 23.5875933L123.133728 23.5875933C123.096233 21.0115489 122.950982 18.72102 122.705069 16.713647 122.458142 14.7055999 122.111905 13.0070016 121.668721 11.6229087 121.211688 13.0070016 120.861734 14.7055999 120.61447 16.713647 120.368557 18.72102 120.223306 21.0115489 120.186149 23.5875933L120.186149 23.5875933z"/>
    <polygon fill="#1A171B" points="130.42 6.009 136.437 6.009 136.437 28 142.655 28 142.655 33.172 130.42 33.172"/>
    <path fill="#1A171B" d="M143.348692,14.7644221 C143.348692,11.409699 143.927669,9.05107793 145.082244,7.69024422 C146.236819,6.33412977 148.184194,5.65051056 150.923354,5.65051056 C153.664204,5.65051056 155.6082,6.33412977 156.766491,7.69024422 C157.921067,9.05107793 158.49599,11.409699 158.49599,14.7644221 L158.49599,24.4163299 C158.49599,27.77139 157.921067,30.1303483 156.766491,31.4918561 C155.6082,32.8486448 153.664204,33.5309156 150.923354,33.5309156 C148.184194,33.5309156 146.236819,32.8486448 145.082244,31.4918561 C143.927669,30.1303483 143.348692,27.77139 143.348692,24.4163299 L143.348692,14.7644221 Z M149.449227,13.9672035 L149.449227,26.0097559 C149.449227,27.0479942 149.557321,27.7043091 149.768441,27.9810602 C149.982939,28.2591598 150.365321,28.4004006 150.923354,28.4004006 C151.492535,28.4004006 151.879645,28.2497212 152.089752,27.9537559 C152.295468,27.6534084 152.400184,26.942822 152.400184,25.8149177 L152.400184,25.2142227 L152.400184,13.3671827 C152.400184,12.2652343 152.290063,11.5644235 152.080294,11.2684582 C151.865796,10.97283 151.478685,10.8228248 150.923354,10.8228248 C150.355863,10.8228248 149.96909,10.9590093 149.758983,11.2276703 C149.552929,11.5000393 149.449227,12.1465785 149.449227,13.1713332 L149.449227,13.9672035 Z"/>
    <polygon fill="#1A171B" points="159.896 6.009 165.914 6.009 165.914 28 172.132 28 172.132 33.172 159.896 33.172"/>
    <path fill="#1A171B" d="M178.770068.0458442865L183.150563.0458442865 180.718118 4.22003399 177.173997 4.22003399 178.770068.0458442865zM173.107987 33.1713751L173.107987 6.00930952 185.389114 6.00930952 185.389114 11.1809495 179.12475 11.1809495 179.12475 15.794705 185.157051 15.794705 185.157051 20.92522 179.12475 20.92522 179.12475 27.999398 185.66374 27.999398 185.66374 33.1713751 173.107987 33.1713751zM186.716775 6.00944436L192.306229 6.00944436C192.875748 6.92970099 193.447293 7.99052429 194.01242 9.19191427 194.581938 10.3980235 195.139634 11.7234627 195.681454 13.1753108L195.681454 6.00944436 201.663761 6.00944436 201.663761 33.1715099 195.681454 33.1715099 195.681454 27.8539098C195.681454 25.5502344 195.441283 23.3331912 194.946755 21.2122188 194.454253 19.0888867 193.715838 17.0687043 192.734213 15.1523457L192.734213 33.1715099 186.716775 33.1715099 186.716775 6.00944436z"/>
    <polygon fill="#1A171B" points="84.532 33.171 84.532 6.009 96.819 6.009 96.819 11.181 90.554 11.181 90.554 15.795 96.582 15.795 96.582 20.925 90.554 20.925 90.554 27.999 97.087 27.999 97.087 33.171"/>
    <path fill="#1A171B" d="M114.350984 4.15116643L114.350984.0690023929 115.017111.0690023929 115.80991 2.95921498 115.971037 3.56496633C116.007519 3.41496112 116.071024 3.19618949 116.149054 2.91370779L116.951987.0690023929 117.553258.0690023929 117.553258 4.15116643 117.121221 4.15116643 117.121221.719586752 116.143987 4.15116643 115.747081 4.15116643 114.780656.664978117 114.780656 4.15116643 114.350984 4.15116643zM122.471857.069069811L122.919094.069069811 122.919094 2.43139892C122.919094 2.82208663 122.877884 3.1510868 122.799854 3.40053366 122.722837 3.65604814 122.587044 3.85526853 122.380991 4.00190283 122.174937 4.14786294 121.919904 4.22438245 121.605757 4.22438245 121.163586 4.22438245 120.830185 4.09325431 120.610282 3.82931257 120.392068 3.56503374 120.280934 3.09647817 120.280934 2.43139892L120.280934.069069811 120.728509.069069811 120.728509 2.42735384C120.728509 2.7951194 120.75587 3.06344332 120.812282 3.23198849 120.871395 3.39648857 120.965977 3.52390872 121.093663 3.60514749 121.225402 3.69784734 121.385854 3.73829818 121.572653 3.73829818 121.887138 3.73829818 122.116161 3.6469467 122.257696 3.46963718 122.398894 3.29165348 122.471857 2.94579879 122.471857 2.42735384L122.471857.069069811z"/>
    <polygon fill="#1A171B" points="125.656 4.151 125.656 .069 126.118 .069 127.878 3.282 127.878 .069 128.299 .069 128.299 4.151 127.845 4.151 126.086 .942 126.086 4.151"/>
    <mask id="d" fill="white">
      <use xlink:href="#c"/>
    </mask>
    <polygon fill="#1A171B" points="131.146 4.151 131.592 4.151 131.592 .069 131.146 .069" mask="url(#d)"/>
    <path fill="#1A171B" d="M136.757108,2.72298207 L137.202994,2.85950366 C137.101994,3.31895779 136.930058,3.6607674 136.682793,3.88324703 C136.437218,4.11145719 136.140974,4.22438245 135.785278,4.22438245 C135.474847,4.22438245 135.208666,4.14786294 134.986399,3.99785774 C134.766496,3.842122 134.584088,3.60110241 134.446944,3.26906842 C134.30676,2.93231517 134.234134,2.54027911 134.234134,2.08520714 C134.234134,1.63485445 134.30676,1.252594 134.446944,0.942470886 C134.584088,0.633359043 134.77494,0.396384533 135.017813,0.236940801 C135.259335,0.0825534247 135.524502,-3.37090342e-05 135.822098,-3.37090342e-05 C136.145027,-3.37090342e-05 136.423706,0.100756303 136.655432,0.300313785 C136.889185,0.500545448 137.05369,0.797184949 137.148272,1.18820975 L136.710155,1.31158481 C136.56085,0.746621398 136.264268,0.464476782 135.812639,0.464476782 C135.58767,0.464476782 135.396817,0.518411236 135.231974,0.633359043 C135.067469,0.746621398 134.935392,0.923930917 134.84081,1.16629887 C134.740486,1.40664429 134.69387,1.71171105 134.69387,2.08520714 C134.69387,2.64005785 134.790141,3.06007241 134.990452,3.34221703 C135.187047,3.61964238 135.446134,3.76088323 135.77582,3.76088323 C136.017342,3.76088323 136.227449,3.67425101 136.404114,3.50604293 C136.578753,3.33345268 136.696305,3.06883676 136.757108,2.72298207" mask="url(#d)"/>
    <polygon fill="#1A171B" points="139.845 4.151 140.291 4.151 140.291 .069 139.845 .069" mask="url(#d)"/>
    <path fill="#1A171B" d="M143.52154 2.00733928L144.388992 2.00733928C144.663617 2.00733928 144.864266 1.94935974 144.991614 1.82193959 145.113895 1.69789034 145.178413 1.51147938 145.178413 1.26506634 145.178413 1.10191462 145.146999.965055939 145.086534.847074319 145.023029.733474874 144.945336.655269915 144.858524.609425629 144.771711.568974788 144.612611.547063915 144.380885.547063915L143.52154.547063915 143.52154 2.00733928zM143.075316 4.15123385L143.075316.069069811 144.337985.069069811C144.64031.069069811 144.858524.0963741287 145.001072.145926409 145.190236.218400832 145.34731.345820981 145.466551.537625386 145.579373.728081429 145.6395.965055939 145.6395 1.24281838 145.6395 1.61159521 145.543567 1.90823471 145.355755 2.14048996 145.164902 2.37173393 144.840621 2.48533338 144.380885 2.48533338L143.52154 2.48533338 143.52154 4.15123385 143.075316 4.15123385zM148.49905 2.47724321L149.649234 2.47724321 149.297592 1.3469793C149.189498.997079521 149.11113.714934905 149.060124.496500364 149.015197.760779192 148.956084 1.01966457 148.873324 1.27922414L148.49905 2.47724321zM147.541746 4.15123385L148.832114.069069811 149.311441.069069811 150.680177 4.15123385 150.173488 4.15123385 149.786716 2.91343811 148.371365 2.91343811 148.005873 4.15123385 147.541746 4.15123385z" mask="url(#d)"/>
    <polygon fill="#1A171B" points="153.021 4.151 153.021 .069 153.468 .069 153.468 3.674 155.119 3.674 155.119 4.151" mask="url(#d)"/>
    <polygon fill="#1A171B" points="157.748 4.151 158.194 4.151 158.194 .069 157.748 .069" mask="url(#d)"/>
    <path fill="#1A171B" d="M161.415971 3.67435214L162.126686 3.67435214C162.415161 3.67435214 162.632024 3.62918204 162.784369 3.53210002 162.929282 3.44175981 163.043456 3.28669825 163.126215 3.08208441 163.231606 2.80465906 163.285315 2.47195089 163.285315 2.08530827 163.285315 1.66630498 163.226201 1.34370952 163.116419 1.10606083 163.002245.87043468 162.861047.710316768 162.682693.628066724 162.564466.57480645 162.372262.547165042 162.118241.547165042L161.415971.547165042 161.415971 3.67435214zM160.968395 4.15133497L160.968395.0691709381 162.126686.0691709381C162.415161.0691709381 162.627971.0964752558 162.778626.146027536 162.974884.210074701 163.143442.32805632 163.285315.500309485 163.430904.673911011 163.542037.892345552 163.62277 1.15662438 163.701476 1.41652103 163.742686 1.73068923 163.742686 2.09002754 163.742686 2.54981876 163.673777 2.94556282 163.542037 3.26883246 163.404556 3.58805701 163.226201 3.81559299 163.016094 3.95245167 162.802272 4.08897326 162.523255 4.15133497 162.176004 4.15133497L160.968395 4.15133497zM166.95854 2.47724321L168.107373 2.47724321 167.752015 1.3469793C167.645948.997079521 167.565215.714934905 167.514546.496500364 167.472998.760779192 167.409831 1.01966457 167.331801 1.27922414L166.95854 2.47724321zM165.996169 4.15123385L167.29059.069069811 167.765864.069069811 169.139329 4.15123385 168.627573 4.15123385 168.244854 2.91343811 166.825112 2.91343811 166.4657 4.15123385 165.996169 4.15123385zM171.939664 3.67435214L172.652406 3.67435214C172.93953 3.67435214 173.159095 3.62918204 173.310089 3.53210002 173.455002 3.44175981 173.569513 3.28669825 173.651259 3.08208441 173.755975 2.80465906 173.810697 2.47195089 173.810697 2.08530827 173.810697 1.66630498 173.751921 1.34370952 173.641801 1.10606083 173.527965.87043468 173.381025.710316768 173.208075.628066724 173.090186.57480645 172.898319.547165042 172.64261.547165042L171.939664.547165042 171.939664 3.67435214zM171.493778 4.15133497L171.493778.0691709381 172.652406.0691709381C172.93953.0691709381 173.153691.0964752558 173.304346.146027536 173.500604.210074701 173.6695.32805632 173.810697.500309485 173.957975.673911011 174.066069.892345552 174.14849 1.15662438 174.226858 1.41652103 174.26638 1.73068923 174.26638 2.09002754 174.26638 2.54981876 174.198145 2.94556282 174.061677 3.26883246 173.930614 3.58805701 173.751921 3.81559299 173.541814 3.95245167 173.327654 4.08897326 173.047624 4.15133497 172.703413 4.15133497L171.493778 4.15133497zM72.8165074 40.8928676L72.8165074 41.5626661 75.6455207 41.5626661 75.6455207 40.8072466C75.6455207 40.2271141 75.5762732 39.7093434 75.4391294 39.2549456 75.3161729 38.7857158 75.1060659 38.3889605 74.8145508 38.0656909 74.5318184 37.7326456 74.1592331 37.4781424 73.6978084 37.2957765 73.235708 37.118467 72.6749722 37.0328461 72.0176278 37.0328461 71.264688 37.0328461 70.6313268 37.1417262 70.116193 37.36488 69.6051127 37.5785953 69.1886144 37.9288322 68.8741294 38.4162648 68.5640358 38.9080796 68.3360258 39.5505738 68.1998953 40.342399 68.0769388 41.1291679 68.0120826 42.0949317 68.0120826 43.2332858 68.0120826 44.3443356 68.0630893 45.300998 68.1674672 46.0928232 68.286708 46.8711648 68.4873569 47.513659 68.783601 48.0135639 69.0751161 48.5009966 69.4814806 48.8559527 70.0064104 49.0642745 70.5310023 49.2793382 71.2021963 49.383162 72.0176278 49.383162 72.4874973 49.383162 72.944193 49.3258566 73.3826478 49.2149539 73.8342766 49.1151752 74.2305074 48.9149435 74.5777582 48.6149331 74.9246712 48.3051471 75.1979455 47.8767053 75.4080525 47.3451138 75.6181595 46.812174 75.7225375 46.1234984 75.7225375 45.2865031L75.7225375 44.4023151 72.8989288 44.4023151C72.8989288 44.9723349 72.8803502 45.4462839 72.8482599 45.8228138 72.8303569 46.1926019 72.7884706 46.4831738 72.7259789 46.7066647 72.6614605 46.9301556 72.5705943 47.0943186 72.4557448 47.1944344 72.3415709 47.2847746 72.1959823 47.3258996 72.0176278 47.3258996 71.7994137 47.3258996 71.6207214 47.2672459 71.4835776 47.1435338 71.355892 47.0218441 71.2559054 46.8027354 71.1836177 46.4929494 71.1241662 46.1784441 71.0778886 45.7607892 71.0596478 45.2366137 71.0373535 44.7036739 71.0285709 44.0345495 71.0285709 43.2332858 71.0285709 42.4320221 71.0373535 41.7669428 71.0596478 41.2437786 71.0778886 40.7108388 71.1241662 40.2834082 71.1836177 39.9736222 71.2559054 39.6587798 71.355892 39.4450645 71.4835776 39.3216895 71.6207214 39.1993257 71.7994137 39.1356156 72.0176278 39.1356156 72.3003602 39.1356156 72.5064137 39.2596649 72.6290324 39.5037183 72.7577314 39.7497942 72.8165074 40.2095854 72.8165074 40.8928676M76.7766532 37.2642249L76.7766532 49.1985713 79.6965328 49.1985713 79.6965328 44.4169448 80.4677134 44.4169448C80.6457301 44.4169448 80.7916565 44.443575 80.9048171 44.5039141 81.0331783 44.5490842 81.1335027 44.6353794 81.2064659 44.7715639 81.2885495 44.8902197 81.3476632 45.0628099 81.3750244 45.2866379 81.4067769 45.5091175 81.4246799 45.7912621 81.4246799 46.1236332L81.4246799 46.9245599 81.4246799 47.4123296C81.4341381 47.6000889 81.4435963 47.7999835 81.4574458 48.0136988 81.4753488 48.223369 81.50271 48.4370842 81.5344625 48.6464173 81.576011 48.8601326 81.6358003 49.0421614 81.7087635 49.1985713L84.8151047 49.1985713 84.8151047 49.0340712C84.7245763 48.9794626 84.6556666 48.9191234 84.6141181 48.8658632 84.5691916 48.7970967 84.5279809 48.7340608 84.487108 48.6656315 84.4540043 48.5958538 84.4276565 48.5011314 84.4100913 48.3780934 84.3867836 48.2604489 84.3729341 48.1232531 84.3631381 47.9766188 84.3496264 47.8232427 84.3448973 47.6644732 84.3448973 47.495928L84.3448973 47.0122034 84.3448973 45.992168C84.3448973 45.1871963 84.2128204 44.5585228 83.9530579 44.1024395 83.6919441 43.6429854 83.2089007 43.3834258 82.5073054 43.3149965L82.5073054 43.28331C83.177486 43.1697106 83.6655963 42.8683518 83.9716365 42.3768741 84.2726097 41.8901156 84.4222518 41.2435763 84.4222518 40.4423126 84.4222518 39.9821843 84.3675294 39.559473 84.2496398 39.1724933 84.1486398 38.7814685 83.9716365 38.443704 83.7155896 38.1662786 83.4791348 37.8794147 83.1589074 37.6562609 82.7572719 37.4964801 82.3745528 37.3424298 81.9006298 37.2642249 81.3476632 37.2642249L76.7766532 37.2642249zM79.6965328 42.3135011L79.6965328 39.5038531 80.2616599 39.5038531C80.7004525 39.5038531 81.0139241 39.6086882 81.2064659 39.8237518 81.4027234 40.0327478 81.50271 40.3917491 81.50271 40.8930024 81.50271 41.3163879 81.4027234 41.6622426 81.2064659 41.9265214 81.0058171 42.1860809 80.696399 42.3135011 80.2795629 42.3135011L79.6965328 42.3135011z" mask="url(#d)"/>
    <polygon fill="#1A171B" points="85.792 37.264 85.792 49.199 92.576 49.199 92.576 46.658 88.711 46.658 88.711 44.284 92.197 44.284 92.197 41.845 88.711 41.845 88.711 39.805 92.434 39.805 92.434 37.264" mask="url(#d)"/>
    <path fill="#1A171B" d="M98.1187977,40.8928676 L98.1187977,41.5626661 L100.948149,41.5626661 L100.948149,40.8072466 C100.948149,40.2271141 100.879239,39.7093434 100.742433,39.2549456 C100.61441,38.7857158 100.40464,38.3889605 100.113463,38.0656909 C99.8290418,37.7326456 99.4601722,37.4781424 98.9994231,37.2957765 C98.5383361,37.118467 97.9776003,37.0328461 97.3158645,37.0328461 C96.5636003,37.0328461 95.9295635,37.1417262 95.4174699,37.36488 C94.9067274,37.5785953 94.4915803,37.9288322 94.1767575,38.4162648 C93.8622726,38.9080796 93.6383161,39.5505738 93.5011722,40.342399 C93.3738244,41.1291679 93.3143729,42.0949317 93.3143729,43.2332858 C93.3143729,44.3443356 93.364704,45.300998 93.4711087,46.0928232 C93.5842692,46.8711648 93.7889716,47.513659 94.0818378,48.0135639 C94.3784197,48.5009966 94.7830953,48.8559527 95.3090385,49.0642745 C95.8326171,49.2793382 96.4990819,49.383162 97.3158645,49.383162 C97.790801,49.383162 98.2464833,49.3258566 98.6842625,49.2149539 C99.1362291,49.1151752 99.5334732,48.9149435 99.8793729,48.6149331 C100.221895,48.3051471 100.499898,47.8767053 100.710005,47.3451138 C100.92045,46.812174 101.024828,46.1234984 101.024828,45.2865031 L101.024828,44.4023151 L98.1958144,44.4023151 C98.1958144,44.9723349 98.1826405,45.4462839 98.1505502,45.8228138 C98.1285936,46.1926019 98.0867074,46.4831738 98.0228645,46.7066647 C97.9640886,46.9301556 97.8718712,47.0943186 97.7587107,47.1944344 C97.6455502,47.2847746 97.4986104,47.3258996 97.3158645,47.3258996 C97.0962993,47.3258996 96.9189582,47.2672459 96.7818144,47.1435338 C96.6591957,47.0218441 96.5581957,46.8027354 96.4855702,46.4929494 C96.422403,46.1784441 96.3808545,45.7607892 96.3626137,45.2366137 C96.339306,44.7036739 96.3305234,44.0345495 96.3305234,43.2332858 C96.3305234,42.4320221 96.339306,41.7669428 96.3626137,41.2437786 C96.3808545,40.7108388 96.422403,40.2834082 96.4855702,39.9736222 C96.5581957,39.6587798 96.6591957,39.4450645 96.7818144,39.3216895 C96.9189582,39.1993257 97.0962993,39.1356156 97.3158645,39.1356156 C97.6026505,39.1356156 97.8043127,39.2596649 97.9323361,39.5037183 C98.0546171,39.7497942 98.1187977,40.2095854 98.1187977,40.8928676" mask="url(#d)"/>
    <polygon fill="#1A171B" points="102.078 37.264 102.078 49.199 108.863 49.199 108.863 46.658 104.999 46.658 104.999 44.284 108.485 44.284 108.485 41.845 104.999 41.845 104.999 39.805 108.722 39.805 108.722 37.264" mask="url(#d)"/>
    <path fill="#1A171B" d="M115.80177 39.2997449L115.80177 42.6601985 116.974248 42.6601985C117.818392 42.6601985 118.384194 42.5954772 118.666589 42.4731134 118.955064 42.3504125 119.173278 42.154563 119.332378 41.8902842 119.497221 41.6313988 119.579642 41.3202644 119.579642 40.9703646 119.579642 40.542597 119.465806 40.1876409 119.24185 39.9054962 119.012489 39.6273967 118.725703 39.4544694 118.379803 39.3819949 118.124432 39.3273863 117.609974 39.2997449 116.836766 39.2997449L115.80177 39.2997449zM113.661853 49.1340185L113.661853 37.3004621 117.09788 37.3004621C118.40176 37.3004621 119.251646 37.3601271 119.642472 37.4781087 120.250499 37.6560924 120.761579 38.0423979 121.171659 38.639722 121.582077 39.2313156 121.788131 39.9958364 121.788131 40.9396894 121.788131 41.6674675 121.668552 42.2772639 121.431084 42.773798 121.193954 43.2656128 120.89298 43.6556263 120.527826 43.9435014 120.168415 44.221601 119.797857 44.4076748 119.418853 44.4997005 118.909462 44.6126258 118.169696 44.6675715 117.197867 44.6675715L115.80177 44.6675715 115.80177 49.1340185 113.661853 49.1340185zM126.604851 44.4491032L125.145925 40.0595128 123.712333 44.4491032 126.604851 44.4491032zM130.551283 49.1339848L128.220513 49.1339848 127.29361 46.4426555 123.056339 46.4426555 122.179092 49.1339848 119.907774 49.1339848 124.036276 37.3004284 126.304216 37.3004284 130.551283 49.1339848zM132.810811 42.3039277L134.39337 42.3039277C135.423975 42.3039277 136.062403 42.2533642 136.317775 42.1586418 136.574835 42.0635823 136.774808 41.8957113 136.921748 41.6577255 137.067336 41.4217623 137.134557 41.125797 137.134557 40.7708409 137.134557 40.3737484 137.039975 40.0504788 136.847433 39.8094592 136.660972 39.5643945 136.392089 39.4046137 136.0445 39.3402294 135.870537 39.3135993 135.35135 39.2997786 134.479507 39.2997786L132.810811 39.2997786 132.810811 42.3039277zM130.670557 49.1340522L130.670557 37.3004958 135.177387 37.3004958C136.308316 37.3004958 137.130166 37.4053309 137.641246 37.6237654 138.157056 37.8341098 138.571865 38.2069317 138.877905 38.7533552 139.187999 39.2943852 139.343383 39.9190136 139.343383 40.6157793 139.343383 41.5036753 139.109631 42.2408918 138.640437 42.8196759 138.175296 43.3971117 137.473701 43.7611693 136.541731 43.9071294 137.006872 44.2118591 137.385875 44.5408592 137.687862 44.9039055 137.992551 45.263918 138.398577 45.9010188 138.909658 46.8259947L140.20543 49.1340522 137.641246 49.1340522 136.095507 46.5569966C135.547945 45.6380883 135.168942 45.05863 134.96728 44.8223297 134.762577 44.5806359 134.548755 44.41681 134.32446 44.3305149 134.097126 44.2395005 133.735688 44.1939933 133.242848 44.1939933L132.810811 44.1939933 132.810811 49.1340522 130.670557 49.1340522zM146.984895 44.4491032L145.520226 40.0595128 144.087309 44.4491032 146.984895 44.4491032zM150.927273 49.1339848L148.596503 49.1339848 147.668249 46.4426555 143.430978 46.4426555 142.55542 49.1339848 140.283089 49.1339848 144.416319 37.3004284 146.678517 37.3004284 150.927273 49.1339848z" mask="url(#d)"/>
    <polygon fill="#1A171B" points="156.005 49.134 156.005 39.3 152.856 39.3 152.856 37.301 161.282 37.301 161.282 39.3 158.143 39.3 158.143 49.134" mask="url(#d)"/>
    <path fill="#1A171B" d="M163.41273 43.2067568C163.41273 44.5490505 163.691747 45.5650408 164.243363 46.2570873 164.80072 46.9494709 165.501978 47.2902692 166.359971 47.2902692 167.213573 47.2902692 167.911115 46.9494709 168.454961 46.2655145 169.006577 45.5778503 169.281202 44.5490505 169.281202 43.1737219 169.281202 41.8219897 169.014684 40.8073477 168.477931 40.1422685 167.948272 39.47247 167.241272 39.1397618 166.359971 39.1397618 165.47563 39.1397618 164.763563 39.4775263 164.22546 40.1560892 163.683302 40.8292586 163.41273 41.8449118 163.41273 43.2067568M161.205593 43.2879956C161.205593 42.0818863 161.370436 41.0712895 161.69269 40.2511487 161.93455 39.6504537 162.264235 39.1080753 162.674316 38.6307554 163.093516 38.1527613 163.554603 37.797131 164.051159 37.5645387 164.708841 37.2517188 165.47563 37.0953089 166.337677 37.0953089 167.898617 37.0953089 169.149125 37.6383614 170.084135 38.7210956 171.026914 39.7997847 171.493744 41.3038818 171.493744 43.2333869 171.493744 45.1413183 171.026914 46.6383365 170.100687 47.7176997 169.171082 48.797063 167.924627 49.334385 166.364025 49.334385 164.786871 49.334385 163.538052 48.797063 162.605744 47.7274754 161.671072 46.6535055 161.205593 45.1723306 161.205593 43.2879956M174.786817 39.2997449L174.786817 47.139455 176.388629 47.139455C176.986185 47.139455 177.418559 47.1027121 177.684402 47.0258555 178.031653 46.9301219 178.318439 46.7669701 178.542058 46.5337036 178.774459 46.3011113 178.962272 45.9242443 179.108198 45.3953495 179.253449 44.8627468 179.326074 44.1393509 179.326074 43.2244877 179.326074 42.3092875 179.253449 41.6074654 179.108198 41.1163247 178.962272 40.6292292 178.760609 40.2462946 178.500171 39.9695434 178.240746 39.695826 177.912412 39.5094151 177.510439 39.4133443 177.209803 39.3401957 176.626098 39.2997449 175.74885 39.2997449L174.786817 39.2997449zM172.648252 37.3004621L176.561917 37.3004621C177.446934 37.3004621 178.118128 37.3739478 178.578201 37.5246272 179.203793 37.7299152 179.738181 38.0929615 180.180352 38.6178111 180.622185 39.1355819 180.959639 39.7780761 181.193054 40.5382148 181.425118 41.288915 181.539967 42.2175989 181.539967 43.3283116 181.539967 44.303851 181.430522 45.1415205 181.215011 45.8460393 180.950181 46.706631 180.572867 47.4027225 180.078338 47.9370107 179.705415 48.3425304 179.203793 48.6560244 178.572459 48.8835604 178.098874 49.0477234 177.468553 49.1340185 176.675753 49.1340185L172.648252 49.1340185 172.648252 37.3004621zM184.613813 43.2067568C184.613813 44.5490505 184.892492 45.5650408 185.449849 46.2570873 186.000114 46.9494709 186.708465 47.2902692 187.561054 47.2902692 188.414656 47.2902692 189.11186 46.9494709 189.659759 46.2655145 190.207659 45.5778503 190.486 44.5490505 190.486 43.1737219 190.486 41.8219897 190.217117 40.8073477 189.678676 40.1422685 189.149355 39.47247 188.442017 39.1397618 187.561054 39.1397618 186.676712 39.1397618 185.964645 39.4775263 185.426204 40.1560892 184.884385 40.8292586 184.613813 41.8449118 184.613813 43.2067568M182.410729 43.2879956C182.410729 42.0818863 182.569492 41.0712895 182.893773 40.2511487 183.136983 39.6504537 183.464642 39.1080753 183.879114 38.6307554 184.29899 38.1527613 184.75501 37.797131 185.253592 37.5645387 185.915328 37.2517188 186.676712 37.0953089 187.537408 37.0953089 189.103753 37.0953089 190.348856 37.6383614 191.283528 38.7210956 192.229348 39.7997847 192.69888 41.3038818 192.69888 43.2333869 192.69888 45.1413183 192.233401 46.6383365 191.30312 47.7176997 190.372164 48.797063 189.125709 49.334385 187.56612 49.334385 185.991669 49.334385 184.737107 48.797063 183.806488 47.7274754 182.87587 46.6535055 182.410729 45.1723306 182.410729 43.2879956M193.313628 45.2817838L195.398822 45.0545849C195.522455 45.8373087 195.779177 46.4120477 196.156491 46.7754311 196.544953 47.1394887 197.060087 47.3218546 197.71304 47.3218546 198.401799 47.3218546 198.921324 47.163085 199.268237 46.8398154 199.619879 46.5111523 199.796883 46.1282177 199.796883 45.6913486 199.796883 45.4142603 199.719866 45.1776229 199.574615 44.9817734 199.428013 44.7859239 199.172642 44.6126595 198.80715 44.4670364 198.552117 44.3716399 197.981923 44.1983754 197.091164 43.9475802 195.942331 43.6340862 195.139398 43.2427243 194.673919 42.7778767 194.022317 42.1272924 193.698036 41.3341188 193.698036 40.3970077 193.698036 39.7959756 193.847679 39.2353943 194.153719 38.7122301 194.46415 38.1843467 194.901929 37.7835462 195.476853 37.5108402 196.056167 37.2330777 196.75506 37.0952078 197.5661 37.0952078 198.89903 37.0952078 199.89822 37.4231967 200.572117 38.0754665 201.247702 38.7260508 201.599006 39.5957439 201.636164 40.6784781L199.491856 40.7839874C199.400314 40.1778989 199.205408 39.7410299 198.89903 39.4774252 198.602448 39.2087642 198.14913 39.0766248 197.548197 39.0766248 196.922605 39.0766248 196.439562 39.2175286 196.083528 39.5037183 195.855518 39.6867583 195.746073 39.9271037 195.746073 40.2375639 195.746073 40.5190344 195.850451 40.7566831 196.065625 40.9572518 196.334846 41.2073728 196.992528 41.4709775 198.031578 41.7450319 199.07198 42.0224573 199.842147 42.3039277 200.340391 42.6002301 200.841337 42.8921504 201.23115 43.2922766 201.512531 43.8066765 201.794926 44.3119749 201.936799 44.9352549 201.936799 45.68191 201.936799 46.3662034 201.767903 46.9985849 201.43011 47.5905156 201.092655 48.1821091 200.617719 48.6230233 199.997194 48.9149435 199.382411 49.1984365 198.610893 49.3433853 197.69007 49.3433853 196.348695 49.3433853 195.321806 48.9971935 194.601294 48.3095293 193.884498 47.6134377 193.456853 46.6065488 193.313628 45.2817838" mask="url(#d)"/>
  </g>
</svg>
