<?xml version="1.0" encoding="utf-8"?>
<!-- Generator: Adobe Illustrator 19.0.0, SVG Export Plug-In . SVG Version: 6.00 Build 0)  -->
<svg version="1.1" id="Layer_1" xmlns="http://www.w3.org/2000/svg" xmlns:xlink="http://www.w3.org/1999/xlink" x="0px" y="0px"
	 viewBox="0 0 245.2 310.1" style="enable-background:new 0 0 245.2 310.1;" xml:space="preserve">
<style type="text/css">
	.st0{fill:#FFFFFF;}
</style>
<g id="XMLID_74_">
	<path id="XMLID_115_" class="st0" d="M119.6,55.1c0-1.5,1-2.9,2.5-3.9c1.6,1,2.5,2.4,2.5,3.9c0,1.5-1,2.9-2.5,3.9
		C120.6,58,119.6,56.7,119.6,55.1"/>
	<path id="XMLID_114_" class="st0" d="M124.2,63.1c-1.3-0.8-2-2.3-2.1-4.1c1.6-0.9,3.3-1,4.6-0.2c1.3,0.8,2,2.3,2.1,4.1
		C127.3,63.8,125.6,63.9,124.2,63.1"/>
	<path id="XMLID_113_" class="st0" d="M120,63.1c1.3-0.8,2-2.3,2.1-4.1c-1.6-0.9-3.3-1-4.6-0.2c-1.3,0.8-2.1,2.3-2.1,4.1
		C117,63.8,118.7,63.9,120,63.1"/>
	<path id="XMLID_112_" class="st0" d="M137.4,56.5c0.3-1.5,1.6-2.7,3.3-3.3c1.3,1.3,2,2.8,1.7,4.3c-0.3,1.5-1.6,2.7-3.3,3.3
		C137.8,59.5,137.1,58,137.4,56.5"/>
	<path id="XMLID_111_" class="st0" d="M140.3,65.3c-1.1-1-1.5-2.7-1.2-4.5c1.8-0.5,3.4-0.3,4.6,0.7c1.1,1,1.5,2.7,1.2,4.5
		C143.1,66.5,141.4,66.3,140.3,65.3"/>
	<path id="XMLID_110_" class="st0" d="M136.2,64.4c1.5-0.5,2.5-1.8,2.9-3.6c-1.4-1.2-3-1.7-4.5-1.2c-1.5,0.5-2.5,1.8-2.9,3.6
		C133.1,64.4,134.7,64.9,136.2,64.4"/>
	<path id="XMLID_109_" class="st0" d="M154.7,61.4c0.6-1.4,2.1-2.3,3.9-2.5c1,1.5,1.4,3.2,0.7,4.6c-0.6,1.4-2.1,2.3-3.9,2.5
		C154.4,64.5,154.1,62.8,154.7,61.4"/>
	<path id="XMLID_108_" class="st0" d="M151.8,68.9c1.5-0.2,2.8-1.3,3.6-2.9c-1.1-1.4-2.6-2.3-4.1-2.1c-1.5,0.2-2.8,1.3-3.6,2.9
		C148.8,68.3,150.3,69.1,151.8,68.9"/>
	<path id="XMLID_107_" class="st0" d="M106.5,56.5c-0.3-1.5-1.6-2.7-3.3-3.3c-1.3,1.3-2,2.8-1.7,4.3c0.3,1.5,1.6,2.7,3.3,3.3
		C106.1,59.5,106.8,58,106.5,56.5"/>
	<path id="XMLID_106_" class="st0" d="M103.6,65.3c1.1-1,1.5-2.7,1.2-4.5c-1.8-0.5-3.4-0.3-4.6,0.7c-1.1,1-1.5,2.7-1.2,4.5
		C100.8,66.5,102.5,66.3,103.6,65.3"/>
	<path id="XMLID_105_" class="st0" d="M107.7,64.4c-1.5-0.5-2.5-1.8-2.9-3.6c1.4-1.2,3-1.7,4.5-1.2c1.5,0.5,2.5,1.8,2.9,3.6
		C110.8,64.4,109.2,64.9,107.7,64.4"/>
	<path id="XMLID_104_" class="st0" d="M89.2,61.4c-0.6-1.4-2.1-2.3-3.9-2.5c-1,1.5-1.4,3.2-0.7,4.6s2.1,2.3,3.9,2.5
		C89.5,64.5,89.8,62.8,89.2,61.4"/>
	<path id="XMLID_103_" class="st0" d="M92.1,68.9c-1.5-0.2-2.8-1.3-3.6-2.9c1.1-1.4,2.6-2.3,4.1-2.1c1.5,0.2,2.8,1.3,3.6,2.9
		C95.1,68.3,93.6,69.1,92.1,68.9"/>
	<path id="XMLID_102_" class="st0" d="M92.1,73.9l3.4,5.2c7.8-3.6,16.9-5.9,26.6-5.9c9.7,0,18.8,2.4,26.6,5.9l3.4-5.2
		c-8.7-4.2-19-6.7-29.9-6.7C111.2,67.3,100.9,69.7,92.1,73.9"/>
	<path id="XMLID_101_" class="st0" d="M117.9,22.3c0-2.3,1.9-4.2,4.2-4.2c2.3,0,4.2,1.9,4.2,4.2c0,2.3-1.9,4.2-4.2,4.2
		C119.8,26.4,117.9,24.6,117.9,22.3"/>
	<path id="XMLID_100_" class="st0" d="M97.5,41.6c-1.1-0.3-2.4-0.5-3.7-0.5c-5.4,0-9.8,3.3-9.8,7.4c0,1.9,1,3.7,2.5,5l-4.3,4.3
		c-2.7-2.4-4.3-5.7-4.3-9.3c0-7.5,7.1-13.5,16-13.5c2.3,0,4.5,0.4,6.5,1.2c2.9-3.3,7.6-5.5,12.9-5.5c3.3,0,6.3,0.8,8.8,2.3
		c2.5-1.4,5.6-2.3,8.8-2.3c5.3,0,10,2.2,12.9,5.5c2-0.7,4.2-1.2,6.5-1.2c8.8,0,16,6.1,16,13.5c0,3.6-1.7,6.9-4.3,9.3l-4.3-4.3
		c1.6-1.3,2.5-3,2.5-5c0-4.1-4.4-7.4-9.8-7.4c-1.3,0-2.5,0.2-3.7,0.5c0.2,0.8,0.3,1.7,0.3,2.5c0,2.7-0.9,5.2-2.5,7.3l-4.4-4.4
		c0.5-0.9,0.8-1.9,0.8-2.9c0-4.1-4.4-7.4-9.8-7.4c-2.1,0-4.1,0.5-5.6,1.3V47h-6.1v-8.8c-1.6-0.9-3.7-1.5-5.9-1.5
		c-5.4,0-9.8,3.3-9.8,7.4c0,1,0.3,2,0.8,2.9l-4.4,4.4c-1.6-2.1-2.5-4.6-2.5-7.3C97.2,43.3,97.3,42.4,97.5,41.6"/>
	<path id="XMLID_99_" class="st0" d="M118.1,288.4c0-2.2,1.8-4,4-4c2.2,0,4,1.8,4,4c0,2.2-1.8,4-4,4
		C119.8,292.4,118.1,290.6,118.1,288.4"/>
	<path id="XMLID_98_" class="st0" d="M11.4,181.8c0-2.2,1.8-4,4-4c2.2,0,4,1.8,4,4c0,2.2-1.8,4-4,4C13.2,185.7,11.4,184,11.4,181.8"
		/>
	<path id="XMLID_97_" class="st0" d="M224.7,181.8c0-2.2,1.8-4,4-4c2.2,0,4,1.8,4,4c0,2.2-1.8,4-4,4
		C226.5,185.7,224.7,184,224.7,181.8"/>
	<polygon id="XMLID_41_" class="st0" points="101.1,250.6 110.9,260.3 110.9,183.2 101.1,183.2 	"/>
	<polygon id="XMLID_43_" class="st0" points="210.4,183.2 211.8,181.7 210.4,180.3 201.6,180.3 191.8,180.3 182,180.3 172.3,180.3 
		162.5,180.3 152.7,180.3 143,180.3 133.2,180.3 123.5,180.3 123.5,93.4 122.1,92 120.6,93.4 120.6,146.3 101.1,146.3 101.1,112.9 
		91.3,122.7 91.3,146.3 67.7,146.3 58,156 91.3,156 91.3,180.3 101.1,180.3 101.1,156 120.6,156 120.6,180.3 33.7,180.3 32.3,181.8 
		33.7,183.2 42.5,183.2 52.3,183.2 62,183.2 62,183.2 62,211.5 71.8,221.3 71.8,183.2 81.6,183.2 91.3,183.2 101.1,183.2 
		110.9,183.2 120.6,183.2 120.6,270 122,271.5 123.5,270 123.5,217.2 143,217.2 143,250.6 152.8,240.8 152.8,217.2 176.3,217.2 
		186.1,207.4 152.8,207.4 152.8,183.2 143,183.2 143,207.4 123.5,207.4 123.5,183.2 	"/>
	<polygon id="XMLID_52_" class="st0" points="81.6,231 91.3,240.8 91.3,183.2 81.6,183.2 	"/>
	<polygon id="XMLID_53_" class="st0" points="42.5,192 52.3,201.8 52.3,183.2 42.5,183.2 	"/>
	<polygon id="XMLID_54_" class="st0" points="143,112.9 133.2,103.2 133.2,180.3 143,180.3 	"/>
	<polygon id="XMLID_55_" class="st0" points="162.5,132.5 152.7,122.7 152.7,180.3 162.5,180.3 	"/>
	<polygon id="XMLID_56_" class="st0" points="182,152 172.3,142.2 172.3,180.3 182,180.3 	"/>
	<polygon id="XMLID_57_" class="st0" points="201.6,171.5 191.8,161.7 191.8,180.3 201.6,180.3 	"/>
	<path id="XMLID_86_" class="st0" d="M122,278l96.4-96.3L122,85.4l-96.4,96.3L122,278z M219.8,181.7c0,0-10.8,19.3-44.1,52.6
		c-33.7,33.7-53.6,45.1-53.6,45.1s-19.3-10.8-52.7-44.1c-33.7-33.7-45.1-53.6-45.1-53.6s10.8-19.3,44.1-52.6
		C102.1,95.4,122,84,122,84s19.3,10.7,52.7,44C208.4,161.8,219.8,181.7,219.8,181.7"/>
	<path id="XMLID_83_" class="st0" d="M122,278l96.4-96.3L122,85.4l-96.4,96.3L122,278z M219.8,181.7c0,0-10.8,19.3-44.1,52.6
		c-33.7,33.7-53.6,45.1-53.6,45.1s-19.3-10.8-52.7-44.1c-33.7-33.7-45.1-53.6-45.1-53.6s10.8-19.3,44.1-52.6
		C102.1,95.4,122,84,122,84s19.3,10.7,52.7,44C208.4,161.8,219.8,181.7,219.8,181.7"/>
	<path id="XMLID_80_" class="st0" d="M122,278.3l96.6-96.6L122,85.1l-96.6,96.6L122,278.3z M220,181.7c0,0-10.8,19.4-44.2,52.8
		C142,268.3,122,279.7,122,279.7s-19.4-10.8-52.8-44.2C35.4,201.7,24,181.7,24,181.7s10.8-19.4,44.2-52.8
		C102,95.1,122,83.8,122,83.8s19.4,10.8,52.8,44.2C208.6,161.8,220,181.7,220,181.7"/>
	<path id="XMLID_77_" class="st0" d="M122,278.3l96.6-96.6L122,85.1l-96.6,96.6L122,278.3z M220,181.7c0,0-10.8,19.4-44.2,52.8
		C142,268.3,122,279.7,122,279.7s-19.4-10.8-52.8-44.2C35.4,201.7,24,181.7,24,181.7s10.8-19.4,44.2-52.8
		C102,95.1,122,83.8,122,83.8s19.4,10.8,52.8,44.2C208.6,161.8,220,181.7,220,181.7z"/>
</g>
</svg>
