<svg xmlns="http://www.w3.org/2000/svg" width="133" height="51" viewBox="0 0 133 51">
  <g fill="none">
    <path fill="#6C798A" d="M34.5269202,30.728 C34.2085205,28.6776922 32.2858849,27.2732523 30.2324623,27.591 L30.2324623,27.591 C32.2501572,27.2867875 34.1429667,28.643883 34.4991478,30.6501031 C34.8553289,32.6563233 33.54505,34.5803809 31.5455765,34.9872267 C29.546103,35.3940724 27.5862629,34.1354069 27.1277937,32.15 C27.1800336,32.5619519 27.206458,32.9767592 27.2069127,33.392 C27.2008414,38.7886227 22.8209399,43.1619379 17.4161898,43.168 C15.3380648,43.168 15.3420708,43.192 17.4161898,43.192 C19.4020223,43.1902901 21.0471225,44.7301978 21.1734688,46.7090275 C21.2998152,48.6878572 19.8638809,50.4238946 17.8939081,50.674 C27.2219352,50.421 34.7322289,42.765 34.7322289,33.391 C34.7320241,32.4993998 34.6633869,31.6091264 34.5269202,30.728 Z"/>
    <path fill="#495E75" d="M44.6721762,22.461 L44.2715738,22.814 C44.0913027,23.046 43.9160392,23.282 43.7467846,23.524 C41.7272914,26.4196108 40.6467315,29.8644537 40.6511295,33.393 C40.6500961,34.1304235 40.86753,34.8516778 41.2760693,35.466 L49.6887199,28.066 C49.7588253,28.004 49.8239232,27.939 49.8890211,27.873 L49.9250753,27.82 C50.0866516,27.588 50.2572415,27.3646667 50.4368449,27.15 C51.3638102,25.5525965 50.9910627,23.5194267 49.5574851,22.3534884 C48.1239075,21.1875502 46.0543714,21.2343944 44.6751807,22.464 L44.6721762,22.461 Z"/>
    <path fill="#6C798A" d="M66.9446687,38.084 C66.9426699,36.6387093 67.771162,35.3204096 69.0754044,34.6935656 C70.3796467,34.0667217 71.9283774,34.2424823 73.0584668,35.145591 C74.1885562,36.0486998 74.6996223,37.5190217 74.3728389,38.927 C74.9762212,37.1442321 75.2830722,35.2748167 75.2812048,33.393 C75.2812048,23.86 67.5135241,16.103 57.9651657,16.103 C53.3716889,16.0998134 48.9654321,17.9204099 45.7173528,21.1636049 C42.4692734,24.4067999 40.6459351,28.8064307 40.6491265,33.393 C40.6826379,35.4437639 42.3571581,37.0887077 44.4112839,37.0887077 C46.4654096,37.0887077 48.1399299,35.4437639 48.1734413,33.393 C48.1787149,29.4882506 50.5105832,25.9611517 54.1045313,24.4218499 C57.6984793,22.882548 61.8650929,23.6263219 64.7022823,26.3136333 C67.5394718,29.0009447 68.5029893,33.1162963 67.1529819,36.781"/>
    <path fill="#6C798A" d="M27.0316491 46.75C25.4721104 46.74839 24.0752087 45.7863303 23.5196872 44.3312778 22.9641658 42.8762253 23.3651815 41.2298053 24.527884 40.192L44.6721762 22.461C45.6675437 21.5236797 47.0940317 21.1997296 48.3974921 21.6149947 49.7009526 22.0302597 50.6759289 23.1192843 50.9436717 24.4590146 51.2114146 25.798745 50.7297213 27.1780076 49.6857154 28.061L29.5374172 45.795C28.8487018 46.4110074 27.9562769 46.751129 27.0316491 46.75zM116.274849 50.682C106.726491 50.682 98.9588102 42.926 98.9588102 33.392 98.957479 32.3050044 99.0580685 31.2202715 99.259262 30.152 99.6800404 28.1489199 101.629126 26.8506552 103.642971 27.2320593 105.656816 27.6134633 106.994414 29.5341962 106.651378 31.552 106.536694 32.1579642 106.479023 32.7733108 106.479119 33.39 106.476278 37.5153044 109.067725 41.1982212 112.955522 42.594145 116.843319 43.9900688 121.190274 42.7984035 123.819194 39.616 124.668709 38.5581722 126.023164 38.039474 127.363241 38.2587824 128.703318 38.4780908 129.821077 39.4013756 130.287951 40.674635 130.754824 41.9478944 130.498369 43.3735565 129.616913 44.405 126.331998 48.3824254 121.438013 50.6848839 116.274849 50.682L116.274849 50.682z"/>
    <path fill="#CB5EC6" d="M129.137191,33.542 C127.445591,33.5404231 125.962874,32.4121598 125.512741,30.784 C124.643434,27.639 122.267861,25.068 119.152176,24.076 C117.853803,23.6824926 116.868183,22.6214618 116.572687,21.2991537 C116.277191,19.9768456 116.717596,18.5980992 117.72528,17.6908071 C118.732964,16.783515 120.151826,16.488226 121.438614,16.918 C127.033027,18.699 131.205301,23.136 132.766649,28.785 C133.078114,29.9158807 132.843232,31.1271101 132.131527,32.0601738 C131.419822,32.9932376 130.312823,33.5412486 129.138193,33.542 L129.137191,33.542 Z"/>
    <path fill="#6C798A" d="M102.862681,34.612 C101.741362,34.6124654 100.6782,34.1138067 99.962638,33.2517824 C99.2470756,32.389758 98.9536025,31.2541043 99.162116,30.154 C100.092427,25.2946711 103.061776,21.0655372 107.31965,18.5355277 C111.577524,16.0055182 116.716475,15.4167367 121.437613,16.918 C122.73933,17.3086086 123.728872,18.3698494 124.026213,19.6941615 C124.323555,21.0184737 123.882467,22.3999617 122.872347,23.3080763 C121.862227,24.216191 120.44012,24.5097445 119.152176,24.076 C116.483262,23.229232 113.579105,23.5622666 111.171936,24.991135 C108.764768,26.4200034 107.0843,28.808352 106.554232,31.554 C106.21821,33.3258648 104.668746,34.6094067 102.862681,34.612 L102.862681,34.612 Z"/>
    <path fill="#6C798A" d="M103.413509 41.325C101.549736 41.3260376 99.9660559 39.9645525 99.6901962 38.1240796 99.4143364 36.2836068 100.529436 34.5188299 102.311852 33.975L128.030527 26.244C129.321986 25.829935 130.736682 26.1419713 131.733281 27.060708 132.72988 27.9794446 133.154109 29.3626612 132.843636 30.6810687 132.533162 31.9994762 131.536049 33.0489851 130.23384 33.428L104.515166 41.159C104.158231 41.2686129 103.786943 41.3245594 103.413509 41.325zM84.9377259 30.919C84.9042145 32.9697639 83.2296943 34.6147077 81.1755685 34.6147077 79.1214428 34.6147077 77.4469225 32.9697639 77.4134111 30.919L77.4134111 46.868C77.3912418 48.224676 78.1034168 49.4878773 79.2765464 50.1726859 80.4496759 50.8574945 81.9014612 50.8574945 83.0745907 50.1726859 84.2477202 49.4878773 84.9598952 48.224676 84.9377259 46.868L84.9377259 30.888"/>
    <ellipse cx="81.176" cy="46.868" fill="#2D4059" rx="3.763" ry="3.757"/>
    <path fill="#78C2F8" d="M17.4161898,43.169 C13.5225037,43.1686814 9.99908052,40.864637 8.442579,37.3009573 C6.88607748,33.7372776 7.59237173,29.5913796 10.2414006,26.742 C8.76449473,27.9589956 6.61051916,27.8850737 5.2207833,26.5696982 C3.83104745,25.2543228 3.6420207,23.1106091 4.78018825,21.573 C1.76307441,24.770011 0.0881485624,29.0002384 0.100150602,33.393 C0.100150602,42.767 7.61144578,50.422 16.9384714,50.676 C14.9684987,50.4258946 13.5325643,48.6898572 13.6589107,46.7110275 C13.785257,44.7321978 15.4303572,43.1922901 17.4161898,43.194"/>
    <ellipse cx="126.725" cy="42.059" fill="#2D4059" rx="3.763" ry="3.757"/>
    <path fill="#495E75" d="M108.916785,39.836 C107.346536,38.0560955 106.481135,35.764988 106.483125,33.393 C106.483125,33.166 106.49314,32.94 106.509164,32.714 L102.312854,33.975 C101.010646,34.3540149 100.013532,35.4035238 99.7030586,36.7219313 C99.3925854,38.0403388 99.8168141,39.4235554 100.813413,40.342292 C101.810013,41.2610287 103.224709,41.573065 104.516167,41.159 L108.916785,39.836 Z"/>
    <path fill="#FF8964" d="M106.700452,30.888 C106.700452,22.832 100.136581,16.279 92.0694503,16.279 C84.0023193,16.279 77.4374473,22.833 77.4374473,30.888 C77.415278,32.244676 78.127453,33.5078773 79.3005825,34.1926859 C80.473712,34.8774945 81.9254973,34.8774945 83.0986268,34.1926859 C84.2717563,33.5078773 84.9839314,32.244676 84.961762,30.888 C85.0238444,27.0986112 88.0556668,24.0259621 91.8494185,23.907594 C95.6431703,23.7892259 98.8612064,26.6668744 99.160113,30.445 C99.3941042,28.4688471 101.129965,27.0171509 103.119451,27.1338163 C105.108936,27.2504817 106.66268,28.8950836 106.663396,30.885"/>
    <path fill="#CC5D4E" d="M99.162116,30.154 C99.1561069,30.187 99.1510994,30.22 99.1460919,30.254 C99.1651205,30.464 99.176137,30.675 99.176137,30.89 C99.1696956,32.8158541 100.639013,34.4269502 102.559946,34.600324 C104.48088,34.7736978 106.215713,33.451792 106.555233,31.556 C106.596295,31.341 106.64637,31.13 106.700452,30.921 L106.700452,30.89 C106.704046,27.5383346 105.547855,24.288347 103.42753,21.69 C101.240138,24.0569445 99.7622507,26.9895645 99.162116,30.154 Z"/>
    <path fill="#495E75" d="M34.7312274,33.393 C34.7310202,32.6998205 34.6895515,32.0072661 34.6070407,31.319 L24.523878,40.192 C23.0552556,41.5119886 22.8594188,43.7413996 24.0754858,45.296509 C25.2915527,46.8516185 27.5051666,47.2025458 29.1438253,46.1 C32.7062026,42.8324615 34.733018,38.2230309 34.7312274,33.393 Z"/>
    <path fill="#CB5EC6" d="M31.2109337,47.168 C31.2130998,45.283428 32.6132335,43.6920633 34.4846414,43.4471678 C36.3560493,43.2022722 38.1195951,44.3796324 38.6080572,46.2 L34.4317771,30.35 C33.8817992,28.368973 31.8393791,27.1971581 29.8483317,27.7203013 C27.8572844,28.2434444 26.6570403,30.2672618 27.1548343,32.262 L31.3251054,48.085 C31.2494831,47.7851738 31.2111371,47.4771881 31.2109337,47.168 L31.2109337,47.168 Z"/>
    <path fill="#7C467F" d="M34.6721386,31.261 L34.6070407,31.318 C34.5830045,31.118 34.5569654,30.923 34.5259187,30.727 C34.5259187,30.707 34.5189081,30.687 34.5149021,30.667 L34.4307756,30.349 C33.9582696,28.557266 32.2484075,27.3767648 30.4027184,27.568 L30.3586521,27.574 C30.3135843,27.579 30.2675151,27.585 30.2224473,27.592 C28.1736172,27.9143461 26.7724159,29.8313914 27.0897364,31.878 C27.1037575,31.966 27.1147741,32.055 27.1257907,32.144 C27.1348042,32.183 27.1428163,32.222 27.1538328,32.262 L30.4978614,44.949 L36.8143599,39.39 L34.6721386,31.261 Z"/>
    <ellipse cx="120.311" cy="20.484" fill="#B61AAE" transform="rotate(-55.89 120.311 20.484)" rx="3.773" ry="3.767"/>
    <path fill="#7C467F" d="M132.863795,30.318 C133.027888,29.0518063 132.536568,27.7890876 131.559395,26.9656228 C130.582222,26.142158 129.253025,25.8707256 128.030527,26.245 L123.898313,27.487 C124.636653,28.4775765 125.184099,29.5965933 125.512741,30.787 C125.987186,32.5011667 127.60033,33.6483538 129.377853,33.5356726 C131.155376,33.4229914 132.61027,32.0813144 132.863795,30.321 L132.863795,30.318 Z"/>
    <ellipse cx="129.132" cy="29.836" fill="#2D4059" rx="3.763" ry="3.757"/>
    <path fill="#6C798A" d="M63.0478087,49.7 C63.5312076,49.6999491 64.0100364,49.6065685 64.4579292,49.425 C68.8285348,47.6548576 72.2899555,44.1856461 74.0463479,39.815 C73.2482755,41.3531198 71.5001994,42.1467539 69.8147396,41.7361686 C68.1292798,41.3255832 66.9436544,39.8172866 66.9446687,38.085 L67.1529819,36.785 C66.2266878,39.2746339 64.3287223,41.2826871 61.8930723,42.35 C63.3064878,41.8806238 64.8641569,42.2879723 65.865686,43.3888844 C66.8672151,44.4897966 67.1240423,46.0769992 66.5206872,47.4368192 C65.9173321,48.7966391 64.5673909,49.6730576 63.0778539,49.672"/>
    <path fill="#69DCCB" d="M48.1504066,33.393 C48.1364555,35.3642747 46.598591,36.9893507 44.6283025,37.1148407 C42.658014,37.2403307 40.9258246,35.8235284 40.6611446,33.87 C40.9145256,43.184 48.5820557,50.683 57.9701732,50.683 C60.1950878,50.6865431 62.3996207,50.2596794 64.4619352,49.426 C64.7617174,49.3041717 65.0444796,49.1441807 65.3032003,48.95 C64.1516931,49.790708 62.6230723,49.9089278 61.355648,49.2552939 C60.0882237,48.6016601 59.2999719,47.2885868 59.3200448,45.8643775 C59.3401177,44.4401681 60.1650632,43.1497631 61.4504066,42.532 C58.440426,43.6765877 55.0592242,43.2701075 52.4073458,41.4448645 C49.7554673,39.6196214 48.1720354,36.6090281 48.1724398,33.393"/>
    <path fill="#6C798A" d="M34.5269202,30.727 C34.4738404,30.388 34.409744,30.044 34.3356325,29.701 C32.6170482,21.822 25.5013479,16.101 17.4161898,16.101 C13.0170206,16.0895425 8.78080849,17.7622966 5.57939006,20.775 C7.11940606,19.6404727 9.26482051,19.8300919 10.5813038,21.2170866 C11.8977871,22.6040812 11.972363,24.7533558 10.7551732,26.228 C12.5620333,24.5439348 14.9434837,23.6103082 17.4151883,23.617 C21.9880648,23.617 26.0111145,26.848 26.9815738,31.297 C27.0036069,31.399 27.0239709,31.5016667 27.0426657,31.605 C27.0346536,31.505 27.0296461,31.405 27.0296461,31.305 C27.0074768,29.948324 27.7196518,28.6851227 28.8927813,28.0003141 C30.0659108,27.3155055 31.5176961,27.3155055 32.6908256,28.0003141 C33.8639551,28.6851227 34.5761302,29.948324 34.5539608,31.305"/>
    <ellipse cx="44.388" cy="3.757" fill="#2D4059" rx="3.763" ry="3.757"/>
    <ellipse cx="34.974" cy="47.168" fill="#B61AAE" rx="3.763" ry="3.757"/>
    <ellipse cx="7.83" cy="23.821" fill="#2D4059" rx="3.791" ry="3.785"/>
    <ellipse cx="63.082" cy="45.915" fill="#29CDB5" rx="3.763" ry="3.757"/>
    <path fill="#2D4059" d="M40.6260919,33.393 C40.6039225,32.036324 41.3160976,30.7731227 42.4892271,30.0883141 C43.6623566,29.4035055 45.1141419,29.4035055 46.2872714,30.0883141 C47.4604009,30.7731227 48.172576,32.036324 48.1504066,33.393"/>
    <path fill="#6C798A" d="M48.1504066,33.393 L48.1504066,3.757 C48.1168953,5.80776388 46.442375,7.45270767 44.3882492,7.45270767 C42.3341235,7.45270767 40.6596032,5.80776388 40.6260919,3.757 L40.6260919,33.393"/>
    <ellipse cx="70.707" cy="38.084" fill="#2D4059" rx="3.763" ry="3.757"/>
    <path fill="#495E75" d="M48.1504066,19.152 C43.4509345,22.3732224 40.6447819,27.7013471 40.650128,33.393 L48.1504066,33.393 L48.1504066,19.152 Z"/>
    <path fill="#495E75" d="M50.0853163,22.759 C48.7016597,21.2143959 46.3267177,21.0801674 44.7773343,22.459 L44.3767319,22.812 L44.3496913,22.848 L40.6310994,26.12 L40.6310994,33.491 L40.7592922,33.491 C40.7762094,34.1939055 40.9914345,34.8777774 41.3802259,35.464 L43.6215964,33.491 L43.634616,33.491 L48.1554142,29.513 L48.1554142,29.5 L49.791875,28.06 C49.8619804,27.998 49.9270783,27.933 49.9921762,27.867 L50.0282304,27.814 C50.1898067,27.582 50.3603966,27.3586667 50.54,27.144 C51.3531473,25.7377544 51.1697517,23.9690753 50.0853163,22.759 L50.0853163,22.759 Z"/>
    <path fill="#334A63" d="M48.1504066,29.515 L48.1504066,21.733 C46.9567275,21.4084097 45.6797912,21.7213991 44.7723268,22.561 L44.3717244,22.914 C44.1914533,23.146 44.0161898,23.382 43.8469352,23.624 C41.827442,26.5196108 40.7468821,29.9644537 40.7512801,33.493 L43.6316114,33.493 L48.1504066,29.515 Z"/>
    <ellipse cx="44.388" cy="33.393" fill="#2D4059" rx="3.763" ry="3.757"/>
    <ellipse cx="47.179" cy="25.262" fill="#2D4059" rx="3.763" ry="3.757"/>
    <path fill="#6E3470" d="M30.4457831,44.761 C33.2093704,41.6168056 34.7316937,37.575349 34.7282229,33.392 C34.7280157,32.6988205 34.686547,32.0062661 34.6040361,31.318 L28.3526355,36.818 L30.4457831,44.761 Z"/>
    <ellipse cx="30.793" cy="31.306" fill="#2D4059" rx="3.763" ry="3.757"/>
    <ellipse cx="27.031" cy="42.993" fill="#2D4059" rx="3.763" ry="3.757"/>
    <ellipse cx="17.416" cy="46.95" fill="#3FA9F5" rx="3.763" ry="3.757"/>
    <ellipse cx="81.176" cy="30.919" fill="#FF5722" rx="3.763" ry="3.757"/>
    <path fill="#2D4059" d="M104.857681,34.1 C106.343972,33.1948175 107.014809,31.390133 106.479905,29.7358907 C105.945002,28.0816485 104.3439,27.0093934 102.608101,27.1429508 C100.872303,27.2765083 99.4546284,28.5810369 99.1798647,30.2975774 C98.905101,32.0141178 99.8449259,33.6948733 101.45256,34.362 C99.9674675,35.2670037 99.297441,37.0706326 99.8322257,38.7237415 C100.36701,40.3768504 101.967128,41.4482892 103.701813,41.3148174 C105.436498,41.1813457 106.853325,39.8777742 107.128145,38.1623719 C107.402965,36.4469696 106.464103,34.7671335 104.857681,34.1 L104.857681,34.1 Z"/>
  </g>
</svg>
